<svg width="212" height="138" viewBox="0 0 212 138" fill="none" xmlns="http://www.w3.org/2000/svg">
<path d="M105.811 137.82C117.513 137.82 127 128.382 127 116.739C127 105.097 117.513 95.6591 105.811 95.6591C94.1079 95.6591 84.6211 105.097 84.6211 116.739C84.6211 128.382 94.1079 137.82 105.811 137.82Z" fill="#5463FF"/>
<path fill-rule="evenodd" clip-rule="evenodd" d="M93.3959 118.58L100.411 127.283C100.699 127.641 101.067 127.926 101.485 128.117C101.903 128.308 102.361 128.4 102.821 128.384C103.281 128.368 103.731 128.246 104.135 128.026C104.539 127.807 104.886 127.497 105.149 127.121L118.25 108.339C118.697 107.698 118.87 106.906 118.73 106.138C118.591 105.37 118.15 104.688 117.505 104.243C116.86 103.799 116.065 103.627 115.292 103.766C114.52 103.905 113.835 104.343 113.388 104.984L102.546 120.527L98.0095 114.899C97.5174 114.295 96.8049 113.909 96.0278 113.826C95.2507 113.743 94.4722 113.97 93.8625 114.456C93.2527 114.942 92.8614 115.649 92.7739 116.422C92.6865 117.195 92.9101 117.97 93.3959 118.579V118.58Z" fill="white"/>
<path d="M78.0524 90.0188L84.3197 58.3182L60.4531 36.5285L92.5363 32.7026L105.872 3.26111L119.427 32.5933L151.547 36.1824L127.844 58.1542L134.348 89.8002L106.146 74.0409L78.0524 90.0188Z" fill="#FFD759"/>
<path d="M106 46.64L60.4531 36.5286L84.3197 58.3182L106 46.64Z" fill="#FABD3B"/>
<path d="M106 46.64L78.0522 90.0189L106.146 74.041L134.348 89.8002L106 46.64Z" fill="#FABD3B"/>
<path d="M106 46.6401L151.547 36.1825L127.844 58.1543L106 46.6401Z" fill="#FABD3B"/>
<path d="M105.873 3.26111L106 46.6399L119.427 32.5933L105.873 3.26111Z" fill="#FABD3B"/>
<path d="M11.5554 91.264L15.4297 71.6672L0.675781 58.1973L20.509 55.8322L28.7532 37.632L37.1325 55.7646L56.9883 57.9833L42.3358 71.5659L46.3565 91.1288L28.9221 81.3868L11.5554 91.264Z" fill="#FFD759"/>
<path d="M28.832 64.448L0.675781 58.1973L15.4297 71.6672L28.832 64.448Z" fill="#FABD3B"/>
<path d="M28.8319 64.448L11.5552 91.264L28.9219 81.3868L46.3563 91.1289L28.8319 64.448Z" fill="#FABD3B"/>
<path d="M28.832 64.448L56.9883 57.9833L42.3358 71.5659L28.832 64.448Z" fill="#FABD3B"/>
<path d="M28.7529 37.632L28.8318 64.448L37.1322 55.7646L28.7529 37.632Z" fill="#FABD3B"/>
<path d="M165.891 91.264L169.766 71.6672L155.012 58.1973L174.845 55.8322L183.089 37.632L191.468 55.7646L211.324 57.9833L196.672 71.5659L200.692 91.1288L183.258 81.3868L165.891 91.264Z" fill="#FFD759"/>
<path d="M183.168 64.448L155.012 58.1973L169.766 71.6672L183.168 64.448Z" fill="#FABD3B"/>
<path d="M183.168 64.448L165.891 91.264L183.258 81.3868L200.692 91.1289L183.168 64.448Z" fill="#FABD3B"/>
<path d="M183.168 64.448L211.324 57.9833L196.672 71.5659L183.168 64.448Z" fill="#FABD3B"/>
<path d="M183.089 37.632L183.168 64.448L191.468 55.7646L183.089 37.632Z" fill="#FABD3B"/>
</svg>
