<svg width="16" height="16" viewBox="0 0 16 16" fill="none" xmlns="http://www.w3.org/2000/svg">
<path d="M9.625 6H8.375C8.15625 6 8 6.1875 8 6.375V7.625C8 7.84375 8.15625 8 8.375 8H9.625C9.8125 8 10 7.84375 10 7.625V6.375C10 6.1875 9.8125 6 9.625 6ZM9.625 9H8.375C8.15625 9 8 9.1875 8 9.375V10.625C8 10.8438 8.15625 11 8.375 11H9.625C9.8125 11 10 10.8438 10 10.625V9.375C10 9.1875 9.8125 9 9.625 9ZM4.625 7H3.375C3.15625 7 3 7.1875 3 7.375V8.625C3 8.84375 3.15625 9 3.375 9H4.625C4.8125 9 5 8.84375 5 8.625V7.375C5 7.1875 4.8125 7 4.625 7ZM9.625 3H8.375C8.15625 3 8 3.1875 8 3.375V4.625C8 4.84375 8.15625 5 8.375 5H9.625C9.8125 5 10 4.84375 10 4.625V3.375C10 3.1875 9.8125 3 9.625 3ZM4.625 10H3.375C3.15625 10 3 10.1875 3 10.375V11.625C3 11.8438 3.15625 12 3.375 12H4.625C4.8125 12 5 11.8438 5 11.625V10.375C5 10.1875 4.8125 10 4.625 10ZM12.625 3H11.375C11.1562 3 11 3.1875 11 3.375V4.625C11 4.84375 11.1562 5 11.375 5H12.625C12.8125 5 13 4.84375 13 4.625V3.375C13 3.1875 12.8125 3 12.625 3ZM14 0H7C5.875 0 5 0.90625 5 2V4H2C0.875 4 0 4.90625 0 6V15.25C0 15.6875 0.3125 16 0.75 16C1.15625 16 1.5 15.6875 1.5 15.25V6C1.5 5.75 1.71875 5.5 2 5.5H6.5V2C6.5 1.75 6.71875 1.5 7 1.5H14C14.25 1.5 14.5 1.75 14.5 2V15.25C14.5 15.6875 14.8125 16 15.25 16C15.6562 16 16 15.6875 16 15.25V2C16 0.90625 15.0938 0 14 0ZM12.625 6H11.375C11.1562 6 11 6.1875 11 6.375V7.625C11 7.84375 11.1562 8 11.375 8H12.625C12.8125 8 13 7.84375 13 7.625V6.375C13 6.1875 12.8125 6 12.625 6ZM12.625 9H11.375C11.1562 9 11 9.1875 11 9.375V10.625C11 10.8438 11.1562 11 11.375 11H12.625C12.8125 11 13 10.8438 13 10.625V9.375C13 9.1875 12.8125 9 12.625 9Z" fill="#5463FF"/>
</svg>
