<svg width="18" height="19" viewBox="0 0 18 19" fill="none" xmlns="http://www.w3.org/2000/svg">
<path d="M11.7773 6.40234L7.875 10.3398L6.1875 8.65234C5.83594 8.33594 5.30859 8.33594 4.99219 8.65234C4.64062 9.00391 4.64062 9.53125 4.99219 9.84766L7.24219 12.0977C7.41797 12.2734 7.62891 12.3438 7.875 12.3438C8.08594 12.3438 8.29688 12.2734 8.4375 12.0977L12.9375 7.59766C13.2891 7.28125 13.2891 6.75391 12.9375 6.4375C12.6211 6.08594 12.0938 6.08594 11.7773 6.40234ZM9 0.25C4.00781 0.25 0 4.29297 0 9.25C0 14.2422 4.00781 18.25 9 18.25C13.957 18.25 18 14.2422 18 9.25C18 4.29297 13.957 0.25 9 0.25ZM9 16.5625C4.95703 16.5625 1.6875 13.293 1.6875 9.25C1.6875 5.24219 4.95703 1.9375 9 1.9375C13.0078 1.9375 16.3125 5.24219 16.3125 9.25C16.3125 13.293 13.0078 16.5625 9 16.5625Z" fill="#ECECEC"/>
</svg>
