<svg width="222" height="185" viewBox="0 0 222 185" fill="none" xmlns="http://www.w3.org/2000/svg">
<path d="M199.756 161.93H185.05V162.041H199.756V161.93Z" fill="#EBEBEB"/>
<path d="M147.062 163.137H143.203V163.248H147.062V163.137Z" fill="#EBEBEB"/>
<path d="M184.606 157.81H176.086V157.921H184.606V157.81Z" fill="#EBEBEB"/>
<path d="M42.4686 158.555H23.2922V158.666H42.4686V158.555Z" fill="#EBEBEB"/>
<path d="M49.2351 158.555H46.4246V158.666H49.2351V158.555Z" fill="#EBEBEB"/>
<path d="M99.9666 160.429H58.3727V160.54H99.9666V160.429Z" fill="#EBEBEB"/>
<path d="M105.228 134.983H19.496C18.8244 134.982 18.1807 134.714 17.7062 134.239C17.2317 133.764 16.9652 133.119 16.9652 132.448V11.933C16.9711 11.2652 17.2401 10.6267 17.714 10.1562C18.1878 9.68564 18.8282 9.42107 19.496 9.41992H105.228C105.9 9.41992 106.545 9.68703 107.021 10.1625C107.496 10.6379 107.763 11.2828 107.763 11.9552V132.448C107.763 133.12 107.496 133.765 107.021 134.241C106.545 134.716 105.9 134.983 105.228 134.983ZM19.496 9.50872C18.8538 9.5099 18.2384 9.76583 17.7847 10.2203C17.331 10.6748 17.0762 11.2908 17.0762 11.933V132.448C17.0762 133.09 17.331 133.706 17.7847 134.16C18.2384 134.615 18.8538 134.871 19.496 134.872H105.228C105.871 134.871 106.486 134.615 106.941 134.161C107.395 133.706 107.651 133.09 107.652 132.448V11.933C107.651 11.2904 107.395 10.6744 106.941 10.2201C106.486 9.76568 105.871 9.5099 105.228 9.50872H19.496Z" fill="#EBEBEB"/>
<path d="M201.27 135.098H115.533C114.861 135.097 114.217 134.829 113.742 134.354C113.267 133.879 112.999 133.235 112.998 132.563V12.0479C112.999 11.3759 113.267 10.7317 113.742 10.2565C114.217 9.78135 114.861 9.51387 115.533 9.5127H201.27C201.94 9.51505 202.583 9.78319 203.057 10.2584C203.53 10.7336 203.796 11.3771 203.796 12.0479V132.563C203.796 133.234 203.53 133.877 203.057 134.352C202.583 134.828 201.94 135.096 201.27 135.098ZM115.533 9.6237C114.891 9.62487 114.275 9.88066 113.82 10.335C113.366 10.7894 113.11 11.4053 113.109 12.0479V132.563C113.11 133.205 113.366 133.821 113.82 134.276C114.275 134.73 114.891 134.986 115.533 134.987H201.27C201.912 134.986 202.528 134.73 202.983 134.276C203.437 133.821 203.693 133.205 203.694 132.563V12.0479C203.693 11.4053 203.437 10.7894 202.983 10.335C202.528 9.88066 201.912 9.62487 201.27 9.6237H115.533Z" fill="#EBEBEB"/>
<path d="M222 154.785H0V154.896H222V154.785Z" fill="#EBEBEB"/>
<path d="M33.5931 50.7122H73.8594C79.0187 50.7122 80.2619 43.4928 75.3912 41.7967L75.2003 41.7346C80.5905 37.2413 68.7667 27.7752 55.9218 40.8821C56.9253 36.5131 45.5056 38.0937 42.0157 44.0567C40.7725 40.1406 29.8857 46.9427 33.5931 50.7122Z" fill="#E6E6E6"/>
<path d="M141.294 32.7077H165.439C165.439 32.7077 171.1 30.5765 170.367 24.9289C169.635 19.2812 161.088 23.9876 161.088 23.9876C161.088 23.9876 163.676 16.1066 155.4 18.3443C147.124 20.5821 146.316 28.3921 146.316 28.3921C146.316 28.3921 135.442 26.4917 141.294 32.7077Z" fill="#EBEBEB"/>
<path d="M163.476 48.5937H179.416C179.416 48.5937 183.154 47.1862 182.67 43.4566C182.187 39.727 176.543 42.835 176.543 42.835C176.543 42.835 178.253 37.6358 172.787 39.1098C171.246 39.5035 169.856 40.3428 168.79 41.5227C167.724 42.7026 167.029 44.1706 166.793 45.7432C166.793 45.7432 159.614 44.4956 163.476 48.5937Z" fill="#EBEBEB"/>
<path d="M160.413 129.393L160.368 124.678V124.416L160.328 120.211V119.945L160.288 115.949V115.687L160.253 111.882V111.633L160.217 108.001V107.77L160.182 104.298V104.081L160.151 100.764V100.551L160.124 97.8071C159.985 97.8947 159.836 97.9647 159.68 98.0158V100.333H156.741L159.112 98.1623C158.867 98.2112 158.619 98.2409 158.37 98.2511L156.417 100.027L156.452 97.9314C156.291 97.8668 156.141 97.7769 156.008 97.665L155.955 100.542V100.755L155.902 104.072V104.298L155.835 107.757V107.988L155.773 111.611V111.86L155.706 115.665V115.927L155.635 119.923V120.194L155.56 124.394V124.678L155.48 129.389L155.027 149.724L160.692 149.791L160.413 129.393ZM159.822 128.505L156.408 124.816H159.8L159.822 128.505ZM159.769 124.376H156.39L159.742 120.851L159.769 124.376ZM159.804 119.195L156.554 115.865H159.787L159.804 119.195ZM159.765 115.407H156.55L159.747 112.206L159.765 115.407ZM159.742 110.998L156.634 107.975H159.716L159.742 110.998ZM159.742 107.504H156.67L159.716 104.583L159.742 107.504ZM159.689 100.777V103.544L156.728 100.791L159.689 100.777ZM156.35 101.408L159.312 104.17H156.31L156.35 101.408ZM156.306 104.649H159.307L156.239 107.544L156.306 104.649ZM156.244 108.694L159.352 111.722H156.217L156.244 108.694ZM156.199 112.184H159.347L156.155 115.372L156.199 112.184ZM156.137 116.593L159.392 119.936H156.093L156.137 116.593ZM156.106 120.385H159.396L156.039 123.892L156.106 120.385ZM156.084 125.029L159.498 128.732H156.03L156.084 125.029Z" fill="#EBEBEB"/>
<path d="M160.075 97.3053H159.849L159.685 97.1543L158.353 98.3975C158.6 98.3854 158.846 98.3557 159.09 98.3087L159.645 97.8025V98.1444C159.8 98.0919 159.949 98.0219 160.089 97.9357L160.075 97.3053ZM155.964 97.3319V97.8292C156.099 97.9371 156.249 98.0267 156.408 98.0956V97.3319H155.964Z" fill="#EBEBEB"/>
<path d="M160.728 96.9363C160.744 97.0593 160.731 97.1844 160.69 97.3015C160.649 97.4186 160.582 97.5247 160.493 97.6112L160.333 97.7621C160.249 97.8294 160.16 97.8903 160.066 97.9442C159.927 98.0303 159.778 98.1003 159.622 98.1529C159.443 98.2254 159.257 98.2804 159.067 98.3171C158.824 98.3641 158.578 98.3938 158.33 98.4059H157.997C157.453 98.4069 156.914 98.2982 156.412 98.0862C156.253 98.0174 156.104 97.9278 155.968 97.8199L155.928 97.7888L155.782 97.6467C155.696 97.5634 155.632 97.4604 155.595 97.3467C155.558 97.233 155.549 97.1119 155.569 96.994L155.906 95.1026H155.018L158.126 93.5264L161.363 95.0005H160.453L160.728 96.9363Z" fill="#EBEBEB"/>
<path d="M174.989 99.3076L175.109 149.733H178.768H200.035H203.694L203.854 99.3076H174.989Z" fill="#EBEBEB"/>
<path d="M180.57 92.8916L180.584 104.134H182.848H196.013H198.277L198.299 92.8916H180.57Z" fill="#EBEBEB"/>
<path d="M180.548 104.134H176.81L176.805 100.769H180.544L180.548 104.134Z" fill="#FAFAFA"/>
<path d="M187.719 100.764H183.98V104.134H187.719V100.764Z" fill="#FAFAFA"/>
<path d="M194.894 100.764H191.155V104.134H194.894V100.764Z" fill="#FAFAFA"/>
<path d="M202.064 104.134H198.326L198.335 100.769H202.073L202.064 104.134Z" fill="#F0F0F0"/>
<path d="M180.499 110.275H176.85L176.841 106.989H180.495L180.499 110.275Z" fill="#F0F0F0"/>
<path d="M187.661 106.989H184.007V110.275H187.661V106.989Z" fill="#F0F0F0"/>
<path d="M194.827 106.989H191.173V110.275H194.827V106.989Z" fill="#FAFAFA"/>
<path d="M201.984 110.275H198.33L198.339 106.989H201.993L201.984 110.275Z" fill="#FAFAFA"/>
<path d="M180.468 116.259H176.903L176.894 113.054H180.464L180.468 116.259Z" fill="#F0F0F0"/>
<path d="M187.626 113.054H184.056V116.259H187.626V113.054Z" fill="#FAFAFA"/>
<path d="M194.778 113.054H191.209V116.259H194.778V113.054Z" fill="#FAFAFA"/>
<path d="M187.697 95.876H183.887V99.3125H187.697V95.876Z" fill="#FAFAFA"/>
<path d="M194.881 95.876H191.067V99.3125H194.881V95.876Z" fill="#F0F0F0"/>
<path d="M201.927 116.259H198.361L198.366 113.054H201.936L201.927 116.259Z" fill="#F0F0F0"/>
<path d="M180.459 122.107H176.974L176.965 118.977H180.455L180.459 122.107Z" fill="#FAFAFA"/>
<path d="M187.603 118.977H184.118V122.107H187.603V118.977Z" fill="#F0F0F0"/>
<path d="M194.752 122.107H191.266L191.271 118.977H194.756L194.752 122.107Z" fill="#F0F0F0"/>
<path d="M201.896 122.107H198.41L198.419 118.977H201.905L201.896 122.107Z" fill="#FAFAFA"/>
<path d="M180.615 128.679H176.73L176.721 125.193H180.61L180.615 128.679Z" fill="#F0F0F0"/>
<path d="M187.745 128.679H183.865L183.86 125.193H187.75L187.745 128.679Z" fill="#FAFAFA"/>
<path d="M194.88 128.679H190.995V125.193H194.885L194.88 128.679Z" fill="#FAFAFA"/>
<path d="M202.011 128.679H198.126L198.135 125.193H202.02L202.011 128.679Z" fill="#F0F0F0"/>
<path d="M180.637 134.228H176.841L176.832 130.827H180.632L180.637 134.228Z" fill="#F0F0F0"/>
<path d="M187.763 130.827H183.967V134.228H187.763V130.827Z" fill="#FAFAFA"/>
<path d="M194.898 130.827H191.102V134.228H194.898V130.827Z" fill="#F0F0F0"/>
<path d="M202.024 134.228H198.228L198.237 130.827H202.038L202.024 134.228Z" fill="#FAFAFA"/>
<path d="M180.557 140.475H176.854L176.85 137.163H180.553L180.557 140.475Z" fill="#FAFAFA"/>
<path d="M187.674 137.163H183.971V140.475H187.674V137.163Z" fill="#FAFAFA"/>
<path d="M194.792 137.163H191.089V140.475H194.792V137.163Z" fill="#F0F0F0"/>
<path d="M201.905 140.475H198.206L198.21 137.163H201.913L201.905 140.475Z" fill="#F0F0F0"/>
<path d="M180.557 146.155H176.943L176.938 142.927H180.553L180.557 146.155Z" fill="#F0F0F0"/>
<path d="M201.891 146.155H198.281L198.286 142.927H201.9L201.891 146.155Z" fill="#FAFAFA"/>
<path d="M194.809 142.927H184.02L184.042 143.739H184.34L184.344 149.733H185.423L185.419 143.739H193.429L193.42 149.733H194.499L194.508 143.739H194.832L194.809 142.927Z" fill="#F5F5F5"/>
<path d="M189.468 149.733H185.472V143.739H189.473L189.468 149.733Z" fill="#E6E6E6"/>
<path d="M193.371 149.733H189.37L189.375 143.739H193.38L193.371 149.733Z" fill="#EBEBEB"/>
<path d="M175.029 115.35L175.109 149.733H170.523H143.856H139.265L138.937 115.35H175.029Z" fill="#F5F5F5"/>
<path d="M168.169 122.99H172.645L172.632 118.977H168.156L168.169 122.99Z" fill="#E6E6E6"/>
<path d="M159.241 122.99H163.716L163.698 118.977H159.218L159.241 122.99Z" fill="#E6E6E6"/>
<path d="M150.312 122.99H154.787L154.761 118.977H150.285L150.312 122.99Z" fill="#E6E6E6"/>
<path d="M141.383 122.99H145.858L145.823 118.977H141.347L141.383 122.99Z" fill="#E6E6E6"/>
<path d="M168.001 130.827H172.823L172.809 126.507H167.983L168.001 130.827Z" fill="#E6E6E6"/>
<path d="M159.09 130.827H163.911L163.889 126.507H159.063L159.09 130.827Z" fill="#E6E6E6"/>
<path d="M150.174 130.827H154.996L154.969 126.507H150.143L150.174 130.827Z" fill="#E6E6E6"/>
<path d="M141.263 130.827H146.085L146.049 126.507H141.223L141.263 130.827Z" fill="#E6E6E6"/>
<path d="M168.125 137.994H172.805L172.796 133.807H168.112L168.125 137.994Z" fill="#E6E6E6"/>
<path d="M159.223 137.994H163.903L163.885 133.807H159.201L159.223 137.994Z" fill="#E6E6E6"/>
<path d="M150.321 137.994H155L154.974 133.807H150.29L150.321 137.994Z" fill="#E6E6E6"/>
<path d="M141.414 137.994H146.094L146.063 133.807H141.378L141.414 137.994Z" fill="#E6E6E6"/>
<path d="M168.227 145.35H172.765L172.756 141.292H168.209L168.227 145.35Z" fill="#E6E6E6"/>
<path d="M141.552 145.35H146.094L146.058 141.292H141.516L141.552 145.35Z" fill="#E6E6E6"/>
<path d="M150.108 141.292H164.151L164.156 142.517H163.259L163.294 149.732H161.993L161.958 142.517H152.323L152.372 149.732H151.075L151.022 142.517H150.121L150.108 141.292Z" fill="#F5F5F5"/>
<path d="M157.216 149.733H162.025L161.989 142.518H157.172L157.216 149.733Z" fill="#E6E6E6"/>
<path d="M152.341 149.733H157.149L157.109 142.518H152.292L152.341 149.733Z" fill="#EBEBEB"/>
<path d="M67.5324 85.9169V84.3008C67.5253 84.2546 67.502 84.2124 67.4666 84.182C67.4311 84.1515 67.3859 84.1348 67.3392 84.1348C67.2925 84.1348 67.2473 84.1515 67.2119 84.182C67.1765 84.2124 67.1531 84.2546 67.1461 84.3008V86.0768C67.1482 86.1271 67.1688 86.175 67.2041 86.2111C67.2393 86.2471 67.2867 86.2689 67.337 86.2721C67.4909 86.2721 67.6413 86.3178 67.7691 86.4034C67.897 86.489 67.9966 86.6106 68.0553 86.7528C68.114 86.895 68.1291 87.0515 68.0987 87.2023C68.0684 87.3532 67.994 87.4916 67.8848 87.6001C67.7757 87.7086 67.6369 87.7823 67.4859 87.8117C67.3348 87.8412 67.1785 87.8252 67.0366 87.7657C66.8947 87.7062 66.7736 87.6059 66.6888 87.4776C66.604 87.3492 66.5591 87.1985 66.56 87.0447C66.56 86.8005 66.1515 86.8005 66.1737 87.0447C66.2714 88.0082 67.3947 88.6431 68.1584 87.8705C68.3049 87.7193 68.4076 87.5311 68.4556 87.326C68.5035 87.1209 68.4949 86.9067 68.4306 86.7062C68.3664 86.5056 68.2489 86.3263 68.0907 86.1873C67.9325 86.0483 67.7395 85.9548 67.5324 85.9169Z" fill="#EBEBEB"/>
<path d="M39.072 74.2974V77.7961L35.3824 74.1064L35.2003 74.2885H34.9428V107.588H39.5871V74.2885L39.072 74.2974ZM35.4579 99.703L38.7079 102.953H35.4579V99.703ZM35.4579 91.4402L38.7079 94.6903H35.4579V91.4402ZM35.4579 83.1818L38.7079 86.4319H35.4579V83.1818ZM35.4579 74.919L38.7079 78.1735H35.4579V74.919ZM38.7079 78.6841L35.4579 81.9386V78.6841H38.7079ZM39.072 79.0482V82.3027H35.8219L39.072 79.0482ZM38.7079 86.9469L35.4579 90.197V86.9469H38.7079ZM39.072 87.311V90.5611H35.8219L39.072 87.311ZM38.7079 95.2053L35.4579 98.4598V95.2053H38.7079ZM39.072 95.5561V98.8106H35.8219L39.072 95.5561ZM38.7079 103.455L35.4579 106.705V103.455H38.7079ZM35.8219 107.1L39.072 103.832V107.1H35.8219ZM39.072 102.589L35.8219 99.339H39.072V102.589ZM39.072 94.3262L35.8219 91.0761H39.072V94.3262ZM39.072 86.0678L35.8219 82.8177H39.072V86.0678Z" fill="#F0F0F0"/>
<path d="M35.4578 63.3301V69.8036H35.964V67.3305L38.628 69.9945L38.81 69.8125H39.072V63.3301H35.4578ZM38.184 63.8451L35.964 66.0651V63.8451H38.184ZM38.5481 69.1731L36.3281 66.9531H38.5481V69.1731ZM36.3281 66.4425L38.5481 64.2225V66.4425H36.3281Z" fill="#F0F0F0"/>
<path d="M26.9774 74.2969H20.7836V80.4907H26.9774V74.2969Z" fill="#E6E6E6"/>
<path d="M67.4214 83.2352H67.0751V71.3271L38.2284 61.7589H36.3236L20.8769 71.3448L20.6948 71.0562L36.2215 61.417H38.2861L38.3127 61.4259L67.4214 71.0784V83.2352Z" fill="#E6E6E6"/>
<path d="M63.8916 74.5683H64.2468L67.8698 70.9453H20.5261V74.555H63.8916V74.5683ZM64.4066 71.4603H66.6266L64.4066 73.6803V71.4603ZM21.0412 74.04V71.82L23.2612 74.04H21.0412ZM23.6252 73.6759L21.4052 71.4559H23.6252V73.6759ZM24.1403 71.4559H26.3603L24.1403 73.6759V71.4559ZM26.7244 74.0355H24.5044L26.7244 71.8155V74.0355ZM27.2394 74.0355V71.8155L29.4594 74.0355H27.2394ZM29.819 73.6715L27.599 71.4515H29.819V73.6715ZM30.3341 71.4515H32.5541L30.3341 73.6715V71.4515ZM32.9182 74.0311H30.6982L32.9182 71.8111V74.0311ZM33.4332 74.0311V71.8111L35.6532 74.0311H33.4332ZM36.0173 73.667L33.7973 71.447H36.0173V73.667ZM36.5323 71.447H38.7523L36.5323 73.667V71.447ZM39.112 74.0267H36.892L39.112 71.8067V74.0267ZM39.627 74.0267V71.8067L41.847 74.0267H39.627ZM42.2111 73.6626L39.9911 71.4426H42.2111V73.6626ZM42.7261 71.4426H44.9461L42.7261 73.6626V71.4426ZM45.3058 74.0222H43.0858L45.3058 71.8022V74.0222ZM45.8208 74.0222V71.8022L48.0408 74.0222H45.8208ZM48.4049 73.6581L46.1849 71.4381H48.4049V73.6581ZM48.9199 71.4381H51.1399L48.9199 73.6581V71.4381ZM51.504 74.0178H49.284L51.504 71.7978V74.0178ZM52.019 74.0178V71.7978L54.239 74.0178H52.019ZM54.5987 73.6537L52.3787 71.4337H54.5987V73.6537ZM55.1137 71.4337H57.3337L55.1137 73.6537V71.4337ZM57.6978 74.0133H55.4778L57.6978 71.7933V74.0133ZM58.2128 71.4337H60.4328L58.2128 73.6537V71.4337ZM60.7969 74.0133H58.5769L60.7969 71.7933V74.0133ZM61.312 74.0133V71.7933L63.532 74.0133H61.312ZM61.676 71.4337H63.896V73.6537L61.676 71.4337Z" fill="#F0F0F0"/>
<path d="M41.8781 75.7046H32.3499L32.7006 71.7086C32.7452 71.186 32.9844 70.6993 33.3709 70.3449C33.7574 69.9904 34.263 69.7941 34.7874 69.7949H39.3251C39.8392 69.7958 40.3351 69.9852 40.7189 70.3272C41.1027 70.6693 41.3477 71.1402 41.4075 71.6508L41.8781 75.7046Z" fill="#F0F0F0"/>
<path d="M35.7154 71.4463H33.8861V73.2756H35.7154V71.4463Z" fill="#FAFAFA"/>
<path d="M38.0286 71.4463H36.1993V73.2756H38.0286V71.4463Z" fill="#FAFAFA"/>
<path d="M40.3419 71.4463H38.5126V73.2756H40.3419V71.4463Z" fill="#FAFAFA"/>
<path d="M38.5126 62.3404C38.5126 62.5872 38.4394 62.8284 38.3023 63.0336C38.1652 63.2387 37.9703 63.3986 37.7424 63.4931C37.5144 63.5875 37.2635 63.6122 37.0215 63.5641C36.7795 63.5159 36.5572 63.3971 36.3827 63.2226C36.2082 63.0481 36.0894 62.8258 36.0412 62.5838C35.9931 62.3418 36.0178 62.0909 36.1122 61.863C36.2067 61.635 36.3666 61.4401 36.5718 61.303C36.7769 61.1659 37.0182 61.0928 37.2649 61.0928C37.5958 61.0928 37.9131 61.2242 38.1471 61.4582C38.3811 61.6922 38.5126 62.0095 38.5126 62.3404Z" fill="#E6E6E6"/>
<path d="M67.337 85.3666C67.1971 85.3666 67.0585 85.339 66.9292 85.2854C66.8 85.2319 66.6825 85.1534 66.5835 85.0544C66.4846 84.9555 66.4061 84.838 66.3525 84.7087C66.299 84.5795 66.2714 84.4409 66.2714 84.3009V83.2354H68.4026V84.3009C68.4026 84.4409 68.3751 84.5795 68.3215 84.7087C68.268 84.838 68.1895 84.9555 68.0905 85.0544C67.9916 85.1534 67.8741 85.2319 67.7448 85.2854C67.6155 85.339 67.477 85.3666 67.337 85.3666Z" fill="#E6E6E6"/>
<path d="M16.8898 99.3076L17.7156 149.733H21.3786H42.6462H46.3048L45.7587 99.3076H16.8898Z" fill="#F5F5F5"/>
<path d="M18.6924 100.769L18.7945 106.905L18.8211 108.587L18.8478 110.275H22.5907L22.5641 108.587L22.5419 106.905L22.4442 100.769H18.6924Z" fill="#E6E6E6"/>
<path d="M25.8674 100.769L25.9607 106.905L25.9829 108.587L26.0095 110.275H29.7524L29.7302 108.587L29.708 106.905L29.6237 100.769H25.8674Z" fill="#E6E6E6"/>
<path d="M33.0425 100.769L33.1268 106.905L33.149 108.587L33.1712 110.275H36.9142L36.8964 108.587L36.8742 106.905L36.7987 100.769H33.0425Z" fill="#E6E6E6"/>
<path d="M40.222 100.769L40.293 106.905L40.3241 109.506L40.333 110.275H44.0803L44.0715 109.506L44.0404 106.905L43.9738 100.769H40.222Z" fill="#E6E6E6"/>
<path d="M18.9188 113.054L19.0209 119.185L19.0476 120.868L19.0742 122.551H22.8216L22.7994 120.868L22.7727 119.185L22.6795 113.054H18.9188Z" fill="#E6E6E6"/>
<path d="M26.0761 113.054L26.1649 119.185L26.2004 121.556L26.2138 122.551H29.9655L29.9522 121.556L29.9212 119.185L29.8324 113.054H26.0761Z" fill="#E6E6E6"/>
<path d="M33.2289 113.054L33.3133 119.185L33.3355 120.868L33.3577 122.551H37.1095L37.0873 120.868L37.0651 119.185L36.9896 113.054H33.2289Z" fill="#E6E6E6"/>
<path d="M40.3862 113.054L40.4617 119.185L40.4795 120.868L40.5017 122.551H44.249L44.2313 120.868L44.2135 119.185L44.1469 113.054H40.3862Z" fill="#E6E6E6"/>
<path d="M19.132 125.193L19.2296 131.298L19.2607 132.977L19.2874 134.651H23.0303L23.0036 132.977L22.977 131.298L22.8882 125.193H19.132Z" fill="#E6E6E6"/>
<path d="M26.2715 125.193L26.3603 131.298L26.3825 132.977L26.4091 134.651H30.152L30.1298 132.977L30.1076 131.298L30.0233 125.193H26.2715Z" fill="#E6E6E6"/>
<path d="M33.4066 125.193L33.4865 131.298L33.5087 132.977L33.5309 134.651H37.2782L37.256 132.977L37.2338 131.298L37.1584 125.193H33.4066Z" fill="#E6E6E6"/>
<path d="M40.5461 125.193L40.6171 131.298L40.6438 133.616L40.6571 134.651H44.4L44.3911 133.616L44.3645 131.298L44.2979 125.193H40.5461Z" fill="#E6E6E6"/>
<path d="M42.624 137.163H40.7725H37.3049H33.5975H30.1298H26.4269H19.2518L19.3051 140.475H26.4757H30.1742H33.6419H37.3448H40.8125H42.6639H44.5154L44.4799 137.163H42.624Z" fill="#E6E6E6"/>
<path d="M37.3005 142.927H26.5113L26.5024 143.739H26.8265L26.9153 149.733H27.9942L27.9054 143.739H35.9152L35.9907 149.733H37.0651L36.9941 143.739H37.2916L37.3005 142.927Z" fill="#FAFAFA"/>
<path d="M32.039 149.733H28.043L27.9542 143.739H31.9591L32.039 149.733Z" fill="#E6E6E6"/>
<path d="M35.9374 149.733H31.9414L31.8615 143.739H35.8619L35.9374 149.733Z" fill="#E6E6E6"/>
<path d="M72.9847 102.216L73.3088 149.733H69.8589H49.8212H46.3713L45.7808 102.216H72.9847Z" fill="#E6E6E6"/>
<path d="M63.3766 137.993H64.8462H71.4396L71.4485 139.516L71.4574 141.039L71.5018 146.553H68.0874L68.043 140.884H64.713H63.3988H61.4807L61.454 137.993H63.3766Z" fill="#F0F0F0"/>
<path d="M50.3673 137.993H51.6816H57.942L57.9731 140.884H51.4951L51.5617 146.553H48.1473L48.0852 141.039L48.0585 138.837L48.0452 137.993H50.3673Z" fill="#F0F0F0"/>
<path d="M55.1359 143.33H64.42L64.4288 144.143H64.531L64.5754 149.733H63.5719L63.5231 144.143H56.055L56.1127 149.733H55.1093L55.0471 144.143H55.1448L55.1359 143.33Z" fill="#F5F5F5"/>
<path d="M59.8024 149.733H63.532L63.4831 144.143H59.7491L59.8024 149.733Z" fill="#EBEBEB"/>
<path d="M56.1527 149.733H59.8823L59.829 144.143H56.095L56.1527 149.733Z" fill="#E0E0E0"/>
<path d="M60.9656 104.134H71.3153L71.3774 113.054H61.05L60.9656 104.134Z" fill="#F0F0F0"/>
<path d="M47.548 104.134H57.8976L57.982 113.054H47.6545L47.548 104.134Z" fill="#F0F0F0"/>
<path d="M61.2543 115.35H71.1599L71.2265 123.874H61.3298L61.2543 115.35Z" fill="#F0F0F0"/>
<path d="M47.8588 115.35H57.7644L57.8532 123.874H47.9564L47.8588 115.35Z" fill="#F0F0F0"/>
<path d="M61.3564 126.942H71.3197L71.3819 135.489H61.4319L61.3564 126.942Z" fill="#F0F0F0"/>
<path d="M48.0009 126.942H57.9642L58.0486 135.489H48.0985L48.0009 126.942Z" fill="#F0F0F0"/>
<path d="M111 174.592C158.545 174.592 197.087 172.342 197.087 169.566C197.087 166.79 158.545 164.54 111 164.54C63.4554 164.54 24.9128 166.79 24.9128 169.566C24.9128 172.342 63.4554 174.592 111 174.592Z" fill="#F5F5F5"/>
<path d="M71.4085 22.5713L73.0646 24.7114H148.926L150.596 22.5713H71.4085Z" fill="#407BFF"/>
<g opacity="0.4">
<path d="M71.4085 22.5713L73.0646 24.7114H148.926L150.596 22.5713H71.4085Z" fill="black"/>
</g>
<path d="M148.944 19.8145H72.9092V154.604H148.944V19.8145Z" fill="#5463FF"/>
<g opacity="0.4">
<path d="M148.944 19.8145H72.9092V154.604H148.944V19.8145Z" fill="white"/>
</g>
<g opacity="0.8">
<path d="M75.9906 23.1316C76.0199 23.3274 76.0067 23.5273 75.952 23.7176C75.8972 23.9079 75.8022 24.0842 75.6733 24.2345C75.5445 24.3848 75.3848 24.5057 75.2051 24.5889C75.0254 24.6721 74.8299 24.7157 74.6319 24.7167C74.2061 24.6999 73.8005 24.5306 73.4891 24.2396C73.1777 23.9486 72.9814 23.5554 72.9359 23.1316C72.9052 22.9345 72.9174 22.7331 72.9717 22.5412C73.0261 22.3493 73.1212 22.1714 73.2506 22.0196C73.38 21.8678 73.5407 21.7458 73.7216 21.6619C73.9026 21.5779 74.0995 21.534 74.2989 21.5332C74.7261 21.5514 75.1323 21.7231 75.4431 22.0167C75.7538 22.3103 75.9482 22.7062 75.9906 23.1316Z" fill="#F0F0F0"/>
<path d="M78.7922 23.1316C78.8195 23.3286 78.8043 23.529 78.7476 23.7196C78.691 23.9102 78.5942 24.0865 78.4639 24.2366C78.3335 24.3867 78.1726 24.5072 77.9918 24.59C77.811 24.6728 77.6147 24.716 77.4158 24.7167C76.9931 24.6958 76.5917 24.5246 76.284 24.234C75.9763 23.9434 75.7825 23.5525 75.7375 23.1316C75.7083 22.934 75.7218 22.7324 75.7772 22.5405C75.8326 22.3486 75.9286 22.1709 76.0587 22.0193C76.1888 21.8677 76.35 21.7459 76.5313 21.662C76.7125 21.5782 76.9097 21.5342 77.1095 21.5332C77.5351 21.5535 77.9392 21.7261 78.2481 22.0195C78.557 22.3129 78.7501 22.7076 78.7922 23.1316Z" fill="#F0F0F0"/>
<path d="M81.5894 23.1316C81.6152 23.329 81.5988 23.5297 81.541 23.7203C81.4833 23.9109 81.3857 24.087 81.2547 24.2369C81.1236 24.3869 80.9622 24.5072 80.781 24.5899C80.5999 24.6726 80.4032 24.7158 80.2041 24.7167C79.7806 24.701 79.3773 24.5314 79.0699 24.2396C78.7625 23.9477 78.5722 23.5538 78.5347 23.1316C78.5075 22.9333 78.523 22.7314 78.58 22.5395C78.6371 22.3476 78.7344 22.1701 78.8655 22.0189C78.9966 21.8676 79.1585 21.746 79.3403 21.6623C79.5222 21.5785 79.7198 21.5345 79.92 21.5332C80.3456 21.5492 80.7506 21.7207 81.0583 22.0153C81.366 22.3099 81.5549 22.707 81.5894 23.1316Z" fill="#F0F0F0"/>
<path d="M84.3866 23.1316C84.4097 23.3296 84.3908 23.5303 84.3312 23.7206C84.2716 23.9109 84.1727 24.0865 84.0407 24.236C83.9088 24.3855 83.7469 24.5055 83.5656 24.5884C83.3842 24.6712 83.1874 24.7149 82.988 24.7167C82.5659 24.7007 82.1643 24.5306 81.8591 24.2385C81.5539 23.9464 81.3664 23.5526 81.3319 23.1316C81.3075 22.9323 81.3255 22.7301 81.3847 22.5382C81.4439 22.3463 81.543 22.1691 81.6755 22.0182C81.8079 21.8673 81.9708 21.7461 82.1534 21.6625C82.336 21.5789 82.5342 21.5348 82.735 21.5332C83.1587 21.5496 83.5616 21.7218 83.8663 22.0167C84.1711 22.3116 84.3563 22.7086 84.3866 23.1316Z" fill="#F0F0F0"/>
<path d="M87.1882 23.1316C87.2093 23.3304 87.1886 23.5313 87.1274 23.7216C87.0662 23.9119 86.9659 24.0873 86.833 24.2365C86.7 24.3858 86.5374 24.5056 86.3554 24.5883C86.1734 24.671 85.9762 24.7147 85.7763 24.7167C85.3553 24.7014 84.9548 24.5311 84.6516 24.2386C84.3484 23.946 84.1639 23.5518 84.1335 23.1316C84.1105 22.9318 84.1297 22.7294 84.19 22.5375C84.2503 22.3456 84.3502 22.1686 84.4834 22.0178C84.6165 21.8671 84.7799 21.746 84.9629 21.6626C85.1458 21.5791 85.3443 21.535 85.5454 21.5332C85.9689 21.5478 86.3718 21.7197 86.6755 22.0152C86.9792 22.3107 87.162 22.7087 87.1882 23.1316Z" fill="#F0F0F0"/>
<path d="M89.9855 23.1316C90.0045 23.3311 89.982 23.5323 89.9192 23.7226C89.8565 23.9129 89.7549 24.0881 89.6209 24.2371C89.4869 24.3861 89.3235 24.5057 89.1409 24.5882C88.9583 24.6708 88.7606 24.7145 88.5602 24.7167C88.1403 24.7021 87.7408 24.5317 87.4396 24.2386C87.1383 23.9456 86.957 23.551 86.9308 23.1316C86.9097 22.9311 86.9308 22.7284 86.9927 22.5365C87.0545 22.3446 87.1558 22.1678 87.29 22.0173C87.4241 21.8668 87.5883 21.746 87.7718 21.6626C87.9554 21.5793 88.1544 21.5352 88.356 21.5332C88.7785 21.5471 89.1803 21.719 89.4821 22.015C89.7838 22.311 89.9635 22.7095 89.9855 23.1316Z" fill="#F0F0F0"/>
<path d="M92.796 23.1316C92.8131 23.3318 92.7887 23.5333 92.7244 23.7236C92.6601 23.914 92.5572 24.089 92.4222 24.2377C92.2872 24.3865 92.123 24.5058 91.9398 24.5882C91.7566 24.6706 91.5583 24.7144 91.3574 24.7167C90.9385 24.7028 90.54 24.5323 90.2408 24.2388C89.9415 23.9453 89.7633 23.5502 89.7413 23.1316C89.7216 22.9306 89.7439 22.7277 89.8068 22.5358C89.8697 22.3439 89.9718 22.1672 90.1067 22.0169C90.2415 21.8666 90.4062 21.7459 90.5902 21.6627C90.7742 21.5794 90.9735 21.5353 91.1754 21.5332C91.597 21.5472 91.9978 21.7195 92.2981 22.0157C92.5984 22.3119 92.7761 22.7103 92.796 23.1316Z" fill="#F0F0F0"/>
<path d="M95.5843 23.1316C95.5995 23.3328 95.5733 23.535 95.5071 23.7257C95.441 23.9163 95.3364 24.0914 95.1999 24.24C95.0634 24.3886 94.8978 24.5076 94.7134 24.5896C94.529 24.6716 94.3298 24.7148 94.128 24.7167C93.7101 24.7036 93.3126 24.5329 93.0153 24.2389C92.718 23.9449 92.5429 23.5493 92.5252 23.1316C92.5081 22.9301 92.5327 22.7272 92.5974 22.5355C92.6621 22.3439 92.7656 22.1676 92.9013 22.0177C93.0371 21.8677 93.2023 21.7474 93.3866 21.664C93.5709 21.5807 93.7704 21.5361 93.9726 21.5332C94.3939 21.5453 94.7949 21.7172 95.0942 22.014C95.3935 22.3108 95.5687 22.7104 95.5843 23.1316Z" fill="#F0F0F0"/>
<path d="M98.3815 23.1316C98.3948 23.3328 98.367 23.5345 98.2999 23.7246C98.2328 23.9147 98.1277 24.0892 97.9911 24.2374C97.8545 24.3857 97.6891 24.5046 97.5051 24.587C97.3211 24.6694 97.1223 24.7135 96.9207 24.7167C96.5034 24.7045 96.1063 24.5339 95.8102 24.2395C95.5141 23.945 95.3413 23.5489 95.3268 23.1316C95.3116 22.929 95.3381 22.7254 95.4046 22.5335C95.4712 22.3415 95.5763 22.1652 95.7136 22.0154C95.8509 21.8657 96.0174 21.7456 96.2029 21.6627C96.3883 21.5797 96.5888 21.5357 96.792 21.5332C97.2112 21.5456 97.6096 21.7182 97.9053 22.0156C98.201 22.3129 98.3715 22.7124 98.3815 23.1316Z" fill="#F0F0F0"/>
<path d="M101.183 23.1316C101.194 23.3337 101.164 23.5358 101.095 23.726C101.026 23.9161 100.919 24.0904 100.781 24.2384C100.643 24.3864 100.476 24.505 100.291 24.5872C100.107 24.6693 99.9069 24.7134 99.7046 24.7167C99.2879 24.7065 98.891 24.5361 98.5967 24.2409C98.3023 23.9457 98.133 23.5484 98.124 23.1316C98.1107 22.9287 98.1388 22.7252 98.2066 22.5335C98.2744 22.3418 98.3804 22.1658 98.5183 22.0163C98.6562 21.8669 98.823 21.747 99.0086 21.6639C99.1942 21.5808 99.3947 21.5364 99.5981 21.5332C100.018 21.5435 100.417 21.7156 100.712 22.0135C101.008 22.3114 101.176 22.7121 101.183 23.1316Z" fill="#F0F0F0"/>
<path d="M103.98 23.1316C103.989 23.334 103.958 23.536 103.887 23.726C103.817 23.9159 103.709 24.0899 103.571 24.2376C103.432 24.3853 103.265 24.5037 103.08 24.586C102.895 24.6683 102.695 24.7127 102.493 24.7167C102.078 24.7053 101.683 24.5341 101.391 24.2388C101.099 23.9435 100.932 23.5468 100.926 23.1316C100.914 22.928 100.944 22.7242 101.013 22.5325C101.083 22.3407 101.19 22.1649 101.329 22.0156C101.468 21.8664 101.635 21.7467 101.822 21.6638C102.008 21.5809 102.209 21.5365 102.413 21.5332C102.831 21.5436 103.228 21.7163 103.521 22.0147C103.813 22.3131 103.978 22.7137 103.98 23.1316Z" fill="#F0F0F0"/>
<path d="M106.778 23.1316C106.785 23.3346 106.751 23.537 106.679 23.727C106.608 23.917 106.499 24.0908 106.359 24.2383C106.219 24.3858 106.052 24.5041 105.866 24.5862C105.68 24.6683 105.48 24.7127 105.277 24.7167C104.863 24.7052 104.47 24.5336 104.18 24.2379C103.89 23.9422 103.726 23.5456 103.723 23.1316C103.714 22.9275 103.746 22.7237 103.817 22.5321C103.888 22.3406 103.997 22.1652 104.136 22.0162C104.276 21.8673 104.444 21.7478 104.631 21.6649C104.818 21.5819 105.019 21.5372 105.224 21.5332C105.64 21.5425 106.037 21.7153 106.328 22.0143C106.618 22.3133 106.78 22.7146 106.778 23.1316Z" fill="#F0F0F0"/>
<path d="M109.579 23.1316C109.585 23.3353 109.55 23.538 109.476 23.728C109.403 23.9181 109.293 24.0918 109.152 24.2391C109.011 24.3864 108.843 24.5045 108.656 24.5864C108.47 24.6684 108.269 24.7127 108.065 24.7167C107.652 24.7074 107.259 24.536 106.97 24.2395C106.682 23.943 106.522 23.5451 106.524 23.1316C106.517 22.9268 106.551 22.7227 106.624 22.5311C106.696 22.3395 106.806 22.1642 106.947 22.0155C107.088 21.8667 107.257 21.7475 107.444 21.6647C107.632 21.5819 107.834 21.5372 108.039 21.5332C108.454 21.5437 108.848 21.7173 109.137 22.0164C109.425 22.3155 109.584 22.7162 109.579 23.1316Z" fill="#F0F0F0"/>
<path d="M112.376 23.1316C112.362 23.4303 112.261 23.7183 112.085 23.9599C111.909 24.2016 111.666 24.3863 111.386 24.491C111.106 24.5958 110.801 24.6161 110.51 24.5494C110.218 24.4827 109.953 24.3319 109.746 24.1158C109.54 23.8996 109.401 23.6275 109.348 23.3334C109.294 23.0392 109.329 22.7358 109.446 22.4608C109.563 22.1859 109.759 21.9514 110.008 21.7865C110.258 21.6216 110.55 21.5335 110.849 21.5332C111.054 21.5372 111.257 21.5818 111.445 21.6645C111.633 21.7471 111.803 21.8661 111.945 22.0147C112.087 22.1632 112.198 22.3384 112.272 22.5301C112.346 22.7218 112.382 22.9262 112.376 23.1316Z" fill="#F0F0F0"/>
<path d="M115.174 23.1316C115.177 23.5447 115.018 23.9426 114.731 24.2392C114.443 24.5358 114.05 24.7074 113.637 24.7167C113.434 24.7127 113.233 24.6684 113.046 24.5864C112.86 24.5045 112.691 24.3864 112.551 24.2391C112.41 24.0918 112.3 23.9181 112.226 23.728C112.153 23.538 112.118 23.3353 112.123 23.1316C112.116 22.7162 112.274 22.3149 112.562 22.0154C112.85 21.7159 113.244 21.5425 113.66 21.5332C113.864 21.5372 114.066 21.5819 114.254 21.6647C114.441 21.7475 114.61 21.8667 114.751 22.0155C114.892 22.1642 115.002 22.3395 115.075 22.5311C115.147 22.7227 115.181 22.9268 115.174 23.1316Z" fill="#F0F0F0"/>
<path d="M117.975 23.1316C117.974 23.5463 117.811 23.9442 117.521 24.2403C117.23 24.5365 116.836 24.7074 116.421 24.7167C116.218 24.7127 116.018 24.6683 115.832 24.5862C115.646 24.5041 115.479 24.3858 115.339 24.2383C115.199 24.0908 115.09 23.917 115.019 23.727C114.947 23.537 114.913 23.3346 114.92 23.1316C114.918 22.7153 115.079 22.3147 115.369 22.0158C115.658 21.717 116.054 21.5437 116.47 21.5332C116.675 21.5372 116.876 21.5819 117.063 21.6648C117.25 21.7477 117.418 21.8671 117.559 22.016C117.699 22.1649 117.808 22.3402 117.879 22.5318C117.951 22.7234 117.984 22.9273 117.975 23.1316Z" fill="#F0F0F0"/>
<path d="M120.768 23.1316C120.762 23.5464 120.597 23.9431 120.305 24.2385C120.014 24.5339 119.62 24.7053 119.205 24.7167C119.002 24.7127 118.803 24.6683 118.617 24.5861C118.432 24.5039 118.265 24.3854 118.126 24.2378C117.987 24.0902 117.879 23.9163 117.808 23.7263C117.737 23.5364 117.705 23.3342 117.713 23.1316C117.715 22.7137 117.88 22.3131 118.173 22.0147C118.465 21.7163 118.863 21.5436 119.281 21.5332C119.484 21.5371 119.685 21.5819 119.871 21.665C120.057 21.7481 120.224 21.8678 120.363 22.017C120.502 22.1661 120.609 22.3417 120.679 22.5331C120.748 22.7246 120.779 22.9282 120.768 23.1316Z" fill="#F0F0F0"/>
<path d="M123.574 23.1316C123.564 23.5481 123.394 23.9447 123.1 24.2397C122.806 24.5347 122.41 24.7054 121.993 24.7167C121.791 24.7134 121.592 24.6693 121.407 24.5871C121.223 24.5049 121.056 24.3862 120.919 24.2382C120.781 24.0901 120.675 23.9158 120.606 23.7256C120.537 23.5355 120.508 23.3334 120.519 23.1316C120.525 22.7132 120.692 22.3132 120.986 22.0153C121.28 21.7174 121.677 21.5446 122.096 21.5332C122.299 21.5364 122.5 21.5809 122.686 21.6639C122.871 21.7469 123.039 21.8667 123.177 22.0161C123.315 22.1655 123.421 22.3414 123.49 22.5331C123.558 22.7249 123.587 22.9285 123.574 23.1316Z" fill="#F0F0F0"/>
<path d="M126.371 23.1316C126.357 23.5511 126.182 23.9492 125.883 24.2439C125.584 24.5387 125.184 24.7079 124.764 24.7167C124.562 24.7135 124.363 24.6694 124.179 24.587C123.995 24.5047 123.829 24.3859 123.692 24.2377C123.555 24.0895 123.45 23.9151 123.382 23.725C123.314 23.5348 123.286 23.333 123.299 23.1316C123.309 22.7124 123.479 22.3129 123.775 22.0156C124.071 21.7182 124.469 21.5456 124.888 21.5332C125.093 21.5332 125.295 21.5755 125.483 21.6574C125.671 21.7392 125.839 21.8589 125.978 22.009C126.118 22.159 126.224 22.3361 126.292 22.5293C126.36 22.7225 126.387 22.9275 126.371 23.1316Z" fill="#F0F0F0"/>
<path d="M129.168 23.1316C129.152 23.549 128.978 23.9445 128.681 24.2386C128.385 24.5327 127.988 24.7035 127.57 24.7167C127.367 24.7166 127.166 24.6747 126.98 24.5935C126.794 24.5124 126.626 24.3938 126.488 24.245C126.35 24.0963 126.244 23.9207 126.176 23.7291C126.109 23.5376 126.081 23.3342 126.096 23.1316C126.11 22.7115 126.284 22.3126 126.582 22.0158C126.879 21.719 127.279 21.5465 127.699 21.5332C127.903 21.5331 128.105 21.5754 128.292 21.6574C128.479 21.7394 128.647 21.8593 128.785 22.0096C128.923 22.1598 129.028 22.3372 129.094 22.5303C129.16 22.7234 129.186 22.9282 129.168 23.1316Z" fill="#F0F0F0"/>
<path d="M131.97 23.1316C131.948 23.5502 131.77 23.9453 131.471 24.2388C131.171 24.5323 130.773 24.7028 130.354 24.7167C130.153 24.7144 129.955 24.6706 129.772 24.5882C129.588 24.5058 129.424 24.3865 129.289 24.2377C129.154 24.089 129.051 23.914 128.987 23.7236C128.923 23.5333 128.898 23.3318 128.915 23.1316C128.933 22.7103 129.11 22.3114 129.409 22.0149C129.709 21.7184 130.11 21.5463 130.532 21.5332C130.733 21.536 130.933 21.5806 131.116 21.664C131.3 21.7475 131.465 21.868 131.6 22.0181C131.735 22.1682 131.838 22.3446 131.901 22.5362C131.965 22.7278 131.989 22.9305 131.97 23.1316Z" fill="#F0F0F0"/>
<path d="M134.767 23.1316C134.742 23.5506 134.562 23.9452 134.261 24.2383C133.961 24.5314 133.562 24.702 133.142 24.7167C132.942 24.7145 132.744 24.6707 132.561 24.5882C132.378 24.5057 132.215 24.3862 132.08 24.2373C131.946 24.0884 131.844 23.9133 131.781 23.723C131.717 23.5327 131.694 23.3313 131.713 23.1316C131.735 22.7095 131.914 22.311 132.216 22.015C132.518 21.719 132.92 21.5471 133.342 21.5332C133.544 21.5352 133.743 21.5793 133.926 21.6626C134.11 21.746 134.274 21.8668 134.408 22.0173C134.542 22.1678 134.644 22.3446 134.705 22.5365C134.767 22.7284 134.788 22.9311 134.767 23.1316Z" fill="#F0F0F0"/>
<path d="M137.565 23.1316C137.536 23.5518 137.353 23.9465 137.05 24.2393C136.748 24.5321 136.347 24.7022 135.926 24.7167C135.728 24.7116 135.533 24.6656 135.354 24.5817C135.174 24.4977 135.014 24.3775 134.883 24.2287C134.752 24.0798 134.653 23.9056 134.593 23.7168C134.532 23.528 134.512 23.3288 134.532 23.1316C134.558 22.7087 134.741 22.3107 135.045 22.0152C135.348 21.7197 135.751 21.5478 136.175 21.5332C136.374 21.5381 136.57 21.5844 136.75 21.6692C136.931 21.754 137.091 21.8755 137.222 22.0259C137.353 22.1763 137.451 22.3523 137.51 22.5427C137.569 22.7331 137.587 22.9336 137.565 23.1316Z" fill="#F0F0F0"/>
<path d="M140.366 23.1316C140.333 23.5522 140.146 23.946 139.842 24.2382C139.537 24.5303 139.136 24.7006 138.714 24.7167C138.515 24.7155 138.317 24.6723 138.136 24.5897C137.954 24.5072 137.791 24.3872 137.659 24.2376C137.526 24.088 137.427 23.9122 137.367 23.7216C137.307 23.5311 137.288 23.33 137.311 23.1316C137.341 22.7082 137.526 22.3107 137.831 22.0156C138.136 21.7205 138.539 21.5486 138.963 21.5332C139.164 21.5348 139.362 21.5789 139.545 21.6625C139.727 21.7461 139.89 21.8673 140.023 22.0182C140.155 22.1691 140.254 22.3463 140.313 22.5382C140.373 22.7301 140.391 22.9323 140.366 23.1316Z" fill="#F0F0F0"/>
<path d="M143.163 23.1316C143.126 23.553 142.936 23.9464 142.63 24.2381C142.323 24.5299 141.921 24.7 141.498 24.7167C141.299 24.7151 141.103 24.6714 140.922 24.5885C140.741 24.5055 140.579 24.3853 140.448 24.2356C140.317 24.0859 140.219 23.9102 140.16 23.7199C140.102 23.5297 140.084 23.3292 140.109 23.1316C140.143 22.7078 140.331 22.3112 140.638 22.0167C140.945 21.7222 141.349 21.5503 141.774 21.5332C141.974 21.5346 142.172 21.5786 142.354 21.6623C142.536 21.746 142.698 21.8675 142.829 22.0187C142.961 22.1699 143.059 22.3473 143.116 22.5392C143.174 22.7311 143.19 22.933 143.163 23.1316Z" fill="#F0F0F0"/>
<path d="M145.965 23.1316C145.92 23.5503 145.729 23.9395 145.424 24.2299C145.119 24.5202 144.72 24.6927 144.3 24.7167C144.101 24.716 143.905 24.6728 143.724 24.59C143.543 24.5072 143.382 24.3867 143.252 24.2366C143.122 24.0865 143.025 23.9102 142.968 23.7196C142.912 23.529 142.896 23.3286 142.924 23.1316C142.966 22.7084 143.158 22.3142 143.466 22.0209C143.774 21.7276 144.177 21.5545 144.602 21.5332C144.801 21.5362 144.997 21.5816 145.176 21.6662C145.356 21.7509 145.516 21.8729 145.645 22.0241C145.774 22.1754 145.869 22.3524 145.924 22.5434C145.98 22.7343 145.993 22.9349 145.965 23.1316Z" fill="#F0F0F0"/>
<path d="M148.762 23.1316C148.717 23.5546 148.521 23.9473 148.211 24.2382C147.9 24.5291 147.496 24.6989 147.071 24.7167C146.872 24.7156 146.677 24.672 146.497 24.5888C146.317 24.5057 146.157 24.3849 146.028 24.2346C145.899 24.0844 145.803 23.9082 145.748 23.7179C145.693 23.5276 145.679 23.3277 145.707 23.1316C145.75 22.7062 145.944 22.3103 146.255 22.0167C146.566 21.7231 146.972 21.5514 147.399 21.5332C147.599 21.534 147.796 21.5779 147.976 21.6619C148.157 21.7458 148.318 21.8678 148.447 22.0196C148.577 22.1714 148.672 22.3493 148.726 22.5412C148.781 22.7331 148.793 22.9345 148.762 23.1316Z" fill="#F0F0F0"/>
</g>
<path d="M71.4041 20.4053H150.6L150.596 22.572H71.4085L71.4041 20.4053Z" fill="#090C9B"/>
<path d="M71.3996 18.2383L73.0513 20.405H148.935L150.605 18.2383H71.3996Z" fill="#407BFF"/>
<g opacity="0.4">
<path d="M71.3996 18.2383L73.0513 20.405H148.935L150.605 18.2383H71.3996Z" fill="black"/>
</g>
<path d="M71.3907 16.0625H150.609L150.605 18.2381H71.3996L71.3907 16.0625Z" fill="#090C9B"/>
<g opacity="0.8">
<path d="M73.0469 18.2383H148.94L148.935 20.405H73.0513L73.0469 18.2383Z" fill="white"/>
</g>
<g opacity="0.7">
<path d="M148.962 63.0605H72.9314V64.0152H148.962V63.0605Z" fill="white"/>
</g>
<g opacity="0.8">
<path d="M148.958 110.439H73.0869V111.39H148.958V110.439Z" fill="white"/>
</g>
<path d="M98.0884 28.8633H88.689V39.0176H98.0884V28.8633Z" fill="white"/>
<path d="M116.141 28.8633H106.742V39.0176H116.141V28.8633Z" fill="white"/>
<path d="M134.195 28.8633H124.795V39.0176H134.195V28.8633Z" fill="white"/>
<path d="M98.0884 44.0654H88.689V54.2197H98.0884V44.0654Z" fill="white"/>
<path d="M116.141 44.0654H106.742V54.2197H116.141V44.0654Z" fill="white"/>
<path d="M134.195 44.0654H124.795V54.2197H134.195V44.0654Z" fill="white"/>
<path d="M98.0884 117.752H88.689V127.906H98.0884V117.752Z" fill="white"/>
<path d="M116.141 117.752H106.742V127.906H116.141V117.752Z" fill="white"/>
<path d="M134.195 117.752H124.795V127.906H134.195V117.752Z" fill="white"/>
<path d="M88.0186 139.131H78.6191V149.285H88.0186V139.131Z" fill="white"/>
<path d="M143.243 139.131H133.844V149.285H143.243V139.131Z" fill="white"/>
<path d="M98.0884 72.0156H88.689V82.1699H98.0884V72.0156Z" fill="white"/>
<path d="M116.141 72.0156H106.742V82.1699H116.141V72.0156Z" fill="white"/>
<path d="M134.195 72.0156H124.795V82.1699H134.195V72.0156Z" fill="white"/>
<path d="M98.0884 87.2178H88.689V97.3721H98.0884V87.2178Z" fill="white"/>
<path d="M116.141 87.2178H106.742V97.3721H116.141V87.2178Z" fill="white"/>
<path d="M134.195 87.2178H124.795V97.3721H134.195V87.2178Z" fill="white"/>
<g opacity="0.8">
<path d="M100.055 140.32H109.783L109.743 150.421H99.9888L100.055 140.32Z" fill="white"/>
</g>
<g opacity="0.8">
<path d="M111.662 140.32H121.789L121.31 150.421H111.555L111.662 140.32Z" fill="white"/>
</g>
<path d="M123.339 152.455H97.6711L97.569 150.422H123.436L123.339 152.455Z" fill="#407BFF"/>
<g opacity="0.1">
<path d="M123.339 152.455H97.6711L97.569 150.422H123.436L123.339 152.455Z" fill="white"/>
</g>
<path d="M124.373 154.604H96.7654L96.6544 152.602H124.475L124.373 154.604Z" fill="#407BFF"/>
<g opacity="0.4">
<path d="M125.288 136.742H95.7796L95.6509 134.455H125.403L125.288 136.742Z" fill="white"/>
</g>
<path d="M95.7797 136.742L100.055 140.321H121.789L125.288 136.742H95.7797Z" fill="black"/>
<path d="M97.7776 138.416L99.2872 150.404H100.486L100.002 138.416C99.6587 138.24 99.2782 138.147 98.8921 138.147C98.506 138.147 98.1255 138.24 97.7821 138.416H97.7776Z" fill="#407BFF"/>
<path d="M123.707 138.415L122.229 150.403H121.03L121.474 138.415C121.804 138.199 122.19 138.084 122.584 138.084C122.978 138.084 123.364 138.199 123.694 138.415H123.707Z" fill="#407BFF"/>
<path d="M85.8873 12.7682C85.8873 10.8057 87.3925 9.41601 89.4393 9.41601C89.9644 9.39086 90.4882 9.4876 90.9696 9.69866C91.451 9.90972 91.8771 10.2294 92.2143 10.6326L91.0555 11.6804C90.8762 11.4465 90.6458 11.2569 90.3817 11.126C90.1177 10.9952 89.8272 10.9266 89.5326 10.9256C89.0439 10.9256 88.5752 11.1197 88.2296 11.4653C87.8841 11.8108 87.69 12.2795 87.69 12.7682C87.69 13.2569 87.8841 13.7256 88.2296 14.0711C88.5752 14.4167 89.0439 14.6108 89.5326 14.6108C89.8274 14.6108 90.1183 14.5427 90.3824 14.4118C90.6466 14.2808 90.8769 14.0906 91.0555 13.856L92.2143 14.9083C91.8764 15.3107 91.4502 15.6298 90.969 15.8408C90.4877 16.0518 89.9643 16.149 89.4393 16.1248C87.3925 16.1248 85.8873 14.7484 85.8873 12.7682Z" fill="black"/>
<path d="M92.5474 12.7682C92.5474 10.8368 94.0703 9.41602 96.1349 9.41602C98.1995 9.41602 99.718 10.8368 99.718 12.7682C99.718 14.6996 98.1995 16.1249 96.1349 16.1249C94.0703 16.1249 92.5474 14.7041 92.5474 12.7682ZM97.8754 12.7682C97.8563 12.4277 97.7378 12.1003 97.5347 11.8264C97.3315 11.5525 97.0525 11.3441 96.7322 11.227C96.4119 11.11 96.0644 11.0893 95.7325 11.1676C95.4005 11.2459 95.0989 11.4198 94.8647 11.6677C94.6305 11.9156 94.4741 12.2267 94.4148 12.5625C94.3555 12.8984 94.396 13.2442 94.5311 13.5573C94.6662 13.8704 94.8901 14.1371 95.1752 14.3243C95.4602 14.5115 95.7939 14.6111 96.1349 14.6108C96.3729 14.6132 96.6088 14.5663 96.8278 14.4732C97.0468 14.3801 97.2442 14.2428 97.4077 14.0697C97.5711 13.8967 97.697 13.6918 97.7775 13.4678C97.858 13.2439 97.8913 13.0057 97.8754 12.7682Z" fill="black"/>
<path d="M106.498 15.9962V12.5774L104.837 15.3613H104.029L102.378 12.6707V15.9962H100.69V9.54492H102.195L104.46 13.2656L106.68 9.54492H108.181V15.9962H106.498Z" fill="black"/>
<path d="M115.276 11.9336C115.276 13.3944 114.17 14.309 112.412 14.309H111.284V15.9962H109.464V9.54492H112.412C114.17 9.54492 115.276 10.4551 115.276 11.9336ZM113.433 11.9336C113.433 11.3342 113.056 10.9835 112.301 10.9835H111.284V12.8705H112.301C113.056 12.8705 113.433 12.5286 113.433 11.9336Z" fill="black"/>
<path d="M120.16 14.7485H117.429L116.923 16.005H115.063L117.909 9.55371H119.707L122.544 15.9962H120.648L120.16 14.7485ZM119.622 13.4165L118.792 11.3564L117.966 13.4165H119.622Z" fill="black"/>
<path d="M129.204 9.54492V15.9962H127.703L124.857 12.5597V15.9962H123.081V9.54492H124.582L127.428 12.9726V9.54492H129.204Z" fill="black"/>
<path d="M133.955 13.683V15.9962H132.13V13.6564L129.67 9.54492H131.597L133.129 12.1068L134.656 9.54492H136.432L133.955 13.683Z" fill="black"/>
<path d="M73.0469 18.2383H148.94L148.935 20.405H73.0513L73.0469 18.2383Z" fill="#5463FF"/>
<path d="M160.808 87.6223C158.424 90.8369 157.5 92.3154 156.577 93.2256C155.569 94.2201 145.277 93.4609 144.034 92.9414C143.083 92.5418 143.741 91.3075 144.189 91.3697C145.885 91.605 152.252 90.4817 154.139 89.6647C154.468 89.5182 157.691 85.5977 157.691 85.5977L160.808 87.6223Z" fill="#FFB573"/>
<path d="M156.892 85.4949C158.908 81.7964 162.881 79.0835 164.085 78.9281C165.816 78.7017 166.398 79.048 165.892 80.4377C165.03 82.8043 163.445 85.2907 161.212 88.301L156.892 85.4949Z" fill="#090C9B"/>
<g opacity="0.1">
<path d="M156.892 85.4949C158.908 81.7964 162.881 79.0835 164.085 78.9281C165.816 78.7017 166.398 79.048 165.892 80.4377C165.03 82.8043 163.445 85.2907 161.212 88.301L156.892 85.4949Z" fill="black"/>
</g>
<path d="M164.085 78.9282C165.058 78.5744 166.051 78.2779 167.059 78.0402C168.901 77.5974 170.772 77.2888 172.658 77.1167C173.755 76.9986 174.858 76.9379 175.962 76.9347C176.074 76.9333 176.185 76.9452 176.295 76.9702C176.71 77.0737 177.069 77.334 177.297 77.6966C177.525 78.0592 177.603 78.4958 177.516 78.9149C175.664 88.7051 175.575 93.0474 175.842 98.0913L164.573 98.4909C164.43 98.4916 164.291 98.4409 164.182 98.348C164.073 98.2552 164 98.1263 163.978 97.9847C163.476 95.445 161.918 89.8018 161.918 89.8018C160.51 88.4476 160.275 86.7782 160.142 85.8058C160.062 85.2774 161.243 84.7047 162.526 81.9075C162.504 81.9075 163.507 79.128 164.085 78.9282Z" fill="#090C9B"/>
<path d="M171.206 98.2473L167.099 98.3983C166.487 93.5143 166.602 89.2031 166.815 84.3457C168.037 89.0527 169.502 93.6929 171.206 98.2473Z" fill="#CFABFF"/>
<path d="M172.396 135.809C172.294 135.583 172.192 135.365 172.094 135.108C167.663 124.519 164.28 103.104 164.28 103.104L172.179 99.1084C172.179 99.1084 174.425 117.925 177.507 130.166C177.977 132.031 178.461 133.718 178.963 135.197L173.569 137.674L172.396 135.809Z" fill="#FFB573"/>
<g opacity="0.8">
<path d="M172.396 135.809C172.294 135.583 172.192 135.365 172.094 135.108C167.663 124.519 164.28 103.104 164.28 103.104L172.179 99.1084C172.179 99.1084 174.425 117.925 177.507 130.166C177.977 132.031 178.461 133.718 178.963 135.197L173.569 137.674L172.396 135.809Z" fill="#FFB573"/>
</g>
<path d="M164.862 100.343C164.862 100.343 161.247 125.651 162.1 136C162.988 146.909 166.229 165.589 166.229 165.589L168.893 165.407C169.798 155.663 169.576 145.848 168.232 136.156C174.337 120.443 175.02 100.742 175.02 100.742L164.862 100.343Z" fill="#FFB573"/>
<path opacity="0.8" d="M164.862 100.343C164.862 100.343 161.247 125.651 162.1 136C162.988 146.909 166.229 165.589 166.229 165.589L168.893 165.407C169.798 155.663 169.576 145.848 168.232 136.156C174.337 120.443 175.02 100.742 175.02 100.742L164.862 100.343Z" fill="#FFB573"/>
<path d="M169.24 166.241C169.425 166.595 169.527 166.987 169.537 167.387C169.608 168.847 169.71 172.741 169.71 172.741L169.39 172.764C169.39 172.764 169.195 170.854 168.973 169.9C168.751 168.945 168.605 169.767 168.116 170.81C167.628 171.853 166.256 172.923 164.169 173.119C161.723 173.345 160.724 173.301 161.394 172.613C162.064 171.924 163.667 171.409 163.667 171.409C163.667 171.409 165.799 167.764 165.674 165.304C165.541 162.68 168.573 165.145 169.16 164.776C169.368 164.82 169.12 166.028 169.24 166.241Z" fill="black"/>
<path d="M177.684 131.076C176.135 131.409 174.758 132.55 170.687 132.959H170.443C170.27 132.959 170.092 132.99 169.905 132.999C168.813 133.056 162.557 132.763 161.398 132.084C162.406 121.672 164.391 99.5478 164.391 99.5478L169.164 98.9794L175.322 98.793C175.322 98.793 182.115 105.808 180.553 112.175C178.222 121.699 179.376 123.177 177.684 131.076Z" fill="black"/>
<path d="M175.784 93.088C175.621 92.9241 175.496 92.7259 175.42 92.5077C175.343 92.2896 175.316 92.057 175.34 91.8271C175.34 91.8271 175.34 91.1255 175.318 90.0511C175.282 86.9431 175.256 80.7271 175.58 79.9012C176.29 78.1252 177.507 77.1529 178.142 78.1918C178.888 79.4084 178.941 88.6391 178.941 88.6391C178.75 94.7486 176.512 93.9405 175.784 93.088Z" fill="#FFB573"/>
<path d="M174.305 76.7529L173.933 77.4234C172.494 80.0163 169.164 83.3952 167.863 83.7237C167.559 83.0201 167.092 82.399 166.5 81.9122C166.154 82.0833 165.846 82.323 165.596 82.6169C165.345 82.9108 165.158 83.2527 165.044 83.6216C163.929 81.8101 164.027 79.5191 164.307 78.3869C164.964 78.1871 165.665 77.9828 166.331 77.8185C168.174 77.3918 170.045 77.0951 171.93 76.9305C172.717 76.8215 173.511 76.7621 174.305 76.7529Z" fill="#03045E"/>
<path opacity="0.8" d="M174.306 76.7529L173.933 77.4234C172.494 80.0163 169.164 83.3952 167.863 83.7237C167.618 83.0947 167.412 82.4512 167.246 81.7968C166.549 82.1431 166.034 83.1288 165.803 83.8747C164.684 82.0632 164.027 79.5191 164.307 78.3869C164.964 78.1871 165.665 77.9828 166.331 77.8185C168.174 77.3918 170.045 77.0951 171.93 76.9305C172.717 76.8215 173.511 76.7621 174.306 76.7529Z" fill="#CFABFF"/>
<path d="M165.736 89.456L164.191 87.3604L162.81 90.0954C162.81 90.0954 164.222 90.8857 165.394 90.6193L165.736 89.456Z" fill="#FFB573"/>
<path d="M161.745 86.7158L161.088 88.9269L162.81 90.0813L164.191 87.3596L161.745 86.7158Z" fill="#FFB573"/>
<path d="M175.824 99.3792L170.119 99.5346H169.639L168.405 99.5701H167.934L164.582 99.6589C164.48 99.6589 164.387 99.6056 164.382 99.539L164.249 98.4646C164.249 98.3935 164.333 98.3269 164.449 98.3225L167.761 98.1893H168.156L169.794 98.1271H170.181L175.677 97.9096C175.715 97.9054 175.753 97.9109 175.788 97.9257C175.823 97.9405 175.854 97.964 175.877 97.9939L176.01 99.2149C176.064 99.286 175.966 99.3748 175.824 99.3792Z" fill="#407BFF"/>
<path opacity="0.2" d="M175.824 99.3792L170.119 99.5346H169.639L168.405 99.5701H167.934L164.582 99.6589C164.48 99.6589 164.387 99.6056 164.382 99.539L164.249 98.4646C164.249 98.3935 164.333 98.3269 164.449 98.3225L167.761 98.1893H168.156L169.794 98.1271H170.181L175.677 97.9096C175.715 97.9054 175.753 97.9109 175.788 97.9257C175.823 97.9405 175.854 97.964 175.877 97.9939L176.01 99.2149C176.064 99.286 175.966 99.3748 175.824 99.3792Z" fill="white"/>
<path d="M166.171 99.7787H166.536C166.55 99.7819 166.565 99.782 166.579 99.7789C166.594 99.7758 166.607 99.7696 166.619 99.7607C166.631 99.7518 166.641 99.7405 166.648 99.7275C166.655 99.7145 166.659 99.7001 166.66 99.6854L166.456 98.1625C166.456 98.1181 166.385 98.0781 166.309 98.0781H165.945C165.87 98.0781 165.816 98.1225 165.821 98.1669L166.025 99.6943C166.037 99.7222 166.058 99.7454 166.084 99.7606C166.111 99.7758 166.141 99.7821 166.171 99.7787Z" fill="#263238"/>
<path d="M172.53 99.6856H172.876C172.889 99.6888 172.903 99.6893 172.916 99.6869C172.929 99.6846 172.942 99.6795 172.953 99.672C172.965 99.6645 172.974 99.6547 172.982 99.6433C172.989 99.6319 172.994 99.6191 172.996 99.6057L172.787 98.0739C172.787 98.0339 172.716 97.9939 172.649 97.9984H172.303C172.232 97.9984 172.183 98.0339 172.188 98.0827L172.392 99.6012C172.396 99.6545 172.458 99.6856 172.53 99.6856Z" fill="#263238"/>
<path d="M174.421 106.261L173.533 105.946L177.485 94.1219C178.115 92.2438 177.875 90.4501 175.544 89.6287C173.364 88.8605 171.65 89.9572 171.015 91.8487L167.019 103.637L166.131 103.322L170.127 91.5423C170.865 89.3623 172.285 87.8837 175.713 89.0959C179.141 90.308 179.074 92.2616 178.341 94.4505L174.421 106.261Z" fill="#5463FF"/>
<path d="M176.654 113.556L159.338 107.34L163.263 95.8764C163.35 95.6108 163.489 95.3653 163.672 95.154C163.856 94.9428 164.079 94.7702 164.329 94.6462C164.58 94.5222 164.852 94.4493 165.131 94.4319C165.41 94.4144 165.69 94.4526 165.954 94.5444L178.572 99.0288C179.262 99.2839 179.826 99.7968 180.145 100.459C180.464 101.122 180.513 101.883 180.282 102.581L176.654 113.556Z" fill="#03045E"/>
<path opacity="0.1" d="M174.736 112.873L161.243 108.024C160.733 107.832 160.319 107.448 160.089 106.954C159.859 106.46 159.832 105.896 160.013 105.382L163.268 95.8764C163.355 95.6108 163.494 95.3653 163.677 95.154C163.86 94.9428 164.083 94.7702 164.334 94.6462C164.584 94.5222 164.857 94.4493 165.136 94.4319C165.415 94.4144 165.694 94.4526 165.958 94.5444L178.577 99.0288C179.267 99.2839 179.83 99.7968 180.149 100.459C180.468 101.122 180.517 101.883 180.286 102.581L177.307 111.581C177.227 111.837 177.096 112.074 176.922 112.279C176.748 112.483 176.535 112.651 176.295 112.771C176.055 112.892 175.794 112.963 175.526 112.98C175.258 112.998 174.99 112.961 174.736 112.873Z" fill="white"/>
<g opacity="0.3">
<path d="M174.421 106.261L173.724 106.869L173.542 105.946L177.493 94.1219C178.124 92.2438 177.884 90.4501 175.553 89.6287C173.373 88.8605 171.659 89.9572 171.024 91.8487L167.028 103.637L166.309 104.236L166.154 103.322L170.15 91.5423C170.887 89.3623 172.308 87.8837 175.735 89.0959C179.163 90.308 179.096 92.2616 178.364 94.4505L174.421 106.261Z" fill="white"/>
</g>
<path d="M168.827 99.1442L167.384 98.6291L167.566 98.083L169.009 98.598L168.827 99.1442Z" fill="#5463FF"/>
<path d="M167.628 102.687L166.18 102.172L166.367 101.626L167.81 102.141L167.628 102.687Z" fill="#5463FF"/>
<path d="M176.246 101.79L174.798 101.275L174.98 100.725L176.428 101.24L176.246 101.79Z" fill="#5463FF"/>
<path d="M175.06 105.346L173.608 104.827L173.791 104.276L175.242 104.796L175.06 105.346Z" fill="#5463FF"/>
<path d="M173.382 101.12L170.283 100.014L170.674 98.8418L173.773 99.9474L173.382 101.12Z" fill="white"/>
<path d="M177.12 93.634C175.731 94.4332 170.11 93.5319 165.354 90.6725C165.132 90.5349 164.91 90.5527 164.826 90.4994C164.529 90.2818 165.27 89.7801 165.714 89.5492C165.958 89.4249 176.45 90.7525 177.174 90.8501C177.995 92.9902 177.254 92.9636 177.12 93.634Z" fill="#FFB573"/>
<path d="M172.64 136.666C173.404 138.846 175.966 139.805 177.76 138.442C177.832 138.386 177.902 138.327 177.968 138.264C185.738 131.071 195.622 120.588 195.622 120.588L193.957 118.479C188.136 121.853 182.637 125.755 177.529 130.134C175.753 131.657 173.91 133.322 172.117 135.098L172.64 136.666Z" fill="#FFB573"/>
<path opacity="0.8" d="M172.64 136.666C173.404 138.846 175.966 139.805 177.76 138.442C177.832 138.386 177.902 138.327 177.968 138.264C185.738 131.071 195.622 120.588 195.622 120.588L193.957 118.479C188.136 121.853 182.637 125.755 177.529 130.134C175.753 131.657 173.91 133.322 172.117 135.098L172.64 136.666Z" fill="#FFB573"/>
<path d="M192.949 118.746C193.059 118.39 193.254 118.065 193.517 117.801C194.45 116.828 196.972 114.324 196.972 114.324L197.198 114.551C197.198 114.551 196.062 115.883 195.573 116.646C195.085 117.41 195.729 117.002 196.745 116.713C197.762 116.424 199.387 116.775 200.906 118.205C202.682 119.888 203.33 120.665 202.428 120.589C201.527 120.514 200.111 119.652 200.111 119.652C200.111 119.652 196.261 120.358 194.698 122.005C193.02 123.781 192.656 119.932 192.034 119.723C191.901 119.532 192.882 118.968 192.949 118.746Z" fill="black"/>
<path d="M166.282 76.4291C167.117 77.4237 167.765 78.6491 166.655 80.0921C166.412 80.4001 166.283 80.7831 166.291 81.1755C166.318 81.8015 166.735 82.3876 168.653 81.0467C171.451 79.1109 171.069 77.1706 171.069 77.1706C169.506 76.8065 168.369 73.6186 167.89 71.8115L166.282 76.4291Z" fill="#FFB573"/>
<path opacity="0.2" d="M167.916 74.5947C168.192 75.3672 167.45 76.6815 166.855 77.2232C166.691 76.9412 166.5 76.6752 166.287 76.4284L167.237 73.6934C167.522 73.945 167.753 74.2516 167.916 74.5947Z" fill="black"/>
<path d="M159.609 67.9528C158.863 70.8521 159.973 74.0311 162.02 76.2156C164.089 73.9468 168.001 74.4396 170.176 72.2729C171.633 70.8343 171.899 68.419 170.998 66.5808C170.03 64.6006 167.17 62.6914 164.915 63.0022C162.389 63.3529 160.235 65.5108 159.609 67.9528Z" fill="black"/>
<path d="M168.227 66.9674C167.926 66.5253 167.541 66.1469 167.094 65.8538C166.647 65.5608 166.146 65.3587 165.621 65.2593C165.095 65.16 164.556 65.1652 164.032 65.2746C163.509 65.3841 163.012 65.5957 162.571 65.8973C159.947 67.6733 160.435 72.1133 161.607 74.6219C162.895 77.428 166.655 77.5435 168.409 74.7907C169.586 72.9569 169.337 71.7049 168.902 68.7256C168.816 68.0953 168.585 67.4934 168.227 66.9674Z" fill="#FFB573"/>
<path d="M163.259 64.5431C163.024 64.9209 162.872 65.3449 162.815 65.7863C166.282 66.5855 168.84 70.2263 169.826 73.6762C170.762 72.4418 172.601 70.9322 173.315 69.4493C174.11 67.7843 173.049 65.8973 171.451 64.9649C170.036 64.2664 168.565 63.6858 167.055 63.2288C166.366 62.9955 165.619 62.998 164.932 63.236C164.245 63.4739 163.656 63.9338 163.259 64.5431Z" fill="black"/>
<path d="M170.207 70.5195C170.182 70.3929 170.132 70.2725 170.06 70.1653C169.988 70.0581 169.895 69.9662 169.787 69.8948C169.68 69.8234 169.559 69.774 169.432 69.7494C169.306 69.7248 169.175 69.7255 169.049 69.7514C168.316 69.9112 168.05 70.9369 168.094 71.594C168.156 72.3177 168.72 72.8194 169.342 72.3665C169.816 72.0229 170.135 71.5059 170.23 70.928C170.249 70.7917 170.241 70.6529 170.207 70.5195Z" fill="#FFB573"/>
<path d="M160.182 72.1396C160.524 73.9644 162.002 76.4819 163.578 77.4676C162.517 78.2712 160.617 77.3611 159.498 76.6462C158.949 76.2683 158.486 75.778 158.141 75.2077C157.796 74.6374 157.576 74.0002 157.496 73.3384C157.341 72.0112 157.521 70.6663 158.02 69.4268C158.834 67.4198 160.184 65.675 161.922 64.3829C162.26 64.1076 162.837 63.8901 163.059 64.2631C163.214 64.5206 163.037 64.8447 162.868 65.0889C161.23 67.4599 159.942 69.1293 160.182 72.1396Z" fill="black"/>
<path d="M168.423 75.4742H168.396C168.368 75.4669 168.344 75.4488 168.329 75.4239C168.314 75.399 168.309 75.3693 168.316 75.341C169.501 70.5503 164.364 66.905 162.762 65.8838C162.737 65.8683 162.72 65.8438 162.713 65.8156C162.706 65.7874 162.711 65.7577 162.726 65.7329C162.733 65.7203 162.743 65.7093 162.755 65.7007C162.766 65.692 162.78 65.6858 162.794 65.6825C162.808 65.6792 162.823 65.6788 162.837 65.6813C162.851 65.6839 162.865 65.6893 162.877 65.6973C164.515 66.723 169.755 70.457 168.534 75.3943C168.527 75.4181 168.512 75.4389 168.492 75.4534C168.472 75.4679 168.447 75.4752 168.423 75.4742Z" fill="black"/>
<path d="M169.324 72.002L169.226 73.6936L169.679 74.0666L169.901 73.5471L169.324 72.002Z" fill="#407BFF"/>
<path d="M176.805 77.0863C176.451 76.996 176.079 77.0001 175.727 77.0983C175.375 77.1964 175.055 77.3852 174.798 77.6457C174.233 78.2684 173.876 79.0524 173.777 79.8879C173.613 81.1666 173.937 82.4631 174.283 83.7108C174.707 84.9412 174.944 86.2284 174.985 87.5292C176.343 86.7877 178.319 85.3092 180.22 85.1138C179.958 82.0902 179.607 80.0744 179.021 79.0754C178.718 78.4807 178.31 77.9453 177.818 77.4948C177.511 77.2923 177.167 77.1534 176.805 77.0863Z" fill="#090C9B"/>
<g opacity="0.1">
<path d="M176.805 77.0863C176.451 76.996 176.079 77.0001 175.727 77.0983C175.375 77.1964 175.055 77.3852 174.798 77.6457C174.233 78.2684 173.876 79.0524 173.777 79.8879C173.613 81.1666 173.937 82.4631 174.283 83.7108C174.707 84.9412 174.944 86.2284 174.985 87.5292C176.343 86.7877 178.319 85.3092 180.22 85.1138C179.958 82.0902 179.607 80.0744 179.021 79.0754C178.718 78.4807 178.31 77.9453 177.818 77.4948C177.511 77.2923 177.167 77.1534 176.805 77.0863Z" fill="white"/>
</g>
<path d="M144.447 91.3379C144.447 91.3379 141.094 91.8929 141.05 92.0438C141.006 92.1948 141.023 94.0818 141.023 94.0818L144.034 92.9407L144.447 91.3379Z" fill="#FFB573"/>
<path d="M141.023 94.0819L138.191 91.4134L139.456 91.0449L141.556 92.186L141.023 94.0819Z" fill="#FFB573"/>
<path d="M55.5044 161.792L58.6701 161.619L58.9498 169.118L55.7841 169.287L55.5044 161.792Z" fill="#F7978D"/>
<path d="M59.7269 168.439C60.7126 169.048 62.1378 169.58 64.7352 169.842C65.3124 169.9 65.4989 171.219 64.1625 171.365C62.826 171.512 60.495 171.72 59.5271 171.809C57.9509 171.978 57.3648 172.12 56.1216 172.275C55.9721 172.29 55.8229 172.246 55.7064 172.151C55.5899 172.056 55.5157 171.919 55.5 171.769L55.3668 168.919C55.3644 168.889 55.368 168.858 55.3775 168.83C55.387 168.801 55.4021 168.775 55.4219 168.752C55.4418 168.729 55.466 168.711 55.4931 168.697C55.5203 168.684 55.5498 168.676 55.5799 168.675L59.1586 168.284C59.36 168.272 59.5598 168.326 59.7269 168.439Z" fill="black"/>
<path opacity="0.2" d="M55.6465 165.66L58.8166 165.487L58.6701 161.624L55.5044 161.797L55.6465 165.66Z" fill="black"/>
<path d="M61.272 168.706C61.3155 168.648 61.343 168.58 61.3516 168.508C61.3601 168.436 61.3495 168.364 61.3208 168.297C61.3061 168.251 61.2802 168.21 61.2453 168.176C61.2103 168.143 61.1676 168.119 61.121 168.106C60.717 167.995 59.8823 168.71 59.789 168.795C59.7828 168.806 59.7795 168.819 59.7795 168.832C59.7795 168.846 59.7828 168.858 59.789 168.87C59.7948 168.884 59.8039 168.897 59.8154 168.907C59.827 168.917 59.8408 168.924 59.8556 168.928C60.1404 168.959 60.4277 168.959 60.7125 168.928C60.9192 168.921 61.117 168.843 61.272 168.706ZM60.0288 168.795C60.3662 168.542 60.8724 168.195 61.0899 168.257C61.1118 168.264 61.1318 168.276 61.148 168.293C61.1643 168.309 61.1763 168.329 61.1832 168.351C61.2083 168.391 61.2217 168.438 61.2217 168.486C61.2217 168.534 61.2083 168.581 61.1832 168.621C61.05 168.795 60.6326 168.857 60.0465 168.803L60.0288 168.795Z" fill="#5463FF"/>
<path d="M59.8867 168.91C60.1842 168.683 60.5838 167.964 60.4773 167.627C60.4562 167.567 60.4162 167.515 60.3634 167.48C60.3105 167.445 60.2476 167.428 60.1842 167.431C60.1259 167.428 60.0677 167.439 60.0144 167.463C59.9612 167.487 59.9144 167.523 59.8779 167.569C59.5893 167.915 59.7802 168.825 59.7713 168.861C59.7724 168.873 59.7766 168.885 59.7837 168.895C59.7907 168.905 59.8002 168.913 59.8113 168.919H59.8512L59.8867 168.91ZM60.1665 167.578C60.2775 167.578 60.3263 167.631 60.3174 167.671C60.3107 168.058 60.1511 168.427 59.8734 168.697C59.7984 168.35 59.8326 167.989 59.9711 167.662C59.9897 167.638 60.0132 167.619 60.04 167.605C60.0669 167.591 60.0964 167.583 60.1265 167.582L60.1665 167.578Z" fill="#5463FF"/>
<path d="M30.485 158.467L33.6241 159.128L31.3375 166.232L28.2029 165.566L30.485 158.467Z" fill="#F7978D"/>
<path d="M32.19 166.237C32.9226 167.125 34.4411 168.199 36.8298 169.256C37.3626 169.496 37.1273 170.801 35.813 170.526C34.4988 170.25 31.8925 169.589 30.929 169.389C29.3795 169.06 28.7801 169.007 27.5502 168.772C27.4763 168.758 27.4059 168.729 27.3433 168.687C27.2808 168.645 27.2272 168.591 27.1858 168.528C27.1444 168.465 27.1161 168.395 27.1024 168.321C27.0887 168.247 27.09 168.17 27.1062 168.097L27.8654 165.344C27.8811 165.286 27.9186 165.237 27.9699 165.206C28.0213 165.176 28.0825 165.166 28.1407 165.18L31.6661 165.926C31.871 165.967 32.0558 166.076 32.19 166.237Z" fill="black"/>
<path opacity="0.2" d="M29.3084 162.13L32.443 162.792L33.6241 159.133L30.485 158.472L29.3084 162.13Z" fill="black"/>
<path d="M50.4162 92.0049C50.4162 92.0049 53.7551 120.896 54.0082 131.698C54.2435 141.649 54.0792 163.666 54.0792 163.666L59.8512 163.396C59.8512 163.396 62.2532 142.941 62.9592 132.911C63.5897 123.733 61.6272 94.367 61.6272 94.367L50.4162 92.0049Z" fill="black"/>
<path opacity="0.2" d="M51.7881 103.402C52.3032 109.378 53.0047 117.068 53.6441 123.502C54.9761 119.781 55.7753 110.413 54.1946 104.672C53.24 101.178 52.392 101.946 51.7881 103.402Z" fill="black"/>
<path d="M53.1335 162.512L60.5794 161.943L60.2375 164.39L53.9726 164.909L53.1335 162.512Z" fill="#263238"/>
<path d="M43.8805 93.1191C43.8805 93.1191 38.4903 119.71 36.63 130.353C34.9117 140.156 28.194 160.945 28.194 160.945L33.9216 162.157C33.9216 162.157 43.4409 141.124 46.0783 131.414C48.4892 122.534 54.5143 95.3658 54.5143 95.3658L43.8805 93.1191Z" fill="black"/>
<path d="M28.0386 158.995L35.7553 160.274L34.9517 162.378L27.9454 160.895L28.0386 158.995Z" fill="#263238"/>
<path d="M33.3 166.681C33.361 166.639 33.4094 166.581 33.44 166.514C33.4705 166.446 33.482 166.372 33.4732 166.299C33.476 166.251 33.466 166.203 33.4442 166.16C33.4223 166.117 33.3894 166.08 33.3488 166.054C33.0025 165.824 31.9813 166.241 31.8659 166.29C31.8539 166.298 31.8437 166.308 31.8361 166.321C31.8284 166.333 31.8234 166.347 31.8215 166.361C31.8224 166.375 31.8269 166.388 31.8347 166.4C31.8425 166.412 31.8533 166.421 31.8659 166.427C32.1259 166.552 32.3982 166.649 32.6784 166.716C32.8831 166.78 33.1039 166.767 33.3 166.681ZM32.1145 166.356C32.523 166.201 33.1002 166.046 33.2689 166.179C33.2882 166.192 33.3037 166.21 33.3138 166.231C33.3239 166.252 33.3284 166.275 33.3266 166.299C33.3335 166.347 33.3272 166.395 33.3085 166.44C33.2897 166.485 33.2591 166.523 33.2201 166.552C33.0425 166.663 32.6251 166.592 32.0879 166.365L32.1145 166.356Z" fill="#5463FF"/>
<path d="M31.9191 166.432C32.2655 166.307 32.8782 165.757 32.8782 165.397C32.8782 165.333 32.8568 165.271 32.8174 165.22C32.778 165.169 32.7228 165.133 32.6606 165.117C32.6059 165.097 32.5472 165.09 32.4893 165.097C32.4314 165.104 32.376 165.125 32.3276 165.157C31.9458 165.397 31.8303 166.312 31.8215 166.352C31.82 166.364 31.8216 166.376 31.8263 166.386C31.831 166.397 31.8385 166.407 31.8481 166.414H31.8836L31.9191 166.432ZM32.6118 165.264C32.7183 165.304 32.7405 165.357 32.7317 165.402C32.7317 165.637 32.3143 166.068 31.9946 166.241C32.023 165.878 32.1697 165.535 32.412 165.264C32.4374 165.248 32.466 165.237 32.4958 165.232C32.5256 165.228 32.556 165.23 32.5851 165.237L32.6118 165.264Z" fill="#5463FF"/>
<path d="M33.3621 99.0506C34.108 98.3047 34.219 97.4877 34.6941 96.6219C35.0094 96.0314 34.2812 96.2623 35.0094 96.3377C35.2795 96.3973 35.5418 96.4882 35.7908 96.6086C36.4213 96.8528 37.0296 97.1547 37.6689 97.3811C38.215 97.5765 39.1963 97.4877 39.6625 97.7585C40.4173 98.2025 39.6936 100.156 39.5337 100.787C39.3472 101.55 40.515 101.95 40.7014 101.177C40.9767 100.076 41.6782 98.1137 40.8302 97.0792C40.3018 96.4354 39.4982 96.5642 38.7612 96.4221C37.3803 96.1557 35.9684 94.8947 34.521 95.0457C34.3049 95.0538 34.0961 95.1262 33.9214 95.2535C33.7466 95.3808 33.6137 95.5574 33.5397 95.7605C33.3089 96.2667 33.442 96.8306 33.1401 97.3634C32.9814 97.6404 32.7874 97.8956 32.5629 98.1226C32.0035 98.6821 32.8116 99.61 33.3754 99.0506H33.3621Z" fill="#ED6A4A"/>
<g opacity="0.3">
<path d="M33.3621 99.0506C34.108 98.3047 34.219 97.4877 34.6941 96.6219C35.0094 96.0314 34.2812 96.2623 35.0094 96.3377C35.2795 96.3973 35.5418 96.4882 35.7908 96.6086C36.4213 96.8528 37.0296 97.1547 37.6689 97.3811C38.215 97.5765 39.1963 97.4877 39.6625 97.7585C40.4173 98.2025 39.6936 100.156 39.5337 100.787C39.3472 101.55 40.515 101.95 40.7014 101.177C40.9767 100.076 41.6782 98.1137 40.8302 97.0792C40.3018 96.4354 39.4982 96.5642 38.7612 96.4221C37.3803 96.1557 35.9684 94.8947 34.521 95.0457C34.3049 95.0538 34.0961 95.1262 33.9214 95.2535C33.7466 95.3808 33.6137 95.5574 33.5397 95.7605C33.3089 96.2667 33.442 96.8306 33.1401 97.3634C32.9814 97.6404 32.7874 97.8956 32.5629 98.1226C32.0035 98.6821 32.8116 99.61 33.3754 99.0506H33.3621Z" fill="black"/>
</g>
<path d="M24.9683 95.91L47.1667 103.35C47.5284 103.472 47.8272 103.732 47.9972 104.073C48.1673 104.415 48.1947 104.81 48.0735 105.172L44.0915 117.052C43.8823 117.676 43.4338 118.191 42.8445 118.485C42.2553 118.778 41.5736 118.825 40.9495 118.616L20.7423 111.843C20.1182 111.634 19.6027 111.185 19.3093 110.596C19.0159 110.007 18.9686 109.325 19.1778 108.701L23.1598 96.821C23.2803 96.4614 23.5379 96.164 23.8766 95.9934C24.2153 95.8228 24.6076 95.7928 24.9683 95.91Z" fill="#ED6A4A"/>
<path opacity="0.1" d="M24.9683 95.91L47.1667 103.35C47.5284 103.472 47.8272 103.732 47.9972 104.073C48.1673 104.415 48.1947 104.81 48.0735 105.172L44.0915 117.052C43.8823 117.676 43.4338 118.191 42.8445 118.485C42.2553 118.778 41.5736 118.825 40.9495 118.616L20.7423 111.843C20.1182 111.634 19.6027 111.185 19.3093 110.596C19.0159 110.007 18.9686 109.325 19.1778 108.701L23.1598 96.821C23.2803 96.4614 23.5379 96.164 23.8766 95.9934C24.2153 95.8228 24.6076 95.7928 24.9683 95.91Z" fill="white"/>
<path d="M34.8076 105.084L31.3138 115.066L31.7329 115.213L35.2267 105.231L34.8076 105.084Z" fill="#ED6A4A"/>
<g opacity="0.3">
<path d="M34.8076 105.085L31.3138 115.067L31.7329 115.214L35.2267 105.232L34.8076 105.085Z" fill="black"/>
</g>
<path opacity="0.2" d="M46.7842 104.801L24.38 97.2927C24.0456 97.1814 23.6807 97.2073 23.3653 97.3646C23.0499 97.5219 22.8096 97.7978 22.6972 98.1318L22.5418 98.5758C22.2265 99.5185 22.2981 100.548 22.741 101.438C23.1838 102.328 23.9618 103.005 24.9039 103.322L42.7261 109.321C43.1928 109.477 43.6857 109.539 44.1766 109.505C44.6675 109.47 45.1468 109.339 45.5872 109.119C46.0275 108.9 46.4202 108.595 46.7429 108.224C47.0657 107.852 47.312 107.421 47.468 106.954L47.6234 106.51C47.6826 106.343 47.7077 106.166 47.6974 105.988C47.6871 105.811 47.6415 105.638 47.5633 105.479C47.4852 105.32 47.376 105.178 47.2422 105.061C47.1084 104.945 46.9527 104.856 46.7842 104.801Z" fill="black"/>
<path d="M47.2771 103.389L24.864 95.8809C24.6981 95.8252 24.5229 95.8027 24.3483 95.8147C24.1737 95.8267 24.0032 95.873 23.8465 95.9509C23.6898 96.0288 23.55 96.1369 23.4351 96.2688C23.3202 96.4008 23.2324 96.5542 23.1768 96.7201L23.0214 97.1641C22.706 98.1067 22.7777 99.136 23.2205 100.026C23.6634 100.916 24.4413 101.594 25.3835 101.91L43.219 107.9C44.1604 108.212 45.1874 108.139 46.0746 107.695C46.9618 107.251 47.6369 106.474 47.952 105.533L48.1074 105.089C48.1654 104.923 48.1899 104.747 48.1795 104.572C48.169 104.396 48.1239 104.224 48.0467 104.066C47.9695 103.908 47.8618 103.767 47.7297 103.651C47.5976 103.534 47.4438 103.445 47.2771 103.389Z" fill="#407BFF"/>
<path d="M47.2771 103.389L24.864 95.8809C24.6981 95.8252 24.5229 95.8027 24.3483 95.8147C24.1737 95.8267 24.0032 95.873 23.8465 95.9509C23.6898 96.0288 23.55 96.1369 23.4351 96.2688C23.3202 96.4008 23.2324 96.5542 23.1768 96.7201L23.0214 97.1641C22.706 98.1067 22.7777 99.136 23.2205 100.026C23.6634 100.916 24.4413 101.594 25.3835 101.91L43.219 107.9C44.1604 108.212 45.1874 108.139 46.0746 107.695C46.9618 107.251 47.6369 106.474 47.952 105.533L48.1074 105.089C48.1654 104.923 48.1899 104.747 48.1795 104.572C48.169 104.396 48.1239 104.224 48.0467 104.066C47.9695 103.908 47.8618 103.767 47.7297 103.651C47.5976 103.534 47.4438 103.445 47.2771 103.389Z" fill="#ED6A4A"/>
<path opacity="0.5" d="M47.2771 103.389L24.864 95.8809C24.6981 95.8252 24.5229 95.8027 24.3483 95.8147C24.1737 95.8267 24.0032 95.873 23.8465 95.9509C23.6898 96.0288 23.55 96.1369 23.4351 96.2688C23.3202 96.4008 23.2324 96.5542 23.1768 96.7201L23.0214 97.1641C22.706 98.1067 22.7777 99.136 23.2205 100.026C23.6634 100.916 24.4413 101.594 25.3835 101.91L43.219 107.9C44.1604 108.212 45.1874 108.139 46.0746 107.695C46.9618 107.251 47.6369 106.474 47.952 105.533L48.1074 105.089C48.1654 104.923 48.1899 104.747 48.1795 104.572C48.169 104.396 48.1239 104.224 48.0467 104.066C47.9695 103.908 47.8618 103.767 47.7297 103.651C47.5976 103.534 47.4438 103.445 47.2771 103.389Z" fill="black"/>
<path d="M29.3829 100.893L28.6419 100.645C28.1885 100.493 27.6979 100.738 27.546 101.191L26.4177 104.559C26.2658 105.013 26.5103 105.503 26.9637 105.655L27.7047 105.903C28.1581 106.055 28.6487 105.811 28.8006 105.357L29.9289 101.989C30.0808 101.536 29.8363 101.045 29.3829 100.893Z" fill="#407BFF"/>
<path d="M41.4516 104.935L40.7105 104.687C40.2571 104.535 39.7665 104.78 39.6147 105.233L38.487 108.601C38.3352 109.055 38.5797 109.545 39.0332 109.697L39.7742 109.945C40.2276 110.097 40.7182 109.853 40.87 109.399L41.9977 106.031C42.1495 105.578 41.905 105.087 41.4516 104.935Z" fill="#407BFF"/>
<path d="M29.3829 100.893L28.6419 100.645C28.1885 100.493 27.6979 100.738 27.546 101.191L26.4177 104.559C26.2658 105.013 26.5103 105.503 26.9637 105.655L27.7047 105.903C28.1581 106.055 28.6487 105.811 28.8006 105.357L29.9289 101.989C30.0808 101.536 29.8363 101.045 29.3829 100.893Z" fill="white"/>
<path d="M41.4516 104.935L40.7105 104.687C40.2571 104.535 39.7665 104.78 39.6147 105.233L38.487 108.601C38.3352 109.055 38.5797 109.545 39.0332 109.697L39.7742 109.945C40.2276 110.097 40.7182 109.853 40.87 109.399L41.9977 106.031C42.1495 105.578 41.905 105.087 41.4516 104.935Z" fill="white"/>
<path d="M65.6498 70.3819C65.8496 70.7771 66.0938 71.2477 66.3336 71.6784C66.5733 72.1091 66.822 72.5664 67.075 73.0104C67.5856 73.8762 68.1051 74.7287 68.6557 75.5367C69.1882 76.321 69.7633 77.0754 70.3784 77.7967C70.8769 78.4036 71.4654 78.9307 72.1233 79.3596L72.2121 79.4129H72.2521H72.3631C72.6102 79.4084 72.8537 79.3525 73.0779 79.2486C73.8392 78.8846 74.5437 78.412 75.1692 77.8455C75.9129 77.2143 76.613 76.5334 77.2648 75.8076C77.6023 75.4346 77.9397 75.0661 78.2638 74.6798C78.588 74.2935 78.921 73.8851 79.2096 73.5299L79.2628 73.4588C79.5236 73.0925 79.917 72.8423 80.3593 72.7614C80.8016 72.6806 81.258 72.7754 81.6316 73.0257C82.0051 73.2761 82.2662 73.6623 82.3595 74.1021C82.4528 74.542 82.3708 75.0009 82.1311 75.3813C81.0317 77.3909 79.6897 79.2579 78.1351 80.9402C77.2562 81.8819 76.2416 82.687 75.1248 83.3289C74.409 83.7285 73.6241 83.9892 72.8115 84.0971C72.3193 84.1578 71.8207 84.1428 71.333 84.0527C71.0775 84.0081 70.8265 83.9412 70.5826 83.8529C70.4611 83.8179 70.3435 83.7703 70.2319 83.7108L69.9655 83.5909C68.7693 82.9687 67.6846 82.1525 66.7554 81.1755C65.9262 80.3448 65.159 79.4544 64.4599 78.5115C63.7761 77.5925 63.1279 76.6601 62.5507 75.701C62.2399 75.2259 61.9646 74.7597 61.6893 74.258C61.414 73.7563 61.1521 73.299 60.8724 72.744C60.7135 72.4306 60.6179 72.0889 60.591 71.7386C60.5642 71.3883 60.6066 71.036 60.7158 70.7021C60.8251 70.3681 60.999 70.059 61.2278 69.7922C61.4565 69.5255 61.7356 69.3065 62.049 69.1476C62.3624 68.9887 62.704 68.8931 63.0543 68.8662C63.4047 68.8394 63.7569 68.8818 64.0908 68.991C64.4248 69.1003 64.734 69.2743 65.0007 69.503C65.2674 69.7317 65.4865 70.0108 65.6454 70.3242L65.6498 70.3819Z" fill="#00388E"/>
<path d="M80.6881 74.8754L83.2056 75.79L83.0324 72.8507C83.0324 72.8507 80.4128 71.9228 80.0665 73.2947V73.9385C80.0603 74.1398 80.1168 74.3381 80.2282 74.5059C80.3395 74.6737 80.5002 74.8028 80.6881 74.8754Z" fill="#F7978D"/>
<path d="M85.7941 75.0921L86.3269 72.5791L83.0324 72.8455L83.2056 75.7892L85.7941 75.0921Z" fill="#F7978D"/>
<path opacity="0.3" d="M66.3957 80.6822C66.1027 80.3403 65.8185 80.0029 65.5433 79.661C64.6852 78.56 63.9105 77.3964 63.2256 76.1801C62.55 74.9975 61.9422 73.7775 61.4052 72.5259C61.3297 72.3483 61.2587 72.1707 61.1876 71.9931C62.5196 71.1895 65.3967 71.5847 66.3247 75.3187C66.6967 77.0849 66.7208 78.9067 66.3957 80.6822Z" fill="black"/>
<path d="M60.6282 96.6617L43.8805 93.1097C44.0759 91.5867 45.4434 86.7871 46.509 80.5311C47.1758 76.2155 47.5599 71.861 47.6589 67.4953C47.6589 67.4953 47.6589 67.4687 47.6589 67.4553C47.6737 67.1864 47.7413 66.923 47.8581 66.6803C47.9748 66.4375 48.1383 66.2202 48.3392 66.0408C48.54 65.8614 48.7744 65.7234 49.0287 65.6347C49.283 65.546 49.5523 65.5083 49.8212 65.5239H49.8567C50.9001 65.5861 52.2011 65.706 53.4576 65.9058C55.8593 66.2753 58.2385 66.7792 60.5838 67.4154C61.3567 67.6629 62.113 67.9596 62.8482 68.3034C63.3641 68.5251 63.8104 68.8824 64.1395 69.3374C64.4686 69.7924 64.6684 70.328 64.7174 70.8875C65.0149 74.5815 64.8728 81.7433 60.6282 96.6617Z" fill="white"/>
<path d="M58.5148 69.8484L58.0352 70.8075C58.0077 70.8837 57.9577 70.9499 57.892 70.9974C57.8263 71.045 57.7478 71.0716 57.6667 71.0739L56.832 71.0028C56.7121 71.0028 56.6144 70.8963 56.57 70.7409L56.2326 69.5909L57.4758 68.8184L58.5148 69.8484Z" fill="#C12358"/>
<path d="M53.28 65.6267C51.948 65.4135 50.5849 65.2937 49.4838 65.2226H49.4483H49.3861C48.816 65.2058 48.2624 65.4155 47.8464 65.8057C47.4304 66.1959 47.1858 66.7349 47.1661 67.305C47.061 71.9142 46.6576 76.5118 45.9584 81.069C44.3289 92.7417 42.7172 95.0639 42.7172 95.0639L50.172 96.4447C52.4319 85.842 54.168 71.3587 53.9904 65.7243L53.28 65.6267Z" fill="#00388E"/>
<path opacity="0.3" d="M46.2071 79.4263C46.7488 75.6568 46.9841 71.7673 47.0951 68.9257C47.1304 68.8883 47.1691 68.8541 47.2105 68.8236C48.1474 68.0244 50.4873 69.9381 49.8479 73.5211C49.2574 76.9089 47.6013 78.969 46.2071 79.4263Z" fill="black"/>
<path d="M61.8892 99.1082L57.3781 97.9005C60.2108 78.0315 60.8724 72.7523 60.233 67.1846C61.3505 67.4784 62.4517 67.8311 63.532 68.2413C64.0968 68.5151 64.581 68.9306 64.9374 69.4473C65.2938 69.964 65.5102 70.5642 65.5655 71.1894C65.9473 74.2886 63.5852 82.2362 61.8892 99.1082Z" fill="#00388E"/>
<path d="M56.6899 90.8984C56.803 90.8433 56.9258 90.811 57.0514 90.8035C57.177 90.7959 57.3028 90.8133 57.4216 90.8546C57.5404 90.8958 57.6499 90.9602 57.7438 91.0439C57.8377 91.1276 57.9141 91.2291 57.9687 91.3424C58.055 91.5117 58.0892 91.7027 58.0668 91.8914C58.0444 92.0801 57.9664 92.2579 57.8428 92.4022C57.7192 92.5465 57.5555 92.6509 57.3725 92.702C57.1895 92.7532 56.9955 92.7488 56.8149 92.6895C56.6344 92.6301 56.4756 92.5185 56.3586 92.3687C56.2417 92.219 56.1718 92.0379 56.158 91.8484C56.1441 91.6589 56.1868 91.4695 56.2807 91.3043C56.3747 91.1391 56.5155 91.0056 56.6855 90.9206L56.6899 90.8984Z" fill="#263238"/>
<path d="M56.1261 92.2703C56.0592 92.14 56.0187 91.9978 56.0069 91.8519C55.995 91.7059 56.0121 91.5591 56.057 91.4197C56.102 91.2803 56.1739 91.1512 56.2688 91.0396C56.3637 90.9281 56.4797 90.8363 56.61 90.7696C56.7404 90.702 56.8831 90.6613 57.0295 90.6498C57.1759 90.6384 57.3232 90.6565 57.4625 90.703C57.6373 90.7588 57.7957 90.857 57.9235 90.9887C58.0513 91.1204 58.1446 91.2816 58.1951 91.4581C58.2456 91.6345 58.2517 91.8207 58.2129 92.0001C58.1742 92.1795 58.0917 92.3465 57.9728 92.4864C57.854 92.6262 57.7024 92.7346 57.5316 92.8018C57.3609 92.8689 57.1761 92.8929 56.9938 92.8715C56.8116 92.8502 56.6374 92.7841 56.4868 92.6792C56.3362 92.5743 56.2138 92.4339 56.1305 92.2703H56.1261Z" fill="white"/>
<path d="M57.5912 68.8409C54.017 68.2859 53.1823 65.9016 53.1823 65.9016C55.0604 64.6806 55.349 60.3694 55.3091 57.9629L56.8764 59.9476L59.0165 62.6515C58.8701 62.9835 58.7411 63.3229 58.6302 63.6683C58.1862 65.0447 58.2883 66.4078 60.2552 67.3357C60.2552 67.3357 60.6371 69.3027 57.5912 68.8409Z" fill="#F7978D"/>
<path d="M52.5163 65.4802L53.6885 65.3115C54.6241 66.7408 55.8798 67.9326 57.3559 68.7925C56.575 69.1059 55.9055 69.6455 55.4334 70.342C51.948 68.273 52.5163 65.4802 52.5163 65.4802Z" fill="white"/>
<path d="M60.2819 67.1403L59.314 66.6963C59.314 66.6963 58.4571 68.7209 57.3515 68.7964C59.0254 69.8886 59.1275 70.8521 59.1275 70.8521C61.9336 70.568 60.2819 67.1403 60.2819 67.1403Z" fill="white"/>
<path opacity="0.2" d="M58.7456 63.3438L56.6943 60.7686C56.6026 61.0931 56.5461 61.4265 56.5256 61.7631C56.459 62.7843 57.5202 64.0764 58.4437 64.4848L58.7456 63.3438Z" fill="black"/>
<path d="M60.9967 58.6421C60.9967 58.6421 61.1077 60.2405 62.7727 59.6278C62.8437 57.9273 63.4032 58.0561 63.9804 57.0571C64.3552 56.506 64.5737 55.8637 64.6128 55.1985C64.6519 54.5332 64.5101 53.8698 64.2024 53.2786L63.1412 52.7414C59.0031 51.4582 60.9967 58.6421 60.9967 58.6421Z" fill="#263238"/>
<path opacity="0.6" d="M60.9967 58.6421C60.9967 58.6421 61.1077 60.2405 62.7727 59.6278C62.8437 57.9273 63.4032 58.0561 63.9804 57.0571C64.3552 56.506 64.5737 55.8637 64.6128 55.1985C64.6519 54.5332 64.5101 53.8698 64.2024 53.2786L63.1412 52.7414C59.0031 51.4582 60.9967 58.6421 60.9967 58.6421Z" fill="white"/>
<path d="M56.6721 52.1773C57.4129 51.3473 58.453 50.8455 59.5638 50.7822C60.6745 50.7189 61.7648 51.0993 62.5951 51.8398C65.1747 54.0287 64.269 58.6907 62.8171 61.2171C62.4513 61.8775 61.9122 62.4255 61.2579 62.802C60.6036 63.1786 59.8589 63.3693 59.1041 63.3538C58.3494 63.3383 57.6132 63.117 56.9749 62.7139C56.3366 62.3107 55.8205 61.741 55.4822 61.0661C54.4122 58.9971 54.9805 57.2166 55.6953 54.1086C55.847 53.3907 56.1837 52.7249 56.6721 52.1773Z" fill="#F7978D"/>
<path d="M55.1892 56.9286C55.1892 56.9286 55.6066 58.3094 57.1162 57.5724C56.8542 56.0805 57.4225 56.1205 57.7955 55.1748C58.0524 54.6291 58.1411 54.0193 58.0501 53.4231C57.9592 52.8269 57.6928 52.2712 57.2849 51.827L56.1438 51.494C50.7181 50.9834 55.1892 56.9286 55.1892 56.9286Z" fill="#263238"/>
<path opacity="0.6" d="M55.1892 56.9286C55.1892 56.9286 55.6066 58.3094 57.1162 57.5724C56.8542 56.0805 57.4225 56.1205 57.7955 55.1748C58.0524 54.6291 58.1411 54.0193 58.0501 53.4231C57.9592 52.8269 57.6928 52.2712 57.2849 51.827L56.1438 51.494C50.7181 50.9834 55.1892 56.9286 55.1892 56.9286Z" fill="white"/>
<path d="M60.5749 48.4081C60.2952 48.3059 59.9933 48.2796 59.7001 48.3318C59.4069 48.3841 59.1327 48.513 58.9055 48.7055C58.608 48.9631 58.3194 49.3582 57.9331 49.2827C57.744 49.2146 57.5715 49.1072 57.427 48.9675C56.8054 48.5235 55.8996 48.7144 55.2958 49.1851C54.7294 49.7012 54.2602 50.3148 53.9105 50.9966C53.5609 51.6834 53.0275 52.2598 52.3698 52.6616C52.9859 52.9558 53.6571 53.1166 54.3396 53.1334C55.0221 53.1502 55.7005 53.0227 56.3303 52.7593C55.9761 53.1966 55.4903 53.508 54.945 53.6473C56.1986 54.0057 57.5397 53.8968 58.719 53.3409C59.3806 53.0257 59.9933 52.5683 60.717 52.4529C61.4407 52.3375 62.3287 52.7193 62.3953 53.4475C62.4351 53.3581 62.4928 53.2779 62.5648 53.2118C62.6369 53.1456 62.7217 53.095 62.8141 53.0629C62.9065 53.0309 63.0045 53.0181 63.102 53.0255C63.1995 53.0328 63.2945 53.0601 63.381 53.1056C63.7231 53.3158 63.9927 53.6257 64.1536 53.9936C64.3128 54.359 64.5655 54.676 64.8862 54.9127C65.0501 55.0238 65.2513 55.0656 65.4459 55.029C65.6405 54.9924 65.8128 54.8804 65.9251 54.7173C65.6607 54.6959 65.4126 54.5808 65.2254 54.3928C65.0382 54.2048 64.9242 53.9562 64.9039 53.6917C65.2939 53.9095 65.7481 53.9834 66.1871 53.9003C65.6099 53.8648 64.4777 51.8002 64.3045 51.2363C64.1621 50.6699 63.8396 50.165 63.3855 49.7978C62.8438 49.4248 62.2977 50.0731 61.7871 49.7978C61.2765 49.5225 61.1521 48.6256 60.5749 48.4081Z" fill="#3C3744"/>
<path d="M55.3668 54.7887C56.1216 55.0417 56.4191 56.3071 56.3835 57.0975C56.3436 57.9855 55.7619 58.5316 55.1093 57.9855C54.6066 57.5177 54.2817 56.89 54.1902 56.2095C54.0747 55.3215 54.612 54.5311 55.3668 54.7887Z" fill="#F7978D"/>
<path d="M35.853 93.736L35.2758 93.6738C33.9172 94.3265 35.3912 96.8396 35.3912 96.8396L39.3872 96.3511L38.2284 95.0191C37.6266 94.3074 36.7782 93.8491 35.853 93.736Z" fill="#F7978D"/>
<path d="M39.516 98.0738L39.3828 96.3467L35.3868 96.8351L35.6088 98.8819C35.6067 98.9115 35.6067 98.9412 35.6088 98.9707C35.628 99.0488 35.6624 99.1222 35.7102 99.1868C35.7579 99.2515 35.818 99.306 35.887 99.3473C35.9559 99.3886 36.0323 99.4158 36.1119 99.4274C36.1914 99.4389 36.2724 99.4346 36.3503 99.4147L39.072 98.6999C39.2067 98.6624 39.3243 98.5797 39.4052 98.4657C39.486 98.3517 39.5252 98.2133 39.516 98.0738Z" fill="#F7978D"/>
<path d="M59.1319 86.4941C59.1319 86.4941 57.7422 89.8374 57.1295 89.3757C56.5168 88.9139 55.1049 86.3565 55.1004 86.3032C55.096 86.2499 56.832 71.0029 56.832 71.0029L57.6623 71.074C57.3248 72.7834 59.1319 86.4941 59.1319 86.4941Z" fill="#C12358"/>
<path d="M36.2482 78.2409C34.5876 80.603 34.188 91.7474 34.632 94.6112C34.9832 94.2177 35.4651 93.965 35.9884 93.8996C36.5117 93.8343 37.0409 93.9609 37.478 94.256C37.518 92.2935 39.1075 85.2827 39.7913 82.3568C39.9874 81.534 40.4708 80.8082 41.1544 80.3099C44.0848 78.1876 49.3906 73.9874 49.9766 72.3179C50.9224 69.6539 50.1098 64.1927 47.7566 65.8711C45.5278 67.4739 37.5668 76.3361 36.2482 78.2409Z" fill="#00388E"/>
<path d="M169.097 22.0518C168.78 21.9776 168.47 21.8766 168.169 21.7499C167.61 21.5323 166.895 21.1638 166.145 20.8042C165.523 20.4955 164.853 20.2944 164.165 20.2092C163.636 20.1515 163.277 20.2092 163.228 20.0716C163.179 19.9339 163.49 19.6764 164.116 19.5565C164.943 19.4444 165.784 19.5885 166.527 19.9695C167.222 20.3323 167.856 20.8029 168.405 21.3636C168.84 21.7765 169.097 22.0518 169.097 22.0518Z" fill="#407BFF"/>
<path d="M172.356 19.4271L171.686 19.6891C171.286 19.8534 170.798 20.0843 170.221 20.3285C169.097 20.8257 168.138 21.3408 168.001 21.1143C167.93 21.0122 168.076 20.7591 168.4 20.4483C168.831 20.041 169.33 19.7133 169.874 19.4804C170.433 19.2384 171.047 19.1525 171.65 19.2318C171.833 19.256 172.014 19.2991 172.188 19.3605L172.356 19.4271Z" fill="#407BFF"/>
<path d="M163.05 24.0093L162.868 23.8983C162.753 23.8228 162.579 23.7252 162.371 23.6142C161.844 23.3302 161.295 23.0911 160.728 22.8993C159.423 22.4287 158.255 22.5352 158.219 22.3354C158.219 22.2466 158.486 22.0957 158.992 22.0246C159.654 21.9475 160.325 22.0219 160.954 22.2422C161.584 22.4638 162.147 22.8429 162.588 23.3433C162.722 23.491 162.841 23.6516 162.944 23.8228L163.05 24.0093Z" fill="#407BFF"/>
<path d="M164.333 21.3099L163.863 21.5808L162.819 22.1624C162.033 22.6064 161.425 23.0992 161.274 22.966C161.208 22.8994 161.274 22.6908 161.474 22.4199C161.745 22.0559 162.09 21.7532 162.486 21.5319C162.885 21.3201 163.331 21.2132 163.783 21.2211C163.969 21.2275 164.154 21.2573 164.333 21.3099Z" fill="#407BFF"/>
<path d="M161.967 19.7741C161.967 19.7741 161.523 19.6187 160.848 19.3301C160.173 19.0415 159.263 18.6419 158.264 18.3133C157.422 18.0296 156.535 17.9061 155.649 17.9492C154.965 17.9892 154.53 18.1224 154.468 17.9981C154.405 17.8737 154.765 17.5541 155.529 17.3099C156.527 17.0516 157.579 17.0949 158.552 17.4342C159.489 17.765 160.352 18.2764 161.092 18.9393C161.399 19.2008 161.691 19.4795 161.967 19.7741Z" fill="#407BFF"/>
<path d="M164.968 15.9597L164.72 16.0308C164.555 16.0707 164.329 16.1418 164.058 16.2261C163.377 16.4512 162.71 16.7151 162.06 17.0164C160.542 17.6958 159.565 18.7036 159.356 18.5438C159.258 18.4683 159.383 18.0998 159.769 17.6203C160.288 17.0027 160.939 16.5096 161.674 16.1773C162.408 15.8458 163.215 15.7052 164.018 15.7688C164.258 15.7858 164.496 15.8259 164.728 15.8887L164.968 15.9597Z" fill="#407BFF"/>
<path d="M62.1289 33.267C61.8123 33.1903 61.5021 33.0893 61.201 32.9651C60.6415 32.7476 59.9222 32.379 59.1763 32.015C58.5523 31.7082 57.8816 31.5071 57.1916 31.42C56.6633 31.3623 56.3036 31.42 56.2548 31.2824C56.206 31.1447 56.5168 30.8872 57.1428 30.7718C57.9698 30.657 58.8121 30.8012 59.5537 31.1847C60.2507 31.5435 60.8849 32.0128 61.4318 32.5744C61.8714 32.9873 62.1289 33.267 62.1289 33.267Z" fill="#407BFF"/>
<path d="M65.3879 30.6427L64.713 30.9047C64.3134 31.0645 63.825 31.2954 63.2478 31.544C62.1245 32.0369 61.1699 32.5519 61.0278 32.3299C60.9523 32.2233 61.1033 31.9747 61.423 31.6595C61.854 31.2531 62.3529 30.9255 62.8971 30.6915C63.4566 30.4527 64.0695 30.3669 64.6731 30.4429C64.8544 30.4685 65.0328 30.5116 65.2059 30.5717C65.2678 30.592 65.3285 30.6157 65.3879 30.6427Z" fill="#407BFF"/>
<path d="M56.0816 35.2202L55.8951 35.1092C55.7797 35.0337 55.611 34.936 55.4023 34.825C54.8749 34.5427 54.3255 34.3036 53.7595 34.1102C52.4541 33.6662 51.282 33.7461 51.2465 33.5463C51.2465 33.4575 51.5173 33.3065 52.019 33.2355C52.683 33.158 53.3559 33.234 53.9859 33.4575C54.6155 33.6771 55.1781 34.0547 55.6199 34.5542C55.7527 34.7017 55.8703 34.8624 55.9706 35.0337L56.0816 35.2202Z" fill="#407BFF"/>
<path d="M57.3603 32.5073L56.8941 32.7781L55.8507 33.3953C55.0604 33.8393 54.4566 34.3322 54.3056 34.1945C54.2346 34.1324 54.3056 33.9237 54.5054 33.6484C54.778 33.2928 55.1231 32.9992 55.5177 32.787C55.9144 32.5733 56.3592 32.4648 56.8098 32.4718C56.994 32.4607 57.179 32.4726 57.3603 32.5073Z" fill="#407BFF"/>
</svg>
