<svg width="54" height="55" viewBox="0 0 54 55" fill="none" xmlns="http://www.w3.org/2000/svg">
<path fill-rule="evenodd" clip-rule="evenodd" d="M0 13C0 5.8203 5.8203 0 13 0H54V55H13C5.8203 55 0 49.1797 0 42V13Z" fill="#FF4141"/>
<path fill-rule="evenodd" clip-rule="evenodd" d="M34.5278 21H30.6389V20C30.6389 18.3431 29.3331 17 27.7222 17H25.7778C24.1669 17 22.8611 18.3431 22.8611 20V21H18.9722C18.4353 21 18 21.4477 18 22C18 22.5523 18.4353 23 18.9722 23H19.9444V34C19.9444 35.6569 21.2503 37 22.8611 37H30.6389C32.2497 37 33.5556 35.6569 33.5556 34V23H34.5278C35.0647 23 35.5 22.5523 35.5 22C35.5 21.4477 35.0647 21 34.5278 21ZM24.8054 20C24.8054 19.4477 25.2407 19 25.7776 19H27.7221C28.259 19 28.6943 19.4477 28.6943 20V21H24.8054V20ZM30.6389 35C31.1758 35 31.6111 34.5523 31.6111 34V23H21.8889V34C21.8889 34.5523 22.3241 35 22.8611 35H30.6389Z" fill="white"/>
</svg>
