<svg width="20" height="14" viewBox="0 0 20 14" fill="none" xmlns="http://www.w3.org/2000/svg">
<path d="M16.8438 3.5H14.7812C14.9062 3.21875 15 2.875 15 2.5C15 1.15625 13.875 0 12.5 0C11.4688 0 10.7812 0.5 10 1.46875C9.1875 0.5 8.5 0 7.46875 0C6.09375 0 5 1.15625 5 2.5C5 2.875 5.0625 3.21875 5.1875 3.5H3C1.3125 3.5 0 5.03125 0 7.5C0 10 1.3125 12 3 12L8 10.9375V13.5C8 13.5938 8 13.6875 8.0625 13.75C8.0625 13.7812 8.09375 13.7812 8.09375 13.8125C8.125 13.875 8.1875 13.9062 8.21875 13.9375C8.25 13.9375 8.25 13.9688 8.28125 13.9688C8.34375 14 8.40625 14 8.5 14C8.53125 14 8.53125 14 8.53125 14C8.625 14 8.71875 13.9688 8.78125 13.9062L10 13L11.1875 13.875C11.25 13.9375 11.3438 13.9688 11.4375 13.9688C11.4375 13.9688 11.4375 13.9688 11.4688 13.9688C11.4688 14 11.4688 14 11.4688 14C11.5625 14 11.625 14 11.6875 13.9688C11.7188 13.9688 11.7188 13.9375 11.75 13.9375C11.7812 13.9062 11.8438 13.875 11.875 13.8125C11.875 13.7812 11.9062 13.7812 11.9062 13.75C11.9688 13.6875 12 13.5938 12 13.5V10.9375L16.8438 12C18.5625 12 20 10 20 7.5C20 5.03125 18.5625 3.5 16.8438 3.5ZM12.5 1.53125C13.0312 1.53125 13.5 1.96875 13.5 2.5C13.5 3.0625 13.0312 3.5 12.5 3.5H10.375C11.6562 1.625 12 1.53125 12.5 1.53125ZM7.46875 1.53125C7.96875 1.53125 8.3125 1.625 9.59375 3.5H7.46875C6.9375 3.5 6.5 3.0625 6.5 2.5C6.5 1.96875 6.9375 1.53125 7.46875 1.53125ZM7.65625 9.46875L2.875 10.5C2.28125 10.375 1.5 9.25 1.5 7.5C1.5 6.03125 2.09375 5 3 5H7.5H8V9.40625L7.65625 9.46875ZM16.9688 10.5L12 9.40625V5H12.4688H16.8438C17.8125 5 18.5 6.03125 18.5 7.5C18.5 9.15625 17.6875 10.375 16.9688 10.5Z" fill="#5463FF"/>
</svg>
