<svg width="10" height="16" viewBox="0 0 10 16" fill="none" xmlns="http://www.w3.org/2000/svg">
<path d="M9.4375 11.1875C9.125 12.6875 7.75 13.5938 5.75 13.75V15.25C5.75 15.6875 5.40625 16 5 16C4.5625 16 4.25 15.6875 4.25 15.25V13.6875C4.125 13.6875 4.03125 13.6875 3.9375 13.6875C3.09375 13.5625 2.1875 13.2812 1.375 13L1 12.9062C0.625 12.7812 0.40625 12.3438 0.53125 11.9688C0.65625 11.5625 1.0625 11.3438 1.46875 11.4688L1.84375 11.5938C2.5625 11.8125 3.40625 12.0938 4.125 12.1875C5.875 12.4375 7.71875 12.125 7.9375 10.9062C8.15625 9.78125 7.34375 9.375 4.8125 8.75L4.28125 8.625C2.8125 8.21875 0.03125 7.5 0.53125 4.84375C0.84375 3.34375 2.21875 2.4375 4.25 2.28125V0.75C4.25 0.34375 4.5625 0 4.96875 0C5.40625 0 5.75 0.34375 5.75 0.75V2.34375C5.84375 2.34375 5.9375 2.34375 6.03125 2.34375C6.59375 2.4375 7.21875 2.59375 8.03125 2.84375C8.40625 2.9375 8.625 3.375 8.5 3.78125C8.40625 4.15625 7.96875 4.375 7.5625 4.25C6.84375 4.03125 6.3125 3.90625 5.84375 3.84375C4.125 3.59375 2.25 3.90625 2.03125 5.125C1.8125 6.09375 2.4375 6.5625 4.6875 7.15625L5.15625 7.28125C7.1875 7.8125 9.9375 8.5 9.4375 11.1875Z" fill="#5463FF"/>
</svg>
