<svg width="24" height="24" viewBox="0 0 24 24" fill="none" xmlns="http://www.w3.org/2000/svg">
<circle cx="12" cy="12" r="12" fill="#03045E"/>
<path d="M17.5586 12.8711L12.9648 17.6836C12.8281 17.8203 12.6641 17.875 12.5 17.875C12.3086 17.875 12.1445 17.8203 12.0078 17.6836L7.41406 12.8711C7.16797 12.5977 7.16797 12.1875 7.44141 11.9414C7.6875 11.6953 8.125 11.6953 8.37109 11.9688L11.8438 15.6055V6.30859C11.8438 5.92578 12.1172 5.65234 12.4727 5.65234C12.8008 5.65234 13.1562 5.92578 13.1562 6.30859V15.6055L16.6016 11.9688C16.8477 11.6953 17.2852 11.6953 17.5312 11.9414C17.8047 12.1875 17.8047 12.5977 17.5586 12.8711Z" fill="white"/>
</svg>
