<svg width="25" height="24" viewBox="0 0 25 24" fill="none" xmlns="http://www.w3.org/2000/svg">
<path d="M23.2031 2.34375L21.6562 0.796875C21.1406 0.28125 20.4844 0 19.8281 0C19.125 0 18.4688 0.28125 17.9531 0.796875L7.82812 10.9219C7.45312 11.25 7.21875 11.7188 7.125 12.1875L6 17.25C5.90625 17.6719 6.23438 18 6.60938 18C6.65625 18 6.65625 18 6.70312 18C6.70312 18 10.1719 17.2969 11.7656 16.9219C12.2344 16.7812 12.6562 16.5469 12.9844 16.2188L23.1562 6.04688C24.2344 5.01562 24.2344 3.375 23.2031 2.34375ZM21.6094 4.45312L11.4375 14.625C11.3906 14.6719 11.3438 14.7188 11.2969 14.7188C10.6406 14.8594 9.65625 15.0938 8.71875 15.2812L9.32812 12.7031C9.32812 12.6094 9.375 12.5625 9.42188 12.5156L19.5469 2.39062C19.6406 2.29688 19.7344 2.25 19.8281 2.25C19.875 2.25 19.9688 2.29688 20.0625 2.39062L21.6094 3.9375C21.75 4.07812 21.75 4.3125 21.6094 4.45312ZM19.875 13.5C19.2188 13.5 18.75 14.0156 18.75 14.625V20.625C18.75 21.2812 18.2344 21.75 17.625 21.75H3.375C2.71875 21.75 2.25 21.2812 2.25 20.625V6.375C2.25 5.76562 2.71875 5.25 3.375 5.25H10.125C10.7344 5.25 11.25 4.78125 11.25 4.125C11.25 3.51562 10.7344 3 10.125 3H3.32812C1.5 3 0 4.54688 0 6.375V20.625C0 22.5 1.5 24 3.32812 24H17.5312C19.3594 24 20.8594 22.5 20.8594 20.625L21 14.625C21 14.0156 20.4844 13.5 19.875 13.5Z" fill="white"/>
</svg>
