<svg width="26" height="26" viewBox="0 0 26 26" fill="none" xmlns="http://www.w3.org/2000/svg">
<circle cx="13" cy="13" r="12" fill="#5463FF" stroke="white"/>
<path fill-rule="evenodd" clip-rule="evenodd" d="M14.8043 10.854L11.0335 14.3939C10.8602 14.5564 10.578 14.5564 10.4047 14.3939C10.2314 14.2314 10.2314 13.9668 10.4047 13.8043L14.1755 10.2644C14.3488 10.1018 14.631 10.1018 14.8043 10.2644C14.891 10.3456 14.9355 10.4519 14.9355 10.5581C14.9355 10.6665 14.891 10.7727 14.8043 10.854ZM16.2193 10.4123L15.275 9.52884C14.8417 9.12255 14.1373 9.12255 13.704 9.52884L9.65538 13.3313C9.52872 13.448 9.43539 13.5938 9.37984 13.7542L8.56657 16.1837C8.45769 16.5045 8.77989 16.8066 9.12208 16.7066L11.7174 15.942C11.8863 15.892 12.0419 15.8044 12.1685 15.6857L16.2193 11.8832C16.6526 11.4769 16.6526 10.8185 16.2193 10.4123Z" fill="white"/>
</svg>
