<svg width="272" height="272" viewBox="0 0 272 272" fill="none" xmlns="http://www.w3.org/2000/svg">
<path d="M51.1266 152.614L14.1135 159.541L19.6513 189.132L56.6644 182.205L51.1266 152.614Z" fill="#F5F5F5"/>
<path d="M51.1361 152.624L50.9565 152.667L50.4125 152.77L48.4052 153.162L40.8273 154.615L14.1441 159.674L14.2474 159.521C15.8794 168.329 17.7943 178.425 19.8017 189.11L19.633 188.99L56.625 182.092L56.5325 182.233C54.9005 173.323 53.5297 165.941 52.5777 160.767C52.1098 158.183 51.7399 156.154 51.4897 154.783C51.3645 154.092 51.2721 153.565 51.2068 153.195C51.1415 152.825 51.1143 152.651 51.1143 152.651C51.1143 152.651 51.1578 152.825 51.2231 153.195L51.5332 154.756C51.7997 156.143 52.186 158.161 52.681 160.74C53.6656 165.924 55.0692 173.328 56.7665 182.261L56.7937 182.375L56.674 182.402L19.6602 189.311L19.5188 189.338L19.4916 189.191C17.5005 178.507 15.6129 168.41 13.97 159.598V159.472L14.1005 159.445L40.8871 154.495L48.4433 153.113L50.4397 152.754L50.9457 152.667L51.1361 152.624Z" fill="#E0E0E0"/>
<path d="M50.1497 154.723L15.7353 161.164L20.5757 187.028L54.99 180.587L50.1497 154.723Z" fill="#EBEBEB"/>
<path d="M20.5632 187.037L29.5773 168.71L38.9015 177.376L42.9488 171.055L54.9767 180.602L20.5632 187.037Z" fill="#E0E0E0"/>
<path d="M39.8154 164.76C39.9157 165.297 39.8549 165.85 39.6405 166.352C39.4262 166.853 39.0679 167.28 38.6111 167.578C38.1542 167.876 37.6193 168.032 37.074 168.026C36.5286 168.02 35.9972 167.852 35.5471 167.544C35.0969 167.236 34.7482 166.802 34.545 166.296C34.3417 165.789 34.2931 165.234 34.4053 164.701C34.5174 164.167 34.7853 163.678 35.175 163.297C35.5648 162.915 36.0589 162.658 36.5949 162.557C36.9511 162.49 37.3169 162.494 37.6715 162.569C38.0261 162.643 38.3626 162.787 38.6617 162.991C38.9608 163.196 39.2166 163.458 39.4146 163.761C39.6125 164.065 39.7487 164.404 39.8154 164.76Z" fill="#E0E0E0"/>
<path d="M106.582 28.6398L87.6324 133.329L165.144 147.359L184.094 42.6701L106.582 28.6398Z" fill="#FAFAFA"/>
<path d="M165.142 147.363C165.142 147.363 165.169 147.189 165.224 146.863L165.485 145.389C165.713 144.094 166.056 142.179 166.497 139.693C167.394 134.71 168.7 127.431 170.354 118.216L183.954 42.6542L184.062 42.8065L106.57 28.7876L106.738 28.6679C99.6663 67.7217 93.1002 103.898 87.7581 133.35L87.6656 133.214L143.986 143.474L159.615 146.335L163.728 147.097C164.658 147.265 165.142 147.363 165.142 147.363L163.75 147.124L159.653 146.395L144.024 143.615L87.6113 133.464H87.497V133.35C92.8228 103.887 99.3671 67.7108 106.428 28.6571V28.5156H106.575L184.117 42.5454L184.247 42.5726V42.6977C178.606 73.7057 173.841 99.8884 170.49 118.314L166.573 139.747C166.116 142.223 165.768 144.099 165.528 145.416C165.409 146.052 165.322 146.536 165.262 146.868L165.142 147.363Z" fill="#E0E0E0"/>
<path d="M146.04 45.6592L113.13 39.7021L107.94 68.3729L140.85 74.33L146.04 45.6592Z" fill="#E0E0E0"/>
<path d="M172.289 50.4109L151.219 46.5972L150.542 50.3389L171.611 54.1527L172.289 50.4109Z" fill="#E0E0E0"/>
<path d="M167.431 85.1757L107.295 74.2905L106.618 78.0323L166.753 88.9174L167.431 85.1757Z" fill="#E0E0E0"/>
<path d="M166.244 91.7616L106.108 80.8765L105.431 84.6182L165.566 95.5034L166.244 91.7616Z" fill="#E0E0E0"/>
<path d="M165.052 98.3476L104.916 87.4624L104.239 91.2042L164.375 102.089L165.052 98.3476Z" fill="#E0E0E0"/>
<path d="M163.854 104.933L103.719 94.0474L103.041 97.7891L163.177 108.674L163.854 104.933Z" fill="#E0E0E0"/>
<path d="M162.663 111.514L102.527 100.628L101.85 104.37L161.986 115.255L162.663 111.514Z" fill="#E0E0E0"/>
<path d="M158.576 134.094L98.4407 123.209L97.7634 126.951L157.899 137.836L158.576 134.094Z" fill="#E0E0E0"/>
<path d="M134.351 113.192L101.339 107.217L100.662 110.959L133.674 116.934L134.351 113.192Z" fill="#E0E0E0"/>
<path d="M171.195 56.4681L150.126 52.6543L149.448 56.3961L170.518 60.2098L171.195 56.4681Z" fill="#E0E0E0"/>
<path d="M169.301 62.6007L148.317 58.7466L147.633 62.4731L168.616 66.3272L169.301 62.6007Z" fill="#E0E0E0"/>
<path d="M160.924 67.1094L147.932 64.7578L147.255 68.4996L160.247 70.8512L160.924 67.1094Z" fill="#E0E0E0"/>
<path d="M200.192 28.1566L193.506 28.4286L192.783 30.3C192.576 30.7875 192.465 31.3101 192.456 31.8395C192.45 32.0735 192.508 32.3049 192.625 32.5076C192.743 32.7103 192.914 32.8764 193.12 32.9873C193.724 33.18 194.357 33.2665 194.991 33.243V33.787L188.768 34.0155V33.4715C189.4 33.362 189.976 33.0395 190.4 32.5576C191.044 31.6655 191.552 30.6829 191.907 29.6417L198.016 14.29H198.283L205.73 29.522C206.455 30.9727 207.028 31.8794 207.449 32.242C207.838 32.5418 208.318 32.7009 208.809 32.6936V33.2049L199.653 33.5748V33.058H200.034C200.57 33.083 201.103 32.9547 201.568 32.6881C201.667 32.6125 201.745 32.5129 201.795 32.3986C201.844 32.2843 201.864 32.1592 201.851 32.0353C201.843 31.8607 201.808 31.6883 201.748 31.524C201.748 31.4424 201.568 31.0942 201.285 30.4958L200.192 28.1566ZM199.675 27.1448L196.596 20.7364L193.952 27.3732L199.675 27.1448Z" fill="#E0E0E0"/>
<path d="M212.852 67.6839L182.275 77.897L190.441 102.344L221.018 92.131L212.852 67.6839Z" fill="#F5F5F5"/>
<path d="M212.263 69.5886L183.838 79.083L190.975 100.45L219.4 90.9553L212.263 69.5886Z" fill="#EBEBEB"/>
<path d="M190.977 100.459L196.471 83.8618L205.393 90.1178L208.08 84.2807L219.401 90.9665L190.977 100.459Z" fill="#E0E0E0"/>
<path d="M204.685 79.3088C204.834 79.7517 204.847 80.2286 204.724 80.6791C204.601 81.1297 204.347 81.5337 203.995 81.84C203.642 82.1463 203.207 82.3411 202.744 82.3999C202.28 82.4587 201.81 82.3788 201.392 82.1702C200.974 81.9616 200.628 81.6339 200.396 81.2283C200.165 80.8227 200.058 80.3576 200.091 79.8917C200.124 79.4259 200.294 78.9802 200.581 78.6111C200.867 78.242 201.256 77.9661 201.699 77.8182C201.993 77.7194 202.303 77.6795 202.613 77.701C202.922 77.7224 203.224 77.8047 203.502 77.9432C203.779 78.0817 204.027 78.2736 204.23 78.508C204.433 78.7423 204.588 79.0145 204.685 79.3088Z" fill="#E0E0E0"/>
<path d="M213.701 39.2536L206.216 77.4727L254.018 86.8337L261.503 48.6146L213.701 39.2536Z" fill="#F5F5F5"/>
<path d="M261.512 48.6165L261.278 48.5785L260.603 48.4588L258.003 47.9637L248.211 46.0815L213.683 39.3849L213.836 39.2815C211.611 50.6565 209.065 63.6962 206.366 77.4975L206.252 77.3234L254.048 86.7183L253.907 86.8108C256.186 75.3106 258.074 65.7743 259.396 59.1103C260.065 55.7756 260.587 53.1589 260.946 51.3692C261.125 50.477 261.261 49.797 261.359 49.3237C261.457 48.8505 261.512 48.6165 261.512 48.6165C261.512 48.6165 261.474 48.8505 261.387 49.3074C261.3 49.7644 261.174 50.4498 261.006 51.3311C260.663 53.1154 260.163 55.7266 259.526 59.0559C258.231 65.7471 256.376 75.3161 254.146 86.8597L254.119 86.9794H254.004L206.176 77.6172L206.035 77.59L206.062 77.4485C208.782 63.6527 211.333 50.613 213.564 39.238L213.591 39.1074L213.716 39.1346L248.32 45.9673L258.068 47.9148L260.641 48.4588L261.294 48.5948L261.512 48.6165Z" fill="#E0E0E0"/>
<path d="M214.883 41.9836L208.342 75.3872L252.785 84.0906L259.327 50.687L214.883 41.9836Z" fill="#EBEBEB"/>
<path d="M208.341 75.3925L227.931 57.6689L235.003 72.5419L242.885 66.8734L252.786 84.0965L208.341 75.3925Z" fill="#E0E0E0"/>
<path d="M242.129 57.8049C241.994 58.4979 241.657 59.1354 241.16 59.6367C240.663 60.138 240.028 60.4805 239.336 60.6211C238.644 60.7616 237.926 60.6937 237.273 60.4261C236.62 60.1585 236.061 59.7031 235.666 59.1175C235.272 58.532 235.06 57.8426 235.057 57.1367C235.055 56.4307 235.262 55.7398 235.652 55.1514C236.042 54.5631 236.598 54.1037 237.249 53.8314C237.901 53.559 238.618 53.486 239.311 53.6216C239.771 53.7108 240.209 53.8899 240.599 54.1485C240.99 54.4071 241.326 54.7403 241.588 55.1288C241.849 55.5174 242.032 55.9538 242.125 56.413C242.218 56.8722 242.219 57.3452 242.129 57.8049Z" fill="#E0E0E0"/>
<path d="M29.7786 18.0648L32.2483 46.8859L43.4275 49.916L65.1114 47.3973L62.0595 14.9531L29.7786 18.0648Z" fill="#F5F5F5"/>
<path d="M35.6593 44.2969L32.2538 46.8863C33.5483 48.0086 35.0617 48.8496 36.6983 49.3561C38.8862 49.9648 41.1703 50.1494 43.4276 49.9001C43.4276 49.9001 38.265 49.0242 35.6593 44.2969Z" fill="#EBEBEB"/>
<path d="M59.4483 25.567C59.4483 25.6214 53.9648 26.1926 47.192 26.8509C40.4192 27.5091 34.9139 27.9987 34.9085 27.9389C34.903 27.879 40.392 27.297 47.1702 26.655C53.9485 26.0131 59.4429 25.4963 59.4483 25.567Z" fill="#E0E0E0"/>
<path d="M59.7693 29.9848C59.7693 30.0392 54.2858 30.6158 47.513 31.2741C40.7402 31.9323 35.2349 32.4165 35.2294 32.3621C35.224 32.3077 40.713 31.731 47.4912 31.0728C54.2694 30.4145 59.7638 29.9195 59.7693 29.9848Z" fill="#E0E0E0"/>
<path d="M60.2861 33.8958C60.2861 33.9502 54.8026 34.5268 48.0298 35.1796C41.257 35.8324 35.7572 36.3274 35.7517 36.2676C35.7463 36.2078 41.2298 35.642 48.008 34.9838C54.7863 34.3255 60.2807 33.8414 60.2861 33.8958Z" fill="#E0E0E0"/>
<path d="M60.6288 37.6765C60.6288 37.7255 55.1453 38.3021 48.3671 38.9603C41.5888 39.6186 36.0944 40.1082 36.089 40.0483C36.0836 39.9885 41.5725 39.4173 48.3508 38.7645C55.129 38.1117 60.6234 37.6221 60.6288 37.6765Z" fill="#E0E0E0"/>
<path d="M263.508 250.186C263.508 250.262 206.171 250.327 135.461 250.327C64.7523 250.327 7.40387 250.262 7.40387 250.186C7.40387 250.11 64.7252 250.039 135.461 250.039C206.198 250.039 263.508 250.104 263.508 250.186Z" fill="#263238"/>
<path d="M22.8154 68.19L45.7504 199.522L142.463 184.339L146.945 173.508L120.779 52.0713L30.1267 57.4787L22.8154 68.19Z" fill="#E0E0E0"/>
<path opacity="0.3" d="M45.7504 199.523L52.6211 188.996L29.6861 57.6582L22.8154 68.19L45.7504 199.523Z" fill="black"/>
<path d="M29.6861 57.658L52.6211 188.996L146.945 173.508L123.113 44.3354L29.6861 57.658Z" fill="#FAFAFA"/>
<path d="M29.6861 57.6634L123.096 44.2266H123.211V44.3354C129.896 80.408 138.176 125.119 147.087 173.481L147.114 173.628L146.967 173.655L145.411 173.911L52.6429 189.143H52.5123V189.012C39.0211 111.443 29.8874 58.8166 29.6861 57.6634C29.8874 58.8221 39.1299 111.427 52.7517 188.974L52.5994 188.871L145.362 173.639L146.918 173.383L146.798 173.552C137.888 125.185 129.652 80.4733 122.998 44.3734L123.129 44.4659L29.6861 57.6634Z" fill="#263238"/>
<path d="M105.313 119.856C106.482 111.056 100.296 102.973 91.4953 101.804C82.6946 100.634 74.612 106.82 73.4425 115.621C72.2729 124.422 78.4592 132.504 87.2599 133.674C96.0606 134.843 104.143 128.657 105.313 119.856Z" fill="#03045E"/>
<path d="M82.0026 121.954L81.2736 117.324L97.3053 114.784L97.9907 119.136C97.9907 119.136 97.0115 122.878 90.5271 123.901C84.0426 124.924 82.0026 121.954 82.0026 121.954Z" fill="white"/>
<path d="M78.744 117.352L90.1843 119.386L100.107 113.805L88.6503 111.993L78.744 117.352Z" fill="white"/>
<path d="M110.753 72.4455L53.9084 81.4284C53.211 81.5386 52.735 82.1933 52.8452 82.8907L53.0371 84.105C53.1473 84.8024 53.802 85.2784 54.4994 85.1682L111.344 76.1853C112.041 76.0751 112.517 75.4204 112.407 74.723L112.215 73.5086C112.105 72.8113 111.45 72.3353 110.753 72.4455Z" fill="#E0E0E0"/>
<path d="M101.76 81.9005L65.71 87.5973C65.0126 87.7075 64.5366 88.3622 64.6468 89.0596L64.8387 90.274C64.9489 90.9714 65.6036 91.4474 66.301 91.3372L102.351 85.6404C103.048 85.5302 103.524 84.8755 103.414 84.1781L103.222 82.9637C103.112 82.2663 102.457 81.7903 101.76 81.9005Z" fill="#E0E0E0"/>
<path d="M114.744 162.484L78.6949 168.181C77.9975 168.291 77.5215 168.946 77.6317 169.643L77.8236 170.857C77.9338 171.555 78.5885 172.031 79.2859 171.921L115.335 166.224C116.033 166.114 116.509 165.459 116.399 164.762L116.207 163.547C116.097 162.85 115.442 162.374 114.744 162.484Z" fill="#E0E0E0"/>
<path d="M142.087 177.159L141.63 177.246L140.281 177.48L135.064 178.35L115.693 181.527L50.2493 192.162L50.1079 192.189V192.048C49.194 186.853 48.2311 181.413 47.2519 175.869C41.986 146.085 37.2423 119.136 33.8096 99.6114C32.1069 89.8521 30.7306 81.9586 29.7732 76.4969C29.3053 73.7769 28.9408 71.6498 28.6852 70.2082C28.5655 69.4901 28.473 68.9461 28.4077 68.5762C28.3424 68.2063 28.3261 68.0322 28.3261 68.0322C28.3261 68.0322 28.3696 68.2226 28.4404 68.5762C28.5111 68.9298 28.609 69.4956 28.7396 70.2082C29.0007 71.6498 29.3815 73.766 29.8765 76.486C30.8503 81.926 32.2592 89.8357 34 99.5842C37.4544 119.103 42.2308 146.053 47.5021 175.831C48.4813 181.369 49.4387 186.815 50.3581 192.01L50.1895 191.89L115.654 181.347L135.037 178.258L140.26 177.436L141.614 177.229L142.087 177.159Z" fill="#263238"/>
<path d="M134.912 182.098L134.482 182.185L133.209 182.408L128.281 183.246L109.959 186.303L47.7795 196.596H47.638V196.46L44.064 177.055C38.7382 147.679 33.9184 121.105 30.4259 101.858C28.696 92.2403 27.2924 84.4502 26.3241 79.0646C25.8508 76.3772 25.4755 74.2883 25.2361 72.863C25.1164 72.1613 25.0185 71.6227 24.9587 71.231C24.8988 70.8393 24.8716 70.687 24.8716 70.687C24.8716 70.687 24.9152 70.8665 24.9859 71.231L25.296 72.863C25.5571 74.2829 25.9488 76.3664 26.4492 79.0483L30.638 101.826C34.1523 121.072 39.0048 147.647 44.3632 177.006C45.5708 183.659 46.7568 190.171 47.8937 196.433L47.7305 196.318L109.915 186.124L128.248 183.148L133.182 182.359L134.46 182.163L134.912 182.098Z" fill="#263238"/>
<path d="M31.9655 113.276L29.8384 116.279L35.001 147.227L38.0746 148.272L31.9655 113.276Z" fill="#263238"/>
<path d="M46.6962 110.699L31.9702 113.272L38.0837 148.265L52.8098 145.692L46.6962 110.699Z" fill="#263238"/>
<path d="M47.1657 109.343L46.2064 109.51C45.6589 109.606 45.2925 110.127 45.3881 110.675L51.5741 146.119C51.6697 146.666 52.191 147.033 52.7385 146.937L53.6978 146.77C54.2453 146.674 54.6117 146.153 54.5162 145.605L48.3301 110.161C48.2346 109.614 47.7132 109.247 47.1657 109.343Z" fill="#263238"/>
<path d="M29.4195 138.595C27.7878 138.588 26.2135 137.991 24.9876 136.914C23.7616 135.837 22.9669 134.353 22.7501 132.736C22.563 131.354 22.8087 129.948 23.4534 128.712C24.0981 127.475 25.11 126.469 26.3501 125.832C27.5901 125.194 28.9972 124.956 30.3779 125.151C31.7585 125.346 33.0449 125.964 34.0598 126.92L43.2534 121.698C43.4294 121.598 43.6268 121.542 43.8289 121.535C44.0311 121.527 44.2321 121.568 44.415 121.655C44.5979 121.741 44.7574 121.87 44.88 122.031C45.0025 122.192 45.0847 122.38 45.1194 122.579L47.2954 135.031C47.3312 135.229 47.3189 135.433 47.2595 135.626C47.2 135.818 47.0953 135.993 46.954 136.137C46.8127 136.28 46.639 136.388 46.4475 136.45C46.256 136.512 46.0524 136.528 45.8538 136.495L35.4742 134.863C34.9123 135.987 34.0482 136.933 32.9787 137.594C31.9093 138.256 30.6768 138.606 29.4195 138.605V138.595ZM29.4195 126.186C29.1464 126.184 28.8735 126.204 28.6035 126.246C27.14 126.484 25.8248 127.277 24.932 128.461C24.0391 129.645 23.6375 131.127 23.8109 132.6C23.9757 133.831 24.5412 134.974 25.4202 135.852C26.2993 136.73 27.4428 137.294 28.6745 137.458C29.9061 137.621 31.1572 137.375 32.2348 136.756C33.3123 136.138 34.1563 135.182 34.6365 134.036L34.7997 133.644L46.0278 135.456C46.0545 135.461 46.0821 135.46 46.108 135.451C46.1338 135.443 46.1569 135.427 46.1747 135.407C46.194 135.388 46.2085 135.365 46.2171 135.339C46.2256 135.314 46.2278 135.286 46.2237 135.26L44.0477 122.802C44.0425 122.775 44.0309 122.75 44.0138 122.728C43.9968 122.706 43.9748 122.689 43.9498 122.677C43.9253 122.665 43.8983 122.658 43.8709 122.658C43.8435 122.658 43.8164 122.665 43.792 122.677L33.864 128.291L33.5702 127.981C33.0384 127.419 32.3973 126.972 31.6863 126.667C30.9753 126.362 30.2095 126.206 29.4358 126.208L29.4195 126.186Z" fill="#455A64"/>
<path d="M51.506 145.655C51.4698 145.542 51.4444 145.425 51.4298 145.307C51.3809 145.046 51.321 144.714 51.2394 144.306C51.0762 143.398 50.8477 142.13 50.5649 140.607C50.0209 137.457 49.2375 133.16 48.3889 128.41C47.5402 123.661 46.8167 119.353 46.2727 116.192C46.017 114.658 45.8103 113.401 45.6634 112.488C45.5981 112.074 45.5492 111.737 45.5111 111.476C45.4856 111.36 45.4747 111.241 45.4785 111.122C45.5155 111.234 45.5445 111.349 45.5655 111.465C45.6199 111.726 45.6906 112.058 45.7722 112.466C45.9463 113.374 46.1857 114.642 46.474 116.16C47.0561 119.277 47.834 123.591 48.65 128.356C49.466 133.121 50.2276 137.446 50.7389 140.574C51.0001 142.141 51.1959 143.408 51.3265 144.284C51.3863 144.725 51.4407 145.062 51.4625 145.302C51.4915 145.417 51.5061 145.536 51.506 145.655Z" fill="#455A64"/>
<path d="M37.7808 148.392C37.7486 148.276 37.7231 148.158 37.7047 148.038C37.6557 147.783 37.5959 147.451 37.5197 147.038C37.3511 146.129 37.1226 144.862 36.8397 143.344C36.2957 140.189 35.5124 135.891 34.6637 131.142C33.8151 126.393 33.097 122.084 32.5476 118.929C32.2919 117.39 32.0852 116.133 31.9383 115.224C31.873 114.806 31.824 114.474 31.786 114.213C31.7604 114.095 31.7495 113.974 31.7533 113.854C31.7945 113.967 31.8255 114.083 31.8458 114.202C31.8948 114.463 31.9655 114.795 32.0471 115.203C32.2212 116.111 32.4605 117.379 32.7488 118.891C33.3309 122.014 34.1088 126.322 34.9248 131.093C35.7408 135.864 36.5024 140.178 37.0192 143.306C37.2749 144.872 37.4762 146.14 37.6013 147.021C37.6612 147.462 37.7156 147.799 37.7373 148.033C37.7663 148.151 37.781 148.271 37.7808 148.392Z" fill="#455A64"/>
<path d="M100.096 113.804C99.8591 113.985 99.6081 114.147 99.3453 114.288L97.2455 115.523C95.4612 116.557 92.986 117.966 90.2442 119.511L90.1952 119.538H90.1463H90.032C86.904 118.994 84.048 118.45 82.0352 118.075L79.6144 117.601C79.3148 117.555 79.0198 117.482 78.7332 117.384C79.0362 117.397 79.3379 117.432 79.6362 117.487L82.0679 117.873C84.1242 118.211 86.9639 118.7 90.0864 119.255H90.1952H90.0973C92.8445 117.716 95.336 116.334 97.1693 115.344L99.3181 114.19C99.5649 114.038 99.8254 113.909 100.096 113.804Z" fill="#263238"/>
<path d="M67.7668 73.588L69.0479 73.381L68.322 68.8891L70.0934 68.6028L69.9247 67.5589L65.1006 68.3385L65.2694 69.3824L67.0408 69.0961L67.7668 73.588ZM74.41 66.834L74.7628 69.0167L72.2479 69.4231L71.8952 67.2404L70.614 67.4475L71.5087 72.9833L72.7899 72.7762L72.423 70.5065L74.9379 70.1001L75.3047 72.3698L76.5859 72.1627L75.6912 66.6269L74.41 66.834ZM79.0027 70.7172L78.7956 69.4361L81.3658 69.0207L81.2048 68.0242L78.6346 68.4396L78.4403 67.2375L81.3506 66.7672L81.1844 65.7391L77.0009 66.4152L77.8956 71.9511L82.1819 71.2583L82.0158 70.2302L79.0027 70.7172ZM85.0355 70.8945C86.6172 70.6389 87.2565 69.7241 87.107 68.7988C86.7785 66.7664 83.6735 67.9904 83.5087 66.9702C83.4524 66.6223 83.699 66.2903 84.4582 66.1676C84.9485 66.0883 85.5014 66.1451 86.0627 66.3546L86.3009 65.318C85.7345 65.0768 84.9959 65.0257 84.3 65.1382C82.7262 65.3926 82.0936 66.2982 82.2457 67.2393C82.578 69.2954 85.6816 68.0635 85.8491 69.0995C85.904 69.4395 85.6365 69.7425 84.8773 69.8652C84.213 69.9725 83.4787 69.8477 82.9572 69.5831L82.6781 70.6182C83.2298 70.9186 84.1577 71.0364 85.0355 70.8945ZM88.2444 70.2785L89.5255 70.0715L88.6309 64.5357L87.3497 64.7427L88.2444 70.2785ZM92.6735 69.6601C94.2552 69.4045 94.8945 68.4897 94.745 67.5644C94.4165 65.5319 91.3116 66.756 91.1467 65.7358C91.0904 65.3878 91.337 65.0559 92.0962 64.9332C92.5866 64.8539 93.1394 64.9106 93.7008 65.1202L93.939 64.0835C93.3725 63.8424 92.6339 63.7913 91.938 63.9038C90.3642 64.1581 89.7316 65.0638 89.8837 66.0048C90.216 68.061 93.3196 66.8291 93.4871 67.8651C93.542 68.2051 93.2745 68.508 92.5153 68.6307C91.851 68.7381 91.1167 68.6133 90.5952 68.3487L90.3162 69.3838C90.8678 69.6841 91.7957 69.802 92.6735 69.6601Z" fill="#263238"/>
<path d="M108.354 177.231H154.735V201.57H108.354C105.808 201.57 103.365 200.558 101.565 198.757C99.764 196.957 98.7524 194.514 98.7524 191.968V186.827C98.7524 184.281 99.764 181.838 101.565 180.038C103.365 178.237 105.808 177.226 108.354 177.226V177.231Z" fill="#090C9B"/>
<path d="M142.61 177.231H240.448C240.871 177.231 241.276 177.399 241.575 177.698C241.874 177.997 242.042 178.403 242.042 178.825V179.679C242.042 180.102 241.874 180.508 241.575 180.807C241.276 181.105 240.871 181.273 240.448 181.273H142.61V177.231Z" fill="#090C9B"/>
<path d="M142.61 197.533H240.448C240.657 197.533 240.865 197.574 241.058 197.655C241.252 197.735 241.427 197.852 241.575 198C241.723 198.148 241.841 198.324 241.921 198.517C242.001 198.711 242.042 198.918 242.042 199.127V199.981C242.042 200.404 241.874 200.809 241.575 201.108C241.276 201.407 240.871 201.575 240.448 201.575H142.61V197.533Z" fill="#090C9B"/>
<path d="M239.066 197.534H153.707C152.64 197.534 151.582 197.323 150.596 196.914C149.609 196.506 148.713 195.907 147.958 195.151C147.204 194.396 146.605 193.499 146.197 192.513C145.789 191.526 145.579 190.469 145.58 189.401C145.58 187.245 146.436 185.178 147.96 183.654C149.485 182.13 151.552 181.273 153.707 181.273H239.066C237.935 183.835 237.351 186.604 237.351 189.404C237.351 192.203 237.935 194.972 239.066 197.534Z" fill="#F5F5F5"/>
<path opacity="0.3" d="M145.58 201.575H108.544C105.947 201.575 103.457 200.544 101.62 198.707C99.7841 196.871 98.7524 194.38 98.7524 191.783V186.947C98.7524 184.37 99.7761 181.899 101.598 180.077C103.42 178.255 105.891 177.231 108.468 177.231H146.499C137.692 182.574 138.35 195.358 145.58 201.575Z" fill="black"/>
<path d="M228.698 190.156C228.698 190.238 211.176 190.303 189.568 190.303C167.96 190.303 150.438 190.238 150.438 190.156C150.438 190.075 167.955 190.009 189.568 190.009C211.181 190.009 228.698 190.075 228.698 190.156Z" fill="#263238"/>
<path d="M236.749 193.769C236.749 193.85 219.227 193.916 197.619 193.916C176.011 193.916 158.489 193.85 158.489 193.769C158.489 193.687 176.006 193.627 197.619 193.627C219.232 193.627 236.749 193.693 236.749 193.769Z" fill="#263238"/>
<path d="M234.377 185.032C234.377 185.114 216.855 185.179 195.247 185.179C173.639 185.179 156.112 185.114 156.112 185.032C156.112 184.951 173.628 184.885 195.247 184.885C216.866 184.885 234.377 184.961 234.377 185.032Z" fill="#263238"/>
<path d="M141.293 199.867C141.293 199.949 133.09 200.014 122.977 200.014C112.864 200.014 104.66 199.949 104.66 199.867C104.66 199.785 112.858 199.72 122.977 199.72C133.095 199.72 141.293 199.785 141.293 199.867Z" fill="#263238"/>
<path d="M141.293 179.254C141.293 179.336 133.09 179.401 122.977 179.401C112.864 179.401 104.66 179.336 104.66 179.254C104.66 179.173 112.858 179.107 122.977 179.107C133.095 179.107 141.293 179.173 141.293 179.254Z" fill="#263238"/>
<path d="M87.8778 218.657H150.378V250.002H87.8778C85.3313 250.002 82.8891 248.99 81.0885 247.19C79.2878 245.389 78.2762 242.947 78.2762 240.4V228.258C78.2762 225.712 79.2878 223.27 81.0885 221.469C82.8891 219.668 85.3313 218.657 87.8778 218.657Z" fill="#090C9B"/>
<path d="M134.76 218.657H261.202C261.624 218.657 262.03 218.825 262.329 219.124C262.628 219.423 262.796 219.828 262.796 220.251V222.269C262.796 222.692 262.628 223.097 262.329 223.396C262.03 223.695 261.624 223.863 261.202 223.863H134.76V218.657Z" fill="#090C9B"/>
<path d="M134.76 244.801H261.202C261.624 244.801 262.03 244.969 262.329 245.268C262.628 245.567 262.796 245.972 262.796 246.395V248.413C262.796 248.836 262.628 249.242 262.329 249.541C262.03 249.839 261.624 250.007 261.202 250.007H134.76V244.801Z" fill="#090C9B"/>
<path d="M258.977 244.801H149.056C146.28 244.8 143.617 243.696 141.655 241.732C139.692 239.769 138.59 237.106 138.59 234.329C138.59 232.955 138.86 231.594 139.386 230.324C139.912 229.054 140.683 227.9 141.655 226.928C142.627 225.956 143.781 225.185 145.051 224.66C146.321 224.134 147.682 223.863 149.056 223.863H258.977C257.519 227.16 256.765 230.726 256.765 234.332C256.765 237.938 257.519 241.504 258.977 244.801Z" fill="#F5F5F5"/>
<path opacity="0.3" d="M138.579 250.002H87.7527C86.5085 250.002 85.2765 249.756 84.1271 249.28C82.9776 248.804 81.9333 248.106 81.0538 247.226C80.1742 246.346 79.4767 245.301 79.0011 244.151C78.5254 243.002 78.281 241.769 78.2817 240.525V228.481C78.2817 225.884 79.3133 223.393 81.1497 221.557C82.986 219.721 85.4767 218.689 88.0737 218.689H139.754C128.422 225.532 129.271 241.999 138.579 250.002Z" fill="black"/>
<path d="M245.621 235.303C245.621 235.384 223.056 235.45 195.231 235.45C167.405 235.45 144.835 235.384 144.835 235.303C144.835 235.221 167.394 235.156 195.231 235.156C223.067 235.156 245.621 235.221 245.621 235.303Z" fill="#263238"/>
<path d="M255.996 239.954C255.996 240.036 233.431 240.101 205.6 240.101C177.768 240.101 155.203 240.036 155.203 239.954C155.203 239.872 177.763 239.812 205.6 239.812C233.436 239.812 255.996 239.905 255.996 239.954Z" fill="#263238"/>
<path d="M252.96 230.984C252.96 231.065 230.4 231.131 202.569 231.131C174.738 231.131 152.173 231.065 152.173 230.984C152.173 230.902 174.733 230.837 202.569 230.837C230.406 230.837 252.96 230.902 252.96 230.984Z" fill="#263238"/>
<path d="M133.057 247.805C133.057 247.886 122.498 247.951 109.469 247.951C96.4404 247.951 85.8813 247.886 85.8813 247.805C85.8813 247.723 96.4404 247.663 109.469 247.663C122.498 247.663 133.057 247.728 133.057 247.805Z" fill="#263238"/>
<path d="M133.057 221.263C133.057 221.339 122.498 221.404 109.469 221.404C96.4404 221.404 85.8813 221.339 85.8813 221.263C85.8813 221.186 96.4404 221.116 109.469 221.116C122.498 221.116 133.057 221.181 133.057 221.263Z" fill="#263238"/>
<path d="M117.602 200.824H169.097V218.776H117.602C115.726 218.776 113.928 218.031 112.601 216.705C111.275 215.379 110.53 213.58 110.53 211.704V207.896C110.53 206.021 111.275 204.222 112.601 202.896C113.928 201.569 115.726 200.824 117.602 200.824Z" fill="#455A64"/>
<path d="M156.411 200.824H258.77C259.213 200.824 259.638 201 259.951 201.313C260.264 201.627 260.44 202.051 260.44 202.494V203.386C260.44 203.829 260.264 204.254 259.951 204.567C259.638 204.881 259.213 205.057 258.77 205.057H156.411V200.83V200.824Z" fill="#455A64"/>
<path d="M156.411 214.543H258.77C259.213 214.543 259.638 214.719 259.951 215.033C260.264 215.346 260.44 215.771 260.44 216.214V217.106C260.44 217.549 260.264 217.973 259.951 218.287C259.638 218.6 259.213 218.776 258.77 218.776H156.411V214.549V214.543Z" fill="#455A64"/>
<path d="M257.312 214.544H164.288C163.03 214.544 161.822 214.044 160.932 213.155C160.041 212.265 159.54 211.059 159.539 209.8C159.539 208.54 160.039 207.332 160.93 206.442C161.821 205.551 163.029 205.051 164.288 205.051H257.312C254.933 208.217 254.933 211.381 257.312 214.544Z" fill="#F5F5F5"/>
<path opacity="0.3" d="M159.512 218.771H117.624C116.688 218.771 115.762 218.586 114.897 218.228C114.033 217.87 113.248 217.345 112.587 216.683C111.925 216.021 111.401 215.236 111.043 214.371C110.686 213.507 110.502 212.58 110.503 211.644V208.097C110.502 207.143 110.69 206.197 111.054 205.315C111.419 204.432 111.955 203.63 112.63 202.955C113.305 202.279 114.106 201.744 114.988 201.378C115.87 201.012 116.816 200.824 117.771 200.824H160.48C151.259 204.763 151.95 214.19 159.512 218.771Z" fill="black"/>
<path d="M246.481 209.05C246.481 209.131 228.148 209.197 205.54 209.197C182.931 209.197 164.598 209.131 164.598 209.05C164.598 208.968 182.926 208.908 205.54 208.908C228.154 208.908 246.481 208.973 246.481 209.05Z" fill="#263238"/>
<path d="M254.908 211.617C254.908 211.699 236.575 211.764 213.966 211.764C191.358 211.764 173.025 211.699 173.025 211.617C173.025 211.535 191.352 211.47 213.966 211.47C236.58 211.47 254.908 211.525 254.908 211.617Z" fill="#263238"/>
<path d="M155.04 216.987C155.04 217.068 146.461 217.134 135.875 217.134C125.289 217.134 116.71 217.068 116.71 216.987C116.71 216.905 125.289 216.84 135.875 216.84C146.461 216.84 155.04 216.905 155.04 216.987Z" fill="#263238"/>
<path d="M155.04 202.94C155.04 203.021 146.461 203.081 135.875 203.081C125.289 203.081 116.71 203.021 116.71 202.94C116.71 202.858 125.289 202.793 135.875 202.793C146.461 202.793 155.04 202.858 155.04 202.94Z" fill="#263238"/>
<path d="M259.216 200.825C259.216 200.906 227.735 200.971 188.915 200.971C150.095 200.971 118.592 200.906 118.592 200.825C118.592 200.743 150.062 200.678 188.899 200.678C227.735 200.678 259.216 200.738 259.216 200.825Z" fill="#263238"/>
<path d="M202.765 184.765V194.514L206.143 192.348L209.908 194.514V184.765H202.765Z" fill="#FF725E"/>
<path d="M237.097 88.0029L220.086 102.174L194.213 153.288L210.343 160.578L235.508 110.448L237.097 88.0029Z" fill="#5463FF"/>
<g opacity="0.7">
<path d="M235.509 110.432C235.311 110.481 235.106 110.483 234.908 110.439C234.709 110.395 234.524 110.306 234.366 110.178C234.208 110.051 234.081 109.889 233.997 109.704C233.912 109.52 233.871 109.318 233.877 109.115C233.34 109.74 232.621 110.181 231.821 110.376C231.021 110.57 230.18 110.509 229.416 110.201C228.652 109.893 228.004 109.354 227.563 108.658C227.122 107.963 226.91 107.147 226.957 106.325C226.24 106.711 225.433 106.899 224.62 106.87C223.806 106.842 223.015 106.598 222.327 106.162C221.638 105.727 221.078 105.117 220.704 104.394C220.329 103.671 220.154 102.862 220.195 102.049L237.059 87.9863L235.509 110.432Z" fill="white"/>
</g>
<path d="M230.253 93.704C230.253 93.704 230.515 97.9364 236.444 97.1965L237.097 88.0029L230.253 93.704Z" fill="black"/>
<path opacity="0.3" d="M226.979 106.341L202.036 156.546L194.214 153.282L220.086 102.146L220.217 102.038C220.178 102.719 220.297 103.401 220.565 104.029C220.922 104.853 221.502 105.562 222.24 106.074C223.146 106.693 224.246 106.962 225.336 106.83C225.909 106.769 226.465 106.603 226.979 106.341Z" fill="black"/>
<path opacity="0.3" d="M233.92 109.132L208.298 159.642L210.365 160.578L235.509 110.432C235.167 110.494 234.815 110.427 234.521 110.244C234.226 110.061 234.01 109.775 233.915 109.442C233.906 109.339 233.908 109.235 233.92 109.132Z" fill="black"/>
<path d="M226.848 101.467C226.795 101.53 226.764 101.608 226.761 101.69C226.762 101.809 226.807 101.923 226.887 102.011C226.968 102.098 227.078 102.153 227.196 102.164C227.582 102.181 227.963 102.074 228.284 101.859C228.487 101.74 228.649 101.561 228.747 101.348C228.801 101.232 228.825 101.104 228.816 100.977C228.807 100.849 228.767 100.726 228.698 100.619C228.608 100.507 228.496 100.416 228.368 100.352C228.24 100.287 228.101 100.25 227.958 100.243C227.643 100.216 227.326 100.234 227.017 100.298C226.324 100.413 225.663 100.67 225.075 101.054C224.917 101.15 224.783 101.28 224.68 101.432C224.576 101.585 224.507 101.759 224.476 101.94C224.468 102.131 224.507 102.32 224.59 102.492C224.672 102.664 224.796 102.813 224.949 102.925C225.307 103.131 225.702 103.262 226.111 103.313C226.52 103.363 226.936 103.331 227.332 103.219C228.119 103.053 228.846 102.674 229.432 102.124C230.018 101.573 230.442 100.872 230.656 100.096C230.693 99.9249 230.689 99.7473 230.646 99.5774C230.602 99.4075 230.52 99.25 230.406 99.1171C230.175 98.8702 229.887 98.6835 229.568 98.5731C228.993 98.3626 228.39 98.2415 227.778 98.2141C226.887 98.1671 225.995 98.3003 225.156 98.6058C224.862 98.7146 224.612 98.8179 224.487 98.8886C224.362 98.9594 224.259 98.9974 224.259 98.9974C224.537 98.8211 224.832 98.6734 225.14 98.5568C225.981 98.2351 226.879 98.0888 227.778 98.1271C228.402 98.1481 229.018 98.2655 229.606 98.4752C229.942 98.5908 230.245 98.7869 230.487 99.0464C230.615 99.1936 230.708 99.3684 230.757 99.5572C230.806 99.746 230.81 99.9435 230.77 100.134C230.489 101.144 229.868 102.026 229.011 102.629C228.155 103.233 227.116 103.522 226.07 103.447C225.642 103.425 225.229 103.282 224.879 103.034C224.704 102.913 224.562 102.75 224.467 102.56C224.372 102.37 224.326 102.158 224.335 101.946C224.368 101.747 224.444 101.558 224.557 101.391C224.669 101.224 224.816 101.083 224.988 100.978C225.591 100.586 226.269 100.325 226.979 100.211C227.3 100.15 227.627 100.136 227.952 100.167C228.107 100.176 228.258 100.218 228.395 100.291C228.532 100.363 228.652 100.464 228.747 100.586C228.822 100.706 228.866 100.843 228.874 100.985C228.883 101.127 228.856 101.268 228.796 101.396C228.69 101.624 228.517 101.814 228.301 101.94C227.969 102.154 227.578 102.255 227.185 102.229C227.058 102.216 226.94 102.156 226.855 102.06C226.77 101.964 226.725 101.84 226.728 101.712C226.756 101.511 226.848 101.462 226.848 101.467Z" fill="white"/>
<path d="M235.976 101.184C235.976 101.184 235.726 101.146 235.28 101.184C234.645 101.226 234.023 101.392 233.452 101.674C232.612 102.105 231.823 102.631 231.102 103.241C230.224 104.013 229.224 104.635 228.143 105.079C227.028 105.463 225.824 105.508 224.683 105.21C223.754 104.965 222.9 104.494 222.197 103.839C221.721 103.387 221.325 102.857 221.027 102.272C220.914 102.067 220.819 101.852 220.744 101.63C220.775 101.681 220.803 101.734 220.826 101.788C220.875 101.897 220.957 102.055 221.065 102.251C221.384 102.801 221.786 103.298 222.257 103.725C222.955 104.36 223.797 104.816 224.71 105.052C225.832 105.334 227.011 105.285 228.105 104.911C229.172 104.472 230.161 103.862 231.031 103.105C231.76 102.492 232.56 101.969 233.414 101.549C233.995 101.267 234.629 101.109 235.275 101.086C235.512 101.089 235.748 101.122 235.976 101.184Z" fill="white"/>
<path d="M235.878 106.282C235.567 105.965 235.152 105.772 234.709 105.738C233.634 105.728 232.564 105.886 231.537 106.206C230.497 106.486 229.485 106.861 228.513 107.326C228.137 107.506 227.844 107.663 227.637 107.767C227.535 107.831 227.428 107.886 227.316 107.93C227.411 107.856 227.511 107.789 227.615 107.729C227.811 107.609 228.105 107.435 228.475 107.25C229.441 106.756 230.457 106.366 231.505 106.086C232.081 105.928 232.666 105.805 233.256 105.716C233.739 105.628 234.232 105.608 234.72 105.656C235.053 105.692 235.37 105.82 235.634 106.026C235.727 106.099 235.81 106.185 235.878 106.282Z" fill="white"/>
<path d="M228.817 109.888C228.983 109.716 229.165 109.561 229.361 109.426C229.846 109.069 230.403 108.824 230.993 108.707C231.289 108.647 231.594 108.654 231.887 108.726C232.179 108.798 232.452 108.935 232.685 109.126C232.824 109.244 232.94 109.386 233.028 109.545C233.061 109.602 233.083 109.665 233.093 109.73C232.967 109.526 232.812 109.343 232.631 109.186C232.4 109.013 232.136 108.89 231.854 108.827C231.573 108.765 231.281 108.763 230.999 108.822C230.432 108.941 229.894 109.17 229.416 109.496C229.224 109.638 229.024 109.769 228.817 109.888Z" fill="white"/>
<path d="M236.422 98.1101C236.398 98.1368 236.371 98.1605 236.341 98.1808C236.286 98.2189 236.205 98.2787 236.091 98.3494C235.958 98.4431 235.808 98.5097 235.65 98.5453C235.436 98.5832 235.216 98.5702 235.008 98.5072C234.546 98.4038 234.029 98.1699 233.447 97.9632C232.816 97.7489 232.168 97.5869 231.51 97.479C230.305 97.3041 229.088 97.2223 227.871 97.2342H226.783C226.647 97.248 226.51 97.248 226.375 97.2342L226.783 97.2016L227.871 97.1635C229.093 97.125 230.317 97.196 231.526 97.3757C232.193 97.4811 232.849 97.6486 233.485 97.8761C234.072 98.0829 234.573 98.3222 235.03 98.4201C235.2 98.4817 235.382 98.5035 235.563 98.4837C235.743 98.4639 235.916 98.4031 236.069 98.3059C236.183 98.2348 236.301 98.1694 236.422 98.1101Z" fill="white"/>
<path d="M254.451 144.307V188.866C254.461 188.952 254.503 189.031 254.567 189.088C254.632 189.145 254.715 189.176 254.801 189.176C254.888 189.176 254.971 189.145 255.035 189.088C255.1 189.031 255.142 188.952 255.152 188.866V144.307C255.142 144.222 255.1 144.143 255.035 144.086C254.971 144.029 254.888 143.998 254.801 143.998C254.715 143.998 254.632 144.029 254.567 144.086C254.503 144.143 254.461 144.222 254.451 144.307Z" fill="#FFC300"/>
<path d="M257.312 179.047C257.312 179.545 257.165 180.03 256.888 180.444C256.612 180.857 256.22 181.179 255.76 181.369C255.301 181.56 254.796 181.609 254.308 181.512C253.821 181.415 253.373 181.176 253.022 180.825C252.67 180.473 252.431 180.025 252.334 179.538C252.237 179.05 252.286 178.545 252.477 178.086C252.667 177.626 252.989 177.234 253.402 176.958C253.816 176.682 254.302 176.534 254.799 176.534C255.465 176.534 256.104 176.799 256.576 177.27C257.047 177.742 257.312 178.381 257.312 179.047Z" fill="#FFC300"/>
<path d="M254.102 180.347C254.102 180.347 252.269 182.181 251.72 187.55C251.17 192.919 251.051 195.601 251.051 195.601L255.99 195.906V192.065C255.99 192.245 256.969 194.932 256.969 194.932L260.875 193.648C260.875 193.648 259.488 179.374 254.102 180.347Z" fill="#FFC300"/>
<path d="M228.409 147.952H144.525V178.193H228.409V147.952Z" fill="#263238"/>
<path d="M257.872 142.751H114.392V147.958H257.872V142.751Z" fill="#263238"/>
<path opacity="0.3" d="M144.525 169.614C144.525 169.614 170.006 160.475 186.467 157.102C202.928 153.729 228.409 154.85 228.409 154.85V147.968H144.525V169.614Z" fill="black"/>
<path opacity="0.3" d="M166.29 142.751H114.392V147.958H166.29V142.751Z" fill="black"/>
<path d="M256.833 147.969C256.833 148.05 224.928 148.115 185.569 148.115C146.211 148.115 114.305 148.05 114.305 147.969C114.305 147.887 146.2 147.827 185.569 147.827C224.939 147.827 256.833 147.876 256.833 147.969Z" fill="#455A64"/>
<path d="M166.208 147.996C166.012 146.239 166.012 144.465 166.208 142.708C166.397 144.466 166.397 146.238 166.208 147.996Z" fill="#455A64"/>
<path d="M178.171 178.199C178.095 178.199 178.029 172.297 178.029 165.018C178.029 157.739 178.095 151.842 178.171 151.842C178.247 151.842 178.318 157.739 178.318 165.018C178.318 172.297 178.252 178.199 178.171 178.199Z" fill="#455A64"/>
<path d="M56.8208 215.337L66.4659 211.442L73.8317 192.201L83.6509 197.26C83.6509 197.26 82.7043 199.158 80.6752 203.864C79.8864 205.676 77.2915 210.74 76.2361 213.205C75.2594 215.483 73.6507 217.434 71.6002 218.827C69.5497 220.22 67.1432 220.997 64.6653 221.065L55.6131 221.299L56.8208 215.337Z" fill="#FFBF9D"/>
<path d="M52.0281 211.616L50.592 210.082C50.3129 209.899 49.9844 209.806 49.6509 209.816L45.0377 209.957C44.6071 209.999 44.1913 210.137 43.8212 210.361C43.4511 210.585 43.1362 210.889 42.8998 211.252L41.2189 214.108C41.2189 214.108 40.0928 216.061 40.2342 216.539C40.2972 216.738 40.4316 216.907 40.6114 217.012C40.7912 217.118 41.0038 217.153 41.208 217.111C41.208 217.111 41.3712 218.014 41.6704 218.199C41.8436 218.286 42.0326 218.337 42.2262 218.349C42.4197 218.361 42.6137 218.334 42.7965 218.269C42.8758 218.441 43.0049 218.584 43.1669 218.681C43.3289 218.778 43.5164 218.824 43.7049 218.813C43.7858 218.806 43.8659 218.791 43.9443 218.77C44.4883 218.601 44.7385 217.54 44.7385 217.54L47.0777 217.111C47.0777 217.111 50.4397 219.357 51.6256 220.826C52.8115 222.295 55.9123 221.174 55.9123 221.174L57.071 215.626L52.0281 211.616Z" fill="#FFBF9D"/>
<path d="M48.6281 212.274C48.3 212.376 47.9596 212.433 47.6163 212.443C46.9798 212.514 46.0822 212.541 45.0649 212.672L45.1737 212.59C44.9989 212.966 44.7989 213.329 44.5753 213.678C43.961 214.653 43.214 215.537 42.3558 216.305C42.0187 216.644 41.627 216.924 41.1971 217.132C41.1971 217.094 41.6051 216.768 42.2144 216.153C43.0144 215.358 43.7241 214.477 44.3305 213.526C44.5536 213.161 44.7548 212.802 44.9235 212.438L44.9561 212.367H45.0323C46.0713 212.253 46.9689 212.264 47.6054 212.242C47.9465 212.217 48.2893 212.228 48.6281 212.274Z" fill="#FF9A6C"/>
<path d="M48.7315 214.477C48.4593 214.61 48.1635 214.688 47.8611 214.705C47.1097 214.809 46.3461 214.784 45.6035 214.629L45.7721 214.537C45.6743 214.822 45.5617 215.101 45.4348 215.375C45.0142 216.243 44.4242 217.018 43.6995 217.654C43.4166 217.934 43.0798 218.155 42.7094 218.301C42.9779 218.02 43.2612 217.753 43.5581 217.502C44.2287 216.849 44.7809 216.085 45.1901 215.244C45.3159 214.984 45.4267 214.717 45.5219 214.444L45.5654 214.325H45.6851C46.6891 214.512 47.7138 214.564 48.7315 214.477Z" fill="#FF9A6C"/>
<path d="M54.5958 215.614L50.4777 213.699C49.9251 213.392 49.3129 213.206 48.6825 213.155C48.0082 213.214 47.3576 213.433 46.7839 213.792L44.5644 214.934C44.4447 214.999 44.3142 215.076 44.2761 215.201C44.238 215.326 44.3414 215.543 44.4665 215.669C45.0394 216.211 45.7892 216.527 46.5772 216.559C47.3653 216.591 48.1382 216.336 48.7532 215.843C49.0537 216.823 49.5232 217.744 50.1404 218.563C50.456 218.973 50.8721 219.296 51.3485 219.498C51.825 219.701 52.3457 219.778 52.8604 219.721" fill="#FFBF9D"/>
<path d="M52.8494 219.776C52.8152 219.793 52.7785 219.804 52.7406 219.809C52.6302 219.836 52.5171 219.85 52.4034 219.852C51.9712 219.854 51.5453 219.749 51.163 219.547C50.571 219.238 50.0688 218.781 49.7051 218.22C49.2537 217.5 48.8885 216.73 48.6171 215.924L48.8238 215.973C48.4934 216.251 48.1113 216.46 47.6995 216.589C47.2877 216.718 46.8545 216.764 46.4248 216.724C45.9577 216.692 45.5022 216.564 45.0866 216.349C44.8738 216.236 44.6748 216.099 44.4936 215.941C44.3954 215.86 44.3061 215.769 44.227 215.669C44.1758 215.607 44.1389 215.534 44.1192 215.456C44.0994 215.378 44.0972 215.296 44.1128 215.217C44.1305 215.152 44.1614 215.092 44.2035 215.039C44.2456 214.987 44.2981 214.944 44.3576 214.913C44.4555 214.853 44.5371 214.815 44.6242 214.766L45.1355 214.505L46.1419 213.961C46.7671 213.594 47.4337 213.304 48.1275 213.096C48.7937 212.976 49.4808 213.081 50.0805 213.395C50.6245 213.645 51.1685 213.895 51.6037 214.118L53.7797 215.206C54.0531 215.329 54.3168 215.473 54.5685 215.636C54.2806 215.551 54.0004 215.442 53.7307 215.31L51.5003 214.325L49.9662 213.64C49.4132 213.356 48.7812 213.266 48.171 213.384C47.5017 213.593 46.8591 213.88 46.2562 214.238L45.2552 214.782L44.7438 215.049C44.5698 215.136 44.3848 215.223 44.3739 215.31C44.363 215.397 44.499 215.609 44.6677 215.745C44.8338 215.889 45.0164 216.013 45.2117 216.115C45.5921 216.312 46.0084 216.43 46.4357 216.463C47.2305 216.54 48.0238 216.302 48.6443 215.799L48.7858 215.68L48.8456 215.854C49.0992 216.645 49.4404 217.406 49.8629 218.122C50.1959 218.665 50.6597 219.116 51.212 219.433C51.7139 219.701 52.2821 219.82 52.8494 219.776Z" fill="#FF9A6C"/>
<path d="M108.147 161.715C108.185 158.625 108.691 155.546 108.55 152.467C108.408 149.388 107.619 146.162 105.465 143.948C103.311 141.734 99.552 140.896 97.0496 142.664L96.5056 145.297C97.4956 157.211 97.3651 169.315 98.3552 181.228C98.4857 182.795 99.7532 184.215 100.466 185.613C101.179 187.011 102.609 188.17 104.176 188.072C106.227 187.947 107.571 185.869 108.207 183.91C110.546 176.833 108.055 169.184 108.147 161.715Z" fill="#263238"/>
<path d="M100.716 145.694C100.303 144.909 99.7732 144.192 99.1439 143.567C98.8264 143.257 98.4428 143.022 98.0216 142.88C97.6005 142.739 97.1528 142.695 96.7122 142.751C96.5047 142.777 96.3072 142.856 96.1386 142.979C95.9701 143.103 95.836 143.268 95.7493 143.458C95.6133 143.85 95.9071 144.378 96.3205 144.34L96.4076 144.416C97.3324 145.236 98.2735 146.035 99.2309 146.815C99.4594 147.028 99.7274 147.194 100.02 147.305C100.167 147.358 100.326 147.369 100.479 147.336C100.632 147.304 100.772 147.229 100.885 147.12C101.227 146.739 100.977 146.135 100.716 145.694Z" fill="#FF725E"/>
<path d="M102.462 148.73C99.3833 144.966 95.2489 142.795 90.3855 142.746C87.6655 142.697 86.5068 143.29 84.5321 143.801C82.5547 144.279 80.8071 145.434 79.5925 147.065C78.1945 149.051 77.0194 151.276 76.7529 153.697C76.4043 156.17 76.2859 158.671 76.3993 161.166C76.5134 163.673 77.3193 166.1 78.7276 168.178L85.0597 169.266C88.5577 169.386 92.1045 169.5 95.5154 168.722C98.9263 167.944 102.234 166.089 104.056 163.102C106.591 158.925 105.536 152.489 102.462 148.73Z" fill="#263238"/>
<path d="M96.8319 148.686L88.3891 145.329L86.1804 145.585C81.2191 145.585 77.7919 151.079 77.7593 155.094C77.7267 159.566 77.8572 165.016 78.5644 168.308C79.9951 174.928 85.6364 175.478 85.6364 175.478C85.6364 175.478 85.5222 179.008 85.4787 181.228L98.4095 180.297L99.0569 150.954C99.0373 150.366 98.7979 149.807 98.3859 149.387C97.9739 148.967 97.4194 148.717 96.8319 148.686Z" fill="#FFBF9D"/>
<path d="M88.4925 166.758C88.4403 166.419 88.2661 166.112 88.0029 165.893C87.7634 165.687 87.4628 165.565 87.1472 165.546C86.8317 165.527 86.5188 165.613 86.2567 165.789C85.9846 165.999 85.7732 166.277 85.6441 166.596C85.5151 166.914 85.473 167.261 85.5223 167.601C85.6676 167.805 85.855 167.976 86.0717 168.101C86.2885 168.227 86.5296 168.305 86.7789 168.33C86.8568 168.335 86.9349 168.335 87.0128 168.33C87.4164 168.338 87.8071 168.188 88.1008 167.911C88.2485 167.761 88.3605 167.579 88.4283 167.379C88.4961 167.179 88.518 166.967 88.4925 166.758Z" fill="#FF9A6C"/>
<path d="M79.9951 160.746C80.0036 160.97 80.0996 161.181 80.2624 161.335C80.4252 161.489 80.6417 161.572 80.8655 161.568C80.975 161.57 81.0839 161.55 81.1857 161.51C81.2876 161.47 81.3804 161.41 81.4589 161.333C81.5373 161.257 81.5998 161.166 81.6427 161.065C81.6856 160.964 81.708 160.856 81.7087 160.746C81.6975 160.523 81.5999 160.312 81.4366 160.159C81.2732 160.006 81.0568 159.922 80.8329 159.925C80.7236 159.923 80.6151 159.942 80.5135 159.983C80.412 160.023 80.3195 160.083 80.2415 160.16C80.1634 160.236 80.1015 160.327 80.0592 160.428C80.0169 160.529 79.9951 160.637 79.9951 160.746Z" fill="#263238"/>
<path d="M79.2716 157.33C79.3804 157.433 80.006 156.922 80.9036 156.873C81.8012 156.824 82.5356 157.248 82.6227 157.129C82.7097 157.009 82.5465 156.878 82.2419 156.683C81.8278 156.428 81.3451 156.308 80.8601 156.34C80.3811 156.364 79.922 156.539 79.5491 156.84C79.2988 157.074 79.2118 157.281 79.2716 157.33Z" fill="#263238"/>
<path d="M85.1903 164.56C84.6968 164.43 84.1883 164.366 83.678 164.369C83.4441 164.369 83.2156 164.326 83.1666 164.163C83.1371 163.922 83.1787 163.678 83.2863 163.461C83.4767 162.879 83.678 162.27 83.8847 161.628C84.7116 159.027 85.2991 156.889 85.1903 156.857C85.0815 156.824 84.3308 158.908 83.5039 161.513L82.9599 163.352C82.826 163.644 82.8009 163.974 82.8892 164.282C82.9268 164.363 82.9828 164.435 83.0526 164.49C83.1225 164.546 83.2044 164.585 83.2917 164.603C83.4239 164.632 83.5593 164.643 83.6943 164.636C84.1942 164.67 84.6964 164.644 85.1903 164.56Z" fill="#263238"/>
<path d="M85.6255 175.472C88.773 175.347 91.824 174.351 94.4383 172.594C94.4383 172.594 92.3113 177.354 85.5929 177.099L85.6255 175.472Z" fill="#FF9A6C"/>
<path d="M87.9376 165.045C87.7907 165.045 87.8397 166.045 87.0237 166.802C86.2077 167.558 85.136 167.509 85.136 167.65C85.136 167.792 85.3862 167.83 85.8323 167.819C86.4206 167.796 86.9816 167.564 87.4153 167.166C87.8305 166.786 88.082 166.259 88.1171 165.697C88.128 165.278 88.0083 165.039 87.9376 165.045Z" fill="#263238"/>
<path d="M79.5817 154.105C79.7504 154.317 80.4467 154.132 81.2736 154.154C82.1005 154.176 82.7968 154.355 82.9709 154.154C83.047 154.051 82.9437 153.838 82.6445 153.61C82.2399 153.347 81.7669 153.209 81.2845 153.213C80.8019 153.2 80.3259 153.326 79.9136 153.577C79.6144 153.784 79.511 153.996 79.5817 154.105Z" fill="#263238"/>
<path d="M90.0537 160.518C90.0582 160.741 89.9756 160.958 89.8232 161.121C89.6709 161.285 89.4609 161.382 89.2377 161.394C89.1289 161.404 89.0191 161.393 88.9147 161.36C88.8104 161.328 88.7136 161.275 88.63 161.204C88.5464 161.134 88.4777 161.047 88.4279 160.95C88.3781 160.853 88.3483 160.746 88.3401 160.637C88.3354 160.414 88.4172 160.198 88.5682 160.034C88.7193 159.87 88.928 159.77 89.1507 159.756C89.2602 159.746 89.3707 159.757 89.4757 159.79C89.5807 159.823 89.6781 159.876 89.7622 159.947C89.8463 160.018 89.9154 160.105 89.9655 160.203C90.0155 160.301 90.0455 160.408 90.0537 160.518Z" fill="#263238"/>
<path d="M91.7401 156.972C91.6368 157.086 90.9785 156.618 90.0537 156.634C89.1289 156.651 88.4652 157.129 88.3619 157.015C88.2585 156.901 88.4163 156.765 88.71 156.542C89.1031 156.258 89.5746 156.104 90.0592 156.101C90.5391 156.09 91.0099 156.233 91.4028 156.509C91.6912 156.721 91.7945 156.923 91.7401 156.972Z" fill="#263238"/>
<path d="M91.1851 154.023C91.0111 154.235 90.293 154.023 89.4389 154.023C88.5848 154.023 87.8559 154.192 87.6872 153.974C87.6111 153.871 87.7253 153.658 88.0354 153.43C88.4653 153.178 88.9572 153.052 89.4552 153.065C89.9499 153.06 90.4355 153.198 90.8533 153.463C91.1634 153.702 91.2667 153.92 91.1851 154.023Z" fill="#263238"/>
<path d="M97.92 162.172C97.92 161.677 98.4041 160.475 98.8937 160.371C100.194 160.094 102.56 160.067 102.767 163.396C103.05 167.949 98.415 167.291 98.415 167.16C98.415 167.03 98.0016 163.891 97.92 162.172Z" fill="#FFBF9D"/>
<path d="M99.552 165.419C99.552 165.419 99.6336 165.473 99.7696 165.522C99.9614 165.6 100.176 165.6 100.368 165.522C100.836 165.315 101.195 164.527 101.168 163.705C101.154 163.314 101.054 162.932 100.874 162.585C100.823 162.444 100.738 162.319 100.627 162.219C100.516 162.12 100.382 162.049 100.237 162.013C100.145 161.995 100.05 162.01 99.9676 162.054C99.8851 162.099 99.8209 162.171 99.7859 162.258C99.7315 162.389 99.7859 162.481 99.7424 162.487C99.6989 162.492 99.639 162.416 99.6662 162.226C99.6843 162.111 99.7421 162.007 99.8294 161.932C99.8877 161.88 99.9558 161.841 100.03 161.817C100.104 161.792 100.182 161.783 100.259 161.79C100.449 161.813 100.629 161.886 100.782 162C100.935 162.115 101.055 162.268 101.13 162.443C101.347 162.825 101.468 163.255 101.483 163.694C101.51 164.614 101.092 165.5 100.45 165.729C100.33 165.772 100.201 165.789 100.074 165.776C99.9474 165.764 99.8247 165.724 99.7152 165.658C99.552 165.533 99.552 165.43 99.552 165.419Z" fill="#FF9A6C"/>
<path d="M99.0677 160.383L97.9199 161.568C92.926 156.787 83.1666 144.819 83.716 145.531C85.9923 144.685 88.4448 144.425 90.8479 144.775C94.5634 145.406 101.603 147.267 101.494 151.646C101.385 156.025 99.0677 160.383 99.0677 160.383Z" fill="#263238"/>
<path d="M105.683 159.392C105.668 159.303 105.644 159.215 105.612 159.131C105.529 158.883 105.425 158.643 105.302 158.413C104.831 157.57 104.181 156.84 103.398 156.275C102.244 155.446 100.956 154.822 99.59 154.431C98.0668 153.936 96.3532 153.549 94.6668 152.799C93.0765 152.136 91.5685 151.291 90.1734 150.28C89.0323 149.454 87.9689 148.525 86.9964 147.506C86.344 146.816 85.7319 146.089 85.1631 145.33L84.7062 144.698C84.6552 144.622 84.5969 144.551 84.5321 144.486C84.5703 144.57 84.6158 144.65 84.6681 144.726C84.7606 144.878 84.8966 145.101 85.087 145.378C85.6316 146.166 86.2296 146.914 86.8767 147.62C89.024 149.954 91.6521 151.796 94.5798 153.016C96.2002 153.63 97.8507 154.162 99.5247 154.61C100.885 154.981 102.172 155.579 103.333 156.378C104.107 156.922 104.761 157.621 105.253 158.429C105.536 159.022 105.656 159.392 105.683 159.392Z" fill="#455A64"/>
<path d="M104.355 160.094C104.37 159.753 104.311 159.414 104.181 159.098C103.838 158.228 103.241 157.482 102.468 156.955C101.311 156.21 100.016 155.705 98.6598 155.47C97.0371 155.145 95.4554 154.641 93.9433 153.968C92.4376 153.281 91.0232 152.41 89.7328 151.374C88.6829 150.524 87.7174 149.574 86.8496 148.539C86.2584 147.837 85.7133 147.098 85.2176 146.325L84.8313 145.689C84.7914 145.612 84.7421 145.541 84.6844 145.477C84.7148 145.557 84.7511 145.635 84.7932 145.71L85.1414 146.374C85.6044 147.167 86.1244 147.925 86.6972 148.643C87.5547 149.705 88.519 150.677 89.575 151.542C90.8731 152.599 92.3008 153.486 93.8237 154.181C95.3492 154.861 96.9483 155.363 98.5891 155.677C99.9206 155.898 101.196 156.379 102.343 157.091C103.101 157.59 103.698 158.299 104.062 159.131C104.189 159.442 104.287 159.765 104.355 160.094Z" fill="#455A64"/>
<path d="M98.9155 168.096C98.9155 168.063 99.3017 168.014 99.9763 167.834C100.922 167.561 101.793 167.076 102.522 166.415C103.591 165.415 104.402 164.172 104.889 162.792C105.51 161.109 105.845 159.335 105.879 157.542C105.899 156.616 105.825 155.689 105.656 154.778C105.199 152.487 104.123 150.364 102.544 148.642C101.616 147.656 100.591 146.765 99.4867 145.982C99.4867 145.982 99.5791 146.015 99.7423 146.112C99.9055 146.21 100.139 146.341 100.428 146.548C101.254 147.115 102.017 147.769 102.702 148.501C103.728 149.584 104.558 150.838 105.155 152.205C105.501 153.016 105.766 153.86 105.944 154.724C106.119 155.655 106.197 156.601 106.178 157.547C106.145 159.374 105.797 161.181 105.15 162.889C104.635 164.302 103.781 165.567 102.664 166.572C101.901 167.236 100.991 167.708 100.009 167.949C99.7418 168.009 99.471 168.053 99.1983 168.079C99.1046 168.092 99.01 168.097 98.9155 168.096Z" fill="#455A64"/>
<path d="M104.709 224.079L77.7919 227.99C67.679 230.852 57.0275 231.69 45.8918 230.71L86.4035 249.609L102.669 249.859C102.669 249.859 107.619 249.859 108.484 245.54C109.349 241.221 110.312 228.067 110.312 228.067C110.312 228.067 107.097 225.281 104.709 224.079Z" fill="black"/>
<g opacity="0.3">
<path d="M104.627 235.41C105.072 238.106 105.233 240.841 105.106 243.57C105.933 242.663 106.542 241.579 106.887 240.4C107.232 239.222 107.304 237.981 107.097 236.77C106.863 235.443 106.308 233.98 107.005 232.821C107.472 232.043 108.707 231.151 108.528 230.264C108.528 230.264 107.44 230.264 106.466 230.226C105.677 230.193 104.04 230.145 104.04 230.145C104.744 231.837 104.897 233.708 104.475 235.492" fill="black"/>
</g>
<path d="M85.5222 180.118L98.5999 178.704L100.994 180.88L91.6585 186.374L87.5404 188.506L83.4713 187.272L82.182 184.845L85.5222 180.118Z" fill="#FFBF9D"/>
<path d="M67.8911 196.041C67.8911 196.041 71.9929 188.174 73.0047 186.455C74.7346 183.523 77.966 181.864 77.966 181.864L85.5222 180.118C85.5222 180.118 84.7388 183.926 89.439 184.165C95.423 184.497 99.1385 178.763 99.1385 178.763C99.1385 178.763 105.96 179.465 107.842 180.254C109.725 181.043 115.056 183.278 115.839 190.361L117.667 201.932L103.251 203.02L103.447 218.426L97.3215 223.436C97.3215 223.436 79.734 229.491 78.6079 229.888C78.0639 230.079 78.2054 222.604 76.9487 216.196L74.5769 210.435C73.6168 208.134 73.0486 205.688 72.8959 203.2C72.8034 201.568 72.847 200.316 72.847 200.316C72.847 200.316 69.1478 199.049 67.8911 196.041Z" fill="#FFC300"/>
<path d="M79.2499 223.851L103.42 216.6L103.251 203.032L115.556 202.097C115.556 202.097 114.577 209.125 114.43 212.726C114.224 217.911 111.71 225.157 110.078 226.691C108.446 228.225 78.6243 229.901 78.6243 229.901L79.2499 223.851Z" fill="#FFBF9D"/>
<path d="M65.541 228.115C65.6576 228.315 65.8427 228.465 66.0619 228.538C66.2811 228.611 66.5194 228.602 66.7324 228.513C67.2764 228.295 67.1295 227.196 67.1295 227.196L69.7026 226.565C69.7026 226.565 73.2549 228.491 74.5986 229.829C75.9423 231.167 78.8962 229.769 78.8962 229.769L79.5109 224.128L74.381 220.162C74.381 220.162 74.6965 220.402 74.2994 219.618C73.9023 218.835 72.4226 219.259 72.4226 219.259C72.1615 218.873 71.166 218.808 71.166 218.808L66.9935 219.618C66.5701 219.701 66.1705 219.877 65.8241 220.134C65.4777 220.391 65.1932 220.722 64.9916 221.103L63.4303 224.057C63.4303 224.057 62.6469 226.157 62.8373 226.619C62.9194 226.811 63.0689 226.965 63.2575 227.054C63.4461 227.142 63.6605 227.158 63.86 227.098C63.86 227.098 64.1701 228.415 64.5237 228.431C64.881 228.387 65.2264 228.274 65.541 228.099V228.115Z" fill="#FFBF9D"/>
<path d="M74.1853 223.437C74.1853 223.481 73.6413 223.47 72.7273 223.579C71.5635 223.727 70.4253 224.033 69.3437 224.487C68.7498 224.741 68.1768 225.041 67.6301 225.385C67.1459 225.706 66.6345 225.983 66.4985 226.37C66.4692 226.453 66.4618 226.542 66.477 226.629C66.4923 226.715 66.5297 226.797 66.5856 226.865C66.6716 226.978 66.7889 227.063 66.9229 227.109C67.1513 227.18 67.2873 227.109 67.2982 227.109C67.3091 227.109 67.1731 227.235 66.8957 227.186C66.7314 227.149 66.5829 227.061 66.4713 226.935C66.3913 226.849 66.3351 226.744 66.3084 226.629C66.2816 226.515 66.2853 226.395 66.319 226.283C66.4119 226.029 66.5786 225.809 66.7977 225.652C67.0153 225.483 67.2438 225.314 67.4995 225.146C69.0579 224.125 70.8484 223.513 72.7056 223.367C73.1994 223.31 73.6991 223.334 74.1853 223.437Z" fill="#FF9A6C"/>
<path d="M74.6911 226.098C74.6911 226.174 72.972 226.239 70.8831 226.522C68.7941 226.805 67.1186 227.196 67.0751 227.12C67.4203 226.954 67.7862 226.835 68.1631 226.767C69.0447 226.545 69.9383 226.374 70.8396 226.255C71.7414 226.133 72.6496 226.062 73.5596 226.043C73.9374 226.01 74.3182 226.028 74.6911 226.098Z" fill="#FF9A6C"/>
<path d="M65.5574 228.007C65.5133 227.863 65.4841 227.716 65.4704 227.566C65.4143 227.157 65.3816 226.744 65.3724 226.331C65.3677 226.044 65.3859 225.756 65.4268 225.472C65.4772 225.137 65.5937 224.815 65.7696 224.525C66.1314 223.855 66.6234 223.263 67.2166 222.784C67.8034 222.305 68.4555 221.911 69.1532 221.615C69.7316 221.4 70.3348 221.259 70.9484 221.196C71.4924 221.136 71.8841 221.12 72.1779 221.103C72.3276 221.081 72.4797 221.081 72.6294 221.103C72.0913 221.226 71.5463 221.317 70.9974 221.375C70.4054 221.462 69.8251 221.616 69.2675 221.832C68.5982 222.131 67.9723 222.519 67.407 222.986C66.8432 223.439 66.3674 223.992 66.0035 224.618C65.7131 225.133 65.5683 225.718 65.5846 226.31C65.5411 227.359 65.6172 228.007 65.5574 228.007Z" fill="#FF9A6C"/>
<path d="M71.0463 219.907C71.0463 219.95 70.4207 220.016 69.4143 220.206C68.4079 220.396 66.9119 220.62 66.1503 222.023C65.3729 223.087 64.7451 224.253 64.2844 225.488C64.1408 226.013 64.0478 226.551 64.0069 227.093C63.9561 226.95 63.9357 226.798 63.9471 226.647C63.9372 226.237 63.9886 225.828 64.0994 225.434C64.5134 224.156 65.1306 222.953 65.9272 221.871C66.1389 221.543 66.3932 221.245 66.6834 220.984C66.9633 220.744 67.2864 220.559 67.6354 220.44C68.2074 220.242 68.7979 220.101 69.398 220.021C69.9405 219.914 70.4942 219.876 71.0463 219.907Z" fill="#FF9A6C"/>
<path d="M73.5869 229.024C73.4927 228.975 73.4035 228.916 73.3203 228.85L72.575 228.344C71.6359 227.726 70.6624 227.161 69.6592 226.652H69.719L67.1514 227.3L67.233 227.18C67.2575 227.393 67.2575 227.609 67.233 227.822C67.2169 228.057 67.1317 228.282 66.9882 228.469C66.899 228.563 66.7832 228.628 66.6563 228.654C66.5394 228.695 66.4154 228.712 66.2918 228.703C66.0364 228.685 65.7956 228.577 65.6118 228.399C65.5673 228.352 65.5255 228.303 65.4867 228.252V228.214L65.639 228.257L65.5574 228.295C65.4517 228.351 65.3427 228.4 65.231 228.442C65.1172 228.487 65.001 228.525 64.8829 228.556C64.8207 228.575 64.757 228.587 64.6925 228.594C64.6099 228.608 64.5253 228.599 64.4477 228.567C64.3235 228.489 64.2251 228.375 64.1648 228.241C64.1045 228.128 64.0518 228.012 64.007 227.893C63.9156 227.657 63.8411 227.415 63.784 227.169L63.9418 227.262C63.7684 227.315 63.5837 227.319 63.408 227.274C63.2323 227.229 63.0725 227.136 62.9462 227.006C62.8149 226.867 62.7377 226.686 62.7286 226.495C62.7282 226.323 62.7446 226.152 62.7776 225.983C62.9231 225.328 63.1159 224.685 63.3542 224.057L64.1866 222.48L64.7306 221.484C64.8918 221.14 65.0888 220.814 65.3181 220.511C65.5674 220.219 65.8726 219.98 66.2157 219.809C66.5503 219.655 66.906 219.552 67.271 219.504L71.1987 218.748H71.2314C71.4729 218.766 71.7117 218.81 71.944 218.879C72.1906 218.933 72.4135 219.065 72.5805 219.254L72.4282 219.221C72.6354 219.107 72.8673 219.044 73.1042 219.038C73.341 219.032 73.5756 219.084 73.7882 219.189C74.1556 219.421 74.4233 219.782 74.5389 220.201L74.5008 220.152L78.0368 222.872L78.9888 223.622C79.1035 223.705 79.2109 223.798 79.3098 223.9C79.1848 223.835 79.0664 223.759 78.9562 223.671L77.9715 222.959L74.3811 220.315H74.3539V220.277C74.2527 219.912 74.0176 219.599 73.6957 219.401C73.5163 219.315 73.3187 219.273 73.1198 219.28C72.9209 219.286 72.7265 219.341 72.5533 219.439L72.4608 219.482L72.401 219.406C72.2626 219.263 72.0845 219.164 71.8896 219.123C71.6727 219.063 71.4504 219.025 71.2259 219.009H71.2586L67.3309 219.782C66.988 219.826 66.654 219.923 66.3408 220.07C66.032 220.223 65.758 220.438 65.5357 220.701C65.3214 220.991 65.1391 221.303 64.9917 221.631L64.4477 222.627C64.1594 223.171 63.9037 223.715 63.6154 224.204C63.391 224.819 63.2092 225.447 63.0714 226.087C63.0401 226.235 63.0237 226.386 63.0224 226.538C63.0297 226.669 63.0837 226.792 63.1747 226.886C63.2683 226.98 63.3854 227.047 63.5137 227.079C63.6421 227.112 63.7768 227.109 63.9037 227.071L64.0342 227.039V227.164C64.0941 227.398 64.1648 227.637 64.2464 227.86C64.3061 228.064 64.4144 228.251 64.5619 228.404C64.5974 228.415 64.6352 228.415 64.6707 228.404L64.8285 228.371C64.9384 228.347 65.0459 228.312 65.1494 228.268C65.2528 228.23 65.3562 228.181 65.4595 228.132L65.5357 228.099L65.6934 228.143V228.17C65.7231 228.212 65.7558 228.252 65.7914 228.29C65.8928 228.398 66.0229 228.475 66.1665 228.511C66.3101 228.548 66.4612 228.543 66.6019 228.497C66.6888 228.482 66.7687 228.44 66.8304 228.377C67.0221 228.049 67.0933 227.664 67.0317 227.289V227.191H67.1187L69.6973 226.582H69.7299C70.7325 227.104 71.6977 227.694 72.6186 228.35C72.9395 228.584 73.1626 228.769 73.3421 228.894C73.4267 228.931 73.5085 228.975 73.5869 229.024Z" fill="#FF9A6C"/>
<path d="M61.0204 232.517C61.0204 232.517 43.966 227.159 38.6131 225.445C29.3651 222.453 23.3484 225.478 21.4444 228.774C18.9747 233.055 24.8988 241.406 27.1836 243.326C33.9456 249.011 45.5382 249.778 45.5382 249.778L87.2195 249.702L75.072 233.175L61.0204 232.517Z" fill="black"/>
<path d="M63.5773 240.252C56.6316 241.061 49.5942 240.103 43.1174 237.467C42.0124 236.967 40.8746 236.544 39.712 236.199C38.5626 235.91 37.3711 235.825 36.1923 235.949C35.7245 235.961 35.2638 236.067 34.8377 236.26C34.4115 236.454 34.0286 236.731 33.7117 237.075C32.8793 238.163 33.3037 239.73 33.7661 241.025C34.3101 242.548 34.8541 244.104 35.9421 245.322C37.1769 246.742 38.9721 247.558 40.7728 248.124C44.2925 249.212 48.008 249.555 51.6963 249.696L64.3606 249.005L63.5773 240.252Z" fill="#E0E0E0"/>
<path d="M39.119 236.205C39.2022 236.307 39.2667 236.423 39.3094 236.548C39.4565 236.873 39.5695 237.212 39.6467 237.56C39.9201 238.717 39.8721 239.928 39.5077 241.06C39.1434 242.192 38.4767 243.203 37.5795 243.984C37.3124 244.218 37.0247 244.428 36.7199 244.61C36.4969 244.735 36.3718 244.789 36.3609 244.773C36.35 244.757 36.8179 244.458 37.4489 243.843C38.2768 243.051 38.8941 242.065 39.2446 240.975C39.5951 239.884 39.6679 238.724 39.4563 237.598C39.3039 236.727 39.0755 236.221 39.119 236.205Z" fill="#263238"/>
<path d="M104.551 231.472C103.561 228.665 103.398 224.542 97.2889 222.561C91.1798 220.581 86.5667 224.378 83.4278 225.695C80.2889 227.011 63.1366 236.422 63.1366 236.422C63.1366 236.422 59.9052 242.183 60.8246 244.729C61.7439 247.275 65.9219 249.789 65.9219 249.789H85.1087C90.0591 249.789 99.2528 249.62 99.2528 249.62C100.484 247.602 101.587 245.509 102.555 243.353L102.718 242.526C102.734 241.868 105.536 234.279 104.551 231.472Z" fill="black"/>
<path d="M93.9215 246.046C93.8966 246.143 93.848 246.233 93.7801 246.307C93.594 246.522 93.3821 246.714 93.149 246.878C92.2923 247.469 91.3816 247.977 90.429 248.396C89.7784 248.699 89.1098 248.962 88.4271 249.185C87.6368 249.433 86.827 249.615 86.0063 249.729C84.1338 249.915 82.2518 249.988 80.3705 249.946C76.3829 250.011 72.7545 250.164 70.1433 250.131C68.8322 250.131 67.7714 250.071 67.0425 249.995C66.7612 249.97 66.4816 249.93 66.2047 249.875C66.1066 249.864 66.01 249.842 65.9164 249.81C65.9164 249.783 66.3189 249.854 67.0479 249.892C67.7769 249.93 68.8377 249.957 70.1433 249.946C72.7599 249.946 76.3721 249.745 80.3705 249.68C82.2422 249.72 84.1147 249.655 85.9791 249.484C86.7852 249.385 87.582 249.221 88.3618 248.994C89.0402 248.785 89.7051 248.534 90.3529 248.243C91.2989 247.845 92.2089 247.367 93.0729 246.813C93.3078 246.655 93.5249 246.473 93.7202 246.269C93.8725 246.138 93.9052 246.04 93.9215 246.046Z" fill="#263238"/>
<path d="M65.9219 249.789L65.6662 249.653C65.503 249.56 65.2636 249.408 64.9536 249.207C64.0513 248.618 63.2063 247.946 62.4294 247.199C61.8666 246.66 61.3864 246.04 61.0041 245.361C60.6134 244.51 60.514 243.554 60.7212 242.641C61.1877 240.454 61.9702 238.346 63.0441 236.385V236.357C66.1884 234.628 69.7951 232.664 73.7337 230.548C75.703 229.492 77.7539 228.399 79.8864 227.284C80.9744 226.74 82.0624 226.196 83.1504 225.652C84.2384 225.108 85.3536 224.564 86.4796 223.976C88.0354 223.124 89.7039 222.495 91.4355 222.11C92.286 221.94 93.1523 221.862 94.0195 221.876C94.868 221.902 95.711 222.022 96.5327 222.235C98.126 222.628 99.6219 223.342 100.928 224.335C101.536 224.838 102.074 225.42 102.528 226.065C102.945 226.701 103.29 227.381 103.556 228.094C103.828 228.79 104.018 229.492 104.214 230.178C104.438 230.844 104.62 231.523 104.758 232.212C104.844 233.529 104.734 234.85 104.432 236.134C104.187 237.358 103.888 238.501 103.578 239.562C103.425 240.106 103.273 240.612 103.131 241.107C102.99 241.602 102.827 242.091 102.751 242.526C102.685 242.836 102.636 243.07 102.582 243.348C102.058 245.029 101.317 246.634 100.379 248.124C100.046 248.657 99.6539 249.15 99.2092 249.593L99.28 249.495C99.3398 249.424 99.416 249.337 99.5084 249.218C99.7967 248.855 100.065 248.477 100.314 248.086C101.22 246.587 101.934 244.981 102.441 243.304C102.751 243.043 102.691 242.788 102.598 242.477C102.693 241.981 102.817 241.491 102.968 241.009L103.409 239.469C103.703 238.381 103.996 237.26 104.236 236.047C104.526 234.784 104.628 233.484 104.54 232.19C104.397 231.515 104.216 230.848 103.996 230.194C103.795 229.508 103.599 228.812 103.333 228.132C103.073 227.436 102.736 226.772 102.326 226.152C101.885 225.528 101.362 224.966 100.771 224.482C98.8141 223.016 96.4572 222.181 94.014 222.088C93.1666 222.074 92.3203 222.153 91.4899 222.322C89.7787 222.702 88.1302 223.323 86.5939 224.166C85.5059 224.71 84.4179 225.363 83.2483 225.847C82.0787 226.332 81.0723 226.908 79.9843 227.479C77.8572 228.567 75.8009 229.655 73.8316 230.743L63.1257 236.515L63.1638 236.472C62.093 238.411 61.3071 240.494 60.83 242.657C60.6154 243.539 60.7016 244.468 61.0748 245.295C61.4411 245.969 61.9069 246.583 62.4566 247.118C63.2195 247.87 64.0478 248.553 64.9318 249.158L65.6281 249.626C65.824 249.729 65.9219 249.789 65.9219 249.789Z" fill="#263238"/>
<path d="M97.1475 242.668C97.1475 242.668 102.865 243.353 102.359 246.15C101.853 248.946 99.9817 249.887 99.9817 249.887L84.4451 249.919C84.4451 249.919 93.7203 249.278 97.1475 242.668Z" fill="#E0E0E0"/>
<path d="M97.7023 241.313C97.701 241.585 97.6417 241.854 97.5282 242.102C97.3178 242.727 97.0053 243.314 96.6034 243.837C96.0616 244.6 95.3037 245.184 94.4274 245.513C95.1489 244.971 95.8109 244.355 96.4022 243.674C96.9009 242.925 97.3358 242.135 97.7023 241.313Z" fill="#263238"/>
<path d="M95.744 242.406C95.7532 243.108 95.5646 243.798 95.2 244.397C94.9208 245.033 94.4937 245.593 93.9542 246.029C93.8944 245.98 94.4547 245.257 94.9606 244.261C95.4666 243.266 95.6461 242.395 95.744 242.406Z" fill="#263238"/>
<path d="M103.012 249.109C102.968 249.109 103.338 248.38 103.784 247.178C104.955 244.038 105.342 240.66 104.91 237.337C104.742 236.069 104.546 235.291 104.589 235.28C104.675 235.452 104.738 235.635 104.774 235.824C104.909 236.317 105.016 236.816 105.095 237.32C105.64 240.672 105.248 244.11 103.964 247.254C103.77 247.717 103.55 248.169 103.305 248.608C103.228 248.786 103.129 248.954 103.012 249.109Z" fill="#455A64"/>
<g opacity="0.3">
<path d="M99.7806 241.16C99.737 240.785 99.5902 240.339 99.2366 240.263C98.7796 240.17 98.4695 240.692 98.29 241.117C96.2881 245.67 89.8199 249.222 84.8641 249.696C87.2677 249.69 89.667 249.494 92.0394 249.108C94.0626 248.805 95.9594 247.938 97.5121 246.606C98.2841 245.934 98.8905 245.093 99.284 244.149C99.6775 243.204 99.8474 242.181 99.7806 241.16Z" fill="black"/>
</g>
<path d="M61.9289 234.965C60.9815 234.699 60.0602 234.347 59.1763 233.915C58.2574 233.567 57.3725 233.135 56.5324 232.625C57.4786 232.893 58.3996 233.242 59.2851 233.67C60.2041 234.02 61.0891 234.453 61.9289 234.965Z" fill="#263238"/>
<g opacity="0.2">
<path d="M67.4559 232.56C60.0575 231.146 52.6319 229.889 45.1791 228.79L39.6303 230.542C41.1862 233.436 44.2598 235.28 47.453 236.042C50.6463 236.803 53.981 236.624 57.245 236.324C60.8463 235.993 64.5455 235.487 67.679 233.681C67.9183 233.545 68.1903 233.338 68.1577 233.06C68.125 232.783 67.7769 232.62 67.4559 232.56Z" fill="black"/>
</g>
<path d="M31.0406 210.528L40.3648 231.146C40.5534 231.566 40.8587 231.923 41.2445 232.175C41.6302 232.427 42.0802 232.562 42.5408 232.566L69.7408 232.919L73.168 231.075L67.7987 230.684L59.4429 210.632C59.3128 210.32 59.0939 210.053 58.8134 209.864C58.533 209.676 58.2032 209.574 57.8653 209.571L31.8131 209.375C31.6741 209.37 31.5362 209.401 31.4123 209.464C31.2885 209.527 31.1828 209.621 31.1054 209.736C31.028 209.852 30.9815 209.985 30.9701 210.124C30.9588 210.263 30.983 210.402 31.0406 210.528Z" fill="#E0E0E0"/>
<path d="M31.0406 210.528C30.9961 210.452 30.9683 210.366 30.959 210.278C30.9418 210.147 30.956 210.015 31.0005 209.891C31.045 209.767 31.1184 209.655 31.2147 209.565C31.3634 209.427 31.5561 209.346 31.7587 209.337H34.1468L45.054 209.375L52.6374 209.413L56.8752 209.44H57.9632C58.3661 209.469 58.7483 209.63 59.0512 209.897C59.343 210.171 59.5586 210.516 59.6768 210.898L60.1228 211.986C62.5001 217.682 65.1276 223.981 67.9129 230.64L67.7824 230.547L72.9667 230.928H73.1516L73.6956 230.966L73.2332 231.217L69.806 233.061H69.768H69.7299L49.1123 232.778L44.51 232.713C43.7593 232.713 43.0412 232.713 42.296 232.669C41.9237 232.625 41.5657 232.5 41.247 232.303C40.9284 232.105 40.6569 231.84 40.4518 231.527C39.2387 228.975 38.2268 226.631 37.2422 224.455L32.6835 214.26C32.1395 213.069 31.7478 212.139 31.4649 211.491C31.3289 211.187 31.231 210.947 31.1548 210.773C31.0787 210.599 31.0569 210.523 31.0569 210.523C31.1034 210.6 31.1452 210.68 31.182 210.762L31.5193 211.469C31.8131 212.106 32.2374 213.031 32.7868 214.189L37.4326 224.351C38.4172 226.489 39.4726 228.894 40.6585 231.374C40.8431 231.657 41.0882 231.896 41.376 232.073C41.6639 232.249 41.9873 232.36 42.3232 232.397C43.0195 232.43 43.7756 232.424 44.4992 232.435L49.1014 232.49L69.719 232.74H69.6428L73.07 230.89L73.1353 231.179H72.9504L67.766 230.803H67.6736L67.6355 230.722C64.8665 224.052 62.2444 217.753 59.8726 212.051L59.432 210.991C59.335 210.645 59.1471 210.331 58.888 210.082C58.6293 209.849 58.2998 209.709 57.9523 209.685H56.8643L52.6265 209.647L45.0486 209.571L34.1305 209.44H32.4224H31.7478C31.64 209.444 31.5342 209.47 31.4368 209.516C31.3394 209.563 31.2524 209.628 31.1811 209.709C31.1099 209.79 31.0558 209.885 31.0223 209.987C30.9888 210.09 30.9765 210.198 30.9862 210.305C31.0002 210.381 31.0184 210.455 31.0406 210.528Z" fill="#263238"/>
<path d="M66.9772 232.881C66.9265 232.81 66.8845 232.733 66.8521 232.652L66.542 231.989C66.27 231.369 65.9001 230.531 65.454 229.519C64.5455 227.425 63.3106 224.53 61.9833 221.31C60.6559 218.089 59.4809 215.168 58.6703 213.041C58.2623 211.953 57.9414 211.11 57.7346 210.506C57.6367 210.229 57.5606 210 57.4953 209.81C57.4648 209.729 57.4429 209.645 57.43 209.56C57.4798 209.63 57.52 209.707 57.5497 209.788L57.8326 210.468C58.0882 211.099 58.431 211.942 58.8444 212.97C59.7257 215.114 60.917 218.008 62.2281 221.212C63.5391 224.416 64.7468 227.299 65.6281 229.443L66.6454 231.945C66.7487 232.223 66.8358 232.446 66.9065 232.631C66.9442 232.709 66.9681 232.794 66.9772 232.881Z" fill="#263238"/>
<path d="M50.1132 220.521C50.1143 220.786 50.0366 221.046 49.89 221.267C49.7433 221.488 49.5344 221.66 49.2896 221.762C49.0449 221.864 48.7754 221.891 48.5153 221.839C48.2552 221.788 48.0162 221.66 47.8287 221.473C47.6412 221.286 47.5137 221.047 47.4622 220.786C47.4108 220.526 47.4377 220.257 47.5397 220.012C47.6416 219.767 47.814 219.558 48.0349 219.412C48.2558 219.265 48.5153 219.187 48.7804 219.188C49.1339 219.188 49.4729 219.329 49.7229 219.579C49.9728 219.829 50.1132 220.168 50.1132 220.521Z" fill="white"/>
<path d="M76.5788 187.354C76.6223 187.354 76.2307 188.11 75.6812 189.328C74.2431 192.509 73.3036 195.893 72.8959 199.36C72.7327 200.692 72.6892 201.536 72.6403 201.536C72.6111 201.341 72.6111 201.143 72.6403 200.948C72.6403 200.573 72.6403 200.029 72.7164 199.354C73.0239 195.843 73.9793 192.42 75.5343 189.258C75.8335 188.654 76.0783 188.17 76.2905 187.854C76.3661 187.676 76.4629 187.508 76.5788 187.354Z" fill="#263238"/>
<path d="M117.667 201.933C117.57 201.962 117.469 201.979 117.368 201.982L116.503 202.063L113.272 202.335L102.223 203.168H102.082V203.026C101.989 201.557 101.891 200.007 101.793 198.419C101.635 195.644 101.499 192.979 101.456 190.59C101.315 188.439 101.805 186.293 102.865 184.416C103.593 183.15 104.666 182.118 105.96 181.44C106.31 181.265 106.674 181.121 107.048 181.011C107.179 180.97 107.311 180.937 107.445 180.913C107.445 180.956 106.901 181.07 106.004 181.538C104.756 182.239 103.727 183.271 103.028 184.519C102.02 186.378 101.569 188.487 101.728 190.596C101.782 192.995 101.924 195.639 102.082 198.413C102.179 200.002 102.272 201.552 102.364 203.015L102.212 202.885L113.272 202.156L116.536 201.965L117.401 201.933H117.667Z" fill="#263238"/>
<path d="M90.5596 211.355C90.3919 211.322 90.2303 211.264 90.0808 211.181C89.8937 211.102 89.7119 211.011 89.5368 210.909C89.3022 210.783 89.0752 210.643 88.8568 210.49C88.2781 210.1 87.7436 209.647 87.2629 209.141C86.6813 208.513 86.1705 207.824 85.7397 207.085C85.3242 206.337 84.9939 205.545 84.7551 204.724C84.5656 204.053 84.4489 203.363 84.4069 202.667C84.391 202.401 84.391 202.134 84.4069 201.868C84.4077 201.666 84.4223 201.464 84.4504 201.264C84.4554 201.091 84.4885 200.92 84.5484 200.758C84.6028 200.758 84.5103 201.492 84.6245 202.651C84.6929 203.328 84.8259 203.996 85.0216 204.647C85.2718 205.444 85.6017 206.213 86.0063 206.943C86.4228 207.663 86.9132 208.338 87.4696 208.956C87.9324 209.457 88.4404 209.914 88.9874 210.321C89.9122 211.012 90.5868 211.306 90.5596 211.355Z" fill="#263238"/>
</svg>
