<svg width="27" height="22" viewBox="0 0 27 22" fill="none" xmlns="http://www.w3.org/2000/svg">
<path d="M26.8125 10.2031C24.2812 4.4375 19.2188 0.5 13.5 0.5C7.73438 0.5 2.67188 4.4375 0.140625 10.2031C0.046875 10.4375 0 10.7656 0 11C0 11.2344 0.046875 11.6094 0.140625 11.8438C2.67188 17.6094 7.73438 21.5 13.5 21.5C19.2188 21.5 24.2812 17.6094 26.8125 11.8438C26.9062 11.6094 27 11.2344 27 11C27 10.7656 26.9062 10.4375 26.8125 10.2031ZM13.5 19.25C8.8125 19.25 4.5 16.1094 2.25 11.0469C4.54688 5.9375 8.8125 2.75 13.5 2.75C18.1406 2.75 22.4531 5.9375 24.7031 11C22.4062 16.1094 18.1406 19.25 13.5 19.25ZM13.5 5C10.1719 5 7.5 7.71875 7.5 11C7.5 14.3281 10.1719 17 13.5 17C16.7812 17 19.5 14.3281 19.5 11.0469C19.5 7.71875 16.7812 5 13.5 5ZM13.5 14.75C11.3906 14.75 9.75 13.1094 9.75 11C9.75 11 9.75 10.9531 9.75 10.9062C9.98438 11 10.2188 11 10.5 11C12.1406 11 13.5 9.6875 13.5 8C13.5 7.76562 13.4531 7.53125 13.3594 7.29688C13.4062 7.29688 13.4531 7.25 13.5 7.25C15.5625 7.25 17.25 8.9375 17.25 11.0469C17.25 13.1094 15.5625 14.75 13.5 14.75Z" fill="white"/>
</svg>
