<svg width="105" height="107" viewBox="0 0 105 107" fill="none" xmlns="http://www.w3.org/2000/svg">
<circle cx="77" cy="77" r="77" fill="#5463FF"/>
<path d="M55.8168 85.084C55.8168 85.78 55.5768 86.36 55.0968 86.824C54.6248 87.28 53.9008 87.508 52.9248 87.508H51.3168V91H50.2248V82.636H52.9248C53.8688 82.636 54.5848 82.864 55.0728 83.32C55.5688 83.776 55.8168 84.364 55.8168 85.084ZM52.9248 86.608C53.5328 86.608 53.9808 86.476 54.2688 86.212C54.5568 85.948 54.7008 85.572 54.7008 85.084C54.7008 84.052 54.1088 83.536 52.9248 83.536H51.3168V86.608H52.9248ZM58.266 85.492C58.458 85.116 58.73 84.824 59.082 84.616C59.442 84.408 59.878 84.304 60.39 84.304V85.432H60.102C58.878 85.432 58.266 86.096 58.266 87.424V91H57.174V84.424H58.266V85.492ZM64.5186 91.108C63.9026 91.108 63.3426 90.968 62.8386 90.688C62.3426 90.408 61.9506 90.012 61.6626 89.5C61.3826 88.98 61.2426 88.38 61.2426 87.7C61.2426 87.028 61.3866 86.436 61.6746 85.924C61.9706 85.404 62.3706 85.008 62.8746 84.736C63.3786 84.456 63.9426 84.316 64.5666 84.316C65.1906 84.316 65.7546 84.456 66.2586 84.736C66.7626 85.008 67.1586 85.4 67.4466 85.912C67.7426 86.424 67.8906 87.02 67.8906 87.7C67.8906 88.38 67.7386 88.98 67.4346 89.5C67.1386 90.012 66.7346 90.408 66.2226 90.688C65.7106 90.968 65.1426 91.108 64.5186 91.108ZM64.5186 90.148C64.9106 90.148 65.2786 90.056 65.6226 89.872C65.9666 89.688 66.2426 89.412 66.4506 89.044C66.6666 88.676 66.7746 88.228 66.7746 87.7C66.7746 87.172 66.6706 86.724 66.4626 86.356C66.2546 85.988 65.9826 85.716 65.6466 85.54C65.3106 85.356 64.9466 85.264 64.5546 85.264C64.1546 85.264 63.7866 85.356 63.4506 85.54C63.1226 85.716 62.8586 85.988 62.6586 86.356C62.4586 86.724 62.3586 87.172 62.3586 87.7C62.3586 88.236 62.4546 88.688 62.6466 89.056C62.8466 89.424 63.1106 89.7 63.4386 89.884C63.7666 90.06 64.1266 90.148 64.5186 90.148ZM72.0023 85.324H70.6223V91H69.5303V85.324H68.6783V84.424H69.5303V83.956C69.5303 83.22 69.7183 82.684 70.0943 82.348C70.4783 82.004 71.0903 81.832 71.9303 81.832V82.744C71.4503 82.744 71.1103 82.84 70.9103 83.032C70.7183 83.216 70.6223 83.524 70.6223 83.956V84.424H72.0023V85.324ZM73.8396 83.356C73.6316 83.356 73.4556 83.284 73.3116 83.14C73.1676 82.996 73.0956 82.82 73.0956 82.612C73.0956 82.404 73.1676 82.228 73.3116 82.084C73.4556 81.94 73.6316 81.868 73.8396 81.868C74.0396 81.868 74.2076 81.94 74.3436 82.084C74.4876 82.228 74.5596 82.404 74.5596 82.612C74.5596 82.82 74.4876 82.996 74.3436 83.14C74.2076 83.284 74.0396 83.356 73.8396 83.356ZM74.3676 84.424V91H73.2756V84.424H74.3676ZM77.3207 82.12V91H76.2287V82.12H77.3207ZM85.1818 87.46C85.1818 87.668 85.1698 87.888 85.1458 88.12H79.8898C79.9298 88.768 80.1498 89.276 80.5498 89.644C80.9578 90.004 81.4498 90.184 82.0258 90.184C82.4978 90.184 82.8898 90.076 83.2018 89.86C83.5218 89.636 83.7458 89.34 83.8738 88.972H85.0498C84.8738 89.604 84.5218 90.12 83.9938 90.52C83.4658 90.912 82.8098 91.108 82.0258 91.108C81.4018 91.108 80.8418 90.968 80.3458 90.688C79.8578 90.408 79.4738 90.012 79.1938 89.5C78.9138 88.98 78.7738 88.38 78.7738 87.7C78.7738 87.02 78.9098 86.424 79.1818 85.912C79.4538 85.4 79.8338 85.008 80.3218 84.736C80.8178 84.456 81.3858 84.316 82.0258 84.316C82.6498 84.316 83.2018 84.452 83.6818 84.724C84.1618 84.996 84.5298 85.372 84.7858 85.852C85.0498 86.324 85.1818 86.86 85.1818 87.46ZM84.0538 87.232C84.0538 86.816 83.9618 86.46 83.7778 86.164C83.5938 85.86 83.3418 85.632 83.0218 85.48C82.7098 85.32 82.3618 85.24 81.9778 85.24C81.4258 85.24 80.9538 85.416 80.5618 85.768C80.1778 86.12 79.9578 86.608 79.9018 87.232H84.0538Z" fill="white"/>
<path d="M67.5 61C70.7812 61 73.5 58.3281 73.5 55C73.5 51.7188 70.7812 49 67.5 49C64.1719 49 61.5 51.7188 61.5 55C61.5 58.3281 64.1719 61 67.5 61ZM67.5 50.5C69.9375 50.5 72 52.5625 72 55C72 57.4844 69.9375 59.5 67.5 59.5C65.0156 59.5 63 57.4844 63 55C63 52.5625 65.0156 50.5 67.5 50.5ZM69.8438 63.25H65.1094C60.6094 63.25 57 66.9062 57 71.4062C57 72.2969 57.7031 73 58.5938 73H76.3594C77.25 73 78 72.2969 78 71.4062C78 66.9062 74.3438 63.25 69.8438 63.25ZM76.3594 71.5H58.5938C58.5469 71.5 58.5 71.4531 58.5 71.4062C58.5 67.75 61.4531 64.75 65.1094 64.75H69.8438C73.5 64.75 76.5 67.75 76.5 71.4062C76.5 71.4531 76.4062 71.5 76.3594 71.5Z" fill="white"/>
</svg>
