<svg width="24" height="24" viewBox="0 0 24 24" fill="none" xmlns="http://www.w3.org/2000/svg">
<path d="M10.9994 20.0033H4.99693C3.8919 20.0033 2.99609 19.1075 2.99609 18.0025V8.49851C2.99609 7.39348 3.8919 6.49768 4.99693 6.49768H19.0028C20.1078 6.49768 21.0036 7.39348 21.0036 8.49851V12" stroke="#5463FF" stroke-width="1.5" stroke-linecap="round" stroke-linejoin="round"/>
<path d="M15.6014 6.49767V4.49684C15.6014 3.66807 14.9296 2.99622 14.1008 2.99622H9.89906C9.07029 2.99622 8.39844 3.66807 8.39844 4.49684V6.49767" stroke="#5463FF" stroke-width="1.5" stroke-linecap="round" stroke-linejoin="round"/>
<path d="M21.0036 9.99915L16.53 11.039C13.5496 11.7319 10.45 11.7319 7.46965 11.039L2.99609 9.99915" stroke="#5463FF" stroke-width="1.5" stroke-linecap="round" stroke-linejoin="round"/>
<path d="M18.0017 21.9992C20.2117 21.9992 22.0033 20.2076 22.0033 17.9975C22.0033 15.7875 20.2117 13.9958 18.0017 13.9958C15.7916 13.9958 14 15.7875 14 17.9975C14 20.2076 15.7916 21.9992 18.0017 21.9992Z" stroke="#5463FF" stroke-width="1.5" stroke-linecap="round" stroke-linejoin="round"/>
<path d="M23.004 22.9996L20.8311 20.8267" stroke="#5463FF" stroke-width="1.5" stroke-linecap="round" stroke-linejoin="round"/>
</svg>
