<svg width="96" height="128" viewBox="0 0 96 128" fill="none" xmlns="http://www.w3.org/2000/svg">
<path d="M51.924 47.7234C51.3011 48.7744 50.6273 49.8283 49.9139 50.8565C48.0821 53.5054 46.0125 55.9834 44.0816 57.7551C37.5302 63.7622 35.3474 57.5472 35.9618 55.0093C36.4516 52.9756 41.794 45.4504 44.8687 41.2748C45.6388 40.2295 46.2645 39.3978 46.6382 38.9107C48.5124 36.4783 50.8368 35.2079 53.9596 36.1649C56.7908 37.028 55.1176 42.3059 51.924 47.7234Z" fill="#C3DCF8"/>
<path d="M51.9239 47.7234C51.4082 47.271 50.9343 46.7724 50.5083 46.2337C48.8634 44.1715 47.8244 41.8986 44.8459 41.2748C45.616 40.2295 46.2417 39.3978 46.6154 38.9107C48.4897 36.4783 50.8141 35.2079 53.9369 36.1649C56.7907 37.028 55.1175 42.3059 51.9239 47.7234Z" fill="#D0E5F7"/>
<path d="M39.6821 80.5558C37.7767 87.1781 33.1165 100.295 33.1703 100.551C33.1902 100.665 33.2864 102.083 33.3912 103.658C33.5299 105.715 33.6743 108.036 33.6743 108.036C33.6743 108.036 20.7216 112.163 19.6118 111.861C18.5019 111.56 18.7143 109.97 20.4243 108.68C20.7839 108.395 21.3076 107.962 21.9107 107.432C24.1502 105.456 27.4627 102.271 27.4627 102.271C27.4627 102.271 30.4326 76.9584 30.9252 74.6199C31.4178 72.2814 33.4478 69.8034 36.4828 70.0626C39.6368 70.3304 41.5875 73.9335 39.6821 80.5558Z" fill="#FEBD9D"/>
<path d="M33.6714 108.036C33.6714 108.036 20.7187 112.163 19.6088 111.861C18.499 111.56 18.7113 109.97 20.4214 108.68C20.7809 108.395 21.3047 107.962 21.9078 107.432C24.2775 107.922 26.8142 107.125 28.1364 106.128C29.6806 104.924 31.4716 104.08 33.3797 103.658C33.5185 105.715 33.6714 108.036 33.6714 108.036Z" fill="#83ADDF"/>
<path d="M83.4295 46.6296C83.4918 46.1482 83.4635 45.4675 82.0903 44.7355L81.6345 46.809C81.6345 46.809 83.3219 47.4727 83.4295 46.6296Z" fill="#A7CAF0"/>
<path d="M77.0083 44.4934C77.45 42.3885 77.6425 42.1948 77.5745 41.1694C77.5066 40.144 77.382 38.9278 79.0609 36.877C80.7398 34.8262 81.7307 33.2226 82.062 33.3878C82.3932 33.553 82.1724 35.0342 81.5382 36.4583C81.5382 36.4583 85.9973 33.8948 86.9345 33.536C87.8716 33.1771 87.2657 34.8917 85.3943 35.8146C85.3943 35.8146 88.3387 34.0259 89.055 34.1711C89.7713 34.3164 88.4491 35.3617 87.4299 36.0311C87.4299 36.0311 89.3636 34.812 89.743 35.2136C90.1224 35.6152 89.0607 36.4669 88.1745 37.0052C88.1745 37.0052 89.3296 36.3957 89.5222 36.7004C89.7147 37.0052 89.5222 37.3384 88.3897 38.0562C87.2572 38.774 84.7856 39.9959 82.8859 42.1834L82.3876 47.5667C82.3876 47.5667 77.9341 48.3158 77.0083 44.4934Z" fill="#FEBD9D"/>
<path d="M79.7517 36.0168C81.0144 34.399 81.7788 33.2454 82.062 33.3878C82.3932 33.553 82.1724 35.0256 81.5382 36.4498C81.5382 36.4498 85.9973 33.8863 86.9344 33.5274C87.8716 33.1685 87.2657 34.8832 85.3943 35.806C85.3943 35.806 88.3387 34.0173 89.055 34.1626C89.7713 34.3078 88.4491 35.3532 87.4299 36.0225C87.4299 36.0225 89.3636 34.8034 89.743 35.205C90.1224 35.6067 89.0607 36.4583 88.1745 36.9966C88.1745 36.9966 89.3296 36.3871 89.5222 36.6919C89.7147 36.9966 89.5222 37.3299 88.3897 38.0477" stroke="#EF8A66" stroke-width="0.75" stroke-linecap="round" stroke-linejoin="round"/>
<path d="M81.8696 40.0329C82.0621 38.5119 83.0729 38.0049 83.9251 37.7856" stroke="#EF8A66" stroke-width="0.75" stroke-linecap="round" stroke-linejoin="round"/>
<path d="M83.8428 36.2817C85.0602 36.3387 86.3342 37.4666 86.4191 37.8825" stroke="#EF8A66" stroke-width="0.75" stroke-linecap="round" stroke-linejoin="round"/>
<path d="M84.4458 36.39C84.4628 36.39 86.1162 35.3646 86.1162 35.3646" stroke="#EF8A66" stroke-width="0.75" stroke-linecap="round" stroke-linejoin="round"/>
<path d="M87.7358 35.8089L85.6577 37.0223" stroke="#EF8A66" stroke-width="0.75" stroke-linecap="round" stroke-linejoin="round"/>
<path d="M88.4152 36.8371L86.8411 37.723" stroke="#EF8A66" stroke-width="0.75" stroke-linecap="round" stroke-linejoin="round"/>
<path d="M73.3278 64.8502C75.437 66.9921 79.4658 65.6905 80.8956 60.0081C82.3253 54.3257 83.4437 46.6211 83.4437 46.6211C81.0968 46.1014 78.9065 45.0275 77.0537 43.4879C74.9897 49.119 70.5844 62.0703 73.3278 64.8502Z" fill="#C3DCF8"/>
<path d="M77.0396 43.4936C75.6778 47.2306 73.2741 54.2033 72.6201 59.2761" stroke="#83ADDF" stroke-width="0.75" stroke-linecap="round" stroke-linejoin="round"/>
<path d="M31.9924 71.8456C30.792 77.8071 28.7026 82.5781 26.514 87.762C24.3255 92.9459 22.0832 99.4372 22.0832 100.451V105.037C22.0832 105.037 7.4573 107.538 6.7948 107.538C6.1323 107.538 5.66232 106.114 7.07792 105.097C7.43182 104.846 8.15094 104.302 9.0371 103.621C11.7182 101.571 15.8999 98.3064 15.8999 98.3064C15.8999 98.3064 20.9309 77.3172 22.0832 70.5611C23.9405 59.6577 33.6288 63.7735 31.9924 71.8456Z" fill="#FEBD9D"/>
<path d="M30.0615 78.8981C30.5626 77.4483 31.0213 75.9586 31.4205 74.3977C33.6062 74.8506 36.2335 75.2209 39.5149 75.8076" stroke="#EF8A66" stroke-width="0.75" stroke-linecap="round" stroke-linejoin="round"/>
<path d="M22.0832 100.83V105.043C22.0832 105.043 7.4573 107.543 6.7948 107.543C6.1323 107.543 5.66232 106.119 7.07792 105.102C7.43182 104.852 8.15094 104.308 9.0371 103.627C11.6899 104.242 14.8241 103.225 16.5199 102.456C18.2866 101.647 20.1605 101.099 22.0832 100.83Z" fill="#83ADDF"/>
<path d="M38.6627 60.3527C41.4131 60.3527 43.6427 58.3442 43.6427 55.8666C43.6427 53.389 41.4131 51.3806 38.6627 51.3806C35.9123 51.3806 33.6826 53.389 33.6826 55.8666C33.6826 58.3442 35.9123 60.3527 38.6627 60.3527Z" fill="#C3DCF8"/>
<path d="M70.3127 38.4663C70.1292 38.5793 69.9402 38.683 69.7464 38.7768C66.6632 40.2665 65.0155 39.8335 64.7069 38.3666C64.3983 36.8998 61.1707 38.0078 60.981 35.4129C60.7914 32.8181 61.9352 31.9779 61.72 30.6534C61.72 30.6534 61.87 30.3116 62.1022 29.91C62.5835 29.0555 63.4272 27.9589 64.0557 29.0783C64.9872 30.736 65.5647 30.5594 67.2833 30.7531C69.0018 30.9468 69.7917 32.1459 69.2651 33.0118C68.6253 34.0628 68.965 34.5186 70.8421 34.6923C72.5295 34.8518 72.7871 36.9738 70.3127 38.4663Z" fill="#DD6819"/>
<path d="M70.3127 38.4663C70.1292 38.5794 69.9402 38.683 69.7464 38.7768C66.6632 40.2665 65.0155 39.8335 64.7069 38.3667C64.3983 36.8998 61.1707 38.0078 60.981 35.413C60.7914 32.8182 61.9352 31.9779 61.72 30.6534C61.72 30.6534 61.87 30.3116 62.1022 29.91C64.3672 30.6107 65.0098 31.8042 64.789 32.8381C64.5059 34.1569 65.6582 35.8858 68.5205 35.6494C69.9588 35.5269 70.3155 36.9909 70.3127 38.4663Z" fill="#CC5E0D"/>
<path d="M68.7101 75.3206C67.6026 76.8741 66.1088 78.1078 64.3784 78.898C64.3784 78.898 64.3784 78.4679 64.2793 77.7587C63.9481 75.0215 62.541 68.0745 56.5955 64.5853L56.1793 64.5084H56.1453L53.2009 63.9729C53.2009 63.9729 52.4308 60.8797 51.873 58.4557C51.3153 56.0318 49.9648 53.8671 49.9139 51.3094C49.9139 51.1669 49.9139 51.0245 49.9139 50.8821C49.9365 49.2215 50.2819 47.6322 50.5197 46.2593C50.6262 45.6946 50.698 45.1239 50.7349 44.5503C50.8142 42.7929 49.4354 40.819 49.3023 39.5943C49.1693 38.3695 49.3023 35.7804 52.5101 36.0538C53.0338 36.0966 53.5151 36.1364 53.9596 36.182C54.4041 36.2276 54.8826 36.276 55.2875 36.3273L55.7121 36.3899C56.2796 36.4674 56.8408 36.5863 57.391 36.746C57.8325 36.8733 58.2581 37.0511 58.6594 37.2757C59.9023 37.9736 62.7476 37.0821 63.0959 36.9681H63.1299C63.7471 36.9283 64.2935 36.8855 64.7804 36.84C65.2674 36.7944 65.6751 36.7659 66.0403 36.726C67.1218 36.6149 67.7589 36.5181 68.0901 36.4782C68.2855 36.4782 68.5657 39.1528 68.8687 42.7445C69.0301 44.6956 69.1971 46.923 69.3613 49.1332C69.6982 53.7361 70.0096 58.2906 70.1937 60.2416C70.222 60.5578 70.2503 60.8113 70.273 60.9765C70.5532 63.0415 72.2831 70.2534 68.7101 75.3206Z" fill="#C3DCF8"/>
<path d="M68.8717 42.7246C67.9753 43.2777 67.1301 43.9107 66.3462 44.6158C63.1866 47.4043 60.9188 50.64 56.1539 49.7143C54.5926 49.449 53.1329 48.7595 51.9326 47.7205C51.4169 47.2681 50.9431 46.7695 50.517 46.2308C50.6235 45.6661 50.6953 45.0954 50.7322 44.5218C50.8115 42.7644 49.4327 40.7906 49.2996 39.5658C49.1666 38.341 49.2996 35.7519 52.5074 36.0254C53.0311 36.0681 53.5124 36.108 53.9569 36.1535C54.4014 36.1991 54.8799 36.2475 55.2848 36.2988C55.9958 36.3827 56.6991 36.5227 57.3883 36.7175C57.8298 36.8449 58.2554 37.0226 58.6567 37.2473C59.8996 37.9451 62.745 37.0536 63.0932 36.9397H63.1272C64.3389 36.8599 65.293 36.7716 66.0376 36.6976C67.1191 36.5865 67.7562 36.4896 68.0874 36.4498C68.2884 36.4583 68.5687 39.1243 68.8717 42.7246Z" fill="#D0E5F7"/>
<path d="M61.5416 57.2509C61.9241 60.0762 62.481 62.8749 63.2091 65.6306L56.1793 64.4913H56.1453C56.1453 64.4913 55.9471 59.934 54.6108 55.7669C53.916 53.5653 53.6281 51.2542 53.7615 48.9481C53.8885 47.0226 54.2043 45.1145 54.7042 43.2515C55.2347 40.9987 55.57 38.7038 55.7065 36.3928C56.0292 36.4412 56.3294 36.4925 56.6068 36.5523L56.7993 36.5921C57.006 36.6377 57.2014 36.6918 57.3854 36.7488C57.8269 36.8762 58.2524 37.0539 58.6538 37.2786C59.8966 37.9764 62.742 37.0849 63.0902 36.971H63.1242L64.2001 36.8941L64.3982 36.877L64.7748 36.8428C64.2425 38.4891 62.0399 45.3108 61.3207 48.9082C61.2443 49.307 61.182 49.663 61.1424 49.9678C60.9385 51.6084 61.1537 54.4026 61.5416 57.2509Z" fill="white"/>
<path d="M64.7804 36.8115C64.2482 38.4578 62.0455 45.2795 61.3264 48.8769C59.7678 49.8083 57.9146 50.1058 56.1453 49.7086C55.3227 49.5573 54.5233 49.2987 53.7671 48.9395C53.8942 47.0141 54.21 45.106 54.7099 43.2429C55.2403 40.9901 55.5757 38.6953 55.7121 36.3842C56.0349 36.4326 56.335 36.4839 56.6124 36.5437L56.805 36.5836C57.0116 36.6292 57.207 36.6833 57.391 36.7403C57.8325 36.8676 58.2581 37.0454 58.6594 37.27C59.9023 37.9679 62.7476 37.0764 63.0959 36.9624H63.1298L64.2057 36.8855L64.4039 36.8684L64.7804 36.8115Z" fill="#F9F9F9"/>
<path d="M64.5343 45.0716L66.1764 48.8427C65.7064 49.6488 62.8072 54.9381 61.5417 57.2509C61.151 54.4026 60.9386 51.6084 61.1482 49.9365C61.5417 46.8461 64.1889 38.6372 64.7806 36.8115C65.2562 36.7744 65.6752 36.7374 66.0405 36.6975L66.5331 43.8639C66.1792 44.0974 64.5343 45.0716 64.5343 45.0716Z" fill="#A7CAF0"/>
<path d="M54.71 43.2316C54.1069 45.684 52.9122 50.4378 54.6109 55.7641C53.1896 53.6797 52.1777 51.341 51.6296 48.8741L53.4812 44.7383L52.5413 43.4993C52.5413 43.4993 53.5633 40.651 55.2875 36.3159L55.7122 36.3786C55.5754 38.6877 55.2401 40.9806 54.71 43.2316Z" fill="#A7CAF0"/>
<path d="M63.9849 36.4896C64.67 36.2817 65.2419 36.4896 65.2277 36.7745C65.1938 37.5378 63.8744 42.1293 63.3054 42.3628C63.2006 42.4056 62.5466 40.2893 61.8077 40.0329C61.0687 39.7766 59.6928 40.1298 59.7239 40.1127C59.7551 40.0956 62.5098 36.0168 63.9849 36.4896Z" fill="#683F1D"/>
<path d="M57.4335 36.3301C58.5972 37.9109 58.4414 39.093 57.9998 39.1471C57.5581 39.2012 57.057 39.1642 56.5445 39.7025C56.0321 40.2408 55.2195 41.1267 55.1601 41.0156C54.8543 40.4459 55.3696 36.7431 55.5961 36.3586C55.8905 35.8886 57.1193 35.9029 57.4335 36.3301Z" fill="#683F1D"/>
<path d="M58.3226 41.8701C58.181 44.8779 57.4874 46.0314 57.0712 47.8885C56.655 49.7456 57.0202 52.2749 57.6969 55.1916C58.3735 58.1082 58.3367 59.6748 58.3226 59.9938C58.3084 60.3128 57.6402 62.1386 59.104 62.8421" stroke="#DDDDDD" stroke-linecap="round" stroke-linejoin="round"/>
<path d="M63.985 36.4868C63.985 36.4868 59.4862 41.1124 58.4358 40.4231C57.3855 39.7338 56.9749 37.1162 57.0939 36.2333C57.1335 35.9484 57.2128 35.4073 57.3005 34.8091C57.4846 33.6043 57.7139 32.1403 57.7535 31.8269C57.8781 29.2635 62.0541 27.0532 63.2489 29.8958C63.0756 32.1199 63.3255 34.3568 63.985 36.4868Z" fill="#FEBD9D"/>
<path d="M57.3062 34.8091C57.4902 33.6043 57.7195 32.1403 57.7591 31.827L60.4799 30.8728C60.7659 33.2084 59.5853 34.5385 57.3062 34.8091Z" fill="#F4A789"/>
<path d="M49.9138 50.8565C49.9365 49.1959 50.2819 47.6066 50.5197 46.2337C50.6261 45.669 50.698 45.0982 50.7349 44.5247C50.7717 43.6702 50.4744 42.7844 50.1403 41.9612" stroke="#83ADDF" stroke-width="0.75" stroke-linecap="round" stroke-linejoin="round"/>
<path d="M64.1293 65.8243C62.3966 65.4056 56.5955 64.5654 56.5955 64.5654" stroke="#83ADDF" stroke-width="0.75" stroke-linecap="round" stroke-linejoin="round"/>
<path d="M28.3119 63.2324C25.2797 63.2324 20.7498 68.1485 23.8755 70.9968C27.4201 74.224 31.4376 74.3635 39.5178 75.8048C39.515 75.7991 43.64 63.2324 28.3119 63.2324Z" fill="#FEBD9D"/>
<path d="M64.2681 77.7388C60.681 78.5933 53.0368 77.9011 48.4588 77.3884C47.2612 77.2517 46.2759 77.1321 45.6276 77.0523C45.1236 76.9925 44.8178 76.9612 44.7782 76.964C35.8826 77.7986 34.7671 75.8418 31.0243 71.0025C27.2815 66.1633 28.2582 63.5172 28.312 63.2324C35.2597 62.6456 47.1677 63.1868 53.2038 63.953L56.6013 64.5711C58.0786 65.4412 59.3808 66.5822 60.4404 67.9349C63.2121 71.444 64.036 75.7279 64.2681 77.7388Z" fill="#090C9B"/>
<path d="M39.6819 75.6054C42.564 76.4599 45.6274 77.0523 45.6274 77.0523" stroke="#03045E" stroke-width="0.75" stroke-linecap="round" stroke-linejoin="round"/>
<path d="M64.2681 77.7388C60.681 78.5933 53.0368 77.9011 48.4587 77.3885C50.5963 75.7934 52.8726 75.8561 55.398 76.3289C60.6102 77.3059 61.6011 75.4288 60.3526 73.4322C59.2512 71.6747 58.7813 69.1825 60.4233 67.9292C63.2121 71.444 64.0359 75.7279 64.2681 77.7388Z" fill="#03045E"/>
<path d="M76.9575 65.4343C73.8007 67.0636 71.6292 63.5431 70.1966 60.2248C69.9135 59.5554 69.6473 58.8975 69.418 58.2908C68.4384 55.7273 66.8699 49.6946 66.3462 44.6189C65.9272 40.486 66.2074 36.9798 68.0902 36.4585C70.3297 35.8433 72.8154 36.8374 74.2763 41.0358C74.5659 41.8899 74.7948 42.7637 74.9615 43.6505C76.3063 50.589 80.2558 63.7311 76.9575 65.4343Z" fill="#C3DCF8"/>
<path d="M70.1965 60.2246C69.9134 59.5552 69.6473 58.8973 69.4179 58.2906C68.6563 56.2968 67.5295 52.1924 66.8274 48.0794" stroke="#83ADDF" stroke-width="0.75" stroke-linecap="round" stroke-linejoin="round"/>
<path d="M74.2792 41.0156C72.3665 41.1276 70.51 41.7084 68.8716 42.7075C67.9752 43.2606 67.13 43.8936 66.3462 44.5988C65.9272 40.4659 66.2074 36.9596 68.0902 36.4384C70.3325 35.8345 72.8183 36.8286 74.2792 41.0156Z" fill="#D0E5F7"/>
<path d="M64.4464 27.4462C63.3649 29.5369 55.044 27.1614 55.044 27.1614C53.6935 26.7655 53.0169 26.2272 53.0622 25.4069C53.1075 24.5865 54.3787 24.5524 54.0503 23.7662C53.8828 23.3847 53.7868 22.9752 53.7672 22.5586C53.7417 21.8095 54.0248 20.9436 55.1176 20.2457C57.0428 19.0153 59.6872 20.6673 59.6872 20.6673C59.6872 20.6673 60.8961 19.6504 63.0846 20.7841C64.1944 21.3537 64.8031 22.5215 64.9928 23.8033C65.1798 25.0452 64.9893 26.3151 64.4464 27.4462Z" fill="#DD6819"/>
<path d="M64.4464 27.4463C63.3649 29.5369 55.044 27.1614 55.044 27.1614C53.6935 26.7655 53.0169 26.2272 53.0622 25.4069C53.1075 24.5866 54.3787 24.5524 54.0503 23.7663C53.8828 23.3847 53.7868 22.9752 53.7672 22.5586C55.5593 20.6588 59.656 20.4223 60.0977 22.1997C60.5988 24.2163 61.5529 27.4263 64.9957 23.8033C65.1817 25.0455 64.9903 26.3154 64.4464 27.4463Z" fill="#CC5E0D"/>
<path d="M59.4011 21.7468C60.9668 20.6787 62.4248 21.4847 62.8325 22.6639C63.4242 24.3729 61.4169 26.1645 63.4242 27.6912" stroke="#FF79A0" stroke-width="0.75" stroke-linecap="round" stroke-linejoin="round"/>
<path d="M54.8259 22.8747C54.9675 21.274 57.425 19.7416 59.6956 20.6587" stroke="#FF79A0" stroke-width="0.75" stroke-linecap="round" stroke-linejoin="round"/>
<path d="M63.2545 29.9072C63.2545 29.9072 60.9895 32.1317 58.4924 32.8495C56.052 33.5587 53.9625 32.0776 54.1635 28.5428C54.1635 28.4859 54.1635 28.4261 54.1635 28.3691C54.1975 27.939 54.2485 27.5146 54.3164 27.113C54.8402 24.0682 56.4143 21.8636 59.0275 22.6867C59.8288 22.9374 59.0785 25.7857 59.6164 27.0646C59.6486 27.1442 59.6884 27.2205 59.7353 27.2924C59.9194 27.5515 60.1607 27.764 60.4403 27.9134C61.3265 28.4033 62.5297 28.295 62.9204 27.5431C63.4867 26.4522 65.024 25.9281 65.5591 27.7567C65.947 29.0698 64.52 30.2575 63.2545 29.9072Z" fill="#FEBD9D"/>
<path d="M60.4403 27.9134C60.1883 28.2153 59.8581 28.4411 59.4862 28.5656C58.753 28.8505 58.0452 28.7565 57.9064 28.3805C57.7677 28.0045 58.2547 27.4804 58.9879 27.2098C59.193 27.1324 59.4071 27.0816 59.625 27.0589C59.6572 27.1385 59.697 27.2148 59.7439 27.2867C59.9249 27.5468 60.1633 27.7613 60.4403 27.9134Z" fill="#F4AF90"/>
<path d="M54.9252 28.3634C54.7978 28.5514 54.5147 28.6026 54.1721 28.5314C54.1721 28.4745 54.1721 28.4147 54.1721 28.3577C54.2061 27.9276 54.2571 27.5032 54.325 27.1016C54.8544 27.5288 55.1177 28.0615 54.9252 28.3634Z" fill="#F4AF90"/>
<path d="M55.3782 26.3696C55.3782 26.4321 55.3966 26.4933 55.4311 26.5452C55.4657 26.5972 55.5147 26.6378 55.5722 26.6617C55.6296 26.6856 55.6928 26.6919 55.7537 26.6797C55.8147 26.6675 55.8707 26.6374 55.9147 26.5932C55.9586 26.5489 55.9885 26.4926 56.0007 26.4313C56.0128 26.3699 56.0066 26.3064 55.9828 26.2486C55.959 26.1908 55.9187 26.1415 55.867 26.1067C55.8153 26.072 55.7546 26.0534 55.6924 26.0534C55.6091 26.0534 55.5292 26.0867 55.4702 26.146C55.4113 26.2053 55.3782 26.2857 55.3782 26.3696Z" fill="#683F1D"/>
<path d="M57.1194 26.8481C57.1188 26.9114 57.137 26.9735 57.1717 27.0264C57.2063 27.0793 57.2558 27.1206 57.3138 27.1451C57.3719 27.1696 57.4359 27.1762 57.4976 27.1639C57.5594 27.1517 57.6162 27.1213 57.6607 27.0765C57.7052 27.0317 57.7355 26.9746 57.7476 26.9125C57.7598 26.8503 57.7532 26.7859 57.7289 26.7275C57.7045 26.6691 57.6635 26.6193 57.6109 26.5845C57.5583 26.5497 57.4966 26.5314 57.4337 26.5319C57.3503 26.5319 57.2704 26.5652 57.2114 26.6245C57.1525 26.6838 57.1194 26.7642 57.1194 26.8481Z" fill="#683F1D"/>
<path d="M63.311 28.577C63.6479 27.7225 64.3897 27.3152 64.9475 27.7225" stroke="#EF8A66" stroke-width="0.75" stroke-linecap="round" stroke-linejoin="round"/>
<path d="M63.4187 28.3292C64.319 27.6371 64.9419 29.1837 63.498 29.1837" stroke="#EF8A66" stroke-width="0.75" stroke-linecap="round" stroke-linejoin="round"/>
<path d="M54.543 24.8401C54.4581 25.2502 56.2163 25.817 56.3833 24.9882C56.5022 24.3929 54.6421 24.3929 54.543 24.8401Z" fill="#DD6819"/>
<path d="M57.4476 25.1049C57.2551 25.8256 59.2539 26.2015 59.4691 25.7145C59.6531 25.3043 57.6656 24.2903 57.4476 25.1049Z" fill="#DD6819"/>
<path d="M55.6329 28.3036C55.2421 27.6912 55.446 27.2326 55.9584 27.2326C56.5841 27.2326 56.788 26.663 56.7597 25.8654" stroke="#EF8A66" stroke-width="0.75" stroke-linecap="round" stroke-linejoin="round"/>
<path d="M55.6187 28.9331C56.4255 29.0328 57.4986 28.5315 57.4986 28.5315C57.4986 28.5315 57.4504 29.9556 56.5586 30.0781C55.6668 30.2006 55.6187 28.9331 55.6187 28.9331Z" fill="white" stroke="#EF8A66" stroke-width="0.75" stroke-linecap="round" stroke-linejoin="round"/>
<path d="M33.7988 20.5534C32.9692 20.0207 32.0151 20.1688 31.7349 20.9037C31.33 21.969 32.0916 22.6896 32.9466 22.9687L33.7988 20.5534Z" fill="#F9F9F9" stroke="#DDDDDD" stroke-linecap="round" stroke-linejoin="round"/>
<path d="M43.8184 27.6912C45.1717 28.2609 45.9021 28.5656 46.1258 28.389C46.3494 28.2125 47.3828 25.8256 47.2724 25.5721C47.162 25.3186 45.0443 24.1479 45.0443 24.1479L43.8184 27.6912Z" fill="#DDDDDD" stroke="#EDEDED" stroke-linecap="round" stroke-linejoin="round"/>
<path d="M36.3042 37.834C36.5165 36.9226 39.5544 36.1877 40.5821 36.014V39.0816C40.5821 39.0816 37.3716 39.7538 36.3042 37.834Z" fill="#A7CAF0"/>
<path d="M37.5896 39.1955C38.1133 36.6577 38.4672 36.0624 38.303 35.7434C38.1388 35.4244 37.0771 34.3819 36.9497 33.3138C36.8223 32.2457 37.9463 30.4655 38.3426 29.8958C38.739 29.3261 39.2911 28.9188 41.0294 29.1951C42.7678 29.4714 43.4416 29.7078 43.4614 30.5737C43.4813 31.4396 42.6942 37.2729 42.6942 37.2729C42.6942 37.2729 41.3352 41.6194 37.5896 39.1955Z" fill="#FEBD9D"/>
<path d="M39.7497 26.4636C39.3902 28.1726 38.4445 31.0209 38.0906 32.408C37.7367 33.7951 37.9661 34.5243 39.0957 34.755C40.2254 34.9857 40.9133 33.0175 41.1427 31.7301C41.372 30.4427 41.992 27.2326 41.992 27.2326L39.7497 26.4636Z" fill="#F9F9F9" stroke="#DDDDDD" stroke-linecap="round" stroke-linejoin="round"/>
<path d="M34.7131 58.4444C38.5635 61.6459 40.9927 54.9751 41.8845 49.1219C42.4399 45.1972 42.7105 41.2371 42.6943 37.2729C42.6943 37.2729 39.4865 38.1701 36.3043 37.8426C35.3247 42.585 31.5762 55.8268 34.7131 58.4444Z" fill="#C3DCF8"/>
<path d="M39.9651 56.1116C40.8682 54.1577 41.5109 51.5543 41.8846 49.1162C42.44 45.1915 42.7106 41.2314 42.6944 37.2672" stroke="#83ADDF" stroke-width="0.75" stroke-linecap="round" stroke-linejoin="round"/>
<path d="M44.3448 27.7567C43.9031 27.9333 42.9009 27.9875 41.5872 27.8308C39.3633 27.5483 37.204 26.8845 35.2029 25.8683L37.9378 19.8869C39.9946 20.4856 41.9386 21.4231 43.6908 22.6611C44.6817 23.359 45.3895 24.0198 45.6358 24.4556C45.8821 24.8913 45.3867 27.3437 44.3448 27.7567Z" fill="#F9F9F9" stroke="#DDDDDD" stroke-linecap="round" stroke-linejoin="round"/>
<path d="M44.345 27.7567C43.9033 27.9333 42.9011 27.9875 41.5874 27.8308C42.9039 26.3354 43.8354 24.7148 43.691 22.6725C44.6819 23.3704 45.3897 24.0312 45.636 24.4669C45.8823 24.9027 45.3869 27.3437 44.345 27.7567Z" fill="#F9F9F9" stroke="#EDEDED" stroke-linecap="round" stroke-linejoin="round"/>
<path d="M35.7608 26.3012C36.4912 26.0819 38.7364 21.6813 38.4136 20.3853C38.0909 19.0893 35.3446 16.1129 35.3446 16.1129C35.3446 16.1129 31.8396 22.2225 31.1941 26.7456C31.1941 26.7541 34.6991 26.6146 35.7608 26.3012Z" fill="#DDDDDD" stroke="#EDEDED" stroke-linecap="round" stroke-linejoin="round"/>
<path d="M31.4857 18.2149L30.407 16.429" stroke="#DDDDDD" stroke-linecap="round" stroke-linejoin="round"/>
<path d="M27.2671 19.4596L29.1697 20.2344" stroke="#DDDDDD" stroke-linecap="round" stroke-linejoin="round"/>
<path d="M27.0435 23.3248L29.0111 22.9687" stroke="#DDDDDD" stroke-linecap="round" stroke-linejoin="round"/>
<path d="M36.6441 31.9922C37.4312 31.5849 39.5999 33.986 38.2806 34.1398C37.4991 34.2395 35.4862 32.5903 36.6441 31.9922Z" fill="#FEBD9D" stroke="#EF8A66" stroke-width="0.75" stroke-linecap="round" stroke-linejoin="round"/>
<path d="M36.8053 30.662C37.5952 30.2547 39.9196 32.6758 38.6145 32.8381C37.8387 32.9378 35.6728 31.2573 36.8053 30.662Z" fill="#FEBD9D" stroke="#EF8A66" stroke-width="0.75" stroke-linecap="round" stroke-linejoin="round"/>
<path d="M37.1394 29.3091C37.9887 28.8704 40.5 31.4738 39.0816 31.6504C38.2407 31.7557 35.8936 29.9499 37.1394 29.3091Z" fill="#FEBD9D" stroke="#EF8A66" stroke-width="0.75" stroke-linecap="round" stroke-linejoin="round"/>
<path d="M37.6207 28.0928C38.4417 27.6115 40.8964 30.3031 39.6478 30.8671C39.0703 31.132 36.4118 28.8021 37.6207 28.0928Z" fill="#FEBD9D" stroke="#EF8A66" stroke-width="0.75" stroke-linecap="round" stroke-linejoin="round"/>
<path d="M41.1399 30.8215C40.9389 30.5537 39.0731 29.6651 39.2911 28.9502C39.5091 28.2352 41.7401 28.9701 42.782 29.309C43.8239 29.648 43.5634 30.2974 43.3029 32.408C43.3171 32.408 42.3828 32.4707 41.1399 30.8215Z" fill="#FEBD9D"/>
<path d="M41.1399 30.8215C40.9389 30.5537 39.0731 29.6651 39.2911 28.9502C39.5091 28.2352 41.7401 28.9701 42.782 29.309C43.8239 29.648 43.5634 30.2974 43.3029 32.408" stroke="#EF8A66" stroke-width="0.75" stroke-linecap="round" stroke-linejoin="round"/>
</svg>
