<svg width="18" height="24" viewBox="0 0 18 24" fill="none" xmlns="http://www.w3.org/2000/svg">
<path d="M9 0C3.98438 0 0 4.03125 0 9C0 12.6562 1.21875 13.6875 8.0625 23.5312C8.29688 23.8594 8.625 24 9 24C9.32812 24 9.65625 23.8594 9.89062 23.5312C16.7344 13.6406 18 12.6562 18 9C18 4.03125 13.9688 0 9 0ZM9 20.9062C8.15625 19.7344 7.40625 18.6562 6.75 17.7656C2.67188 11.9531 2.25 11.2031 2.25 9C2.25 5.29688 5.25 2.25 9 2.25C12.7031 2.25 15.75 5.29688 15.75 9C15.75 11.2031 15.2812 11.9531 11.2031 17.7656C10.5469 18.6562 9.79688 19.7344 9 20.9062ZM9 5.25C6.89062 5.25 5.25 6.89062 5.25 9C5.25 11.0625 6.89062 12.75 9 12.75C11.0625 12.75 12.75 11.0625 12.75 9C12.75 6.89062 11.0625 5.25 9 5.25ZM9 10.5C8.15625 10.5 7.5 9.84375 7.5 9C7.5 8.20312 8.15625 7.5 9 7.5C9.79688 7.5 10.5 8.20312 10.5 9C10.5 9.84375 9.79688 10.5 9 10.5Z" fill="black"/>
</svg>
