<svg width="11" height="15" viewBox="0 0 11 15" fill="none" xmlns="http://www.w3.org/2000/svg">
<path d="M5.5 0.75C2.57422 0.75 0.25 3.10156 0.25 6C0.25 8.13281 0.960938 8.73438 4.95312 14.4766C5.08984 14.668 5.28125 14.75 5.5 14.75C5.69141 14.75 5.88281 14.668 6.01953 14.4766C10.0117 8.70703 10.75 8.13281 10.75 6C10.75 3.10156 8.39844 0.75 5.5 0.75ZM5.5 12.9453C5.00781 12.2617 4.57031 11.6328 4.1875 11.1133C1.80859 7.72266 1.5625 7.28516 1.5625 6C1.5625 3.83984 3.3125 2.0625 5.5 2.0625C7.66016 2.0625 9.4375 3.83984 9.4375 6C9.4375 7.28516 9.16406 7.72266 6.78516 11.1133C6.40234 11.6328 5.96484 12.2617 5.5 12.9453ZM5.5 3.8125C4.26953 3.8125 3.3125 4.76953 3.3125 6C3.3125 7.20312 4.26953 8.1875 5.5 8.1875C6.70312 8.1875 7.6875 7.20312 7.6875 6C7.6875 4.76953 6.70312 3.8125 5.5 3.8125ZM5.5 6.875C5.00781 6.875 4.625 6.49219 4.625 6C4.625 5.53516 5.00781 5.125 5.5 5.125C5.96484 5.125 6.375 5.53516 6.375 6C6.375 6.49219 5.96484 6.875 5.5 6.875Z" fill="#151313"/>
</svg>
