<svg width="79" height="75" viewBox="0 0 79 75" fill="none" xmlns="http://www.w3.org/2000/svg">
<path d="M38.7754 0.181396C37.7868 0.308365 36.5826 0.507881 36.0793 0.616707C35.1806 0.798088 33.6528 1.12457 31.2263 1.63242C29.6086 1.95891 26.1396 3.02905 24.7556 3.60945C24.1625 3.84525 23.4795 4.11731 23.2278 4.18987C21.8618 4.62517 17.6199 6.78358 15.9483 7.88998C13.2522 9.70377 12.8568 9.99397 11.7244 10.9734C6.58381 15.4172 3.06089 20.8223 1.35335 26.8622C0.562492 29.6735 0.382751 31.1064 0.400725 34.7521C0.400725 38.4704 0.580466 39.8307 1.19159 40.6469C2.27003 42.0617 3.09684 41.5176 3.09684 39.3954C3.09684 35.4414 3.9596 30.6167 5.36157 26.7715C7.94984 19.6614 13.1264 13.7848 19.8487 10.3023C22.6347 8.86943 23.4615 8.56108 26.6429 7.72675C27.6494 7.45467 28.2965 7.49095 28.2246 7.81744C28.1887 7.99881 26.8226 8.70618 24.7197 9.61308C18.914 12.1524 17.1526 13.2588 14.1869 16.1971C10.0528 20.2781 7.68023 24.2685 6.13446 29.7461C5.39752 32.3398 5.18183 35.3144 5.30765 41.0097C5.45145 47.0315 5.64916 48.9178 6.35015 51.0762C6.96127 52.9444 8.50704 56.2273 9.42372 57.5877C10.5022 59.1475 14.3666 63.029 15.9663 64.1355C16.182 64.2806 16.9908 64.861 17.7637 65.4051C20.7114 67.4728 23.5334 68.942 25.8341 69.5587C27.5236 70.0303 30.6331 70.6651 31.2263 70.6651C31.8015 70.6651 32.1609 71.1185 31.8554 71.4813C31.6037 71.7896 29.9861 71.844 28.62 71.5901C24.6298 70.8465 21.7 69.8851 18.4647 68.289C14.8878 66.5115 10.9875 63.0653 7.80605 58.8392C5.55929 55.8646 4.98412 55.3386 4.46287 55.792C3.45632 56.6264 4.4449 59.8731 6.67368 63.0472C8.66881 65.8767 12.7489 69.5587 15.5888 71.0822C21.5203 74.2745 28.8537 75.5804 36.0793 74.7461C41.831 74.0569 46.8817 72.5151 52.0762 69.8126C53.2086 69.2322 53.658 68.942 55.4554 67.7267C55.743 67.5272 56.3181 67.1282 56.7675 66.8199C58.0077 65.9674 61.5306 62.4849 62.7169 60.9251C67.2284 54.9577 69.6549 49.6252 70.5177 43.8211C71.003 40.5925 70.6974 32.8295 69.9425 28.676C69.1336 24.341 68.4147 22.364 66.4915 19.208C65.1973 17.104 64.9457 16.7775 63.1123 14.9275C59.0682 10.8465 52.7233 7.20074 48.7331 6.63847C45.2461 6.14875 44.8327 6.05807 44.4552 5.71345C43.6104 4.91538 44.1676 4.38938 45.7314 4.51635C49.6857 4.84283 52.8491 5.85854 56.9292 8.14391C61.4048 10.6288 64.8918 13.3495 67.0127 16.0157C70.1582 19.9516 72.5667 26.6264 73.2138 33.1197C73.5373 36.3301 73.3216 43.4402 72.8543 45.7255C71.8477 50.5502 71.1827 52.6179 69.583 55.8646C66.5813 61.9408 62.1417 66.4752 54.3589 71.3725C53.3524 72.0254 52.9749 72.5151 53.1367 72.9686C53.2266 73.2044 53.4423 73.2406 54.1972 73.15C56.0126 72.9504 58.491 71.6111 61.4767 69.4136C63.4759 67.9421 63.4839 67.8685 64.712 66.8199C65.6901 65.9847 70.1222 61.6687 71.4343 59.9637C74.0765 56.4994 75.5145 53.7606 76.5929 50.133C77.9589 45.4535 78.5341 40.266 78.3544 34.1173C78.2825 32.1222 78.1566 30.1633 78.0668 29.7642C77.9769 29.3652 77.7432 28.2225 77.5275 27.2249C76.3233 21.5115 73.4295 15.4172 69.8706 11.0822C65.1434 5.33255 59.1221 2.06773 50.0092 0.344643C48.104 2.28882e-05 41.0581 -0.10881 38.7754 0.181396ZM47.0615 14.9456C47.4209 15.1814 47.6546 15.7981 47.8703 17.0859C47.9781 17.7751 48.2298 18.7364 48.3915 19.2443L48.6971 20.1512L52.4537 21.439C56.3361 22.763 56.8753 22.9807 59.6433 24.341C61.6564 25.3205 62.1417 25.792 61.962 26.572C61.8182 27.2249 60.9734 27.7691 60.3803 27.6058C60.1825 27.5514 56.8394 27.5877 52.9929 27.6965C46.4503 27.8598 38.8473 28.3313 35.8996 28.7667C35.2165 28.8755 33.7067 29.075 32.5743 29.2201C30.3995 29.4922 28.2785 29.7824 23.9468 30.3991C22.5089 30.5986 20.7294 30.8525 19.9925 30.9432C19.2555 31.052 17.8895 31.2515 16.9728 31.4148C15.445 31.6687 15.2473 31.6687 14.8519 31.3966C14.3666 31.0883 14.3846 31.0883 14.5284 30.6893C14.8699 29.7824 21.3585 26.0641 25.9239 24.1415C27.0563 23.6518 28.0988 23.1983 28.2246 23.0895C28.3504 22.9988 29.2312 21.7473 30.1658 20.3144C31.3341 18.5369 32.0171 17.6844 32.2688 17.63C32.4845 17.5937 34.1201 17.2491 35.8996 16.8864C37.679 16.5236 39.3865 16.1971 39.6741 16.1427C39.9797 16.0883 41.2738 15.8162 42.55 15.526C45.7134 14.8186 46.702 14.6917 47.0615 14.9456ZM35.2345 30.6348C35.2705 30.8162 35.1087 31.2697 34.875 31.6324C34.6234 31.9952 34.192 32.6663 33.9044 33.1197C33.1495 34.2806 32.089 35.2963 31.6397 35.2963C31.1184 35.2963 30.5972 34.7884 30.5972 34.2624C30.5972 33.1197 31.8374 31.6506 33.5629 30.7799C34.7312 30.1633 35.1446 30.1451 35.2345 30.6348ZM57.7021 33.3374C58.0077 33.6457 57.9717 34.3531 57.5583 35.5502C57.1988 36.5478 57.1989 36.6203 57.4864 36.9468C57.6482 37.1463 57.9717 37.2914 58.1874 37.2914C58.7266 37.2914 59.4456 37.89 59.2659 38.1802C59.0322 38.5611 57.7021 39.1052 56.9652 39.1052C56.5698 39.1052 55.9946 38.9783 55.6531 38.815C55.0959 38.5429 55.024 38.5429 54.5207 38.9057C53.3524 39.7582 51.7347 40.393 50.872 40.3386C50.4226 40.3205 49.9373 40.393 49.7935 40.5018C48.6612 41.4269 47.0794 41.8259 44.3653 41.844C43.3588 41.844 42.1725 41.9166 41.7052 41.9891C40.2493 42.2249 39.9258 41.6445 40.7705 40.3023C41.166 39.6856 43.4666 37.5454 45.1562 36.2213C45.4078 36.0218 45.5696 35.8404 45.5157 35.786C45.4618 35.7316 44.8686 35.786 44.1676 35.8767C43.4846 35.9674 42.6578 36.0037 42.3163 35.9311C41.6153 35.8041 41.0222 35.26 41.0222 34.7703C41.0222 34.1173 41.5075 33.8452 42.6938 33.8452C43.3049 33.8452 44.3653 33.7183 45.0663 33.5732C45.7494 33.4281 46.8098 33.3011 47.385 33.3011C48.6791 33.3011 49.1105 33.6095 49.1105 34.5163C49.1105 35.0786 48.8589 35.4051 46.9356 37.3821C45.7494 38.6155 44.8327 39.6494 44.9225 39.7038C45.2281 39.867 47.9602 39.994 48.5533 39.867L49.1824 39.7219L49.1285 38.7243C49.0925 37.8537 49.1644 37.6179 49.7037 36.838C50.4945 35.659 52.1481 34.3168 53.4243 33.809C53.9635 33.5913 55.024 33.3555 55.7609 33.3011C56.4979 33.2286 57.1989 33.1741 57.3067 33.156C57.3966 33.1379 57.5763 33.2104 57.7021 33.3374ZM25.2409 33.682C26.3373 34.1173 27.29 34.9517 27.6494 35.786C27.7932 36.1125 27.9011 36.8561 27.9011 37.4365C27.9011 39.5405 26.3014 41.5176 23.785 42.5151C21.8798 43.2769 21.1788 43.3858 20.6036 43.0049C20.352 42.8416 20.1183 42.7328 20.1003 42.7691C20.0644 42.8053 19.8846 43.2769 19.669 43.8211C17.0807 50.5139 16.3617 51.7654 15.463 50.9492C15.1395 50.659 15.1035 50.4776 15.1934 49.2624C15.3911 46.5599 17.2245 41.2999 19.1118 38.0532C19.5971 37.237 19.9925 36.5296 19.9925 36.5115C19.9925 36.4752 19.7229 36.4934 19.3814 36.5296C18.8961 36.5841 18.7163 36.5296 18.5546 36.2213C18.2849 35.7134 18.4287 35.2963 19.1118 34.6433C20.3699 33.4281 23.3896 32.9384 25.2409 33.682ZM40.5009 35.8585C40.9683 36.3301 40.8604 36.8924 40.0695 37.9988C39.4404 38.8694 39.1888 39.1596 37.3015 41.1185L36.0074 42.4607L38.0205 42.4789C39.1349 42.4789 41.0941 42.5333 42.3702 42.5695C44.0238 42.624 44.9585 42.5696 45.5696 42.3882C47.1513 41.9347 47.1334 42.9142 45.5516 43.6941C44.3114 44.3289 42.9634 44.5284 39.1349 44.6191C36.8881 44.6917 35.2884 44.8186 34.4616 45.0182C31.8194 45.653 31.3162 45.5623 31.3162 44.4559C31.3162 43.6941 32.0531 42.7872 34.8031 40.1935C37.3195 37.8356 37.4992 37.5998 36.6545 37.8537C35.8456 38.0895 34.1201 38.0532 33.5629 37.7993C33.3113 37.6905 33.0596 37.3821 32.9878 37.1463C32.79 36.3483 33.3652 36.0943 35.6659 35.9311C36.7803 35.8585 38.0564 35.7316 38.5058 35.659C39.8359 35.4414 40.1055 35.4595 40.5009 35.8585ZM31.8554 36.6748C32.2688 37.763 31.9093 39.3047 30.5253 42.2431C29.9681 43.422 29.5188 44.5103 29.5188 44.6917C29.5188 45.526 28.5481 45.7074 27.8831 44.9819C27.5057 44.5829 27.4517 44.3471 27.4517 43.2225C27.4517 42.0436 27.5236 41.7896 28.1527 40.6469C28.9076 39.2685 30.723 36.5659 31.0466 36.3483C31.3881 36.0943 31.6936 36.2032 31.8554 36.6748ZM52.5256 43.8211C52.5256 44.1113 52.3818 44.6373 52.22 45C52.0583 45.3446 51.9684 45.6893 52.0403 45.7437C52.0942 45.8162 52.8311 45.6893 53.658 45.4897C55.6171 44.9819 57.109 44.8005 57.2707 45.0544C57.5044 45.4353 56.1384 46.0883 51.537 47.8477C50.8899 48.1016 50.8001 48.2286 50.4586 49.2806C50.2429 49.9154 49.9373 50.7679 49.7576 51.1669C49.5778 51.5659 49.2363 52.5272 49.0027 53.3072C48.05 56.318 47.6007 56.9166 47.1334 55.792C46.8098 55.0121 47.0075 52.6723 47.5468 50.5321C48.0141 48.7183 47.9781 48.5369 47.1693 48.5369C46.6121 48.5369 45.8392 47.7388 46.001 47.3217C46.2347 46.6324 46.4503 46.5417 47.7445 46.5417H49.0566L49.9014 45.1995C50.9439 43.5127 51.6808 42.8416 52.1841 43.0956C52.3998 43.2225 52.5256 43.4764 52.5256 43.8211ZM36.4747 46.1064C36.5286 46.2697 36.3669 47.2673 36.0973 48.3374C35.5221 50.6409 35.5041 50.9855 35.9535 50.8041C36.1152 50.7316 36.4568 50.6228 36.6724 50.5683C37.3375 50.4232 37.1218 51.2394 36.3489 51.7473C35.2525 52.491 35.1267 52.6723 35.0008 53.5611C34.929 54.0327 34.7672 54.8851 34.6414 55.4293C34.5155 55.9734 34.3538 56.6445 34.2999 56.9166C34.1021 57.7691 33.3472 58.5127 32.6462 58.5127C31.6217 58.5127 31.2622 57.3338 31.6756 55.2479C31.7475 54.7945 31.8015 54.4136 31.7655 54.3773C31.7475 54.3591 30.9207 54.5949 29.9501 54.9396L28.1707 55.5381L27.6135 57.8053C26.9844 60.3446 26.6788 61.0339 25.9958 61.578C25.3847 62.0677 24.8095 62.0677 24.3782 61.578C23.9468 61.0883 23.9468 59.0206 24.3782 57.7328C24.8635 56.2999 24.7916 56.046 23.9108 55.919C22.9402 55.792 22.2213 55.0665 22.5089 54.5224C22.7605 54.0327 23.4795 53.688 24.8095 53.416C25.7801 53.2165 25.9599 53.1076 26.0498 52.7086C26.1935 52.0919 27.937 48.7183 28.62 47.7207C29.6446 46.2153 30.4354 45.7618 30.6871 46.5236C30.8309 46.977 30.2197 49.5163 29.6266 51.0581C29.357 51.711 29.1593 52.3096 29.1593 52.4003C29.1593 52.5816 30.022 52.4547 31.5319 52.0375C32.5384 51.7654 32.5384 51.7654 32.9518 50.6409C33.6168 48.8452 34.6414 46.8501 35.1806 46.3059C35.7378 45.7618 36.295 45.6711 36.4747 46.1064ZM45.5516 48.0472C45.6056 48.283 45.5157 49.3712 45.3899 50.4595C45.2461 51.5478 45.1742 52.9444 45.2281 53.5611C45.3 54.468 45.2641 54.6856 45.0304 54.7763C44.5631 54.9577 43.6823 54.3047 43.233 53.4523C42.9993 52.9988 42.7836 52.6179 42.7477 52.5816C42.7117 52.5272 42.2804 52.9263 41.813 53.4341C40.2852 55.0847 38.5597 55.6651 37.6071 54.867C37.2296 54.5405 37.1577 54.341 37.1757 53.4523C37.1757 52.8537 37.3555 51.965 37.6071 51.2757L38.0385 50.1149L37.6251 49.7884C37.1218 49.3712 37.3195 49.0085 38.1643 48.8271C38.9911 48.6639 39.5663 48.8815 39.8539 49.4619C40.1594 50.0423 40.2133 51.3845 39.9437 52.0556C39.7101 52.7086 39.9078 52.6542 41.0761 51.7292C42.1725 50.8767 43.1251 49.8066 43.8621 48.6276C44.3833 47.7932 44.5631 47.63 45.0843 47.63C45.3539 47.63 45.4977 47.757 45.5516 48.0472Z" fill="#211D1E"/>
</svg>
