<svg width="118" height="104" viewBox="0 0 118 104" fill="none" xmlns="http://www.w3.org/2000/svg">
<g clip-path="url(#clip0_51_1897)">
<path opacity="0.7" d="M16.0315 32.5054C16.0315 32.5054 9.45177 49.4348 18.6983 66.4818C27.9447 83.5287 46.9899 92.5342 62.2332 100.235C77.4764 107.935 93.3049 104.185 100.826 91.5726C108.348 78.9602 98.032 69.957 98.0179 51.9719C98.0037 33.9868 100.72 29.2254 90.9379 14.0312C81.1557 -1.16288 57.1757 -4.5276 39.0415 6.7422C20.9072 18.012 16.0315 32.5054 16.0315 32.5054Z" fill="white"/>
<path d="M20.2535 99.7832C20.2535 99.7832 -0.844895 71.0056 12.2295 48.8869C25.3039 26.7682 51.271 41.9482 56.2152 21.3061C61.1594 0.663986 79.2063 -2.71954 96.321 23.0931C113.436 48.9057 109.341 84.8031 100.279 99.7832H20.2535Z" fill="#090C9B"/>
<path opacity="0.9" d="M20.2535 99.7832C20.2535 99.7832 -0.844895 71.0056 12.2295 48.8869C25.3039 26.7682 51.271 41.9482 56.2152 21.3061C61.1594 0.663986 79.2063 -2.71954 96.321 23.0931C113.436 48.9057 109.341 84.8031 100.279 99.7832H20.2535Z" fill="white"/>
<path fill-rule="evenodd" clip-rule="evenodd" d="M9.04535 99.7831C9.04535 99.6542 9.15017 99.5498 9.27948 99.5498H108.72C108.85 99.5498 108.955 99.6542 108.955 99.7831C108.955 99.9119 108.85 100.016 108.72 100.016H9.27948C9.15017 100.016 9.04535 99.9119 9.04535 99.7831Z" fill="black"/>
<path fill-rule="evenodd" clip-rule="evenodd" d="M29.2781 72.7197C29.4074 72.7197 29.5123 72.8242 29.5123 72.953V99.6474C29.5123 99.7762 29.4074 99.8806 29.2781 99.8806C29.1488 99.8806 29.044 99.7762 29.044 99.6474V72.953C29.044 72.8242 29.1488 72.7197 29.2781 72.7197Z" fill="black"/>
<path fill-rule="evenodd" clip-rule="evenodd" d="M29.2781 69.3716C29.4074 69.3716 29.5123 69.476 29.5123 69.6048V71.7986C29.5123 71.9274 29.4074 72.0319 29.2781 72.0319C29.1488 72.0319 29.044 71.9274 29.044 71.7986V69.6048C29.044 69.476 29.1488 69.3716 29.2781 69.3716Z" fill="black"/>
<path fill-rule="evenodd" clip-rule="evenodd" d="M29.044 64.1796C29.044 64.0507 29.1488 63.9463 29.2781 63.9463H90.9213C91.0506 63.9463 91.1555 64.0507 91.1555 64.1796V99.7054C91.1555 99.8342 91.0506 99.9387 90.9213 99.9387C90.792 99.9387 90.6872 99.8342 90.6872 99.7054V64.4128H29.5123V68.3649C29.5123 68.4937 29.4074 68.5981 29.2781 68.5981C29.1488 68.5981 29.044 68.4937 29.044 68.3649V64.1796Z" fill="black"/>
<path fill-rule="evenodd" clip-rule="evenodd" d="M84.3884 66.263C84.3884 66.1342 84.4932 66.0298 84.6225 66.0298H88.3749C88.5042 66.0298 88.609 66.1342 88.609 66.263V97.9586C88.609 98.0875 88.5042 98.1919 88.3749 98.1919C88.2456 98.1919 88.1408 98.0875 88.1408 97.9586V66.4963H84.6225C84.4932 66.4963 84.3884 66.3919 84.3884 66.263Z" fill="black"/>
<path fill-rule="evenodd" clip-rule="evenodd" d="M31.5928 66.263C31.5928 66.1342 31.6977 66.0298 31.827 66.0298H82.4442C82.5735 66.0298 82.6784 66.1342 82.6784 66.263C82.6784 66.3919 82.5735 66.4963 82.4442 66.4963H32.0611V99.6469C32.0611 99.7757 31.9563 99.8801 31.827 99.8801C31.6977 99.8801 31.5928 99.7757 31.5928 99.6469V66.263Z" fill="black"/>
<path fill-rule="evenodd" clip-rule="evenodd" d="M33.3888 62.2045C33.3888 62.0756 33.4936 61.9712 33.6229 61.9712H34.8147C34.944 61.9712 35.0488 62.0756 35.0488 62.2045C35.0488 62.3333 34.944 62.4377 34.8147 62.4377H33.6229C33.4936 62.4377 33.3888 62.3333 33.3888 62.2045Z" fill="black"/>
<path fill-rule="evenodd" clip-rule="evenodd" d="M27.9702 62.2045C27.9702 62.0756 28.075 61.9712 28.2043 61.9712H32.863C32.9923 61.9712 33.0971 62.0756 33.0971 62.2045C33.0971 62.3333 32.9923 62.4377 32.863 62.4377H28.4385V63.9322H91.7634V62.4377H36.5257C36.3964 62.4377 36.2916 62.3333 36.2916 62.2045C36.2916 62.0756 36.3964 61.9712 36.5257 61.9712H91.9975C92.1268 61.9712 92.2316 62.0756 92.2316 62.2045V64.1654C92.2316 64.2943 92.1268 64.3987 91.9975 64.3987H28.2043C28.075 64.3987 27.9702 64.2943 27.9702 64.1654V62.2045Z" fill="black"/>
<path fill-rule="evenodd" clip-rule="evenodd" d="M101.74 61.0052C101.868 61.0248 101.955 61.1439 101.936 61.2713L101.35 65.0545C101.331 65.1818 101.211 65.2692 101.083 65.2495C100.955 65.2299 100.868 65.1108 100.888 64.9835L101.473 61.2002C101.493 61.0729 101.612 60.9856 101.74 61.0052Z" fill="black"/>
<path fill-rule="evenodd" clip-rule="evenodd" d="M97.8805 45.7054C97.8805 45.5766 97.9853 45.4722 98.1146 45.4722H100.947C101.371 45.4724 101.791 45.5641 102.176 45.7408C102.562 45.9175 102.904 46.1752 103.181 46.4961C103.457 46.817 103.66 47.1936 103.777 47.6002C103.894 48.0067 103.921 48.4336 103.857 48.8515L102.257 59.1975C102.237 59.3248 102.117 59.4121 101.989 59.3925C101.862 59.3729 101.774 59.2537 101.794 59.1264L103.394 48.7809C103.394 48.7808 103.394 48.7809 103.394 48.7809C103.448 48.4294 103.425 48.0703 103.327 47.7284C103.229 47.3865 103.058 47.0698 102.825 46.7999C102.593 46.53 102.305 46.3133 101.98 46.1646C101.656 46.016 101.304 45.939 100.947 45.9387M97.8805 45.7054C97.8805 45.8343 97.9853 45.9387 98.1146 45.9387L97.8805 45.7054ZM98.1146 45.9387H100.947H98.1146Z" fill="black"/>
<path fill-rule="evenodd" clip-rule="evenodd" d="M95.0013 45.7054C95.0013 45.5766 95.1061 45.4722 95.2354 45.4722H97.3051C97.4344 45.4722 97.5393 45.5766 97.5393 45.7054C97.5393 45.8343 97.4344 45.9387 97.3051 45.9387H95.2354C95.1061 45.9387 95.0013 45.8343 95.0013 45.7054Z" fill="black"/>
<path fill-rule="evenodd" clip-rule="evenodd" d="M87.8321 45.948C87.2412 45.9478 86.6697 46.1585 86.2213 46.5419C85.7728 46.9253 85.4769 47.456 85.3873 48.0379L83.3412 61.2524C83.3214 61.3797 83.2019 61.467 83.0741 61.4474C82.9463 61.4278 82.8587 61.3086 82.8784 61.1813L84.9245 47.9671C84.9245 47.9671 84.9245 47.9672 84.9245 47.9671C85.0311 47.2751 85.383 46.6438 85.9163 46.1878C86.4497 45.7319 87.1293 45.4813 87.8321 45.4814C87.8322 45.4814 87.8321 45.4814 87.8321 45.4814H93.7605C93.8898 45.4814 93.9946 45.5859 93.9946 45.7147C93.9946 45.8435 93.8898 45.948 93.7605 45.948H87.8321Z" fill="black"/>
<path fill-rule="evenodd" clip-rule="evenodd" d="M82.2179 66.9754C82.3457 66.995 82.4333 67.1141 82.4137 67.2414L81.4933 73.1996C81.4736 73.327 81.3541 73.4143 81.2263 73.3947C81.0985 73.3751 81.0108 73.256 81.0305 73.1287L81.9509 67.1705C81.9705 67.0431 82.0901 66.9558 82.2179 66.9754Z" fill="black"/>
<path fill-rule="evenodd" clip-rule="evenodd" d="M98.3258 79.1599C98.4155 79.2527 98.4126 79.4004 98.3195 79.4897C97.3083 80.4595 95.9593 81.0011 94.5558 81.001C94.5557 81.001 94.5558 81.001 94.5558 81.001H91.7379C91.6086 81.001 91.5038 80.8965 91.5038 80.7677C91.5038 80.6389 91.6086 80.5344 91.7379 80.5344H94.5558C95.8382 80.5346 97.0708 80.0397 97.9947 79.1536C98.0879 79.0642 98.2361 79.0671 98.3258 79.1599Z" fill="black"/>
<path fill-rule="evenodd" clip-rule="evenodd" d="M75.9727 80.7674C75.9727 80.6386 76.0775 80.5342 76.2068 80.5342H86.0267C86.156 80.5342 86.2609 80.6386 86.2609 80.7674C86.2609 80.8963 86.156 81.0007 86.0267 81.0007H76.2068C76.0775 81.0007 75.9727 80.8963 75.9727 80.7674Z" fill="black"/>
<path fill-rule="evenodd" clip-rule="evenodd" d="M71.9536 79.7531C72.026 79.6463 72.1716 79.6183 72.2787 79.6904C73.0971 80.2414 74.0624 80.5354 75.0502 80.5345C75.1795 80.5344 75.2844 80.6387 75.2845 80.7675C75.2847 80.8964 75.1799 81.0009 75.0506 81.001C73.9693 81.0021 72.9124 80.6802 72.0165 80.0769C71.9094 80.0048 71.8812 79.8598 71.9536 79.7531Z" fill="black"/>
<path fill-rule="evenodd" clip-rule="evenodd" d="M70.2619 73.5613C70.6688 73.1559 71.2205 72.9282 71.7959 72.9282H87.5559C87.6853 72.9282 87.7901 73.0327 87.7901 73.1615C87.7901 73.2903 87.6853 73.3948 87.5559 73.3948H71.7959C71.3447 73.3948 70.912 73.5733 70.593 73.8912C70.274 74.209 70.0948 74.6401 70.0948 75.0896V75.5927L70.0948 75.5933C70.0921 76.7064 70.4686 77.7875 71.1628 78.6597C71.2431 78.7606 71.2261 78.9074 71.1248 78.9874C71.0235 79.0674 70.8762 79.0505 70.7959 78.9495C70.0359 77.9947 69.6236 76.8111 69.6265 75.5925V75.0896C69.6265 74.5163 69.8551 73.9666 70.2619 73.5613Z" fill="black"/>
<path fill-rule="evenodd" clip-rule="evenodd" d="M94.77 73.1639C94.77 73.0351 94.8748 72.9307 95.0041 72.9307H97.8125C98.2439 72.9311 98.6656 73.0594 99.0235 73.2992C99.3814 73.539 99.6597 73.8794 99.8229 74.2772C99.8718 74.3964 99.8144 74.5326 99.6947 74.5814C99.575 74.6301 99.4383 74.5729 99.3894 74.4537C99.2614 74.1416 99.0431 73.8745 98.7622 73.6863C98.4814 73.4982 98.1508 73.3976 97.8124 73.3972H95.0041C94.8748 73.3972 94.77 73.2928 94.77 73.1639Z" fill="black"/>
<path fill-rule="evenodd" clip-rule="evenodd" d="M79.2607 80.602C79.3525 80.5112 79.5007 80.5117 79.5918 80.6031L80.9392 81.9544H87.5842C87.7135 81.9544 87.8184 82.0588 87.8184 82.1876C87.8184 82.3165 87.7135 82.4209 87.5842 82.4209H80.8417C80.7794 82.4209 80.7196 82.3961 80.6756 82.352L79.2596 80.9318C79.1685 80.8404 79.169 80.6927 79.2607 80.602Z" fill="black"/>
<path fill-rule="evenodd" clip-rule="evenodd" d="M82.5452 82.1883C82.5452 82.0595 82.65 81.9551 82.7794 81.9551H86.8268C86.9561 81.9551 87.0609 82.0595 87.0609 82.1883V86.9145C87.0609 87.0898 86.991 87.258 86.8665 87.382C86.742 87.506 86.5732 87.5757 86.3972 87.5757H83.2089C83.0329 87.5757 82.8641 87.506 82.7396 87.382C82.6151 87.258 82.5452 87.0898 82.5452 86.9145V82.1883ZM83.0135 82.4216V86.9145C83.0135 86.9661 83.0341 87.0156 83.0707 87.0521C83.1073 87.0886 83.157 87.1091 83.2089 87.1091H86.3972C86.4491 87.1091 86.4988 87.0886 86.5354 87.0521C86.572 87.0156 86.5926 86.9661 86.5926 86.9145V82.4216H83.0135Z" fill="black"/>
<path fill-rule="evenodd" clip-rule="evenodd" d="M83.3028 87.3426C83.3028 87.2138 83.4076 87.1094 83.5369 87.1094H86.0692C86.1985 87.1094 86.3033 87.2138 86.3033 87.3426V93.148C86.3033 93.2768 86.1985 93.3813 86.0692 93.3813H83.5369C83.4076 93.3813 83.3028 93.2768 83.3028 93.148V87.3426ZM83.771 87.5759V92.9147H85.8351V87.5759H83.771Z" fill="black"/>
<path fill-rule="evenodd" clip-rule="evenodd" d="M83.5735 93.3787C83.5735 93.3787 83.5735 93.3787 83.5735 93.3787L83.5727 93.3788L83.5697 93.3792L83.5571 93.3808C83.5459 93.3823 83.5289 93.3846 83.5064 93.3877C83.4615 93.394 83.3947 93.4035 83.3079 93.4167C83.1342 93.4431 82.8808 93.4839 82.5633 93.5417C81.928 93.6573 81.0369 93.8405 80.015 94.1105C77.9674 94.6515 75.411 95.537 73.3346 96.9154C73.227 96.9868 73.0817 96.9578 73.01 96.8506C72.9383 96.7434 72.9674 96.5986 73.075 96.5272C75.2135 95.1075 77.8267 94.206 79.895 93.6595C80.931 93.3858 81.8344 93.2001 82.4791 93.0828C82.8016 93.0241 83.0595 92.9825 83.2373 92.9555C83.3262 92.942 83.395 92.9322 83.4419 92.9257C83.4653 92.9224 83.4832 92.92 83.4954 92.9184L83.5093 92.9166L83.513 92.9161L83.514 92.916C83.5141 92.9159 83.5144 92.9159 83.544 93.1473L83.514 92.916C83.6422 92.8997 83.7599 92.9901 83.7762 93.1179C83.7925 93.2457 83.7018 93.3624 83.5735 93.3787Z" fill="black"/>
<path fill-rule="evenodd" clip-rule="evenodd" d="M74.9896 97.0086C79.0011 95.9789 83.2905 95.0258 87.6089 95.6564C87.7368 95.6751 87.8253 95.7936 87.8066 95.9211C87.7878 96.0485 87.6689 96.1367 87.5409 96.118C83.3256 95.5024 79.119 96.4304 75.1064 97.4604C74.9812 97.4926 74.8536 97.4175 74.8213 97.2927C74.789 97.168 74.8644 97.0408 74.9896 97.0086Z" fill="black"/>
<path fill-rule="evenodd" clip-rule="evenodd" d="M91.3833 96.5203C91.4088 96.394 91.5322 96.3122 91.659 96.3376C92.6467 96.5359 93.6325 96.7578 94.6093 97.0082C94.7345 97.0403 94.8099 97.1674 94.7777 97.2922C94.7455 97.417 94.6179 97.4921 94.4926 97.46C93.5248 97.2119 92.5471 96.9918 91.5665 96.795C91.4398 96.7695 91.3577 96.6465 91.3833 96.5203Z" fill="black"/>
<path fill-rule="evenodd" clip-rule="evenodd" d="M91.5153 94.4414C91.5553 94.3189 91.6875 94.2519 91.8104 94.2918C93.4734 94.8314 95.0598 95.5821 96.5304 96.5253C96.6391 96.5951 96.6705 96.7394 96.6005 96.8477C96.5305 96.9561 96.3856 96.9873 96.2769 96.9176C94.8401 95.9961 93.2902 95.2626 91.6654 94.7354C91.5425 94.6955 91.4753 94.5639 91.5153 94.4414Z" fill="black"/>
<path fill-rule="evenodd" clip-rule="evenodd" d="M85.8372 93.1157C85.8548 92.988 85.9729 92.8987 86.101 92.9163C86.6405 92.99 87.1744 93.085 87.7069 93.194C87.8336 93.2199 87.9152 93.3432 87.8892 93.4694C87.8631 93.5956 87.7394 93.6769 87.6127 93.651C87.088 93.5436 86.5645 93.4505 86.0374 93.3785C85.9093 93.3609 85.8197 93.2433 85.8372 93.1157Z" fill="black"/>
<path fill-rule="evenodd" clip-rule="evenodd" d="M73.7004 96.9548C72.9525 96.9548 72.3462 97.5588 72.3462 98.304C72.3462 99.0491 72.9525 99.6531 73.7004 99.6531C74.4483 99.6531 75.0545 99.0491 75.0545 98.304C75.0545 97.5588 74.4483 96.9548 73.7004 96.9548ZM71.878 98.304C71.878 97.3012 72.6939 96.4883 73.7004 96.4883C74.7069 96.4883 75.5228 97.3012 75.5228 98.304C75.5228 99.3067 74.7069 100.12 73.7004 100.12C72.6939 100.12 71.878 99.3067 71.878 98.304Z" fill="black"/>
<path fill-rule="evenodd" clip-rule="evenodd" d="M96.1204 96.9548C95.3726 96.9548 94.7663 97.5588 94.7663 98.304C94.7663 99.0491 95.3726 99.6531 96.1204 99.6531C96.8683 99.6531 97.4746 99.0491 97.4746 98.304C97.4746 97.5588 96.8683 96.9548 96.1204 96.9548ZM94.298 98.304C94.298 97.3012 95.114 96.4883 96.1204 96.4883C97.1269 96.4883 97.9428 97.3012 97.9428 98.304C97.9428 99.3067 97.1269 100.12 96.1204 100.12C95.114 100.12 94.298 99.3067 94.298 98.304Z" fill="black"/>
<path fill-rule="evenodd" clip-rule="evenodd" d="M101.916 64.8001C101.928 64.7983 101.94 64.7974 101.952 64.7974H102.675C102.975 64.7981 103.262 64.9175 103.474 65.1291C103.686 65.3408 103.805 65.6275 103.805 65.9265C103.805 65.9266 103.805 65.9264 103.805 65.9265C103.805 66.1988 103.707 66.462 103.527 66.6674C103.348 66.8729 103.1 67.0067 102.829 67.044L102.828 67.0441L97.0394 67.8247C96.6957 67.8713 96.3765 68.0279 96.1299 68.271C95.8834 68.514 95.7228 68.8303 95.6724 69.1723L94.4263 77.576C94.4074 77.7035 94.2884 77.7915 94.1605 77.7727C94.0326 77.7538 93.9442 77.6353 93.9631 77.5078L95.2091 69.1045C95.2743 68.6625 95.4819 68.2535 95.8006 67.9393C96.1193 67.6251 96.5319 67.4226 96.9762 67.3624L102.765 66.5818L102.797 66.8129L102.765 66.5818C102.924 66.5599 103.069 66.4815 103.174 66.3612C103.279 66.2408 103.337 66.0865 103.337 65.9268L103.571 65.9265M102.674 65.2639C102.674 65.2639 102.674 65.2639 102.674 65.2639V65.2639ZM101.97 65.2639L96.2529 66.1429C95.6193 66.2402 95.0343 66.5396 94.5859 66.9961C94.1376 67.4527 93.8499 68.0417 93.766 68.6749C93.766 68.675 93.766 68.6749 93.766 68.6749L92.5672 77.7884C92.5672 77.7884 92.5672 77.7884 92.5672 77.7884C92.5611 77.8349 92.565 77.8823 92.5787 77.9272C92.5924 77.9722 92.6155 78.0137 92.6465 78.0491C92.6776 78.0844 92.7158 78.1128 92.7587 78.1323C92.8016 78.1518 92.8481 78.162 92.8953 78.1622L92.8934 78.6287C92.7798 78.6282 92.6676 78.6037 92.5643 78.5567C92.4609 78.5097 92.3688 78.4414 92.2941 78.3562C92.2193 78.271 92.1636 78.1709 92.1306 78.0626C92.0976 77.9544 92.0882 77.8403 92.1028 77.7281L93.3017 68.6143C93.3988 67.8809 93.732 67.1985 94.2512 66.6699C94.7705 66.1412 95.4478 65.7945 96.1815 65.6818C96.1815 65.6818 96.1815 65.6818 96.1815 65.6818L101.916 64.8001" fill="black"/>
<path fill-rule="evenodd" clip-rule="evenodd" d="M102.84 66.5836C102.967 66.6074 103.051 66.7294 103.027 66.856L101.566 74.5989C101.724 74.6446 101.87 74.7297 101.989 74.848C102.174 75.0324 102.278 75.2825 102.278 75.5433V77.0669C102.278 77.6339 102.052 78.1777 101.65 78.5786C101.247 78.9795 100.702 79.2048 100.132 79.2048H93.0949C92.9656 79.2048 92.8608 79.1003 92.8608 78.9715C92.8608 78.8427 92.9656 78.7382 93.0949 78.7382H100.132C100.577 78.7382 101.004 78.5621 101.319 78.2487C101.633 77.9353 101.81 77.5102 101.81 77.0669V75.5433C101.81 75.4062 101.755 75.2748 101.658 75.1779C101.561 75.0809 101.429 75.0265 101.291 75.0265C101.222 75.0265 101.155 74.9956 101.111 74.9422C101.067 74.8887 101.048 74.8183 101.061 74.7501L102.567 66.7698C102.591 66.6432 102.713 66.5598 102.84 66.5836Z" fill="black"/>
<path fill-rule="evenodd" clip-rule="evenodd" d="M101.845 66.7093C101.972 66.735 102.054 66.8582 102.028 66.9844L100.461 74.6591C100.439 74.7677 100.343 74.8458 100.232 74.8458H96.1204C95.9911 74.8458 95.8863 74.7414 95.8863 74.6126C95.8863 74.4837 95.9911 74.3793 96.1204 74.3793H100.04L101.569 66.8914C101.595 66.7652 101.719 66.6836 101.845 66.7093Z" fill="black"/>
<path fill-rule="evenodd" clip-rule="evenodd" d="M71.8451 68.4019C71.9733 68.4186 72.0637 68.5357 72.0469 68.6634L71.6268 71.8659C71.6101 71.9936 71.4926 72.0837 71.3643 72.067C71.2361 72.0503 71.1458 71.9332 71.1625 71.8054L71.5826 68.603C71.5994 68.4752 71.7169 68.3852 71.8451 68.4019Z" fill="black"/>
<path fill-rule="evenodd" clip-rule="evenodd" d="M81.3169 66.7816C81.3342 66.9093 81.2444 67.0268 81.1162 67.044L75.3273 67.8247C74.9836 67.8712 74.6645 68.0279 74.4179 68.2709C74.1713 68.514 74.0108 68.8303 73.9604 69.1722L73.5143 72.189C73.4955 72.3165 73.3765 72.4046 73.2486 72.3858C73.1206 72.367 73.0322 72.2485 73.0511 72.121L73.4971 69.1044C73.4971 69.1044 73.4971 69.1045 73.4971 69.1044C73.5623 68.6625 73.7699 68.2535 74.0886 67.9393C74.4073 67.6251 74.8199 67.4226 75.2642 67.3624L81.0534 66.5817C81.1816 66.5644 81.2995 66.6539 81.3169 66.7816Z" fill="black"/>
<path d="M63.1772 16.1284H15.7224V99.7831H63.1772V16.1284Z" fill="white"/>
<path fill-rule="evenodd" clip-rule="evenodd" d="M15.4882 16.1283C15.4882 15.9995 15.593 15.895 15.7223 15.895H63.1772C63.3065 15.895 63.4114 15.9995 63.4114 16.1283V99.783C63.4114 99.9118 63.3065 100.016 63.1772 100.016H15.7223C15.593 100.016 15.4882 99.9118 15.4882 99.783V16.1283ZM15.9565 16.3615V99.5497H62.9431V16.3615H15.9565Z" fill="black"/>
<path fill-rule="evenodd" clip-rule="evenodd" d="M18.4104 66.4316H60.468V66.8982H18.4104V66.4316Z" fill="black"/>
<path fill-rule="evenodd" clip-rule="evenodd" d="M60.468 49.5857H18.4104V49.1191H60.468V49.5857Z" fill="black"/>
<path d="M32.1031 26.5918H18.4104V46.7096H32.1031V26.5918Z" fill="#35C1F1"/>
<path fill-rule="evenodd" clip-rule="evenodd" d="M18.1763 26.5917C18.1763 26.4628 18.2811 26.3584 18.4104 26.3584H32.1031C32.2324 26.3584 32.3372 26.4628 32.3372 26.5917V46.7094C32.3372 46.8382 32.2324 46.9427 32.1031 46.9427H18.4104C18.2811 46.9427 18.1763 46.8382 18.1763 46.7094V26.5917ZM18.6445 26.8249V46.4762H31.869V26.8249H18.6445Z" fill="black"/>
<path d="M30.9679 46.7117V40.2057C29.0938 39.4905 27.1007 39.1355 25.0939 39.1593C22.623 39.1852 20.4353 39.6296 19.2505 40.1492V46.7117H30.9679Z" fill="#35C1F1"/>
<path d="M24.3835 46.7118H25.96L25.5777 41.8728L26.1417 40.6642C26.1417 40.6642 25.2284 40.3398 24.5228 40.6642L24.8839 41.8728L24.3835 46.7118Z" fill="#03045E"/>
<path d="M26.9725 38.3882L28.0227 39.1571L26.7199 42.2913L25.2567 40.6642L23.6401 42.2913L22.1911 39.1571L23.2413 38.3882H26.9725Z" fill="#35C1F1"/>
<path d="M27.2793 38.7688C27.2793 38.7688 26.1488 40.4147 25.2567 40.4429C24.6266 40.4594 23.0053 38.8981 23.0053 38.8981C23.4443 38.5055 23.4773 37.7813 23.4065 37.2099C23.3752 36.9291 23.3199 36.6514 23.2413 36.3799H26.9725C26.7827 36.9071 26.7371 37.4752 26.8403 38.0258C26.8912 38.3184 27.0472 38.5825 27.2793 38.7688Z" fill="white"/>
<path d="M26.8403 38.0282C24.1452 38.7336 23.6119 37.1982 23.6119 37.1982H23.4065C23.3752 36.9173 23.3199 36.6397 23.2413 36.3682H26.9725C26.7802 36.8998 26.7345 37.473 26.8403 38.0282Z" fill="black"/>
<path d="M28.0108 33.7229C28.0108 33.7229 29.7997 28.0233 23.2413 29.5705C23.2413 29.5705 22.7056 29.293 22.3775 29.42C22.0495 29.547 21.7332 31.8489 22.2902 33.9768L28.0108 33.7229Z" fill="black"/>
<path d="M27.7843 33.7724C27.7843 33.7724 28.084 33.4455 28.2327 33.5537C28.3308 33.6361 28.4046 33.7435 28.4461 33.8644C28.4877 33.9853 28.4955 34.1153 28.4687 34.2403C28.3885 34.5154 28.0392 34.9974 28.0132 35.2772C27.9873 35.557 27.8055 35.8768 27.6073 35.691C27.4091 35.5053 27.7843 33.7724 27.7843 33.7724Z" fill="white"/>
<path d="M22.42 33.7724C22.42 33.7724 22.1203 33.4455 21.974 33.5537C21.8759 33.6361 21.8021 33.7435 21.7605 33.8644C21.719 33.9853 21.7112 34.1153 21.738 34.2403C21.8182 34.5154 22.1675 34.9974 22.1958 35.2772C22.2241 35.557 22.4035 35.8768 22.5994 35.691C22.7952 35.5053 22.42 33.7724 22.42 33.7724Z" fill="white"/>
<path d="M25.0443 30.0127C28.8203 30.0127 27.9235 35.0257 27.2273 36.6363C26.9913 37.2006 25.7193 37.9413 25.1033 37.9413C24.5346 37.9413 23.2319 37.0549 23.0006 36.5305C22.302 34.9081 21.443 30.0127 25.0443 30.0127Z" fill="white"/>
<path d="M22.984 31.5201C22.7834 31.7764 22.984 32.5641 23.0383 32.8862C23.0926 33.2083 22.597 33.4246 22.656 34.2405L22.4648 34.5203C22.4648 34.5203 21.9315 33.2154 22.066 32.0914C22.2005 30.9675 22.9109 30.5325 22.9109 30.5325C22.9109 30.5325 23.2342 29.5638 25.1364 29.5708C27.1848 29.5708 27.3925 30.683 27.3925 30.683C27.3925 30.683 28.7802 31.6071 27.7536 34.6144L27.5294 34.2405C27.5828 33.8417 27.4907 33.437 27.2698 33.1001C27.0928 32.8392 27.3784 32.0562 27.3123 31.6564C27.2462 31.2567 23.187 31.2661 22.984 31.5201Z" fill="black"/>
<path d="M24.2797 36.0107C24.3058 36.105 24.3503 36.1931 24.4106 36.2702C24.471 36.3473 24.546 36.4117 24.6314 36.4598C25.0205 36.5525 25.4271 36.5428 25.8114 36.4316C25.922 36.325 25.9991 36.1885 26.0332 36.039" fill="white"/>
<path d="M21.2849 39.5474L18.4104 40.3398V46.7094H24.9405L21.2849 39.5474Z" fill="#03045E"/>
<path d="M32.1031 40.5208L28.4923 39.3828L25.4762 46.7095H32.1031V40.5208Z" fill="#03045E"/>
<path d="M26.7412 46.7115L28.8675 44.245L27.553 42.9894L29.5685 41.8725L28.8746 39.5635L28.0227 39.1567L25.4361 46.7115H26.7412Z" fill="#090C9B"/>
<path d="M21.4925 44.4989L23.6094 46.7115H25.0207L22.1911 39.1567L21.2848 39.5471L20.6052 41.6914L22.6607 43.3162L21.4925 44.4989Z" fill="#090C9B"/>
<path fill-rule="evenodd" clip-rule="evenodd" d="M18.188 24.1839C18.188 24.0551 18.2929 23.9507 18.4222 23.9507H60.4774C60.6067 23.9507 60.7115 24.0551 60.7115 24.1839C60.7115 24.3128 60.6067 24.4172 60.4774 24.4172H18.4222C18.2929 24.4172 18.188 24.3128 18.188 24.1839Z" fill="black"/>
<path d="M34.869 27.6236H45.1492C45.2075 27.628 45.2661 27.6203 45.3212 27.601C45.3764 27.5818 45.427 27.5514 45.4698 27.5118C45.5127 27.4722 45.5468 27.4242 45.5702 27.3708C45.5936 27.3174 45.6056 27.2598 45.6056 27.2016C45.6056 27.1433 45.5936 27.0857 45.5702 27.0323C45.5468 26.979 45.5127 26.931 45.4698 26.8913C45.427 26.8517 45.3764 26.8213 45.3212 26.8021C45.2661 26.7829 45.2075 26.7752 45.1492 26.7795H34.869C34.7622 26.7875 34.6622 26.8354 34.5893 26.9136C34.5164 26.9919 34.4759 27.0948 34.4759 27.2016C34.4759 27.3083 34.5164 27.4112 34.5893 27.4895C34.6622 27.5677 34.7622 27.6157 34.869 27.6236Z" fill="black"/>
<path d="M49.0361 29.6812H34.8761C34.7692 29.6891 34.6693 29.737 34.5964 29.8153C34.5235 29.8936 34.483 29.9964 34.483 30.1032C34.483 30.21 34.5235 30.3128 34.5964 30.3911C34.6693 30.4694 34.7692 30.5173 34.8761 30.5253H49.0361C49.143 30.5173 49.2429 30.4694 49.3159 30.3911C49.3888 30.3128 49.4293 30.21 49.4293 30.1032C49.4293 29.9964 49.3888 29.8936 49.3159 29.8153C49.2429 29.737 49.143 29.6891 49.0361 29.6812Z" fill="black"/>
<path d="M41.2647 32.5852H34.869C34.7622 32.5931 34.6622 32.641 34.5893 32.7193C34.5164 32.7976 34.4759 32.9004 34.4759 33.0072C34.4759 33.114 34.5164 33.2169 34.5893 33.2951C34.6622 33.3734 34.7622 33.4213 34.869 33.4293H41.2647C41.3229 33.4336 41.3815 33.4259 41.4367 33.4067C41.4918 33.3874 41.5424 33.3571 41.5853 33.3174C41.6281 33.2778 41.6623 33.2298 41.6857 33.1764C41.709 33.1231 41.7211 33.0655 41.7211 33.0072C41.7211 32.949 41.709 32.8914 41.6857 32.838C41.6623 32.7846 41.6281 32.7366 41.5853 32.697C41.5424 32.6574 41.4918 32.627 41.4367 32.6078C41.3815 32.5885 41.3229 32.5808 41.2647 32.5852Z" fill="black"/>
<path d="M49.0361 35.4888H34.8761C34.7692 35.4967 34.6693 35.5446 34.5964 35.6229C34.5235 35.7012 34.483 35.804 34.483 35.9108C34.483 36.0176 34.5235 36.1205 34.5964 36.1987C34.6693 36.277 34.7692 36.3249 34.8761 36.3329H49.0361C49.143 36.3249 49.2429 36.277 49.3159 36.1987C49.3888 36.1205 49.4293 36.0176 49.4293 35.9108C49.4293 35.804 49.3888 35.7012 49.3159 35.6229C49.2429 35.5446 49.143 35.4967 49.0361 35.4888Z" fill="black"/>
<path d="M43.2069 38.3903H34.869C34.7622 38.3983 34.6622 38.4462 34.5893 38.5245C34.5164 38.6028 34.4759 38.7056 34.4759 38.8124C34.4759 38.9192 34.5164 39.022 34.5893 39.1003C34.6622 39.1786 34.7622 39.2265 34.869 39.2345H43.2069C43.2652 39.2388 43.3238 39.2311 43.3789 39.2119C43.4341 39.1926 43.4847 39.1622 43.5275 39.1226C43.5704 39.083 43.6046 39.035 43.6279 38.9816C43.6513 38.9282 43.6634 38.8706 43.6634 38.8124C43.6634 38.7542 43.6513 38.6966 43.6279 38.6432C43.6046 38.5898 43.5704 38.5418 43.5275 38.5022C43.4847 38.4626 43.4341 38.4322 43.3789 38.4129C43.3238 38.3937 43.2652 38.386 43.2069 38.3903Z" fill="black"/>
<path d="M39.0392 41.7178H34.4466V46.2934H39.0392V41.7178Z" fill="#BFBFBF"/>
<path fill-rule="evenodd" clip-rule="evenodd" d="M34.2125 41.7176C34.2125 41.5888 34.3173 41.4844 34.4466 41.4844H39.0391C39.1685 41.4844 39.2733 41.5888 39.2733 41.7176V46.2933C39.2733 46.4221 39.1685 46.5265 39.0391 46.5265H34.4466C34.3173 46.5265 34.2125 46.4221 34.2125 46.2933V41.7176ZM34.6807 41.9509V46.06H38.805V41.9509H34.6807Z" fill="black"/>
<path d="M46.1192 41.7178H41.5266V46.2934H46.1192V41.7178Z" fill="#BFBFBF"/>
<path fill-rule="evenodd" clip-rule="evenodd" d="M41.2925 41.7176C41.2925 41.5888 41.3973 41.4844 41.5266 41.4844H46.1192C46.2485 41.4844 46.3533 41.5888 46.3533 41.7176V46.2933C46.3533 46.4221 46.2485 46.5265 46.1192 46.5265H41.5266C41.3973 46.5265 41.2925 46.4221 41.2925 46.2933V41.7176ZM41.7607 41.9509V46.06H45.885V41.9509H41.7607Z" fill="black"/>
<path d="M53.1991 41.7178H48.6066V46.2934H53.1991V41.7178Z" fill="#BFBFBF"/>
<path fill-rule="evenodd" clip-rule="evenodd" d="M48.3724 41.7176C48.3724 41.5888 48.4773 41.4844 48.6066 41.4844H53.1991C53.3284 41.4844 53.4332 41.5888 53.4332 41.7176V46.2933C53.4332 46.4221 53.3284 46.5265 53.1991 46.5265H48.6066C48.4773 46.5265 48.3724 46.4221 48.3724 46.2933V41.7176ZM48.8407 41.9509V46.06H52.965V41.9509H48.8407Z" fill="black"/>
<path fill-rule="evenodd" clip-rule="evenodd" d="M25.4691 53.6222C23.853 53.6222 22.5428 54.9275 22.5428 56.5377C22.5428 58.1479 23.853 59.4533 25.4691 59.4533C27.0853 59.4533 28.3955 58.1479 28.3955 56.5377C28.3955 54.9275 27.0853 53.6222 25.4691 53.6222ZM20.2015 56.5377C20.2015 53.6392 22.5599 51.2896 25.4691 51.2896C28.3783 51.2896 30.7367 53.6392 30.7367 56.5377C30.7367 59.4362 28.3783 61.7859 25.4691 61.7859C22.5599 61.7859 20.2015 59.4362 20.2015 56.5377Z" fill="#EAEAEA"/>
<path fill-rule="evenodd" clip-rule="evenodd" d="M25.4692 53.6198C24.8899 53.6198 24.3237 53.7909 23.8421 54.1115C23.3605 54.4321 22.9851 54.8878 22.7634 55.421C22.5418 55.9542 22.4838 56.5409 22.5968 57.1069C22.7098 57.6729 22.9887 58.1928 23.3983 58.6009C23.8079 59.009 24.3297 59.2869 24.8978 59.3995C25.4659 59.5121 26.0548 59.4543 26.5899 59.2334C27.1251 59.0126 27.5825 58.6386 27.9043 58.1587C28.2261 57.6789 28.3979 57.1148 28.3979 56.5376C28.3979 55.8935 28.922 55.3713 29.5685 55.3713C30.215 55.3713 30.7391 55.8935 30.7391 56.5376C30.7391 57.5761 30.4301 58.5912 29.851 59.4547C29.2719 60.3181 28.4489 60.9911 27.4859 61.3885C26.5229 61.7859 25.4633 61.8899 24.4411 61.6873C23.4188 61.4847 22.4798 60.9846 21.7428 60.2503C21.0057 59.516 20.5038 58.5805 20.3005 57.562C20.0971 56.5435 20.2015 55.4878 20.6004 54.5284C20.9992 53.5689 21.6747 52.7489 22.5413 52.172C23.408 51.5951 24.4269 51.2871 25.4692 51.2871C26.1157 51.2871 26.6398 51.8093 26.6398 52.4534C26.6398 53.0976 26.1157 53.6198 25.4692 53.6198Z" fill="#5463FF"/>
<path d="M28.6669 62.9265H22.2737C22.2154 62.9221 22.1569 62.9298 22.1017 62.9491C22.0465 62.9683 21.9959 62.9987 21.9531 63.0383C21.9102 63.0779 21.8761 63.1259 21.8527 63.1793C21.8293 63.2327 21.8173 63.2903 21.8173 63.3485C21.8173 63.4068 21.8293 63.4644 21.8527 63.5178C21.8761 63.5711 21.9102 63.6191 21.9531 63.6587C21.9959 63.6984 22.0465 63.7287 22.1017 63.748C22.1569 63.7672 22.2154 63.7749 22.2737 63.7706H28.6669C28.7252 63.7749 28.7838 63.7672 28.839 63.748C28.8941 63.7287 28.9447 63.6984 28.9876 63.6587C29.0304 63.6191 29.0646 63.5711 29.0879 63.5178C29.1113 63.4644 29.1234 63.4068 29.1234 63.3485C29.1234 63.2903 29.1113 63.2327 29.0879 63.1793C29.0646 63.1259 29.0304 63.0779 28.9876 63.0383C28.9447 62.9987 28.8941 62.9683 28.839 62.9491C28.7838 62.9298 28.7252 62.9221 28.6669 62.9265Z" fill="black"/>
<path fill-rule="evenodd" clip-rule="evenodd" d="M38.9825 53.6222C37.3663 53.6222 36.0562 54.9275 36.0562 56.5377C36.0562 58.1479 37.3663 59.4533 38.9825 59.4533C40.5987 59.4533 41.9088 58.1479 41.9088 56.5377C41.9088 54.9275 40.5987 53.6222 38.9825 53.6222ZM33.7149 56.5377C33.7149 53.6392 36.0733 51.2896 38.9825 51.2896C41.8917 51.2896 44.2501 53.6392 44.2501 56.5377C44.2501 59.4362 41.8917 61.7859 38.9825 61.7859C36.0733 61.7859 33.7149 59.4362 33.7149 56.5377Z" fill="#EAEAEA"/>
<path fill-rule="evenodd" clip-rule="evenodd" d="M40.1531 52.4528C40.1535 53.097 39.6297 53.6194 38.9831 53.6198C38.502 53.62 38.0284 53.7385 37.6042 53.9646C37.1799 54.1907 36.8182 54.5176 36.5511 54.9163C36.2839 55.3149 36.1195 55.773 36.0724 56.2501C36.0253 56.7271 36.0971 57.2084 36.2812 57.6512C36.4654 58.0941 36.7563 58.4849 37.1282 58.789C37.5001 59.0931 37.9415 59.3011 38.4134 59.3947C38.8852 59.4883 39.373 59.4645 39.8334 59.3255C40.2939 59.1865 40.7128 58.9365 41.0531 58.5977C41.5105 58.1424 42.2517 58.1426 42.7087 58.5983C43.1657 59.0539 43.1654 59.7924 42.708 60.2477C42.0954 60.8576 41.3413 61.3076 40.5125 61.5579C39.6836 61.8082 38.8057 61.8509 37.9563 61.6825C37.1069 61.514 36.3123 61.1395 35.6428 60.5921C34.9734 60.0447 34.4497 59.3412 34.1182 58.5441C33.7867 57.7469 33.6576 56.8806 33.7424 56.0219C33.8271 55.1632 34.123 54.3385 34.604 53.6209C35.0849 52.9033 35.736 52.3149 36.4996 51.9078C37.2632 51.5008 38.1158 51.2876 38.9819 51.2871C39.6284 51.2868 40.1528 51.8087 40.1531 52.4528Z" fill="#FFB149"/>
<path d="M42.1803 62.9265H35.7847C35.6778 62.9344 35.5779 62.9823 35.505 63.0606C35.4321 63.1389 35.3915 63.2417 35.3915 63.3485C35.3915 63.4553 35.4321 63.5582 35.505 63.6364C35.5779 63.7147 35.6778 63.7626 35.7847 63.7706H42.1803C42.2386 63.7749 42.2972 63.7672 42.3523 63.748C42.4075 63.7287 42.4581 63.6984 42.5009 63.6587C42.5438 63.6191 42.5779 63.5711 42.6013 63.5178C42.6247 63.4644 42.6367 63.4068 42.6367 63.3485C42.6367 63.2903 42.6247 63.2327 42.6013 63.1793C42.5779 63.1259 42.5438 63.0779 42.5009 63.0383C42.4581 62.9987 42.4075 62.9683 42.3523 62.9491C42.2972 62.9298 42.2386 62.9221 42.1803 62.9265Z" fill="black"/>
<path fill-rule="evenodd" clip-rule="evenodd" d="M52.4959 53.6222C50.8797 53.6222 49.5695 54.9275 49.5695 56.5377C49.5695 58.1479 50.8797 59.4533 52.4959 59.4533C54.112 59.4533 55.4222 58.1479 55.4222 56.5377C55.4222 54.9275 54.112 53.6222 52.4959 53.6222ZM47.2283 56.5377C47.2283 53.6392 49.5867 51.2896 52.4959 51.2896C55.4051 51.2896 57.7635 53.6392 57.7635 56.5377C57.7635 59.4362 55.4051 61.7859 52.4959 61.7859C49.5867 61.7859 47.2283 59.4362 47.2283 56.5377Z" fill="#EAEAEA"/>
<path fill-rule="evenodd" clip-rule="evenodd" d="M53.6662 52.4255C53.6817 53.0694 53.1703 53.604 52.524 53.6194C51.7596 53.6377 51.0328 53.9531 50.4986 54.4981C49.9645 55.0432 49.6655 55.7747 49.6655 56.5365C49.6655 57.2982 49.9645 58.0298 50.4986 58.5748C51.0328 59.1199 51.7596 59.4353 52.524 59.4535C53.1703 59.469 53.6817 60.0035 53.6662 60.6475C53.6507 61.2915 53.1141 61.801 52.4678 61.7855C51.0924 61.7526 49.7845 61.1852 48.8234 60.2044C47.8623 59.2236 47.3243 57.9072 47.3243 56.5365C47.3243 55.1658 47.8623 53.8494 48.8234 52.8686C49.7845 51.8878 51.0924 51.3203 52.4678 51.2875C53.1141 51.272 53.6507 51.7815 53.6662 52.4255Z" fill="#090C9B"/>
<path d="M55.696 62.9263H49.3004C49.1936 62.9342 49.0936 62.9821 49.0207 63.0604C48.9478 63.1387 48.9073 63.2415 48.9073 63.3483C48.9073 63.4551 48.9478 63.558 49.0207 63.6362C49.0936 63.7145 49.1936 63.7624 49.3004 63.7704H55.696C55.8029 63.7624 55.9029 63.7145 55.9758 63.6362C56.0487 63.558 56.0892 63.4551 56.0892 63.3483C56.0892 63.2415 56.0487 63.1387 55.9758 63.0604C55.9029 62.9821 55.8029 62.9342 55.696 62.9263Z" fill="black"/>
<path d="M26.3282 69.2515H18.4222V77.1283H26.3282V69.2515Z" fill="#BFBFBF"/>
<path fill-rule="evenodd" clip-rule="evenodd" d="M18.188 69.2513C18.188 69.1225 18.2929 69.0181 18.4222 69.0181H26.3282C26.4575 69.0181 26.5623 69.1225 26.5623 69.2513V77.1282C26.5623 77.257 26.4575 77.3615 26.3282 77.3615H18.4222C18.2929 77.3615 18.188 77.257 18.188 77.1282V69.2513ZM18.6563 69.4846V76.8949H26.094V69.4846H18.6563Z" fill="black"/>
<path d="M28.7331 70.1055H53.1732C53.2315 70.1099 53.2901 70.1022 53.3452 70.0829C53.4004 70.0637 53.451 70.0333 53.4938 69.9937C53.5367 69.9541 53.5709 69.9061 53.5942 69.8527C53.6176 69.7993 53.6297 69.7417 53.6297 69.6835C53.6297 69.6252 53.6176 69.5676 53.5942 69.5143C53.5709 69.4609 53.5367 69.4129 53.4938 69.3733C53.451 69.3337 53.4004 69.3033 53.3452 69.284C53.2901 69.2648 53.2315 69.2571 53.1732 69.2614H28.7331C28.6262 69.2694 28.5263 69.3173 28.4533 69.3956C28.3804 69.4739 28.3399 69.5767 28.3399 69.6835C28.3399 69.7903 28.3804 69.8931 28.4533 69.9714C28.5263 70.0497 28.6262 70.0976 28.7331 70.1055Z" fill="black"/>
<path d="M57.0601 72.1558H28.7401C28.6333 72.1637 28.5333 72.2116 28.4604 72.2899C28.3875 72.3682 28.347 72.471 28.347 72.5778C28.347 72.6846 28.3875 72.7875 28.4604 72.8657C28.5333 72.944 28.6333 72.9919 28.7401 72.9999H57.0601C57.167 72.9919 57.267 72.944 57.3399 72.8657C57.4128 72.7875 57.4533 72.6846 57.4533 72.5778C57.4533 72.471 57.4128 72.3682 57.3399 72.2899C57.267 72.2116 57.167 72.1637 57.0601 72.1558Z" fill="black"/>
<path d="M56.3686 75.0568H28.733C28.6261 75.0648 28.5262 75.1127 28.4533 75.191C28.3804 75.2693 28.3398 75.3721 28.3398 75.4789C28.3398 75.5857 28.3804 75.6885 28.4533 75.7668C28.5262 75.8451 28.6261 75.893 28.733 75.901H56.3686C56.4269 75.9053 56.4855 75.8976 56.5406 75.8784C56.5958 75.8591 56.6464 75.8287 56.6892 75.7891C56.7321 75.7495 56.7662 75.7015 56.7896 75.6481C56.813 75.5947 56.825 75.5371 56.825 75.4789C56.825 75.4207 56.813 75.3631 56.7896 75.3097C56.7662 75.2563 56.7321 75.2083 56.6892 75.1687C56.6464 75.1291 56.5958 75.0987 56.5406 75.0794C56.4855 75.0602 56.4269 75.0525 56.3686 75.0568Z" fill="black"/>
<path d="M57.0601 77.96H28.7401C28.6333 77.9679 28.5333 78.0158 28.4604 78.0941C28.3875 78.1724 28.347 78.2752 28.347 78.382C28.347 78.4888 28.3875 78.5917 28.4604 78.6699C28.5333 78.7482 28.6333 78.7961 28.7401 78.8041H57.0601C57.167 78.7961 57.267 78.7482 57.3399 78.6699C57.4128 78.5917 57.4533 78.4888 57.4533 78.382C57.4533 78.2752 57.4128 78.1724 57.3399 78.0941C57.267 78.0158 57.167 77.9679 57.0601 77.96Z" fill="black"/>
<path d="M34.7109 80.8649H28.7331C28.6262 80.8729 28.5263 80.9208 28.4533 80.9991C28.3804 81.0774 28.3399 81.1802 28.3399 81.287C28.3399 81.3938 28.3804 81.4966 28.4533 81.5749C28.5263 81.6532 28.6262 81.7011 28.7331 81.7091H34.7109C34.7692 81.7134 34.8278 81.7057 34.883 81.6865C34.9381 81.6672 34.9887 81.6368 35.0316 81.5972C35.0744 81.5576 35.1086 81.5096 35.132 81.4562C35.1553 81.4028 35.1674 81.3452 35.1674 81.287C35.1674 81.2288 35.1553 81.1712 35.132 81.1178C35.1086 81.0644 35.0744 81.0164 35.0316 80.9768C34.9887 80.9372 34.9381 80.9068 34.883 80.8875C34.8278 80.8683 34.7692 80.8606 34.7109 80.8649Z" fill="black"/>
<path d="M26.3281 84.5352H18.4221V92.412H26.3281V84.5352Z" fill="#BFBFBF"/>
<path fill-rule="evenodd" clip-rule="evenodd" d="M18.188 84.5345C18.188 84.4057 18.2929 84.3013 18.4222 84.3013H26.3282C26.4575 84.3013 26.5623 84.4057 26.5623 84.5345V92.4114C26.5623 92.5402 26.4575 92.6447 26.3282 92.6447H18.4222C18.2929 92.6447 18.188 92.5402 18.188 92.4114V84.5345ZM18.6563 84.7678V92.1781H26.094V84.7678H18.6563Z" fill="black"/>
<path d="M28.733 85.3883H53.1732C53.2315 85.3926 53.29 85.3849 53.3452 85.3657C53.4004 85.3464 53.4509 85.316 53.4938 85.2764C53.5366 85.2368 53.5708 85.1888 53.5942 85.1354C53.6175 85.0821 53.6296 85.0244 53.6296 84.9662C53.6296 84.908 53.6175 84.8504 53.5942 84.797C53.5708 84.7436 53.5366 84.6956 53.4938 84.656C53.4509 84.6164 53.4004 84.586 53.3452 84.5667C53.29 84.5475 53.2315 84.5398 53.1732 84.5441H28.733C28.6261 84.5521 28.5262 84.6 28.4533 84.6783C28.3804 84.7566 28.3398 84.8594 28.3398 84.9662C28.3398 85.073 28.3804 85.1758 28.4533 85.2541C28.5262 85.3324 28.6261 85.3803 28.733 85.3883Z" fill="black"/>
<path d="M57.0601 87.4385H28.7401C28.6332 87.4464 28.5333 87.4943 28.4604 87.5726C28.3874 87.6509 28.3469 87.7537 28.3469 87.8605C28.3469 87.9673 28.3874 88.0702 28.4604 88.1484C28.5333 88.2267 28.6332 88.2746 28.7401 88.2826H57.0601C57.167 88.2746 57.2669 88.2267 57.3398 88.1484C57.4127 88.0702 57.4532 87.9673 57.4532 87.8605C57.4532 87.7537 57.4127 87.6509 57.3398 87.5726C57.2669 87.4943 57.167 87.4464 57.0601 87.4385Z" fill="black"/>
<path d="M56.3687 90.34H28.7331C28.6262 90.348 28.5263 90.3959 28.4533 90.4742C28.3804 90.5525 28.3399 90.6553 28.3399 90.7621C28.3399 90.8689 28.3804 90.9717 28.4533 91.05C28.5263 91.1283 28.6262 91.1762 28.7331 91.1842H56.3687C56.427 91.1885 56.4855 91.1808 56.5407 91.1616C56.5959 91.1423 56.6464 91.1119 56.6893 91.0723C56.7321 91.0327 56.7663 90.9847 56.7897 90.9313C56.813 90.8779 56.8251 90.8203 56.8251 90.7621C56.8251 90.7039 56.813 90.6463 56.7897 90.5929C56.7663 90.5395 56.7321 90.4915 56.6893 90.4519C56.6464 90.4123 56.5959 90.3819 56.5407 90.3626C56.4855 90.3434 56.427 90.3357 56.3687 90.34Z" fill="black"/>
<path d="M57.0601 93.2441H28.7401C28.6332 93.2521 28.5333 93.3 28.4604 93.3783C28.3874 93.4566 28.3469 93.5594 28.3469 93.6662C28.3469 93.773 28.3874 93.8758 28.4604 93.9541C28.5333 94.0324 28.6332 94.0803 28.7401 94.0883H57.0601C57.167 94.0803 57.2669 94.0324 57.3398 93.9541C57.4127 93.8758 57.4532 93.773 57.4532 93.6662C57.4532 93.5594 57.4127 93.4566 57.3398 93.3783C57.2669 93.3 57.167 93.2521 57.0601 93.2441Z" fill="black"/>
<path d="M34.7109 96.1477H28.733C28.6261 96.1556 28.5262 96.2035 28.4533 96.2818C28.3804 96.3601 28.3398 96.4629 28.3398 96.5697C28.3398 96.6765 28.3804 96.7794 28.4533 96.8576C28.5262 96.9359 28.6261 96.9838 28.733 96.9918H34.7109C34.7692 96.9961 34.8277 96.9884 34.8829 96.9692C34.9381 96.9499 34.9887 96.9195 35.0315 96.8799C35.0743 96.8403 35.1085 96.7923 35.1319 96.7389C35.1553 96.6856 35.1673 96.628 35.1673 96.5697C35.1673 96.5115 35.1553 96.4539 35.1319 96.4005C35.1085 96.3471 35.0743 96.2991 35.0315 96.2595C34.9887 96.2199 34.9381 96.1895 34.8829 96.1703C34.8277 96.151 34.7692 96.1433 34.7109 96.1477Z" fill="black"/>
<path d="M66.2523 16.5771L68.2489 19.4904L66.3915 20.9012L64.7301 18.4347" fill="#FEB187"/>
<path d="M68.7987 19.6056L67.2624 17.5317L65.0133 19.22L66.1272 21.2821L68.7987 19.6056Z" fill="#35C1F1"/>
<path d="M81.8778 30.2759L81.8259 37.1582C81.8259 37.1582 80.9881 36.7444 79.7892 36.1236C77.6298 35.002 74.3022 33.2127 72.6219 31.9783C72.2682 31.7407 71.9503 31.4541 71.6779 31.1271C70.5899 29.5776 65.228 20.4357 65.228 20.4357L68.1001 18.376L73.2921 26.0083L74.5665 27.8894L74.6845 27.9293L81.8778 30.2759Z" fill="#03045E"/>
<path opacity="0.3" d="M80.712 33.0055L79.7822 36.1234C77.6228 35.0018 74.2952 33.2125 72.6149 31.978C75.9141 32.6035 80.712 33.0055 80.712 33.0055Z" fill="black" fill-opacity="0.7"/>
<path opacity="0.3" d="M74.6846 27.9175C73.6651 28.1879 73.3488 28.858 73.3488 28.858C72.8768 27.6095 73.0208 26.6525 73.2922 26.0059L74.5666 27.8869L74.6846 27.9175Z" fill="black" fill-opacity="0.7"/>
<path d="M66.3632 17.1322C66.4464 16.965 66.4946 16.7826 66.5048 16.5961C66.5218 16.3463 66.4979 16.0953 66.434 15.8531C66.371 15.6048 66.2716 15.3671 66.139 15.1477C66.0233 14.9487 65.9246 14.7402 65.844 14.5246C65.7874 14.3789 65.7378 14.2331 65.6953 14.0944C65.6075 13.8072 65.5366 13.5151 65.4829 13.2197C65.4829 13.2197 65.0109 13.0621 64.959 13.5183C64.9471 13.6439 64.9527 13.7705 64.9755 13.8945C65.0133 14.1061 65.0817 14.3248 65.1219 14.5011C65.1574 14.6016 65.1639 14.7099 65.1407 14.8139C65.1235 14.8526 65.1013 14.889 65.0747 14.922L65.0463 14.9596C64.988 15.0296 64.9135 15.0844 64.8292 15.1195C64.7926 15.135 64.7534 15.1438 64.7136 15.1454C64.7035 15.1479 64.693 15.1479 64.6829 15.1454C64.6539 15.1487 64.6246 15.1487 64.5956 15.1454C64.4411 15.1125 64.2924 15.057 64.1543 14.9808C63.9479 14.8734 63.7499 14.7508 63.5619 14.614C63.4911 14.5599 63.4227 14.5082 63.3566 14.4541C63.192 14.3212 63.0345 14.1799 62.8846 14.0309C62.7784 13.9251 62.6604 13.8099 62.5377 13.7017C62.4149 13.5935 62.3017 13.4971 62.1884 13.4101C61.8533 13.1585 61.5465 13.0292 61.4403 13.2879C61.3341 13.5465 61.4615 13.6241 61.7305 13.8733C61.8249 13.9603 61.9382 14.0661 62.068 14.1978C62.2922 14.4327 62.4982 14.6842 62.684 14.9502L62.7571 15.0537L62.658 15.1901C62.6745 15.2159 62.6155 15.1901 62.5023 15.143C62.2075 14.9958 61.9229 14.8293 61.6503 14.6446C61.5276 14.5646 61.3978 14.4729 61.2703 14.3812C61.1429 14.2895 61.0343 14.2096 60.9305 14.1202C60.3853 13.6758 60.2579 14.1861 60.3476 14.4118C60.4927 14.6102 60.6765 14.7773 60.888 14.9032L61.268 15.183L61.445 15.3217C61.681 15.5098 61.917 15.7003 62.0751 15.832L62.1412 15.8837L62.0845 16.0977L61.9831 16.0718C61.6883 15.9981 61.4008 15.8982 61.124 15.7732C60.9376 15.6885 60.7936 15.6086 60.6803 15.5381C60.4679 15.4276 60.3523 15.3899 60.2083 15.5169C60.0644 15.6439 60.2083 15.8814 60.4443 16.0836C60.633 16.2409 60.8447 16.3686 61.0721 16.4621C61.1131 16.4776 61.1548 16.491 61.1972 16.5021C61.4102 16.5711 61.6133 16.6675 61.8013 16.789L61.917 16.8571L61.9571 17.0311L61.7683 17.0123C61.5697 16.9879 61.3727 16.9518 61.1783 16.9042C61.0229 16.8614 60.8654 16.8269 60.7063 16.8007C60.6575 16.7877 60.6059 16.7898 60.5583 16.8066C60.5107 16.8234 60.4694 16.8541 60.4396 16.8948C60.3476 17.0311 60.4915 17.1816 60.711 17.3062C60.8446 17.3786 60.9854 17.4369 61.1311 17.4802C61.2381 17.5154 61.3491 17.5367 61.4615 17.5437C61.6714 17.5704 61.8773 17.6217 62.0751 17.6966L62.3111 17.7836C62.6037 17.8894 62.8728 17.9999 62.9648 18.0375L63.0002 18.0516C63.1937 18.1786 63.3637 18.2867 63.5147 18.3643C63.8683 18.5753 64.2653 18.7039 64.6758 18.7405C64.8658 18.7377 65.0485 18.6667 65.1903 18.5407" fill="#FEB187"/>
<path fill-rule="evenodd" clip-rule="evenodd" d="M76.6464 32.6527C76.5849 32.5394 76.443 32.4971 76.3292 32.5583C76.2154 32.6195 76.173 32.761 76.2344 32.8743L76.4404 32.7636C76.2344 32.8743 76.2343 32.8743 76.2344 32.8743L76.2348 32.8752L76.2356 32.8766L76.238 32.881L76.2465 32.896C76.2538 32.9088 76.2644 32.927 76.2785 32.9503C76.3065 32.9967 76.3482 33.0632 76.4046 33.1465C76.5173 33.3132 76.6886 33.5471 76.9261 33.8219C77.4011 34.3716 78.1413 35.0856 79.2069 35.7521C79.3164 35.8206 79.4609 35.7877 79.5297 35.6786C79.5985 35.5695 79.5654 35.4255 79.4559 35.357C78.4353 34.7186 77.7299 34.0371 77.281 33.5175C77.0565 33.2577 76.8963 33.0386 76.7929 32.8858C76.7412 32.8094 76.7038 32.7496 76.6797 32.7097C76.6676 32.6898 76.6589 32.6748 76.6534 32.6652L76.6476 32.6548L76.6464 32.6527C76.6463 32.6525 76.6464 32.6527 76.6464 32.6527Z" fill="#1C1D6F"/>
<path fill-rule="evenodd" clip-rule="evenodd" d="M74.8095 27.8605C74.819 27.9888 74.7226 28.1005 74.594 28.1104C74.5938 28.1104 74.5936 28.1104 74.5933 28.1104L74.576 27.878C74.5933 28.1104 74.5935 28.1104 74.5936 28.1104L74.5937 28.1104L74.594 28.1104L74.5924 28.1105L74.5827 28.1115C74.5735 28.1125 74.559 28.1142 74.5401 28.117C74.5023 28.1225 74.4474 28.1322 74.3827 28.1483C74.2514 28.181 74.0889 28.2379 73.9447 28.3335C73.8026 28.4278 73.6839 28.5557 73.6225 28.7334C73.561 28.9114 73.5477 29.1665 73.666 29.5321C73.7057 29.6547 73.6381 29.7861 73.5151 29.8257C73.392 29.8652 73.2601 29.7979 73.2204 29.6753C73.0791 29.239 73.0776 28.8775 73.1798 28.5816C73.2821 28.2854 73.4791 28.082 73.6851 27.9453C73.8891 27.8099 74.1071 27.736 74.2693 27.6957C74.3513 27.6752 74.4215 27.6628 74.4719 27.6554C74.4972 27.6517 74.5177 27.6492 74.5325 27.6477C74.5398 27.6469 74.5458 27.6463 74.5502 27.6459L74.5556 27.6454L74.5574 27.6453L74.5581 27.6452L74.5584 27.6452C74.5585 27.6452 74.5587 27.6452 74.5754 27.8694L74.5587 27.6452C74.6876 27.6356 74.7999 27.7321 74.8095 27.8605ZM74.594 28.1104L74.594 28.1104L74.594 28.1104" fill="#1C1D6F"/>
<path d="M102.525 92.8818C102.525 92.8818 97.9872 96.7403 95.6201 97.3658C93.2531 97.9912 93.928 99.7688 93.928 99.7688H99.4504L101.81 99.2609V99.7829H103.276C103.276 99.7829 104.579 99.1175 104.255 95.7857C104.244 95.5811 102.525 92.8818 102.525 92.8818Z" fill="black"/>
<path d="M53.4375 94.0573C53.4375 94.0573 49.6072 96.7402 47.2401 97.3656C44.873 97.9911 45.548 99.7687 45.548 99.7687H51.0704L53.4304 99.2608V99.7828H54.896C54.896 99.7828 56.1987 99.1174 55.8754 95.7856C55.8565 95.5802 55.8305 95.3662 55.7975 95.1436C55.2429 91.2663 53.4375 94.0573 53.4375 94.0573Z" fill="black"/>
<path d="M99.2498 95.9221C99.2498 95.9221 85.0237 84.4642 84.2119 82.9759C83.4001 81.4875 81.7882 67.8593 81.7882 67.8593C81.5805 68.0051 68.2465 77.4362 67.6282 78.3509C67.5857 78.4143 67.4984 78.5507 67.3709 78.7529C65.6057 81.5392 56.2955 96.6228 56.2955 96.6228C55.5245 96.647 54.7575 96.5034 54.0479 96.2021C53.3383 95.9008 52.7032 95.449 52.1867 94.8782L61.7777 74.2831L75.8339 60.5891L76.0439 60.3822L77.3844 55.0565L89.444 53.5869C89.444 53.5869 90.4824 57.3984 91.037 60.3869C91.0616 60.5756 91.0734 60.7657 91.0724 60.9559C91.1338 64.3089 90.1709 79.3549 90.6712 80.6175C91.2093 81.9836 102.686 92.7126 102.686 92.7126C102.809 95.1415 99.2498 95.9221 99.2498 95.9221Z" fill="#03045E"/>
<path opacity="0.3" d="M81.7882 67.8592C81.5805 68.005 68.2465 77.4361 67.6282 78.3507C67.5857 78.4142 67.4984 78.5506 67.3709 78.7528C66.8565 75.3693 76.4428 68.2048 76.4428 68.2048L74.4981 67.2032L78.3261 66.6412C76.9997 66.0299 77.4387 64.3628 77.4387 64.3628L81.7882 67.8592Z" fill="black" fill-opacity="0.7"/>
<path opacity="0.3" d="M82.5788 62.409L83.2113 63.3495C79.4636 62.5242 77.1201 61.3838 75.8339 60.5938L76.044 60.3869L77.3844 55.0565L89.444 53.5869C89.444 53.5869 90.4824 57.3984 91.037 60.3869C91.0616 60.5756 91.0734 60.7657 91.0724 60.9559C87.8794 62.1927 82.5788 62.409 82.5788 62.409Z" fill="black" fill-opacity="0.7"/>
<path d="M92.3704 43.1141C91.6955 46.8973 88.9862 51.5129 88.9862 51.5129L89.6234 53.4904L91.332 58.7785L82.0313 61.5389L80.3391 58.3717L78.7792 61.3085L75.6121 60.0435L75.8717 58.7126L76.4711 55.6324C76.4569 55.4584 76.4451 55.275 76.431 55.0869C76.0416 49.3638 76.0817 37.6191 81.446 30.1631C81.446 30.1631 89.4086 31.2682 92.3232 40.1397C92.5875 40.965 92.5663 42.0043 92.3704 43.1141Z" fill="#03045E"/>
<path opacity="0.3" d="M88.9862 51.5131L89.6234 53.4906C88.0374 54.9507 86.1258 56.7166 85.9441 56.9376C85.7081 57.2221 79.1898 58.219 75.8646 58.7128L76.464 55.6326C76.4498 55.4586 76.438 55.2752 76.4239 55.0871L89.916 44.0054L92.3704 43.1143C91.6954 46.8975 88.9862 51.5131 88.9862 51.5131Z" fill="black" fill-opacity="0.7"/>
<path d="M79.6949 45.2984C79.6949 45.2984 92.7504 34.7599 87.9313 33.1045C83.5912 31.6115 78.0452 34.9668 79.6949 45.2984Z" fill="#35C1F1"/>
<path fill-rule="evenodd" clip-rule="evenodd" d="M81.3914 34.613C83.182 32.593 85.7553 32.1094 88.0077 32.8843C88.6675 33.111 89.0625 33.509 89.189 34.0512C89.3104 34.5714 89.172 35.176 88.8912 35.8034C88.3279 37.0623 87.124 38.5589 85.7914 39.9816C84.4536 41.4099 82.9662 42.7844 81.8148 43.8007C81.2387 44.3092 80.746 44.7286 80.3972 45.0211C80.2228 45.1673 80.0843 45.2818 79.9893 45.3599C79.9418 45.3989 79.9051 45.4288 79.8803 45.449L79.8521 45.4719L79.8425 45.4797C79.8423 45.4798 79.8423 45.4799 79.6949 45.2987L79.8425 45.4797C79.7775 45.5322 79.6892 45.5463 79.6111 45.5165C79.533 45.4866 79.4768 45.4176 79.4637 45.3353C78.6327 40.1311 79.6052 36.6282 81.3914 34.613ZM79.8646 44.8569C79.9321 44.8009 80.0095 44.7364 80.0957 44.6641C80.442 44.3738 80.9316 43.9569 81.5042 43.4515C82.6501 42.4402 84.1254 41.0766 85.4491 39.6633C86.778 38.2445 87.9344 36.7961 88.4636 35.6134C88.7291 35.0201 88.82 34.5298 88.7329 34.1568C88.651 33.8058 88.3998 33.5125 87.855 33.3253C85.7673 32.6071 83.3975 33.0546 81.7424 34.9219C80.1272 36.7442 79.1598 39.958 79.8646 44.8569Z" fill="black"/>
<path d="M84.3724 36.8689L82.5788 37.6425C81.6531 39.968 81.0635 42.4126 80.8276 44.9033L79.4447 46.6456L79.06 44.9033C79.06 44.9033 79.735 39.6293 82.0265 37.4755L82.5811 35.3805L84.7476 34.2754L84.3724 36.8689Z" fill="#03045E"/>
<path d="M79.8317 44.6308C79.8317 44.6308 90.1331 37.45 87.7566 32.6392C87.7566 32.6392 90.5768 32.5663 89.385 39.458L85.9441 40.4573L86.9047 42.3736C86.9047 42.3736 83.0295 43.1542 79.4447 46.6412L78.0452 38.4375L79.0577 37.6921L78.4629 36.4318C78.4629 36.4318 82.0242 32.484 85.432 32.8155C85.432 32.8155 81.3728 34.4967 80.3203 37.6968C79.2677 40.897 79.8317 44.6308 79.8317 44.6308Z" fill="#090C9B"/>
<path d="M85.734 32.3966C85.734 32.3966 82.5693 33.3489 81.1556 36.4573L82.8572 35.8295L83.0295 36.3539L83.8814 36.7042V38.4418C83.8814 38.4418 88.7548 36.2434 88.7643 34.4611C88.7666 33.9555 87.556 31.5807 85.734 32.3966Z" fill="#35C1F1"/>
<path d="M88.8351 29.7257C87.5985 31.7031 88.4174 34.1226 88.4174 34.1226C88.4174 34.1226 84.724 36.8642 83.5676 36.1024C83.6052 35.3184 83.5871 34.5326 83.5133 33.7511C83.4556 33.0807 83.3547 32.4147 83.2112 31.7572C83.2112 31.7572 83.603 31.5221 84.1812 31.2094C86.0244 30.1771 89.7791 28.2209 88.8351 29.7257Z" fill="#FEB187"/>
<path d="M64.9519 62.5808C65.0711 62.4863 65.1795 62.3791 65.2752 62.261C65.3473 62.1748 65.4083 62.08 65.4569 61.9788C65.5625 61.796 65.6884 61.6257 65.8322 61.4709L66.0068 61.2781C66.2169 61.043 66.4198 60.8431 66.4906 60.7726L66.5166 60.7444C66.7077 60.6127 66.8659 60.4975 66.9886 60.3893C67.32 60.1435 67.5911 59.8259 67.7815 59.4606C68.0364 58.9903 67.3095 57.7653 66.9154 57.2974C66.7907 57.1581 66.6389 57.0453 66.4694 56.9658C66.2472 56.8544 66.0079 56.7805 65.7614 56.7472C65.507 56.7108 65.2487 56.7108 64.9944 56.7472C64.7661 56.7789 64.5356 56.7915 64.3053 56.7848C64.1495 56.7848 63.9937 56.7707 63.8498 56.7566C63.5494 56.7285 63.2508 56.6837 62.9553 56.6226C62.9134 56.6633 62.8816 56.7132 62.8625 56.7683C62.8434 56.8235 62.8375 56.8823 62.8453 56.9401C62.8531 56.9979 62.8744 57.0531 62.9074 57.1013C62.9405 57.1494 62.9844 57.1892 63.0356 57.2174C63.1472 57.2758 63.2663 57.3185 63.3896 57.3444C63.602 57.3914 63.8309 57.4126 64.0079 57.4408C64.1155 57.4452 64.2195 57.4803 64.3076 57.5419C64.3363 57.5729 64.3617 57.6067 64.3831 57.643L64.4067 57.683C64.4485 57.7638 64.4711 57.8531 64.4728 57.944C64.4727 57.9831 64.4663 58.022 64.4539 58.0592C64.456 58.0693 64.456 58.0797 64.4539 58.0898C64.4416 58.1166 64.4274 58.1425 64.4115 58.1674C64.3223 58.2971 64.2141 58.4128 64.0905 58.5107C63.9099 58.6583 63.7182 58.7919 63.517 58.9104L63.281 59.0373C63.0948 59.1404 62.9034 59.2338 62.7075 59.3172C62.5683 59.3759 62.4173 59.4418 62.2709 59.5123C62.1325 59.5752 61.9978 59.6459 61.8674 59.7239C61.5039 59.9379 61.2703 60.1707 61.4685 60.3658C61.6668 60.561 61.7895 60.4763 62.1246 60.3212C62.2403 60.2671 62.3795 60.2036 62.5518 60.1331C62.8552 60.0159 63.1668 59.9208 63.484 59.8485L63.6067 59.8203L63.6964 59.9614C63.7271 59.9614 63.6964 60.0061 63.5949 60.0884C63.3506 60.3078 63.0928 60.512 62.8232 60.6997C62.7005 60.782 62.5659 60.869 62.4314 60.949C62.2969 61.0289 62.1954 61.0971 62.0609 61.1629C61.4426 61.4992 61.8674 61.8095 62.1105 61.8119C62.3518 61.7556 62.5791 61.6508 62.7783 61.5039L63.1843 61.257L63.3801 61.1488C63.6397 61.0101 63.9088 60.862 64.0881 60.7609L64.1589 60.7209L64.3383 60.8526L64.2769 60.9372C64.097 61.1796 63.8956 61.4055 63.6751 61.612C63.5241 61.7531 63.3967 61.8472 63.2999 61.9365C63.1182 62.094 63.0379 62.1857 63.104 62.3574C63.1701 62.529 63.4415 62.5008 63.7176 62.3574C63.9346 62.243 64.1327 62.0963 64.3053 61.9224C64.3358 61.8906 64.3641 61.8568 64.3902 61.8213C64.5335 61.6508 64.6995 61.5005 64.8835 61.3745L64.992 61.2946L65.169 61.3228C65.1407 61.3816 65.11 61.438 65.0793 61.4898C64.9814 61.6635 64.8734 61.8316 64.756 61.9929C64.656 62.1211 64.563 62.2545 64.4775 62.3927C64.4457 62.4319 64.4274 62.4802 64.4253 62.5306C64.4232 62.581 64.4373 62.6307 64.4657 62.6725C64.5578 62.8159 64.756 62.7289 64.9519 62.5808Z" fill="white"/>
<path fill-rule="evenodd" clip-rule="evenodd" d="M62.7919 56.4554C62.8477 56.4012 62.9268 56.3783 63.003 56.394C63.2899 56.4534 63.5799 56.4969 63.8717 56.5242L63.8727 56.5243C64.0167 56.5384 64.1622 56.5514 64.3053 56.5514L64.3121 56.5515C64.5292 56.5578 64.7465 56.546 64.9616 56.5161C65.2376 56.4767 65.5178 56.4766 65.7937 56.516C66.0646 56.5527 66.3276 56.6338 66.5719 56.756C66.7688 56.8488 66.945 56.98 67.0901 57.1419L67.0948 57.1473C67.3055 57.3975 67.5966 57.8381 67.8039 58.279C67.9076 58.4997 67.995 58.7301 68.0386 58.9433C68.0803 59.1476 68.0909 59.3791 67.9885 59.5695C67.7833 59.9626 67.492 60.3047 67.1363 60.5704C67.0088 60.6819 66.8511 60.7969 66.6714 60.9212L66.6632 60.9301C66.6609 60.9326 66.6586 60.935 66.6562 60.9374C66.6513 60.9423 66.6458 60.9477 66.6398 60.9537C66.5576 61.0354 66.3725 61.2195 66.1817 61.4331L66.1806 61.4343L66.004 61.6293C65.874 61.7692 65.7599 61.923 65.664 62.0879C65.608 62.2027 65.5382 62.3105 65.4563 62.4087C65.3501 62.5396 65.2298 62.6584 65.0977 62.7632L65.0935 62.7665C64.9889 62.8456 64.8604 62.9272 64.7292 62.9615C64.6613 62.9792 64.5771 62.9884 64.4896 62.9639C64.3971 62.938 64.322 62.8801 64.2702 62.8007C64.2148 62.7181 64.1872 62.62 64.1914 62.5207C64.1953 62.4261 64.228 62.335 64.2849 62.2595C64.2857 62.2581 64.2866 62.2567 64.2875 62.2553C64.1455 62.3736 63.9912 62.477 63.8271 62.5634L63.8259 62.5641C63.6702 62.6449 63.498 62.7035 63.3395 62.7086C63.182 62.7136 62.97 62.6604 62.8854 62.4408C62.8322 62.3025 62.8309 62.1646 62.9027 62.0312C62.9601 61.9247 63.0583 61.8367 63.1435 61.7627C63.1895 61.7205 63.2412 61.6775 63.2923 61.6351C63.3006 61.6282 63.3088 61.6214 63.317 61.6145C63.3789 61.563 63.4443 61.5077 63.5148 61.442C63.59 61.3714 63.663 61.2985 63.7335 61.2234C63.6541 61.2665 63.5727 61.3105 63.4922 61.3535L63.3021 61.4585L62.909 61.6976C62.6862 61.8601 62.4327 61.9762 62.1638 62.0389C62.1456 62.0431 62.1269 62.0452 62.1082 62.045C62.0033 62.044 61.894 62.0115 61.8018 61.9618C61.7105 61.9126 61.6105 61.8326 61.5526 61.7156C61.4886 61.586 61.4886 61.4341 61.5698 61.291C61.6437 61.1607 61.776 61.052 61.9487 60.958C61.9517 60.9564 61.9547 60.9549 61.9577 60.9534C62.0451 60.9107 62.1127 60.8693 62.197 60.8177C62.2315 60.7966 62.2689 60.7738 62.3115 60.7485C62.4405 60.6718 62.5706 60.5878 62.6908 60.5072C62.8378 60.4048 62.9812 60.2973 63.1207 60.185C62.9579 60.2336 62.7971 60.2885 62.6386 60.3496C62.4721 60.4178 62.3373 60.4792 62.2241 60.5322L62.2233 60.5326C62.1982 60.5442 62.1729 60.5561 62.148 60.5678C62.0962 60.5922 62.0459 60.6158 62.0019 60.6349C61.9355 60.6636 61.8613 60.692 61.7837 60.7048C61.7004 60.7187 61.613 60.7148 61.5236 60.6806C61.4384 60.648 61.367 60.5937 61.304 60.5316C61.2194 60.4483 61.1627 60.3407 61.162 60.2145C61.1613 60.0952 61.211 59.9935 61.2674 59.9155C61.3763 59.7648 61.5614 59.633 61.7476 59.5234C61.8845 59.4415 62.026 59.3672 62.1713 59.3011C62.3219 59.2286 62.476 59.1614 62.6159 59.1024C62.8042 59.0222 62.9883 58.9324 63.1673 58.8333L63.1698 58.8319L63.4017 58.7072C63.5912 58.5954 63.7718 58.4693 63.942 58.3302L63.9448 58.3279C64.0491 58.2453 64.1405 58.1479 64.2161 58.0386C64.218 58.0356 64.2199 58.0325 64.2217 58.0294C64.2236 58.0146 64.227 57.9999 64.2317 57.9856C64.2361 57.9726 64.2384 57.959 64.2387 57.9454C64.2373 57.8931 64.2245 57.8417 64.2012 57.7948L64.1815 57.7615C64.1728 57.7467 64.163 57.7326 64.1523 57.7193C64.1056 57.6917 64.0528 57.676 63.9983 57.6738C63.9891 57.6734 63.98 57.6725 63.9709 57.671C63.9233 57.6634 63.8653 57.6557 63.8014 57.6471C63.6605 57.6283 63.4909 57.6056 63.34 57.5723C63.1961 57.5419 63.057 57.492 62.9268 57.4238L62.9222 57.4215C62.839 57.3756 62.7678 57.311 62.7141 57.2327C62.6605 57.1546 62.626 57.0649 62.6133 56.971C62.6006 56.8772 62.6102 56.7816 62.6412 56.6921C62.6722 56.6025 62.7239 56.5215 62.7919 56.4554ZM64.3831 57.6429L64.5849 57.5246L64.6085 57.5646C64.6108 57.5684 64.6129 57.5722 64.6149 57.5761C64.673 57.6886 64.7045 57.8129 64.7069 57.9395L64.707 57.9446C64.7069 57.9927 64.7009 58.0405 64.6893 58.0871C64.6887 58.1033 64.6867 58.1196 64.6835 58.1356C64.6799 58.1532 64.6743 58.1704 64.6668 58.1867C64.65 58.2234 64.6305 58.259 64.6086 58.293L64.6046 58.299C64.5026 58.4475 64.3789 58.5799 64.2376 58.692C64.0481 58.8468 63.8471 58.9869 63.6362 59.1111L63.517 58.9103L63.6283 59.1155L63.3935 59.2418C63.2006 59.3485 63.0024 59.4452 62.7995 59.5315L62.7989 59.5318C62.6612 59.5899 62.5142 59.6541 62.3729 59.7222L62.3682 59.7245C62.2378 59.7837 62.1108 59.8502 61.9879 59.9238L61.9865 59.9246C61.8094 60.0289 61.6963 60.1203 61.6473 60.1882C61.6429 60.1942 61.6396 60.1994 61.637 60.2036C61.6705 60.2359 61.6876 60.2436 61.6915 60.2451C61.6931 60.2457 61.6934 60.2457 61.6938 60.2457C61.6946 60.2458 61.6984 60.246 61.7068 60.2447C61.7265 60.2414 61.7583 60.2317 61.8153 60.207C61.8528 60.1908 61.8917 60.1724 61.9387 60.1503C61.9648 60.138 61.9934 60.1246 62.0255 60.1097M64.0323 57.2084C64.1794 57.2171 64.3213 57.2664 64.4421 57.3509C64.4557 57.3604 64.4682 57.3713 64.4795 57.3834C64.5195 57.4265 64.555 57.4741 64.5849 57.5246L64.3831 57.6429" fill="#FEB187"/>
<path d="M66.3538 57.2665L69.7073 56.1309L70.5734 58.2894L67.7438 59.2252" fill="#FEB187"/>
<path d="M69.9646 55.6323L67.5479 56.5517L68.5792 59.164L70.8708 58.6467L69.9646 55.6323Z" fill="#35C1F1"/>
<path d="M92.0164 40.4618C92.0164 40.4618 90.4234 39.8199 88.3867 40.9602C87.1406 41.6656 80.9268 51.3271 81.1557 50.8851L68.4117 55.844L69.7168 59.4815C69.7168 59.4815 83.105 56.1026 84.1883 55.282C85.2715 54.4614 90.9544 48.4633 92.2335 43.4338" fill="#03045E"/>
<path fill-rule="evenodd" clip-rule="evenodd" d="M78.1188 64.9061C78.1813 64.7934 78.3238 64.7525 78.4369 64.8148L78.3237 65.019L78.2105 65.2231C78.0973 65.1608 78.0562 65.0189 78.1188 64.9061ZM78.3237 65.019L78.2105 65.2231L78.2211 65.229L78.2531 65.2468C78.2814 65.2625 78.3233 65.286 78.3774 65.3166C78.4857 65.3777 78.6429 65.4673 78.838 65.5809C79.2282 65.8082 79.7697 66.1311 80.3741 66.5135C81.5866 67.2806 83.0391 68.2789 84.0367 69.2208C84.1306 69.3094 84.2787 69.3054 84.3677 69.2119C84.4566 69.1184 84.4526 68.9707 84.3588 68.8821C83.3268 67.9077 81.8423 66.8897 80.6251 66.1197C80.0148 65.7335 79.4683 65.4076 79.0743 65.1782C78.8772 65.0634 78.7182 64.9728 78.6083 64.9107C78.5534 64.8797 78.5107 64.8558 78.4817 64.8396L78.4485 64.8212L78.4369 64.8148C78.4369 64.8148 78.4369 64.8148 78.3237 65.019Z" fill="#1C1D6F"/>
<path fill-rule="evenodd" clip-rule="evenodd" d="M89.2237 59.8213C89.2512 59.7222 89.2102 59.6132 89.1171 59.5584C89.0058 59.4928 88.8622 59.5296 88.7964 59.6405C88.7807 59.667 88.7736 59.6911 88.7717 59.6976L88.7717 59.6979C88.7686 59.7082 88.7666 59.7174 88.7653 59.7239C88.7627 59.7371 88.7607 59.7505 88.7592 59.7625C88.7561 59.7872 88.7534 59.8176 88.7512 59.8522C88.7469 59.922 88.7443 60.0163 88.7461 60.1289C88.7497 60.3538 88.771 60.6573 88.8344 60.9882C88.9594 61.6413 89.2569 62.4466 89.9547 62.9298C90.0608 63.0034 90.2067 62.9772 90.2805 62.8714C90.3543 62.7656 90.3281 62.6203 90.2219 62.5467C89.6736 62.167 89.4106 61.5086 89.2943 60.9008C89.237 60.6013 89.2175 60.3251 89.2143 60.1214C89.2126 60.0197 89.2151 59.9375 89.2186 59.8811C89.2203 59.8529 89.2222 59.8331 89.2237 59.8213Z" fill="#1C1D6F"/>
<path fill-rule="evenodd" clip-rule="evenodd" d="M81.492 67.0055C81.5158 67.1322 81.4321 67.2541 81.305 67.2778L81.2668 67.0746C81.305 67.2778 81.3051 67.2778 81.305 67.2778L81.3023 67.2783L81.295 67.2797L81.2671 67.2847C81.2428 67.289 81.2071 67.2953 81.1609 67.3031C81.0685 67.3187 80.9341 67.3404 80.7653 67.3653C80.4276 67.4151 79.9513 67.4776 79.3955 67.5283C78.2872 67.6295 76.8497 67.6854 75.5636 67.4956C75.4357 67.4767 75.3473 67.3581 75.3663 67.2307C75.3852 67.1033 75.5043 67.0152 75.6322 67.0341C76.8641 67.2159 78.2587 67.1636 79.3528 67.0637C79.8983 67.0139 80.3658 66.9526 80.6967 66.9038C80.8621 66.8794 80.9932 66.8582 81.0827 66.8431C81.1274 66.8355 81.1617 66.8295 81.1847 66.8254L81.2106 66.8208L81.2169 66.8196L81.2184 66.8193" fill="#1C1D6F"/>
<path fill-rule="evenodd" clip-rule="evenodd" d="M81.2243 59.7408C81.3517 59.763 81.4369 59.8838 81.4147 60.0107L81.184 59.9706L80.9534 59.9305C80.9756 59.8036 81.0969 59.7187 81.2243 59.7408ZM80.9717 65.6079L80.9713 65.6071L80.9699 65.6039L80.9641 65.5902C80.9589 65.578 80.9513 65.5599 80.9416 65.5364C80.9222 65.4895 80.8947 65.4215 80.8626 65.3382C80.7983 65.1714 80.7163 64.945 80.6447 64.7047C80.5726 64.4628 80.5134 64.2148 80.4909 64.0028C80.4668 63.7754 80.492 63.648 80.5252 63.5977C80.583 63.5104 80.6347 63.3863 80.6815 63.254C80.7299 63.1169 80.7791 62.9529 80.8276 62.7743C80.9247 62.417 81.0223 61.9903 81.1089 61.5822C81.1957 61.1736 81.2721 60.7809 81.3268 60.4905C81.3541 60.3453 81.3761 60.2255 81.3912 60.142C81.3988 60.1002 81.4046 60.0675 81.4086 60.0452L81.4131 60.0197L81.4147 60.0107C81.4147 60.0107 81.4147 60.0107 81.184 59.9706L80.9534 59.9305L80.9519 59.9388L80.9475 59.9637C80.9436 59.9856 80.9378 60.0179 80.9304 60.0592C80.9154 60.1418 80.8937 60.2605 80.8666 60.4045C80.8123 60.6927 80.7366 61.0816 80.6508 61.4856C80.5649 61.8903 80.4694 62.3073 80.3756 62.6524C80.3287 62.8251 80.2829 62.977 80.2398 63.0991C80.1949 63.2261 80.1585 63.3043 80.1342 63.341C80.0034 63.5388 80 63.8144 80.0252 64.0518C80.0521 64.3047 80.1202 64.5836 80.1958 64.8375C80.272 65.093 80.3584 65.3315 80.4254 65.5055C80.459 65.5926 80.488 65.6641 80.5086 65.714C80.5189 65.739 80.5271 65.7586 80.5329 65.7721L80.5395 65.7876L80.5413 65.7918L80.542 65.7935C80.5421 65.7935 80.5421 65.7935 80.7569 65.7007L80.542 65.7935C80.5935 65.9117 80.7314 65.966 80.85 65.9147C80.9686 65.8635 81.0231 65.7261 80.9717 65.6079Z" fill="#1C1D6F"/>
<path fill-rule="evenodd" clip-rule="evenodd" d="M80.3807 59.7425C80.5072 59.7692 80.5879 59.8931 80.561 60.0191L80.332 59.9706L80.103 59.9221C80.1299 59.7961 80.2543 59.7157 80.3807 59.7425ZM80.3931 62.6117C80.5178 62.6452 80.5917 62.7732 80.5581 62.8975C80.5245 63.0219 80.396 63.0956 80.2711 63.0621L80.332 62.837C80.2711 63.0621 80.2712 63.0621 80.2711 63.0621L80.2704 63.0619L80.2694 63.0616L80.2668 63.0609L80.2588 63.0586C80.2524 63.0567 80.2436 63.0541 80.2329 63.0506C80.2116 63.0438 80.1822 63.0337 80.1478 63.0201C80.0802 62.9934 79.9875 62.9511 79.8967 62.8898C79.8073 62.8296 79.7065 62.7421 79.6397 62.6204C79.5691 62.4915 79.5435 62.3361 79.5925 62.166C79.6525 61.9572 79.7793 61.4009 79.8931 60.8871C79.9495 60.6323 80.002 60.391 80.0404 60.2134C80.0596 60.1246 80.0752 60.0517 80.0861 60.0011L80.103 59.9221L80.332 59.9706L80.561 60.0191L80.544 60.0987C80.5331 60.1495 80.5174 60.2226 80.4981 60.3116C80.4596 60.4897 80.4069 60.7318 80.3503 60.9875C80.2381 61.4947 80.1077 62.0683 80.0426 62.2945C80.029 62.3418 80.0365 62.371 80.0506 62.3967C80.0686 62.4295 80.1043 62.4665 80.1591 62.5035C80.2125 62.5395 80.2719 62.5673 80.3203 62.5864C80.3439 62.5957 80.3635 62.6024 80.3767 62.6066C80.3832 62.6087 80.3881 62.6102 80.3909 62.611L80.3931 62.6117Z" fill="#1C1D6F"/>
<path d="M79.06 47.3467C79.06 47.3467 78.6376 49.9519 78.7627 51.1911L79.06 47.3467Z" fill="#BFBFBF"/>
<path fill-rule="evenodd" clip-rule="evenodd" d="M79.0974 47.1163C79.225 47.1368 79.3118 47.2566 79.2912 47.3838L79.06 47.3466L78.8289 47.3094C78.8495 47.1822 78.9697 47.0958 79.0974 47.1163ZM79.06 47.3466C78.8289 47.3094 78.8289 47.3093 78.8289 47.3094L78.8276 47.3173L78.824 47.3399C78.8209 47.3596 78.8164 47.3885 78.8107 47.4257C78.7993 47.5 78.7831 47.6075 78.7642 47.7401C78.7263 48.0054 78.6771 48.3723 78.6317 48.7783C78.5419 49.5829 78.4644 50.567 78.5297 51.2143C78.5426 51.3425 78.6574 51.4359 78.7861 51.4231C78.9147 51.4102 79.0086 51.2958 78.9956 51.1676C78.9359 50.5758 79.007 49.6377 79.0971 48.8299C79.1418 48.4297 79.1904 48.0678 79.2278 47.8059C79.2465 47.675 79.2624 47.5692 79.2736 47.4962C79.2792 47.4597 79.2836 47.4315 79.2866 47.4124L79.29 47.3908L79.2912 47.3838L79.06 47.3466Z" fill="#090C9B"/>
<path fill-rule="evenodd" clip-rule="evenodd" d="M89.9492 46.1057C90.0532 46.0292 90.1998 46.0511 90.2766 46.1547C90.3535 46.2583 90.3314 46.4044 90.2275 46.4809L90.0883 46.2933C90.2275 46.4809 90.2275 46.4809 90.2275 46.4809L90.2267 46.4815L90.2252 46.4826L90.2198 46.4865L90.1996 46.501C90.1822 46.5135 90.1567 46.5315 90.1238 46.5542C90.058 46.5996 89.9625 46.6639 89.842 46.7406C89.6012 46.8939 89.2594 47.0976 88.8548 47.2996C88.0524 47.7 86.9739 48.1084 85.9368 48.076C85.8076 48.072 85.7061 47.9643 85.7101 47.8355C85.7142 47.7068 85.8222 47.6057 85.9515 47.6097C86.8708 47.6384 87.8644 47.2721 88.645 46.8825C89.0319 46.6894 89.3593 46.4942 89.5898 46.3475C89.705 46.2742 89.7957 46.2131 89.8572 46.1707C89.8879 46.1495 89.9113 46.1329 89.9269 46.1218L89.9442 46.1094L89.9482 46.1064L89.9492 46.1057Z" fill="#1C1D6F"/>
<path fill-rule="evenodd" clip-rule="evenodd" d="M80.9698 50.7433C81.0484 50.641 81.1954 50.6216 81.298 50.6999L81.1557 50.8851C81.298 50.6999 81.2981 50.7 81.298 50.6999C81.298 50.6999 81.298 50.6999 81.298 50.6999L81.2989 50.7006L81.3047 50.7049C81.3101 50.7089 81.3186 50.715 81.3298 50.7229C81.3524 50.7388 81.3858 50.7616 81.4278 50.788C81.5124 50.8414 81.6285 50.9078 81.7576 50.9629C82.0376 51.0823 82.282 51.1089 82.4367 51.0002C82.5424 50.9259 82.6885 50.9511 82.763 51.0563C82.8375 51.1616 82.8123 51.3072 82.7066 51.3814C82.3327 51.6442 81.8691 51.5179 81.5733 51.3917C81.4144 51.3239 81.2757 51.2442 81.1773 51.1822C81.1279 51.151 81.0879 51.1238 81.0598 51.1041C81.0458 51.0942 81.0347 51.0862 81.0268 51.0804L81.0175 51.0735L81.0148 51.0714L81.0139 51.0707L81.0134 51.0704C81.0134 51.0704 81.0133 51.0703 81.1557 50.8851L81.0134 51.0704C80.9108 50.9921 80.8912 50.8456 80.9698 50.7433Z" fill="#1C1D6F"/>
<path fill-rule="evenodd" clip-rule="evenodd" d="M89.1006 51.7166C89.1006 51.7166 89.1006 51.7166 89.1006 51.7166L89.0982 51.7179L89.0893 51.723C89.0813 51.7276 89.0691 51.7346 89.0533 51.7439C89.0218 51.7625 88.9759 51.7902 88.9198 51.8255C88.8074 51.8964 88.6554 51.9975 88.4966 52.1186C88.3371 52.2401 88.1745 52.379 88.0387 52.5248C87.9011 52.6727 87.8021 52.8159 87.7547 52.9451C87.7103 53.0661 87.5759 53.1284 87.4544 53.0841C87.333 53.0399 87.2705 52.906 87.3149 52.785C87.3926 52.5733 87.5376 52.3771 87.6955 52.2075C87.8553 52.0359 88.0399 51.8793 88.212 51.7481C88.3847 51.6164 88.5487 51.5074 88.6694 51.4313C88.7298 51.3932 88.7797 51.3631 88.8148 51.3424C88.8324 51.3321 88.8463 51.3241 88.8559 51.3185L88.8672 51.3121L88.8704 51.3103L88.8717 51.3096C88.8718 51.3095 88.8718 51.3095 88.9862 51.5131L88.8717 51.3096C88.9845 51.2466 89.1273 51.2867 89.1905 51.3991C89.2536 51.5115 89.2134 51.6536 89.1006 51.7166Z" fill="#090C9B"/>
<path d="M86.9046 31.6422C86.9046 31.6422 85.399 33.2246 83.5133 33.7395C83.4556 33.0691 83.3547 32.4031 83.2112 31.7456C83.2112 31.7456 83.603 31.5105 84.1812 31.1978L86.9046 31.6422Z" fill="black"/>
<path d="M87.3908 31.9947C85.8686 32.8365 84.1434 33.1328 82.5551 32.3968C81.9911 32.1382 81.7173 28.7641 82.5551 25.7849C83.9027 20.9718 87.8085 20.8119 90.9544 23.6688C92.6182 25.183 91.5963 28.1927 89.5124 30.3441" fill="#FEB187"/>
<path d="M88.3277 24.4897C88.3277 24.4897 86.9967 23.4246 84.0797 22.9355C84.0797 22.9355 84.0939 21.1579 84.7523 20.516C85.4108 19.8741 85.9512 21.1979 85.9512 21.1979C85.9512 21.1979 87.6032 20.7417 90.5367 22.7474C93.4702 24.7531 92.0636 29.3945 88.356 31.3673L88.3348 30.5819C88.3348 30.5819 88.3726 28.9548 87.7637 28.6515C87.7637 28.6515 88.2192 27.4759 87.7259 26.6082C87.2327 25.7406 88.3277 24.4897 88.3277 24.4897Z" fill="black"/>
<path d="M87.7566 29.2228C87.7566 29.2228 88.8209 27.9366 89.6941 28.3904C90.5673 28.8442 88.6298 31.6047 87.7566 31.0968" fill="#F2A67C"/>
</g>
<defs>
<clipPath id="clip0_51_1897">
<rect width="118" height="104" fill="white"/>
</clipPath>
</defs>
</svg>
