<svg width="350" height="276" viewBox="0 0 350 276" fill="none" xmlns="http://www.w3.org/2000/svg">
<g clip-path="url(#clip0_86_1657)">
<path d="M350 244.748H0V244.923H350V244.748Z" fill="#EBEBEB"/>
<path d="M271.915 250.011H248.731V250.186H271.915V250.011Z" fill="#EBEBEB"/>
<path d="M211.4 255.94H180.579V256.116H211.4V255.94Z" fill="#EBEBEB"/>
<path d="M303.968 256.515H272.622V256.69H303.968V256.515Z" fill="#EBEBEB"/>
<path d="M67.816 249.836H37.583V250.011H67.816V249.836Z" fill="#EBEBEB"/>
<path d="M78.4842 249.836H74.0532V250.011H78.4842V249.836Z" fill="#EBEBEB"/>
<path d="M158.466 252.793H92.8901V252.969H158.466V252.793Z" fill="#EBEBEB"/>
<path d="M165.9 213.49H30.7371C29.6782 213.488 28.6634 213.065 27.9153 212.315C27.1672 211.565 26.7471 210.548 26.7471 209.488V19.2549C26.7563 18.2009 27.1805 17.193 27.9276 16.4503C28.6747 15.7075 29.6842 15.2899 30.7371 15.2881H165.9C166.96 15.2881 167.977 15.7097 168.726 16.4602C169.476 17.2107 169.897 18.2286 169.897 19.29V209.488C169.897 210.549 169.476 211.567 168.726 212.317C167.977 213.068 166.96 213.49 165.9 213.49ZM30.7371 15.4283C29.7246 15.4301 28.7543 15.8341 28.039 16.5515C27.3238 17.269 26.9221 18.2412 26.9221 19.2549V209.488C26.9221 210.501 27.3238 211.474 28.039 212.191C28.7543 212.909 29.7246 213.312 30.7371 213.314H165.9C166.913 213.312 167.884 212.909 168.601 212.191C169.317 211.474 169.72 210.502 169.722 209.488V19.2549C169.72 18.2406 169.317 17.2683 168.601 16.5511C167.884 15.8339 166.913 15.4301 165.9 15.4283H30.7371Z" fill="#EBEBEB"/>
<path d="M317.317 213.49H182.147C181.087 213.488 180.072 213.065 179.323 212.315C178.573 211.565 178.152 210.548 178.15 209.488V19.2549C178.161 18.2002 178.587 17.1924 179.335 16.4498C180.083 15.7073 181.093 15.2899 182.147 15.2881H317.317C318.368 15.2917 319.376 15.7102 320.122 16.4527C320.867 17.1953 321.291 18.2021 321.3 19.2549V209.488C321.3 210.547 320.881 211.562 320.134 212.312C319.388 213.063 318.375 213.486 317.317 213.49ZM182.147 15.4283C181.134 15.4301 180.163 15.8339 179.446 16.5511C178.73 17.2683 178.327 18.2406 178.325 19.2549V209.488C178.327 210.502 178.73 211.474 179.446 212.191C180.163 212.909 181.134 213.312 182.147 213.314H317.317C318.33 213.312 319.301 212.909 320.017 212.191C320.734 211.474 321.137 210.502 321.139 209.488V19.2549C321.137 18.2406 320.734 17.2683 320.017 16.5511C319.301 15.8339 318.33 15.4301 317.317 15.4283H182.147Z" fill="#EBEBEB"/>
<path d="M239.204 152.642H304.626V32.2139L239.204 32.2139V152.642Z" fill="#E6E6E6"/>
<path d="M231.742 152.642H302.841V32.2139L231.742 32.2139V152.642Z" fill="#F0F0F0"/>
<path d="M296.891 146.67V38.1709L237.706 38.1709V146.67H296.891Z" fill="white"/>
<path d="M89.103 37.0845H37.583V97.0355H89.103V37.0845Z" fill="#E0E0E0"/>
<path d="M92.1832 37.0845H39.3262V97.0355H92.1832V37.0845Z" fill="#F5F5F5"/>
<path d="M87.752 92.3121V41.8086H43.75V92.3121H87.752Z" fill="white"/>
<path d="M161.371 72.0781H109.851V132.029H161.371V72.0781Z" fill="#E0E0E0"/>
<path d="M164.451 72.0781H111.594V132.029H164.451V72.0781Z" fill="#F5F5F5"/>
<path d="M160.02 127.313V76.8091H116.018V127.313H160.02Z" fill="white"/>
<path d="M131.915 181.958C131.565 181.958 131.215 181.958 130.851 181.993C128.618 182.153 126.447 182.806 124.495 183.903C122.543 185.001 120.857 186.517 119.558 188.343C118.259 190.17 117.379 192.261 116.981 194.467C116.584 196.673 116.678 198.94 117.257 201.105C118.916 207.569 119.716 214.224 119.637 220.897V240.339C119.637 240.675 119.703 241.007 119.832 241.317C119.96 241.627 120.148 241.909 120.386 242.146C120.623 242.383 120.905 242.57 121.215 242.698C121.525 242.826 121.857 242.891 122.192 242.89H183.792V181.958H131.915Z" fill="#F0F0F0"/>
<path d="M198.989 197.16C198.901 193.277 197.331 189.575 194.602 186.815C191.873 184.054 188.192 182.445 184.315 182.318C180.438 182.19 176.659 183.554 173.755 186.13C170.851 188.705 169.042 192.296 168.7 196.164C168.595 197.829 168.76 199.501 169.19 201.112C170.845 207.577 171.646 214.231 171.57 220.905V240.346C171.57 241.023 171.839 241.672 172.316 242.15C172.794 242.629 173.442 242.897 174.118 242.897H193.578C194.254 242.897 194.902 242.629 195.38 242.15C195.858 241.672 196.126 241.023 196.126 240.346V219.769C196.069 213.507 196.86 207.267 198.478 201.218C198.83 199.894 199.002 198.529 198.989 197.16Z" fill="#F5F5F5"/>
<path d="M162.897 205.899H107.583V242.897H162.897V205.899Z" fill="#F0F0F0"/>
<path d="M114.59 153.497H63.5318C57.1828 153.497 52.8708 158.648 53.8998 164.998L61.8658 214.261H135.905L127.939 164.998C126.91 158.648 120.932 153.497 114.59 153.497Z" fill="#EBEBEB"/>
<path d="M129.605 153.497H77.441C71.4 153.497 67.298 158.403 68.278 164.444L76.335 214.261H150.367L142.31 164.444C141.33 158.403 135.646 153.497 129.605 153.497Z" fill="#F5F5F5"/>
<path d="M111.202 202.521H162.19C163.074 202.521 163.921 202.872 164.546 203.498C165.171 204.124 165.522 204.972 165.522 205.857V214.267C165.522 215.152 165.171 216.001 164.546 216.626C163.921 217.252 163.074 217.603 162.19 217.603H111.202C110.938 217.603 110.686 217.499 110.499 217.312C110.313 217.125 110.208 216.872 110.208 216.608V203.516C110.208 203.252 110.313 202.999 110.499 202.812C110.686 202.626 110.938 202.521 111.202 202.521Z" fill="#EBEBEB"/>
<path d="M56.4132 181.958C56.0632 181.958 55.7132 181.958 55.3492 181.993C51.697 182.269 48.2665 183.854 45.6863 186.457C43.1061 189.059 41.549 192.506 41.3002 196.164C41.1951 197.829 41.3606 199.5 41.7902 201.112C43.449 207.576 44.2492 214.231 44.1702 220.904V240.346C44.1702 241.023 44.4386 241.672 44.9165 242.15C45.3943 242.628 46.0424 242.897 46.7182 242.897H108.318V181.958H56.4132Z" fill="#F0F0F0"/>
<path d="M123.487 197.16C123.484 194.997 123.021 192.86 122.128 190.892C121.234 188.923 119.932 187.168 118.307 185.744C116.682 184.319 114.772 183.259 112.705 182.633C110.638 182.007 108.461 181.83 106.32 182.113C104.179 182.397 102.123 183.135 100.29 184.278C98.4563 185.421 96.8877 186.942 95.6886 188.74C94.4896 190.539 93.6877 192.573 93.3366 194.706C92.9856 196.84 93.0933 199.024 93.6528 201.112C95.3081 207.577 96.1083 214.231 96.0328 220.904V240.346C96.0328 241.023 96.3012 241.672 96.779 242.15C97.2569 242.628 97.905 242.897 98.5808 242.897H118.041C118.717 242.897 119.365 242.628 119.842 242.15C120.32 241.672 120.589 241.023 120.589 240.346V219.769C120.533 213.508 121.321 207.267 122.934 201.217C123.303 199.897 123.49 198.531 123.487 197.16Z" fill="#F5F5F5"/>
<path d="M182.7 244.748H57.4979C57.0078 244.748 56.5377 244.553 56.1912 244.206C55.8446 243.859 55.6499 243.388 55.6499 242.897H184.576C184.576 243.143 184.527 243.386 184.433 243.612C184.338 243.838 184.199 244.044 184.025 244.216C183.85 244.388 183.643 244.524 183.416 244.615C183.188 244.706 182.945 244.751 182.7 244.748Z" fill="#E0E0E0"/>
<path d="M317.618 216.23H287.49V218.704H317.618V216.23Z" fill="#E6E6E6"/>
<path d="M230.664 244.748H236.229V187.789H230.664V244.748Z" fill="#E6E6E6"/>
<path d="M211.4 218.711H287.49V216.237H211.4V218.711Z" fill="#F5F5F5"/>
<path d="M317.618 229.777H287.49V232.251H317.618V229.777Z" fill="#E6E6E6"/>
<path d="M211.4 232.251H287.49V229.777H211.4V232.251Z" fill="#F5F5F5"/>
<path d="M317.618 189.142H287.49V191.616H317.618V189.142Z" fill="#E6E6E6"/>
<path d="M211.4 191.623H287.49V189.149H211.4V191.623Z" fill="#F5F5F5"/>
<path d="M317.618 202.689H287.49V205.163H317.618V202.689Z" fill="#E6E6E6"/>
<path d="M211.4 205.164H287.49V202.69H211.4V205.164Z" fill="#F5F5F5"/>
<path d="M306.754 244.748H312.319V187.789H306.754V244.748Z" fill="#E6E6E6"/>
<path d="M281.925 244.748H287.49V187.789H281.925V244.748Z" fill="#F5F5F5"/>
<path d="M211.4 244.748H216.965V187.789H211.4V244.748Z" fill="#F5F5F5"/>
<path d="M266.126 187.124H269.101V153.91H266.126V187.124Z" fill="#E6E6E6"/>
<path d="M266.511 187.095H267.351V153.882H266.511V187.095Z" fill="#F0F0F0"/>
<path d="M256.592 189.142H278.6C278.6 188.398 278.305 187.685 277.78 187.159C277.255 186.634 276.542 186.338 275.8 186.338H259.371C258.628 186.338 257.916 186.634 257.391 187.159C256.866 187.685 256.571 188.398 256.571 189.142H256.592Z" fill="#F0F0F0"/>
<path d="M262.647 188.322H263.76C263.926 188.322 264.061 188.187 264.061 188.02V185.701C264.061 185.534 263.926 185.399 263.76 185.399H262.647C262.481 185.399 262.346 185.534 262.346 185.701V188.02C262.346 188.187 262.481 188.322 262.647 188.322Z" fill="#F0F0F0"/>
<path d="M254.289 161.766H280.938L278.39 140.488C278.248 139.287 277.671 138.179 276.768 137.374C275.865 136.569 274.699 136.124 273.49 136.122H261.751C260.543 136.127 259.379 136.573 258.476 137.377C257.574 138.181 256.996 139.288 256.851 140.488L254.289 161.766Z" fill="#F5F5F5"/>
<path d="M175 276.399C249.958 276.399 310.723 272.847 310.723 268.465C310.723 264.083 249.958 260.531 175 260.531C100.042 260.531 39.2769 264.083 39.2769 268.465C39.2769 272.847 100.042 276.399 175 276.399Z" fill="#F5F5F5"/>
<path d="M206.997 90.5392L206.752 91.3662L206.528 92.067C206.374 92.5366 206.206 92.9711 206.038 93.4197C205.702 94.2957 205.338 95.1508 204.939 95.9988C204.162 97.685 203.286 99.3233 202.314 100.905C201.831 101.697 201.32 102.461 200.802 103.225C200.284 103.989 199.731 104.724 199.15 105.446C198.011 106.906 196.788 108.298 195.489 109.616L195.216 109.897C194.839 110.284 194.393 110.595 193.9 110.815C192.442 111.454 190.856 111.749 189.266 111.677C187.881 111.602 186.521 111.282 185.248 110.731C184.181 110.279 183.173 109.701 182.245 109.007C181.412 108.398 180.624 107.73 179.886 107.009C178.545 105.665 177.336 104.196 176.274 102.622C175.756 101.865 175.28 101.087 174.825 100.302C174.37 99.5171 173.978 98.7322 173.551 97.8281C173.272 97.2389 173.208 96.571 173.368 95.9392C173.528 95.3074 173.903 94.7512 174.428 94.3663C174.953 93.9814 175.596 93.7917 176.246 93.83C176.896 93.8683 177.512 94.1321 177.989 94.5761L178.171 94.7443L179.879 96.3142C180.46 96.8469 181.055 97.3585 181.65 97.8491C182.777 98.8061 183.97 99.682 185.22 100.47C186.198 101.123 187.283 101.597 188.426 101.872C188.717 101.954 189.024 101.954 189.315 101.872C189.411 101.829 189.49 101.755 189.539 101.662L187.929 102.881C188.818 101.676 189.679 100.456 190.47 99.1947C191.261 97.9332 192.017 96.6296 192.724 95.319C193.431 94.0084 194.082 92.6558 194.684 91.3031C194.992 90.6022 195.265 89.9434 195.545 89.2706L196.245 87.4344L196.441 86.9298C197 85.6371 198.024 84.6023 199.31 84.0312C200.596 83.4602 202.05 83.3947 203.382 83.8478C204.714 84.3009 205.827 85.2394 206.499 86.4766C207.172 87.7139 207.354 89.1592 207.011 90.5252L206.997 90.5392Z" fill="#2D2D2D"/>
<path d="M175.532 97.863L170.8 96.216L169.806 89.7261C169.806 89.7261 177.737 91.8286 177.702 95.6553L175.532 97.863Z" fill="#CE7A63"/>
<path d="M203.406 64.054C200.319 62.9677 196.056 59.2672 197.729 54.4804C199.003 50.8499 203.721 50.5275 205.576 51.6139C207.431 52.7002 207.508 50.4715 209.881 49.6164C212.254 48.7614 213.927 50.913 215.131 52.0414C216.335 53.1698 217.742 52.3147 219.527 52.3918C221.312 52.4689 222.586 54.8098 221.592 56.5198C219.842 59.5195 222.733 61.4258 220.542 63.7667C217.315 67.1658 219.842 70.5019 215.292 73.887C212.527 75.9615 204.673 72.1559 203.406 64.054Z" fill="#263238"/>
<path d="M203.35 67.2219C203.235 67.2905 203.106 67.3313 202.972 67.3411C202.74 67.3605 202.51 67.2875 202.332 67.1378C202.153 66.9882 202.041 66.7741 202.02 66.5421C201.866 65.1512 202.047 63.7436 202.549 62.4374C203.051 61.1313 203.859 59.9648 204.904 59.0359C204.995 58.9638 205.098 58.9105 205.21 58.8791C205.321 58.8478 205.438 58.839 205.552 58.8534C205.667 58.8678 205.778 58.9049 205.878 58.9628C205.978 59.0206 206.066 59.0979 206.136 59.1901C206.208 59.2802 206.261 59.3837 206.293 59.4945C206.325 59.6053 206.335 59.7214 206.322 59.836C206.309 59.9506 206.273 60.0615 206.218 60.1623C206.162 60.2632 206.086 60.352 205.996 60.4236C205.178 61.1687 204.55 62.0988 204.164 63.1363C203.778 64.1738 203.645 65.2886 203.777 66.3879C203.791 66.553 203.759 66.7188 203.683 66.8663C203.608 67.0138 203.492 67.137 203.35 67.2219Z" fill="#263238"/>
<path d="M198.317 83.5309C198.317 83.5309 192.108 99.4403 198.002 129.086H226.149C226.345 124.762 223.629 103.659 227.794 83.2786C224.682 82.6795 221.535 82.2815 218.372 82.0872C214.387 81.8557 210.393 81.8557 206.409 82.0872C203.678 82.3553 200.972 82.8381 198.317 83.5309Z" fill="white"/>
<path d="M217.189 68.5537C216.433 72.4084 215.684 79.473 218.372 82.0451C218.372 82.0451 213.864 85.7036 209.125 89.4041C208.078 88.5154 207.278 87.371 206.802 86.0817C206.326 84.7925 206.191 83.4021 206.409 82.0451C210.7 81.0219 210.609 77.84 209.846 74.8334L217.189 68.5537Z" fill="#CE7A63"/>
<path opacity="0.2" d="M214.2 71.1396L209.853 74.8542C210.039 75.5427 210.163 76.2463 210.224 76.9567C211.624 78.2884 214.116 74.9173 214.291 73.2002C214.383 72.5134 214.353 71.8156 214.2 71.1396Z" fill="black"/>
<path d="M217.14 62.0704C217.336 67.2988 217.714 70.3475 215.362 73.2841C211.813 77.6854 205.177 75.9403 203.427 70.8731C201.852 66.3176 201.796 58.5381 206.675 55.973C207.745 55.4018 208.944 55.1138 210.156 55.1365C211.369 55.1592 212.556 55.4917 213.604 56.1025C214.653 56.7133 215.528 57.5821 216.146 58.6266C216.765 59.671 217.107 60.8565 217.14 62.0704Z" fill="#CE7A63"/>
<path d="M217 66.9064C215.565 69.7098 213.913 60.844 214.333 59.3652C209.258 60.7669 201.474 60.3043 202.076 56.758C202.776 52.7561 207.424 52.602 212.576 53.0926C221.081 53.9126 218.554 63.8647 217 66.9064Z" fill="#263238"/>
<path d="M214.487 67.4039C214.355 67.4115 214.223 67.3875 214.102 67.3338C213.996 67.2874 213.9 67.2205 213.819 67.1368C213.739 67.0532 213.676 66.9546 213.633 66.8465C213.591 66.7385 213.571 66.6232 213.573 66.5071C213.575 66.3911 213.6 66.2767 213.647 66.1704C214.176 64.8758 215.008 63.7273 216.073 62.8212C217.137 61.9152 218.403 61.2779 219.765 60.9631C219.992 60.9221 220.226 60.9728 220.417 61.1041C220.607 61.2354 220.737 61.4366 220.78 61.6639C220.817 61.8911 220.765 62.1238 220.634 62.3133C220.504 62.5028 220.305 62.6343 220.08 62.6802C219.002 62.9469 218.004 63.4677 217.169 64.1992C216.334 64.9308 215.685 65.8517 215.278 66.8853C215.211 67.0396 215.1 67.1709 214.96 67.263C214.819 67.3552 214.655 67.4042 214.487 67.4039Z" fill="#263238"/>
<path d="M219.744 65.7502C219.468 67.0094 218.74 68.1238 217.7 68.883C216.335 69.8362 215.257 68.6657 215.292 67.0187C215.327 65.5399 216.083 63.2692 217.609 62.9748C219.135 62.6804 220.087 64.2013 219.744 65.7502Z" fill="#CE7A63"/>
<path d="M195.146 261.548C194.495 261.709 193.844 261.772 193.564 261.548C193.492 261.482 193.443 261.395 193.423 261.299C193.403 261.204 193.413 261.105 193.452 261.015C193.476 260.935 193.516 260.86 193.57 260.796C193.625 260.732 193.692 260.68 193.767 260.644C194.558 260.202 196.567 260.777 196.658 260.805C196.684 260.811 196.707 260.826 196.723 260.847C196.74 260.868 196.748 260.894 196.748 260.921C196.748 260.947 196.74 260.973 196.723 260.994C196.707 261.015 196.684 261.03 196.658 261.036C196.17 261.25 195.664 261.421 195.146 261.548ZM194.11 260.756C194.032 260.774 193.957 260.802 193.886 260.84C193.84 260.862 193.799 260.893 193.765 260.932C193.731 260.971 193.706 261.016 193.69 261.064C193.634 261.239 193.69 261.303 193.725 261.338C194.04 261.611 195.328 261.303 196.245 260.931C195.551 260.736 194.826 260.676 194.11 260.756Z" fill="#263238"/>
<path d="M196.651 261.022H196.602C195.902 260.903 194.446 260.097 194.404 259.494C194.404 259.354 194.453 259.158 194.775 259.046C195.005 258.967 195.256 258.982 195.475 259.088C196.245 259.459 196.7 260.805 196.721 260.861C196.733 260.88 196.739 260.902 196.739 260.924C196.739 260.946 196.733 260.968 196.721 260.987C196.702 261.006 196.677 261.018 196.651 261.022ZM194.929 259.256H194.859C194.642 259.326 194.649 259.417 194.656 259.445C194.656 259.81 195.706 260.469 196.42 260.693C196.229 260.129 195.866 259.639 195.384 259.291C195.24 259.229 195.08 259.217 194.929 259.256Z" fill="#263238"/>
<path d="M204.302 262.69L199.031 263.468L199.199 251.371L204.47 250.6L204.302 262.69Z" fill="#CE7A63"/>
<path d="M198.24 260.342H205.149C205.251 260.339 205.35 260.374 205.427 260.44C205.505 260.506 205.555 260.598 205.569 260.699L206.269 265.36C206.283 265.477 206.272 265.595 206.237 265.708C206.202 265.82 206.143 265.924 206.065 266.012C205.987 266.1 205.891 266.17 205.784 266.219C205.677 266.267 205.561 266.292 205.443 266.292C203.378 266.257 200.41 266.138 197.813 266.138C194.782 266.138 192.059 266.299 188.503 266.299C186.354 266.299 185.955 264.26 186.844 263.93C190.82 262.437 192.948 262.185 196.973 260.748C197.37 260.544 197.798 260.406 198.24 260.342Z" fill="#263238"/>
<path opacity="0.2" d="M199.199 251.378L199.108 257.609L204.386 256.831L204.477 250.6L199.199 251.378Z" fill="black"/>
<path d="M201.6 260.713C201.565 258.478 202.265 254.882 196.7 257.083C193.382 258.387 197.883 262.22 197.883 262.22L201.6 260.713Z" fill="#263238"/>
<path d="M198.002 129.065C198.002 129.065 195.202 171.516 195.993 186.612C196.763 200.917 197.197 241.496 197.295 252.142C197.299 252.466 197.371 252.785 197.508 253.078C197.644 253.372 197.842 253.633 198.087 253.844C198.331 254.056 198.618 254.213 198.928 254.305C199.238 254.397 199.564 254.422 199.885 254.378L203.609 253.873C204.106 253.805 204.567 253.576 204.921 253.22C205.275 252.864 205.503 252.402 205.569 251.904C207.977 233.114 210.84 204.127 211.463 188.61C212.163 170.899 216.517 129.037 216.517 129.037L198.002 129.065Z" fill="#03045E"/>
<path opacity="0.2" d="M198.002 129.065C198.002 129.065 195.202 171.516 195.993 186.612C196.763 200.917 197.197 241.496 197.295 252.142C197.299 252.466 197.371 252.785 197.508 253.078C197.644 253.372 197.842 253.633 198.087 253.844C198.331 254.056 198.618 254.213 198.928 254.305C199.238 254.397 199.564 254.422 199.885 254.378L203.609 253.873C204.106 253.805 204.567 253.576 204.921 253.22C205.275 252.864 205.503 252.402 205.569 251.904C207.977 233.114 210.84 204.127 211.463 188.61C212.163 170.899 216.517 129.037 216.517 129.037L198.002 129.065Z" fill="white"/>
<path d="M233.142 260.854C232.533 261.127 231.903 261.309 231.581 261.12C231.499 261.07 231.435 260.994 231.399 260.905C231.362 260.815 231.355 260.716 231.378 260.623C231.386 260.538 231.412 260.456 231.454 260.382C231.496 260.308 231.554 260.244 231.623 260.195C232.323 259.62 234.423 259.831 234.493 259.838C234.519 259.84 234.543 259.849 234.563 259.866C234.583 259.882 234.598 259.904 234.605 259.929C234.61 259.953 234.609 259.979 234.6 260.002C234.591 260.026 234.576 260.047 234.556 260.062C234.109 260.367 233.636 260.633 233.142 260.854ZM231.98 260.258C231.908 260.293 231.84 260.335 231.777 260.384C231.734 260.414 231.698 260.452 231.671 260.497C231.645 260.542 231.628 260.592 231.623 260.644C231.623 260.819 231.665 260.882 231.707 260.903C232.064 261.12 233.275 260.581 234.115 260.062C233.397 259.989 232.673 260.056 231.98 260.258Z" fill="#263238"/>
<path d="M234.5 260.076C233.8 260.076 232.218 259.55 232.071 258.961C232.036 258.828 232.071 258.625 232.358 258.457C232.463 258.396 232.579 258.357 232.699 258.342C232.819 258.328 232.941 258.338 233.058 258.373C233.884 258.604 234.577 259.837 234.605 259.894C234.615 259.913 234.621 259.935 234.621 259.957C234.621 259.979 234.615 260 234.605 260.02C234.592 260.036 234.576 260.049 234.558 260.058C234.54 260.068 234.52 260.074 234.5 260.076ZM232.491 258.674H232.428C232.232 258.786 232.253 258.87 232.26 258.898C232.351 259.249 233.478 259.718 234.22 259.816C233.933 259.292 233.49 258.871 232.953 258.611C232.808 258.572 232.655 258.585 232.519 258.646L232.491 258.674Z" fill="#263238"/>
<path d="M242.662 260.384L237.692 262.073L234.395 250.376L239.358 248.687L242.662 260.384Z" fill="#CE7A63"/>
<path opacity="0.2" d="M211.064 144.246C209.615 150.056 210 174.2 211.498 187.811C211.855 179.842 212.863 167.556 213.885 156.272L211.064 144.246Z" fill="black"/>
<path d="M235.781 259.235L242.585 258.008C242.687 257.988 242.792 258.005 242.883 258.055C242.974 258.105 243.045 258.185 243.082 258.282L244.867 262.697C244.911 262.804 244.93 262.92 244.922 263.036C244.915 263.151 244.882 263.263 244.826 263.364C244.769 263.465 244.691 263.552 244.596 263.619C244.502 263.685 244.393 263.73 244.279 263.748C242.242 264.085 239.288 264.491 236.733 264.954C233.751 265.494 233.73 265.655 230.23 266.3C228.13 266.685 227.227 264.772 228.018 264.288C231.574 262.129 230.993 261.982 234.605 259.866C234.957 259.588 235.355 259.375 235.781 259.235Z" fill="#263238"/>
<path opacity="0.2" d="M234.395 250.383L236.096 256.41L241.066 254.721L239.365 248.694L234.395 250.383Z" fill="black"/>
<path d="M207.991 129.065C207.991 129.065 211.617 171.523 214.41 186.612C217.098 201.134 229.257 242.498 232.841 251.897C233.049 252.445 233.461 252.892 233.99 253.144C234.52 253.396 235.126 253.434 235.683 253.249L239.274 252.079C239.801 251.906 240.248 251.547 240.53 251.069C240.813 250.59 240.911 250.025 240.807 249.479C237.237 231.025 231.553 204.056 230.139 188.61C228.522 170.899 226.149 129.037 226.149 129.037L207.991 129.065Z" fill="#03045E"/>
<path opacity="0.2" d="M207.991 129.065C207.991 129.065 211.617 171.523 214.41 186.612C217.098 201.134 229.257 242.498 232.841 251.897C233.049 252.445 233.461 252.892 233.99 253.144C234.52 253.396 235.126 253.434 235.683 253.249L239.274 252.079C239.801 251.906 240.248 251.547 240.53 251.069C240.813 250.59 240.911 250.025 240.807 249.479C237.237 231.025 231.553 204.056 230.139 188.61C228.522 170.899 226.149 129.037 226.149 129.037L207.991 129.065Z" fill="white"/>
<path d="M209.419 64.2992C209.461 64.7267 209.272 65.0911 208.992 65.1192C208.712 65.1472 208.46 64.8248 208.418 64.4183C208.376 64.0118 208.565 63.6334 208.845 63.6053C209.125 63.5773 209.377 63.8787 209.419 64.2992Z" fill="#263238"/>
<path d="M204.645 64.776C204.687 65.1966 204.498 65.561 204.218 65.589C203.938 65.6171 203.686 65.2947 203.644 64.8882C203.602 64.4817 203.791 64.0962 204.071 64.0682C204.351 64.0401 204.603 64.3485 204.645 64.776Z" fill="#263238"/>
<path d="M206.185 64.832C205.808 66.1759 205.247 67.4613 204.519 68.6517C204.829 68.8291 205.173 68.9368 205.529 68.967C205.884 68.9973 206.242 68.9495 206.577 68.8269L206.185 64.832Z" fill="#BA4D3C"/>
<path d="M207.9 69.8782C207.868 69.8802 207.836 69.8697 207.811 69.8488C207.786 69.8279 207.771 69.7983 207.767 69.7661C207.765 69.7495 207.766 69.7327 207.771 69.7167C207.776 69.7006 207.783 69.6856 207.794 69.6726C207.804 69.6596 207.817 69.6487 207.832 69.6407C207.846 69.6327 207.862 69.6277 207.879 69.6259C208.405 69.5868 208.915 69.4236 209.366 69.1495C209.818 68.8754 210.198 68.4983 210.476 68.049C210.491 68.0194 210.517 67.997 210.548 67.9865C210.58 67.976 210.614 67.9783 210.644 67.9929C210.672 68.0092 210.694 68.0353 210.704 68.0664C210.714 68.0974 210.713 68.1311 210.7 68.1612C210.405 68.6508 209.996 69.0623 209.509 69.3611C209.022 69.6599 208.47 69.8373 207.9 69.8782Z" fill="#263238"/>
<path d="M210.7 62.6175C210.662 62.6206 210.623 62.6154 210.587 62.6021C210.55 62.5888 210.517 62.5677 210.49 62.5404C210.287 62.2986 210.029 62.1089 209.738 61.987C209.447 61.8651 209.131 61.8145 208.817 61.8395C208.752 61.8497 208.686 61.8342 208.632 61.7963C208.579 61.7583 208.542 61.7009 208.53 61.6363C208.524 61.604 208.525 61.5709 208.532 61.5388C208.539 61.5067 208.552 61.4764 208.571 61.4496C208.59 61.4228 208.614 61.4001 208.642 61.3828C208.67 61.3655 208.701 61.354 208.733 61.3489C209.123 61.3079 209.517 61.3609 209.883 61.5036C210.248 61.6462 210.574 61.8744 210.833 62.1689C210.857 62.1918 210.877 62.2195 210.89 62.2503C210.903 62.281 210.91 62.3141 210.91 62.3476C210.91 62.3811 210.903 62.4142 210.89 62.445C210.877 62.4757 210.857 62.5034 210.833 62.5263C210.799 62.5691 210.752 62.6008 210.7 62.6175Z" fill="#263238"/>
<path d="M202.335 63.2901C202.298 63.2975 202.26 63.2975 202.223 63.2901C202.163 63.2626 202.116 63.2127 202.093 63.1511C202.069 63.0896 202.071 63.0212 202.097 62.9607C202.249 62.5957 202.486 62.2724 202.787 62.0176C203.089 61.7628 203.448 61.5839 203.833 61.4959C203.867 61.4839 203.904 61.4795 203.941 61.4832C203.977 61.4868 204.012 61.4983 204.044 61.5169C204.075 61.5356 204.102 61.5608 204.123 61.591C204.144 61.6212 204.158 61.6555 204.164 61.6916C204.17 61.7277 204.169 61.7648 204.159 61.8001C204.149 61.8355 204.132 61.8684 204.109 61.8964C204.085 61.9245 204.056 61.9471 204.023 61.9627C203.99 61.9782 203.953 61.9864 203.917 61.9865C203.613 62.0608 203.33 62.2062 203.093 62.4109C202.856 62.6156 202.67 62.8737 202.552 63.164C202.53 63.2026 202.499 63.2348 202.461 63.257C202.423 63.2792 202.379 63.2906 202.335 63.2901Z" fill="#263238"/>
<path d="M219.1 81.1689C221.844 81.1689 228.459 81.3161 229.103 83.7691C229.747 86.2221 229.04 90.1959 228.165 92.5298C229.453 96.0901 229.04 101.347 227.815 102.987C229.159 106.953 228.284 109.876 227.465 111.278C228.109 112.855 228.69 117.354 227.703 119.569C228.515 122.723 229.446 127.979 227.99 129.037C226.009 130.439 220.738 131.14 217.014 130.257C213.29 129.374 214.753 121.847 215.04 120.094C213.409 117.936 215.159 111.453 215.159 111.453C214.34 109.645 215.565 102.867 215.565 102.867C214.578 101.234 215.859 92.3546 215.859 92.3546C214.795 90.5744 214.333 81.1689 219.1 81.1689Z" fill="black"/>
<path d="M198.947 82.8021C201.103 81.8489 208.327 80.1178 206.927 82.0242C204.897 84.7925 206.143 87.7081 204.939 91.1353C206.003 94.4082 205.639 99.7558 204.652 101.648C205.528 104.393 205.44 107.357 204.4 110.044C204.925 111.446 205.408 115.84 204.589 118.279C205.289 121.251 205.821 127.243 204.589 128.596C203.702 129.574 202.527 130.243 201.234 130.507C199.941 130.77 198.598 130.614 197.4 130.061C195.685 129.36 194.922 123.627 195.769 121.65C194.103 118.013 195.461 112.623 195.461 112.623C193.851 109.82 195.097 103.94 195.097 103.94C193.501 98.7255 195.461 92.9575 195.461 92.9575C194.6 91.3946 195.51 84.323 198.947 82.8021Z" fill="black"/>
<path d="M203.7 83.4464C203.413 83.2335 203.18 82.9568 203.018 82.6382C202.857 82.3195 202.771 81.9676 202.769 81.6102C202.763 81.3706 202.805 81.1324 202.892 80.9091C202.979 80.6858 203.109 80.482 203.275 80.3093C203.441 80.1366 203.64 79.9986 203.859 79.9031C204.079 79.8076 204.315 79.7566 204.554 79.7529C205.374 79.8211 206.17 80.0598 206.892 80.4538C207.991 80.9934 208.397 81.491 208.446 82.304C208.495 83.117 206.493 85.9765 205.394 85.2967C204.295 84.6169 204.316 84.1473 203.7 83.4464Z" fill="#2D2D2D"/>
<path opacity="0.2" d="M224.938 93.4687C225.484 91.1068 226.87 91.3171 228.249 92.2842L228.151 92.5576C229.439 96.1179 229.026 101.374 227.801 103.014C227.878 103.239 227.948 103.463 228.011 103.715C226.296 102.033 223.916 97.9261 224.938 93.4687Z" fill="black"/>
<path d="M225.176 99.2368L220.521 101.367L220.066 116.422L207.417 124.58L221.578 129.668L225.421 144.225L230.083 142.101L232.687 118.356L225.176 99.2368Z" fill="#FFC300"/>
<path opacity="0.3" d="M225.176 99.2368L220.521 101.367L220.066 116.422L207.417 124.58L221.578 129.668L225.421 144.225L230.083 142.101L232.687 118.356L225.176 99.2368Z" fill="black"/>
<path d="M254.31 131.027L249.648 133.158L234.626 132.317L240.912 128.07L254.31 131.027Z" fill="#FFC300"/>
<path opacity="0.3" d="M254.31 131.028L249.648 133.159L234.626 132.317L240.912 128.07L254.31 131.028Z" fill="black"/>
<path d="M225.176 99.2368L236.838 108.754L251.279 104.535L245.84 118.58L254.31 131.028L239.288 130.187L230.083 142.101L226.233 127.537L212.079 122.449L224.721 114.291L225.176 99.2368Z" fill="#FFC300"/>
<path d="M232.505 129.163L232.4 133.922L238 133.607C238 133.607 238.756 130.628 235.536 128.554L232.505 129.163Z" fill="#CE7A63"/>
<path d="M234.199 138.688L238.077 136.452L238.007 133.607L232.4 133.922L234.199 138.688Z" fill="#CE7A63"/>
<path d="M229.292 83.6287C229.747 84.0492 230.09 84.3716 230.468 84.743C230.846 85.1145 231.168 85.4439 231.56 85.8364C232.26 86.5723 232.96 87.3292 233.66 88.0931C235.029 89.6611 236.316 91.2986 237.517 92.9991C238.786 94.7758 239.912 96.6507 240.884 98.6059C242.054 100.87 242.804 103.328 243.096 105.86C243.139 106.234 243.16 106.611 243.159 106.988V107.577V107.983L243.04 109.574C242.914 110.619 242.788 111.677 242.613 112.665C242.289 114.664 241.864 116.645 241.339 118.601C240.332 122.447 238.997 126.198 237.349 129.815C237.08 130.424 236.603 130.917 236.004 131.207C235.405 131.496 234.722 131.562 234.079 131.393C233.435 131.225 232.873 130.832 232.492 130.286C232.111 129.74 231.937 129.076 232.001 128.413V128.301C232.302 124.601 232.701 120.83 232.904 117.172C233.044 115.335 233.1 113.52 233.142 111.747C233.142 110.857 233.142 109.988 233.142 109.119L233.086 107.857V107.549V107.416C233.071 107.316 233.05 107.218 233.023 107.121C232.659 105.888 232.132 104.71 231.455 103.617C230.602 102.219 229.667 100.874 228.655 99.5871C227.598 98.2415 226.464 96.9029 225.288 95.5852C224.7 94.9264 224.091 94.2817 223.489 93.6299L222.579 92.6697L221.718 91.7796L221.578 91.6324C220.58 90.5808 220.027 89.1828 220.037 87.7321C220.047 86.2814 220.618 84.8909 221.63 83.8529C222.643 82.8149 224.017 82.2101 225.466 82.1657C226.914 82.1213 228.323 82.6406 229.397 83.6147L229.292 83.6287Z" fill="#2D2D2D"/>
<path d="M221.2 82.83C221.9 82.7319 222.082 81.0919 221.522 80.0266C221.067 79.1506 219.422 79.2697 217.952 79.6482C216.769 79.9121 215.637 80.3666 214.599 80.9938C213.115 81.8138 213.654 82.802 213.997 83.58C214.34 84.3579 214.991 86.1451 216.391 85.1989C217.791 84.2528 220.22 82.9772 221.2 82.83Z" fill="#2D2D2D"/>
<path d="M238.854 258.926C238.749 256.691 239.337 253.081 233.842 255.422C230.559 256.824 235.172 260.524 235.172 260.524L238.854 258.926Z" fill="#263238"/>
<path d="M170.03 84.6732H177.548C177.757 84.6808 177.959 84.7519 178.126 84.8771C178.294 85.0023 178.419 85.1757 178.486 85.3741L182.42 99.3912C182.445 99.4728 182.451 99.5594 182.437 99.6438C182.422 99.7281 182.388 99.8078 182.337 99.8763C182.285 99.9447 182.219 100 182.142 100.038C182.065 100.075 181.98 100.094 181.895 100.092H174.37C174.163 100.081 173.963 100.009 173.798 99.8838C173.632 99.759 173.507 99.5875 173.439 99.3912L169.505 85.3741C169.478 85.2924 169.471 85.2053 169.484 85.1203C169.498 85.0352 169.532 84.9548 169.584 84.8859C169.636 84.817 169.703 84.7617 169.781 84.7246C169.858 84.6876 169.944 84.6699 170.03 84.6732Z" fill="#03045E"/>
<path d="M174.125 94.1205L172.55 88.6328L169.806 89.7262L170.8 96.2161L174.125 94.1205Z" fill="#CE7A63"/>
<path opacity="0.3" d="M178.15 85.1777C178.224 85.1822 178.294 85.2095 178.352 85.256C178.41 85.3025 178.452 85.3657 178.472 85.437L182.413 99.3911C182.425 99.4199 182.429 99.4513 182.426 99.4824C182.422 99.5134 182.411 99.543 182.392 99.5684C182.374 99.5937 182.35 99.6139 182.321 99.6271C182.293 99.6402 182.262 99.6458 182.231 99.6434C182.157 99.6404 182.087 99.6145 182.029 99.5692C181.971 99.5239 181.929 99.4616 181.909 99.3911L177.982 85.416C177.974 85.3891 177.973 85.361 177.978 85.3335C177.983 85.3061 177.994 85.2801 178.01 85.2573C178.026 85.2345 178.047 85.2156 178.071 85.2018C178.095 85.1881 178.122 85.1799 178.15 85.1777Z" fill="#03045E"/>
<path d="M85.799 30.2168H80.5V30.9177H85.799V30.2168Z" fill="#407BFF"/>
<path d="M60.9002 38.1645H60.2002C60.202 36.0632 61.0341 34.0481 62.5148 32.559C63.9955 31.0699 66.0045 30.2279 68.1032 30.2168H77.6232V30.9177H68.1032C66.1902 30.9288 64.3592 31.6969 63.0098 33.0546C61.6604 34.4122 60.902 36.2491 60.9002 38.1645Z" fill="#407BFF"/>
<path d="M150.752 32.6699H68.1031C65.076 32.6699 62.6221 35.1268 62.6221 38.1576V51.7822C62.6221 54.813 65.076 57.2699 68.1031 57.2699H150.752C153.779 57.2699 156.233 54.813 156.233 51.7822V38.1576C156.233 35.1268 153.779 32.6699 150.752 32.6699Z" fill="#5463FF"/>
<path d="M98.2452 41.2622L99.4492 43.7012L102.144 44.0937L100.191 45.993L100.653 48.6843L98.2452 47.4157L95.8372 48.6843L96.2992 45.993L94.3462 44.0937L97.0412 43.7012L98.2452 41.2622Z" fill="#FFC300"/>
<path d="M109.179 41.2622L110.383 43.7012L113.078 44.0937L111.125 45.993L111.587 48.6843L109.179 47.4157L106.771 48.6843L107.233 45.993L105.28 44.0937L107.975 43.7012L109.179 41.2622Z" fill="#FFC300"/>
<path d="M120.113 41.2622L121.317 43.7012L124.012 44.0937L122.066 45.993L122.521 48.6843L120.113 47.4157L117.705 48.6843L118.167 45.993L116.214 44.0937L118.909 43.7012L120.113 41.2622Z" fill="#FFC300"/>
<path d="M131.047 41.2622L132.251 43.7012L134.946 44.0937L133 45.993L133.455 48.6843L131.047 47.4157L128.639 48.6843L129.101 45.993L127.148 44.0937L129.843 43.7012L131.047 41.2622Z" fill="#FFC300"/>
<path opacity="0.3" d="M141.981 42.846L142.555 44.0164C142.606 44.118 142.682 44.2056 142.774 44.2715C142.867 44.3374 142.974 44.3798 143.087 44.3949L144.375 44.5841L143.444 45.4952C143.363 45.574 143.302 45.6712 143.267 45.7786C143.232 45.886 143.223 46.0004 143.241 46.1119L143.458 47.4015L142.31 46.8268C142.207 46.7775 142.095 46.7512 141.981 46.7497C141.869 46.7493 141.759 46.7757 141.659 46.8268L140.504 47.4366L140.7 46.126C140.719 46.0144 140.71 45.9 140.674 45.7926C140.639 45.6852 140.578 45.588 140.497 45.5092L139.566 44.5981L140.854 44.4089C140.97 44.3953 141.081 44.3529 141.176 44.2856C141.271 44.2182 141.348 44.1281 141.4 44.0234L141.974 42.853M141.974 41.269L140.77 43.708L138.075 44.1005L140.028 46.0068L139.566 48.6911L141.974 47.4225L144.382 48.6911L143.92 46.0068L145.873 44.1005L143.178 43.708L141.974 41.269Z" fill="white"/>
<path opacity="0.2" d="M79.6951 53.3872C84.3381 53.3872 88.1021 49.6187 88.1021 44.97C88.1021 40.3213 84.3381 36.5527 79.6951 36.5527C75.052 36.5527 71.2881 40.3213 71.2881 44.97C71.2881 49.6187 75.052 53.3872 79.6951 53.3872Z" fill="white"/>
<path d="M86.6393 44.9696C86.6411 46.5161 86.1273 48.0191 85.1793 49.2401C84.2313 50.4612 82.9034 51.3306 81.406 51.7104C79.9087 52.0902 78.3275 51.9588 76.9132 51.337C75.4988 50.7151 74.3322 49.6384 73.5983 48.2776C73.0436 47.2637 72.7546 46.1256 72.7583 44.9696C72.8156 43.1648 73.5719 41.4531 74.8673 40.1967C76.1626 38.9403 77.8953 38.2378 79.6988 38.2378C81.5023 38.2378 83.2351 38.9403 84.5304 40.1967C85.8258 41.4531 86.5821 43.1648 86.6393 44.9696Z" fill="white"/>
<path d="M85.7991 48.2777C85.2057 49.3802 84.3252 50.3014 83.2512 50.9434C82.1772 51.5854 80.9496 51.9245 79.6986 51.9245C78.4477 51.9245 77.2201 51.5854 76.1461 50.9434C75.072 50.3014 74.1916 49.3802 73.5981 48.2777C75.4044 47.0708 77.5272 46.4268 79.6986 46.4268C81.8701 46.4268 83.9929 47.0708 85.7991 48.2777Z" fill="#263238"/>
<path d="M82.7891 42.6217C82.7891 43.2344 82.6076 43.8333 82.2676 44.3427C81.9277 44.8522 81.4445 45.2492 80.8791 45.4837C80.3137 45.7181 79.6916 45.7795 79.0915 45.6599C78.4913 45.5404 77.94 45.2454 77.5073 44.8122C77.0746 44.3789 76.7799 43.827 76.6605 43.226C76.5411 42.6251 76.6024 42.0023 76.8366 41.4362C77.0708 40.8702 77.4673 40.3864 77.9761 40.046C78.4849 39.7056 79.0831 39.5239 79.6951 39.5239C80.5157 39.5239 81.3026 39.8503 81.8829 40.4312C82.4631 41.0122 82.7891 41.8001 82.7891 42.6217Z" fill="#FFC3BD"/>
<path d="M145.054 118.16H131.047V118.861H145.054V118.16Z" fill="#407BFF"/>
<path d="M150.752 91.8076H68.1031C65.076 91.8076 62.6221 94.2645 62.6221 97.2953V110.92C62.6221 113.951 65.076 116.408 68.1031 116.408H150.752C153.779 116.408 156.233 113.951 156.233 110.92V97.2953C156.233 94.2645 153.779 91.8076 150.752 91.8076Z" fill="#5463FF"/>
<path d="M98.2452 100.393L99.4492 102.839L102.144 103.225L100.191 105.131L100.653 107.815L98.2452 106.547L95.8372 107.815L96.2992 105.131L94.3462 103.225L97.0412 102.839L98.2452 100.393Z" fill="#FFC300"/>
<path d="M109.179 100.393L110.383 102.839L113.078 103.225L111.125 105.131L111.587 107.815L109.179 106.547L106.771 107.815L107.233 105.131L105.28 103.225L107.975 102.839L109.179 100.393Z" fill="#FFC300"/>
<path d="M120.113 100.393L121.317 102.839L124.012 103.225L122.066 105.131L122.521 107.815L120.113 106.547L117.705 107.815L118.167 105.131L116.214 103.225L118.909 102.839L120.113 100.393Z" fill="#FFC300"/>
<path d="M131.047 100.393L132.251 102.839L134.946 103.225L133 105.131L133.455 107.815L131.047 106.547L128.639 107.815L129.101 105.131L127.148 103.225L129.843 102.839L131.047 100.393Z" fill="#FFC300"/>
<path d="M141.981 100.393L143.185 102.839L145.88 103.225L143.934 105.131L144.389 107.815L141.981 106.547L139.573 107.815L140.035 105.131L138.082 103.225L140.777 102.839L141.981 100.393Z" fill="#FFC300"/>
<path opacity="0.2" d="M85.6445 110.059C88.9276 106.772 88.9276 101.442 85.6445 98.155C82.3613 94.8679 77.0383 94.8679 73.7552 98.155C70.4721 101.442 70.4721 106.772 73.7552 110.059C77.0383 113.346 82.3614 113.346 85.6445 110.059Z" fill="white"/>
<path d="M86.6393 104.101C86.6427 105.648 86.13 107.152 85.1826 108.374C84.2351 109.597 82.9072 110.467 81.4094 110.848C79.9117 111.229 78.3298 111.098 76.9148 110.476C75.4997 109.854 74.3325 108.777 73.5983 107.416C73.0436 106.4 72.7547 105.259 72.7583 104.101C72.8156 102.296 73.5719 100.584 74.8673 99.328C76.1626 98.0717 77.8953 97.3691 79.6988 97.3691C81.5023 97.3691 83.2351 98.0717 84.5304 99.328C85.8258 100.584 86.5821 102.296 86.6393 104.101Z" fill="white"/>
<path opacity="0.5" d="M85.7991 107.416C85.2041 108.516 84.3231 109.436 83.2492 110.076C82.1754 110.717 80.9486 111.055 79.6986 111.055C78.4487 111.055 77.2219 110.717 76.1481 110.076C75.0742 109.436 74.1932 108.516 73.5981 107.416C75.4044 106.209 77.5272 105.565 79.6986 105.565C81.8701 105.565 83.9929 106.209 85.7991 107.416Z" fill="#407BFF"/>
<path d="M82.7891 101.725C82.7904 102.338 82.6102 102.938 82.271 103.448C81.9319 103.958 81.4492 104.356 80.8839 104.592C80.3187 104.828 79.6964 104.89 79.0958 104.771C78.4951 104.652 77.9432 104.358 77.5098 103.925C77.0764 103.492 76.781 102.94 76.661 102.339C76.5411 101.738 76.6019 101.115 76.8359 100.548C77.0699 99.9818 77.4664 99.4975 77.9754 99.1568C78.4844 98.8161 79.0828 98.6343 79.6951 98.6343C80.5144 98.6343 81.3003 98.9597 81.8804 99.5391C82.4604 100.119 82.7872 100.905 82.7891 101.725Z" fill="#FFB573"/>
<path d="M150.752 62.2388H68.1031C65.076 62.2388 62.6221 64.6957 62.6221 67.7265V81.3511C62.6221 84.3818 65.076 86.8387 68.1031 86.8387H150.752C153.779 86.8387 156.233 84.3818 156.233 81.3511V67.7265C156.233 64.6957 153.779 62.2388 150.752 62.2388Z" fill="#5463FF"/>
<path d="M153.692 76.6411L147.812 86.8385H162.512L153.692 76.6411Z" fill="#5463FF"/>
<path d="M98.2452 70.8242L99.4492 73.2702L102.144 73.6627L100.191 75.562L100.653 78.2463L98.2452 76.9777L95.8372 78.2463L96.2992 75.562L94.3462 73.6627L97.0412 73.2702L98.2452 70.8242Z" fill="#FFC300"/>
<path d="M109.179 70.8242L110.383 73.2702L113.078 73.6627L111.125 75.562L111.587 78.2463L109.179 76.9777L106.771 78.2463L107.233 75.562L105.28 73.6627L107.975 73.2702L109.179 70.8242Z" fill="#FFC300"/>
<path opacity="0.3" d="M120.113 72.408L120.687 73.5784C120.737 73.6813 120.812 73.7703 120.905 73.8375C120.998 73.9047 121.106 73.9481 121.219 73.9639L122.5 74.1601L121.569 75.0712C121.488 75.15 121.427 75.2472 121.392 75.3546C121.357 75.462 121.348 75.5764 121.366 75.688L121.583 76.9775L120.435 76.3678C120.334 76.3132 120.221 76.2843 120.106 76.2837C119.993 76.2833 119.882 76.3123 119.784 76.3678L118.629 76.9775L118.846 75.688C118.864 75.5764 118.856 75.462 118.82 75.3546C118.785 75.2472 118.724 75.15 118.643 75.0712L117.712 74.1601L119 73.9709C119.113 73.9551 119.221 73.9117 119.314 73.8445C119.407 73.7773 119.482 73.6883 119.532 73.5854L120.106 72.415M120.106 70.8311L118.902 73.277L116.207 73.6695L118.16 75.5688L117.698 78.2531L120.106 76.9846L122.514 78.2531L122.052 75.5688L124.005 73.6695L121.31 73.277L120.106 70.8311Z" fill="white"/>
<path opacity="0.3" d="M131.047 72.4081L131.621 73.5786C131.672 73.6815 131.747 73.7704 131.839 73.8376C131.932 73.9049 132.04 73.9482 132.153 73.964L133.441 74.1533L132.51 75.0644C132.429 75.1432 132.369 75.2404 132.333 75.3478C132.298 75.4552 132.289 75.5696 132.307 75.6811L132.524 76.9707L131.376 76.361C131.275 76.3063 131.162 76.2774 131.047 76.2769C130.935 76.2765 130.824 76.3055 130.725 76.361L129.57 76.9707L129.787 75.6811C129.806 75.5696 129.797 75.4552 129.762 75.3478C129.726 75.2404 129.665 75.1432 129.584 75.0644L128.653 74.1533L129.941 73.964C130.055 73.9482 130.163 73.9049 130.255 73.8376C130.348 73.7704 130.423 73.6815 130.473 73.5786L131.047 72.4081ZM131.047 70.8242L129.843 73.2702L127.148 73.6627L129.101 75.562L128.639 78.2463L131.047 76.9777L133.455 78.2463L133 75.562L134.953 73.6627L132.258 73.2702L131.054 70.8242H131.047Z" fill="white"/>
<path opacity="0.3" d="M141.981 72.4081L142.555 73.5786C142.605 73.6815 142.68 73.7704 142.773 73.8376C142.866 73.9049 142.974 73.9482 143.087 73.964L144.375 74.1533L143.444 75.0644C143.363 75.1432 143.302 75.2404 143.267 75.3478C143.232 75.4552 143.223 75.5696 143.241 75.6811L143.458 76.9707L142.31 76.361C142.209 76.3063 142.096 76.2774 141.981 76.2769C141.868 76.2765 141.757 76.3055 141.659 76.361L140.504 76.9707L140.721 75.6811C140.739 75.5696 140.731 75.4552 140.695 75.3478C140.66 75.2404 140.599 75.1432 140.518 75.0644L139.587 74.1533L140.875 73.964C140.988 73.9482 141.096 73.9049 141.189 73.8376C141.282 73.7704 141.357 73.6815 141.407 73.5786L141.981 72.4081ZM141.981 70.8242L140.777 73.2702L138.082 73.6627L140.035 75.562L139.573 78.2463L141.981 76.9777L144.389 78.2463L143.927 75.562L145.88 73.6627L143.185 73.2702L141.981 70.8242Z" fill="white"/>
<path opacity="0.2" d="M79.6951 82.9561C84.3381 82.9561 88.1021 79.1876 88.1021 74.5388C88.1021 69.8901 84.3381 66.1216 79.6951 66.1216C75.052 66.1216 71.2881 69.8901 71.2881 74.5388C71.2881 79.1876 75.052 82.9561 79.6951 82.9561Z" fill="white"/>
<path d="M86.6394 74.5389C86.6412 76.0855 86.1274 77.5884 85.1794 78.8095C84.2314 80.0306 82.9035 80.8999 81.4061 81.2797C79.9087 81.6596 78.3275 81.5281 76.9132 80.9063C75.4989 80.2845 74.3323 79.2078 73.5984 77.8469C73.0437 76.833 72.7547 75.6949 72.7584 74.5389C72.7288 73.6078 72.8865 72.6802 73.222 71.8113C73.5575 70.9424 74.064 70.1498 74.7114 69.4807C75.3588 68.8116 76.1339 68.2796 76.9907 67.9163C77.8475 67.5529 78.7684 67.3657 79.6989 67.3657C80.6293 67.3657 81.5503 67.5529 82.4071 67.9163C83.2638 68.2796 84.039 68.8116 84.6864 69.4807C85.3338 70.1498 85.8403 70.9424 86.1758 71.8113C86.5113 72.6802 86.6689 73.6078 86.6394 74.5389Z" fill="white"/>
<path d="M85.7991 77.847C85.2041 78.9476 84.3231 79.8668 83.2492 80.5073C82.1754 81.1479 80.9486 81.486 79.6986 81.486C78.4487 81.486 77.2219 81.1479 76.1481 80.5073C75.0742 79.8668 74.1932 78.9476 73.5981 77.847C75.4044 76.6402 77.5272 75.9961 79.6986 75.9961C81.8701 75.9961 83.9929 76.6402 85.7991 77.847Z" fill="#407BFF"/>
<path d="M82.7891 72.1627C82.7891 72.7754 82.6076 73.3743 82.2676 73.8838C81.9277 74.3932 81.4445 74.7902 80.8791 75.0247C80.3137 75.2592 79.6916 75.3205 79.0915 75.201C78.4913 75.0815 77.94 74.7864 77.5073 74.3532C77.0746 73.9199 76.7799 73.368 76.6605 72.7671C76.5411 72.1662 76.6024 71.5433 76.8366 70.9773C77.0708 70.4112 77.4673 69.9274 77.9761 69.587C78.4849 69.2466 79.0831 69.0649 79.6951 69.0649C80.1016 69.064 80.5044 69.1435 80.8802 69.2989C81.256 69.4542 81.5974 69.6824 81.8849 69.9702C82.1724 70.2581 82.4003 70.5999 82.5554 70.9762C82.7106 71.3524 82.79 71.7557 82.7891 72.1627Z" fill="#B55B52"/>
</g>
<defs>
<clipPath id="clip0_86_1657">
<rect width="350" height="276" fill="white"/>
</clipPath>
</defs>
</svg>
