<svg width="23" height="22" viewBox="0 0 23 22" fill="none" xmlns="http://www.w3.org/2000/svg">
<path d="M22.25 2.375V8.375C22.25 9.03125 21.7344 9.5 21.125 9.5H15.125C14.4688 9.5 14 9.03125 14 8.42188C14 8.09375 14.0938 7.8125 14.3281 7.625L16.7656 5.14062C15.2188 3.6875 13.2031 2.75 11 2.75C6.40625 2.75 2.75 6.45312 2.75 11C2.75 15.5938 6.40625 19.25 11 19.25C14.7969 19.25 16.0156 17.0938 16.9531 17.0938C17.4219 17.0938 18.0781 17.4688 18.0781 18.2188C18.0781 19.3906 14.5625 21.5 10.9531 21.5C5.14062 21.5 0.453125 16.8125 0.453125 11.0469C0.453125 5.23438 5.14062 0.546875 10.9531 0.546875C13.7656 0.546875 16.3906 1.71875 18.3125 3.59375L20.2344 1.67188C20.4219 1.48438 20.7031 1.34375 21.0312 1.34375C21.7344 1.29688 22.25 1.76562 22.25 2.375Z" fill="#03045E"/>
</svg>
