<svg width="21" height="20" viewBox="0 0 21 20" fill="none" xmlns="http://www.w3.org/2000/svg">
<path fill-rule="evenodd" clip-rule="evenodd" d="M12.1131 18.5654C12.0216 18.7833 11.821 18.81 11.7388 18.812C11.6411 18.8011 11.454 18.7932 11.3542 18.5813L8.54932 12.6964L18.6585 3.07007L12.1131 18.5654ZM1.48936 9.18661C1.26481 9.09057 1.24505 8.8985 1.24713 8.82028C1.24921 8.74207 1.27728 8.55099 1.506 8.46387L17.7769 2.23047L7.66879 11.8578L1.48936 9.18661ZM20.9548 0.37411L20.9527 0.368169C20.9444 0.351338 20.9371 0.334507 20.9278 0.317676C20.9195 0.302826 20.9091 0.285995 20.8976 0.270154C20.8966 0.268174 20.8945 0.265203 20.8924 0.263223C20.8841 0.250353 20.8747 0.237482 20.8644 0.226591C20.8612 0.223621 20.8581 0.219661 20.855 0.215701C20.8425 0.20184 20.8311 0.187979 20.8165 0.175108C20.802 0.161247 20.7874 0.148377 20.7729 0.137486C20.7697 0.135506 20.7666 0.132536 20.7635 0.130556C20.751 0.119665 20.7365 0.109765 20.7209 0.100854C20.7198 0.099864 20.7188 0.0988739 20.7167 0.0978838C20.5483 -0.00805221 20.3342 -0.0308235 20.1439 0.0434307L1.04112 7.36193C0.413194 7.60152 0.0139852 8.15001 0.000470263 8.79454C-0.0151238 9.43808 0.358095 10.0034 0.973543 10.2697L7.33178 13.0171L10.2167 19.0723C10.4901 19.6475 11.0671 20 11.7272 20C11.7408 20 11.7532 20 11.7657 19.999C12.4415 19.9861 13.0184 19.606 13.27 19.008L20.9548 0.815675C20.9621 0.798844 20.9683 0.782013 20.9725 0.765182C20.9735 0.764192 20.9735 0.763202 20.9735 0.762212C20.9797 0.744391 20.9839 0.72558 20.9881 0.708749C21.012 0.596872 20.9995 0.479056 20.9548 0.37411Z" fill="#1A1D1E"/>
</svg>
