<svg width="44" height="44" viewBox="0 0 44 44" fill="none" xmlns="http://www.w3.org/2000/svg">
<rect width="44" height="44" rx="12" fill="white"/>
<path d="M29.9621 17.3102L10.9556 18.4306C10.7809 18.4306 10.6237 18.4655 10.484 18.5354C10.1695 18.6927 9.90752 18.9548 9.82021 19.3042C9.68052 19.8108 9.87275 20.3698 10.2921 20.6842L16.634 25.2429L16.4951 33.0866C16.4952 33.6107 16.8272 34.0998 17.2989 34.257C17.6308 34.3967 18.0151 34.3792 18.3296 34.2219C18.4693 34.152 18.5916 34.0472 18.6964 33.9074L30.993 19.3715C31.3249 18.9871 31.3947 18.4281 31.1675 17.9739C30.9229 17.5722 30.4687 17.2752 29.9621 17.3102ZM12.8076 20.2122L26.2413 19.3895L17.647 23.688L12.8076 20.2122ZM18.4857 25.365L27.0801 21.0665L18.3816 31.3569L18.4857 25.365Z" fill="#03045E"/>
</svg>
