<svg width="63" height="31" viewBox="0 0 63 31" fill="none" xmlns="http://www.w3.org/2000/svg">
<path d="M4.864 22.112C4.11733 22.112 3.44533 21.984 2.848 21.728C2.25067 21.4613 1.78133 21.088 1.44 20.608C1.09867 20.128 0.928 19.568 0.928 18.928H2.88C2.92267 19.408 3.10933 19.8027 3.44 20.112C3.78133 20.4213 4.256 20.576 4.864 20.576C5.49333 20.576 5.984 20.4267 6.336 20.128C6.688 19.8187 6.864 19.424 6.864 18.944C6.864 18.5707 6.752 18.2667 6.528 18.032C6.31467 17.7973 6.04267 17.616 5.712 17.488C5.392 17.36 4.944 17.2213 4.368 17.072C3.64267 16.88 3.05067 16.688 2.592 16.496C2.144 16.2933 1.76 15.984 1.44 15.568C1.12 15.152 0.96 14.5973 0.96 13.904C0.96 13.264 1.12 12.704 1.44 12.224C1.76 11.744 2.208 11.376 2.784 11.12C3.36 10.864 4.02667 10.736 4.784 10.736C5.86133 10.736 6.74133 11.008 7.424 11.552C8.11733 12.0853 8.50133 12.8213 8.576 13.76H6.56C6.528 13.3547 6.336 13.008 5.984 12.72C5.632 12.432 5.168 12.288 4.592 12.288C4.06933 12.288 3.64267 12.4213 3.312 12.688C2.98133 12.9547 2.816 13.3387 2.816 13.84C2.816 14.1813 2.91733 14.464 3.12 14.688C3.33333 14.9013 3.6 15.072 3.92 15.2C4.24 15.328 4.67733 15.4667 5.232 15.616C5.968 15.8187 6.56533 16.0213 7.024 16.224C7.49333 16.4267 7.888 16.7413 8.208 17.168C8.53867 17.584 8.704 18.144 8.704 18.848C8.704 19.4133 8.54933 19.9467 8.24 20.448C7.94133 20.9493 7.49867 21.3547 6.912 21.664C6.336 21.9627 5.65333 22.112 4.864 22.112ZM14.3443 17.6L18.4083 22H15.9443L12.6803 18.208V22H10.8563V10.16H12.6803V17.04L15.8803 13.184H18.4083L14.3443 17.6ZM20.6436 12.016C20.313 12.016 20.0356 11.904 19.8116 11.68C19.5876 11.456 19.4756 11.1787 19.4756 10.848C19.4756 10.5173 19.5876 10.24 19.8116 10.016C20.0356 9.792 20.313 9.68 20.6436 9.68C20.9636 9.68 21.2356 9.792 21.4596 10.016C21.6836 10.24 21.7956 10.5173 21.7956 10.848C21.7956 11.1787 21.6836 11.456 21.4596 11.68C21.2356 11.904 20.9636 12.016 20.6436 12.016ZM21.5396 13.184V22H19.7156V13.184H21.5396ZM25.7584 14.48C26.0677 14.0747 26.489 13.7333 27.0224 13.456C27.5557 13.1787 28.1584 13.04 28.8304 13.04C29.5984 13.04 30.297 13.232 30.9264 13.616C31.5664 13.9893 32.0677 14.5173 32.4304 15.2C32.793 15.8827 32.9744 16.6667 32.9744 17.552C32.9744 18.4373 32.793 19.232 32.4304 19.936C32.0677 20.6293 31.5664 21.1733 30.9264 21.568C30.297 21.952 29.5984 22.144 28.8304 22.144C28.1584 22.144 27.561 22.0107 27.0384 21.744C26.5157 21.4667 26.089 21.1253 25.7584 20.72V26.192H23.9344V13.184H25.7584V14.48ZM31.1184 17.552C31.1184 16.944 30.9904 16.4213 30.7344 15.984C30.489 15.536 30.1584 15.2 29.7424 14.976C29.337 14.7413 28.8997 14.624 28.4304 14.624C27.9717 14.624 27.5344 14.7413 27.1184 14.976C26.713 15.2107 26.3824 15.552 26.1264 16C25.881 16.448 25.7584 16.976 25.7584 17.584C25.7584 18.192 25.881 18.7253 26.1264 19.184C26.3824 19.632 26.713 19.9733 27.1184 20.208C27.5344 20.4427 27.9717 20.56 28.4304 20.56C28.8997 20.56 29.337 20.4427 29.7424 20.208C30.1584 19.9627 30.489 19.6107 30.7344 19.152C30.9904 18.6933 31.1184 18.16 31.1184 17.552Z" fill="black"/>
<path d="M54.375 7.32812L62.625 15.2031C62.8594 15.4375 63 15.7188 63 16.0469C63 16.3281 62.8594 16.6094 62.625 16.8438L54.375 24.7188C53.9531 25.1406 53.2031 25.1406 52.7812 24.6719C52.3594 24.25 52.3594 23.5 52.8281 23.0781L59.0625 17.1719H43.125C42.4688 17.1719 42 16.6562 42 16.0469C42 15.3906 42.4688 14.9219 43.125 14.9219H59.0625L52.8281 8.96875C52.3594 8.54688 52.3594 7.79688 52.7812 7.375C53.2031 6.90625 53.9062 6.90625 54.375 7.32812Z" fill="black"/>
</svg>
