<svg width="185" height="46" viewBox="0 0 185 46" fill="none" xmlns="http://www.w3.org/2000/svg">
<path d="M35.1476 4.81749L30.1459 25.8476L24.2879 4.81749L17.709 4.79471L11.9187 25.8248L6.98447 4.81749H0L8.71932 35.7817H15.4559L21.0435 15.5034L26.6311 35.7817H33.4128L42.1321 4.81749H35.1476Z" fill="#03045E"/>
<path d="M54.2409 36.7614C61.8337 36.7614 67.1284 30.9286 67.1284 24.64C67.1284 18.3743 61.8337 12.5415 54.2409 12.5415C46.6706 12.5415 41.2633 18.3743 41.2633 24.64C41.2633 30.9286 46.6706 36.7614 54.2409 36.7614ZM54.2409 16.0958C57.8683 16.0958 60.5945 19.7642 60.5945 24.64C60.5945 29.5387 57.8007 33.0703 54.2409 33.0703C50.6811 33.0703 47.7972 29.5387 47.7972 24.64C47.7972 19.7642 50.5684 16.0958 54.2409 16.0958Z" fill="#03045E"/>
<path d="M77.0743 15.4807V12.587H70.5629L70.5404 35.7817H77.0743L77.0292 21.4958C77.0292 21.4958 78.719 13.6123 85.8612 19.1034L86.4469 13.4528C79.8906 11.2427 78.3585 13.7263 77.0968 15.5034L77.0743 15.4807Z" fill="#03045E"/>
<path d="M104.211 35.8045H111.038L101.597 20.0148L109.168 12.587H101.71L96.3928 18.5566V4.84028H89.859V35.7817H96.3928V25.1185L97.587 23.9109L104.211 35.8045Z" fill="#03045E"/>
<path d="M114.878 35.7361H121.322V12.587H114.788L114.878 35.7361Z" fill="#03045E"/>
<path d="M125.77 35.7361H132.214V12.587H125.68L125.77 35.7361Z" fill="#03045E"/>
<path d="M147.68 12.5415C145.449 12.5415 140.875 12.7009 136.009 15.7769V35.8045H142.543L142.498 17.9414C142.543 17.9414 145.449 16.0503 147.77 16.0503C150 16.0503 151.262 17.4401 151.262 22.2932V35.8045H157.796V22.2932C157.796 15.1389 153.74 12.5415 147.68 12.5415Z" fill="#03045E"/>
<path d="M184.977 27.8071V15.1389V15.3212L183.243 14.6832C183.13 14.6376 178.579 12.587 173.262 12.587C167.629 12.587 161.23 16.0503 161.23 23.6603C161.23 31.9995 167.178 36.7614 173.171 36.7614C176.393 36.7614 179.322 34.9614 178.444 35.7817V35.4627C178.399 40.7715 176.1 41.7057 174.095 41.7057C170.963 41.7057 168.71 40.6576 164.407 36.3969L164.475 42.6171C164.497 42.6398 166.998 45.6018 174.321 45.6018C179.39 45.6018 184.865 43.1639 185 35.8728H184.977V27.8071ZM173.104 32.7969C171.189 32.7969 167.764 30.564 167.764 23.6603C167.764 17.7363 171.166 16.506 173.104 16.506C175.357 16.506 176.664 16.8933 178.444 18.0097L178.421 29.6526C178.421 29.6526 176.393 32.7969 173.104 32.7969Z" fill="#03045E"/>
<path fill-rule="evenodd" clip-rule="evenodd" d="M118.45 8.76924C120.531 8.76924 122.217 7.08271 122.217 5.00227C122.217 2.92183 120.531 1.2353 118.45 1.2353C116.37 1.2353 114.683 2.92183 114.683 5.00227C114.683 7.08271 116.37 8.76924 118.45 8.76924ZM118.45 9.60634C120.993 9.60634 123.054 7.54503 123.054 5.00227C123.054 2.45951 120.993 0.398193 118.45 0.398193C115.907 0.398193 113.846 2.45951 113.846 5.00227C113.846 7.54503 115.907 9.60634 118.45 9.60634Z" fill="#03045E"/>
<path d="M121.38 5.00225C121.38 6.62037 120.068 7.93212 118.45 7.93212C116.832 7.93212 115.52 6.62037 115.52 5.00225C115.52 3.38413 116.832 2.07239 118.45 2.07239C120.068 2.07239 121.38 3.38413 121.38 5.00225Z" fill="#03045E"/>
<path fill-rule="evenodd" clip-rule="evenodd" d="M129.333 8.76924C131.413 8.76924 133.1 7.08271 133.1 5.00227C133.1 2.92183 131.413 1.2353 129.333 1.2353C127.252 1.2353 125.566 2.92183 125.566 5.00227C125.566 7.08271 127.252 8.76924 129.333 8.76924ZM129.333 9.60634C131.875 9.60634 133.937 7.54503 133.937 5.00227C133.937 2.45951 131.875 0.398193 129.333 0.398193C126.79 0.398193 124.729 2.45951 124.729 5.00227C124.729 7.54503 126.79 9.60634 129.333 9.60634Z" fill="#03045E"/>
<path d="M132.262 5.00225C132.262 6.62037 130.951 7.93212 129.333 7.93212C127.714 7.93212 126.403 6.62037 126.403 5.00225C126.403 3.38413 127.714 2.07239 129.333 2.07239C130.951 2.07239 132.262 3.38413 132.262 5.00225Z" fill="#03045E"/>
</svg>
