<svg width="56" height="44" viewBox="0 0 56 44" fill="none" xmlns="http://www.w3.org/2000/svg">
<rect width="56" height="44" rx="12" fill="#03045E"/>
<path d="M37.25 22C37.25 22.4219 36.875 22.75 36.5 22.75H28.25V31C28.25 31.4219 27.875 31.7969 27.5 31.7969C27.0781 31.7969 26.75 31.4219 26.75 31V22.75H18.5C18.0781 22.75 17.75 22.4219 17.75 22.0469C17.75 21.625 18.0781 21.25 18.5 21.25H26.75V13C26.75 12.625 27.0781 12.2969 27.5 12.2969C27.875 12.2969 28.25 12.625 28.25 13V21.25H36.5C36.875 21.25 37.25 21.625 37.25 22Z" fill="white"/>
</svg>
