<svg width="21" height="24" viewBox="0 0 21 24" fill="none" xmlns="http://www.w3.org/2000/svg">
<path d="M10.5 12C13.7812 12 16.5 9.32812 16.5 6C16.5 2.71875 13.7812 0 10.5 0C7.17188 0 4.5 2.71875 4.5 6C4.5 9.32812 7.17188 12 10.5 12ZM10.5 1.5C12.9375 1.5 15 3.5625 15 6C15 8.48438 12.9375 10.5 10.5 10.5C8.01562 10.5 6 8.48438 6 6C6 3.5625 8.01562 1.5 10.5 1.5ZM12.8438 14.25H8.10938C3.60938 14.25 0 17.9062 0 22.4062C0 23.2969 0.703125 24 1.59375 24H19.3594C20.25 24 21 23.2969 21 22.4062C21 17.9062 17.3438 14.25 12.8438 14.25ZM19.3594 22.5H1.59375C1.54688 22.5 1.5 22.4531 1.5 22.4062C1.5 18.75 4.45312 15.75 8.10938 15.75H12.8438C16.5 15.75 19.5 18.75 19.5 22.4062C19.5 22.4531 19.4062 22.5 19.3594 22.5Z" fill="#A8A8AA"/>
</svg>
