<svg width="8" height="7" viewBox="0 0 8 7" fill="none" xmlns="http://www.w3.org/2000/svg">
<path d="M7.09375 5.57422C7.26953 5.76953 7.26953 6.0625 7.09375 6.23828C6.89844 6.43359 6.60547 6.43359 6.42969 6.23828L4.125 3.91406L1.80078 6.23828C1.60547 6.43359 1.3125 6.43359 1.13672 6.23828C0.941406 6.0625 0.941406 5.76953 1.13672 5.57422L3.46094 3.25L1.13672 0.925781C0.941406 0.730469 0.941406 0.4375 1.13672 0.261719C1.3125 0.0664062 1.60547 0.0664062 1.78125 0.261719L4.125 2.60547L6.44922 0.28125C6.625 0.0859375 6.91797 0.0859375 7.09375 0.28125C7.28906 0.457031 7.28906 0.75 7.09375 0.945312L4.76953 3.25L7.09375 5.57422Z" fill="white"/>
</svg>
