<svg width="250" height="110" viewBox="0 0 250 110" fill="none" xmlns="http://www.w3.org/2000/svg">
<path d="M92.043 106.154L99.4336 68.7715L71.2891 43.0762L109.123 38.5645L124.85 3.8457L140.834 38.4355L178.711 42.668L150.76 68.5781L158.43 105.896L125.172 87.3125L92.043 106.154Z" fill="#FFD759"/>
<path d="M125 55L71.2891 43.0762L99.4336 68.7715L125 55Z" fill="#FABD3B"/>
<path d="M125 55L92.043 106.154L125.172 87.3125L158.43 105.896L125 55Z" fill="#FABD3B"/>
<path d="M125 55L178.711 42.668L150.76 68.5781L125 55Z" fill="#FABD3B"/>
<path d="M124.85 3.8457L125 55L140.834 38.4355L124.85 3.8457Z" fill="#FABD3B"/>
<path d="M13.6266 107.623L18.1953 84.5133L0.796875 68.6289L24.1852 65.8398L33.907 44.3773L43.7883 65.7601L67.2031 68.3765L49.9242 84.3937L54.6656 107.463L34.1062 95.975L13.6266 107.623Z" fill="#FFD759"/>
<path d="M34 76L0.796875 68.6289L18.1953 84.5133L34 76Z" fill="#FABD3B"/>
<path d="M33.9999 76L13.6265 107.623L34.1061 95.975L54.6655 107.463L33.9999 76Z" fill="#FABD3B"/>
<path d="M34 76L67.2031 68.3766L49.9242 84.3938L34 76Z" fill="#FABD3B"/>
<path d="M33.907 44.3773L34 76L43.7882 65.7601L33.907 44.3773Z" fill="#FABD3B"/>
<path d="M195.627 107.623L200.195 84.5133L182.797 68.6289L206.185 65.8398L215.907 44.3773L225.788 65.7601L249.203 68.3765L231.924 84.3937L236.666 107.463L216.106 95.975L195.627 107.623Z" fill="#FFD759"/>
<path d="M216 76L182.797 68.6289L200.195 84.5133L216 76Z" fill="#FABD3B"/>
<path d="M216 76L195.626 107.623L216.106 95.975L236.666 107.463L216 76Z" fill="#FABD3B"/>
<path d="M216 76L249.203 68.3766L231.924 84.3938L216 76Z" fill="#FABD3B"/>
<path d="M215.907 44.3773L216 76L225.788 65.7601L215.907 44.3773Z" fill="#FABD3B"/>
</svg>
