<svg width="18" height="21" viewBox="0 0 18 21" fill="none" xmlns="http://www.w3.org/2000/svg">
<path d="M17.1484 14.6797C16.4062 13.8594 14.9609 12.6484 14.9609 8.625C14.9609 5.61719 12.8516 3.19531 10 2.57031V1.75C10 1.08594 9.41406 0.5 8.75 0.5C8.04688 0.5 7.5 1.08594 7.5 1.75V2.57031C4.60938 3.19531 2.5 5.61719 2.5 8.625C2.5 12.6484 1.05469 13.8594 0.3125 14.6797C0.078125 14.9141 0 15.2266 0 15.5C0 16.1641 0.507812 16.75 1.25 16.75H16.2109C16.9922 16.75 17.4609 16.1641 17.5 15.5C17.5 15.2266 17.3828 14.9141 17.1484 14.6797ZM2.61719 14.875C3.4375 13.7812 4.375 11.9844 4.375 8.66406V8.625C4.375 6.24219 6.32812 4.25 8.75 4.25C11.1328 4.25 13.125 6.24219 13.125 8.625V8.66406C13.125 11.9844 14.0234 13.7812 14.8438 14.875H2.61719ZM8.71094 20.5C10.1172 20.5 11.25 19.4062 11.25 18H6.25C6.25 19.4062 7.34375 20.5 8.71094 20.5Z" fill="#5463FF"/>
</svg>
