<svg width="21" height="24" viewBox="0 0 21 24" fill="none" xmlns="http://www.w3.org/2000/svg">
<path d="M20.5781 17.0156C19.6875 16.0312 17.9531 14.5781 17.9531 9.75C17.9531 6.14062 15.4219 3.23438 12 2.48438V1.5C12 0.703125 11.2969 0 10.5 0C9.65625 0 9 0.703125 9 1.5V2.48438C5.53125 3.23438 3 6.14062 3 9.75C3 14.5781 1.26562 16.0312 0.375 17.0156C0.09375 17.2969 0 17.6719 0 18C0 18.7969 0.609375 19.5 1.5 19.5H19.4531C20.3906 19.5 20.9531 18.7969 21 18C21 17.6719 20.8594 17.2969 20.5781 17.0156ZM3.14062 17.25C4.125 15.9375 5.25 13.7812 5.25 9.79688V9.75C5.25 6.89062 7.59375 4.5 10.5 4.5C13.3594 4.5 15.75 6.89062 15.75 9.75V9.79688C15.75 13.7812 16.8281 15.9375 17.8125 17.25H3.14062ZM10.4531 24C12.1406 24 13.5 22.6875 13.5 21H7.5C7.5 22.6875 8.8125 24 10.4531 24Z" fill="black"/>
</svg>
