<svg width="14" height="30" viewBox="0 0 14 30" fill="none" xmlns="http://www.w3.org/2000/svg">
<path d="M11.0711 15.9415C10.5159 16.2573 9.96073 16.564 9.40554 16.8888C8.73393 17.2858 8.08919 17.7188 7.39967 18.0707C7.04148 18.2601 6.6206 18.3955 6.22659 18.4406C5.40275 18.5308 4.81173 18.0256 4.79382 17.2046C4.78487 16.6723 4.86544 16.122 5.03558 15.6167C5.37586 14.5973 5.7878 13.5958 6.18182 12.5944C6.38777 12.0531 6.60269 11.5028 6.80865 10.9795C6.42359 10.6818 6.18179 10.9254 5.93106 11.0517C4.96394 11.5298 4.01476 12.026 3.04764 12.4771C2.67154 12.6485 2.25959 12.7748 1.85663 12.856C0.710415 13.0726 -0.1761 12.2155 0.0298597 11.0697C0.137317 10.4833 0.361178 9.91492 0.602957 9.37361C1.31934 7.79478 2.08947 6.234 2.81481 4.65517C3.33418 3.5094 3.8088 2.34557 4.30131 1.19078C4.39981 0.974253 4.47142 0.739691 4.58784 0.532188C4.80275 0.135227 5.22364 -0.0632606 5.63556 0.0179361C6.03853 0.0991328 6.3609 0.469033 6.30717 0.947192C6.24449 1.47948 6.14598 2.0208 5.94002 2.50798C5.16991 4.33039 4.35501 6.13476 3.55804 7.93913C3.27148 8.57968 2.97601 9.22023 2.69841 9.8247C3.08347 10.2217 3.34315 9.96904 3.58493 9.85176C4.59682 9.34653 5.59975 8.81425 6.62059 8.32707C7.10415 8.10153 7.6056 7.89402 8.12498 7.77673C9.10105 7.56021 9.93386 8.32707 9.79954 9.31948C9.7279 9.84274 9.52195 10.357 9.31599 10.8532C8.86825 11.9629 8.37572 13.0545 7.91007 14.1642C7.80261 14.4258 7.75784 14.7055 7.6862 14.9581C8.18767 15.2378 8.42945 14.8769 8.716 14.7416C9.68312 14.2815 10.6055 13.7041 11.5995 13.3252C12.9785 12.7929 14.0172 13.5868 13.874 15.0664C13.8023 15.7701 13.5964 16.4919 13.2829 17.1234C12.683 18.3594 11.9577 19.5412 11.286 20.7411C10.5607 22.0493 9.83537 23.3485 9.13689 24.5935C9.4324 25.0807 9.70102 24.8822 9.96071 24.7649C10.507 24.5213 11.0263 24.1965 11.5905 24.0431C12.092 23.9078 12.6382 23.8898 13.1576 23.9349C13.5874 23.98 13.9814 24.5664 13.9993 24.9904C14.0172 25.4235 13.677 25.9919 13.1934 26.055C10.7756 26.3979 9.00255 27.9316 7.13995 29.3119C6.8534 29.5284 6.56684 29.763 6.24447 29.8983C5.52809 30.196 4.74902 29.8171 4.54306 29.0593C4.43561 28.6623 4.39981 28.2293 4.39086 27.8143C4.34608 26.6775 4.36398 25.5317 4.29235 24.395C4.25653 23.8086 4.13118 23.2222 3.99686 22.6448C3.85358 22.0403 3.96103 21.6343 4.39086 21.4358C4.84755 21.2193 5.42961 21.2915 5.6893 21.6704C5.92213 22.0042 6.08329 22.4012 6.20866 22.7981C6.29821 23.0778 6.28031 23.3936 6.30717 23.6913C6.33404 23.9259 6.3609 24.1604 6.39672 24.4672C6.58477 24.3769 6.7997 24.3499 6.86239 24.2326C8.1071 22.0493 9.34286 19.857 10.5786 17.6647C10.8383 17.2046 11.0622 16.7174 11.295 16.2483C11.2413 16.131 11.1607 16.0408 11.0711 15.9415Z" fill="#FFC300"/>
</svg>
