<svg width="258" height="237" viewBox="0 0 258 237" fill="none" xmlns="http://www.w3.org/2000/svg">
<path opacity="0.1" d="M112.618 197.112C166.781 197.112 210.688 153.204 210.688 99.0418C210.688 44.8792 166.781 0.97168 112.618 0.97168C58.4555 0.97168 14.548 44.8792 14.548 99.0418C14.548 153.204 58.4555 197.112 112.618 197.112Z" fill="#03045E"/>
<path d="M126.775 135.308C126.775 135.308 99.4379 168.484 89.7688 167.619C80.0998 166.755 73.4742 150.584 73.4742 150.584C73.4742 150.584 73.8057 150.407 74.3682 150.069C77.1985 148.4 85.9024 142.869 87.9392 136.966C89.911 133.763 104.252 110.511 108.616 104.578C113.311 98.201 118.835 97.9523 118.835 97.9523C121.95 103.074 125.881 106.97 130.754 107.704C131.423 107.805 132.075 107.87 132.696 107.9C132.992 109.984 134.952 120.618 144.503 126.059C144.503 126.059 144.87 118.652 149.767 117.995C149.767 117.995 154.954 115.153 159.234 119.309C159.234 119.309 166.02 112.027 159.234 91.5753L154.391 87.1938L152.171 81.9063C152.171 81.9063 176.95 80.6688 182.682 85.98C188.413 91.2852 225.076 139.802 225.076 139.802L171.746 181.208C171.746 181.208 139.411 149.14 126.781 135.308H126.775Z" fill="white"/>
<path d="M159.234 91.5754C166.02 112.027 159.234 119.31 159.234 119.31C154.954 115.153 149.767 117.995 149.767 117.995L156.682 92.6412L154.391 87.1938L159.234 91.5754Z" fill="#D7F2ED"/>
<path d="M142.596 113.264L149.767 117.995C144.87 118.652 144.503 126.059 144.503 126.059C134.952 120.618 132.992 109.984 132.696 107.9C133.3 107.929 133.887 107.923 134.443 107.888L142.596 113.264Z" fill="#D7F2ED"/>
<path d="M126.61 135.042C123.625 131.359 120.641 127.676 117.663 123.999C117.42 123.703 117.006 124.123 117.242 124.419C120.227 128.102 123.211 131.785 126.189 135.462C126.432 135.758 126.846 135.338 126.61 135.042Z" fill="#2E303D"/>
<path d="M123.998 135.77C121.885 134.864 119.777 133.958 117.663 133.052C117.313 132.904 117.012 133.413 117.367 133.561C119.481 134.467 121.588 135.373 123.702 136.279C124.046 136.427 124.348 135.918 123.998 135.77Z" fill="#2E303D"/>
<path d="M171.136 152.657C168.453 148.216 165.765 143.775 163.083 139.335C160.413 134.912 157.736 130.495 155.066 126.072C153.55 123.567 152.034 121.062 150.525 118.558C150.329 118.232 149.814 118.528 150.015 118.854C152.698 123.295 155.386 127.735 158.068 132.176C160.738 136.599 163.415 141.016 166.085 145.439C167.601 147.944 169.117 150.448 170.626 152.953C170.822 153.279 171.337 152.983 171.136 152.657Z" fill="#2E303D"/>
<path d="M88.3715 134.781C88.3419 135.509 88.1939 136.238 87.9393 136.966C85.9024 142.869 77.1985 148.399 74.3682 150.069L73.4742 146.795C73.4742 146.795 68.8854 147.825 65.5281 144.918C65.4393 145.09 65.2972 145.243 65.1314 145.35C64.6578 145.64 64.0597 145.64 63.5031 145.593C60.9867 145.368 58.5354 144.403 56.54 142.845C55.3617 141.928 54.3019 140.738 53.9762 139.281C53.6624 137.901 54.1894 136.261 55.415 135.586C55.3676 135.367 55.338 135.142 55.3262 134.917C55.2729 133.632 55.9479 132.401 56.8657 131.501C57.7124 130.66 58.7604 130.062 59.8084 129.493C59.8203 129.44 59.8321 129.393 59.8439 129.345C60.0985 128.434 60.7499 127.676 61.5078 127.113C62.1946 126.604 62.9762 126.237 63.7577 125.882C59.9624 123.928 56.3209 121.761 56.688 120.79C57.4282 118.818 65.2025 119.517 73.0656 122.27C80.9228 125.029 83.4926 129.138 83.4926 129.138C85.938 128.055 88.6143 128.268 88.3715 134.781Z" fill="#FF9971"/>
<path d="M85.4939 135.894C83.6643 136.682 81.8287 137.469 79.9991 138.251C79.0695 138.647 78.1459 139.044 77.2163 139.447C76.4524 139.772 75.5228 140.305 74.6702 140.045C73.7465 139.761 73.7406 138.73 74.09 137.99C74.4452 137.25 74.9959 136.575 75.5051 135.941C76.5117 134.686 77.6485 133.538 78.8919 132.513C80.3307 131.329 81.9176 130.322 83.5991 129.511C83.9426 129.345 83.6406 128.836 83.3031 129.002C80.0524 130.565 77.163 132.874 74.9367 135.711C74.0663 136.818 72.4261 138.772 73.7347 140.157C74.3327 140.791 75.286 140.791 76.0616 140.554C77.0209 140.258 77.9505 139.778 78.8741 139.382C81.1833 138.393 83.4866 137.404 85.7958 136.409C86.1452 136.261 85.8432 135.752 85.4998 135.9L85.4939 135.894Z" fill="#2E303D"/>
<path d="M71.0465 129.979C68.7492 128.605 66.4518 127.237 64.1545 125.864C63.8288 125.668 63.5268 126.178 63.8584 126.373L70.7505 130.488C71.0761 130.683 71.3781 130.174 71.0465 129.979Z" fill="#2E303D"/>
<path d="M72.1183 141.075C72.0532 140.513 71.8045 139.998 71.5854 139.483C71.3485 138.914 71.1117 138.352 70.8749 137.783C69.7854 135.184 68.7018 132.579 67.6124 129.979C67.4703 129.63 66.8959 129.784 67.044 130.139C67.9203 132.241 68.8025 134.349 69.6788 136.451C70.1229 137.517 70.567 138.577 71.011 139.642C71.2834 140.288 72.1124 141.987 70.9104 142.259C70.0696 142.449 69.0926 141.614 68.4532 141.164C67.719 140.649 67.0143 140.081 66.3512 139.471C65.0367 138.263 63.8703 136.895 62.8874 135.403C61.7801 133.715 60.9098 131.88 60.3117 129.95C60.1992 129.588 59.6308 129.742 59.7433 130.11C60.8979 133.846 63.0532 137.25 65.9367 139.897C66.6354 140.536 67.3815 141.134 68.1571 141.685C68.8913 142.206 69.7795 142.893 70.7268 142.881C71.692 142.863 72.213 141.975 72.1124 141.087L72.1183 141.075Z" fill="#2E303D"/>
<path d="M67.1446 141.383C66.9196 141.081 66.4045 141.383 66.6354 141.679C67.038 142.212 67.0735 142.934 66.6058 143.438C66.138 143.941 65.4452 143.947 64.8531 143.681C64.2433 143.414 63.7163 142.964 63.1953 142.556C62.6564 142.129 62.1235 141.697 61.6084 141.247C59.5479 139.471 57.6532 137.505 55.942 135.385C55.7051 135.089 55.2847 135.509 55.5216 135.806C57.0907 137.754 58.8196 139.565 60.6907 141.229C61.6025 142.04 62.5439 142.816 63.5209 143.544C64.3795 144.184 65.4985 144.8 66.5525 144.219C67.5768 143.657 67.8492 142.301 67.1505 141.377L67.1446 141.383Z" fill="#2E303D"/>
<path d="M156.682 92.6415L149.767 117.995L142.596 113.264C149.974 102.784 148.535 90.3382 148.535 90.3382C148.535 90.3382 147.386 107.101 134.443 107.888C133.886 107.924 133.3 107.93 132.696 107.9C132.075 107.87 131.423 107.805 130.754 107.705C125.881 106.97 121.95 103.074 118.835 97.9527C112.648 87.7803 109.658 72.8001 108.846 68.1995C116.135 67.2462 123.217 64.185 130.133 61.4258C132.27 60.5732 134.526 59.7265 136.817 59.9811C139.162 60.2357 141.264 61.633 142.839 63.3916C144.219 64.937 145.249 66.7488 146.22 68.5784C146.492 66.9087 147.623 61.8995 151.413 63.3442C151.851 63.51 152.242 63.7765 152.579 64.114C155.723 67.2876 154.569 77.1402 151.004 79.1475L152.165 81.9067L154.385 87.1882L156.677 92.6415H156.682Z" fill="#FF9971"/>
<path d="M148.535 90.3384C148.535 90.3384 149.974 102.784 142.596 113.265L134.443 107.888C147.386 107.101 148.535 90.3384 148.535 90.3384Z" fill="#2E303D"/>
<path d="M151.94 55.1614C151.59 52.9351 151.046 50.62 149.559 48.9266C148.227 47.4167 145.924 46.6115 144.118 47.3575C144.633 45.368 144.384 43.195 143.366 41.4009C142.312 39.5477 140.506 38.1503 138.44 37.6115C133.419 36.3029 128.836 39.6069 124.756 42.0226C122.577 43.3134 120.304 44.3437 117.829 44.9299C115.419 45.4983 112.92 45.67 110.457 45.4332C109.208 45.3147 107.97 45.0779 106.756 44.7522C105.542 44.4266 104.335 44.0536 103.079 43.9529C100.989 43.7871 98.8635 44.5805 98.0228 46.6233C97.2412 48.5239 97.6438 50.7443 98.4017 52.5858C98.9346 53.8766 99.6984 55.0726 100.628 56.1088C98.3543 55.872 95.9445 57.0384 94.8076 59.0338C93.5168 61.2956 93.9728 64.4101 95.8557 66.2101C97.4839 67.7673 99.8405 68.2647 102.085 68.4305C104.358 68.6022 106.608 68.5015 108.84 68.2055C116.129 67.2522 123.211 64.191 130.127 61.4318C132.264 60.5792 134.52 59.7325 136.811 59.9871C139.156 60.2417 141.258 61.639 142.833 63.3976C144.213 64.943 145.243 66.7548 146.214 68.5844C146.486 66.9147 147.617 61.9055 151.407 63.3502C151.845 63.516 152.236 63.7825 152.573 64.12C152.615 61.1298 152.402 58.1279 151.934 55.1674L151.94 55.1614ZM139.369 40.6371C136.539 39.6187 133.365 40.2819 130.606 41.4779C127.847 42.668 125.325 44.3615 122.554 45.5161C117.491 47.6121 111.665 47.7957 106.49 46.0134C104.571 45.3503 102.475 44.4266 100.61 45.22C99.1655 45.8358 98.3603 47.3516 98.2063 48.9443C98.2063 48.5891 98.2241 48.2279 98.2833 47.8786C98.4431 46.9312 98.8635 46.0253 99.6155 45.4095C100.433 44.7404 101.534 44.5095 102.564 44.5213C103.784 44.5272 104.968 44.8766 106.14 45.1963C107.277 45.5101 108.42 45.7707 109.592 45.9246C114.134 46.5286 118.829 45.7588 122.927 43.7101C127.131 41.6082 130.973 38.0911 135.894 37.9371C138.096 37.8661 140.216 38.6358 141.756 40.2345C143.307 41.845 144.029 44.1187 143.727 46.3332C143.715 46.4101 143.698 46.4812 143.68 46.5582C143.792 44.0358 141.821 41.5312 139.363 40.643L139.369 40.6371Z" fill="#2E303D"/>
<path d="M143.964 37.3985C143.816 37.0491 143.301 37.3511 143.455 37.6945C144.556 40.2465 145.101 43.0057 145.071 45.7767C145.071 46.1557 145.658 46.1557 145.663 45.7767C145.693 42.8932 145.107 40.0393 143.964 37.3926V37.3985Z" fill="#2E303D"/>
<path d="M146.676 42.5027C146.421 43.5448 146.173 44.5869 145.918 45.6231C145.829 45.9961 146.398 46.1501 146.486 45.783C146.741 44.7409 146.99 43.6988 147.244 42.6626C147.333 42.2896 146.765 42.1356 146.676 42.5027Z" fill="#2E303D"/>
<path d="M142.65 217.865V221.648H89.8222L49.5532 199.758V196.354L90.5919 217.865H142.65Z" fill="#8E8E8E"/>
<path d="M142.65 217.865H90.5919L49.5532 196.354H101.611L142.65 217.865Z" fill="#B7B7B7"/>
<path d="M96.0985 216.212H89.6919L84.6353 213.56H91.0478L96.0985 216.212Z" fill="#8E8E8E"/>
<path d="M89.3248 212.672H82.9182L77.8617 210.025H84.2741L89.3248 212.672Z" fill="#8E8E8E"/>
<path d="M83.5932 209.273H77.1867L72.1301 206.621H78.5426L83.5932 209.273Z" fill="#8E8E8E"/>
<path d="M76.8196 205.733H70.4071L65.3564 203.086H71.7689L76.8196 205.733Z" fill="#8E8E8E"/>
<path d="M103.837 215.697H97.4248L92.3741 213.051H98.7866L103.837 215.697Z" fill="#8E8E8E"/>
<path d="M98.1057 212.299H91.6932L86.6426 209.646H93.0551L98.1057 212.299Z" fill="#8E8E8E"/>
<path d="M91.332 208.758H84.9196L79.8689 206.105H86.2755L91.332 208.758Z" fill="#8E8E8E"/>
<path d="M105.235 211.665H98.8281L93.7715 209.019H100.184L105.235 211.665Z" fill="#8E8E8E"/>
<path d="M99.503 208.266H93.0965L88.0399 205.614H94.4524L99.503 208.266Z" fill="#8E8E8E"/>
<path d="M92.7294 204.726H86.3169L81.2663 202.073H87.6788L92.7294 204.726Z" fill="#8E8E8E"/>
<path d="M128.854 216.532H122.441L117.385 213.879H123.797L128.854 216.532Z" fill="#8E8E8E"/>
<path d="M122.08 212.991H115.667L110.611 210.345H117.023L122.08 212.991Z" fill="#8E8E8E"/>
<path d="M116.342 209.593H109.936L104.879 206.94H111.292L116.342 209.593Z" fill="#8E8E8E"/>
<path d="M109.569 206.052H103.162L98.1057 203.406H104.518L109.569 206.052Z" fill="#8E8E8E"/>
<path d="M136.587 216.017H130.18L125.123 213.371H131.536L136.587 216.017Z" fill="#8E8E8E"/>
<path d="M130.855 212.619H124.448L119.392 209.966H125.804L130.855 212.619Z" fill="#8E8E8E"/>
<path d="M124.081 209.078H117.669L112.618 206.425H119.031L124.081 209.078Z" fill="#8E8E8E"/>
<path d="M175.908 236.048H123.85L97.2708 222.086H149.329L175.908 236.048Z" fill="#D5E0E0"/>
<path d="M139.802 234.372H124.656L116.917 230.305H132.069L139.802 234.372Z" fill="#5463FF"/>
<path d="M144.532 234.112C144.438 234.112 144.343 234.089 144.26 234.047L126.296 224.609C126.006 224.455 125.893 224.1 126.047 223.81C126.201 223.52 126.556 223.413 126.846 223.561L144.811 232.999C145.101 233.153 145.213 233.508 145.059 233.799C144.953 234 144.746 234.118 144.532 234.118V234.112Z" fill="#B7B7B7"/>
<path d="M150.578 233.769C150.483 233.769 150.388 233.745 150.306 233.703L132.341 224.265C132.051 224.111 131.938 223.756 132.092 223.466C132.246 223.176 132.602 223.069 132.892 223.217L150.856 232.655C151.146 232.809 151.259 233.165 151.105 233.455C150.998 233.656 150.791 233.774 150.578 233.774V233.769Z" fill="#B7B7B7"/>
<path d="M158.796 234.29C158.702 234.29 158.607 234.266 158.524 234.224L140.559 224.786C140.269 224.632 140.157 224.277 140.311 223.987C140.465 223.697 140.82 223.59 141.11 223.738L159.075 233.176C159.365 233.33 159.477 233.686 159.323 233.976C159.217 234.177 159.009 234.295 158.796 234.295V234.29Z" fill="#B7B7B7"/>
<path d="M164.836 233.94C164.741 233.94 164.646 233.917 164.563 233.875L146.599 224.437C146.309 224.283 146.196 223.928 146.35 223.638C146.504 223.348 146.859 223.241 147.15 223.389L165.114 232.827C165.404 232.981 165.517 233.337 165.363 233.627C165.256 233.828 165.049 233.946 164.836 233.946V233.94Z" fill="#B7B7B7"/>
<path d="M219.12 76.85L229.251 71.5743C233.289 72.6342 237.676 72.575 241.945 71.1658C253.716 67.2756 260.105 54.5809 256.215 42.8099C252.325 31.0389 239.63 24.6501 227.859 28.5402C216.094 32.4244 209.705 45.125 213.595 56.8961C214.72 60.3007 216.586 63.2612 218.954 65.6474L219.126 76.8559L219.12 76.85Z" fill="#EEEEEE"/>
<path d="M241.229 65.4279V66.8963H239.962H231.406H230.092V62.6924L241.229 65.4279Z" fill="#3C3744"/>
<path d="M231.406 66.896H239.962C239.962 66.896 239.761 68.6664 235.657 68.6664C231.554 68.6664 231.406 66.896 231.406 66.896Z" fill="#A3A3A3"/>
<path d="M241.229 61.4248V65.4274L230.092 62.6919V61.4248H230.885H240.678H241.229Z" fill="black"/>
<path d="M248.92 43.8101C248.92 48.6476 246.303 52.8811 242.401 55.1607L240.678 61.4252H230.885L229.168 55.1607C225.266 52.8811 222.643 48.6476 222.643 43.8101C222.643 36.5568 228.528 30.6772 235.782 30.6772C243.035 30.6772 248.914 36.5568 248.914 43.8101H248.92Z" fill="#FFC300"/>
<path d="M230.512 46.8532C230.465 46.5394 229.985 46.6756 230.032 46.9835C230.766 51.6907 231.501 56.3979 232.235 61.1051C232.282 61.419 232.762 61.2828 232.715 60.9749C231.98 56.2677 231.246 51.5604 230.512 46.8532Z" fill="white"/>
<path d="M240.927 46.3798C240.134 51.3357 239.34 56.2916 238.553 61.2416C238.505 61.5554 238.979 61.6857 239.032 61.3719C239.826 56.416 240.619 51.46 241.407 46.5101C241.454 46.1962 240.98 46.066 240.927 46.3798Z" fill="white"/>
<path d="M242.265 49.9557C241.892 50.9801 240.743 51.6728 239.666 51.4656C238.754 51.288 238.055 50.6129 237.576 49.8314C238.02 49.1919 238.34 48.4459 238.505 47.7531C238.683 47.0248 238.73 46.2669 238.624 45.5209C238.547 44.9524 238.28 44.2301 237.623 44.1472C236.859 44.0465 236.468 44.8103 236.344 45.4439C236.184 46.2551 236.184 47.0959 236.332 47.907C236.445 48.5347 236.658 49.1801 236.966 49.7781C236.901 49.861 236.836 49.938 236.765 50.0149C236.338 50.4768 235.805 50.909 235.148 50.9445C234.526 50.9801 234.088 50.5893 233.769 50.1037C234.1 49.6301 234.325 49.0676 234.444 48.511C234.615 47.688 234.692 46.7761 234.633 45.9413C234.592 45.2899 234.142 44.5261 233.378 44.7452C232.59 44.9702 232.46 45.9294 232.407 46.6163C232.347 47.4038 232.448 48.209 232.685 48.961C232.803 49.334 232.963 49.7307 233.17 50.0978C232.851 50.4708 232.43 50.7432 231.892 50.832C230.405 51.0807 229.843 49.559 229.553 48.3985C229.476 48.0906 228.996 48.2209 229.073 48.5287C229.393 49.8136 230.02 51.3531 231.584 51.3472C232.336 51.3472 232.957 51.0156 233.425 50.5182C233.544 50.684 233.674 50.832 233.822 50.9623C234.39 51.4715 235.16 51.5603 235.865 51.2761C236.386 51.0629 236.842 50.7018 237.226 50.2577C237.682 50.9504 238.298 51.5248 239.08 51.8208C240.536 52.3715 242.2 51.5366 242.721 50.0919C242.828 49.7899 242.354 49.6656 242.242 49.9616L242.265 49.9557ZM232.951 46.2551C232.999 45.9413 233.058 45.5623 233.307 45.3373C233.609 45.0649 233.952 45.2426 234.082 45.5801C234.207 45.8939 234.153 46.2728 234.147 46.5985C234.136 46.9478 234.124 47.2972 234.088 47.6406C234.023 48.2919 233.851 49.0261 233.508 49.6241C232.987 48.5939 232.786 47.3978 232.951 46.2551ZM237.256 49.2333C236.723 48.0551 236.551 46.634 236.865 45.3669C236.936 45.0827 237.072 44.7393 237.38 44.6445C237.682 44.5498 237.89 44.8103 237.996 45.059C238.221 45.5682 238.209 46.2136 238.162 46.7584C238.091 47.6584 237.783 48.5524 237.292 49.3162C237.28 49.2866 237.262 49.257 237.25 49.2333H237.256Z" fill="white"/>
<path d="M92.4097 80.1654L81.8703 81.7996C79.413 84.8311 76.0795 87.2114 72.0946 88.5081C61.0874 92.0903 49.2572 86.0746 45.675 75.0674C42.0927 64.0601 48.1085 52.2299 59.1157 48.6477C70.117 45.0655 81.9472 51.0812 85.5295 62.0884C86.5656 65.274 86.7966 68.5305 86.3406 71.6331L92.4097 80.1594V80.1654Z" fill="white"/>
<path d="M82.2551 61.8571L62.6328 81.4794L51.9631 70.8038L57.1322 65.6288L62.6328 71.1295L77.0801 56.6821L82.2551 61.8571Z" fill="#090C9B"/>
<path d="M204.969 126.823L191.599 141.827L188.182 151.046L187.484 142.401L186.08 131.868L186.223 129.92L187.022 118.912C184.802 119.12 182.64 119.06 180.609 118.693C172.616 117.272 166.517 111.168 165.754 97.9579C165.286 89.9112 166.281 83.8481 167.625 79.4783C169.596 73.0599 172.338 70.3066 172.338 70.3066C172.338 70.3066 182.338 87.0573 195.59 88.9105C195.59 88.9105 198.017 83.1849 201.801 84.8724C205.59 86.5599 205.59 97.952 199.586 99.4441C198.799 107.325 199.948 115.401 202.908 122.749C203.476 124.153 204.134 125.562 204.969 126.823Z" fill="#FF9971"/>
<path d="M193.695 117.592L186.602 124.674L187.022 118.913C189.201 118.717 191.445 118.261 193.695 117.592Z" fill="#2E303D"/>
<path d="M186.602 124.674L186.223 129.92C186.223 129.92 178.537 133.366 175.014 141.507C174.25 139.032 174.333 136.326 174.884 133.786C175.505 130.944 176.678 128.262 177.862 125.615C178.875 123.347 179.905 121.068 180.609 118.693C182.64 119.06 184.802 119.12 187.022 118.912L186.602 124.674Z" fill="#2E303D"/>
<path d="M248.636 129.618C247.049 123.122 243.195 117.503 238.807 112.571C235.255 108.58 231.305 104.968 227.557 101.161C226.385 99.2487 225.284 97.2948 224.307 95.2698C220.636 87.6968 218.711 79.3659 214.934 71.8521C211.15 64.3324 204.809 57.3337 196.496 56.037C184.286 54.1304 172.634 64.9541 160.49 62.6745C160.01 68.8501 162.556 75.1975 167.175 79.3304L167.631 79.4725C169.324 73.9659 171.574 71.1653 172.184 70.4784C172.912 74.1139 175.44 77.1041 177.939 79.7448C180.858 82.8356 184.15 85.7073 188.141 87.3001C189.864 87.9869 191.694 88.4132 193.547 88.4902C194.222 88.6619 194.903 88.81 195.596 88.9047C195.596 88.9047 198.023 83.1791 201.807 84.8665C205.596 86.554 205.596 97.9461 199.592 99.4382C198.805 107.319 199.953 115.395 202.914 122.743C203.482 124.147 204.14 125.556 204.975 126.817C205.49 127.605 206.076 128.333 206.757 128.972C207 129.203 207.254 129.422 207.526 129.63C212.731 133.603 220.399 131.222 226.527 133.526C232.199 135.657 235.717 141.626 236.64 147.618C237.57 153.61 236.362 159.703 235.166 165.647L235.272 165.683C235.391 165.328 235.503 164.966 235.616 164.611C243.568 161.793 248.281 153.172 248.66 144.687C249.803 139.749 249.844 134.544 248.636 129.618ZM183.605 84.085C181.942 82.8712 180.42 81.4679 178.987 79.9935C177.584 78.5488 176.198 77.0567 175.044 75.3988C174.173 74.1495 173.439 72.7935 173.001 71.3429C175.044 74.4337 181.693 83.6646 190.468 87.4422C187.999 86.8086 185.672 85.5948 183.605 84.0909V84.085ZM248.613 141.709C248.038 133.129 243.888 125.124 239.097 117.941C235.835 113.057 232.229 108.373 229.02 103.459C231.299 105.715 233.62 107.941 235.847 110.25C240.548 115.129 245.001 120.576 247.263 127.054C248.897 131.737 249.305 136.806 248.613 141.709Z" fill="#2E303D"/>
<path d="M235.16 165.653L235.267 165.689C233.62 170.799 231.749 175.926 229.861 180.764C224.022 195.714 218.007 207.906 217.823 208.267C212.056 200.303 201.315 195.016 197.828 193.447C197.111 193.127 196.703 192.961 196.703 192.961L194.506 199.545C194.69 199.717 194.879 199.889 195.057 200.055L175.144 202.707V194.501C175.144 194.501 174.653 193.435 173.925 191.741C172.93 189.432 171.491 185.951 170.289 182.445C168.969 178.597 167.932 174.718 168.057 172.332C168.388 166.186 181.853 142.484 181.853 142.484C181.871 145.901 182.629 148.66 182.629 148.66C182.688 148.293 182.824 147.902 183.025 147.505C183.084 147.76 184.991 155.623 188.55 161.58L196.128 148.66C196.442 149.471 196.75 150.377 197.028 151.372C197.028 151.372 205.436 137.777 206.751 128.984C206.994 129.209 207.248 129.428 207.521 129.636C212.725 133.609 220.393 131.228 226.521 133.532C232.194 135.663 235.711 141.632 236.634 147.624C237.564 153.616 236.356 159.709 235.16 165.653Z" fill="#35C1F1"/>
<path d="M229.861 180.77L233.407 211.944H217.432L218.759 209.641C218.469 209.173 218.155 208.717 217.823 208.267C218.007 207.906 224.022 195.715 229.861 180.77Z" fill="#35C1F1"/>
<path d="M217.823 208.267C218.155 208.717 218.469 209.173 218.759 209.64L217.432 211.944L210.748 223.579C210.748 223.579 208.397 212.524 195.057 200.054C194.879 199.889 194.69 199.717 194.506 199.545L196.703 192.961C196.703 192.961 197.111 193.127 197.828 193.446C201.315 195.016 212.056 200.303 217.823 208.267Z" fill="#1DA7D6"/>
<path d="M210.747 223.578C210.747 223.578 195.453 223.851 152.698 221.382C152.698 221.382 142.709 228.298 138.653 227.859C134.591 227.421 126.58 219.902 124.602 216.775C122.631 213.649 127.788 208.983 127.788 208.983C127.788 208.983 127.841 206.627 131.08 205.253C132.525 204.643 136.486 204.726 140.441 205.004C145.367 205.359 150.282 206.023 150.282 206.023L162.177 204.436L175.144 202.707L195.057 200.054C208.397 212.524 210.747 223.578 210.747 223.578Z" fill="#FF9971"/>
<path d="M206.751 128.979C205.436 137.777 197.028 151.372 197.028 151.372C196.75 150.377 196.442 149.471 196.128 148.66C194.098 143.402 191.599 141.827 191.599 141.827L204.969 126.823C205.484 127.611 206.07 128.339 206.751 128.979Z" fill="white"/>
<path d="M196.128 148.66L188.55 161.579C184.991 155.623 183.084 147.76 183.025 147.505C184.215 145.095 187.484 142.401 187.484 142.401L188.182 151.046L191.599 141.827C191.599 141.827 194.098 143.402 196.128 148.66Z" fill="#1DA7D6"/>
<path d="M181.829 179.852H191.066L191.433 198.775H177.773L177.495 179.852H181.829ZM188.177 190.557V181.669H180.752V190.557H188.177Z" fill="white"/>
<path d="M188.177 181.669H180.752V190.557H188.177V181.669Z" fill="#5463FF"/>
<path d="M186.08 131.868L187.484 142.402C187.484 142.402 184.215 145.096 183.025 147.5C182.824 147.902 182.688 148.293 182.629 148.66C182.629 148.66 181.871 145.901 181.853 142.485C181.835 138.855 182.646 134.473 186.08 131.868Z" fill="white"/>
<path d="M184.209 176.969L186.489 179.852H181.829L184.209 176.969Z" fill="#B7B7B7"/>
<path d="M175.014 141.507C178.537 133.366 186.223 129.92 186.223 129.92L186.08 131.868C182.646 134.473 181.835 138.855 181.853 142.484C181.853 142.484 168.388 166.186 168.057 172.332C167.933 174.718 168.969 178.597 170.289 182.445L169.484 182.647L163.705 179.84L163.888 179.467C163.888 179.467 171.242 153.403 174.203 143.692C174.434 142.928 174.706 142.2 175.014 141.507Z" fill="#35C1F1"/>
<path d="M175.144 194.501V202.707L162.177 204.436L122.714 204.353C116.035 207.225 112.583 207.379 110.001 206.094C108.947 206.165 104.992 206.603 103.938 206.668C103.837 207.805 103.488 208.818 102.547 208.818C100.409 208.818 98.0228 204.045 98.0228 204.045C98.0228 204.045 97.3656 208.818 95.2222 207.669C93.0847 206.514 93.659 199.983 93.659 199.983C93.659 199.983 88.8038 204.744 88.1465 202.95C87.4893 201.15 90.6985 192.606 98.6801 191.866C106.662 191.126 124.685 194.335 124.685 194.335L160.431 188.354L173.925 191.741C174.653 193.435 175.144 194.501 175.144 194.501Z" fill="#FF9971"/>
<path d="M173.925 191.741L160.431 188.355C159.602 181.717 161.804 178.917 161.804 178.917L163.705 179.84L170.289 182.445C171.491 185.951 172.93 189.432 173.925 191.741Z" fill="#1DA7D6"/>
<path d="M146.765 191.671C147.612 192.251 147.842 193.412 147.327 194.3C143.153 193.761 142.158 191.86 142.158 191.86C142.502 191.28 143.183 190.593 143.852 190.558C144.669 190.522 145.735 190.966 146.765 191.671Z" fill="#5463FF"/>
<path d="M147.327 194.3L144.805 198.652C141.483 198.172 139.707 195.975 139.707 195.975L142.158 191.86C142.158 191.86 143.153 193.761 147.327 194.3Z" fill="#090C9B"/>
<path d="M144.805 198.652L140.873 205.437L134.159 205.295L139.707 195.976C139.707 195.976 141.483 198.172 144.805 198.652Z" fill="#03045E"/>
<path d="M209.498 151.917C207.876 157.032 206.248 162.148 204.625 167.27C203.009 172.362 201.392 177.46 199.77 182.552C198.852 185.442 197.934 188.325 197.017 191.215C196.898 191.576 197.473 191.736 197.585 191.375C199.207 186.259 200.836 181.143 202.458 176.021C204.075 170.929 205.691 165.831 207.313 160.739C208.231 157.85 209.149 154.966 210.067 152.077C210.185 151.715 209.611 151.556 209.498 151.917Z" fill="white"/>
<path d="M229.565 181.61C226.16 188.378 223.034 195.288 220.192 202.31C219.392 204.294 218.611 206.283 217.859 208.279C217.723 208.634 218.297 208.788 218.427 208.439C221.086 201.399 224.034 194.465 227.261 187.668C228.179 185.737 229.115 183.819 230.074 181.907C230.245 181.569 229.736 181.267 229.565 181.61Z" fill="white"/>
<path d="M181.048 143.171C178.229 148.393 175.346 153.58 172.616 158.844C170.147 163.592 167.974 168.685 167.992 174.132C168.004 176.962 168.619 179.792 170.023 182.267C170.212 182.599 170.721 182.303 170.532 181.971C167.974 177.471 168.205 171.988 169.679 167.175C170.473 164.575 171.609 162.106 172.847 159.69C174.138 157.168 175.511 154.693 176.856 152.2C178.425 149.293 179.994 146.38 181.563 143.473C181.746 143.135 181.231 142.839 181.054 143.177L181.048 143.171Z" fill="white"/>
<path d="M196.099 149.347C192.901 156.582 189.698 163.818 186.501 171.053C185.719 172.818 184.944 174.576 184.162 176.341C182.966 169.129 182.451 161.804 182.652 154.498C182.711 152.331 182.836 150.164 183.013 147.997C183.043 147.618 182.451 147.618 182.421 147.997C181.776 155.688 181.906 163.439 182.812 171.1C183.061 173.197 183.369 175.287 183.73 177.365C183.73 177.418 183.742 177.472 183.765 177.513C183.795 177.608 183.866 177.661 183.949 177.679C184.067 177.726 184.203 177.702 184.269 177.549C184.269 177.549 184.269 177.537 184.275 177.537C184.292 177.507 184.31 177.477 184.316 177.442C187.502 170.242 190.681 163.042 193.867 155.842C194.778 153.776 195.696 151.709 196.608 149.637C196.762 149.293 196.253 148.991 196.099 149.341V149.347Z" fill="white"/>
<path d="M174.73 202.849C170.532 203.258 166.334 203.672 162.136 204.081C161.763 204.116 161.757 204.708 162.136 204.673C166.334 204.264 170.532 203.85 174.73 203.441C175.103 203.406 175.109 202.814 174.73 202.849Z" fill="#2E303D"/>
<path d="M116.177 203.945C112.648 205.064 109 205.804 105.312 206.136C104.891 206.171 104.465 206.207 104.039 206.23C103.683 206.254 103.316 206.295 102.961 206.224C102.689 206.171 102.387 206.041 102.41 205.715C102.434 205.313 102.949 204.934 103.216 204.679C104.429 203.53 105.732 202.47 107.112 201.523C108.669 200.451 110.321 199.516 112.038 198.728C112.381 198.568 112.085 198.059 111.742 198.219C108.396 199.759 105.318 201.849 102.659 204.395C102.162 204.874 101.51 205.579 101.984 206.301C102.327 206.816 103.056 206.876 103.618 206.852C105.62 206.769 107.627 206.509 109.604 206.165C111.884 205.768 114.134 205.218 116.337 204.519C116.698 204.407 116.544 203.832 116.177 203.951V203.945Z" fill="#2E303D"/>
<path d="M98.3248 203.968C97.5432 201.351 97.5373 198.574 98.2952 195.951C98.4017 195.584 97.8333 195.43 97.7267 195.791C96.9392 198.509 96.9452 201.41 97.7563 204.122C97.8629 204.489 98.4373 204.329 98.3248 203.962V203.968Z" fill="#2E303D"/>
<path d="M96.0985 194.992C95.9445 194.904 95.7906 194.975 95.6958 195.099C94.5945 196.538 93.8425 198.231 93.511 200.013C93.4399 200.386 94.0142 200.546 94.0794 200.173C94.405 198.432 95.1274 196.804 96.205 195.395C96.3057 195.265 96.2228 195.063 96.0985 194.992Z" fill="#2E303D"/>
<path d="M187.241 142.384C185.53 144.077 183.925 145.871 182.433 147.76C182.202 148.056 182.617 148.477 182.854 148.181C184.346 146.292 185.95 144.498 187.661 142.804C187.934 142.538 187.513 142.117 187.241 142.384Z" fill="#1DA7D6"/>
<path d="M197.123 150.762C196.117 147.381 194.376 144.261 192.025 141.626C191.771 141.342 191.356 141.762 191.605 142.046C193.884 144.598 195.578 147.636 196.549 150.916C196.655 151.283 197.23 151.123 197.117 150.756L197.123 150.762Z" fill="#1DA7D6"/>
<path d="M188.656 151.537C188.638 151.158 188.046 151.158 188.064 151.537C188.176 154.16 188.289 156.789 188.401 159.412C188.419 159.791 189.011 159.791 188.994 159.412C188.881 156.789 188.769 154.16 188.656 151.537Z" fill="black"/>
<path d="M190.8 153.047C190.634 152.71 190.196 152.526 189.846 152.662C189.74 152.704 189.645 152.769 189.562 152.846C189.55 152.852 189.538 152.858 189.532 152.87C189.515 152.887 189.509 152.917 189.491 152.935C189.461 152.97 189.426 152.994 189.408 153.035C189.396 153.059 189.396 153.083 189.39 153.101C189.384 153.118 189.378 153.142 189.373 153.16C189.349 153.231 189.331 153.308 189.331 153.379C189.331 153.385 189.331 153.397 189.331 153.403C189.331 153.426 189.343 153.444 189.343 153.462C189.343 153.509 189.343 153.557 189.355 153.604C189.355 153.622 189.373 153.639 189.378 153.657C189.39 153.693 189.408 153.722 189.426 153.758C189.455 153.811 189.479 153.858 189.521 153.906C189.526 153.918 189.532 153.93 189.538 153.941C189.556 153.965 189.586 153.977 189.609 153.995C189.639 154.018 189.663 154.054 189.692 154.072C189.704 154.078 189.722 154.078 189.734 154.089C189.769 154.107 189.811 154.119 189.852 154.131C189.9 154.149 189.947 154.166 190 154.172C190.19 154.202 190.385 154.166 190.533 154.054C190.687 153.941 190.805 153.787 190.859 153.598C190.912 153.408 190.888 153.213 190.805 153.035L190.8 153.047Z" fill="black"/>
<path d="M39.7835 205.461L38.025 219.956L68.3111 218.091V224.13L24.1993 229.068L12.2388 219.956L25.8809 187.668L30.7835 176.063L42.9631 179.249L41.4355 191.866L39.7835 205.461Z" fill="#8E8E8E"/>
<path d="M55.9657 95.9038L76.4347 202.565H67.6538L47.0782 95.9038H55.9657Z" fill="#8E8E8E"/>
<path d="M68.3111 218.091L38.0249 219.956L39.7835 205.461L68.3111 218.091Z" fill="#B7B7B7"/>
<path d="M47.0782 95.9038L67.6538 202.565L41.4354 191.866L42.9631 179.248L30.7835 176.063L25.8809 187.668L23.7079 186.744L3.05176e-05 95.9038H47.0782Z" fill="#B7B7B7"/>
<path d="M63.3315 178.864C62.1947 172.185 61.0282 165.512 59.8381 158.845C58.6361 152.142 57.4045 145.451 56.1434 138.76C54.8881 132.105 53.6032 125.456 52.2888 118.806C50.9743 112.157 49.6302 105.52 48.2565 98.8881C48.0848 98.0592 47.9131 97.2302 47.7414 96.4013C47.6644 96.0283 47.0901 96.1881 47.173 96.5611C48.5526 103.193 49.9026 109.83 51.2289 116.474C52.5493 123.117 53.8401 129.766 55.1072 136.422C56.3743 143.112 57.6118 149.803 58.8197 156.506C60.0216 163.173 61.194 169.846 62.3368 176.519C63.4795 183.198 64.5927 189.877 65.6762 196.562C65.8124 197.396 65.9486 198.231 66.0789 199.072C66.1381 199.445 66.7124 199.285 66.6473 198.912C65.5696 192.227 64.4683 185.542 63.3315 178.864Z" fill="#2E303D"/>
<path d="M39.3098 178.994C37.5098 185.412 35.6329 191.813 33.6908 198.196C31.7487 204.549 29.7355 210.884 27.6513 217.19C26.473 220.761 25.2711 224.319 24.0454 227.872C23.9211 228.233 24.4954 228.387 24.6138 228.032C26.7868 221.726 28.8888 215.396 30.9197 209.043C32.9388 202.713 34.8927 196.36 36.7697 189.989C37.8296 186.383 38.8717 182.771 39.8842 179.154C39.9848 178.786 39.4164 178.627 39.3158 178.994H39.3098Z" fill="#2E303D"/>
</svg>
