<svg width="17" height="16" viewBox="0 0 17 16" fill="none" xmlns="http://www.w3.org/2000/svg">
<path d="M8.71875 10.5938C8.9375 10.3438 9.03125 10 8.96875 9.6875C8.78125 9.03125 8.78125 9.125 8.96875 8.5C9.03125 8.15625 8.9375 7.8125 8.71875 7.59375C8.25 7.125 8.28125 7.1875 8.125 6.53125C8.03125 6.21875 7.78125 5.96875 7.46875 5.875C6.84375 5.71875 6.9375 5.75 6.46875 5.28125C6.21875 5.0625 5.875 4.96875 5.5625 5.03125C4.9375 5.21875 5.03125 5.21875 4.40625 5.03125C4.09375 4.96875 3.75 5.0625 3.5 5.28125C3.03125 5.75 3.125 5.71875 2.5 5.875C2.1875 5.96875 1.9375 6.21875 1.84375 6.53125C1.6875 7.1875 1.71875 7.125 1.25 7.59375C1.03125 7.8125 0.9375 8.15625 1.03125 8.5C1.1875 9.125 1.1875 9.03125 1.03125 9.6875C0.9375 10 1.03125 10.3438 1.25 10.5938C1.71875 11.0625 1.6875 10.9688 1.84375 11.625C1.9375 11.9375 2.1875 12.1875 2.5 12.2812C2.9375 12.4062 2.84375 12.375 3 12.4375V16L5 15L7 16V12.4375C7.125 12.375 7.03125 12.4062 7.46875 12.2812C7.78125 12.1875 8 11.9375 8.125 11.625C8.28125 10.9688 8.25 11.0625 8.71875 10.5938ZM5 11C3.875 11 3 10.125 3 9C3 7.90625 3.875 7 5 7C6.09375 7 6.96875 7.90625 6.96875 9C6.96875 10.125 6.09375 11 5 11ZM16.4062 2.9375L14.0625 0.59375C13.6875 0.21875 13.1875 0 12.6562 0H6.96875C5.84375 0 4.96875 0.90625 4.96875 2V4.15625C4.96875 4.15625 5.65625 3.84375 6.46875 4.15625L6.5 2.03125C6.5 1.75 6.71875 1.53125 7 1.53125H12V4C12 4.5625 12.4375 5 13 5H15.4688V14C15.4688 14.2812 15.2188 14.5 14.9688 14.5H8L7.96875 16H14.9688C16.0625 16 16.9688 15.125 16.9688 14V4.34375C17 3.8125 16.7812 3.3125 16.4062 2.9375Z" fill="#5463FF"/>
</svg>
