<svg width="26" height="26" viewBox="0 0 26 26" fill="none" xmlns="http://www.w3.org/2000/svg">
<circle cx="13" cy="13" r="12" fill="#03045E" stroke="white"/>
<path d="M10.1562 9.03125C9.41797 9.03125 8.84375 9.63281 8.84375 10.3438C8.84375 11.082 9.41797 11.6562 10.1562 11.6562C10.8672 11.6562 11.4688 11.082 11.4688 10.3438C11.4688 9.63281 10.8672 9.03125 10.1562 9.03125ZM18.2227 6.625H7.72266C6.76562 6.625 5.97266 7.41797 5.97266 8.375V17.125C5.97266 18.1094 6.76562 18.875 7.72266 18.875H18.2227C19.1797 18.875 19.9727 18.1094 19.9727 17.125V8.375C19.9727 7.41797 19.207 6.625 18.2227 6.625ZM18.6602 16.9609L14.9141 11.875C14.832 11.7383 14.6953 11.6562 14.5312 11.6562C14.3398 11.6562 14.2031 11.7383 14.0938 11.875L11.1953 15.8125L10.1836 14.5547C10.0742 14.4453 9.9375 14.3633 9.77344 14.3633C9.60938 14.3633 9.47266 14.4453 9.36328 14.5547L7.3125 17.125L7.28516 8.375C7.28516 8.15625 7.50391 7.9375 7.72266 7.9375H18.2227C18.4688 7.9375 18.6602 8.15625 18.6602 8.375V16.9609Z" fill="white"/>
</svg>
