<svg width="16" height="16" viewBox="0 0 16 16" fill="none" xmlns="http://www.w3.org/2000/svg">
<path d="M3 6H1C0.4375 6 0 6.46875 0 7V9C0 9.5625 0.4375 10 1 10H3C3.53125 10 4 9.5625 4 9V7C4 6.46875 3.53125 6 3 6ZM2.5 8.5H1.5V7.5H2.5V8.5ZM15 0H13C12.4375 0 12 0.46875 12 1V3C12 3.5625 12.4375 4 13 4H15C15.5312 4 16 3.5625 16 3V1C16 0.46875 15.5312 0 15 0ZM14.5 2.5H13.5V1.5H14.5V2.5ZM9 0H7C6.4375 0 6 0.46875 6 1V3C6 3.5625 6.4375 4 7 4H9C9.53125 4 10 3.5625 10 3V1C10 0.46875 9.53125 0 9 0ZM8.5 2.5H7.5V1.5H8.5V2.5ZM3 12H1C0.4375 12 0 12.4688 0 13V15C0 15.5625 0.4375 16 1 16H3C3.53125 16 4 15.5625 4 15V13C4 12.4688 3.53125 12 3 12ZM2.5 14.5H1.5V13.5H2.5V14.5ZM3 0H1C0.4375 0 0 0.46875 0 1V3C0 3.5625 0.4375 4 1 4H3C3.53125 4 4 3.5625 4 3V1C4 0.46875 3.53125 0 3 0ZM2.5 2.5H1.5V1.5H2.5V2.5ZM9 6H7C6.4375 6 6 6.46875 6 7V9C6 9.5625 6.4375 10 7 10H9C9.53125 10 10 9.5625 10 9V7C10 6.46875 9.53125 6 9 6ZM8.5 8.5H7.5V7.5H8.5V8.5ZM15 12H13C12.4375 12 12 12.4688 12 13V15C12 15.5625 12.4375 16 13 16H15C15.5312 16 16 15.5625 16 15V13C16 12.4688 15.5312 12 15 12ZM14.5 14.5H13.5V13.5H14.5V14.5ZM9 12H7C6.4375 12 6 12.4688 6 13V15C6 15.5625 6.4375 16 7 16H9C9.53125 16 10 15.5625 10 15V13C10 12.4688 9.53125 12 9 12ZM8.5 14.5H7.5V13.5H8.5V14.5ZM15 6H13C12.4375 6 12 6.46875 12 7V9C12 9.5625 12.4375 10 13 10H15C15.5312 10 16 9.5625 16 9V7C16 6.46875 15.5312 6 15 6ZM14.5 8.5H13.5V7.5H14.5V8.5Z" fill="#5463FF"/>
</svg>
