<svg width="259" height="204" viewBox="0 0 259 204" fill="none" xmlns="http://www.w3.org/2000/svg">
<path d="M259 180.251H0V180.381H259V180.251Z" fill="#EBEBEB"/>
<path d="M233.048 188.591H215.892V188.721H233.048V188.591Z" fill="#EBEBEB"/>
<path d="M171.572 190.001H167.07V190.131H171.572V190.001Z" fill="#EBEBEB"/>
<path d="M215.374 183.781H205.434V183.911H215.374V183.781Z" fill="#EBEBEB"/>
<path d="M49.5467 184.652H27.1743V184.781H49.5467V184.652Z" fill="#EBEBEB"/>
<path d="M57.4411 184.652H54.1621V184.781H57.4411V184.652Z" fill="#EBEBEB"/>
<path d="M116.628 186.839H68.1016V186.969H116.628V186.839Z" fill="#EBEBEB"/>
<path d="M122.766 157.133H22.7456C21.962 157.132 21.211 156.82 20.6575 156.265C20.1039 155.71 19.793 154.958 19.793 154.174V13.4807C19.7998 12.7011 20.1137 11.9557 20.6665 11.4064C21.2194 10.8571 21.9665 10.5482 22.7456 10.5469H122.766C123.551 10.5469 124.303 10.8587 124.858 11.4138C125.412 11.9688 125.724 12.7216 125.724 13.5066V154.174C125.724 154.959 125.412 155.711 124.858 156.266C124.303 156.822 123.551 157.133 122.766 157.133ZM22.7456 10.6505C21.9964 10.6519 21.2783 10.9507 20.749 11.4813C20.2197 12.0119 19.9225 12.731 19.9225 13.4807V154.174C19.9225 154.923 20.2197 155.642 20.749 156.173C21.2783 156.704 21.9964 157.002 22.7456 157.004H122.766C123.516 157.002 124.234 156.704 124.765 156.173C125.295 155.643 125.593 154.924 125.594 154.174V13.4807C125.593 12.7305 125.295 12.0114 124.765 11.481C124.234 10.9505 123.516 10.6519 122.766 10.6505H22.7456Z" fill="#EBEBEB"/>
<path d="M234.815 157.133H134.789C134.005 157.132 133.253 156.82 132.699 156.265C132.144 155.71 131.832 154.958 131.831 154.174V13.4807C131.839 12.7006 132.154 11.9552 132.708 11.4061C133.262 10.8569 134.009 10.5482 134.789 10.5469H234.815C235.593 10.5496 236.339 10.859 236.89 11.4082C237.442 11.9574 237.755 12.702 237.762 13.4807V154.174C237.762 154.957 237.452 155.708 236.899 156.263C236.347 156.818 235.597 157.131 234.815 157.133ZM134.789 10.6505C134.039 10.6519 133.321 10.9505 132.79 11.481C132.26 12.0114 131.962 12.7305 131.961 13.4807V154.174C131.962 154.924 132.26 155.643 132.79 156.173C133.321 156.704 134.039 157.002 134.789 157.004H234.815C235.564 157.002 236.283 156.704 236.813 156.173C237.343 155.643 237.642 154.924 237.643 154.174V13.4807C237.642 12.7305 237.343 12.0114 236.813 11.481C236.283 10.9505 235.564 10.6519 234.815 10.6505H134.789Z" fill="#EBEBEB"/>
<path d="M111.038 33.1724H36.897V109.835H111.038V33.1724Z" fill="#EBEBEB"/>
<path d="M113.629 33.1724H39.4873V109.835H113.629V33.1724Z" fill="#F0F0F0"/>
<path d="M111.665 34.9868H41.3569V108.047H111.665V34.9868Z" fill="#E0E0E0"/>
<path d="M109.909 34.9868H41.3569V108.047H109.909V34.9868Z" fill="#F5F5F5"/>
<path d="M76.3426 34.9868H74.9492V108.047H76.3426V34.9868Z" fill="#EBEBEB"/>
<path d="M66.9361 34.9868L47.3971 108.047H45.522L65.0609 34.9868H66.9361Z" fill="white"/>
<path d="M76.9385 33.8618H75.7471V109.451H76.9385V33.8618Z" fill="#F0F0F0"/>
<path d="M59.8444 34.9868L41.3569 104.128V66.1235L49.6812 34.9868H59.8444Z" fill="white"/>
<path d="M109.909 41.6162V48.6293L94.0168 108.047H92.1416L109.909 41.6162Z" fill="white"/>
<path d="M109.909 55.7773V93.782L106.097 108.047H95.9336L109.909 55.7773Z" fill="white"/>
<path d="M230.971 116.667H174.789C173.576 116.667 172.412 117.149 171.555 118.007C170.697 118.865 170.215 120.03 170.215 121.243L163.999 160.876H229.329L235.545 121.243C235.545 120.03 235.063 118.865 234.206 118.007C233.348 117.149 232.184 116.667 230.971 116.667Z" fill="#EBEBEB"/>
<path d="M164.16 131.994L164.232 131.787H142.476V179.992H169.412V137.566C169.432 136.136 168.895 134.755 167.915 133.715C166.934 132.674 165.587 132.057 164.16 131.994Z" fill="#E0E0E0"/>
<path d="M142.248 131.979C140.767 131.979 139.347 132.567 138.3 133.615C137.252 134.663 136.664 136.084 136.664 137.566V179.992H147.827V137.566C147.827 136.085 147.239 134.665 146.193 133.617C145.147 132.569 143.728 131.98 142.248 131.979Z" fill="#F0F0F0"/>
<path d="M226.837 131.994L226.91 131.787H205.154V179.992H232.09V137.566C232.11 136.136 231.573 134.755 230.592 133.715C229.612 132.674 228.265 132.057 226.837 131.994Z" fill="#E0E0E0"/>
<path d="M199.342 146.041H151.474V179.992H199.342V146.041Z" fill="#E0E0E0"/>
<path d="M154.592 142.563H208.464V154.334H154.592C153.818 154.334 153.051 154.181 152.335 153.884C151.62 153.587 150.97 153.151 150.424 152.602C149.877 152.054 149.444 151.402 149.15 150.685C148.855 149.968 148.705 149.2 148.708 148.425C148.714 146.868 149.337 145.377 150.44 144.278C151.543 143.18 153.036 142.563 154.592 142.563Z" fill="#F5F5F5"/>
<path d="M204.926 131.979C203.445 131.979 202.025 132.567 200.977 133.615C199.93 134.663 199.342 136.084 199.342 137.566V179.992H210.505V137.566C210.505 136.085 209.917 134.665 208.871 133.617C207.825 132.569 206.406 131.98 204.926 131.979Z" fill="#F0F0F0"/>
<path d="M220.176 161.461H229.329L235.545 121.243C235.545 120.642 235.426 120.046 235.196 119.491C234.966 118.935 234.629 118.43 234.203 118.005C233.778 117.58 233.273 117.243 232.718 117.013C232.162 116.784 231.567 116.666 230.966 116.667C229.753 116.667 228.589 117.149 227.731 118.007C226.874 118.865 226.392 120.03 226.392 121.243L220.176 161.461Z" fill="#E0E0E0"/>
<path d="M39.2745 161.016C39.2745 160.808 38.5804 140.448 35.2704 137.229C32.0536 134.119 28.3551 137.11 28.1997 137.229L27.8682 136.835C27.9096 136.799 32.0795 133.393 35.6382 136.835C39.0932 140.199 39.7822 160.129 39.7822 160.979L39.2745 161.016Z" fill="#E0E0E0"/>
<path d="M39.5599 165.012C39.5599 164.769 37.3014 140.567 46.1333 130.423L46.5218 130.765C37.8349 140.738 40.052 164.717 40.0779 164.976L39.5599 165.012Z" fill="#E0E0E0"/>
<path d="M39.2334 162.456L38.7154 162.42C38.7154 162.145 40.4455 134.912 33.9653 128.946L34.3176 128.567C40.9791 134.694 39.3111 161.326 39.2334 162.456Z" fill="#E0E0E0"/>
<path d="M40.0776 162.42H39.5596C39.5596 161.669 39.7719 144.024 44.781 141.168C45.2565 140.859 45.7993 140.669 46.3638 140.614C46.9282 140.559 47.4975 140.641 48.0237 140.852C51.054 142.101 52.5562 147.497 52.6184 147.725L52.1004 147.865C52.1004 147.808 50.6033 142.485 47.8113 141.329C47.3576 141.151 46.8681 141.084 46.3834 141.134C45.8987 141.183 45.4328 141.348 45.0245 141.614C40.2848 144.341 40.0776 162.26 40.0776 162.42Z" fill="#E0E0E0"/>
<path d="M38.1249 162.452L37.6069 162.426C37.6069 162.286 38.358 148.477 34.6387 143.615C33.7322 142.433 32.7532 141.873 31.7224 141.946C29.2826 142.117 27.2365 145.688 27.2158 145.725L26.7651 145.471C26.8532 145.315 28.9666 141.619 31.681 141.428C32.8983 141.345 34.0327 141.972 35.048 143.299C38.8915 148.316 38.1611 161.902 38.1249 162.452Z" fill="#E0E0E0"/>
<path d="M38.9431 164.333C38.8395 162.99 36.5085 131.465 40.611 125.914L41.0306 126.219C37.0368 131.62 39.4352 163.965 39.4766 164.291L38.9431 164.333Z" fill="#E0E0E0"/>
<path d="M49.1425 144.045C49.1425 144.045 46.6768 144.952 47.4072 147.098C48.1376 149.244 55.9439 152.774 55.9439 152.774C55.9439 152.774 59.2021 149.783 56.208 144.916C53.214 140.049 49.2099 142.511 49.1425 144.045Z" fill="#EBEBEB"/>
<path d="M38.4355 139.961C38.4355 139.961 41.0565 139.852 41.2068 142.112C41.357 144.372 35.5088 150.633 35.5088 150.633C35.5088 150.633 31.3648 149.125 32.2454 143.485C33.126 137.846 37.7828 138.577 38.4355 139.961Z" fill="#EBEBEB"/>
<path d="M36.2132 129.138C36.2132 129.138 37.964 128.951 37.8242 127.883C37.6843 126.816 31.028 124.063 27.1016 128.511C27.1016 128.511 29.6139 132.834 33.2502 132.891C36.8866 132.948 36.2132 129.138 36.2132 129.138Z" fill="#EBEBEB"/>
<path d="M39.4714 126.551C39.4714 126.551 37.9174 127.319 37.446 126.339C36.9747 125.359 41.2015 119.512 46.8788 121.197C46.8788 121.197 47.029 126.194 43.9728 128.163C40.9166 130.133 39.4714 126.551 39.4714 126.551Z" fill="#EBEBEB"/>
<path d="M31.1938 143.185C31.1938 143.185 32.4007 142.21 31.1006 141.733C29.8004 141.257 23.4083 141.391 23.3306 147.725C23.3306 147.725 30.7742 148.964 31.6963 146.549C32.6183 144.133 31.1938 143.185 31.1938 143.185Z" fill="#EBEBEB"/>
<path d="M46.3712 128.982C46.3712 128.982 45.1642 128.002 46.4644 127.531C47.7646 127.059 54.1567 127.189 54.2344 133.523C54.2344 133.523 46.7908 134.756 45.8687 132.346C44.9467 129.936 46.3712 128.982 46.3712 128.982Z" fill="#EBEBEB"/>
<path d="M42.4345 134.083C42.4345 134.083 42.3309 132.896 43.284 133.362C44.2371 133.829 47.5731 137.421 44.118 140.831C44.118 140.831 39.456 137.39 40.3107 135.596C41.1654 133.803 42.4345 134.083 42.4345 134.083Z" fill="#EBEBEB"/>
<path d="M30.1165 135.767C30.1165 135.767 30.8417 134.824 29.785 134.705C28.7283 134.586 23.9938 135.855 25.123 140.583C25.123 140.583 30.8883 140.147 31.137 138.183C31.3856 136.218 30.1165 135.767 30.1165 135.767Z" fill="#EBEBEB"/>
<path d="M49.5987 179.992H29.8163L27.6821 158.315H51.7381L49.5987 179.992Z" fill="#F0F0F0"/>
<path d="M52.7944 155.926H26.625V160.71H52.7944V155.926Z" fill="#E6E6E6"/>
<path d="M197.394 123.027H196.876C197.301 85.1151 186.703 60.0534 186.594 59.7891L187.07 59.5869C187.179 59.8202 197.819 84.9752 197.394 123.027Z" fill="#EBEBEB"/>
<path d="M202.175 123.026C198.912 87.458 202.02 51.8273 202.02 51.4956L202.538 51.5371C202.507 51.8947 199.43 87.4787 202.683 122.995L202.175 123.026Z" fill="#EBEBEB"/>
<path d="M208.754 129.838C206.568 94.5181 215.669 57.7885 215.762 57.436L216.28 57.5656C216.192 57.9285 207.112 94.5699 209.293 129.807L208.754 129.838Z" fill="#EBEBEB"/>
<path d="M237.436 22.6863C237.436 22.6863 211.018 33.3175 198.068 12.4336C198.068 12.4336 177.021 32.7732 156.203 12.4336C156.203 12.4336 135.975 20.4679 119.694 12.4336L122.445 16.1553C122.445 16.1553 138.114 23.8111 155.877 15.6369C155.877 15.6369 175.928 35.5982 197.187 16.1553C197.187 16.1553 214.064 37.0133 237.431 26.3147L237.436 22.6863Z" fill="#F5F5F5"/>
<path d="M129.5 203.66C184.969 203.66 229.935 201.032 229.935 197.792C229.935 194.551 184.969 191.924 129.5 191.924C74.0312 191.924 29.0649 194.551 29.0649 197.792C29.0649 201.032 74.0312 203.66 129.5 203.66Z" fill="#F5F5F5"/>
<path d="M101.522 78.6821L110.054 83.1295L101.522 80.9214V78.6821Z" fill="#407BFF"/>
<path opacity="0.6" d="M101.522 78.6821L110.054 83.1295L101.522 80.9214V78.6821Z" fill="white"/>
<path d="M99.1398 62.7432H34.8146C33.2154 62.7432 31.9189 64.0404 31.9189 65.6407V85.1665C31.9189 86.7668 33.2154 88.0641 34.8146 88.0641H99.1398C100.739 88.0641 102.035 86.7668 102.035 85.1665V65.6407C102.035 64.0404 100.739 62.7432 99.1398 62.7432Z" fill="#407BFF"/>
<path opacity="0.6" d="M99.1398 62.7432H34.8146C33.2154 62.7432 31.9189 64.0404 31.9189 65.6407V85.1665C31.9189 86.7668 33.2154 88.0641 34.8146 88.0641H99.1398C100.739 88.0641 102.035 86.7668 102.035 85.1665V65.6407C102.035 64.0404 100.739 62.7432 99.1398 62.7432Z" fill="white"/>
<path d="M95.1356 72.8973H60.3674C60.1975 72.8959 60.0349 72.8278 59.9147 72.7075C59.7946 72.5873 59.7265 72.4246 59.7251 72.2546C59.7265 72.0845 59.7946 71.9218 59.9147 71.8016C60.0349 71.6813 60.1975 71.6132 60.3674 71.6118H95.1356C95.305 71.6132 95.4671 71.6815 95.5864 71.8019C95.7058 71.9223 95.7727 72.085 95.7727 72.2546C95.7727 72.4241 95.7058 72.5868 95.5864 72.7072C95.4671 72.8276 95.305 72.8959 95.1356 72.8973Z" fill="#407BFF"/>
<path d="M76.9382 66.75H60.6368C60.395 66.75 60.1631 66.8461 59.9921 67.0172C59.8211 67.1883 59.7251 67.4203 59.7251 67.6623C59.7251 67.9042 59.8211 68.1363 59.9921 68.3074C60.1631 68.4784 60.395 68.5746 60.6368 68.5746H76.9382C77.18 68.5746 77.4119 68.4784 77.5829 68.3074C77.7539 68.1363 77.8499 67.9042 77.8499 67.6623C77.8499 67.4203 77.7539 67.1883 77.5829 67.0172C77.4119 66.8461 77.18 66.75 76.9382 66.75Z" fill="#407BFF"/>
<path d="M74.9336 75.5254H60.3674C60.198 75.5254 60.0354 75.4584 59.915 75.339C59.7947 75.2196 59.7265 75.0574 59.7251 74.8879C59.7251 74.7174 59.7928 74.5539 59.9132 74.4334C60.0337 74.3128 60.1971 74.2451 60.3674 74.2451H74.9336C75.0177 74.2451 75.101 74.2618 75.1786 74.2941C75.2562 74.3265 75.3267 74.3739 75.3859 74.4337C75.4452 74.4934 75.492 74.5643 75.5237 74.6423C75.5554 74.7202 75.5714 74.8037 75.5707 74.8879C75.5707 75.057 75.5036 75.2191 75.3841 75.3387C75.2646 75.4582 75.1026 75.5254 74.9336 75.5254Z" fill="#407BFF"/>
<path d="M53.3848 68.2222V82.5957C53.3848 82.9861 53.2298 83.3606 52.9539 83.6366C52.678 83.9127 52.3039 84.0678 51.9137 84.0678H37.5703C37.4407 84.0694 37.3115 84.052 37.187 84.016H37.1455C37.0409 83.9818 36.9402 83.9366 36.8451 83.8812C36.6172 83.7533 36.4278 83.5665 36.2966 83.3404C36.1654 83.1143 36.0972 82.8572 36.0992 82.5957V68.2377C36.0992 67.8473 36.2542 67.4729 36.53 67.1968C36.8059 66.9207 37.1801 66.7656 37.5703 66.7656H51.9137C52.3012 66.7656 52.673 66.9186 52.9485 67.1913C53.2239 67.464 53.3807 67.8344 53.3848 68.2222Z" fill="white"/>
<path d="M52.4472 75.9503C52.0639 78.3917 50.5202 79.1588 50.5979 79.9052C50.6342 80.2732 50.9864 80.916 51.1988 81.7713C51.1988 81.849 51.2403 81.9319 51.2558 82.0097C51.3178 82.3135 51.3525 82.6223 51.3594 82.9323C51.3727 83.3087 51.3361 83.6852 51.2506 84.0519H37.5702C37.4406 84.0536 37.3115 84.0361 37.1869 84.0001H37.1455C37.0408 83.966 36.9401 83.9208 36.845 83.8653C36.6195 83.7387 36.4316 83.5544 36.3005 83.3313C36.1695 83.1082 36.1 82.8542 36.0991 82.5954V80.0037C36.5317 79.5508 37.0013 79.1347 37.5029 78.7597C39.6215 77.1477 38.3369 76.2043 38.0831 75.1313C37.8292 74.0584 36.5291 71.8347 37.5651 69.8287C38.6011 67.8227 39.808 67.7553 39.808 67.7553C39.8149 67.3848 39.9302 67.0244 40.1395 66.7187C41.7971 64.2566 49.1942 64.7645 50.4995 66.7187C50.5445 66.7855 50.5827 66.8567 50.6135 66.9312C51.5821 69.3052 50.3441 70.7203 50.6135 71.8347C50.8828 72.9491 52.8357 73.5089 52.4472 75.9503Z" fill="#2E353A"/>
<path d="M37.1871 84.0002H37.1457C37.041 83.966 36.9403 83.9208 36.8452 83.8654C36.9695 83.6477 37.0317 83.5596 37.0317 83.5596L37.1871 84.0002Z" fill="#407BFF"/>
<path d="M53.385 81.9943V82.5956C53.385 82.986 53.23 83.3604 52.9541 83.6365C52.6782 83.9126 52.304 84.0677 51.9139 84.0677H37.5705C37.4408 84.0693 37.3117 84.0518 37.1871 84.0158L37.0317 83.5649L37.6792 83.3627C38.5702 83.0932 39.4663 82.8599 40.3677 82.663C41.01 82.523 41.6575 82.3986 42.305 82.2898L43.0095 82.1705L43.4031 82.1083C44.6567 81.9217 45.9206 81.7921 47.1845 81.7248L48.003 81.6885H48.6608C49.5414 81.6885 50.4376 81.7351 51.199 81.7818H51.3648C52.4992 81.8543 53.3125 81.9321 53.3125 81.9321C53.3125 81.9321 53.3539 81.9373 53.385 81.9943Z" fill="#407BFF"/>
<path d="M53.385 81.9943V82.5956C53.385 82.986 53.23 83.3604 52.9541 83.6365C52.6782 83.9126 52.304 84.0677 51.9139 84.0677H37.5705C37.4408 84.0693 37.3117 84.0518 37.1871 84.0158L37.0317 83.5649L37.6792 83.3627C38.5702 83.0932 39.4663 82.8599 40.3677 82.663C41.01 82.523 41.6575 82.3986 42.305 82.2898L43.0095 82.1705L43.4031 82.1083C44.6567 81.9217 45.9206 81.7921 47.1845 81.7248L48.003 81.6885H48.6608C49.5414 81.6885 50.4376 81.7351 51.199 81.7818H51.3648C52.4992 81.8543 53.3125 81.9321 53.3125 81.9321C53.3125 81.9321 53.3539 81.9373 53.385 81.9943Z" fill="#2E353A"/>
<path d="M47.4432 84.0522H45.0345C43.4183 83.5027 42.8848 82.7408 42.8848 82.7408C43.0866 82.5499 43.261 82.3318 43.4028 82.0929V82.0669C44.0813 80.8955 43.8431 79.4752 43.5582 78.5422C43.4646 78.2352 43.3486 77.9355 43.2111 77.6455C43.2111 77.6455 43.2111 77.6455 43.2111 77.6455L46.977 78.3504C46.977 78.506 46.9303 78.6511 46.9148 78.7962C46.8993 78.9414 46.8734 79.1746 46.8578 79.3457V79.5893C46.8578 79.7085 46.8578 79.8277 46.8578 79.9366C46.8174 80.5333 46.9222 81.1309 47.1634 81.6782L47.1997 81.7404C47.2574 81.8758 47.3485 81.9944 47.4645 82.0851C47.5804 82.1757 47.7174 82.2355 47.8627 82.2587C47.9929 82.5634 48.0224 82.9017 47.9469 83.2243C47.8714 83.5469 47.6949 83.837 47.4432 84.0522Z" fill="#B97964"/>
<path opacity="0.2" d="M46.9873 78.3246C46.9008 78.8491 46.8523 79.3792 46.8423 79.9107C46.0876 79.8915 45.3521 79.6685 44.7138 79.2652C44.0755 78.8618 43.558 78.2932 43.2163 77.6196L46.9873 78.3246Z" fill="black"/>
<path d="M44.9051 67.7812C48.1789 67.5998 49.3288 69.2999 49.7536 72.664C50.2716 76.8677 49.5153 79.9207 45.3713 79.2365C39.7406 78.3191 39.4661 68.0818 44.9051 67.7812Z" fill="#B97964"/>
<path d="M47.6558 72.5967C47.9467 73.0726 48.2947 73.5112 48.6918 73.9029C48.6028 74.0431 48.4769 74.156 48.3279 74.2292C48.1789 74.3023 48.0127 74.3329 47.8474 74.3176L47.6558 72.5967Z" fill="#A24E3F"/>
<path d="M45.6095 72.4359C45.6095 72.7055 45.5007 72.9543 45.3194 72.9543C45.1381 72.9543 44.9827 72.7625 44.9568 72.4929C44.9309 72.2234 45.0656 71.9746 45.2469 71.9746C45.4282 71.9746 45.5836 72.1664 45.6095 72.4359Z" fill="#2E353A"/>
<path d="M45.1748 71.9955L45.7394 71.7104C45.7394 71.7104 45.4856 72.2288 45.1748 71.9955Z" fill="#2E353A"/>
<path d="M48.9454 72.12C48.9454 72.3895 48.8366 72.6384 48.6553 72.6384C48.474 72.6384 48.3134 72.4466 48.2927 72.177C48.272 71.9075 48.4015 71.6587 48.5828 71.6587C48.7641 71.6587 48.9247 71.8505 48.9454 72.12Z" fill="#2E353A"/>
<path d="M48.5054 71.6741L49.0752 71.3994C49.0752 71.3994 48.8214 71.9178 48.5054 71.6741Z" fill="#2E353A"/>
<path d="M44.0556 70.9383C44.0169 70.9357 43.9794 70.9232 43.9468 70.902C43.9069 70.872 43.8802 70.8276 43.8724 70.7782C43.8647 70.7289 43.8765 70.6784 43.9054 70.6376C44.0966 70.4165 44.3364 70.2429 44.6061 70.1305C44.8758 70.0181 45.1679 69.9699 45.4594 69.9897C45.4837 69.991 45.5075 69.9972 45.5293 70.0079C45.5512 70.0186 45.5707 70.0335 45.5866 70.0519C45.6026 70.0703 45.6147 70.0917 45.6222 70.1149C45.6297 70.138 45.6325 70.1624 45.6303 70.1867C45.629 70.2112 45.6229 70.2352 45.6122 70.2573C45.6016 70.2795 45.5868 70.2993 45.5685 70.3157C45.5502 70.3321 45.5288 70.3447 45.5057 70.3528C45.4825 70.3609 45.458 70.3643 45.4335 70.3629C45.2033 70.3528 44.9737 70.3941 44.7613 70.4837C44.549 70.5734 44.3593 70.7092 44.2058 70.8813C44.1866 70.9014 44.1632 70.9169 44.1372 70.9268C44.1112 70.9367 44.0833 70.9406 44.0556 70.9383Z" fill="#2E353A"/>
<path d="M49.1422 70.2903C49.1118 70.2995 49.0794 70.2995 49.049 70.2903C48.8829 70.1764 48.6937 70.1006 48.4949 70.0683C48.2961 70.0361 48.0926 70.0482 47.899 70.1037C47.8766 70.1136 47.8524 70.1189 47.8279 70.1195C47.8034 70.12 47.779 70.1157 47.7562 70.1068C47.7333 70.0979 47.7124 70.0845 47.6947 70.0676C47.677 70.0506 47.6628 70.0303 47.653 70.0078C47.6431 69.9854 47.6378 69.9612 47.6372 69.9366C47.6367 69.9121 47.641 69.8877 47.6499 69.8649C47.6588 69.842 47.6721 69.8211 47.6891 69.8034C47.7061 69.7857 47.7264 69.7715 47.7488 69.7616C47.9968 69.6803 48.2602 69.6566 48.5187 69.6926C48.7772 69.7285 49.0242 69.823 49.2406 69.9689C49.2761 69.9899 49.3037 70.022 49.319 70.0603C49.3343 70.0986 49.3366 70.1409 49.3253 70.1806C49.3141 70.2203 49.29 70.2551 49.2569 70.2796C49.2238 70.3042 49.1834 70.317 49.1422 70.3162V70.2903Z" fill="#2E353A"/>
<path d="M47.4072 75.6342C47.2707 76.0125 47.1633 76.4006 47.086 76.7953H46.8736C45.9153 76.7538 45.4854 76.4169 45.3196 76.0541C45.2299 75.8779 45.1871 75.6815 45.1953 75.4839C45.1913 75.3701 45.2053 75.2564 45.2368 75.147C45.814 75.4409 46.449 75.6037 47.0964 75.6238C47.2777 75.6342 47.4072 75.6342 47.4072 75.6342Z" fill="#2E353A"/>
<path d="M47.0756 75.6136L46.9772 75.9557C46.0707 75.909 45.4232 75.7587 45.1745 75.4736C45.1705 75.3598 45.1844 75.2461 45.216 75.1367C45.7932 75.4306 46.4282 75.5934 47.0756 75.6136Z" fill="white"/>
<path d="M46.8738 76.7852C45.9155 76.7437 45.4856 76.4068 45.3198 76.0439C45.6776 76.069 46.0283 76.1568 46.3558 76.3031C46.5742 76.4062 46.7552 76.5747 46.8738 76.7852Z" fill="#DE5753"/>
<path d="M41.6264 73.4988C41.6264 73.4988 43.0095 70.7257 42.6624 68.6575C42.6624 68.6575 49.0079 65.6511 49.6865 72.2237C49.6865 72.2237 50.0025 66.3353 44.3615 66.5219C38.7205 66.7085 39.1815 74.9449 42.2429 77.2412C42.248 77.2308 40.7717 75.2352 41.6264 73.4988Z" fill="#2E353A"/>
<path d="M42.2012 74.1622C42.1485 73.7844 41.9483 73.4429 41.6443 73.2126C41.3404 72.9823 40.9576 72.882 40.5799 72.9337C39.575 73.0996 39.202 75.2092 41.7558 75.5721C42.1235 75.6291 42.3048 75.261 42.2012 74.1622Z" fill="#B97964"/>
<path d="M51.7012 82.1238C51.616 82.3799 51.5121 82.6294 51.3904 82.8703L51.3593 82.9273C51.1661 83.3206 50.9372 83.6954 50.6755 84.0469H41.3515C41.1754 83.9329 41.0096 83.8292 40.8646 83.7255C40.3052 83.3523 39.9736 83.0828 39.9736 83.0828L40.4916 82.891C41.309 82.5922 42.1447 82.3464 42.9936 82.1549C43.1334 82.1187 43.2733 82.0927 43.408 82.0668C44.6336 81.8107 45.8805 81.6701 47.1324 81.647C47.6504 81.647 48.1684 81.647 48.645 81.6781C49.5155 81.7218 50.3814 81.8327 51.235 82.0098C51.2728 82.014 51.311 82.014 51.3489 82.0098C51.5872 82.0772 51.7012 82.1238 51.7012 82.1238Z" fill="#B97964"/>
<path d="M41.0152 84.0519H37.5705C37.4408 84.0536 37.3117 84.0361 37.1871 84.0001H37.1457C37.1094 83.8498 37.0732 83.7046 37.0317 83.5595L37.6792 83.3574L40.3003 82.5332C40.3003 82.5332 40.3003 82.5747 40.3677 82.6576L40.492 82.9064C40.5904 83.1086 40.7251 83.3885 40.8805 83.7409L41.0152 84.0519Z" fill="#407BFF"/>
<path d="M53.3849 81.8753V82.5958C53.3849 82.9862 53.2299 83.3606 52.954 83.6367C52.6782 83.9127 52.304 84.0678 51.9138 84.0678H51.4321C51.4321 83.6324 51.401 83.2333 51.3906 82.8912C51.3906 82.5491 51.3906 82.264 51.3906 82.0567C51.3906 81.9478 51.3906 81.8649 51.3906 81.8027V81.6938L53.3849 81.8753Z" fill="#407BFF"/>
<path d="M49.9041 72.2755H49.8574C49.3394 72.0785 49.1737 71.5654 48.9717 70.9641C48.7075 70.1659 48.4019 69.2588 47.2053 68.7871C45.1333 67.9733 42.7298 68.7871 42.709 68.7871C42.6761 68.7971 42.6405 68.7941 42.6096 68.7787C42.5788 68.7632 42.555 68.7366 42.5433 68.7041C42.5376 68.6878 42.5353 68.6705 42.5364 68.6533C42.5375 68.636 42.5421 68.6192 42.5498 68.6037C42.5575 68.5883 42.5683 68.5745 42.5814 68.5633C42.5945 68.552 42.6097 68.5435 42.6262 68.5383C42.7246 68.5072 45.1333 67.6934 47.2882 68.5383C48.5987 69.0566 48.9354 70.0622 49.2099 70.8708C49.3964 71.4306 49.5415 71.8712 49.9403 72.0215C49.9565 72.0278 49.9712 72.0372 49.9836 72.0493C49.996 72.0613 50.0059 72.0758 50.0127 72.0917C50.0194 72.1077 50.0229 72.1248 50.023 72.1421C50.023 72.1595 50.0196 72.1766 50.0128 72.1926C50.0042 72.2152 49.9895 72.2349 49.9703 72.2496C49.9511 72.2642 49.9281 72.2732 49.9041 72.2755Z" fill="#2E353A"/>
<path d="M138.021 44.0361L134.033 57.1605L140.819 44.0361H138.021Z" fill="#407BFF"/>
<path opacity="0.6" d="M138.021 44.0361L134.033 57.1605L140.819 44.0361H138.021Z" fill="white"/>
<path d="M186.573 19.249H122.248C120.649 19.249 119.353 20.5463 119.353 22.1465V41.6724C119.353 43.2727 120.649 44.5699 122.248 44.5699H186.573C188.173 44.5699 189.469 43.2727 189.469 41.6724V22.1465C189.469 20.5463 188.173 19.249 186.573 19.249Z" fill="#407BFF"/>
<path opacity="0.6" d="M186.573 19.249H122.248C120.649 19.249 119.353 20.5463 119.353 22.1465V41.6724C119.353 43.2727 120.649 44.5699 122.248 44.5699H186.573C188.173 44.5699 189.469 43.2727 189.469 41.6724V22.1465C189.469 20.5463 188.173 19.249 186.573 19.249Z" fill="white"/>
<path d="M182.03 29.4034H147.267C147.183 29.404 147.1 29.3881 147.022 29.3563C146.944 29.3246 146.873 29.2777 146.813 29.2185C146.754 29.1592 146.706 29.0887 146.674 29.011C146.642 28.9333 146.625 28.85 146.625 28.7658C146.624 28.6812 146.64 28.5973 146.673 28.519C146.705 28.4407 146.752 28.3696 146.812 28.3098C146.871 28.25 146.942 28.2026 147.021 28.1706C147.099 28.1385 147.183 28.1224 147.267 28.1231H182.03C182.115 28.1224 182.199 28.1385 182.277 28.1706C182.355 28.2026 182.426 28.25 182.486 28.3098C182.546 28.3696 182.593 28.4407 182.625 28.519C182.657 28.5973 182.673 28.6812 182.673 28.7658C182.673 28.85 182.656 28.9333 182.624 29.011C182.591 29.0887 182.544 29.1592 182.484 29.2185C182.424 29.2777 182.354 29.3246 182.276 29.3563C182.198 29.3881 182.114 29.404 182.03 29.4034Z" fill="#407BFF"/>
<path d="M163.833 23.2609H147.537C147.412 23.2514 147.286 23.2679 147.168 23.3094C147.049 23.3508 146.94 23.4162 146.848 23.5016C146.756 23.587 146.683 23.6905 146.633 23.8056C146.583 23.9207 146.557 24.045 146.557 24.1706C146.557 24.2962 146.583 24.4204 146.633 24.5355C146.683 24.6506 146.756 24.7541 146.848 24.8395C146.94 24.9249 147.049 24.9904 147.168 25.0318C147.286 25.0732 147.412 25.0897 147.537 25.0803H163.833C163.958 25.0897 164.084 25.0732 164.203 25.0318C164.321 24.9904 164.43 24.9249 164.522 24.8395C164.614 24.7541 164.687 24.6506 164.737 24.5355C164.788 24.4204 164.814 24.2962 164.814 24.1706C164.814 24.045 164.788 23.9207 164.737 23.8056C164.687 23.6905 164.614 23.587 164.522 23.5016C164.43 23.4162 164.321 23.3508 164.203 23.3094C164.084 23.2679 163.958 23.2514 163.833 23.2609Z" fill="#407BFF"/>
<path d="M161.828 32.0363H147.267C147.097 32.0363 146.934 31.9686 146.813 31.8481C146.693 31.7276 146.625 31.5641 146.625 31.3936C146.628 31.2249 146.697 31.0641 146.817 30.9458C146.937 30.8275 147.099 30.7612 147.267 30.7612H161.828C161.999 30.7612 162.162 30.8289 162.282 30.9495C162.403 31.07 162.471 31.2335 162.471 31.404C162.468 31.5726 162.399 31.7335 162.279 31.8518C162.159 31.9701 161.997 32.0364 161.828 32.0363Z" fill="#407BFF"/>
<path d="M140.819 24.8002V39.1582C140.818 39.3985 140.76 39.6351 140.648 39.8476C140.619 39.9017 140.586 39.9537 140.549 40.0031C140.411 40.1936 140.23 40.3482 140.02 40.4537C139.81 40.5593 139.577 40.6127 139.342 40.6096H125.004C124.874 40.6112 124.745 40.5938 124.621 40.5577H124.579C124.475 40.5236 124.374 40.4784 124.279 40.423C124.213 40.3876 124.15 40.3459 124.092 40.2986C123.919 40.1615 123.778 39.9867 123.682 39.7873C123.586 39.5879 123.537 39.3692 123.538 39.1479V24.8002C123.538 24.6069 123.576 24.4155 123.65 24.2369C123.724 24.0583 123.832 23.896 123.969 23.7593C124.106 23.6226 124.268 23.5142 124.446 23.4402C124.625 23.3662 124.816 23.3281 125.009 23.3281H139.342C139.536 23.3275 139.728 23.365 139.907 23.4387C140.086 23.5124 140.249 23.6207 140.386 23.7575C140.523 23.8942 140.632 24.0567 140.706 24.2357C140.78 24.4146 140.819 24.6065 140.819 24.8002Z" fill="white"/>
<path d="M140.549 39.9359C140.414 40.1295 140.234 40.2876 140.025 40.3968C139.816 40.506 139.583 40.563 139.347 40.5631H133.375C132.469 40.6508 131.556 40.6508 130.65 40.5631H125.004C124.874 40.5647 124.745 40.5472 124.621 40.5112H124.579C124.475 40.4771 124.374 40.4319 124.279 40.3765C124.213 40.3411 124.15 40.2994 124.092 40.2521C124.797 40.1017 125.62 39.9462 126.485 39.8115C126.967 39.7337 127.464 39.6611 127.951 39.6041C130.527 39.2708 133.119 39.0874 135.716 39.0547C136.032 39.0547 136.348 39.091 136.654 39.091C137.467 39.1376 138.239 39.2206 138.907 39.3035H139.031H139.156H139.202C139.691 39.4164 140.15 39.6319 140.549 39.9359Z" fill="#263238"/>
<path d="M136.996 24.4843C136.996 24.4843 138.218 28.2268 136.048 30.4401C133.877 32.6534 132.422 23.9712 132.422 23.9712L136.996 24.4843Z" fill="#263238"/>
<path d="M133.712 40.5272L133.375 40.5634C132.469 40.6512 131.556 40.6512 130.65 40.5634C129.671 40.509 128.73 40.1644 127.946 39.5734C128.905 38.5367 129.024 36.5256 128.817 34.5559C128.819 34.5501 128.82 34.544 128.82 34.5377C128.82 34.5315 128.819 34.5253 128.817 34.5196C128.817 34.4419 128.817 34.3693 128.817 34.2915C128.817 34.2138 128.785 34.0064 128.765 33.8665C128.744 33.7265 128.728 33.5814 128.708 33.4415C128.671 33.1978 128.625 32.9646 128.583 32.7313C128.464 32.099 128.33 31.5081 128.2 30.9949C128.174 30.9068 128.153 30.829 128.133 30.7461L128.231 30.8187L129.485 31.7465L133.199 34.4937C133.199 34.5818 133.168 34.6751 133.157 34.7632C133.116 34.9965 133.09 35.2245 133.069 35.4578C133.032 35.8603 133.044 36.266 133.106 36.6655C133.132 36.8412 133.171 37.0145 133.225 37.1839C133.291 37.3891 133.386 37.5844 133.504 37.7644C133.76 38.1244 134.09 38.4257 134.471 38.6483C134.853 38.8708 135.277 39.0095 135.716 39.0551C136.234 39.8378 133.712 40.5272 133.712 40.5272Z" fill="#E4897B"/>
<path opacity="0.2" d="M133.473 37.759C132.412 37.5804 131.417 37.1271 130.585 36.4442C129.754 35.7613 129.115 34.8726 128.733 33.8663C128.676 33.7212 128.614 33.5657 128.562 33.4102L128.676 33.4413L133.126 34.763C133.085 34.9963 133.059 35.2243 133.038 35.4576C132.975 36.0359 133.028 36.6209 133.193 37.1785C133.26 37.3837 133.354 37.579 133.473 37.759Z" fill="black"/>
<path d="M129.5 35.3696C130.148 36.0495 131.002 36.4975 131.929 36.6445C132.857 36.7915 133.807 36.6295 134.634 36.1834C135.716 35.6284 136.546 34.6811 136.954 33.5347C137.011 33.3767 137.06 33.2158 137.099 33.0526C137.835 29.9944 137.379 24.9406 134.048 23.5826C133.313 23.2796 132.512 23.17 131.722 23.2643C130.932 23.3585 130.179 23.6535 129.535 24.1211C128.892 24.5887 128.378 25.2133 128.044 25.9356C127.709 26.6579 127.565 27.4538 127.625 28.2476C127.817 31.6272 127.77 33.6332 129.5 35.3696Z" fill="#E4897B"/>
<path d="M132.779 29.2063C132.779 29.481 132.924 29.7247 133.106 29.7247C133.287 29.7247 133.437 29.4966 133.437 29.2063C133.437 28.9161 133.287 28.688 133.111 28.688C132.935 28.688 132.784 28.9057 132.779 29.2063Z" fill="#263238"/>
<path d="M135.908 29.2063C135.908 29.481 136.058 29.7247 136.234 29.7247C136.41 29.7247 136.566 29.4966 136.566 29.2063C136.566 28.9161 136.415 28.688 136.239 28.688C136.063 28.688 135.908 28.9264 135.908 29.2063Z" fill="#263238"/>
<path d="M134.913 29.3257C135.243 30.1721 135.688 30.9691 136.234 31.6945C136.044 31.8308 135.826 31.9237 135.596 31.9667C135.366 32.0097 135.129 32.0017 134.903 31.9433L134.913 29.3257Z" fill="#DE5753"/>
<path d="M131.811 28.1699C131.84 28.1737 131.87 28.1694 131.898 28.1575C131.925 28.1457 131.949 28.1267 131.966 28.1025C132.089 27.9441 132.246 27.8154 132.425 27.7257C132.605 27.636 132.802 27.5876 133.002 27.5842C133.023 27.5863 133.045 27.5842 133.065 27.5781C133.085 27.5719 133.104 27.5618 133.12 27.5483C133.137 27.5348 133.15 27.5182 133.16 27.4995C133.17 27.4807 133.176 27.4602 133.178 27.439C133.181 27.3958 133.167 27.3532 133.139 27.3203C133.111 27.2874 133.071 27.2667 133.028 27.2628C132.77 27.26 132.516 27.3193 132.286 27.4357C132.056 27.5521 131.858 27.7221 131.707 27.9314C131.692 27.9464 131.68 27.9641 131.672 27.9837C131.664 28.0033 131.66 28.0243 131.66 28.0455C131.66 28.0667 131.664 28.0877 131.672 28.1072C131.68 28.1268 131.692 28.1446 131.707 28.1595L131.811 28.1699Z" fill="#263238"/>
<path d="M137.27 28.1126C137.3 28.1229 137.333 28.1229 137.363 28.1126C137.383 28.1042 137.4 28.092 137.415 28.0767C137.43 28.0614 137.441 28.0434 137.449 28.0236C137.457 28.0039 137.461 27.9828 137.46 27.9616C137.46 27.9404 137.455 27.9195 137.446 27.9001C137.34 27.6654 137.178 27.4599 136.975 27.3011C136.772 27.1423 136.534 27.0348 136.281 26.9878C136.26 26.9849 136.238 26.9863 136.218 26.9917C136.197 26.9972 136.178 27.0068 136.161 27.0198C136.144 27.0328 136.13 27.0491 136.119 27.0676C136.109 27.0862 136.102 27.1066 136.1 27.1278C136.095 27.1702 136.107 27.2127 136.133 27.2465C136.159 27.2803 136.197 27.3028 136.239 27.3092C136.438 27.3527 136.624 27.4419 136.782 27.5696C136.94 27.6974 137.067 27.8602 137.151 28.0452C137.165 28.0639 137.183 28.0794 137.204 28.091C137.224 28.1026 137.247 28.1099 137.27 28.1126Z" fill="#263238"/>
<path d="M131.64 22.0376C131.236 22.0376 130.832 22.0739 130.428 22.1205C129.255 22.2084 128.135 22.6392 127.206 23.3594C125.134 25.1114 126.123 28.5428 126.802 30.7561C127.708 33.7054 129.122 34.8665 129.122 34.8665C128.164 33.5551 127.905 30.7198 128.356 30.5643C128.806 30.4088 128.874 30.9582 128.874 30.9582C129.801 30.1341 130.428 28.1488 129.884 26.91C129.469 25.9614 130.453 25.044 131.464 25.355L131.769 25.4483L132.246 25.5779L131.64 22.0376Z" fill="#263238"/>
<path d="M126.133 31.0155C126.509 31.7875 127.176 32.3785 127.988 32.6586C129.06 33.0163 129.656 32.0677 129.412 31.0207C129.184 30.0928 128.376 28.7555 127.252 28.8592C127.011 28.8807 126.779 28.9626 126.578 29.0974C126.377 29.2322 126.213 29.4156 126.102 29.6305C125.99 29.8454 125.935 30.0849 125.94 30.327C125.946 30.569 126.012 30.8058 126.133 31.0155Z" fill="#E4897B"/>
<path d="M133.458 24.6762C133.302 25.096 134.059 26.2312 132.774 26.1534C131.489 26.0757 131.489 26.6044 130.759 27.6048C130.028 28.6052 128.029 27.6048 128.029 27.6048L126.133 28.1905C126.133 28.1905 124.501 27.1538 125.273 26.3193C126.045 25.4848 126.071 24.474 126.423 23.2092C126.775 21.9445 128.93 20.0681 131.785 21.3795C131.785 21.3795 133.064 20.6798 133.727 20.9182C134.23 21.1617 134.671 21.5162 135.017 21.9549C135.082 21.8396 135.171 21.7398 135.278 21.6621C135.385 21.5844 135.508 21.5307 135.638 21.5046C135.768 21.4786 135.901 21.4808 136.03 21.5111C136.159 21.5413 136.28 21.599 136.384 21.6801C137.208 22.2866 137.094 24.9768 137.798 25.5159C138.503 26.0549 137.306 27.0709 137.306 27.0709C137.306 27.0709 136.219 26.9983 136.089 26.2312C135.856 24.8679 135.571 24.4118 134.861 24.277C134.731 24.2573 134.598 24.2787 134.48 24.3381C134.362 24.3975 134.265 24.4921 134.204 24.6088C134.204 24.6088 133.701 24.023 133.458 24.6762Z" fill="#263238"/>
<path d="M134.385 32.8762C134.154 33.2707 133.951 33.6813 133.779 34.1047C133.698 34.0906 133.619 34.0716 133.541 34.0477C132.479 33.7937 132.075 33.322 131.945 32.8762C131.891 32.6566 131.891 32.4272 131.945 32.2076C131.968 32.0811 132.01 31.9588 132.069 31.8447C132.653 32.2983 133.328 32.6186 134.048 32.7829C134.159 32.8196 134.271 32.8508 134.385 32.8762Z" fill="#2E353A"/>
<path d="M134.027 32.7829L133.836 33.1406C132.836 32.897 132.168 32.5911 131.924 32.2076C131.947 32.0811 131.989 31.9588 132.049 31.8447C132.632 32.2983 133.307 32.6186 134.027 32.7829Z" fill="white"/>
<path d="M133.541 34.0479C132.479 33.7939 132.075 33.3222 131.945 32.8765C132.346 32.9811 132.725 33.1567 133.064 33.3948C133.289 33.5558 133.456 33.7847 133.541 34.0479Z" fill="#DE5753"/>
<path d="M146.998 39.7651L151.07 35.354L152.939 38.2049L147.381 40.102L147.335 40.6307L146.667 39.6199L146.998 39.7651Z" fill="#407BFF"/>
<path opacity="0.4" d="M150.096 37.1108V38.2045L151.054 37.5825L150.096 37.1108Z" fill="white"/>
<path opacity="0.4" d="M150.35 36.1419L150.805 36.4114L151.07 35.354L150.35 36.1419Z" fill="white"/>
<path opacity="0.4" d="M148.961 38.2046L149.397 38.4016L148.961 38.6141V38.2046Z" fill="white"/>
<path opacity="0.4" d="M150.35 39.0858L150.805 38.2046L152.173 38.4638L150.35 39.0858Z" fill="white"/>
<path opacity="0.4" d="M151.588 36.1416L151.505 37.1109L152.442 37.4478L151.588 36.1416Z" fill="white"/>
<path opacity="0.4" d="M148.06 38.6143L148.511 39.1896L147.449 39.2829L148.06 38.6143Z" fill="white"/>
<path d="M152.173 35.1415L153.105 33.6279L153.442 33.8715L152.173 35.1415Z" fill="#407BFF"/>
<path d="M152.939 36.2868L154.83 34.9961L155.048 35.4781L152.939 36.2868Z" fill="#407BFF"/>
<path d="M153.421 37.1732L155.219 36.8984L155.069 37.339L153.421 37.1732Z" fill="#407BFF"/>
<path d="M157.358 39.7651L161.43 35.354L163.3 38.2049L157.742 40.102L157.695 40.6307L157.027 39.6199L157.358 39.7651Z" fill="#407BFF"/>
<path opacity="0.4" d="M160.456 37.1108V38.2045L161.414 37.5825L160.456 37.1108Z" fill="white"/>
<path opacity="0.4" d="M160.709 36.1419L161.165 36.4114L161.43 35.354L160.709 36.1419Z" fill="white"/>
<path opacity="0.4" d="M159.321 38.2046L159.756 38.4016L159.321 38.6141V38.2046Z" fill="white"/>
<path opacity="0.4" d="M160.709 39.0858L161.165 38.2046L162.533 38.4638L160.709 39.0858Z" fill="white"/>
<path opacity="0.4" d="M161.948 36.1416L161.865 37.1109L162.802 37.4478L161.948 36.1416Z" fill="white"/>
<path opacity="0.4" d="M158.42 38.6143L158.871 39.1896L157.809 39.2829L158.42 38.6143Z" fill="white"/>
<path d="M162.533 35.1415L163.466 33.6279L163.802 33.8715L162.533 35.1415Z" fill="#407BFF"/>
<path d="M163.3 36.2868L165.191 34.9961L165.408 35.4781L163.3 36.2868Z" fill="#407BFF"/>
<path d="M163.781 37.1732L165.579 36.8984L165.428 37.339L163.781 37.1732Z" fill="#407BFF"/>
<path d="M167.718 39.7651L171.79 35.354L173.66 38.2049L168.102 40.102L168.055 40.6307L167.387 39.6199L167.718 39.7651Z" fill="#407BFF"/>
<path opacity="0.4" d="M170.816 37.1108V38.2045L171.774 37.5825L170.816 37.1108Z" fill="white"/>
<path opacity="0.4" d="M171.07 36.1419L171.526 36.4114L171.79 35.354L171.07 36.1419Z" fill="white"/>
<path opacity="0.4" d="M169.682 38.2046L170.117 38.4016L169.682 38.6141V38.2046Z" fill="white"/>
<path opacity="0.4" d="M171.07 39.0858L171.526 38.2046L172.893 38.4638L171.07 39.0858Z" fill="white"/>
<path opacity="0.4" d="M172.307 36.1416L172.225 37.1109L173.162 37.4478L172.307 36.1416Z" fill="white"/>
<path opacity="0.4" d="M168.78 38.6143L169.231 39.1896L168.169 39.2829L168.78 38.6143Z" fill="white"/>
<path d="M172.893 35.1415L173.825 33.6279L174.162 33.8715L172.893 35.1415Z" fill="#407BFF"/>
<path d="M173.66 36.2868L175.55 34.9961L175.768 35.4781L173.66 36.2868Z" fill="#407BFF"/>
<path d="M174.142 37.1732L175.939 36.8984L175.789 37.339L174.142 37.1732Z" fill="#407BFF"/>
<path d="M166.532 91.314H157.083L166.962 93.5584L166.532 91.314Z" fill="#407BFF"/>
<path opacity="0.6" d="M166.532 91.314H157.083L166.962 93.5584L166.532 91.314Z" fill="white"/>
<path d="M233.546 83.9692H169.22C167.621 83.9692 166.325 85.2665 166.325 86.8668V106.393C166.325 107.993 167.621 109.29 169.22 109.29H233.546C235.145 109.29 236.441 107.993 236.441 106.393V86.8668C236.441 85.2665 235.145 83.9692 233.546 83.9692Z" fill="#407BFF"/>
<path opacity="0.6" d="M233.546 83.9692H169.22C167.621 83.9692 166.325 85.2665 166.325 86.8668V106.393C166.325 107.993 167.621 109.29 169.22 109.29H233.546C235.145 109.29 236.441 107.993 236.441 106.393V86.8668C236.441 85.2665 235.145 83.9692 233.546 83.9692Z" fill="white"/>
<path d="M187.79 89.453V103.811C187.79 104.051 187.732 104.288 187.619 104.5C187.59 104.555 187.557 104.607 187.521 104.656C187.406 104.821 187.257 104.961 187.085 105.066C186.913 105.172 186.721 105.24 186.521 105.268C186.473 105.273 186.424 105.273 186.376 105.268H171.872C171.774 105.263 171.677 105.247 171.582 105.221H171.541C171.436 105.187 171.335 105.142 171.24 105.086C171.174 105.051 171.112 105.009 171.054 104.962C170.88 104.825 170.74 104.65 170.644 104.45C170.548 104.251 170.498 104.032 170.5 103.811V89.453C170.499 89.0706 170.648 88.703 170.914 88.4283C171.18 88.1535 171.542 87.9931 171.924 87.981H186.314C186.508 87.9803 186.7 88.0179 186.879 88.0915C187.058 88.1652 187.22 88.2735 187.358 88.4103C187.495 88.5471 187.604 88.7096 187.678 88.8885C187.752 89.0675 187.79 89.2593 187.79 89.453Z" fill="white"/>
<path d="M186.522 105.268C186.474 105.273 186.425 105.273 186.377 105.268H185.641V105.05H185.688C185.978 105.071 186.263 105.138 186.532 105.247L186.522 105.268Z" fill="#407BFF"/>
<path opacity="0.4" d="M186.522 105.268C186.474 105.273 186.425 105.273 186.377 105.268H185.641V105.05H185.688C185.978 105.071 186.263 105.138 186.532 105.247L186.522 105.268Z" fill="white"/>
<path d="M186.371 105.278H180.782H173.577C173.587 105.304 173.599 105.328 173.613 105.351C173.597 105.328 173.583 105.304 173.572 105.278H171.898C172.38 105.201 172.909 105.123 173.452 105.061L173.799 105.019C174.261 104.962 174.732 104.916 175.198 104.879H175.328C176.167 104.812 177.001 104.76 177.84 104.724H178.032C178.43 104.724 178.824 104.693 179.218 104.688C179.803 104.688 180.388 104.688 180.974 104.688C181.083 104.688 181.191 104.688 181.3 104.688C181.73 104.688 182.165 104.688 182.595 104.688L183.077 104.729C183.217 104.729 183.351 104.729 183.491 104.76C183.875 104.802 184.248 104.848 184.605 104.9L185.123 104.978L185.377 105.019L185.615 105.056H185.657C185.877 105.091 186.093 105.154 186.299 105.242L186.371 105.278Z" fill="#407BFF"/>
<path opacity="0.2" d="M180.621 102.671C179.067 102.35 177.296 101.271 176.83 99.9445C176.649 99.487 176.529 99.0078 176.472 98.519L180.704 100.038C180.461 100.895 180.433 101.8 180.621 102.671Z" fill="black"/>
<path d="M175.514 93.481C175.799 96.8087 175.804 98.7732 177.534 100.432C180.124 102.946 184.211 101.308 184.931 97.9542C185.569 94.9375 184.988 89.9977 181.689 88.7537C181.13 88.5382 180.533 88.435 179.934 88.4502C179.335 88.4654 178.745 88.5986 178.198 88.8422C177.65 89.0858 177.156 89.435 176.744 89.8699C176.331 90.3047 176.008 90.8167 175.794 91.3765C175.539 92.0467 175.443 92.7673 175.514 93.481Z" fill="#EEC1BB"/>
<path d="M180.595 94.2846C180.595 94.5541 180.751 94.7718 180.932 94.7666C181.113 94.7614 181.248 94.5333 181.243 94.2483C181.238 93.9632 181.082 93.761 180.906 93.7662C180.73 93.7714 180.59 93.9995 180.595 94.2846Z" fill="#263238"/>
<path d="M183.667 94.2015C183.667 94.4711 183.823 94.6888 183.999 94.6836C184.175 94.6784 184.315 94.4555 184.309 94.1653C184.304 93.875 184.149 93.678 183.973 93.6832C183.797 93.6884 183.662 93.9476 183.667 94.2015Z" fill="#263238"/>
<path d="M182.693 94.3623C183.04 95.184 183.497 95.9547 184.051 96.6534C183.868 96.7925 183.656 96.8893 183.431 96.9368C183.206 96.9843 182.974 96.9813 182.75 96.9281L182.693 94.3623Z" fill="#D4827D"/>
<path d="M179.622 93.315C179.65 93.3173 179.679 93.3123 179.706 93.3006C179.732 93.2888 179.755 93.2706 179.772 93.2476C179.884 93.082 180.033 92.945 180.208 92.8478C180.382 92.7505 180.577 92.6957 180.777 92.6878C180.819 92.6892 180.859 92.6743 180.89 92.6462C180.921 92.6182 180.94 92.5792 180.943 92.5374C180.944 92.5166 180.941 92.4957 180.934 92.476C180.928 92.4562 180.917 92.4381 180.903 92.4226C180.889 92.4071 180.872 92.3946 180.853 92.3858C180.834 92.3771 180.813 92.3722 180.792 92.3716C180.539 92.3735 180.29 92.4373 180.067 92.5574C179.844 92.6776 179.654 92.8504 179.513 93.061C179.489 93.0952 179.479 93.1372 179.485 93.1785C179.491 93.2198 179.512 93.2574 179.544 93.2839C179.568 93.2977 179.595 93.3082 179.622 93.315Z" fill="#263238"/>
<path d="M184.957 93.1128C184.987 93.1231 185.02 93.1231 185.05 93.1128C185.088 93.0939 185.116 93.0611 185.13 93.0213C185.143 92.9816 185.141 92.9382 185.123 92.9003C185.013 92.6713 184.849 92.4727 184.645 92.3218C184.441 92.171 184.203 92.0724 183.952 92.0347C183.931 92.0318 183.91 92.0332 183.89 92.0387C183.87 92.0442 183.851 92.0538 183.834 92.0669C183.818 92.08 183.804 92.0963 183.794 92.1148C183.784 92.1333 183.778 92.1537 183.776 92.1746C183.774 92.2167 183.788 92.258 183.815 92.2905C183.842 92.323 183.879 92.3445 183.921 92.3509C184.118 92.3867 184.303 92.4689 184.461 92.5906C184.62 92.7123 184.747 92.87 184.833 93.0506C184.865 93.0862 184.909 93.1084 184.957 93.1128Z" fill="#263238"/>
<path d="M176.451 96.2022C176.451 96.2022 178.181 93.2114 177.311 90.7959C178.432 90.4901 179.626 90.6044 180.668 91.1173C180.636 90.7296 180.56 90.3469 180.44 89.977C180.44 89.977 183.418 89.7852 185.138 91.475C184.976 90.3779 184.458 89.3649 183.662 88.593C184.091 88.4623 184.549 88.4623 184.978 88.593C184.978 88.593 182.268 86.4108 178.011 87.6548C173.753 88.8988 172.432 91.4801 173.411 95.2744C174.39 99.0686 176.436 99.898 176.436 99.898C176.436 99.898 175.586 97.0108 175.773 96.3629C175.959 95.715 176.451 96.2022 176.451 96.2022Z" fill="#263238"/>
<path d="M174.105 97.1975C174.572 97.896 175.296 98.3807 176.12 98.5452C177.213 98.7577 177.674 97.7573 177.291 96.7724C176.949 95.8964 175.965 94.6991 174.903 94.9479C174.672 95.0024 174.458 95.1141 174.281 95.2726C174.105 95.4311 173.971 95.6314 173.891 95.8552C173.812 96.079 173.79 96.3191 173.827 96.5536C173.865 96.7881 173.96 97.0094 174.105 97.1975Z" fill="#EEC1BB"/>
<path d="M181.487 87.2298C180.481 87.5348 179.505 87.9304 178.57 88.4116C177.9 88.7547 177.259 89.1516 176.654 89.5986C173.696 91.7912 173.183 94.1807 173.183 94.1807L172.846 93.4706C172.65 93.0456 172.391 92.4754 172.142 91.8897C171.671 90.7856 171.246 89.6193 171.355 89.2565C172.303 86.0065 176.504 84.5603 177.11 84.6536C177.472 84.7107 178.969 85.6229 180.114 86.3434C180.694 86.7063 181.181 87.0225 181.388 87.1624L181.487 87.2298Z" fill="#407BFF"/>
<path opacity="0.6" d="M181.383 87.1622C180.397 87.4605 179.452 87.8801 178.57 88.4114C178.005 88.7276 177.373 89.1216 176.653 89.5984C174.385 91.1068 173.328 92.4545 172.846 93.4704C172.649 93.0454 172.39 92.4752 172.142 91.8895C173.178 90.5263 175.99 87.3177 180.114 86.3433C180.689 86.7061 181.176 87.0223 181.383 87.1622Z" fill="white"/>
<path d="M173.411 95.2484C173.411 95.2484 170.774 97.6846 170.443 96.622C169.598 93.8955 176.498 86.732 184.056 85.856C190.272 85.1355 183.859 87.9294 183.859 87.9294C181.3 87.4059 172.846 92.5115 173.411 95.2484Z" fill="#407BFF"/>
<path opacity="0.3" d="M173.411 95.2484C173.411 95.2484 170.774 97.6846 170.443 96.622C169.598 93.8955 176.498 86.732 184.056 85.856C190.272 85.1355 183.859 87.9294 183.859 87.9294C181.3 87.4059 172.846 92.5115 173.411 95.2484Z" fill="black"/>
<path d="M182.01 97.7678C181.778 98.1627 181.574 98.5731 181.399 98.9963L181.166 98.9393C180.104 98.6853 179.694 98.2136 179.565 97.7678C179.508 97.5485 179.508 97.3185 179.565 97.0992C179.588 96.9733 179.628 96.8512 179.684 96.7363C180.268 97.1889 180.943 97.5091 181.663 97.6745C181.87 97.7419 182.01 97.7678 182.01 97.7678Z" fill="#2E353A"/>
<path d="M181.647 97.6745L181.461 98.0322C180.461 97.7886 179.788 97.4827 179.549 97.0992C179.572 96.9733 179.612 96.8512 179.668 96.7363C180.252 97.1889 180.927 97.5091 181.647 97.6745Z" fill="white"/>
<path d="M181.166 98.939C180.104 98.685 179.694 98.2134 179.565 97.7676C179.967 97.8731 180.348 98.0486 180.689 98.2859C180.913 98.4474 181.08 98.6762 181.166 98.939Z" fill="#DE5753"/>
<path d="M179.285 105.211L179.477 105.283H173.571C173.53 105.211 173.494 105.138 173.458 105.061L175.353 103.241C175.536 103.381 175.726 103.511 175.923 103.63C176.602 104.041 177.308 104.405 178.037 104.718C178.254 104.817 178.482 104.91 178.726 105.009L179.285 105.211Z" fill="#407BFF"/>
<path d="M183.507 104.765V105.283H180.782L180.818 105.2C180.893 105.034 180.952 104.86 180.995 104.682C180.997 104.672 180.997 104.661 180.995 104.651C181.021 104.537 181.046 104.418 181.067 104.283C181.1 104.051 181.117 103.817 181.119 103.583C181.119 103.412 181.119 103.226 181.119 103.023L183.507 104.765Z" fill="#407BFF"/>
<path opacity="0.2" d="M181.3 104.666C181.263 104.846 181.204 105.02 181.124 105.185V105.263H180.782C180.782 105.237 180.808 105.211 180.824 105.18C180.898 105.013 180.957 104.839 181 104.661C181 104.661 181 104.661 181 104.63C181.031 104.509 181.056 104.386 181.072 104.262C181.109 104.032 181.128 103.8 181.129 103.568C181.129 103.391 181.129 103.205 181.129 103.008C181.269 103.251 181.354 103.521 181.378 103.801C181.399 104.092 181.373 104.384 181.3 104.666Z" fill="black"/>
<path d="M229.008 94.1236H194.25C194.08 94.1236 193.917 94.0558 193.796 93.9353C193.676 93.8148 193.608 93.6513 193.608 93.4808C193.609 93.3113 193.678 93.1491 193.798 93.0297C193.918 92.9103 194.081 92.8433 194.25 92.8433H229.008C229.177 92.8433 229.34 92.9103 229.46 93.0297C229.581 93.1491 229.649 93.3113 229.65 93.4808C229.65 93.6513 229.583 93.8148 229.462 93.9353C229.342 94.0558 229.178 94.1236 229.008 94.1236Z" fill="#407BFF"/>
<path d="M210.826 87.9811H194.509C194.384 87.9716 194.258 87.9881 194.14 88.0296C194.021 88.071 193.913 88.1365 193.821 88.2219C193.729 88.3073 193.655 88.4108 193.605 88.5259C193.555 88.641 193.529 88.7652 193.529 88.8908C193.529 89.0164 193.555 89.1406 193.605 89.2557C193.655 89.3708 193.729 89.4743 193.821 89.5597C193.913 89.6451 194.021 89.7106 194.14 89.752C194.258 89.7934 194.384 89.8099 194.509 89.8005H210.826C211.055 89.7831 211.27 89.6798 211.426 89.5111C211.582 89.3424 211.669 89.1209 211.669 88.8908C211.669 88.6607 211.582 88.4392 211.426 88.2705C211.27 88.1018 211.055 87.9984 210.826 87.9811Z" fill="#407BFF"/>
<path d="M208.806 96.7567H194.25C194.08 96.7553 193.918 96.6872 193.798 96.5669C193.677 96.4467 193.609 96.284 193.608 96.1139C193.608 95.9435 193.676 95.78 193.796 95.6594C193.917 95.5389 194.08 95.4712 194.25 95.4712H208.806C208.976 95.4712 209.14 95.5389 209.26 95.6594C209.381 95.78 209.448 95.9435 209.448 96.1139C209.447 96.284 209.379 96.4467 209.259 96.5669C209.139 96.6872 208.976 96.7553 208.806 96.7567Z" fill="#407BFF"/>
<path d="M115.882 198.045H117.835L119.14 148.803H115.882V198.045Z" fill="#407BFF"/>
<path d="M159.394 198.045H161.352V148.803H158.088L159.394 198.045Z" fill="#407BFF"/>
<path d="M139.565 198.045H141.518V148.803H138.259L139.565 198.045Z" fill="#407BFF"/>
<path d="M96.0479 198.045H98.0059L99.3113 148.803H96.0479V198.045Z" fill="#407BFF"/>
<path opacity="0.3" d="M115.882 198.045H117.835L119.14 148.803H115.882V198.045Z" fill="#520000"/>
<path opacity="0.3" d="M159.394 198.045H161.352V148.803H158.088L159.394 198.045Z" fill="#520000"/>
<path opacity="0.3" d="M139.565 198.045H141.518V148.803H138.259L139.565 198.045Z" fill="#520000"/>
<path opacity="0.3" d="M96.0479 198.045H98.0059L99.3113 148.803H96.0479V198.045Z" fill="#520000"/>
<path d="M161.223 149.357H95.4366V141.38C95.4366 140.803 95.6659 140.249 96.0739 139.841C96.4819 139.433 97.0352 139.203 97.6123 139.203H159.047C159.624 139.203 160.177 139.433 160.585 139.841C160.993 140.249 161.223 140.803 161.223 141.38V149.357Z" fill="#407BFF"/>
<path opacity="0.2" d="M161.223 149.357H95.4366V141.38C95.4366 140.803 95.6659 140.249 96.0739 139.841C96.4819 139.433 97.0352 139.203 97.6123 139.203H159.047C159.624 139.203 160.177 139.433 160.585 139.841C160.993 140.249 161.223 140.803 161.223 141.38V149.357Z" fill="#03045E"/>
<path opacity="0.2" d="M161.223 149.357H137.395V141.38C137.395 140.803 137.624 140.249 138.032 139.841C138.44 139.433 138.993 139.203 139.57 139.203H159.047C159.624 139.203 160.177 139.433 160.585 139.841C160.993 140.249 161.223 140.803 161.223 141.38V149.357Z" fill="black"/>
<path d="M162.015 148.803H93.867C93.375 148.803 92.9761 149.202 92.9761 149.694V153.095C92.9761 153.587 93.375 153.986 93.867 153.986H162.015C162.507 153.986 162.906 153.587 162.906 153.095V149.694C162.906 149.202 162.507 148.803 162.015 148.803Z" fill="#407BFF"/>
<path opacity="0.3" d="M162.015 148.803H93.867C93.375 148.803 92.9761 149.202 92.9761 149.694V153.095C92.9761 153.587 93.375 153.986 93.867 153.986H162.015C162.507 153.986 162.906 153.587 162.906 153.095V149.694C162.906 149.202 162.507 148.803 162.015 148.803Z" fill="#5463FF"/>
<path d="M95.7837 142.174C96.7057 136.944 114.432 129.106 127.164 127.375L141.15 142.257C130.341 144.334 119.367 145.427 108.361 145.522C108.361 145.522 107.703 169.63 106.708 185.274L101.653 185.367C101.653 185.367 94.8565 147.388 95.7837 142.174Z" fill="#2E353A"/>
<path opacity="0.2" d="M95.7837 142.174C96.7057 136.944 114.432 129.106 127.164 127.375L141.15 142.257C130.341 144.334 119.367 145.427 108.361 145.522C108.361 145.522 107.703 169.63 106.708 185.274L101.653 185.367C101.653 185.367 94.8565 147.388 95.7837 142.174Z" fill="black"/>
<path d="M123.144 104.137C123.144 104.137 120.254 111.71 118.637 112.685C117.021 113.659 118.41 101.587 118.41 101.587L115.333 101.178C115.333 101.178 111.707 119.418 117.001 119.283C121.051 119.185 125.874 112.405 127.055 108.963L123.144 104.137Z" fill="#EBB376"/>
<path opacity="0.1" d="M123.144 104.137C123.144 104.137 120.254 111.71 118.637 112.685C117.021 113.659 118.41 101.587 118.41 101.587L115.333 101.178C115.333 101.178 111.707 119.418 117.001 119.283C121.051 119.185 125.874 112.405 127.055 108.963L123.144 104.137Z" fill="black"/>
<path d="M127.599 94.9321C123.491 95.8807 120.564 109.995 120.564 109.995L127.946 113.344L127.599 94.9321Z" fill="#407BFF"/>
<path opacity="0.2" d="M127.599 94.9321C123.491 95.8807 120.564 109.995 120.564 109.995L127.946 113.344L127.599 94.9321Z" fill="white"/>
<path d="M129.391 112.716L120.342 108.383L119.819 109.694L128.708 114.536L129.391 112.716Z" fill="#407BFF"/>
<path opacity="0.2" d="M129.391 112.716L120.342 108.383L119.819 109.694L128.708 114.536L129.391 112.716Z" fill="#5463FF"/>
<path d="M102.554 192.546L106.04 192.193L106.123 187.279L106.195 182.77L101.989 182.511L102.285 187.824L102.554 192.546Z" fill="#EBB376"/>
<path d="M106.967 192.167C107.014 191.784 102.269 191.431 102.269 191.431C102.269 191.431 98.969 193.971 96.0527 194.241C93.1363 194.51 94.4987 196.412 97.6067 196.832L105.377 197.916C107.64 198.247 106.511 196.148 106.967 192.167Z" fill="black"/>
<path d="M99.881 192.302C99.7662 192.315 99.6498 192.306 99.5386 192.273C99.4275 192.241 99.3238 192.188 99.2335 192.115C99.1725 192.045 99.1352 191.957 99.1268 191.864C99.1184 191.771 99.1395 191.677 99.1869 191.597C99.2141 191.532 99.2544 191.473 99.3051 191.424C99.3559 191.375 99.4162 191.337 99.4822 191.312C99.8355 191.222 100.207 191.233 100.554 191.343C100.202 191.084 99.8966 190.794 99.9173 190.54C99.9173 190.379 100.057 190.26 100.285 190.187C100.385 190.155 100.491 190.145 100.596 190.157C100.701 190.17 100.801 190.205 100.891 190.26C101.492 190.612 101.735 191.768 101.746 191.815C101.756 191.845 101.756 191.878 101.746 191.908C101.733 191.922 101.717 191.932 101.699 191.939C101.112 192.139 100.5 192.261 99.881 192.302ZM99.881 191.504C99.7788 191.498 99.6765 191.514 99.5806 191.55C99.5458 191.562 99.5138 191.581 99.487 191.606C99.4602 191.631 99.4391 191.662 99.4252 191.696C99.3527 191.872 99.4252 191.929 99.4252 191.949C99.622 192.162 100.518 192.022 101.254 191.825C100.814 191.646 100.349 191.537 99.8759 191.504H99.881ZM100.523 190.41C100.47 190.403 100.416 190.403 100.363 190.41C100.295 190.41 100.181 190.477 100.176 190.545C100.176 190.757 100.777 191.219 101.435 191.581C101.341 191.145 101.108 190.75 100.772 190.457C100.693 190.419 100.605 190.402 100.518 190.41H100.523Z" fill="#577AFA"/>
<path opacity="0.2" d="M102.295 187.933L106.133 187.373L106.195 182.817L101.989 182.537L102.295 187.933Z" fill="black"/>
<path d="M121.637 193.048L125.03 192.177L124.377 187.305L123.771 182.837L119.575 183.21L120.663 188.419L121.637 193.048Z" fill="#EBB376"/>
<path d="M125.946 192.012C125.946 191.628 121.191 192.012 121.191 192.012C121.191 192.012 118.306 195.018 115.493 195.723C112.681 196.428 114.271 198.107 117.441 198.066L125.283 197.973C127.521 197.921 126.092 196.019 125.946 192.012Z" fill="black"/>
<path d="M118.694 193.23C118.551 193.24 118.409 193.202 118.29 193.121C118.218 193.059 118.167 192.975 118.145 192.882C118.124 192.788 118.133 192.69 118.171 192.603C118.188 192.534 118.219 192.47 118.262 192.414C118.305 192.358 118.358 192.311 118.42 192.276C118.748 192.141 119.105 192.097 119.456 192.146C119.067 191.95 118.726 191.701 118.71 191.452C118.71 191.291 118.803 191.151 119.016 191.048C119.111 191.003 119.216 190.979 119.321 190.979C119.427 190.979 119.531 191.003 119.627 191.048C120.274 191.307 120.663 192.4 120.704 192.458C120.707 192.473 120.707 192.489 120.704 192.504C120.704 192.504 120.704 192.504 120.704 192.54C120.707 192.552 120.707 192.565 120.704 192.577L120.663 192.608C120.049 192.931 119.382 193.142 118.694 193.23ZM119.135 192.4C118.932 192.387 118.729 192.424 118.544 192.509C118.479 192.545 118.431 192.604 118.41 192.675C118.368 192.862 118.41 192.914 118.446 192.929C118.674 193.105 119.539 192.836 120.233 192.53C119.873 192.454 119.507 192.411 119.14 192.4H119.135ZM119.373 191.234C119.295 191.236 119.219 191.256 119.15 191.291C119.088 191.322 118.979 191.385 118.985 191.452C118.985 191.664 119.684 192.027 120.388 192.281C120.228 191.864 119.937 191.509 119.56 191.271C119.5 191.249 119.437 191.236 119.373 191.234Z" fill="#577AFA"/>
<path opacity="0.2" d="M120.694 188.523L124.403 187.399L123.787 182.884L119.581 183.236L120.694 188.523Z" fill="black"/>
<path d="M127.128 128.209C127.128 128.209 127.521 122.829 127.703 121.73C127.884 120.631 128.132 123.347 128.366 122.653C129.562 119.06 145.46 121.331 145.46 121.331C145.46 121.331 154.918 133.299 148.407 140.115C143.911 144.817 127.946 146.854 121.212 150.083C121.212 150.083 123.284 169.619 124.641 185.232L119.658 186.087C119.658 186.087 107.806 149.539 107.936 144.226C108.065 138.913 110.008 136.3 127.128 128.209Z" fill="#222222"/>
<path d="M125.366 183.724L118.513 184.506L119.834 187.196L125.382 186.481L125.366 183.724Z" fill="#5463FF"/>
<path d="M107.635 183.89L100.741 183.63L101.647 186.486L107.242 186.616L107.635 183.89Z" fill="#5463FF"/>
<path d="M116.364 94.2218C116.364 94.2218 113.592 94.17 113.494 94.6572C113.395 95.1445 113.582 99.2082 113.95 99.7784C114.355 100.297 114.819 100.767 115.333 101.178L115.063 108.383L116.711 108.963L118.218 102.365C118.218 102.365 119.917 100.706 119.42 98.5966C118.922 96.487 116.364 94.2218 116.364 94.2218Z" fill="#EBB376"/>
<path opacity="0.1" d="M116.364 94.2218C116.364 94.2218 113.592 94.17 113.494 94.6572C113.395 95.1445 113.582 99.2082 113.95 99.7784C114.355 100.297 114.819 100.767 115.333 101.178L115.063 108.383L116.711 108.963L118.218 102.365C118.218 102.365 119.917 100.706 119.42 98.5966C118.922 96.487 116.364 94.2218 116.364 94.2218Z" fill="black"/>
<path d="M121.078 97.7674C121.081 97.8284 121.071 97.8894 121.048 97.9462C121.026 98.0029 120.991 98.0541 120.947 98.096C120.902 98.138 120.849 98.1697 120.791 98.1891C120.733 98.2084 120.672 98.2148 120.611 98.208L115.892 97.8451C115.758 97.8366 115.631 97.7792 115.536 97.6838C115.44 97.5884 115.383 97.4614 115.374 97.3268L115.043 87.9241C115.037 87.8589 115.045 87.7933 115.066 87.7313C115.086 87.6693 115.12 87.6122 115.163 87.5636C115.207 87.5149 115.26 87.4758 115.32 87.4487C115.379 87.4215 115.444 87.4069 115.509 87.4058L120.233 87.7738C120.368 87.8015 120.49 87.8738 120.579 87.979C120.669 88.0843 120.72 88.2164 120.725 88.3543L121.078 97.7674Z" fill="#03045E"/>
<path opacity="0.5" d="M120.228 88.2609L120.565 97.7569C120.574 97.8127 120.57 97.87 120.553 97.9242C120.537 97.9783 120.507 98.0277 120.468 98.0685C120.429 98.1094 120.381 98.1404 120.327 98.1592C120.274 98.178 120.217 98.184 120.161 98.1767L116.156 97.8657C115.887 97.8657 115.405 97.6584 115.395 97.3888L115.063 87.8618C115.063 87.5922 115.524 87.416 115.794 87.4367L119.798 87.7477C119.919 87.7686 120.028 87.8315 120.107 87.9255C120.186 88.0194 120.228 88.1383 120.228 88.2609Z" fill="#090C9B"/>
<path d="M125.874 104.91L124.076 100.737C124.076 100.737 123.496 95.1132 123.211 94.5171C122.926 93.921 118.358 94.1387 117.866 94.1024C117.374 94.0661 117.462 99.6745 117.938 100.265C118.415 100.856 120.285 101.328 120.285 101.328L123.154 106.9L125.874 104.91Z" fill="#EBB376"/>
<path d="M147.957 95.8755C147.957 95.8755 142.777 93.092 127.599 94.9321C127.599 94.9321 125.056 101.753 125.465 111.866C125.874 121.979 127.055 122.233 127.055 122.233L126.019 124.498C126.019 124.498 139.523 124.42 150.738 134.129L152.033 133.17L146.563 120.637C146.563 120.637 144.626 109.549 147.957 95.8755Z" fill="#5463FF"/>
<path d="M142.476 73.0422C142.476 73.0422 143.719 70.2846 148.459 71.0518C153.199 71.8189 153.199 77.6192 150.329 82.2324C147.459 86.8456 150.878 88.2866 150.469 90.0645C150.059 91.8424 147.956 91.4277 147.956 91.4277C148.205 91.2269 148.387 90.9558 148.48 90.6498C148.572 90.3438 148.57 90.017 148.474 89.712C148.21 88.4887 138.306 83.1602 142.476 73.0422Z" fill="#2E353A"/>
<path d="M135.644 88.1881C135.271 88.0119 127.951 88.5302 127.905 80.0347C127.905 80.0347 124.74 76.567 130.635 72.1766C136.529 67.7863 139.86 70.8497 139.86 70.8497C139.86 70.8497 145.04 70.0722 146.346 77.8784C147.651 85.6846 142.051 91.2152 135.644 88.1881Z" fill="#2E353A"/>
<path d="M129.086 81.092C129.086 81.092 126.315 70.549 137.664 71.0673C149.013 71.5857 146.47 89.2092 139.43 88.1414C132.391 87.0737 129.086 81.092 129.086 81.092Z" fill="#2E353A"/>
<path d="M135.928 97.42C139.445 97.8503 141.979 95.0357 141.979 95.0357C138.658 92.7446 140.331 87.6338 140.331 87.6338L134.996 89.5102C135.242 90.2575 135.434 91.0214 135.571 91.7961C136.125 95.1238 134.623 95.3933 134.623 95.3933C133.939 97.3475 135.037 97.3112 135.928 97.42Z" fill="#EBB376"/>
<path opacity="0.2" d="M134.996 89.5103C135.242 90.2575 135.434 91.0214 135.571 91.7961C138.125 90.7595 140.332 87.6494 140.332 87.6494L134.996 89.5103Z" fill="black"/>
<path d="M135.162 73.6075C130.339 74.0221 129.008 76.7434 129.086 81.7454C129.174 88.0017 130.935 92.2988 136.856 90.4483C144.885 87.9447 143.175 72.9181 135.162 73.6075Z" fill="#EBB376"/>
<path d="M129.448 78.0857C129.417 78.0859 129.387 78.079 129.359 78.0655C129.331 78.052 129.307 78.0323 129.288 78.0079C129.253 77.9652 129.238 77.9108 129.243 77.8564C129.249 77.802 129.276 77.7522 129.319 77.7177C129.596 77.4678 129.927 77.2843 130.286 77.181C130.645 77.0778 131.023 77.0574 131.391 77.1216C131.443 77.1373 131.487 77.1724 131.514 77.2196C131.541 77.2669 131.549 77.3227 131.536 77.3756C131.52 77.4275 131.485 77.4712 131.437 77.4973C131.39 77.5235 131.334 77.53 131.282 77.5155C130.977 77.4697 130.666 77.4924 130.371 77.5821C130.076 77.6718 129.805 77.8261 129.578 78.0339C129.54 78.0629 129.495 78.0809 129.448 78.0857Z" fill="#2E353A"/>
<path d="M141.134 81.2894C141.134 81.2894 138.544 77.5159 138.617 74.4266C138.617 74.4266 128.723 71.3166 129.086 81.0925C129.086 81.0925 127.412 72.5502 135.685 71.6483C143.957 70.7464 144.967 82.8807 140.994 86.8668C140.994 86.8668 142.745 83.6323 141.134 81.2894Z" fill="#2E353A"/>
<path d="M140.435 82.3779C140.434 82.0995 140.487 81.8236 140.592 81.5658C140.698 81.3081 140.853 81.0736 141.048 80.8758C141.244 80.678 141.477 80.5207 141.733 80.4129C141.99 80.3051 142.265 80.2489 142.543 80.2476C144.056 80.2787 145.03 83.2902 141.378 84.3476C140.849 84.4979 140.508 84.0055 140.435 82.3779Z" fill="#EBB376"/>
<path d="M139.29 80.5737C139.273 80.5793 139.255 80.5793 139.238 80.5737C135.094 78.9928 135.151 73.4569 135.151 73.4051C135.153 73.3675 135.169 73.3319 135.196 73.3058C135.223 73.2797 135.259 73.2651 135.296 73.2651C135.334 73.2665 135.37 73.2824 135.396 73.3094C135.422 73.3365 135.436 73.3727 135.436 73.4103C135.436 73.4621 135.364 78.801 139.337 80.3094C139.355 80.3151 139.371 80.3245 139.385 80.3369C139.399 80.3494 139.411 80.3646 139.418 80.3817C139.426 80.3988 139.43 80.4173 139.431 80.4361C139.431 80.4549 139.427 80.4735 139.42 80.4908C139.409 80.5158 139.39 80.5369 139.367 80.5517C139.344 80.5664 139.318 80.5741 139.29 80.5737Z" fill="#2E353A"/>
<path d="M129.816 73.3949C133.898 69.9738 136.296 71.052 136.296 71.052L136.27 71.1038C137.855 70.6373 140.482 70.5336 143.129 73.3949C147.34 77.9459 143.792 81.2477 143.792 81.2477C138.218 79.6927 136.022 76.1836 135.198 73.9651C133.82 76.2509 131.22 78.9048 127.905 80.0348C127.905 80.0348 125.739 76.8159 129.816 73.3949Z" fill="#2E353A"/>
<path d="M141.129 105.993C141.129 105.993 137.969 113.177 137.115 113.696C136.26 114.214 129.816 108.253 124.076 100.737L120.564 102.059C120.564 102.059 129.645 120.719 136.104 120.823C142.564 120.927 146.568 110.005 146.568 110.005L141.129 105.993Z" fill="#EBB376"/>
<path d="M147.957 95.8751C152.38 97.1036 146.558 115.054 146.558 115.054L138.192 111.218C139.287 107.53 140.614 103.915 142.165 100.395C144.621 94.9058 147.957 95.8751 147.957 95.8751Z" fill="#407BFF"/>
<path opacity="0.2" d="M147.957 95.8751C152.38 97.1036 146.558 115.054 146.558 115.054L138.192 111.218C139.287 107.53 140.614 103.915 142.165 100.395C144.621 94.9058 147.957 95.8751 147.957 95.8751Z" fill="white"/>
<path d="M147.242 114.717L138.197 110.384L137.669 111.695L146.558 116.536L147.242 114.717Z" fill="#407BFF"/>
<path opacity="0.2" d="M147.242 114.717L138.197 110.384L137.669 111.695L146.558 116.536L147.242 114.717Z" fill="#5463FF"/>
<path d="M129.816 63.8521L130.634 72.1766L141.958 73.0422L143.906 65.0805L139.699 69.8078L136.809 63.8521L133.561 69.2843L129.816 63.8521Z" fill="#FFC300"/>
<path d="M130.598 64.2252C130.598 64.3472 130.562 64.4665 130.494 64.5679C130.426 64.6694 130.33 64.7484 130.218 64.7951C130.105 64.8418 129.981 64.854 129.861 64.8302C129.742 64.8064 129.632 64.7477 129.546 64.6614C129.46 64.5751 129.401 64.4652 129.377 64.3456C129.353 64.2259 129.366 64.1019 129.412 63.9892C129.459 63.8765 129.538 63.7801 129.639 63.7124C129.741 63.6446 129.86 63.6084 129.982 63.6084C130.145 63.6084 130.302 63.6734 130.418 63.7891C130.533 63.9047 130.598 64.0616 130.598 64.2252Z" fill="#407BFF"/>
<path d="M137.42 63.9352C137.42 64.0572 137.384 64.1764 137.316 64.2779C137.249 64.3793 137.152 64.4584 137.04 64.5051C136.927 64.5517 136.803 64.564 136.684 64.5402C136.564 64.5164 136.454 64.4576 136.368 64.3713C136.282 64.2851 136.223 64.1752 136.199 64.0555C136.176 63.9359 136.188 63.8118 136.234 63.6991C136.281 63.5864 136.36 63.4901 136.461 63.4223C136.563 63.3545 136.682 63.3184 136.804 63.3184C136.967 63.3184 137.124 63.3833 137.24 63.499C137.355 63.6147 137.42 63.7716 137.42 63.9352Z" fill="#407BFF"/>
<path d="M143.905 65.7703C144.246 65.7703 144.522 65.4941 144.522 65.1534C144.522 64.8128 144.246 64.5366 143.905 64.5366C143.565 64.5366 143.289 64.8128 143.289 65.1534C143.289 65.4941 143.565 65.7703 143.905 65.7703Z" fill="#407BFF"/>
<path d="M90.3861 122.886L87.7961 198.045H85.7241L87.2781 122.886H90.3861Z" fill="#520000"/>
<path d="M74.328 122.886L71.738 198.045H69.666L71.22 122.886H74.328Z" fill="#520000"/>
<path d="M173.266 119.258H68.1118V122.886H173.266V119.258Z" fill="#407BFF"/>
<path d="M173.266 119.258H68.1118V122.886H173.266V119.258Z" fill="#E8D5B5"/>
<path opacity="0.6" d="M173.11 119.257H67.9556V122.886H173.11V119.257Z" fill="white"/>
<path opacity="0.6" d="M173.266 119.258H150.474V122.886H173.266V119.258Z" fill="#E8D5B5"/>
<path d="M171.194 122.886L172.748 198.045H170.676L168.086 122.886H171.194Z" fill="#520000"/>
<path d="M155.136 122.886L156.69 198.045H154.618L152.028 122.886H155.136Z" fill="#520000"/>
</svg>
