<svg width="18" height="24" viewBox="0 0 18 24" fill="none" xmlns="http://www.w3.org/2000/svg">
<path d="M9 0C3.98438 0 0 4.03125 0 9C0 12.6562 1.21875 13.6875 8.0625 23.5312C8.29688 23.8594 8.625 24 9 24C9.32812 24 9.65625 23.8594 9.89062 23.5312C16.7344 13.6406 18 12.6562 18 9C18 4.03125 13.9688 0 9 0ZM9 22.2188C2.39062 12.75 1.5 12 1.5 9C1.5 4.875 4.82812 1.5 9 1.5C13.125 1.5 16.5 4.875 16.5 9C16.5 12 15.5625 12.7031 9 22.2188ZM9 5.25C6.89062 5.25 5.25 6.89062 5.25 9C5.25 11.0625 6.89062 12.75 9 12.75C11.0625 12.75 12.75 11.0625 12.75 9C12.75 6.89062 11.0625 5.25 9 5.25ZM9 11.25C7.73438 11.25 6.75 10.2188 6.75 9C6.75 7.73438 7.73438 6.75 9 6.75C10.2188 6.75 11.25 7.73438 11.25 9C11.25 10.2188 10.2188 11.25 9 11.25Z" fill="#5463FF"/>
</svg>
