<svg width="18" height="21" viewBox="0 0 18 21" fill="none" xmlns="http://www.w3.org/2000/svg">
<path d="M15 8H13.75V5.5C13.75 2.72656 11.4844 0.5 8.75 0.5C5.97656 0.5 3.75 2.76562 3.75 5.5V8H2.5C1.09375 8 0 9.13281 0 10.5V18C0 19.3672 1.09375 20.5 2.5 20.5H15C16.3672 20.5 17.5 19.3672 17.5 18V10.5C17.5 9.13281 16.3672 8 15 8ZM5.625 5.5C5.625 3.78125 6.99219 2.375 8.75 2.375C10.4688 2.375 11.875 3.78125 11.875 5.5V8H5.625V5.5ZM15.625 18C15.625 18.3516 15.3125 18.625 15 18.625H2.5C2.14844 18.625 1.875 18.3516 1.875 18V10.5C1.875 10.1875 2.14844 9.875 2.5 9.875H15C15.3125 9.875 15.625 10.1875 15.625 10.5V18Z" fill="#5463FF"/>
</svg>
