<svg width="61" height="84" viewBox="0 0 61 84" fill="none" xmlns="http://www.w3.org/2000/svg">
<path d="M30.625 0.805908C20.1625 0.805908 10.375 8.58165 10.375 20.8734V36.3312C10.375 37.2263 10.7304 38.0845 11.3634 38.7174C11.9963 39.3503 12.8549 39.7062 13.75 39.7062C14.6451 39.7062 15.5037 39.3503 16.1366 38.7174C16.7696 38.0845 17.125 37.2263 17.125 36.3312V20.8734C17.125 11.9499 23.227 7.55591 30.625 7.55591C38.7385 7.55591 44.125 12.4156 44.125 20.8734V36.3106C44.125 37.2057 44.4804 38.0643 45.1134 38.6972C45.7463 39.3301 46.6049 39.6856 47.5 39.6856C48.3951 39.6856 49.2537 39.3301 49.8866 38.6972C50.5196 38.0643 50.875 37.2057 50.875 36.3106V20.8734C50.875 9.1959 41.8232 0.805908 30.625 0.805908Z" fill="url(#paint0_linear_108_1383)"/>
<path d="M30.625 83.5C47.4007 83.5 61 69.9007 61 53.125C61 36.3493 47.4007 22.75 30.625 22.75C13.8493 22.75 0.25 36.3493 0.25 53.125C0.25 69.9007 13.8493 83.5 30.625 83.5Z" fill="url(#paint1_linear_108_1383)"/>
<path d="M30.625 43.0002C26.8855 43.0002 23.875 46.0107 23.875 49.7502C23.875 51.6199 24.6176 53.3142 25.8394 54.5359C26.2444 54.9409 26.7575 55.1907 27.257 55.4809V66.6184C27.257 67.5135 27.6124 68.372 28.2454 69.0049C28.8783 69.6379 29.7369 69.9934 30.632 69.9934C31.5271 69.9934 32.3853 69.6379 33.0182 69.0049C33.6512 68.372 34.007 67.5135 34.007 66.6184V55.4674C34.4863 55.1839 34.9992 54.9274 35.3975 54.5359C36.3482 53.593 36.9969 52.3886 37.2613 51.076C37.5256 49.7634 37.3935 48.4017 36.8819 47.1643C36.3702 45.9269 35.5022 44.8696 34.3881 44.1269C33.274 43.3842 31.964 42.9897 30.625 42.9934V43.0002Z" fill="url(#paint2_linear_108_1383)"/>
<defs>
<linearGradient id="paint0_linear_108_1383" x1="10.375" y1="20.2797" x2="50.875" y2="20.2797" gradientUnits="userSpaceOnUse">
<stop stop-color="#485960"/>
<stop offset="1" stop-color="#323E42"/>
</linearGradient>
<linearGradient id="paint1_linear_108_1383" x1="0.25" y1="53.125" x2="61" y2="53.125" gradientUnits="userSpaceOnUse">
<stop stop-color="#FCD635"/>
<stop offset="1" stop-color="#F7C028"/>
</linearGradient>
<linearGradient id="paint2_linear_108_1383" x1="23.875" y1="56.5204" x2="37.3752" y2="56.5204" gradientUnits="userSpaceOnUse">
<stop stop-color="#485960"/>
<stop offset="1" stop-color="#323E42"/>
</linearGradient>
</defs>
</svg>
