<svg width="44" height="44" viewBox="0 0 44 44" fill="none" xmlns="http://www.w3.org/2000/svg">
<rect width="44" height="44" rx="12" fill="#5463FF"/>
<path d="M30.9618 16.3102L11.9554 17.4306C11.7807 17.4306 11.6235 17.4655 11.4837 17.5354C11.1693 17.6927 10.9073 17.9548 10.82 18.3042C10.6803 18.8108 10.8725 19.3698 11.2918 19.6842L17.6337 24.2429L17.4949 32.0866C17.495 32.6107 17.8269 33.0998 18.2986 33.257C18.6306 33.3967 19.0149 33.3792 19.3293 33.2219C19.4691 33.152 19.5913 33.0472 19.6961 32.9074L31.9927 18.3715C32.3246 17.9871 32.3944 17.4281 32.1673 16.9739C31.9227 16.5722 31.4684 16.2752 30.9618 16.3102ZM13.8073 19.2122L27.2411 18.3895L18.6467 22.688L13.8073 19.2122ZM19.4855 24.365L28.0798 20.0665L19.3814 30.3569L19.4855 24.365Z" fill="white"/>
</svg>
