<svg width="332" height="302" viewBox="0 0 332 302" fill="none" xmlns="http://www.w3.org/2000/svg">
<g clip-path="url(#clip0_166_2719)">
<path d="M354.133 0H-22.1333V302H354.133V0Z" fill="white"/>
<path fill-rule="evenodd" clip-rule="evenodd" d="M262.324 96.4183C278.619 96.4183 291.829 83.1655 291.829 66.8175C291.829 50.4695 278.619 37.2167 262.324 37.2167C246.029 37.2167 232.82 50.4695 232.82 66.8175C232.82 83.1655 246.029 96.4183 262.324 96.4183ZM262.324 97.8984C279.434 97.8984 293.304 83.9829 293.304 66.8175C293.304 49.6521 279.434 35.7367 262.324 35.7367C245.214 35.7367 231.345 49.6521 231.345 66.8175C231.345 83.9829 245.214 97.8984 262.324 97.8984Z" fill="#ECECEC"/>
<path fill-rule="evenodd" clip-rule="evenodd" d="M262.324 83.0978C271.287 83.0978 278.551 75.8088 278.551 66.8173C278.551 57.826 271.287 50.537 262.324 50.537C253.362 50.537 246.097 57.826 246.097 66.8173C246.097 75.8088 253.362 83.0978 262.324 83.0978ZM262.324 86.7978C273.324 86.7978 282.239 77.8523 282.239 66.8173C282.239 55.7824 273.324 46.8367 262.324 46.8367C251.325 46.8367 242.41 55.7824 242.41 66.8173C242.41 77.8523 251.325 86.7978 262.324 86.7978Z" fill="#E2E0E5"/>
<path d="M139.672 289.14V287.018H146.012V289.14H139.672Z" fill="#444444"/>
<path d="M204.542 289.233V287.204H210.79V289.233H204.542Z" fill="#3F3F3F"/>
<path d="M211.892 287.572H138.754L140.224 284.346L174.496 280.105L210.147 284.252L211.892 287.572Z" fill="#656565"/>
<path d="M174.496 280.105L210.147 284.252L211.02 285.913L174.496 282.04L139.489 285.959L140.224 284.346L174.496 280.105Z" fill="#969696"/>
<path d="M172.108 280.566V266.278L178.356 265.448V280.566L175.14 287.205L172.108 280.566Z" fill="#A1A1A1"/>
<path d="M175.14 287.202L175.232 265.863L176.794 265.654L176.748 283.885L175.14 287.202Z" fill="#CBCBCB"/>
<path d="M172.108 280.566V266.278L173.302 266.12V283.18L172.108 280.566Z" fill="#636363"/>
<path d="M178.356 265.448V280.566L176.794 283.789V265.654L178.356 265.448Z" fill="#636363"/>
<path d="M167.202 258.726C160.357 250.452 150.95 243.214 147.102 240.628L205.338 232.562C201.524 236.768 193.547 245.613 192.145 247.35C190.393 249.522 184.414 257.588 181.116 261.62C179.543 263.545 177.94 265.048 176.684 266.082L173.427 265.964C172.102 264.396 169.978 261.91 167.202 258.726Z" fill="#9974E9"/>
<path d="M169.881 264.826H179.776V266.276H169.881V264.826Z" fill="#DFD4C0"/>
<path d="M179.776 264.826H169.881C169.881 264.826 170.809 264.31 174.829 264.414C178.848 264.517 179.776 264.826 179.776 264.826Z" fill="#DDE7E9"/>
<path d="M169.057 134.426C182.766 125.429 198.639 120.155 205.544 121.81C222.242 125.811 236.362 148.077 239.146 157.694C241.903 167.218 231.312 190.03 225.002 203.628L224.819 204.021C218.531 217.568 205.751 246.626 169.572 244.558C133.394 242.49 123.911 233.183 115.769 225.841C107.626 218.499 100.411 186.545 99.174 182.616C97.9374 178.686 93.6083 166.173 99.174 165.656C104.74 165.139 117.109 162.14 133.497 156.763C149.886 151.386 155.348 143.423 169.057 134.426Z" fill="#A886F3"/>
<path d="M99.174 165.656C104.74 165.139 117.109 162.14 133.497 156.763C135.069 156.247 136.541 155.707 137.929 155.145C146.415 156.064 166.769 162.306 180.292 179.927C193.815 197.548 196.302 210.433 195.856 214.673C190.839 223.187 167.799 237.339 115.769 225.841C107.626 218.499 100.411 186.545 99.174 182.615C97.9374 178.686 93.6083 166.173 99.174 165.656Z" fill="#9974E9"/>
<path d="M119.273 208.056C117.871 208.552 118.07 209.434 118.345 209.813C128.069 213.536 148.174 221.147 150.813 221.809C154.111 222.636 178.23 223.567 185.033 220.465C190.475 217.983 196.577 207.642 198.948 202.782C190.668 202.092 170.562 201.044 156.379 202.368C138.651 204.023 121.025 207.435 119.273 208.056Z" fill="#A886F3"/>
<path d="M118.757 208.883C115.624 208.966 114.841 212.985 114.841 214.984C114.841 222.119 143.391 230.599 152.668 232.047C161.944 233.495 178.539 227.393 179.054 220.672C179.57 213.95 122.674 208.779 118.757 208.883Z" fill="#9974E9"/>
<path d="M118.392 210.984C117.845 208.388 122.218 208.803 124.514 208.803C140.328 209.322 173.357 210.444 178.954 210.776C184.551 211.109 189.668 212.092 191.526 212.542C190.615 216.904 183.983 225.752 164.743 226.251C140.693 226.874 135.336 224.693 127.903 222.097C120.469 219.5 118.938 213.58 118.392 210.984Z" fill="#C5AAFF"/>
<path d="M223.951 167.432C219.828 168.155 218.076 170.316 217.354 171.35C217.148 174.004 217.354 178.423 219.828 174.866C222.92 170.419 231.415 168.345 236.465 165.76C241.517 163.175 239.455 157.487 237.91 152.524C236.362 147.56 229.456 137.839 223.684 132.359C218.547 127.481 211.522 123.259 207.399 122.328C213.583 125.12 220.262 130.44 226.158 137.839C232.128 145.33 236.981 154.499 236.465 159.36C235.95 164.22 228.074 166.708 223.951 167.432Z" fill="#9974E9"/>
<path d="M208.681 185.095C212.082 178.684 215.793 172.686 218.266 170.308C220.328 167.898 222.183 169.894 221.256 174.134C220.328 178.374 213.01 195.747 202.909 211.361C192.808 226.976 172.664 237.009 157.719 237.836C142.773 238.664 125.045 236.906 113.707 224.083C102.369 211.26 95.4633 181.478 94.2264 174.859C92.9895 168.241 95.4633 165.346 100.308 164.932C105.152 164.519 122.88 160.409 134.734 155.625C146.587 150.842 152.874 146.008 160.811 140.424C148.958 151.282 137.244 156.542 120.097 161.933C111.915 164.506 99.1738 166.277 98.6583 166.69C98.1431 167.104 97.7307 168.862 98.4521 171.344C101.441 183.649 109.481 203.09 112.264 208.571C115.047 214.052 126.591 230.804 154.73 228.219C182.868 225.634 189.612 216.946 193.117 212.189C196.621 207.432 205.279 191.507 208.681 185.095Z" fill="#C5AAFF"/>
<path d="M72.9314 281.925C76.0005 281.703 79.7978 280.488 81.3126 279.909C82.1266 279.685 86.9832 280.598 88.7953 281.107C90.6072 281.618 94.7276 282.473 95.3296 283.548C96.4842 285.44 95.6155 290.416 95.0368 292.666C94.1486 292.618 91.7385 292.311 89.205 291.478C86.0381 290.438 82.5756 289.918 80.3677 289.749C78.1598 289.58 74.2007 289.22 70.6159 288.06C67.0308 286.903 63.5799 284.726 64.3889 283.445C65.1976 282.164 69.0953 282.204 72.9314 281.925Z" fill="#F09020"/>
<path d="M94.9643 283.168L100.559 276.202L87.7139 270.179L81.3909 279.891C82.3677 281.454 84.5568 282.934 87.3166 283.709C90.4481 284.59 93.4209 284.315 94.9643 283.168Z" fill="#FED3CA"/>
<path d="M100.559 276.202L94.9643 283.168C93.4209 284.315 90.4481 284.59 87.3166 283.709C84.5568 282.934 82.3677 281.454 81.3909 279.894C84.4316 281.789 91.2077 284.705 93.9871 281.22C96.7664 277.734 97.9439 275.605 98.1852 274.976L100.559 276.202Z" fill="#FDB3A3"/>
<path d="M94.8507 283.087C93.2824 284.177 90.3659 284.424 87.2968 283.56C84.619 282.808 82.4786 281.393 81.4614 279.883C81.4363 279.886 81.4127 279.889 81.3909 279.891C82.3677 281.454 84.5571 282.931 87.3166 283.709C90.4481 284.59 93.4209 284.313 94.9646 283.168C94.9285 283.14 94.8906 283.112 94.8507 283.087Z" fill="#060A42"/>
<path d="M64.3892 283.442C65.1982 282.161 69.0956 282.201 72.932 281.925C73.3948 281.701 74.4699 281.693 75.0672 283.43C75.8137 285.599 69.239 285.458 73.5568 288.835C72.5773 288.626 71.5829 288.372 70.6162 288.06C67.0311 286.9 63.5803 284.723 64.3892 283.442Z" fill="#DF780D"/>
<path d="M70.6156 288.06C67.0306 286.903 63.5797 284.726 64.3887 283.445C64.0335 283.998 63.5152 285.279 64.2823 285.979C65.241 286.852 67.3366 288.496 70.2639 289.319C73.1911 290.141 78.5049 291.032 80.0158 291.007C81.5269 290.98 83.9746 291.365 85.4686 291.936L85.0781 293.335L93.7199 295.766C94.1381 295.882 94.3164 295.781 94.5898 294.802C94.8088 294.02 94.9789 293.053 95.0366 292.666C94.1483 292.618 91.7382 292.311 89.2047 291.478C86.0378 290.436 82.5754 289.915 80.3675 289.746C78.1595 289.578 74.2004 289.22 70.6156 288.06Z" fill="#791223"/>
<path fill-rule="evenodd" clip-rule="evenodd" d="M81.8605 280.5C81.9072 280.659 81.8171 280.825 81.6593 280.873L75.9213 282.576C75.7635 282.624 75.5977 282.534 75.551 282.375C75.5041 282.216 75.5942 282.05 75.752 282.003L81.49 280.299C81.6478 280.251 81.8136 280.342 81.8605 280.5Z" fill="#060A42"/>
<path fill-rule="evenodd" clip-rule="evenodd" d="M76.9876 283.578C76.8155 282.164 75.6978 281.605 75.1675 281.502C75.0867 281.487 75.0338 281.409 75.0493 281.326C75.0649 281.245 75.1432 281.192 75.2239 281.207C75.8347 281.326 77.0905 281.957 77.2834 283.54C77.2934 283.623 77.2352 283.699 77.1534 283.709C77.0719 283.719 76.9976 283.659 76.9876 283.578Z" fill="#1F0050"/>
<path fill-rule="evenodd" clip-rule="evenodd" d="M79.0716 283.115C78.8995 281.701 77.782 281.139 77.2518 281.039C77.171 281.024 77.118 280.943 77.1336 280.862C77.1492 280.782 77.2272 280.729 77.3079 280.744C77.9187 280.862 79.1747 281.494 79.3676 283.077C79.3774 283.16 79.3194 283.233 79.2377 283.243C79.1559 283.253 79.0817 283.195 79.0716 283.115Z" fill="#1F0050"/>
<path fill-rule="evenodd" clip-rule="evenodd" d="M81.3352 282.544C81.1632 281.129 80.0457 280.571 79.5151 280.467C79.4343 280.452 79.3814 280.374 79.397 280.294C79.4125 280.211 79.4908 280.158 79.5716 280.175C80.1824 280.291 81.4381 280.923 81.631 282.508C81.641 282.589 81.5828 282.664 81.5011 282.675C81.4195 282.685 81.3453 282.627 81.3352 282.544Z" fill="#1F0050"/>
<path d="M95.8832 287.187C95.7984 289.18 95.3697 291.372 95.0371 292.666C94.1486 292.618 91.7385 292.311 89.205 291.478C88.7151 291.317 88.2179 291.166 87.7192 291.03C88.3747 289.915 89.4375 288.881 90.8081 288.126C92.5367 287.174 94.3819 286.88 95.8832 287.187Z" fill="#DF780D"/>
<path d="M205.741 180.718C175.631 172.15 161.929 177.804 140.152 179.077C133.756 179.451 129.028 179.728 127.474 179.656C120.63 179.339 113.6 187.441 107.575 196.558C104.223 201.63 101.403 213.165 97.8882 222.227C90.7632 240.597 82.5162 270.29 82.5162 270.29L101.995 279.69C101.995 279.69 116.629 248.846 125.474 234.163C129.683 227.174 131.984 223.502 137.126 217.172C143.986 208.725 153.559 209.249 161.59 209.766C195.463 211.944 203.186 202.938 205.741 180.718Z" fill="#03045E"/>
<path opacity="0.2" d="M125.473 234.164C129.683 227.175 131.984 223.503 137.125 217.172C143.986 208.725 153.559 209.25 161.589 209.766C195.462 211.945 203.186 202.939 205.74 180.719C201.197 179.426 197.027 178.457 193.146 177.748C195.27 179.9 198.416 186.122 194.015 193.79C188.514 203.376 171.578 202.65 152.18 202.65C132.782 202.65 116.698 228.305 97.888 277.709L101.994 279.692C101.994 279.692 116.629 248.846 125.473 234.164Z" fill="#003F58"/>
<path opacity="0.3" d="M106.611 227.674C117.494 198.487 127.98 184.638 151.252 184.637C185.185 184.637 151.601 179.267 126.535 180.549C113.102 181.236 108.981 196.91 103.309 212.241C99.7236 221.932 90.5427 257.269 89.1147 264.804C87.5767 272.92 95.7174 256.891 106.611 227.674Z" fill="#04709F"/>
<path d="M137.897 245.945L148.683 259.184L159.891 253.388L151.525 239.683L137.897 245.945Z" fill="#FED3CA"/>
<path d="M159.891 253.388L151.526 239.683L148.996 240.845C149.913 241.862 152.412 244.912 155.076 248.978C157.739 253.046 149.615 254.641 145.22 254.933L148.684 259.184L159.891 253.388Z" fill="#FDB3A3"/>
<path d="M157.79 250.049C161.117 250.752 163.54 256.635 163.88 257.956C160.95 257.956 157.512 258.595 154.455 260.51C151.398 262.428 148.214 262.682 144.775 263.706C141.336 264.728 131.911 266.261 130.255 266.261C128.93 266.261 127.051 267.028 126.277 267.411C126.405 266.19 128.31 264.504 132.048 262.873C136.735 260.83 140.453 259.01 145.356 255.145C149.384 256.373 156.739 254.969 157.79 250.049Z" fill="#F09020"/>
<path fill-rule="evenodd" clip-rule="evenodd" d="M141.195 258.064C141.232 257.991 141.321 257.961 141.395 257.999C141.403 258.001 141.41 258.006 141.417 258.009C141.571 258.087 141.679 258.14 141.762 258.223C141.846 258.308 141.9 258.416 141.978 258.572C141.981 258.58 141.984 258.588 141.987 258.593C142.024 258.668 141.994 258.756 141.92 258.794C141.847 258.832 141.757 258.801 141.721 258.726C141.629 258.542 141.596 258.479 141.552 258.434C141.507 258.391 141.446 258.358 141.262 258.265C141.188 258.228 141.158 258.14 141.195 258.064Z" fill="#1F0050"/>
<path fill-rule="evenodd" clip-rule="evenodd" d="M143.054 256.833C143.091 256.76 143.181 256.73 143.254 256.768C143.262 256.771 143.269 256.776 143.277 256.778C143.431 256.856 143.539 256.909 143.622 256.992C143.705 257.078 143.759 257.186 143.837 257.342C143.84 257.349 143.843 257.357 143.847 257.362C143.884 257.437 143.853 257.525 143.78 257.563C143.706 257.598 143.617 257.571 143.58 257.495C143.488 257.309 143.455 257.249 143.411 257.203C143.366 257.161 143.305 257.128 143.121 257.035C143.047 256.997 143.018 256.909 143.054 256.833Z" fill="#1F0050"/>
<path fill-rule="evenodd" clip-rule="evenodd" d="M144.772 255.593C144.809 255.517 144.898 255.487 144.972 255.525C144.98 255.527 144.987 255.532 144.995 255.535C145.148 255.613 145.256 255.668 145.339 255.751C145.423 255.834 145.477 255.943 145.555 256.101C145.558 256.106 145.561 256.114 145.564 256.119C145.601 256.194 145.571 256.282 145.498 256.32C145.424 256.358 145.334 256.328 145.298 256.252C145.206 256.068 145.173 256.005 145.129 255.963C145.084 255.917 145.023 255.885 144.839 255.792C144.765 255.756 144.735 255.666 144.772 255.593Z" fill="#1F0050"/>
<path fill-rule="evenodd" clip-rule="evenodd" d="M145.654 255.585C145.701 255.653 145.684 255.746 145.616 255.792L141.588 258.605C141.521 258.65 141.428 258.635 141.381 258.567C141.334 258.499 141.351 258.406 141.418 258.359L145.446 255.547C145.514 255.5 145.607 255.517 145.654 255.585Z" fill="#060A42"/>
<path d="M161.816 253.549C162.96 255.338 163.703 257.266 163.88 257.956C162.329 257.956 160.636 258.135 158.932 258.588C159.034 257.682 159.336 256.73 159.849 255.822C160.379 254.88 161.066 254.108 161.816 253.549Z" fill="#DF780D"/>
<path d="M126.277 267.411C126.405 266.19 128.31 264.504 132.048 262.876C133.268 262.342 134.423 261.826 135.55 261.283C137.243 260.475 140.453 259.345 139.753 261.283C138.877 263.706 141.917 264.444 144.775 263.706C141.336 264.728 131.911 266.261 130.255 266.261C128.93 266.261 127.051 267.028 126.277 267.411Z" fill="#DF780D"/>
<path d="M145.356 255.145C149.384 256.373 156.739 254.969 157.789 250.049C157.907 250.074 158.024 250.106 158.139 250.143C155.688 256.901 146.932 256.199 145.181 255.281C145.239 255.235 145.298 255.19 145.356 255.145Z" fill="#060A42"/>
<path d="M127.58 269.711C126.658 268.833 126.203 268.103 126.276 267.411C127.05 267.028 128.93 266.261 130.255 266.261C131.911 266.261 141.336 264.728 144.775 263.704C148.214 262.682 151.398 262.428 154.455 260.51C157.511 258.593 160.95 257.956 163.88 257.956C164.856 260.51 164.517 265.7 155.346 266.004C154.073 266.004 152.417 266.515 150.888 267.793C148.596 269.711 134.458 274.183 127.58 269.711Z" fill="#791223"/>
<path fill-rule="evenodd" clip-rule="evenodd" d="M155.728 262.171C155.086 263.211 155.856 265.471 155.856 265.471C159.251 265.279 161.243 264.376 162.365 263.289C163.395 262.292 163.748 261.089 163.744 259.982C161.768 259.942 159.808 260.382 158.306 260.941C157.497 261.243 156.309 261.233 155.728 262.171Z" fill="white"/>
<path d="M173.894 179.869C173.893 179.868 173.893 179.868 173.893 179.868H127.426C115.62 179.868 128.887 200.503 135.897 209.766C145.271 222.155 157.902 242.721 157.902 242.721L135.897 251.303C135.897 251.303 115.329 225.379 101.995 208.706C84.7229 187.11 94.7296 173.53 107.048 169.833C116.902 166.876 170.656 177.86 173.893 179.868H173.894V179.869Z" fill="#03045E"/>
<path opacity="0.3" d="M108.029 196.405C99.3434 182.463 104.844 176.799 121.925 172.587C94.5663 172.587 95.7244 189.143 101.515 198.583C107.305 208.023 125.544 228.501 135.098 238.087C144.652 247.672 141.409 243.225 133.361 232.713C125.689 222.692 116.714 210.347 108.029 196.405Z" fill="#04709F"/>
<path d="M176.5 124.513C180.424 123.798 180.987 152.543 180.987 152.543C180.987 152.543 183.359 169.245 173.026 165.469C161.033 161.087 142.048 131.775 142.048 131.775L151.457 125.966C153.802 130.613 169.867 147.562 169.407 144.411C168.539 138.456 168.539 125.966 176.5 124.513Z" fill="#40DDC1"/>
<path d="M142.047 131.775L151.457 125.966C147.548 121.028 141.758 118.269 139.731 119.722C137.705 121.174 139.731 127.708 142.047 131.775Z" fill="#FED3CA"/>
<path d="M139.731 119.722C137.705 121.174 139.731 127.708 142.047 131.775C140.745 128.434 139.573 121.232 140.745 120.592C142.337 119.722 145.811 120.872 150.878 126.324L151.457 125.966C147.548 121.028 141.758 118.269 139.731 119.722Z" fill="#FDB3A3"/>
<path d="M146.371 121.963C146.486 120.322 144.358 119.944 143.279 119.96L142.856 121.716C143.525 121.586 144.823 121.527 144.668 122.321C144.512 123.114 143.239 123.527 142.622 123.635L141.753 125.308C143.809 124.925 146.228 124.014 146.371 121.963Z" fill="#EDDEBF"/>
<path d="M142.622 123.636L141.753 125.309C142.439 125.181 143.166 124.995 143.834 124.726C143.428 124.748 142.617 124.56 142.622 123.636Z" fill="#C8B493"/>
<path d="M142.856 121.717C143.525 121.587 144.823 121.528 144.668 122.322C144.608 122.628 144.381 122.878 144.089 123.075C145.138 122.762 145.247 122.287 145.18 121.805C145.113 121.322 144.435 120.998 144.112 120.95C143.79 120.902 143.722 120.797 143.615 120.538C143.529 120.331 143.556 120.071 143.579 119.966C143.473 119.962 143.372 119.96 143.279 119.961L142.856 121.717Z" fill="#C8B493"/>
<path d="M139.356 127.896C142.826 125.965 143.398 121.854 143.446 119.369L142.748 119.32C142.748 119.32 142.366 121.204 135.26 120.704C128.478 120.226 128.386 118.31 128.386 118.31L127.688 118.26C126.819 123.605 129.537 126.373 130.347 127.131C130.849 127.899 132.646 128.564 134.825 128.717C136.871 128.861 138.647 128.511 139.356 127.896Z" fill="#EDDEBF"/>
<path d="M133.901 128.3C132.265 126.979 131.7 123.587 131.518 121.899C131.053 121.74 129.173 121.03 128.157 120.506C128.098 121.356 128.41 123.817 129.592 125.433C130.786 127.067 132.927 128.14 133.901 128.3Z" fill="#F5EAD4"/>
<path d="M133.944 118.726C133.326 118.401 134.011 118.01 134.431 117.855C132.52 117.595 128.974 118.15 129.678 118.828C130.382 119.506 132.529 119.984 133.223 120.083C133.918 120.182 134.92 120.177 135.098 119.788C135.276 119.398 134.718 119.132 133.944 118.726Z" fill="#C4986B"/>
<path d="M143.448 119.344C143.356 120.657 139.754 121.472 135.403 121.166C131.051 120.86 127.598 119.548 127.69 118.236C127.795 116.735 131.383 116.107 135.735 116.413C140.086 116.719 143.561 117.718 143.448 119.344Z" fill="#956229"/>
<path d="M135.735 116.413C131.383 116.107 127.795 116.735 127.69 118.236C127.624 119.185 129.412 120.134 132.052 120.702C130.794 120.304 128.295 119.263 128.363 118.283C128.449 117.057 132.936 116.669 135.703 116.864C138.471 117.058 142.865 117.996 142.775 119.297C142.702 120.337 139.782 121.001 138.332 121.203C141.263 121.058 143.378 120.346 143.448 119.344C143.561 117.718 140.086 116.719 135.735 116.413Z" fill="#FCFEFB"/>
<path d="M135.703 116.863C132.936 116.669 128.449 117.057 128.363 118.283C128.355 118.401 128.384 118.521 128.445 118.64C128.644 118.059 130.369 116.991 135.668 117.364C140.968 117.736 142.537 119.02 142.66 119.615C142.727 119.513 142.767 119.407 142.775 119.297C142.865 117.996 138.471 117.058 135.703 116.863Z" fill="#B3865C"/>
<path d="M134.095 106.378C133.314 110.924 135.089 116.846 136.075 119.239C131.786 112.234 132.336 106.613 133.553 101.729C134.769 96.8448 135.302 91.7282 135.356 85.0157C136.387 92.6574 135.071 100.696 134.095 106.378Z" fill="#FEFFFE"/>
<path d="M136.133 108.975C135.864 106.899 136.97 104.609 137.556 103.723C135.107 106.107 135.223 108.613 135.709 110.899C136.195 113.186 136.318 115.471 136.142 118.373C136.912 115.231 136.469 111.57 136.133 108.975Z" fill="#FEFFFE"/>
<path d="M173.026 165.47C161.033 161.087 142.048 131.775 142.048 131.775L144.364 130.345C148.996 137.116 159.737 151.963 165.643 157.192C173.026 163.727 178.816 162.274 180.987 152.544C180.987 152.544 183.359 169.246 173.026 165.47Z" fill="#4CA6A8"/>
<path d="M169.407 144.41C168.539 138.456 168.539 125.966 176.5 124.513C171.868 126.401 169.697 135.696 170.565 143.103C171.434 150.51 167.381 147.751 161.735 142.377C157.218 138.078 151.843 130.36 149.72 127.038L151.457 125.966C153.802 130.612 169.867 147.562 169.407 144.41Z" fill="#4CA6A8"/>
<path d="M230.061 129.308C231.074 125.387 224.326 122.301 217.983 121.025C208.435 119.103 199.288 118.709 187.852 121.025C182.726 122.063 178.4 123.287 175.228 124.834C172.056 126.382 171.793 131.864 173.374 138.909C174.769 145.129 174.849 152.331 174.086 155.787C172.43 163.294 166.222 176.227 166.222 176.227L205.644 181.301C205.644 181.301 217.985 156.548 221.168 149.712C225.627 140.135 234.385 134.334 230.061 129.308Z" fill="#40DDC1"/>
<path opacity="0.45" d="M175.658 177.443C181.248 175.776 189.749 173.711 191.989 168.522C196.476 158.125 195.833 156.657 190.332 138.91C187.712 130.457 186.479 132.94 184.293 140.111C182.168 147.083 179.913 134.545 178.671 130.471C175.873 121.294 172.666 130.907 172.881 134.537C172.967 136.003 172.967 137.006 173.24 138.296C173.283 138.499 173.328 138.704 173.374 138.91C174.77 145.129 174.849 152.331 174.087 155.787C172.43 163.295 166.223 176.228 166.223 176.228L175.658 177.443Z" fill="#31C5AA"/>
<path d="M221.168 149.711C225.627 140.135 233.806 134.334 229.481 129.308C222.942 120.045 216.294 125.959 202.749 144.96C201.022 153.064 203.425 160.824 197.489 165.906C187.558 174.413 179.14 173.822 167.505 173.459C166.735 175.159 166.222 176.227 166.222 176.227L205.644 181.301C205.644 181.301 217.985 156.548 221.168 149.711Z" fill="url(#paint0_linear_166_2719)"/>
<path d="M169.415 169.101C167.705 173.137 166.222 176.227 166.222 176.227C170.758 176.562 182.203 177.292 191.699 177.525C203.569 177.815 182.29 170.553 169.415 169.101Z" fill="#B8A6E9"/>
<path d="M211.98 159.328C213.571 158.641 214.648 157.13 214.815 155.399C215.7 146.264 219.164 118.37 228.034 124.952C235.128 130.216 233.038 144.558 231.796 150.658C230.379 157.629 228.033 166.074 223.401 169.247C210.804 177.877 189.238 179.704 189.238 179.704L187.646 169.828L211.98 159.328Z" fill="#40DDC1"/>
<path d="M189.239 179.703L187.647 169.827C183.304 171.861 178.093 175.636 176.645 177.234C173.391 180.827 183.448 180.454 189.239 179.703Z" fill="#FED3CA"/>
<path d="M176.645 177.234C178.093 175.636 183.304 171.861 187.647 169.827C185.186 171.764 180.003 175.957 178.961 177.234C177.659 178.831 184.064 179.463 189.04 179.728C183.221 180.461 173.428 180.786 176.645 177.234Z" fill="#FDB3A3"/>
<path d="M223.401 169.247C210.804 177.876 189.238 179.704 189.238 179.704L188.911 177.67C196.017 176.508 211.705 173.313 217.611 169.827C224.994 165.471 227.165 158.499 229.047 149.495C230.929 140.491 230.349 131.052 228.034 124.952C235.128 130.215 233.038 144.558 231.796 150.657C230.379 157.629 228.033 166.073 223.401 169.247Z" fill="#31C5AA"/>
<path d="M124.079 175.566L119.191 138.741L168.293 140.429L173.014 177.249L124.079 175.566Z" fill="#F2F2F2"/>
<path d="M124.079 175.566L119.191 138.741L173.014 177.249L124.079 175.566Z" fill="#E8E8E8"/>
<path d="M168.292 140.43L173.014 177.249L175.17 177.323L169.997 139.155L120.73 137.461L119.191 138.741L168.292 140.43Z" fill="#E8E8E8"/>
<path d="M124.599 174.918C123.591 174.883 122.746 175.675 122.712 176.686C122.677 177.697 123.466 178.545 124.474 178.579L203.103 181.283C204.11 181.318 204.955 180.526 204.99 179.515C205.024 178.504 204.235 177.656 203.228 177.622L124.599 174.918Z" fill="#E8E8E8"/>
<path d="M173.369 176.595C172.361 176.561 171.516 177.352 171.481 178.363C171.447 179.374 172.236 180.222 173.244 180.256L203.103 181.283C204.11 181.318 204.955 180.526 204.99 179.515C205.024 178.504 204.235 177.657 203.228 177.622L173.369 176.595Z" fill="#F2F2F2"/>
<path d="M148.737 157.091C148.64 159.934 146.36 162.162 143.645 162.069C140.93 161.975 138.808 159.596 138.905 156.753C139.002 153.911 141.282 151.683 143.997 151.776C146.712 151.869 148.834 154.249 148.737 157.091Z" fill="#CACACA"/>
<path d="M210.372 104.036L212.11 115.406C212.11 115.406 218.568 102.48 217.321 95.1768C216.452 90.0936 214.037 88.4847 209.504 86.751C204.97 85.0172 198.76 85.9937 196.677 88.9659C195.01 91.3434 194.738 96.0976 194.738 98.079C195.596 96.3042 197.461 92.4583 198.637 92.0621C200.107 91.5669 210.372 104.036 210.372 104.036Z" fill="#982119"/>
<path d="M212.299 120.026C211.87 116.229 212.689 107.849 213.18 105.9C210.722 104.993 202.989 110.476 199.429 113.331C199.354 113.531 199.031 117.926 198.461 119.431C197.747 121.313 197.16 123.961 200.075 124.95C202.992 125.939 207.444 123.311 212.299 120.026Z" fill="#FEB187"/>
<path d="M199.43 113.331C199.354 113.531 199.031 117.926 198.461 119.431C204.565 117.887 210.509 111.748 212.718 108.871C212.875 107.529 213.041 106.454 213.181 105.9C210.722 104.993 202.989 110.476 199.43 113.331Z" fill="#E49E7A"/>
<path d="M200.212 115.602C207.692 113.428 210.144 109.665 210.835 107.965C211.173 108.816 212.162 108.997 213.515 108.428C214.868 107.858 217.149 104.899 216.829 102.161C216.509 99.424 213.655 100.994 213.017 102.235C212.38 103.477 210.272 104.403 210.261 102.603C210.251 101.024 211.149 97.5133 211.817 94.7563C211.951 94.2004 211.504 93.7038 210.921 93.7227C206.883 93.8533 202.231 91.9935 198.662 90.5175C197.629 90.0901 196.363 90.5099 195.896 91.545C192.058 100.061 193.984 108.706 195.941 112.427C198.038 116.415 198.918 115.998 200.212 115.602Z" fill="#FEB187"/>
<path d="M214.281 97.1076C219.492 92.3149 214.136 86.7961 210.228 85.7793C206.06 84.6954 201.659 86.1966 198.937 86.3604C192.872 86.7254 190.396 85.6341 188.225 83.0201C189.962 86.3599 191.843 88.3937 196.765 89.7008C192.632 89.6515 188.804 86.3604 185.764 82.295C188.515 98.8512 208.033 96.5283 209.648 96.3815C209.069 96.8172 206.753 97.5435 204.437 97.5435C206.898 98.4148 211.444 99.7164 214.281 97.1076Z" fill="#B3301E"/>
<path d="M200.634 86.7817C204.687 85.6683 213.343 85.0389 215.544 91.429C213.372 89.1056 211.056 85.7647 200.634 86.7817Z" fill="#CC4124"/>
<path d="M189.198 86.9299C191.223 89.1139 195.566 93.4624 200.634 91.2835C196.291 91.1383 194.12 90.4153 189.198 86.9299Z" fill="#CC4124"/>
<path d="M189.383 84.4716C195.463 89.4096 199.257 85.9859 199.95 87.9572C201.023 91.0072 191.41 88.3931 189.383 84.4716Z" fill="#CC4124"/>
<path d="M186.777 84.6169C188.08 88.1991 193.697 95.0154 204.003 94.7829C199.516 94.3903 190.83 91.4425 186.777 84.6169Z" fill="#CC4124"/>
<path d="M196.042 93.8722C199.189 96.0094 207.722 98.2316 215.938 91.985C212.072 94.3043 203.312 97.0213 196.042 93.8722Z" fill="#CC4124"/>
<path d="M198.623 118.995C198.648 119.719 198.925 121.39 199.358 122.169C199.71 122.803 199.898 123.398 200.498 123.755C200.819 123.946 201.257 124.07 201.902 124.096C202.405 124.116 202.972 124 203.549 123.809C205.095 123.298 206.712 122.252 207.359 121.863C208.247 121.33 210.147 120.2 210.939 119.643C211.73 119.087 212.088 118.643 212.189 117.107C212.992 117.468 213.545 117.777 214.289 118.414C215.542 119.488 216.459 120.671 217.237 121.546C214.062 123.802 207.256 128.521 205.425 129.349C205.179 129.477 205.108 129.366 204.948 128.859C204.82 128.454 203.962 125.323 203.549 123.809C202.972 124 202.405 124.116 201.902 124.096C201.257 124.07 200.819 123.946 200.498 123.755C199.485 124.757 197.375 126.835 197.037 127.127C196.616 127.493 196.492 127.557 196.138 127.003C195.784 126.449 193.836 121.898 193.777 120.012C194.445 119.52 195.891 119.081 198.623 118.995Z" fill="#FEF9F5"/>
<path d="M205.425 129.35C207.256 128.521 214.062 123.802 217.237 121.546C213.938 124.333 207.088 130.053 206.081 130.632C204.823 131.356 204.085 129.306 203.069 125.409C201.968 125.61 201.08 125.449 200.248 125.099C198.956 126.283 197.709 127.665 197.216 127.92C196.723 128.175 195.492 128.812 194.567 126.342C193.828 124.366 193.683 121.019 193.777 120.012C193.836 121.898 195.784 126.45 196.138 127.004C196.492 127.557 196.616 127.494 197.038 127.128C197.375 126.835 199.485 124.758 200.498 123.756C200.819 123.947 201.257 124.07 201.902 124.096C202.405 124.116 202.972 124 203.549 123.809C203.962 125.324 204.82 128.454 204.948 128.86C205.108 129.366 205.179 129.477 205.425 129.35Z" fill="#67C5C7"/>
<path d="M156.874 33.8435L166.88 28.4655V40.2971L156.874 46.0338V33.8435Z" fill="#D7D7D7"/>
<path d="M156.874 33.8435L146.868 28.4655V40.2971L156.874 46.0338V33.8435Z" fill="#E2E2E2"/>
<path d="M146.868 28.4655L156.874 33.8435L166.88 28.4655L156.874 22.3704L146.868 28.4655Z" fill="#ECECEC"/>
<path d="M84.1555 74.7218C81.3386 72.2988 77.0903 72.62 74.6697 75.439C72.2521 78.2546 72.5728 82.4964 75.3862 84.9166L86.8475 94.7753L86.9374 94.88L86.9533 94.8663L86.9693 94.88L87.0592 94.7753L98.5204 84.9166C101.334 82.4964 101.655 78.2546 99.237 75.439C96.8164 72.62 92.5681 72.2988 89.7512 74.7218L86.9533 77.1285L84.1555 74.7218Z" fill="#D7D7D7"/>
<g clip-path="url(#clip1_166_2719)">
<path d="M18.3023 117.199C17.6879 116.934 17.312 116.934 16.6977 117.199C14.5848 118.113 15.5797 125.889 16.4166 130.7C14.5907 126.171 11.3353 119.039 9.05838 119.377C8.3963 119.475 8.07688 119.674 7.69497 120.223C6.49197 121.955 10.5405 127.204 13.7255 130.876C9.92732 127.842 4.51871 124.01 2.83739 125.282C2.30363 125.686 2.11851 126.013 2.0472 126.679C1.81645 128.832 8.22792 131.583 12.8177 133.267C7.99361 132.473 1.05885 131.71 0.199247 133.698C-0.0664156 134.312 -0.0664156 134.688 0.199247 135.302C1.05885 137.29 7.9936 136.527 12.8177 135.733C8.2279 137.417 1.81644 140.168 2.0472 142.321C2.1185 142.987 2.30363 143.314 2.83738 143.718C4.5187 144.99 9.92725 141.158 13.7255 138.124C10.5404 141.796 6.49195 147.045 7.69495 148.777C8.07686 149.326 8.39627 149.525 9.05836 149.623C11.3353 149.961 14.5908 142.829 16.4166 138.3C15.5797 143.111 14.5848 150.887 16.6977 151.801C17.312 152.066 17.6879 152.066 18.3023 151.801C20.4151 150.887 19.4202 143.11 18.5833 138.299C20.4091 142.828 23.6647 149.961 25.9416 149.623C26.6037 149.525 26.9232 149.326 27.3051 148.777C28.5081 147.045 24.4596 141.796 21.2746 138.124C25.0728 141.158 30.4814 144.99 32.1627 143.718C32.6964 143.314 32.8816 142.987 32.9528 142.321C33.1836 140.168 26.7722 137.417 22.1824 135.733C27.0065 136.527 33.9411 137.29 34.8007 135.302C35.0664 134.688 35.0664 134.312 34.8007 133.698C33.9411 131.71 27.0065 132.473 22.1824 133.267C26.7722 131.583 33.1836 128.832 32.9528 126.679C32.8816 126.013 32.6964 125.686 32.1627 125.282C30.4814 124.01 25.0727 127.842 21.2745 130.876C24.4595 127.204 28.5081 121.955 27.3051 120.223C26.9232 119.674 26.6037 119.475 25.9416 119.377C23.6647 119.039 20.4091 126.171 18.5833 130.7C19.4202 125.89 20.4151 118.113 18.3023 117.199Z" fill="#ECECEC"/>
</g>
<path d="M57 193H66.7639C71.8649 193 76 197.135 76 202.236V212H66.2361C61.1351 212 57 207.865 57 202.764V193Z" fill="#ECECEC"/>
</g>
<g clip-path="url(#clip2_166_2719)">
<path d="M4.20001 28C13.5171 28 21.07 18.598 21.07 7C21.07 18.598 28.623 28 37.94 28C28.623 28 21.07 37.402 21.07 49C21.07 37.402 13.5171 28 4.20001 28Z" fill="#ECECEC"/>
</g>
<g clip-path="url(#clip3_166_2719)">
<path d="M264.9 162.5C271.333 162.5 276.548 156.008 276.548 148C276.548 156.008 281.764 162.5 288.197 162.5C281.764 162.5 276.548 168.992 276.548 177C276.548 168.992 271.333 162.5 264.9 162.5Z" fill="#ECECEC"/>
</g>
<g clip-path="url(#clip4_166_2719)">
<path fill-rule="evenodd" clip-rule="evenodd" d="M250 204.38C241.926 204.38 235.38 210.926 235.38 219C235.38 227.074 241.926 233.62 250 233.62C258.074 233.62 264.62 227.074 264.62 219C264.62 210.926 258.074 204.38 250 204.38ZM233.113 219C233.113 209.674 240.674 202.113 250 202.113C259.326 202.113 266.887 209.674 266.887 219C266.887 228.326 259.326 235.887 250 235.887C240.674 235.887 233.113 228.326 233.113 219Z" fill="#E2E0E5"/>
<path fill-rule="evenodd" clip-rule="evenodd" d="M250 208.12C243.991 208.12 239.12 212.991 239.12 219C239.12 225.009 243.991 229.88 250 229.88C256.009 229.88 260.88 225.009 260.88 219C260.88 212.991 256.009 208.12 250 208.12ZM236.853 219C236.853 211.739 242.739 205.853 250 205.853C257.261 205.853 263.147 211.739 263.147 219C263.147 226.261 257.261 232.147 250 232.147C242.739 232.147 236.853 226.261 236.853 219Z" fill="#E2E0E5"/>
<path fill-rule="evenodd" clip-rule="evenodd" d="M250 212.313C246.307 212.313 243.313 215.307 243.313 219C243.313 222.693 246.307 225.687 250 225.687C253.693 225.687 256.687 222.693 256.687 219C256.687 215.307 253.693 212.313 250 212.313ZM241.047 219C241.047 214.055 245.055 210.047 250 210.047C254.945 210.047 258.953 214.055 258.953 219C258.953 223.945 254.945 227.953 250 227.953C245.055 227.953 241.047 223.945 241.047 219Z" fill="#E2E0E5"/>
<path fill-rule="evenodd" clip-rule="evenodd" d="M250 216.507C248.623 216.507 247.507 217.623 247.507 219C247.507 220.377 248.623 221.493 250 221.493C251.377 221.493 252.493 220.377 252.493 219C252.493 217.623 251.377 216.507 250 216.507ZM245.24 219C245.24 216.371 247.371 214.24 250 214.24C252.629 214.24 254.76 216.371 254.76 219C254.76 221.629 252.629 223.76 250 223.76C247.371 223.76 245.24 221.629 245.24 219Z" fill="#E2E0E5"/>
</g>
<defs>
<linearGradient id="paint0_linear_166_2719" x1="223.067" y1="162.703" x2="207.334" y2="145.64" gradientUnits="userSpaceOnUse">
<stop stop-color="#3ADCCD"/>
<stop offset="1" stop-color="#3ADCCD" stop-opacity="0"/>
</linearGradient>
<clipPath id="clip0_166_2719">
<rect width="332" height="302" fill="white"/>
</clipPath>
<clipPath id="clip1_166_2719">
<rect width="35" height="35" fill="white" transform="translate(0 117)"/>
</clipPath>
<clipPath id="clip2_166_2719">
<rect width="42" height="42" fill="white" transform="translate(0 7)"/>
</clipPath>
<clipPath id="clip3_166_2719">
<rect width="29" height="29" fill="white" transform="translate(262 148)"/>
</clipPath>
<clipPath id="clip4_166_2719">
<rect width="34" height="34" fill="white" transform="translate(233 202)"/>
</clipPath>
</defs>
</svg>
