<svg width="32" height="32" viewBox="0 0 32 32" fill="none" xmlns="http://www.w3.org/2000/svg">
<path d="M16 0C7.125 0 0 7.1875 0 16C0 24.875 7.125 32 16 32C24.8125 32 32 24.875 32 16C32 7.1875 24.8125 0 16 0ZM22 17.5H17.5V22C17.5 22.875 16.8125 23.5 16 23.5C15.125 23.5 14.5 22.875 14.5 22V17.5H10C9.125 17.5 8.5 16.875 8.5 16C8.5 15.1875 9.125 14.5 10 14.5H14.5V10C14.5 9.1875 15.125 8.5 16 8.5C16.8125 8.5 17.5 9.1875 17.5 10V14.5H22C22.8125 14.5 23.5 15.1875 23.5 16C23.5 16.875 22.8125 17.5 22 17.5Z" fill="#ECECEC"/>
</svg>
