<svg width="69" height="31" viewBox="0 0 69 31" fill="none" xmlns="http://www.w3.org/2000/svg">
<path d="M4.864 22.112C4.11733 22.112 3.44533 21.984 2.848 21.728C2.25067 21.4613 1.78133 21.088 1.44 20.608C1.09867 20.128 0.928 19.568 0.928 18.928H2.88C2.92267 19.408 3.10933 19.8027 3.44 20.112C3.78133 20.4213 4.256 20.576 4.864 20.576C5.49333 20.576 5.984 20.4267 6.336 20.128C6.688 19.8187 6.864 19.424 6.864 18.944C6.864 18.5707 6.752 18.2667 6.528 18.032C6.31467 17.7973 6.04267 17.616 5.712 17.488C5.392 17.36 4.944 17.2213 4.368 17.072C3.64267 16.88 3.05067 16.688 2.592 16.496C2.144 16.2933 1.76 15.984 1.44 15.568C1.12 15.152 0.96 14.5973 0.96 13.904C0.96 13.264 1.12 12.704 1.44 12.224C1.76 11.744 2.208 11.376 2.784 11.12C3.36 10.864 4.02667 10.736 4.784 10.736C5.86133 10.736 6.74133 11.008 7.424 11.552C8.11733 12.0853 8.50133 12.8213 8.576 13.76H6.56C6.528 13.3547 6.336 13.008 5.984 12.72C5.632 12.432 5.168 12.288 4.592 12.288C4.06933 12.288 3.64267 12.4213 3.312 12.688C2.98133 12.9547 2.816 13.3387 2.816 13.84C2.816 14.1813 2.91733 14.464 3.12 14.688C3.33333 14.9013 3.6 15.072 3.92 15.2C4.24 15.328 4.67733 15.4667 5.232 15.616C5.968 15.8187 6.56533 16.0213 7.024 16.224C7.49333 16.4267 7.888 16.7413 8.208 17.168C8.53867 17.584 8.704 18.144 8.704 18.848C8.704 19.4133 8.54933 19.9467 8.24 20.448C7.94133 20.9493 7.49867 21.3547 6.912 21.664C6.336 21.9627 5.65333 22.112 4.864 22.112ZM10.2483 17.552C10.2483 16.6667 10.4296 15.8827 10.7923 15.2C11.1656 14.5173 11.6669 13.9893 12.2963 13.616C12.9363 13.232 13.6403 13.04 14.4083 13.04C15.1016 13.04 15.7043 13.1787 16.2163 13.456C16.7389 13.7227 17.1549 14.0587 17.4643 14.464V13.184H19.3043V22H17.4643V20.688C17.1549 21.104 16.7336 21.4507 16.2003 21.728C15.6669 22.0053 15.0589 22.144 14.3763 22.144C13.6189 22.144 12.9256 21.952 12.2963 21.568C11.6669 21.1733 11.1656 20.6293 10.7923 19.936C10.4296 19.232 10.2483 18.4373 10.2483 17.552ZM17.4643 17.584C17.4643 16.976 17.3363 16.448 17.0803 16C16.8349 15.552 16.5096 15.2107 16.1043 14.976C15.6989 14.7413 15.2616 14.624 14.7923 14.624C14.3229 14.624 13.8856 14.7413 13.4803 14.976C13.0749 15.2 12.7443 15.536 12.4883 15.984C12.2429 16.4213 12.1203 16.944 12.1203 17.552C12.1203 18.16 12.2429 18.6933 12.4883 19.152C12.7443 19.6107 13.0749 19.9627 13.4803 20.208C13.8963 20.4427 14.3336 20.56 14.7923 20.56C15.2616 20.56 15.6989 20.4427 16.1043 20.208C16.5096 19.9733 16.8349 19.632 17.0803 19.184C17.3363 18.7253 17.4643 18.192 17.4643 17.584ZM25.108 20.368L27.604 13.184H29.54L26.18 22H24.004L20.66 13.184H22.612L25.108 20.368ZM38.9988 17.376C38.9988 17.7067 38.9774 18.0053 38.9348 18.272H32.1988C32.2521 18.976 32.5134 19.5413 32.9828 19.968C33.4521 20.3947 34.0281 20.608 34.7108 20.608C35.6921 20.608 36.3854 20.1973 36.7908 19.376H38.7587C38.4921 20.1867 38.0068 20.8533 37.3028 21.376C36.6094 21.888 35.7454 22.144 34.7108 22.144C33.8681 22.144 33.1108 21.9573 32.4388 21.584C31.7774 21.2 31.2548 20.6667 30.8708 19.984C30.4974 19.2907 30.3108 18.4907 30.3108 17.584C30.3108 16.6773 30.4921 15.8827 30.8548 15.2C31.2281 14.5067 31.7454 13.9733 32.4068 13.6C33.0788 13.2267 33.8468 13.04 34.7108 13.04C35.5428 13.04 36.2841 13.2213 36.9348 13.584C37.5854 13.9467 38.0921 14.4587 38.4548 15.12C38.8174 15.7707 38.9988 16.5227 38.9988 17.376ZM37.0948 16.8C37.0841 16.128 36.8441 15.5893 36.3748 15.184C35.9054 14.7787 35.3241 14.576 34.6308 14.576C34.0014 14.576 33.4628 14.7787 33.0148 15.184C32.5668 15.5787 32.3001 16.1173 32.2148 16.8H37.0948Z" fill="black"/>
<path d="M58.5 16C56.8125 16 55.5 17.3594 55.5 19C55.5 20.6875 56.8125 22 58.5 22C60.1406 22 61.5 20.6875 61.5 19C61.5 17.3594 60.1406 16 58.5 16ZM68.2969 10.0938L64.3594 6.15625C63.9844 5.78125 63.375 5.5 62.8125 5.5H51C49.3125 5.5 48 6.85938 48 8.5V23.5C48 25.1875 49.3125 26.5 51 26.5H66C67.6406 26.5 69 25.1875 69 23.5V11.6875C69 11.125 68.7188 10.5156 68.2969 10.0938ZM54 7.75H60.75V11.5H54V7.75ZM66.75 23.5C66.75 23.9219 66.375 24.25 66 24.25H51C50.5781 24.25 50.25 23.9219 50.25 23.5V8.5C50.25 8.125 50.5781 7.75 51 7.75H51.75V12.625C51.75 13.2812 52.2188 13.75 52.875 13.75H61.875C62.4844 13.75 63 13.2812 63 12.625V7.9375L66.6562 11.6406C66.7031 11.6875 66.75 11.7344 66.75 11.8281V23.5Z" fill="black"/>
</svg>
