<svg width="91" height="26" viewBox="0 0 91 26" fill="none" xmlns="http://www.w3.org/2000/svg">
<path d="M83.6493 4.74953L85.5892 17.4895H81.7094L83.6493 4.74953ZM86.7974 0.302326H80.9039L76.8058 25.477H80.495L81.1898 20.9058H86.1303L86.8251 25.477H90.8893L86.7974 0.302326ZM57.9971 6.34884C57.9971 13.5442 65.8643 14.5116 65.8643 19.6995C65.8643 21.5135 65.0619 22.1453 63.7799 22.1453C62.4979 22.1453 61.6925 21.4984 61.6925 19.6995V17.8856H57.8895V19.4305C57.8895 23.4605 59.937 25.7793 63.8906 25.7793C67.8442 25.7793 69.8917 23.4756 69.8917 19.4305C69.8917 12.2351 62.0245 11.2677 62.0245 6.08279C62.0245 4.26884 62.7562 3.59767 64.0351 3.59767C65.314 3.59767 66.0488 4.28093 66.0488 6.08279V7.12581H69.8548V6.34884C69.8548 2.30372 67.8411 0 63.9275 0C60.0139 0 57.9971 2.30372 57.9971 6.34884ZM45.8074 25.477H49.9424V0.302326H46.3608V15.3642L42.2258 0.302326H37.1778V25.477H40.7994V7.23163L45.8074 25.477ZM18.077 14.5116V25.486H29.0554V21.8793H22.1013V10.9019H26.1318V14.5116H18.077ZM22.1013 3.88488H29.0554V0.302326H18.077V10.9019H22.1013V3.88488ZM0 25.477H10.6495V21.8793H4.02429V0.302326H0V25.477Z" fill="white"/>
</svg>
