<svg width="27" height="26" viewBox="0 0 27 26" fill="none" xmlns="http://www.w3.org/2000/svg">
<path d="M14.8125 1.84375L17.9062 8.07812L24.75 9.0625C25.9688 9.25 26.4844 10.75 25.5938 11.6406L20.625 16.4219L21.7969 23.2188C21.9844 24.4375 20.7188 25.375 19.5938 24.8125L13.5 21.625L7.35938 24.8594C6.23438 25.4219 4.96875 24.4844 5.15625 23.2656L6.32812 16.4688L1.35938 11.6406C0.46875 10.75 0.984375 9.25 2.20312 9.0625L9.04688 8.07812L12.1406 1.84375C12.7031 0.71875 14.2969 0.765625 14.8125 1.84375Z" fill="#FFC300"/>
<path d="M14.8125 1.84375L13.4593 2.49093L13.464 2.50076L13.4688 2.51053L14.8125 1.84375ZM17.9062 8.07812L16.5626 8.7449L16.9128 9.45067L17.6927 9.56285L17.9062 8.07812ZM24.75 9.0625L24.9781 7.57994L24.9708 7.57883L24.9636 7.57778L24.75 9.0625ZM25.5938 11.6406L26.6338 12.7215L26.6442 12.7115L26.6544 12.7013L25.5938 11.6406ZM20.625 16.4219L19.5849 15.341L19.0116 15.8927L19.1468 16.6767L20.625 16.4219ZM21.7969 23.2188L23.2794 22.9907L23.2774 22.9773L23.2751 22.9639L21.7969 23.2188ZM19.5938 24.8125L18.8985 26.1416L18.9107 26.148L18.9229 26.1541L19.5938 24.8125ZM13.5 21.625L14.1952 20.2959L13.4976 19.9309L12.801 20.2978L13.5 21.625ZM7.35938 24.8594L8.0302 26.201L8.04438 26.1939L8.05841 26.1865L7.35938 24.8594ZM5.15625 23.2656L3.67806 23.0108L3.67576 23.0241L3.67369 23.0375L5.15625 23.2656ZM6.32812 16.4688L7.80631 16.7236L7.9407 15.9442L7.37345 15.393L6.32812 16.4688ZM1.35938 11.6406L0.298715 12.7013L0.306327 12.7089L0.314047 12.7164L1.35938 11.6406ZM2.20312 9.0625L1.98957 7.57778L1.9823 7.57883L1.97504 7.57994L2.20312 9.0625ZM9.04688 8.07812L9.26043 9.56285L10.0403 9.45067L10.3905 8.7449L9.04688 8.07812ZM12.1406 1.84375L10.799 1.17293L10.797 1.17697L12.1406 1.84375ZM13.4688 2.51053L16.5626 8.7449L19.2499 7.41135L16.1562 1.17697L13.4688 2.51053ZM17.6927 9.56285L24.5364 10.5472L24.9636 7.57778L18.1198 6.5934L17.6927 9.56285ZM24.5219 10.5451C24.5325 10.5467 24.5356 10.5485 24.534 10.5478C24.5329 10.5473 24.5316 10.5464 24.5309 10.5458C24.5306 10.5455 24.5318 10.5465 24.5339 10.5496C24.536 10.5528 24.5382 10.5572 24.5399 10.5622C24.5436 10.5735 24.5416 10.5776 24.5426 10.5728C24.5432 10.5699 24.5443 10.5673 24.545 10.566C24.5458 10.5645 24.5436 10.5694 24.5331 10.58L26.6544 12.7013C28.4306 10.9251 27.3877 7.95065 24.9781 7.57994L24.5219 10.5451ZM24.5537 10.5598L19.5849 15.341L21.6651 17.5027L26.6338 12.7215L24.5537 10.5598ZM19.1468 16.6767L20.3187 23.4736L23.2751 22.9639L22.1032 16.167L19.1468 16.6767ZM20.3143 23.4468C20.3161 23.4585 20.3152 23.4628 20.3154 23.4616C20.3155 23.4608 20.3159 23.4594 20.3163 23.4585C20.3165 23.4579 20.3135 23.4645 20.3033 23.4719C20.2933 23.4792 20.2866 23.4799 20.2873 23.4799C20.2881 23.4798 20.2886 23.4799 20.2876 23.4797C20.2869 23.4796 20.2794 23.4783 20.2646 23.4709L18.9229 26.1541C21.1387 27.262 23.6517 25.4104 23.2794 22.9907L20.3143 23.4468ZM20.289 23.4834L14.1952 20.2959L12.8048 22.9541L18.8985 26.1416L20.289 23.4834ZM12.801 20.2978L6.66034 23.5322L8.05841 26.1865L14.199 22.9522L12.801 20.2978ZM6.68855 23.5177C6.67371 23.5252 6.66623 23.5265 6.66553 23.5266C6.66452 23.5268 6.665 23.5266 6.66579 23.5267C6.66653 23.5268 6.65984 23.5261 6.64983 23.5188C6.63962 23.5113 6.63658 23.5048 6.63687 23.5054C6.63723 23.5063 6.63762 23.5076 6.63773 23.5085C6.63789 23.5097 6.63701 23.5054 6.63881 23.4937L3.67369 23.0375C3.30142 25.4573 5.81441 27.3089 8.0302 26.201L6.68855 23.5177ZM6.63444 23.5205L7.80631 16.7236L4.84994 16.2139L3.67806 23.0108L6.63444 23.5205ZM7.37345 15.393L2.4047 10.5649L0.314047 12.7164L5.2828 17.5445L7.37345 15.393ZM2.42004 10.58C2.40952 10.5694 2.40728 10.5645 2.40812 10.566C2.40881 10.5673 2.40989 10.5699 2.4105 10.5728C2.41154 10.5776 2.40951 10.5735 2.41326 10.5622C2.41494 10.5572 2.41716 10.5528 2.41927 10.5496C2.4213 10.5465 2.42256 10.5455 2.42219 10.5458C2.42156 10.5464 2.42025 10.5473 2.41908 10.5478C2.41756 10.5485 2.42061 10.5467 2.43121 10.5451L1.97504 7.57994C-0.434532 7.95065 -1.47749 10.9251 0.298715 12.7013L2.42004 10.58ZM2.41668 10.5472L9.26043 9.56285L8.83332 6.5934L1.98957 7.57778L2.41668 10.5472ZM10.3905 8.7449L13.4843 2.51053L10.797 1.17697L7.70322 7.41135L10.3905 8.7449ZM13.4823 2.51457C13.4877 2.50362 13.4901 2.50247 13.4866 2.5061C13.4835 2.50947 13.479 2.51303 13.4745 2.51567C13.4703 2.51808 13.4682 2.51851 13.469 2.5183C13.4701 2.51803 13.4731 2.51744 13.4777 2.51749C13.4822 2.51754 13.4859 2.51821 13.488 2.5188C13.49 2.51936 13.4888 2.5193 13.4848 2.51695C13.4806 2.51441 13.4746 2.50991 13.4685 2.50331C13.4656 2.50014 13.4633 2.49711 13.4615 2.49455C13.4598 2.49196 13.4591 2.49058 13.4593 2.49093L16.1657 1.19657C15.1159 -0.998511 11.9242 -1.07754 10.799 1.17293L13.4823 2.51457Z" fill="white"/>
</svg>
