<svg width="193" height="46" viewBox="0 0 193 46" fill="none" xmlns="http://www.w3.org/2000/svg">
<path d="M9.74 7.8C10.5533 7.97333 11.2067 8.38 11.7 9.02C12.1933 9.64667 12.44 10.3667 12.44 11.18C12.44 12.3533 12.0267 13.2867 11.2 13.98C10.3867 14.66 9.24667 15 7.78 15H1.24V0.96H7.56C8.98667 0.96 10.1 1.28667 10.9 1.94C11.7133 2.59333 12.12 3.48 12.12 4.6C12.12 5.42667 11.9 6.11333 11.46 6.66C11.0333 7.20667 10.46 7.58667 9.74 7.8ZM4.66 6.64H6.9C7.46 6.64 7.88667 6.52 8.18 6.28C8.48667 6.02667 8.64 5.66 8.64 5.18C8.64 4.7 8.48667 4.33333 8.18 4.08C7.88667 3.82667 7.46 3.7 6.9 3.7H4.66V6.64ZM7.18 12.24C7.75333 12.24 8.19333 12.1133 8.5 11.86C8.82 11.5933 8.98 11.2133 8.98 10.72C8.98 10.2267 8.81333 9.84 8.48 9.56C8.16 9.28 7.71333 9.14 7.14 9.14H4.66V12.24H7.18ZM24.9436 9.24C24.9436 9.56 24.9236 9.89333 24.8836 10.24H17.1436C17.1969 10.9333 17.4169 11.4667 17.8036 11.84C18.2036 12.2 18.6903 12.38 19.2636 12.38C20.1169 12.38 20.7103 12.02 21.0436 11.3H24.6836C24.4969 12.0333 24.1569 12.6933 23.6636 13.28C23.1836 13.8667 22.5769 14.3267 21.8436 14.66C21.1103 14.9933 20.2903 15.16 19.3836 15.16C18.2903 15.16 17.3169 14.9267 16.4636 14.46C15.6103 13.9933 14.9436 13.3267 14.4636 12.46C13.9836 11.5933 13.7436 10.58 13.7436 9.42C13.7436 8.26 13.9769 7.24667 14.4436 6.38C14.9236 5.51333 15.5903 4.84667 16.4436 4.38C17.2969 3.91333 18.2769 3.68 19.3836 3.68C20.4636 3.68 21.4236 3.90667 22.2636 4.36C23.1036 4.81333 23.7569 5.46 24.2236 6.3C24.7036 7.14 24.9436 8.12 24.9436 9.24ZM21.4436 8.34C21.4436 7.75333 21.2436 7.28667 20.8436 6.94C20.4436 6.59333 19.9436 6.42 19.3436 6.42C18.7703 6.42 18.2836 6.58667 17.8836 6.92C17.4969 7.25333 17.2569 7.72667 17.1636 8.34H21.4436ZM26.0678 9.42C26.0678 8.26 26.3011 7.24667 26.7678 6.38C27.2478 5.51333 27.9078 4.84667 28.7478 4.38C29.6011 3.91333 30.5745 3.68 31.6678 3.68C33.0678 3.68 34.2345 4.04667 35.1678 4.78C36.1145 5.51333 36.7345 6.54667 37.0278 7.88H33.3878C33.0811 7.02667 32.4878 6.6 31.6078 6.6C30.9811 6.6 30.4811 6.84667 30.1078 7.34C29.7345 7.82 29.5478 8.51333 29.5478 9.42C29.5478 10.3267 29.7345 11.0267 30.1078 11.52C30.4811 12 30.9811 12.24 31.6078 12.24C32.4878 12.24 33.0811 11.8133 33.3878 10.96H37.0278C36.7345 12.2667 36.1145 13.2933 35.1678 14.04C34.2211 14.7867 33.0545 15.16 31.6678 15.16C30.5745 15.16 29.6011 14.9267 28.7478 14.46C27.9078 13.9933 27.2478 13.3267 26.7678 12.46C26.3011 11.5933 26.0678 10.58 26.0678 9.42ZM43.9372 15.16C42.8439 15.16 41.8572 14.9267 40.9772 14.46C40.1105 13.9933 39.4239 13.3267 38.9172 12.46C38.4239 11.5933 38.1772 10.58 38.1772 9.42C38.1772 8.27333 38.4305 7.26667 38.9372 6.4C39.4439 5.52 40.1372 4.84667 41.0172 4.38C41.8972 3.91333 42.8839 3.68 43.9772 3.68C45.0705 3.68 46.0572 3.91333 46.9372 4.38C47.8172 4.84667 48.5105 5.52 49.0172 6.4C49.5239 7.26667 49.7772 8.27333 49.7772 9.42C49.7772 10.5667 49.5172 11.58 48.9972 12.46C48.4905 13.3267 47.7905 13.9933 46.8972 14.46C46.0172 14.9267 45.0305 15.16 43.9372 15.16ZM43.9372 12.2C44.5905 12.2 45.1439 11.96 45.5972 11.48C46.0639 11 46.2972 10.3133 46.2972 9.42C46.2972 8.52667 46.0705 7.84 45.6172 7.36C45.1772 6.88 44.6305 6.64 43.9772 6.64C43.3105 6.64 42.7572 6.88 42.3172 7.36C41.8772 7.82667 41.6572 8.51333 41.6572 9.42C41.6572 10.3133 41.8705 11 42.2972 11.48C42.7372 11.96 43.2839 12.2 43.9372 12.2ZM65.8316 3.72C67.2182 3.72 68.3182 4.14 69.1316 4.98C69.9582 5.82 70.3716 6.98667 70.3716 8.48V15H66.9716V8.94C66.9716 8.22 66.7782 7.66667 66.3916 7.28C66.0182 6.88 65.4982 6.68 64.8316 6.68C64.1649 6.68 63.6382 6.88 63.2516 7.28C62.8782 7.66667 62.6916 8.22 62.6916 8.94V15H59.2916V8.94C59.2916 8.22 59.0982 7.66667 58.7116 7.28C58.3382 6.88 57.8182 6.68 57.1516 6.68C56.4849 6.68 55.9582 6.88 55.5716 7.28C55.1982 7.66667 55.0116 8.22 55.0116 8.94V15H51.5916V3.84H55.0116V5.24C55.3582 4.77333 55.8116 4.40667 56.3716 4.14C56.9316 3.86 57.5649 3.72 58.2716 3.72C59.1116 3.72 59.8582 3.9 60.5116 4.26C61.1782 4.62 61.6982 5.13333 62.0716 5.8C62.4582 5.18667 62.9849 4.68667 63.6516 4.3C64.3182 3.91333 65.0449 3.72 65.8316 3.72ZM83.2834 9.24C83.2834 9.56 83.2634 9.89333 83.2234 10.24H75.4834C75.5368 10.9333 75.7568 11.4667 76.1434 11.84C76.5434 12.2 77.0301 12.38 77.6034 12.38C78.4568 12.38 79.0501 12.02 79.3834 11.3H83.0234C82.8368 12.0333 82.4968 12.6933 82.0034 13.28C81.5234 13.8667 80.9168 14.3267 80.1834 14.66C79.4501 14.9933 78.6301 15.16 77.7234 15.16C76.6301 15.16 75.6568 14.9267 74.8034 14.46C73.9501 13.9933 73.2834 13.3267 72.8034 12.46C72.3234 11.5933 72.0834 10.58 72.0834 9.42C72.0834 8.26 72.3168 7.24667 72.7834 6.38C73.2634 5.51333 73.9301 4.84667 74.7834 4.38C75.6368 3.91333 76.6168 3.68 77.7234 3.68C78.8034 3.68 79.7634 3.90667 80.6034 4.36C81.4434 4.81333 82.0968 5.46 82.5634 6.3C83.0434 7.14 83.2834 8.12 83.2834 9.24ZM79.7834 8.34C79.7834 7.75333 79.5834 7.28667 79.1834 6.94C78.7834 6.59333 78.2834 6.42 77.6834 6.42C77.1101 6.42 76.6234 6.58667 76.2234 6.92C75.8368 7.25333 75.5968 7.72667 75.5034 8.34H79.7834ZM88.6459 9.4C88.6459 8.25333 88.8593 7.24667 89.2859 6.38C89.7259 5.51333 90.3193 4.84667 91.0659 4.38C91.8126 3.91333 92.6459 3.68 93.5659 3.68C94.3526 3.68 95.0393 3.84 95.6259 4.16C96.2259 4.48 96.6859 4.9 97.0059 5.42V3.84H100.426V15H97.0059V13.42C96.6726 13.94 96.2059 14.36 95.6059 14.68C95.0193 15 94.3326 15.16 93.5459 15.16C92.6393 15.16 91.8126 14.9267 91.0659 14.46C90.3193 13.98 89.7259 13.3067 89.2859 12.44C88.8593 11.56 88.6459 10.5467 88.6459 9.4ZM97.0059 9.42C97.0059 8.56667 96.7659 7.89333 96.2859 7.4C95.8193 6.90667 95.2459 6.66 94.5659 6.66C93.8859 6.66 93.3059 6.90667 92.8259 7.4C92.3593 7.88 92.1259 8.54667 92.1259 9.4C92.1259 10.2533 92.3593 10.9333 92.8259 11.44C93.3059 11.9333 93.8859 12.18 94.5659 12.18C95.2459 12.18 95.8193 11.9333 96.2859 11.44C96.7659 10.9467 97.0059 10.2733 97.0059 9.42ZM109.7 3.72C111.007 3.72 112.047 4.14667 112.82 5C113.607 5.84 114 7 114 8.48V15H110.6V8.94C110.6 8.19333 110.407 7.61333 110.02 7.2C109.633 6.78667 109.113 6.58 108.46 6.58C107.807 6.58 107.287 6.78667 106.9 7.2C106.513 7.61333 106.32 8.19333 106.32 8.94V15H102.9V3.84H106.32V5.32C106.667 4.82667 107.133 4.44 107.72 4.16C108.307 3.86667 108.967 3.72 109.7 3.72ZM129.355 12.52H124.115L123.275 15H119.695L124.775 0.96H128.735L133.815 15H130.195L129.355 12.52ZM128.475 9.88L126.735 4.74L125.015 9.88H128.475ZM138.781 0.2V15H135.361V0.2H138.781ZM144.68 0.2V15H141.26V0.2H144.68ZM156.476 15.14C155.45 15.14 154.53 14.9733 153.716 14.64C152.903 14.3067 152.25 13.8133 151.756 13.16C151.276 12.5067 151.023 11.72 150.996 10.8H154.636C154.69 11.32 154.87 11.72 155.176 12C155.483 12.2667 155.883 12.4 156.376 12.4C156.883 12.4 157.283 12.2867 157.576 12.06C157.87 11.82 158.016 11.4933 158.016 11.08C158.016 10.7333 157.896 10.4467 157.656 10.22C157.43 9.99333 157.143 9.80667 156.796 9.66C156.463 9.51333 155.983 9.34667 155.356 9.16C154.45 8.88 153.71 8.6 153.136 8.32C152.563 8.04 152.07 7.62667 151.656 7.08C151.243 6.53333 151.036 5.82 151.036 4.94C151.036 3.63333 151.51 2.61333 152.456 1.88C153.403 1.13333 154.636 0.76 156.156 0.76C157.703 0.76 158.95 1.13333 159.896 1.88C160.843 2.61333 161.35 3.64 161.416 4.96H157.716C157.69 4.50667 157.523 4.15333 157.216 3.9C156.91 3.63333 156.516 3.5 156.036 3.5C155.623 3.5 155.29 3.61333 155.036 3.84C154.783 4.05333 154.656 4.36667 154.656 4.78C154.656 5.23333 154.87 5.58667 155.296 5.84C155.723 6.09333 156.39 6.36667 157.296 6.66C158.203 6.96667 158.936 7.26 159.496 7.54C160.07 7.82 160.563 8.22667 160.976 8.76C161.39 9.29333 161.596 9.98 161.596 10.82C161.596 11.62 161.39 12.3467 160.976 13C160.576 13.6533 159.99 14.1733 159.216 14.56C158.443 14.9467 157.53 15.14 156.476 15.14ZM169.921 12.1V15H168.181C166.941 15 165.974 14.7 165.281 14.1C164.588 13.4867 164.241 12.4933 164.241 11.12V6.68H162.881V3.84H164.241V1.12H167.661V3.84H169.901V6.68H167.661V11.16C167.661 11.4933 167.741 11.7333 167.901 11.88C168.061 12.0267 168.328 12.1 168.701 12.1H169.921ZM171.146 9.4C171.146 8.25333 171.359 7.24667 171.786 6.38C172.226 5.51333 172.819 4.84667 173.566 4.38C174.313 3.91333 175.146 3.68 176.066 3.68C176.853 3.68 177.539 3.84 178.126 4.16C178.726 4.48 179.186 4.9 179.506 5.42V3.84H182.926V15H179.506V13.42C179.173 13.94 178.706 14.36 178.106 14.68C177.519 15 176.833 15.16 176.046 15.16C175.139 15.16 174.313 14.9267 173.566 14.46C172.819 13.98 172.226 13.3067 171.786 12.44C171.359 11.56 171.146 10.5467 171.146 9.4ZM179.506 9.42C179.506 8.56667 179.266 7.89333 178.786 7.4C178.319 6.90667 177.746 6.66 177.066 6.66C176.386 6.66 175.806 6.90667 175.326 7.4C174.859 7.88 174.626 8.54667 174.626 9.4C174.626 10.2533 174.859 10.9333 175.326 11.44C175.806 11.9333 176.386 12.18 177.066 12.18C177.746 12.18 178.319 11.9333 178.786 11.44C179.266 10.9467 179.506 10.2733 179.506 9.42ZM188.82 5.7C189.22 5.08667 189.72 4.60667 190.32 4.26C190.92 3.9 191.587 3.72 192.32 3.72V7.34H191.38C190.527 7.34 189.887 7.52667 189.46 7.9C189.033 8.26 188.82 8.9 188.82 9.82V15H185.4V3.84H188.82V5.7ZM0.66 37.96C0.66 36.5733 0.96 35.34 1.56 34.26C2.16 33.1667 2.99333 32.32 4.06 31.72C5.14 31.1067 6.36 30.8 7.72 30.8C9.38667 30.8 10.8133 31.24 12 32.12C13.1867 33 13.98 34.2 14.38 35.72H10.62C10.34 35.1333 9.94 34.6867 9.42 34.38C8.91333 34.0733 8.33333 33.92 7.68 33.92C6.62667 33.92 5.77333 34.2867 5.12 35.02C4.46667 35.7533 4.14 36.7333 4.14 37.96C4.14 39.1867 4.46667 40.1667 5.12 40.9C5.77333 41.6333 6.62667 42 7.68 42C8.33333 42 8.91333 41.8467 9.42 41.54C9.94 41.2333 10.34 40.7867 10.62 40.2H14.38C13.98 41.72 13.1867 42.92 12 43.8C10.8133 44.6667 9.38667 45.1 7.72 45.1C6.36 45.1 5.14 44.8 4.06 44.2C2.99333 43.5867 2.16 42.74 1.56 41.66C0.96 40.58 0.66 39.3467 0.66 37.96ZM15.7944 39.4C15.7944 38.2533 16.0077 37.2467 16.4344 36.38C16.8744 35.5133 17.4677 34.8467 18.2144 34.38C18.961 33.9133 19.7944 33.68 20.7144 33.68C21.501 33.68 22.1877 33.84 22.7744 34.16C23.3744 34.48 23.8344 34.9 24.1544 35.42V33.84H27.5744V45H24.1544V43.42C23.821 43.94 23.3544 44.36 22.7544 44.68C22.1677 45 21.481 45.16 20.6944 45.16C19.7877 45.16 18.961 44.9267 18.2144 44.46C17.4677 43.98 16.8744 43.3067 16.4344 42.44C16.0077 41.56 15.7944 40.5467 15.7944 39.4ZM24.1544 39.42C24.1544 38.5667 23.9144 37.8933 23.4344 37.4C22.9677 36.9067 22.3944 36.66 21.7144 36.66C21.0344 36.66 20.4544 36.9067 19.9744 37.4C19.5077 37.88 19.2744 38.5467 19.2744 39.4C19.2744 40.2533 19.5077 40.9333 19.9744 41.44C20.4544 41.9333 21.0344 42.18 21.7144 42.18C22.3944 42.18 22.9677 41.9333 23.4344 41.44C23.9144 40.9467 24.1544 40.2733 24.1544 39.42ZM36.8486 33.72C38.1553 33.72 39.1953 34.1467 39.9686 35C40.7553 35.84 41.1486 37 41.1486 38.48V45H37.7486V38.94C37.7486 38.1933 37.5553 37.6133 37.1686 37.2C36.7819 36.7867 36.2619 36.58 35.6086 36.58C34.9553 36.58 34.4353 36.7867 34.0486 37.2C33.6619 37.6133 33.4686 38.1933 33.4686 38.94V45H30.0486V33.84H33.4686V35.32C33.8153 34.8267 34.2819 34.44 34.8686 34.16C35.4553 33.8667 36.1153 33.72 36.8486 33.72ZM42.8452 39.4C42.8452 38.2533 43.0585 37.2467 43.4852 36.38C43.9252 35.5133 44.5185 34.8467 45.2652 34.38C46.0118 33.9133 46.8452 33.68 47.7652 33.68C48.4985 33.68 49.1652 33.8333 49.7652 34.14C50.3785 34.4467 50.8585 34.86 51.2052 35.38V30.2H54.6252V45H51.2052V43.4C50.8852 43.9333 50.4252 44.36 49.8252 44.68C49.2385 45 48.5518 45.16 47.7652 45.16C46.8452 45.16 46.0118 44.9267 45.2652 44.46C44.5185 43.98 43.9252 43.3067 43.4852 42.44C43.0585 41.56 42.8452 40.5467 42.8452 39.4ZM51.2052 39.42C51.2052 38.5667 50.9652 37.8933 50.4852 37.4C50.0185 36.9067 49.4452 36.66 48.7652 36.66C48.0852 36.66 47.5052 36.9067 47.0252 37.4C46.5585 37.88 46.3252 38.5467 46.3252 39.4C46.3252 40.2533 46.5585 40.9333 47.0252 41.44C47.5052 41.9333 48.0852 42.18 48.7652 42.18C49.4452 42.18 50.0185 41.9333 50.4852 41.44C50.9652 40.9467 51.2052 40.2733 51.2052 39.42ZM58.8194 32.68C58.2194 32.68 57.726 32.5067 57.3394 32.16C56.966 31.8 56.7794 31.36 56.7794 30.84C56.7794 30.3067 56.966 29.8667 57.3394 29.52C57.726 29.16 58.2194 28.98 58.8194 28.98C59.406 28.98 59.886 29.16 60.2594 29.52C60.646 29.8667 60.8394 30.3067 60.8394 30.84C60.8394 31.36 60.646 31.8 60.2594 32.16C59.886 32.5067 59.406 32.68 58.8194 32.68ZM60.5194 33.84V45H57.0994V33.84H60.5194ZM62.3178 39.4C62.3178 38.2533 62.5311 37.2467 62.9578 36.38C63.3978 35.5133 63.9911 34.8467 64.7378 34.38C65.4845 33.9133 66.3178 33.68 67.2378 33.68C67.9711 33.68 68.6378 33.8333 69.2378 34.14C69.8511 34.4467 70.3311 34.86 70.6778 35.38V30.2H74.0978V45H70.6778V43.4C70.3578 43.9333 69.8978 44.36 69.2978 44.68C68.7111 45 68.0245 45.16 67.2378 45.16C66.3178 45.16 65.4845 44.9267 64.7378 44.46C63.9911 43.98 63.3978 43.3067 62.9578 42.44C62.5311 41.56 62.3178 40.5467 62.3178 39.4ZM70.6778 39.42C70.6778 38.5667 70.4378 37.8933 69.9578 37.4C69.4911 36.9067 68.9178 36.66 68.2378 36.66C67.5578 36.66 66.9778 36.9067 66.4978 37.4C66.0311 37.88 65.7978 38.5467 65.7978 39.4C65.7978 40.2533 66.0311 40.9333 66.4978 41.44C66.9778 41.9333 67.5578 42.18 68.2378 42.18C68.9178 42.18 69.4911 41.9333 69.9578 41.44C70.4378 40.9467 70.6778 40.2733 70.6778 39.42ZM75.892 39.4C75.892 38.2533 76.1054 37.2467 76.532 36.38C76.972 35.5133 77.5654 34.8467 78.312 34.38C79.0587 33.9133 79.892 33.68 80.812 33.68C81.5987 33.68 82.2854 33.84 82.872 34.16C83.472 34.48 83.932 34.9 84.252 35.42V33.84H87.672V45H84.252V43.42C83.9187 43.94 83.452 44.36 82.852 44.68C82.2654 45 81.5787 45.16 80.792 45.16C79.8854 45.16 79.0587 44.9267 78.312 44.46C77.5654 43.98 76.972 43.3067 76.532 42.44C76.1054 41.56 75.892 40.5467 75.892 39.4ZM84.252 39.42C84.252 38.5667 84.012 37.8933 83.532 37.4C83.0654 36.9067 82.492 36.66 81.812 36.66C81.132 36.66 80.552 36.9067 80.072 37.4C79.6054 37.88 79.372 38.5467 79.372 39.4C79.372 40.2533 79.6054 40.9333 80.072 41.44C80.552 41.9333 81.132 42.18 81.812 42.18C82.492 42.18 83.0654 41.9333 83.532 41.44C84.012 40.9467 84.252 40.2733 84.252 39.42ZM96.3663 42.1V45H94.6263C93.3863 45 92.4196 44.7 91.7263 44.1C91.0329 43.4867 90.6863 42.4933 90.6863 41.12V36.68H89.3263V33.84H90.6863V31.12H94.1063V33.84H96.3463V36.68H94.1063V41.16C94.1063 41.4933 94.1863 41.7333 94.3463 41.88C94.5063 42.0267 94.7729 42.1 95.1463 42.1H96.3663ZM108.791 39.24C108.791 39.56 108.771 39.8933 108.731 40.24H100.991C101.045 40.9333 101.265 41.4667 101.651 41.84C102.051 42.2 102.538 42.38 103.111 42.38C103.965 42.38 104.558 42.02 104.891 41.3H108.531C108.345 42.0333 108.005 42.6933 107.511 43.28C107.031 43.8667 106.425 44.3267 105.691 44.66C104.958 44.9933 104.138 45.16 103.231 45.16C102.138 45.16 101.165 44.9267 100.311 44.46C99.4579 43.9933 98.7913 43.3267 98.3113 42.46C97.8313 41.5933 97.5913 40.58 97.5913 39.42C97.5913 38.26 97.8246 37.2467 98.2913 36.38C98.7713 35.5133 99.4379 34.8467 100.291 34.38C101.145 33.9133 102.125 33.68 103.231 33.68C104.311 33.68 105.271 33.9067 106.111 34.36C106.951 34.8133 107.605 35.46 108.071 36.3C108.551 37.14 108.791 38.12 108.791 39.24ZM105.291 38.34C105.291 37.7533 105.091 37.2867 104.691 36.94C104.291 36.5933 103.791 36.42 103.191 36.42C102.618 36.42 102.131 36.5867 101.731 36.92C101.345 37.2533 101.105 37.7267 101.011 38.34H105.291ZM120.434 36.68H118.594V45H115.174V36.68H113.934V33.84H115.174V33.52C115.174 32.1467 115.567 31.1067 116.354 30.4C117.14 29.68 118.294 29.32 119.814 29.32C120.067 29.32 120.254 29.3267 120.374 29.34V32.24C119.72 32.2 119.26 32.2933 118.994 32.52C118.727 32.7467 118.594 33.1533 118.594 33.74V33.84H120.434V36.68ZM127.121 45.16C126.027 45.16 125.041 44.9267 124.161 44.46C123.294 43.9933 122.607 43.3267 122.101 42.46C121.607 41.5933 121.361 40.58 121.361 39.42C121.361 38.2733 121.614 37.2667 122.121 36.4C122.627 35.52 123.321 34.8467 124.201 34.38C125.081 33.9133 126.067 33.68 127.161 33.68C128.254 33.68 129.241 33.9133 130.121 34.38C131.001 34.8467 131.694 35.52 132.201 36.4C132.707 37.2667 132.961 38.2733 132.961 39.42C132.961 40.5667 132.701 41.58 132.181 42.46C131.674 43.3267 130.974 43.9933 130.081 44.46C129.201 44.9267 128.214 45.16 127.121 45.16ZM127.121 42.2C127.774 42.2 128.327 41.96 128.781 41.48C129.247 41 129.481 40.3133 129.481 39.42C129.481 38.5267 129.254 37.84 128.801 37.36C128.361 36.88 127.814 36.64 127.161 36.64C126.494 36.64 125.941 36.88 125.501 37.36C125.061 37.8267 124.841 38.5133 124.841 39.42C124.841 40.3133 125.054 41 125.481 41.48C125.921 41.96 126.467 42.2 127.121 42.2ZM138.195 35.7C138.595 35.0867 139.095 34.6067 139.695 34.26C140.295 33.9 140.962 33.72 141.695 33.72V37.34H140.755C139.902 37.34 139.262 37.5267 138.835 37.9C138.408 38.26 138.195 38.9 138.195 39.82V45H134.775V33.84H138.195V35.7ZM153.168 36.68H151.328V45H147.908V36.68H146.668V33.84H147.908V33.52C147.908 32.1467 148.301 31.1067 149.088 30.4C149.875 29.68 151.028 29.32 152.548 29.32C152.801 29.32 152.988 29.3267 153.108 29.34V32.24C152.455 32.2 151.995 32.2933 151.728 32.52C151.461 32.7467 151.328 33.1533 151.328 33.74V33.84H153.168V36.68ZM158.195 35.7C158.595 35.0867 159.095 34.6067 159.695 34.26C160.295 33.9 160.962 33.72 161.695 33.72V37.34H160.755C159.902 37.34 159.262 37.5267 158.835 37.9C158.408 38.26 158.195 38.9 158.195 39.82V45H154.775V33.84H158.195V35.7ZM173.85 39.24C173.85 39.56 173.83 39.8933 173.79 40.24H166.05C166.103 40.9333 166.323 41.4667 166.71 41.84C167.11 42.2 167.597 42.38 168.17 42.38C169.023 42.38 169.617 42.02 169.95 41.3H173.59C173.403 42.0333 173.063 42.6933 172.57 43.28C172.09 43.8667 171.483 44.3267 170.75 44.66C170.017 44.9933 169.197 45.16 168.29 45.16C167.197 45.16 166.223 44.9267 165.37 44.46C164.517 43.9933 163.85 43.3267 163.37 42.46C162.89 41.5933 162.65 40.58 162.65 39.42C162.65 38.26 162.883 37.2467 163.35 36.38C163.83 35.5133 164.497 34.8467 165.35 34.38C166.203 33.9133 167.183 33.68 168.29 33.68C169.37 33.68 170.33 33.9067 171.17 34.36C172.01 34.8133 172.663 35.46 173.13 36.3C173.61 37.14 173.85 38.12 173.85 39.24ZM170.35 38.34C170.35 37.7533 170.15 37.2867 169.75 36.94C169.35 36.5933 168.85 36.42 168.25 36.42C167.677 36.42 167.19 36.5867 166.79 36.92C166.403 37.2533 166.163 37.7267 166.07 38.34H170.35ZM186.174 39.24C186.174 39.56 186.154 39.8933 186.114 40.24H178.374C178.427 40.9333 178.647 41.4667 179.034 41.84C179.434 42.2 179.921 42.38 180.494 42.38C181.347 42.38 181.941 42.02 182.274 41.3H185.914C185.727 42.0333 185.387 42.6933 184.894 43.28C184.414 43.8667 183.807 44.3267 183.074 44.66C182.341 44.9933 181.521 45.16 180.614 45.16C179.521 45.16 178.547 44.9267 177.694 44.46C176.841 43.9933 176.174 43.3267 175.694 42.46C175.214 41.5933 174.974 40.58 174.974 39.42C174.974 38.26 175.207 37.2467 175.674 36.38C176.154 35.5133 176.821 34.8467 177.674 34.38C178.527 33.9133 179.507 33.68 180.614 33.68C181.694 33.68 182.654 33.9067 183.494 34.36C184.334 34.8133 184.987 35.46 185.454 36.3C185.934 37.14 186.174 38.12 186.174 39.24ZM182.674 38.34C182.674 37.7533 182.474 37.2867 182.074 36.94C181.674 36.5933 181.174 36.42 180.574 36.42C180.001 36.42 179.514 36.5867 179.114 36.92C178.727 37.2533 178.487 37.7267 178.394 38.34H182.674ZM192.478 30.46L192.078 40.04H189.178L188.778 30.46H192.478ZM190.678 45.16C190.078 45.16 189.585 44.9867 189.198 44.64C188.825 44.28 188.638 43.84 188.638 43.32C188.638 42.7867 188.825 42.34 189.198 41.98C189.585 41.62 190.078 41.44 190.678 41.44C191.265 41.44 191.745 41.62 192.118 41.98C192.505 42.34 192.698 42.7867 192.698 43.32C192.698 43.84 192.505 44.28 192.118 44.64C191.745 44.9867 191.265 45.16 190.678 45.16Z" fill="white"/>
</svg>
