<svg width="276" height="203" viewBox="0 0 276 203" fill="none" xmlns="http://www.w3.org/2000/svg">
<g clip-path="url(#clip0_89_974)">
<path d="M248.345 179.431H230.062V179.569H248.345V179.431Z" fill="#EBEBEB"/>
<path d="M182.834 180.932H178.037V181.07H182.834V180.932Z" fill="#EBEBEB"/>
<path d="M229.51 174.307H218.917V174.445H229.51V174.307Z" fill="#EBEBEB"/>
<path d="M52.7989 175.234H28.958V175.372H52.7989V175.234Z" fill="#EBEBEB"/>
<path d="M61.2114 175.234H57.7173V175.372H61.2114V175.234Z" fill="#EBEBEB"/>
<path d="M124.283 177.564H72.5713V177.702H124.283V177.564Z" fill="#EBEBEB"/>
<path d="M131.597 145.92H25.0054C24.1695 145.92 23.3678 145.588 22.7767 144.996C22.1856 144.405 21.8535 143.603 21.8535 142.767V-7.10573C21.8608 -7.93712 22.1961 -8.73198 22.7864 -9.3173C23.3767 -9.90261 24.1743 -10.231 25.0054 -10.231H131.597C132.011 -10.231 132.42 -10.1494 132.803 -9.99096C133.185 -9.83252 133.533 -9.60028 133.825 -9.30751C134.118 -9.01475 134.35 -8.66718 134.509 -8.28466C134.667 -7.90214 134.749 -7.49216 134.749 -7.07812V142.767C134.749 143.181 134.667 143.591 134.509 143.974C134.35 144.356 134.118 144.704 133.825 144.996C133.533 145.289 133.185 145.521 132.803 145.68C132.42 145.838 132.011 145.92 131.597 145.92ZM25.0054 -10.1205C24.2065 -10.1191 23.4408 -9.80097 22.8759 -9.2359C22.311 -8.67083 21.993 -7.90486 21.9915 -7.10573V142.767C21.993 143.566 22.311 144.332 22.8759 144.897C23.4408 145.462 24.2065 145.78 25.0054 145.782H131.597C132.396 145.78 133.161 145.462 133.726 144.897C134.291 144.332 134.609 143.566 134.611 142.767V-7.10573C134.609 -7.90486 134.291 -8.67083 133.726 -9.2359C133.161 -9.80097 132.396 -10.1191 131.597 -10.1205H25.0054Z" fill="#EBEBEB"/>
<path d="M250.995 145.92H144.403C143.567 145.92 142.766 145.588 142.175 144.996C141.584 144.405 141.251 143.603 141.251 142.767V-7.10573C141.259 -7.93712 141.594 -8.73198 142.184 -9.3173C142.775 -9.90261 143.572 -10.231 144.403 -10.231H250.995C251.831 -10.231 252.632 -9.89878 253.223 -9.30751C253.814 -8.71624 254.147 -7.91431 254.147 -7.07812V142.767C254.147 143.603 253.814 144.405 253.223 144.996C252.632 145.588 251.831 145.92 250.995 145.92ZM144.403 -10.1205C143.604 -10.1191 142.839 -9.80097 142.274 -9.2359C141.709 -8.67083 141.391 -7.90486 141.389 -7.10573V142.767C141.391 143.566 141.709 144.332 142.274 144.897C142.839 145.462 143.604 145.78 144.403 145.782H250.995C251.793 145.78 252.559 145.462 253.124 144.897C253.689 144.332 254.007 143.566 254.009 142.767V-7.10573C254.007 -7.90486 253.689 -8.67083 253.124 -9.2359C252.559 -9.80097 251.793 -10.1191 250.995 -10.1205H144.403Z" fill="#EBEBEB"/>
<path d="M276 170.546H0V170.684H276V170.546Z" fill="#EBEBEB"/>
<path d="M65.8702 133.192C65.4065 127.859 59.9638 125.865 53.5109 126.428C47.058 126.992 42.0514 129.902 42.504 135.235L65.8702 133.192Z" fill="#F0F0F0"/>
<path d="M53.3011 123.994C56.293 123.729 57.2479 121.2 56.9885 118.207C56.729 115.214 55.3325 112.89 52.3517 113.149C49.3709 113.409 48.4049 115.943 48.6643 118.936C48.9238 121.929 50.3093 124.253 53.3011 123.994Z" fill="#F0F0F0"/>
<path d="M187.735 19.5856C187.788 20.1776 187.663 20.7718 187.378 21.2931C187.093 21.8143 186.659 22.2392 186.132 22.5139C185.605 22.7887 185.009 22.9009 184.418 22.8365C183.828 22.772 183.27 22.5338 182.814 22.1519C182.359 21.77 182.027 21.2616 181.861 20.6911C181.695 20.1205 181.702 19.5135 181.88 18.9467C182.059 18.38 182.402 17.879 182.865 17.5072C183.329 17.1354 183.892 16.9094 184.484 16.858C185.277 16.789 186.064 17.0376 186.674 17.549C187.283 18.0604 187.665 18.7929 187.735 19.5856Z" fill="#F5F5F5"/>
<path d="M204.334 18.1169C204.385 18.7077 204.26 19.3004 203.975 19.82C203.689 20.3397 203.256 20.7631 202.73 21.0366C202.204 21.31 201.609 21.4213 201.02 21.3564C200.431 21.2915 199.874 21.0532 199.42 20.6718C198.966 20.2904 198.635 19.7829 198.47 19.2135C198.304 18.6441 198.311 18.0384 198.49 17.473C198.668 16.9075 199.011 16.4078 199.473 16.0369C199.936 15.666 200.498 15.4406 201.088 15.3892C201.88 15.3219 202.666 15.5711 203.275 16.0823C203.883 16.5936 204.264 17.3252 204.334 18.1169Z" fill="#F5F5F5"/>
<path d="M220.938 16.6647C220.99 17.2567 220.866 17.8509 220.581 18.3722C220.295 18.8934 219.862 19.3183 219.335 19.593C218.808 19.8678 218.212 19.98 217.621 19.9156C217.03 19.8511 216.472 19.6129 216.017 19.231C215.562 18.8491 215.23 18.3407 215.064 17.7702C214.898 17.1996 214.904 16.5926 215.083 16.0258C215.262 15.4591 215.605 14.9581 216.068 14.5863C216.531 14.2145 217.095 13.9886 217.687 13.9371C218.479 13.8681 219.267 14.1167 219.876 14.6281C220.486 15.1395 220.868 15.872 220.938 16.6647Z" fill="#F5F5F5"/>
<path d="M189.215 36.4929C189.267 37.0848 189.143 37.6791 188.857 38.2003C188.572 38.7216 188.139 39.1464 187.612 39.4212C187.085 39.6959 186.489 39.8082 185.898 39.7437C185.307 39.6793 184.749 39.441 184.294 39.0591C183.839 38.6772 183.507 38.1688 183.341 37.5983C183.174 37.0278 183.181 36.4207 183.36 35.854C183.539 35.2872 183.881 34.7862 184.345 34.4144C184.808 34.0426 185.372 33.8167 185.964 33.7652C186.756 33.6963 187.544 33.9448 188.153 34.4562C188.763 34.9676 189.145 35.7001 189.215 36.4929Z" fill="#F5F5F5"/>
<path d="M205.813 35.0461C205.864 35.6368 205.739 36.2295 205.454 36.7492C205.168 37.2689 204.735 37.6922 204.209 37.9657C203.683 38.2392 203.088 38.3505 202.499 38.2856C201.91 38.2206 201.353 37.9824 200.899 37.601C200.445 37.2195 200.114 36.712 199.949 36.1426C199.783 35.5733 199.79 34.9676 199.969 34.4021C200.147 33.8367 200.49 33.3369 200.952 32.966C201.415 32.5951 201.977 32.3698 202.567 32.3184C202.959 32.2843 203.355 32.3278 203.73 32.4464C204.105 32.565 204.454 32.7565 204.755 33.0098C205.056 33.263 205.305 33.5732 205.487 33.9226C205.668 34.272 205.779 34.6538 205.813 35.0461Z" fill="#F5F5F5"/>
<path d="M222.417 33.5886C222.47 34.1805 222.345 34.7747 222.06 35.296C221.775 35.8173 221.341 36.2421 220.814 36.5169C220.288 36.7916 219.691 36.9038 219.101 36.8394C218.51 36.775 217.952 36.5367 217.497 36.1548C217.041 35.7729 216.71 35.2645 216.543 34.694C216.377 34.1235 216.384 33.5164 216.562 32.9497C216.741 32.3829 217.084 31.8819 217.547 31.5101C218.011 31.1383 218.574 30.9124 219.166 30.8609C219.959 30.792 220.746 31.0405 221.356 31.5519C221.965 32.0633 222.347 32.7958 222.417 33.5886Z" fill="#F5F5F5"/>
<path d="M190.694 53.422C190.745 54.0128 190.62 54.6055 190.335 55.1252C190.049 55.6449 189.616 56.0682 189.09 56.3417C188.564 56.6151 187.969 56.7264 187.38 56.6615C186.79 56.5966 186.234 56.3583 185.78 55.9769C185.326 55.5955 184.995 55.088 184.83 54.5186C184.664 53.9492 184.671 53.3435 184.85 52.7781C185.028 52.2127 185.37 51.7129 185.833 51.342C186.296 50.9711 186.858 50.7457 187.448 50.6943C187.84 50.6595 188.236 50.7025 188.612 50.8208C188.987 50.9392 189.336 51.1305 189.637 51.384C189.939 51.6374 190.187 51.9479 190.369 52.2976C190.55 52.6473 190.661 53.0295 190.694 53.422Z" fill="#F5F5F5"/>
<path d="M207.298 51.9646C207.351 52.5565 207.226 53.1507 206.941 53.672C206.656 54.1932 206.222 54.6181 205.695 54.8928C205.168 55.1676 204.572 55.2798 203.981 55.2154C203.391 55.1509 202.833 54.9127 202.377 54.5308C201.922 54.1489 201.59 53.6405 201.424 53.07C201.258 52.4994 201.265 51.8924 201.443 51.3256C201.622 50.7589 201.965 50.2579 202.428 49.8861C202.892 49.5143 203.455 49.2884 204.047 49.2369C204.84 49.168 205.627 49.4165 206.237 49.9279C206.846 50.4393 207.228 51.1718 207.298 51.9646Z" fill="#F5F5F5"/>
<path d="M223.897 50.5065C223.949 51.0985 223.825 51.6927 223.54 52.214C223.254 52.7352 222.821 53.1601 222.294 53.4348C221.767 53.7096 221.171 53.8218 220.58 53.7574C219.989 53.6929 219.431 53.4547 218.976 53.0728C218.521 52.6909 218.189 52.1825 218.023 51.612C217.857 51.0414 217.863 50.4344 218.042 49.8676C218.221 49.3009 218.564 48.7999 219.027 48.4281C219.49 48.0563 220.054 47.8303 220.646 47.7789C221.438 47.7099 222.226 47.9585 222.835 48.4699C223.445 48.9813 223.827 49.7138 223.897 50.5065Z" fill="#F5F5F5"/>
<path d="M220.309 51.4896L186.206 54.4712L216.445 17.7195L185.472 20.4306C185.385 20.4389 185.298 20.4298 185.215 20.4039C185.132 20.378 185.056 20.3358 184.989 20.2797C184.923 20.2236 184.868 20.1548 184.829 20.0774C184.79 19.9999 184.766 19.9154 184.76 19.8287C184.745 19.6552 184.799 19.4827 184.911 19.3491C185.022 19.2156 185.183 19.1319 185.356 19.1164L219.464 16.1348L189.22 52.8865L220.204 50.1754C220.378 50.1616 220.551 50.2169 220.686 50.3295C220.82 50.4421 220.905 50.6029 220.921 50.7773C220.928 50.8643 220.918 50.9519 220.891 51.0349C220.863 51.1179 220.82 51.1947 220.763 51.2609C220.706 51.3271 220.637 51.3813 220.559 51.4206C220.481 51.4598 220.396 51.4833 220.309 51.4896Z" fill="#E6E6E6"/>
<path d="M220.833 117.103C220.78 116.942 220.682 116.8 220.549 116.695C220.417 116.59 220.256 116.526 220.088 116.512C218.605 116.443 217.201 115.823 216.152 114.773C214.789 113.398 213.988 111.316 213.856 108.842C213.843 108.619 213.746 108.409 213.584 108.255C213.422 108.101 213.207 108.015 212.984 108.014C212.863 108.015 212.743 108.04 212.633 108.088C212.522 108.136 212.422 108.206 212.339 108.294C212.256 108.381 212.191 108.485 212.149 108.598C212.107 108.712 212.089 108.832 212.095 108.953C212.249 111.857 213.232 114.342 214.905 116.015C216.214 117.327 217.952 118.125 219.801 118.262H219.928C220.073 118.273 220.218 118.248 220.352 118.19C220.485 118.131 220.601 118.04 220.691 117.925C220.781 117.81 220.84 117.675 220.865 117.532C220.89 117.388 220.879 117.241 220.833 117.103Z" fill="#F0F0F0"/>
<path d="M219.067 127.699C211.753 127.058 206.476 122.072 204.809 114.287C204.782 114.17 204.78 114.049 204.801 113.931C204.822 113.813 204.868 113.7 204.934 113.6C205 113.5 205.085 113.414 205.185 113.348C205.285 113.282 205.397 113.237 205.515 113.215C205.739 113.176 205.969 113.223 206.158 113.349C206.347 113.474 206.481 113.668 206.531 113.889C208.027 120.885 212.719 125.368 219.227 125.937C226.359 126.561 234.015 121.868 235.389 110.04C235.413 109.81 235.527 109.598 235.705 109.45C235.884 109.302 236.114 109.231 236.344 109.251C236.461 109.26 236.575 109.293 236.679 109.348C236.783 109.402 236.875 109.477 236.95 109.568C237.025 109.658 237.08 109.763 237.114 109.875C237.147 109.988 237.158 110.106 237.145 110.223C235.826 121.376 228.495 128.521 219.067 127.699Z" fill="#F0F0F0"/>
<path d="M205.267 106.529C205.15 106.519 205.036 106.486 204.932 106.432C204.828 106.377 204.736 106.303 204.661 106.212C204.587 106.121 204.531 106.017 204.497 105.904C204.464 105.792 204.453 105.674 204.466 105.557C205.78 94.4034 213.111 87.2529 222.533 88.0812C230.813 88.8045 236.361 94.9887 237.227 104.304C237.236 104.421 237.222 104.538 237.185 104.649C237.148 104.761 237.09 104.864 237.013 104.952C236.935 105.041 236.842 105.113 236.736 105.164C236.631 105.216 236.517 105.246 236.399 105.253C236.169 105.264 235.944 105.185 235.771 105.032C235.598 104.88 235.49 104.666 235.472 104.436C234.672 96.0433 229.72 90.4831 222.384 89.8426C215.28 89.2186 207.591 93.9064 206.222 105.723C206.212 105.838 206.179 105.951 206.126 106.054C206.073 106.157 206 106.249 205.911 106.324C205.822 106.399 205.72 106.455 205.609 106.49C205.499 106.526 205.382 106.539 205.267 106.529Z" fill="#F0F0F0"/>
<path d="M219.426 122.966C218.114 122.861 216.829 122.54 215.622 122.017C215.51 121.967 215.409 121.895 215.325 121.805C215.242 121.714 215.179 121.608 215.139 121.491C215.099 121.375 215.083 121.252 215.093 121.13C215.103 121.007 215.139 120.888 215.197 120.78C215.301 120.59 215.471 120.445 215.675 120.374C215.879 120.303 216.102 120.31 216.301 120.393C217.452 120.888 218.682 121.172 219.933 121.233C225.337 121.542 231.045 117.71 231.608 108.456C231.95 102.752 229.996 98.1468 226.353 95.9437C226.165 95.8296 226.025 95.649 225.963 95.4375C225.901 95.2261 225.92 94.9989 226.016 94.8007C226.071 94.6912 226.148 94.5941 226.242 94.5155C226.336 94.4369 226.445 94.3784 226.563 94.3437C226.68 94.309 226.804 94.2989 226.925 94.3138C227.047 94.3288 227.164 94.3686 227.269 94.4308C231.492 96.9818 233.755 102.161 233.369 108.561C232.817 117.483 227.264 123.425 219.828 123L219.426 122.966Z" fill="#F0F0F0"/>
<path d="M211.565 117.462C211.463 117.53 211.348 117.578 211.228 117.6C211.107 117.623 210.983 117.62 210.864 117.593C210.744 117.565 210.631 117.513 210.533 117.441C210.434 117.368 210.351 117.275 210.29 117.169C208.654 114.126 207.934 110.674 208.22 107.23C208.739 98.6882 213.856 92.874 220.805 92.7746C220.928 92.7721 221.049 92.795 221.162 92.8417C221.276 92.8884 221.378 92.958 221.463 93.0462C221.548 93.1343 221.614 93.2391 221.656 93.3539C221.699 93.4686 221.717 93.591 221.711 93.7133C221.697 93.9341 221.601 94.1417 221.441 94.2951C221.282 94.4485 221.071 94.5364 220.849 94.5415C215.694 94.6409 210.516 98.5392 209.986 107.335C209.718 110.443 210.359 113.562 211.83 116.313C211.94 116.504 211.975 116.73 211.925 116.945C211.876 117.16 211.747 117.349 211.565 117.473V117.462Z" fill="#F0F0F0"/>
<path d="M223.632 116.766C223.548 116.57 223.538 116.349 223.604 116.146C223.67 115.943 223.807 115.771 223.99 115.662C226.314 114.265 227.739 111.333 227.761 107.793C227.761 104.961 226.96 102.564 225.448 101.046C224.86 100.464 224.16 100.008 223.391 99.7058C222.621 99.4039 221.797 99.2624 220.971 99.29C218.25 99.29 216.042 100.786 214.822 103.415C214.728 103.614 214.562 103.771 214.357 103.854C214.153 103.937 213.924 103.94 213.718 103.862C213.603 103.819 213.497 103.753 213.409 103.668C213.321 103.583 213.251 103.48 213.204 103.366C213.158 103.253 213.135 103.131 213.138 103.008C213.141 102.885 213.169 102.764 213.221 102.653C214.733 99.4336 217.565 97.5286 220.949 97.5231C222.009 97.4958 223.063 97.6832 224.049 98.0742C225.035 98.4651 225.931 99.0515 226.684 99.798C228.533 101.653 229.538 104.497 229.516 107.81C229.483 111.979 227.727 115.479 224.868 117.197C224.76 117.256 224.64 117.292 224.518 117.302C224.395 117.312 224.271 117.296 224.154 117.256C224.038 117.215 223.931 117.15 223.841 117.066C223.751 116.982 223.68 116.88 223.632 116.766Z" fill="#F0F0F0"/>
<path d="M217.273 110.245C217.155 110.293 217.028 110.315 216.901 110.31C216.773 110.304 216.649 110.271 216.536 110.213C216.422 110.154 216.323 110.072 216.244 109.972C216.166 109.872 216.11 109.756 216.08 109.632C216.02 109.395 215.975 109.146 215.937 108.892C215.434 105.579 217.212 102.714 220.066 102.2C220.73 102.056 221.419 102.069 222.078 102.238C222.736 102.408 223.346 102.73 223.858 103.177C223.954 103.263 224.03 103.369 224.079 103.487C224.128 103.606 224.151 103.734 224.144 103.863C224.137 103.991 224.101 104.116 224.039 104.229C223.977 104.342 223.891 104.439 223.786 104.514L223.731 104.552C223.565 104.667 223.365 104.722 223.164 104.707C222.963 104.692 222.773 104.608 222.627 104.469C222.317 104.208 221.951 104.022 221.558 103.926C221.164 103.83 220.753 103.827 220.358 103.917C218.183 104.309 217.355 106.573 217.665 108.605C217.698 108.804 217.731 108.997 217.78 109.157C217.834 109.365 217.81 109.586 217.714 109.777C217.617 109.969 217.455 110.12 217.256 110.201L217.273 110.245Z" fill="#F0F0F0"/>
<path d="M220.193 113.646C220.053 113.633 219.92 113.584 219.805 113.504C219.69 113.424 219.597 113.317 219.535 113.191C219.473 113.066 219.444 112.927 219.451 112.787C219.458 112.647 219.5 112.512 219.574 112.393L219.652 112.271C219.731 112.145 219.843 112.042 219.977 111.975C220.11 111.908 220.259 111.879 220.408 111.89C220.685 111.906 220.963 111.889 221.236 111.841C223.135 111.498 223.996 109.731 223.996 107.931C223.99 107.715 224.063 107.504 224.201 107.338C224.339 107.171 224.533 107.06 224.747 107.026C224.869 107.007 224.994 107.014 225.114 107.047C225.233 107.08 225.344 107.138 225.44 107.216C225.536 107.295 225.614 107.393 225.67 107.504C225.725 107.614 225.757 107.736 225.762 107.86C225.812 110.742 224.106 113.122 221.55 113.58C221.103 113.663 220.646 113.685 220.193 113.646Z" fill="#F0F0F0"/>
<path d="M220.584 110.383C220.139 110.346 219.716 110.169 219.375 109.879C219.035 109.589 218.794 109.199 218.686 108.765C218.654 108.643 218.653 108.515 218.681 108.391C218.71 108.268 218.767 108.153 218.848 108.057C218.93 107.96 219.033 107.884 219.15 107.836C219.267 107.787 219.393 107.767 219.519 107.777H219.723C219.878 107.793 220.024 107.854 220.145 107.952C220.266 108.05 220.355 108.181 220.402 108.329C220.422 108.406 220.464 108.475 220.525 108.527C220.585 108.578 220.66 108.609 220.739 108.616C221.164 108.655 221.236 108.064 221.247 107.92C221.272 107.705 221.232 107.488 221.131 107.296C220.979 107.112 220.9 106.878 220.91 106.639C220.924 106.464 220.99 106.297 221.1 106.159C221.209 106.021 221.358 105.92 221.526 105.867C221.693 105.814 221.873 105.813 222.042 105.863C222.211 105.913 222.36 106.012 222.472 106.148C222.903 106.692 223.101 107.385 223.024 108.075C222.881 109.527 221.86 110.493 220.584 110.383Z" fill="#F0F0F0"/>
<path d="M203.98 90.621C203.865 90.6113 203.753 90.5788 203.65 90.5255C203.547 90.4721 203.456 90.3989 203.381 90.3101C203.307 90.2213 203.251 90.1187 203.216 90.0081C203.182 89.8975 203.169 89.7812 203.18 89.6658L203.848 82.0073L211.504 82.681C211.62 82.6907 211.732 82.7231 211.835 82.7765C211.938 82.8299 212.029 82.9031 212.103 82.9919C212.178 83.0807 212.234 83.1833 212.268 83.2939C212.303 83.4045 212.315 83.5208 212.305 83.6362C212.295 83.7519 212.262 83.8645 212.209 83.9676C212.156 84.0707 212.083 84.1624 211.994 84.2372C211.905 84.3121 211.803 84.3687 211.692 84.4039C211.582 84.4391 211.465 84.4522 211.35 84.4424L205.454 83.9233L204.941 89.8204C204.93 89.9361 204.897 90.0486 204.843 90.1515C204.789 90.2544 204.716 90.3456 204.627 90.42C204.537 90.4943 204.434 90.5504 204.323 90.5849C204.213 90.6194 204.096 90.6316 203.98 90.621Z" fill="#F0F0F0"/>
<path d="M240.374 93.8072C240.258 93.7974 240.146 93.765 240.043 93.7116C239.94 93.6583 239.849 93.5851 239.775 93.4963C239.7 93.4075 239.644 93.3048 239.61 93.1942C239.575 93.0836 239.563 92.9673 239.573 92.8519L240.087 86.9549L234.191 86.4414C234.076 86.4309 233.963 86.3978 233.86 86.3439C233.757 86.29 233.666 86.2163 233.592 86.127C233.518 86.0378 233.462 85.9347 233.427 85.8238C233.393 85.7129 233.38 85.5963 233.391 85.4806C233.401 85.3651 233.433 85.2527 233.486 85.1499C233.54 85.047 233.613 84.9558 233.702 84.8814C233.79 84.8069 233.893 84.7508 234.004 84.7162C234.114 84.6817 234.231 84.6693 234.346 84.68L242.002 85.3481L241.334 93.0231C241.309 93.2538 241.194 93.4653 241.015 93.612C240.835 93.7587 240.605 93.8288 240.374 93.8072Z" fill="#F0F0F0"/>
<path d="M237.663 134.987L230.007 134.319C229.892 134.308 229.779 134.275 229.676 134.221C229.573 134.167 229.482 134.094 229.408 134.005C229.333 133.915 229.277 133.812 229.243 133.701C229.208 133.59 229.196 133.474 229.207 133.358C229.217 133.243 229.249 133.13 229.302 133.027C229.356 132.925 229.429 132.833 229.518 132.759C229.606 132.684 229.709 132.628 229.82 132.594C229.93 132.559 230.046 132.547 230.162 132.557L236.057 133.071L236.571 127.179C236.58 127.063 236.613 126.95 236.666 126.847C236.72 126.743 236.794 126.651 236.883 126.576C236.972 126.501 237.075 126.445 237.187 126.41C237.298 126.375 237.415 126.363 237.531 126.373C237.646 126.383 237.759 126.415 237.862 126.469C237.964 126.522 238.056 126.595 238.13 126.684C238.204 126.773 238.261 126.876 238.295 126.986C238.33 127.097 238.342 127.213 238.331 127.329L237.663 134.987Z" fill="#F0F0F0"/>
<path d="M207.166 132.303L199.509 131.63L200.177 123.977C200.2 123.743 200.313 123.528 200.493 123.377C200.672 123.226 200.904 123.152 201.138 123.171C201.253 123.181 201.366 123.214 201.469 123.268C201.572 123.322 201.663 123.396 201.737 123.485C201.811 123.574 201.867 123.677 201.902 123.788C201.936 123.899 201.949 124.016 201.938 124.131L201.425 130.018L207.315 130.537C207.43 130.546 207.543 130.579 207.646 130.632C207.749 130.685 207.841 130.758 207.915 130.847C207.99 130.936 208.047 131.038 208.082 131.149C208.117 131.26 208.13 131.376 208.12 131.492C208.101 131.726 207.989 131.943 207.81 132.095C207.631 132.247 207.4 132.322 207.166 132.303Z" fill="#F0F0F0"/>
<path d="M41.2511 115.733C41.1072 115.744 40.9649 115.698 40.8545 115.605C40.7441 115.512 40.6745 115.38 40.6604 115.236L40.252 110.532L44.955 110.118C45.0988 110.107 45.2412 110.153 45.3516 110.246C45.462 110.339 45.5316 110.471 45.5456 110.615C45.5549 110.758 45.5083 110.899 45.4156 111.008C45.3229 111.117 45.1914 111.186 45.0488 111.2L41.4277 111.52L41.7424 115.142C41.7532 115.285 41.708 115.427 41.6163 115.537C41.5246 115.648 41.3936 115.718 41.2511 115.733Z" fill="#E0E0E0"/>
<path d="M63.629 113.773C63.486 113.784 63.3444 113.739 63.2342 113.647C63.1239 113.555 63.0537 113.424 63.0383 113.282L62.7237 109.654L59.0971 109.974C58.9532 109.985 58.8109 109.939 58.7005 109.846C58.5901 109.753 58.5204 109.621 58.5064 109.477C58.4956 109.334 58.5416 109.191 58.6345 109.081C58.7273 108.97 58.8597 108.901 59.0032 108.887L63.7063 108.478L64.1203 113.182C64.1311 113.325 64.0859 113.467 63.9942 113.577C63.9025 113.688 63.7716 113.758 63.629 113.773Z" fill="#E0E0E0"/>
<path d="M65.9472 134.043L61.2387 134.457C61.0948 134.468 60.9525 134.422 60.8421 134.329C60.7317 134.236 60.6621 134.104 60.648 133.96C60.6372 133.816 60.6832 133.674 60.776 133.563C60.8689 133.453 61.0013 133.383 61.1448 133.369L64.7659 133.054L64.4513 129.432C64.4404 129.289 64.4856 129.148 64.5773 129.037C64.669 128.927 64.8 128.857 64.9426 128.841C65.0856 128.831 65.2272 128.876 65.3374 128.968C65.4476 129.059 65.5179 129.19 65.5332 129.333L65.9472 134.043Z" fill="#E0E0E0"/>
<path d="M47.1905 135.683L42.504 136.091L42.09 131.381C42.0807 131.238 42.1274 131.097 42.2201 130.988C42.3128 130.879 42.4443 130.81 42.5868 130.796C42.7289 130.787 42.8691 130.833 42.9781 130.924C43.0872 131.016 43.1566 131.146 43.1719 131.288L43.4921 134.915L47.1132 134.595C47.2571 134.584 47.3994 134.63 47.5098 134.723C47.6202 134.816 47.6898 134.948 47.7039 135.092C47.7091 135.164 47.7 135.237 47.677 135.306C47.654 135.375 47.6176 135.439 47.5699 135.494C47.5222 135.549 47.4642 135.594 47.399 135.626C47.3339 135.659 47.2631 135.678 47.1905 135.683Z" fill="#E0E0E0"/>
<path d="M63.2482 37.2549L45.2641 38.801L44.8942 34.588C44.8672 32.5773 45.6012 30.6307 46.9491 29.1388C48.2969 27.6468 50.1588 26.7198 52.1614 26.5438C54.164 26.3677 56.1591 26.9556 57.7464 28.1894C59.3338 29.4233 60.396 31.212 60.7201 33.1965L60.9298 35.6481L63.5297 35.4217L63.3145 32.9702C63.1934 31.5874 62.8013 30.242 62.1604 29.0108C61.5195 27.7796 60.6425 26.6868 59.5794 25.7946C58.5163 24.9025 57.288 24.2285 55.9645 23.8112C54.641 23.3939 53.2484 23.2415 51.866 23.3626C49.0741 23.6071 46.4938 24.951 44.6925 27.0987C43.8006 28.1621 43.1269 29.3908 42.7097 30.7146C42.2925 32.0385 42.1401 33.4316 42.2612 34.8144L42.631 39.0549C41.607 39.2554 40.6932 39.8276 40.0655 40.6614C39.4378 41.4952 39.1404 42.5318 39.2307 43.5716L40.5169 58.2812C40.5627 58.8363 40.7178 59.377 40.9731 59.872C41.2285 60.3671 41.5791 60.8068 42.0048 61.166C42.4305 61.5251 42.923 61.7966 43.4539 61.9648C43.9848 62.1331 44.5437 62.1947 45.0985 62.1463L65.263 60.3849C65.818 60.339 66.3585 60.1839 66.8534 59.9285C67.3483 59.6731 67.7879 59.3224 68.147 58.8965C68.506 58.4707 68.7774 57.9781 68.9456 57.447C69.1138 56.916 69.1754 56.3569 69.127 55.802L67.8409 41.0924C67.7916 40.5387 67.6337 40 67.3761 39.5074C67.1186 39.0147 66.7665 38.5776 66.3399 38.2212C65.9134 37.8648 65.4207 37.596 64.8902 37.4302C64.3597 37.2644 63.8018 37.2048 63.2482 37.2549ZM55.5975 48.5908L56.0391 53.6541C56.0688 53.8578 56.0566 54.0655 56.0033 54.2645C55.9499 54.4634 55.8566 54.6493 55.7289 54.8108C55.6012 54.9724 55.4419 55.1061 55.2607 55.2039C55.0795 55.3017 54.8802 55.3615 54.6752 55.3795C54.4701 55.3976 54.2635 55.3736 54.068 55.309C53.8725 55.2444 53.6922 55.1405 53.5383 55.0038C53.3843 54.8671 53.2599 54.7004 53.1726 54.5138C53.0853 54.3273 53.037 54.1249 53.0307 53.9191L52.5891 48.8503C52.1337 48.5705 51.7782 48.1542 51.5731 47.6606C51.368 47.167 51.3239 46.6212 51.4469 46.101C51.57 45.5808 51.854 45.1127 52.2585 44.7634C52.6629 44.4141 53.1673 44.2013 53.6997 44.1553C54.2321 44.1094 54.7655 44.2327 55.2238 44.5076C55.6821 44.7825 56.042 45.1951 56.2523 45.6865C56.4625 46.1779 56.5124 46.7232 56.3949 47.2446C56.2773 47.7661 55.9983 48.2372 55.5975 48.5908Z" fill="#EBEBEB"/>
<path d="M94.083 45.7523L92.267 42.7762C91.3516 42.9066 90.4223 42.9066 89.507 42.7762L87.6854 45.7413L87.3376 45.6474C86.1572 45.3363 85.0244 44.8664 83.9704 44.2504L83.6613 44.0737L84.4286 40.8491C84.4434 40.7866 84.4706 40.7276 84.5084 40.6756C84.5462 40.6236 84.594 40.5797 84.6489 40.5463C84.7039 40.5129 84.7649 40.4907 84.8284 40.4811C84.892 40.4715 84.9568 40.4746 85.0192 40.4902C85.1443 40.5203 85.2524 40.5989 85.3196 40.7086C85.3869 40.8184 85.4079 40.9503 85.378 41.0755L84.7708 43.5878C85.5552 44.0153 86.3822 44.3595 87.2382 44.6149L89.0157 41.7105L89.3414 41.7657C90.3725 41.9314 91.4235 41.9314 92.4546 41.7657L92.7748 41.7105L94.5522 44.6149C95.409 44.3615 96.2362 44.0172 97.0197 43.5878L96.2303 40.2749L96.4953 40.0816C97.2143 39.5629 97.8588 38.9479 98.4107 38.254C98.4874 38.154 98.6 38.0878 98.7246 38.0692C98.8492 38.0507 98.9762 38.0813 99.0786 38.1546C99.1323 38.1918 99.1778 38.2397 99.2124 38.2951C99.247 38.3506 99.2699 38.4125 99.2797 38.4771C99.2895 38.5417 99.286 38.6076 99.2695 38.6709C99.253 38.7341 99.2237 38.7933 99.1835 38.8448C98.6411 39.53 98.0163 40.1457 97.3233 40.678L98.1347 44.0627L97.8201 44.2394C96.7675 44.8543 95.6367 45.3242 94.4584 45.6364L94.083 45.7523ZM82.9216 39.2699C82.7726 39.0988 82.6235 38.9166 82.48 38.7178L79.0962 39.5295L78.9141 39.2203C78.3029 38.1637 77.8333 37.0312 77.5175 35.8521L77.4292 35.5042L80.3934 33.6821C80.2631 32.7664 80.2631 31.8369 80.3934 30.9213L77.4292 29.1047L77.5175 28.7513C77.8333 27.5739 78.3029 26.4433 78.9141 25.3887L79.0962 25.0739L82.48 25.8856C83.045 25.1461 83.7058 24.485 84.4451 23.9199L83.8324 21.3579C83.8025 21.2327 83.8235 21.1007 83.8908 20.991C83.958 20.8813 84.0661 20.8027 84.1912 20.7726C84.2528 20.7578 84.3168 20.7554 84.3793 20.7655C84.4419 20.7756 84.5018 20.798 84.5557 20.8313C84.6096 20.8647 84.6563 20.9084 84.6932 20.9599C84.7302 21.0114 84.7565 21.0697 84.7708 21.1315L85.5381 24.323L85.2731 24.5107C84.4227 25.1228 83.677 25.8687 83.0651 26.7194L82.8719 26.9844L79.5599 26.1948C79.1307 26.9785 78.7865 27.806 78.5332 28.663L81.4312 30.4409L81.3815 30.7612C81.1972 31.791 81.1972 32.8455 81.3815 33.8754L81.4312 34.2011L78.5332 35.9791C78.7875 36.834 79.1316 37.6594 79.5599 38.4417L82.8719 37.6521L83.0651 37.9172C83.2367 38.1675 83.4209 38.4089 83.6171 38.6405C83.7022 38.7298 83.7496 38.8484 83.7496 38.9718C83.7496 39.0951 83.7022 39.2138 83.6171 39.3031C83.5701 39.3481 83.5143 39.3831 83.4533 39.406C83.3923 39.4288 83.3273 39.4389 83.2623 39.4358C83.1972 39.4327 83.1334 39.4164 83.0749 39.3879C83.0163 39.3594 82.9642 39.3193 82.9216 39.2699ZM102.65 39.5405L101.403 39.2423C101.277 39.2122 101.169 39.1337 101.102 39.0239C101.035 38.9142 101.014 38.7823 101.044 38.6571C101.074 38.5319 101.152 38.4238 101.262 38.3565C101.372 38.2892 101.504 38.2682 101.629 38.2982L102.181 38.4251C102.607 37.6427 102.95 36.8172 103.202 35.9625L100.304 34.1846L100.359 33.8588C100.544 32.8289 100.544 31.7745 100.359 30.7446L100.304 30.4244L103.202 28.6464C102.951 27.7896 102.608 26.9621 102.181 26.1782L98.8689 26.9678L98.6812 26.7028C98.0678 25.8534 97.3224 25.1077 96.4732 24.4942L96.2082 24.3064L96.9976 20.9935C96.2139 20.5658 95.3867 20.2234 94.5302 19.972L92.7362 22.8984L92.416 22.8432C91.3848 22.6775 90.3339 22.6775 89.3027 22.8432L88.977 22.8984L87.2162 19.983L86.885 20.0824C86.7671 20.1213 86.6386 20.1124 86.5272 20.0577C86.4158 20.003 86.3302 19.9068 86.2888 19.7897C86.266 19.7293 86.2555 19.6648 86.2579 19.6002C86.2603 19.5356 86.2756 19.4722 86.3029 19.4135C86.3301 19.3549 86.3688 19.3023 86.4166 19.2588C86.4644 19.2153 86.5204 19.1818 86.5814 19.1603C86.8242 19.083 87.0726 19.0112 87.3155 18.9449L87.6633 18.8511L89.4849 21.8217C90.3998 21.6856 91.3299 21.6856 92.2449 21.8217L94.061 18.8511L94.4142 18.9449C95.5918 19.2594 96.7222 19.7292 97.7759 20.3419L98.0906 20.5241L97.2791 23.9089C98.0195 24.4727 98.6805 25.1339 99.2442 25.8746L102.628 25.0629L102.81 25.3776C103.424 26.4311 103.893 27.5621 104.207 28.7403L104.301 29.0936L101.331 30.9102C101.468 31.8254 101.468 32.7559 101.331 33.671L104.301 35.4932L104.207 35.841C103.893 37.021 103.424 38.1538 102.81 39.2092L102.65 39.5405ZM90.7379 37.0337C89.5351 36.986 88.3944 36.4867 87.5433 35.6353C86.6921 34.7839 86.1929 33.6429 86.1453 32.4397C86.1124 31.2563 86.5237 30.1035 87.2981 29.2083C88.0725 28.3131 89.154 27.7403 90.3294 27.6028C90.3984 27.5942 90.4684 27.6004 90.5348 27.6208C90.6012 27.6413 90.6625 27.6756 90.7147 27.7215C90.7669 27.7675 90.8087 27.8239 90.8375 27.8872C90.8662 27.9505 90.8812 28.0192 90.8814 28.0887C90.8809 28.2062 90.8373 28.3193 90.759 28.4068C90.6807 28.4943 90.573 28.5501 90.4564 28.5636C89.6384 28.6569 88.8737 29.0162 88.2796 29.5864C87.6856 30.1566 87.2951 30.9061 87.1682 31.7197C87.0412 32.5334 87.1848 33.3663 87.5769 34.0904C87.969 34.8145 88.5879 35.3899 89.3386 35.7281C90.0893 36.0663 90.9302 36.1486 91.7321 35.9624C92.5341 35.7763 93.2528 35.3319 93.7778 34.6976C94.3029 34.0632 94.6052 33.274 94.6384 32.4512C94.6716 31.6283 94.4338 30.8173 93.9616 30.1427C93.8934 30.0472 93.8636 29.9295 93.8779 29.813C93.8922 29.6965 93.9496 29.5895 94.0389 29.5133C94.0904 29.4675 94.151 29.4332 94.2168 29.4127C94.2826 29.3922 94.352 29.3859 94.4204 29.3942C94.4888 29.4026 94.5546 29.4254 94.6135 29.4612C94.6724 29.4969 94.723 29.5448 94.762 29.6016C95.2641 30.3202 95.5566 31.1643 95.6066 32.0396C95.6566 32.9149 95.4623 33.7869 95.0454 34.558C94.6284 35.3292 94.0052 35.9691 93.2455 36.4063C92.4858 36.8435 91.6195 37.0608 90.7434 37.0337H90.7379Z" fill="#F0F0F0"/>
<path d="M59.7873 86.1711L58.6115 84.2551C58.0168 84.3434 57.4123 84.3434 56.8175 84.2551L55.6418 86.1711L55.4154 86.1103C54.6534 85.9092 53.9219 85.6065 53.2406 85.2103L53.0418 85.0943L53.5386 83.0072C53.5583 82.927 53.6087 82.8578 53.6789 82.8144C53.7491 82.771 53.8335 82.757 53.914 82.7753C53.9543 82.785 53.9922 82.8026 54.0257 82.827C54.0592 82.8514 54.0875 82.8822 54.109 82.9176C54.1306 82.953 54.1449 82.9923 54.1512 83.0333C54.1576 83.0742 54.1557 83.116 54.1458 83.1563L53.7594 84.7796C54.2659 85.0571 54.8007 85.2793 55.3547 85.4422L56.5029 83.5704L56.7071 83.6035C57.3742 83.7139 58.0549 83.7139 58.7219 83.6035L58.9262 83.5704L60.0798 85.4422C60.6308 85.2758 61.1635 85.0538 61.6696 84.7796L61.1618 82.6483L61.3329 82.5213C61.797 82.1877 62.213 81.792 62.5694 81.3452C62.6179 81.2795 62.6903 81.2357 62.771 81.2233C62.8517 81.2109 62.9339 81.2309 62.9999 81.2789C63.0338 81.3031 63.0626 81.3337 63.0846 81.369C63.1065 81.4044 63.1213 81.4437 63.128 81.4848C63.1346 81.5259 63.1331 81.5679 63.1234 81.6084C63.1138 81.6488 63.0962 81.687 63.0717 81.7206C62.72 82.1636 62.316 82.5622 61.8683 82.9078L62.4203 85.1164L62.2161 85.2324C61.5352 85.6295 60.8036 85.9323 60.0412 86.1324L59.7873 86.1711ZM52.5782 81.9802L52.2911 81.6323L50.0831 82.1513L49.9672 81.9526C49.5783 81.2681 49.2831 80.5346 49.0895 79.7715L49.0288 79.5451L50.9442 78.369C50.8559 77.7741 50.8559 77.1694 50.9442 76.5745L49.0288 75.3984L49.0895 75.172C49.2896 74.4095 49.5923 73.6776 49.9893 72.9965L50.1052 72.7922L52.3132 73.3444C52.6683 72.8609 53.0817 72.4232 53.5442 72.0413L53.1522 70.3848C53.1424 70.3449 53.1407 70.3035 53.147 70.2629C53.1534 70.2223 53.1678 70.1834 53.1894 70.1484C53.211 70.1135 53.2393 70.0831 53.2728 70.0593C53.3062 70.0354 53.344 70.0184 53.3841 70.0093C53.4646 69.991 53.549 70.0051 53.6192 70.0485C53.6894 70.0918 53.7398 70.1611 53.7594 70.2412L54.2562 72.3008L54.0796 72.4278C53.5326 72.8203 53.0534 73.2997 52.661 73.8468L52.534 74.018L50.4033 73.51C50.1292 74.0163 49.9072 74.5491 49.7409 75.1002L51.6122 76.2487L51.5791 76.4586C51.5221 76.7906 51.4926 77.1267 51.4907 77.4635C51.4926 77.8022 51.5221 78.1401 51.5791 78.4739L51.6122 78.6782L49.7409 79.8267C49.9062 80.38 50.1282 80.9148 50.4033 81.4225L52.534 80.909L52.661 81.0801C52.775 81.2436 52.8985 81.4004 53.0308 81.5495C53.0852 81.6069 53.1154 81.683 53.1154 81.7621C53.1154 81.8411 53.0852 81.9172 53.0308 81.9746C53.0023 82.0061 52.9675 82.0313 52.9288 82.0488C52.8901 82.0662 52.8482 82.0755 52.8057 82.076C52.7632 82.0765 52.7211 82.0683 52.682 82.0518C52.6428 82.0353 52.6075 82.0109 52.5782 81.9802ZM65.3238 82.1513L64.5179 81.9636C64.4777 81.9539 64.4397 81.9363 64.4062 81.9119C64.3728 81.8875 64.3444 81.8567 64.3229 81.8213C64.3014 81.7859 64.287 81.7466 64.2807 81.7056C64.2744 81.6647 64.2762 81.6229 64.2861 81.5826C64.2952 81.5425 64.3121 81.5047 64.336 81.4712C64.3599 81.4378 64.3902 81.4095 64.4251 81.3879C64.4601 81.3663 64.499 81.3519 64.5395 81.3455C64.5801 81.3391 64.6216 81.3409 64.6614 81.3507L65.0092 81.4335C65.2866 80.9269 65.5087 80.3919 65.6716 79.8378L63.8003 78.6893L63.8334 78.485C63.8904 78.1511 63.9199 77.8132 63.9218 77.4745C63.9199 77.1377 63.8904 76.8016 63.8334 76.4696L63.8003 76.2598L65.6716 75.1113C65.5077 74.5593 65.2856 74.0262 65.0092 73.5211L62.8785 74.0291L62.7515 73.8579C62.3591 73.3107 61.8799 72.8314 61.3329 72.4388L61.1618 72.3118L61.6696 70.1805C61.1646 69.904 60.6317 69.6819 60.0798 69.5179L58.9262 71.3897L58.7219 71.3566C58.0549 71.2462 57.3742 71.2462 56.7071 71.3566L56.5029 71.3897L55.3547 69.5179L55.1394 69.5842C55.0626 69.6088 54.9791 69.6024 54.9069 69.5663C54.8347 69.5302 54.7795 69.4672 54.753 69.3909C54.7382 69.3522 54.7313 69.3109 54.7327 69.2694C54.7341 69.2279 54.7439 69.1872 54.7614 69.1496C54.7789 69.112 54.8038 69.0782 54.8346 69.0505C54.8654 69.0227 54.9015 69.0014 54.9407 68.9878L55.4154 68.8443L55.6418 68.7891L56.8175 70.7051C57.4123 70.6167 58.0168 70.6167 58.6115 70.7051L59.7873 68.7891L60.0136 68.8443C60.7754 69.0487 61.5067 69.3532 62.1885 69.7498L62.3927 69.8658L61.8407 72.0744C62.316 72.4422 62.7427 72.8689 63.1103 73.3444L65.3183 72.7922L65.4342 72.9965C65.8312 73.6776 66.1339 74.4095 66.334 75.172L66.3947 75.3984L64.4793 76.5745C64.5676 77.1694 64.5676 77.7741 64.4793 78.369L66.3947 79.5451L66.334 79.7715C66.133 80.5338 65.8303 81.2655 65.4342 81.947L65.3238 82.1513ZM57.629 80.5335C56.8789 80.482 56.1741 80.156 55.6491 79.6177C55.1241 79.0793 54.8158 78.3664 54.7831 77.6151C54.7503 76.8637 54.9953 76.1267 55.4714 75.5446C55.9475 74.9626 56.6213 74.5764 57.364 74.4597C57.4083 74.4551 57.453 74.4598 57.4954 74.4735C57.5378 74.4871 57.5768 74.5095 57.6101 74.5391C57.6433 74.5687 57.67 74.605 57.6885 74.6455C57.707 74.686 57.7168 74.7299 57.7173 74.7745C57.7177 74.8511 57.6897 74.9251 57.6388 74.9822C57.5878 75.0393 57.5174 75.0755 57.4413 75.0837C56.9757 75.137 56.5354 75.3238 56.1736 75.6218C55.8118 75.9197 55.5439 76.316 55.4022 76.7628C55.2605 77.2096 55.251 77.6879 55.375 78.14C55.4989 78.5921 55.7509 78.9986 56.1007 79.3106C56.4504 79.6226 56.883 79.8268 57.3461 79.8984C57.8092 79.9701 58.2832 79.9061 58.7108 79.7144C59.1384 79.5226 59.5015 79.2112 59.7562 78.8177C60.0108 78.4242 60.1462 77.9654 60.1461 77.4966C60.1471 76.9982 59.9928 76.5118 59.7045 76.1052C59.6623 76.0425 59.6442 75.9667 59.6533 75.8916C59.6624 75.8166 59.6982 75.7474 59.7542 75.6966C59.7874 75.6667 59.8266 75.6442 59.8693 75.6307C59.9119 75.6172 59.9569 75.6129 60.0012 75.6181C60.0456 75.6233 60.0884 75.6379 60.1267 75.661C60.165 75.6841 60.198 75.715 60.2234 75.7518C60.5462 76.2164 60.7339 76.7614 60.7656 77.3264C60.7973 77.8913 60.6718 78.4539 60.4029 78.9517C60.1341 79.4495 59.7325 79.863 59.2427 80.1461C58.753 80.4293 58.1944 80.571 57.629 80.5556V80.5335Z" fill="#E6E6E6"/>
<path d="M138 195.178C197.109 195.178 245.027 192.379 245.027 188.927C245.027 185.475 197.109 182.677 138 182.677C78.8904 182.677 30.9727 185.475 30.9727 188.927C30.9727 192.379 78.8904 195.178 138 195.178Z" fill="#F5F5F5"/>
<path d="M200.625 39.9214H182.652L169.956 185.278H187.929C190.451 185.229 192.869 184.259 194.726 182.55C196.582 180.841 197.75 178.512 198.008 176.001L209.098 49.1922C209.227 48.0107 209.102 46.8153 208.733 45.6856C208.364 44.5559 207.758 43.5179 206.957 42.6407C206.155 41.7635 205.175 41.0673 204.084 40.5984C202.992 40.1295 201.813 39.8987 200.625 39.9214Z" fill="#5463FF"/>
<path d="M196.959 39.9213H136.129C133.606 39.9686 131.188 40.9374 129.33 42.6452C127.473 44.353 126.304 46.6816 126.044 49.192L114.954 176.001C114.827 177.182 114.951 178.376 115.32 179.505C115.689 180.634 116.294 181.671 117.094 182.548C117.894 183.426 118.872 184.122 119.962 184.593C121.052 185.064 122.229 185.297 123.417 185.277H184.241C186.761 185.223 189.174 184.251 191.027 182.543C192.88 180.835 194.045 178.508 194.304 176.001L205.394 49.192C205.522 48.0138 205.399 46.8218 205.032 45.6948C204.665 44.5679 204.063 43.5318 203.265 42.6553C202.468 41.7787 201.493 41.0817 200.406 40.6103C199.319 40.139 198.144 39.9041 196.959 39.9213Z" fill="#090C9B"/>
<path opacity="0.3" d="M196.959 39.9213H136.129C133.606 39.9686 131.188 40.9374 129.33 42.6452C127.473 44.353 126.304 46.6816 126.044 49.192L114.954 176.001C114.827 177.182 114.951 178.376 115.32 179.505C115.689 180.634 116.294 181.671 117.094 182.548C117.894 183.426 118.872 184.122 119.962 184.593C121.052 185.064 122.229 185.297 123.417 185.277H184.241C186.761 185.223 189.174 184.251 191.027 182.543C192.88 180.835 194.045 178.508 194.304 176.001L205.394 49.192C205.522 48.0138 205.399 46.8218 205.032 45.6948C204.665 44.5679 204.063 43.5318 203.265 42.6553C202.468 41.7787 201.493 41.0817 200.406 40.6103C199.319 40.139 198.144 39.9041 196.959 39.9213Z" fill="white"/>
<path opacity="0.4" d="M196.7 42.892H180.659C180.181 42.8959 179.715 43.0433 179.321 43.3149C178.927 43.5866 178.624 43.9702 178.451 44.416C177.818 46.0536 176.712 47.4656 175.274 48.4716C173.835 49.4777 172.13 50.0323 170.375 50.0646H160.914C159.261 50.0979 157.649 49.5537 156.354 48.5257C155.059 47.4977 154.163 46.0502 153.821 44.4326C153.729 43.9949 153.488 43.603 153.138 43.3247C152.788 43.0463 152.352 42.8992 151.905 42.9086H135.87C134.155 42.9389 132.511 43.5968 131.249 44.7578C129.986 45.9187 129.193 47.5023 129.019 49.2087L117.924 176.018C117.835 176.821 117.919 177.633 118.169 178.401C118.419 179.17 118.829 179.876 119.374 180.472C119.918 181.069 120.583 181.543 121.325 181.862C122.067 182.181 122.869 182.339 123.676 182.323H184.506C186.221 182.292 187.865 181.633 189.128 180.471C190.39 179.309 191.183 177.725 191.357 176.018L202.446 49.2087C202.537 48.4054 202.455 47.5921 202.206 46.823C201.957 46.0539 201.547 45.3468 201.003 44.7489C200.459 44.151 199.794 43.6761 199.052 43.3559C198.31 43.0357 197.508 42.8775 196.7 42.892Z" fill="white"/>
<path d="M181.542 111.796H138.972C138.679 111.801 138.389 111.743 138.12 111.627C137.852 111.511 137.611 111.34 137.413 111.124C137.216 110.907 137.067 110.652 136.976 110.374C136.885 110.095 136.854 109.801 136.885 109.51L137.101 107.069C137.164 106.451 137.452 105.876 137.909 105.455C138.367 105.034 138.963 104.795 139.585 104.783H182.16C182.453 104.779 182.743 104.836 183.012 104.952C183.281 105.068 183.522 105.24 183.719 105.456C183.916 105.672 184.065 105.928 184.156 106.206C184.247 106.484 184.278 106.778 184.247 107.069L184.037 109.51C183.973 110.13 183.683 110.705 183.223 111.126C182.764 111.548 182.166 111.786 181.542 111.796Z" fill="white"/>
<path d="M180.626 122.287H138.05C137.758 122.292 137.468 122.235 137.199 122.119C136.931 122.003 136.69 121.831 136.493 121.615C136.296 121.398 136.148 121.143 136.057 120.864C135.967 120.586 135.937 120.292 135.969 120.001L136.179 117.561C136.243 116.942 136.531 116.369 136.989 115.948C137.446 115.527 138.041 115.287 138.663 115.275H181.239C181.531 115.27 181.821 115.327 182.09 115.443C182.359 115.559 182.6 115.731 182.797 115.947C182.994 116.163 183.144 116.419 183.235 116.697C183.326 116.975 183.356 117.27 183.325 117.561L183.11 120.001C183.045 120.62 182.757 121.193 182.3 121.614C181.843 122.035 181.247 122.274 180.626 122.287Z" fill="white"/>
<path opacity="0.1" d="M168.609 45.2662C168.539 45.9534 168.219 46.5909 167.71 47.058C167.202 47.5251 166.539 47.7894 165.849 47.8006C165.524 47.8065 165.202 47.7431 164.904 47.6148C164.606 47.4864 164.339 47.296 164.12 47.0562C163.901 46.8165 163.736 46.5328 163.635 46.2242C163.535 45.9155 163.501 45.589 163.536 45.2662C163.606 44.5791 163.926 43.9416 164.435 43.4744C164.943 43.0073 165.606 42.7431 166.296 42.7318C166.621 42.726 166.943 42.7893 167.241 42.9177C167.539 43.046 167.806 43.2364 168.025 43.4762C168.244 43.716 168.409 43.9997 168.51 44.3083C168.61 44.6169 168.644 44.9435 168.609 45.2662Z" fill="black"/>
<path opacity="0.1" d="M167.46 45.2664C167.421 45.6415 167.247 45.9895 166.969 46.2447C166.692 46.5 166.33 46.6449 165.953 46.6523C165.776 46.6558 165.6 46.6213 165.437 46.5512C165.273 46.4811 165.127 46.3769 165.008 46.2458C164.888 46.1146 164.798 45.9593 164.743 45.7905C164.688 45.6216 164.67 45.4429 164.689 45.2664C164.727 44.8909 164.901 44.5422 165.179 44.2868C165.457 44.0313 165.819 43.8867 166.196 43.8805C166.374 43.8779 166.549 43.913 166.712 43.9835C166.875 44.0539 167.021 44.158 167.14 44.289C167.26 44.42 167.35 44.5748 167.405 44.7433C167.46 44.9118 167.479 45.0901 167.46 45.2664Z" fill="black"/>
<g opacity="0.8">
<path d="M189.209 49.496C189.114 49.4973 189.019 49.4784 188.932 49.4405C188.845 49.4026 188.766 49.3466 188.702 49.2761C188.638 49.2057 188.589 49.1224 188.56 49.0318C188.53 48.9412 188.52 48.8454 188.53 48.7506L188.652 47.3923C188.672 47.1916 188.765 47.0053 188.914 46.8689C189.062 46.7325 189.256 46.6554 189.458 46.6524C189.552 46.6512 189.646 46.6699 189.733 46.7075C189.82 46.7451 189.898 46.8006 189.962 46.8704C190.027 46.9403 190.075 47.0229 190.105 47.1128C190.135 47.2027 190.146 47.298 190.137 47.3923L190.015 48.7506C189.995 48.9519 189.902 49.1388 189.753 49.2761C189.605 49.4134 189.411 49.4916 189.209 49.496Z" fill="white"/>
<path d="M195.149 49.496C195.053 49.4974 194.959 49.4784 194.871 49.4405C194.784 49.4026 194.706 49.3466 194.641 49.2762C194.577 49.2057 194.529 49.1224 194.499 49.0318C194.47 48.9412 194.459 48.8454 194.47 48.7506L194.751 45.5647C194.771 45.3639 194.865 45.1777 195.013 45.0413C195.162 44.9048 195.355 44.8278 195.557 44.8248C195.652 44.8235 195.746 44.8423 195.833 44.8799C195.92 44.9175 195.998 44.973 196.062 45.0428C196.126 45.1126 196.175 45.1952 196.205 45.2851C196.235 45.3751 196.245 45.4703 196.236 45.5647L195.955 48.7506C195.934 48.9519 195.841 49.1388 195.693 49.2761C195.544 49.4134 195.351 49.4916 195.149 49.496Z" fill="white"/>
<path d="M192.179 49.4961C192.084 49.4974 191.989 49.4785 191.902 49.4406C191.814 49.4027 191.736 49.3467 191.672 49.2762C191.608 49.2058 191.559 49.1225 191.529 49.0319C191.5 48.9413 191.49 48.8455 191.5 48.7507L191.699 46.4813C191.719 46.2792 191.813 46.0915 191.962 45.954C192.112 45.8166 192.307 45.739 192.51 45.7359C192.605 45.7345 192.699 45.7534 192.787 45.7913C192.874 45.8293 192.952 45.8854 193.016 45.956C193.079 46.0266 193.127 46.1099 193.156 46.2005C193.185 46.2911 193.195 46.3869 193.184 46.4813L192.985 48.7507C192.965 48.952 192.872 49.1389 192.723 49.2762C192.575 49.4135 192.381 49.4917 192.179 49.4961Z" fill="white"/>
</g>
<g opacity="0.8">
<path d="M138.354 49.4961H134.622C134.569 49.4972 134.515 49.4868 134.466 49.4656C134.417 49.4444 134.372 49.4128 134.336 49.3731C134.3 49.3333 134.273 49.2862 134.257 49.235C134.24 49.1839 134.235 49.1298 134.241 49.0764L134.413 47.0721C134.425 46.9583 134.478 46.8528 134.562 46.7755C134.647 46.6983 134.756 46.6545 134.871 46.6524H138.602C138.656 46.6513 138.709 46.6616 138.759 46.6829C138.808 46.7041 138.852 46.7356 138.888 46.7754C138.924 46.8152 138.951 46.8623 138.968 46.9134C138.984 46.9646 138.989 47.0187 138.983 47.0721L138.806 49.0764C138.797 49.1902 138.745 49.2963 138.661 49.3739C138.578 49.4515 138.468 49.4951 138.354 49.4961Z" fill="white"/>
<path d="M140.082 48.9493C140.028 48.9504 139.974 48.94 139.925 48.9188C139.875 48.8976 139.831 48.8662 139.794 48.8265C139.758 48.7868 139.73 48.7399 139.713 48.6887C139.696 48.6375 139.69 48.5833 139.695 48.5297L139.778 47.6131C139.789 47.4988 139.842 47.3927 139.927 47.3152C140.011 47.2377 140.122 47.1943 140.236 47.1934C140.29 47.1923 140.343 47.2027 140.393 47.2239C140.442 47.2451 140.486 47.2767 140.522 47.3164C140.558 47.3562 140.586 47.4033 140.602 47.4545C140.618 47.5056 140.624 47.5597 140.617 47.6131L140.54 48.5297C140.528 48.6435 140.475 48.7489 140.39 48.8262C140.306 48.9035 140.196 48.9473 140.082 48.9493Z" fill="white"/>
</g>
<path d="M174.527 95.7452C181.956 88.6323 182.696 77.3482 176.182 70.5414C169.668 63.7346 158.366 63.9828 150.937 71.0956C143.509 78.2085 142.769 89.4926 149.283 96.2994C155.797 103.106 167.099 102.858 174.527 95.7452Z" fill="white"/>
<path d="M162.796 82.7417C158.115 82.7417 154.157 84.5252 153.821 88.3958L153.445 92.6971H170.408L170.784 88.3958C171.12 84.5252 167.483 82.7417 162.796 82.7417Z" fill="#5463FF"/>
<path d="M162.951 80.969C165.126 80.969 166.13 79.2076 166.318 77.0321C166.506 74.8566 165.816 73.0952 163.641 73.0952C161.466 73.0952 160.467 74.8621 160.273 77.0321C160.08 79.2021 160.776 80.969 162.951 80.969Z" fill="#5463FF"/>
<path d="M179.599 108.141C178.446 108.141 177.468 108.582 177.391 109.538L177.297 110.603H181.487L181.581 109.538C181.658 108.582 180.758 108.141 179.599 108.141Z" fill="#03045E"/>
<path d="M179.638 107.705C180.19 107.705 180.422 107.269 180.471 106.733C180.521 106.197 180.344 105.761 179.809 105.761C179.273 105.761 179.025 106.197 178.975 106.733C178.926 107.269 179.102 107.705 179.638 107.705Z" fill="#03045E"/>
<path d="M166.705 132.778H150.145C149.696 132.786 149.25 132.699 148.837 132.521C148.425 132.343 148.055 132.08 147.752 131.748C147.449 131.417 147.22 131.024 147.081 130.597C146.941 130.17 146.894 129.718 146.943 129.272C147.041 128.322 147.483 127.442 148.186 126.796C148.889 126.15 149.803 125.783 150.757 125.766H167.317C167.766 125.758 168.211 125.847 168.623 126.024C169.035 126.202 169.405 126.466 169.708 126.797C170.011 127.129 170.239 127.521 170.379 127.947C170.519 128.374 170.567 128.825 170.519 129.272C170.422 130.222 169.98 131.103 169.277 131.749C168.574 132.395 167.659 132.761 166.705 132.778Z" fill="#03045E"/>
<path d="M164.701 171.882H146.976C146.5 171.895 146.028 171.805 145.59 171.619C145.152 171.433 144.76 171.154 144.439 170.803C144.119 170.451 143.878 170.035 143.732 169.582C143.587 169.129 143.541 168.65 143.598 168.177L144.729 155.246C144.83 154.242 145.296 153.311 146.038 152.628C146.779 151.945 147.745 151.558 148.753 151.541H166.484C166.958 151.532 167.428 151.625 167.864 151.813C168.299 152.001 168.69 152.279 169.01 152.629C169.329 152.98 169.571 153.395 169.717 153.846C169.864 154.297 169.914 154.774 169.862 155.246L168.73 168.177C168.627 169.18 168.16 170.111 167.417 170.793C166.675 171.476 165.709 171.863 164.701 171.882Z" fill="white"/>
<g opacity="0.6">
<path d="M159.236 158.509C159.265 158.227 159.233 157.941 159.144 157.672C159.054 157.403 158.909 157.156 158.717 156.947C158.525 156.738 158.291 156.573 158.03 156.461C157.769 156.35 157.488 156.295 157.204 156.3C156.6 156.309 156.021 156.538 155.574 156.945C155.128 157.352 154.846 157.908 154.781 158.509C154.746 158.845 154.796 159.184 154.926 159.496C155.056 159.807 155.262 160.081 155.526 160.292L155.14 164.748C155.121 164.917 155.138 165.088 155.191 165.249C155.243 165.411 155.329 165.559 155.444 165.685C155.558 165.81 155.698 165.91 155.854 165.977C156.01 166.044 156.179 166.077 156.349 166.073C156.708 166.066 157.053 165.927 157.317 165.683C157.582 165.439 157.748 165.106 157.784 164.748L158.176 160.292C158.471 160.09 158.72 159.826 158.903 159.518C159.086 159.21 159.199 158.865 159.236 158.509Z" fill="black"/>
</g>
<path d="M166.638 154.235H164.353L164.905 147.836C165.001 146.947 164.908 146.049 164.631 145.2C164.353 144.35 163.899 143.57 163.297 142.91C162.695 142.25 161.959 141.725 161.139 141.371C160.319 141.017 159.433 140.842 158.54 140.856C156.643 140.893 154.824 141.624 153.427 142.909C152.03 144.195 151.151 145.947 150.956 147.836L150.404 154.235H148.119L148.671 147.836C148.928 145.329 150.093 143.003 151.947 141.297C153.801 139.592 156.215 138.623 158.734 138.576C159.919 138.556 161.095 138.788 162.184 139.257C163.272 139.727 164.249 140.422 165.048 141.298C165.848 142.174 166.451 143.21 166.82 144.337C167.188 145.464 167.313 146.657 167.185 147.836L166.638 154.235Z" fill="black"/>
<path d="M179.88 117.942L179.952 117.318C179.967 117.173 179.951 117.027 179.905 116.889C179.86 116.751 179.786 116.624 179.688 116.517C179.59 116.409 179.47 116.324 179.337 116.266C179.204 116.208 179.06 116.179 178.914 116.18C178.605 116.187 178.309 116.306 178.081 116.515C177.854 116.725 177.71 117.01 177.678 117.318L177.623 117.931C177.499 117.934 177.381 117.982 177.291 118.067C177.2 118.151 177.144 118.266 177.131 118.389L176.988 120.045C176.981 120.103 176.986 120.162 177.004 120.218C177.022 120.273 177.051 120.324 177.09 120.367C177.13 120.41 177.178 120.444 177.232 120.467C177.286 120.49 177.344 120.5 177.402 120.498H179.676C179.799 120.496 179.917 120.449 180.008 120.365C180.099 120.282 180.155 120.168 180.167 120.045L180.311 118.389C180.316 118.33 180.308 118.271 180.288 118.216C180.269 118.161 180.237 118.11 180.197 118.068C180.156 118.026 180.107 117.993 180.052 117.971C179.998 117.949 179.939 117.939 179.88 117.942ZM178.848 116.473C178.958 116.472 179.066 116.493 179.167 116.537C179.267 116.58 179.357 116.645 179.431 116.725C179.505 116.806 179.562 116.902 179.596 117.006C179.631 117.11 179.643 117.22 179.632 117.329L179.577 117.942H177.866L177.921 117.329C177.945 117.098 178.052 116.883 178.223 116.726C178.394 116.568 178.616 116.478 178.848 116.473Z" fill="#03045E"/>
<path d="M145.645 118.598L144.851 118.433C144.828 118.428 144.808 118.419 144.79 118.405C144.772 118.391 144.757 118.374 144.747 118.353C144.737 118.333 144.732 118.311 144.731 118.288C144.731 118.266 144.736 118.243 144.746 118.223L145.077 117.439C145.091 117.405 145.092 117.367 145.081 117.333C145.069 117.298 145.046 117.268 145.015 117.249C144.984 117.23 144.947 117.222 144.911 117.228C144.875 117.233 144.841 117.251 144.817 117.279L144.216 117.897C144.201 117.916 144.183 117.93 144.162 117.941C144.141 117.951 144.118 117.956 144.094 117.956C144.071 117.956 144.048 117.951 144.027 117.941C144.006 117.93 143.987 117.916 143.973 117.897L143.482 117.279C143.377 117.146 143.15 117.279 143.189 117.439L143.382 118.223C143.388 118.246 143.389 118.27 143.385 118.293C143.381 118.316 143.372 118.338 143.359 118.358C143.346 118.378 143.329 118.395 143.309 118.407C143.29 118.42 143.267 118.429 143.244 118.433L142.422 118.598C142.245 118.632 142.223 118.88 142.394 118.913L143.189 119.079C143.211 119.083 143.232 119.092 143.25 119.106C143.268 119.12 143.282 119.138 143.292 119.158C143.302 119.179 143.306 119.201 143.306 119.224C143.305 119.247 143.299 119.269 143.288 119.289L142.968 120.078C142.954 120.112 142.953 120.15 142.964 120.185C142.976 120.219 142.999 120.249 143.03 120.268C143.061 120.287 143.098 120.295 143.134 120.289C143.171 120.284 143.204 120.266 143.228 120.238L143.829 119.62C143.845 119.603 143.864 119.59 143.885 119.581C143.905 119.572 143.928 119.567 143.951 119.567C143.974 119.567 143.996 119.572 144.017 119.581C144.038 119.59 144.057 119.603 144.072 119.62L144.563 120.238C144.668 120.371 144.895 120.238 144.851 120.078L144.657 119.294C144.649 119.247 144.66 119.199 144.686 119.16C144.713 119.121 144.754 119.094 144.801 119.084L145.623 118.919C145.794 118.88 145.817 118.632 145.645 118.598Z" fill="#263238"/>
<path d="M150.868 118.598L150.073 118.433C150.051 118.428 150.03 118.419 150.012 118.405C149.994 118.391 149.979 118.374 149.969 118.353C149.959 118.333 149.954 118.311 149.954 118.288C149.953 118.266 149.958 118.243 149.968 118.223L150.299 117.439C150.313 117.405 150.314 117.367 150.303 117.333C150.291 117.298 150.268 117.268 150.237 117.249C150.206 117.23 150.169 117.222 150.133 117.228C150.097 117.233 150.064 117.251 150.04 117.279L149.438 117.897C149.423 117.916 149.405 117.93 149.384 117.941C149.363 117.951 149.34 117.956 149.316 117.956C149.293 117.956 149.27 117.951 149.249 117.941C149.228 117.93 149.209 117.916 149.195 117.897L148.704 117.279C148.599 117.146 148.373 117.279 148.417 117.439L148.61 118.223C148.615 118.246 148.615 118.27 148.61 118.293C148.605 118.317 148.596 118.339 148.583 118.358C148.569 118.378 148.552 118.395 148.532 118.407C148.512 118.42 148.49 118.429 148.466 118.433L147.644 118.598C147.467 118.632 147.445 118.88 147.616 118.913L148.411 119.079C148.433 119.083 148.454 119.093 148.472 119.107C148.49 119.12 148.505 119.138 148.515 119.158C148.525 119.178 148.53 119.201 148.53 119.223C148.531 119.246 148.526 119.268 148.516 119.289L148.185 120.073C148.171 120.107 148.17 120.144 148.181 120.179C148.192 120.214 148.216 120.243 148.247 120.263C148.278 120.282 148.315 120.289 148.351 120.284C148.387 120.278 148.42 120.26 148.444 120.233L149.046 119.614C149.061 119.598 149.08 119.584 149.101 119.575C149.122 119.566 149.145 119.561 149.167 119.561C149.19 119.561 149.213 119.566 149.234 119.575C149.255 119.584 149.273 119.598 149.289 119.614L149.78 120.233C149.885 120.365 150.111 120.233 150.073 120.073L149.879 119.289C149.875 119.266 149.874 119.242 149.879 119.219C149.883 119.196 149.892 119.175 149.905 119.155C149.918 119.135 149.934 119.119 149.953 119.106C149.973 119.093 149.995 119.083 150.017 119.079L150.84 118.913C151.017 118.88 151.039 118.632 150.868 118.598Z" fill="black"/>
<path d="M156.09 118.599L155.3 118.433C155.278 118.429 155.256 118.421 155.237 118.407C155.219 118.394 155.204 118.376 155.193 118.355C155.183 118.335 155.178 118.312 155.178 118.289C155.179 118.266 155.184 118.243 155.195 118.223L155.527 117.439C155.548 117.404 155.554 117.362 155.544 117.322C155.535 117.282 155.509 117.248 155.474 117.226C155.439 117.205 155.397 117.199 155.357 117.209C155.317 117.218 155.283 117.244 155.262 117.279L154.665 117.897C154.65 117.916 154.631 117.931 154.61 117.941C154.589 117.951 154.565 117.956 154.541 117.956C154.517 117.956 154.494 117.951 154.472 117.941C154.451 117.931 154.432 117.916 154.417 117.897L153.926 117.279C153.821 117.146 153.595 117.279 153.639 117.439L153.832 118.223C153.837 118.246 153.837 118.269 153.833 118.292C153.828 118.315 153.82 118.337 153.807 118.357C153.794 118.376 153.777 118.393 153.758 118.406C153.739 118.419 153.717 118.428 153.694 118.433L152.871 118.599C152.695 118.632 152.673 118.88 152.844 118.913L153.633 119.079C153.655 119.083 153.676 119.093 153.694 119.107C153.712 119.12 153.727 119.138 153.737 119.158C153.747 119.179 153.752 119.201 153.752 119.223C153.753 119.246 153.748 119.268 153.738 119.289L153.407 120.073C153.386 120.108 153.379 120.15 153.389 120.19C153.399 120.23 153.424 120.264 153.459 120.285C153.494 120.307 153.537 120.313 153.576 120.303C153.616 120.293 153.651 120.268 153.672 120.233L154.268 119.615C154.283 119.598 154.302 119.584 154.323 119.575C154.344 119.566 154.367 119.561 154.389 119.561C154.412 119.561 154.435 119.566 154.456 119.575C154.477 119.584 154.495 119.598 154.511 119.615L155.008 120.233C155.113 120.365 155.339 120.233 155.295 120.073L155.102 119.289C155.093 119.243 155.103 119.195 155.129 119.156C155.154 119.117 155.194 119.089 155.24 119.079L156.062 118.913C156.217 118.88 156.261 118.632 156.09 118.599Z" fill="black"/>
<path d="M161.317 118.598L160.522 118.433C160.5 118.428 160.479 118.419 160.461 118.405C160.443 118.391 160.428 118.374 160.418 118.353C160.408 118.333 160.403 118.311 160.403 118.288C160.402 118.266 160.407 118.243 160.417 118.223L160.748 117.439C160.762 117.405 160.763 117.367 160.752 117.333C160.741 117.298 160.717 117.268 160.686 117.249C160.655 117.23 160.618 117.222 160.582 117.228C160.546 117.233 160.513 117.251 160.489 117.279L159.887 117.897C159.873 117.916 159.854 117.93 159.833 117.941C159.812 117.951 159.789 117.956 159.766 117.956C159.742 117.956 159.719 117.951 159.698 117.941C159.677 117.93 159.659 117.916 159.644 117.897L159.153 117.279C159.048 117.146 158.822 117.279 158.86 117.439L159.054 118.223C159.059 118.246 159.06 118.27 159.056 118.293C159.052 118.316 159.043 118.338 159.03 118.358C159.017 118.378 159 118.395 158.981 118.407C158.961 118.42 158.939 118.429 158.916 118.433L158.093 118.598C157.916 118.632 157.894 118.88 158.093 118.913L158.888 119.079C158.91 119.083 158.931 119.092 158.949 119.106C158.967 119.12 158.981 119.138 158.991 119.158C159.001 119.179 159.005 119.201 159.005 119.224C159.004 119.247 158.998 119.269 158.987 119.289L158.662 120.073C158.648 120.107 158.646 120.144 158.658 120.179C158.669 120.214 158.692 120.243 158.724 120.263C158.755 120.282 158.792 120.289 158.828 120.284C158.864 120.278 158.897 120.26 158.921 120.233L159.523 119.614C159.538 119.598 159.557 119.584 159.578 119.575C159.599 119.566 159.621 119.561 159.644 119.561C159.667 119.561 159.69 119.566 159.71 119.575C159.731 119.584 159.75 119.598 159.766 119.614L160.257 120.233C160.362 120.365 160.588 120.233 160.544 120.073L160.351 119.289C160.343 119.242 160.353 119.194 160.38 119.155C160.407 119.115 160.448 119.088 160.494 119.079L161.317 118.913C161.466 118.88 161.488 118.632 161.317 118.598Z" fill="black"/>
<path d="M166.539 118.598L165.744 118.433C165.722 118.428 165.701 118.419 165.683 118.405C165.665 118.391 165.651 118.374 165.641 118.353C165.631 118.333 165.625 118.311 165.625 118.288C165.625 118.266 165.63 118.243 165.639 118.223L165.97 117.439C165.984 117.405 165.986 117.367 165.974 117.333C165.963 117.298 165.94 117.268 165.908 117.249C165.877 117.23 165.84 117.222 165.804 117.228C165.768 117.233 165.735 117.251 165.711 117.279L165.109 117.897C165.095 117.916 165.076 117.93 165.055 117.941C165.034 117.951 165.011 117.956 164.988 117.956C164.964 117.956 164.941 117.951 164.92 117.941C164.899 117.93 164.881 117.916 164.866 117.897L164.375 117.279C164.27 117.146 164.044 117.279 164.088 117.439L164.281 118.223C164.286 118.246 164.286 118.27 164.281 118.293C164.277 118.317 164.267 118.339 164.254 118.358C164.241 118.378 164.223 118.395 164.203 118.407C164.184 118.42 164.161 118.429 164.138 118.433L163.315 118.598C163.139 118.632 163.117 118.88 163.288 118.913L164.083 119.079C164.105 119.083 164.126 119.093 164.143 119.107C164.161 119.12 164.176 119.138 164.186 119.158C164.196 119.178 164.202 119.201 164.202 119.223C164.202 119.246 164.197 119.268 164.187 119.289L163.856 120.073C163.842 120.107 163.841 120.144 163.852 120.179C163.864 120.214 163.887 120.243 163.918 120.263C163.949 120.282 163.986 120.289 164.022 120.284C164.059 120.278 164.092 120.26 164.116 120.233L164.717 119.614C164.733 119.598 164.752 119.584 164.773 119.575C164.793 119.566 164.816 119.561 164.839 119.561C164.862 119.561 164.884 119.566 164.905 119.575C164.926 119.584 164.945 119.598 164.96 119.614L165.452 120.233C165.556 120.365 165.783 120.233 165.744 120.073L165.551 119.289C165.546 119.266 165.546 119.242 165.55 119.219C165.554 119.196 165.563 119.175 165.576 119.155C165.589 119.135 165.606 119.119 165.625 119.106C165.644 119.093 165.666 119.083 165.689 119.079L166.511 118.913C166.705 118.88 166.705 118.632 166.539 118.598Z" fill="black"/>
<path d="M171.761 118.599L170.966 118.433C170.943 118.429 170.922 118.419 170.905 118.405C170.887 118.392 170.872 118.374 170.863 118.353C170.853 118.333 170.848 118.31 170.849 118.288C170.849 118.265 170.855 118.243 170.866 118.223L171.197 117.439C171.208 117.422 171.215 117.402 171.218 117.382C171.221 117.362 171.22 117.342 171.215 117.322C171.21 117.302 171.202 117.284 171.19 117.267C171.178 117.251 171.162 117.237 171.145 117.226C171.128 117.216 171.108 117.209 171.088 117.206C171.068 117.203 171.048 117.204 171.028 117.209C171.008 117.213 170.99 117.222 170.973 117.234C170.957 117.246 170.943 117.261 170.933 117.279L170.336 117.897C170.321 117.916 170.302 117.931 170.281 117.941C170.259 117.951 170.236 117.956 170.212 117.956C170.188 117.956 170.165 117.951 170.143 117.941C170.122 117.931 170.103 117.916 170.088 117.897L169.597 117.279C169.492 117.146 169.265 117.279 169.31 117.439L169.503 118.223C169.508 118.246 169.508 118.269 169.504 118.292C169.499 118.315 169.49 118.337 169.478 118.357C169.465 118.376 169.448 118.393 169.429 118.406C169.409 118.419 169.388 118.428 169.365 118.433L168.542 118.599C168.366 118.632 168.344 118.88 168.515 118.913L169.304 119.079C169.326 119.083 169.347 119.093 169.365 119.107C169.383 119.12 169.397 119.138 169.408 119.158C169.418 119.178 169.423 119.201 169.423 119.223C169.424 119.246 169.419 119.268 169.409 119.289L169.078 120.073C169.057 120.108 169.05 120.15 169.06 120.19C169.07 120.23 169.095 120.264 169.13 120.285C169.165 120.307 169.207 120.313 169.247 120.303C169.287 120.293 169.322 120.268 169.343 120.233L169.939 119.614C169.954 119.598 169.973 119.584 169.994 119.575C170.015 119.566 170.038 119.561 170.06 119.561C170.083 119.561 170.106 119.566 170.127 119.575C170.147 119.584 170.166 119.598 170.182 119.614L170.673 120.233C170.699 120.262 170.734 120.281 170.772 120.288C170.81 120.294 170.849 120.288 170.883 120.269C170.917 120.251 170.944 120.221 170.959 120.185C170.974 120.15 170.976 120.11 170.966 120.073L170.772 119.289C170.764 119.243 170.774 119.195 170.8 119.156C170.825 119.117 170.865 119.089 170.91 119.079L171.733 118.913C171.91 118.88 171.932 118.632 171.761 118.599Z" fill="black"/>
<path d="M159.17 107.164H149.366C149.065 107.169 148.777 107.284 148.555 107.488C148.333 107.691 148.194 107.969 148.163 108.268C148.147 108.409 148.162 108.552 148.206 108.686C148.249 108.821 148.322 108.945 148.417 109.05C148.513 109.154 148.63 109.237 148.76 109.293C148.891 109.348 149.031 109.376 149.173 109.372H158.977C159.277 109.367 159.566 109.252 159.788 109.049C160.009 108.845 160.149 108.567 160.18 108.268C160.195 108.127 160.18 107.985 160.135 107.851C160.091 107.716 160.019 107.593 159.923 107.488C159.828 107.384 159.711 107.301 159.581 107.245C159.452 107.189 159.311 107.161 159.17 107.164Z" fill="black"/>
<path d="M169.128 107.164H163.436C163.136 107.169 162.848 107.284 162.628 107.488C162.407 107.691 162.268 107.969 162.239 108.268C162.223 108.408 162.237 108.55 162.281 108.685C162.324 108.819 162.396 108.943 162.491 109.047C162.586 109.152 162.702 109.235 162.832 109.291C162.962 109.347 163.102 109.375 163.243 109.372H168.912C169.213 109.367 169.5 109.252 169.721 109.048C169.942 108.844 170.08 108.567 170.11 108.268C170.126 108.129 170.112 107.989 170.07 107.856C170.027 107.723 169.958 107.601 169.865 107.497C169.772 107.393 169.659 107.309 169.532 107.252C169.405 107.194 169.267 107.164 169.128 107.164Z" fill="black"/>
<path d="M176.64 157.217C173.175 158.537 170.047 160.612 167.482 163.291C165.925 162.081 164.069 161.318 162.112 161.082L161.852 161.044L161.742 162.347L161.885 162.402C164.032 163.192 165.847 164.687 167.035 166.642L167.223 166.952L167.427 166.62C169.713 162.97 172.939 160.002 176.767 158.029L176.894 157.962L176.966 157.101L176.64 157.217Z" fill="#263238"/>
<path opacity="0.2" d="M127.313 48.502C126.61 49.7306 126.177 51.0955 126.043 52.5051L117.824 146.494H143.26L148.372 126.898L146.688 107.296L151.8 87.6998L150.144 68.1036L155.255 48.502H127.313Z" fill="black"/>
<path d="M147.908 62.5821L153.02 42.9805H88.6952L83.5892 62.5821L85.2673 82.1783L80.1613 101.774L81.8394 121.376L76.7334 140.972H141.052L146.164 121.376L144.48 101.774L149.592 82.1783L147.908 62.5821Z" fill="#407BFF"/>
<path opacity="0.7" d="M147.908 62.5821L153.02 42.9805H88.6952L83.5892 62.5821L85.2673 82.1783L80.1613 101.774L81.8394 121.376L76.7334 140.972H141.052L146.164 121.376L144.48 101.774L149.592 82.1783L147.908 62.5821Z" fill="white"/>
<path opacity="0.5" d="M147.908 62.5821H83.5894L88.6954 42.9805H153.02L147.908 62.5821Z" fill="white"/>
<path opacity="0.5" d="M144.481 101.774H80.1616L85.2676 82.1782H149.592L144.481 101.774Z" fill="white"/>
<path opacity="0.5" d="M141.053 140.972H76.728L81.8395 121.376H146.164L141.053 140.972Z" fill="white"/>
<path opacity="0.2" d="M139.303 70.7706C138.643 70.9613 137.958 71.0544 137.271 71.0466C136.34 71.0879 135.413 70.8982 134.572 70.4945C134.42 70.4044 134.247 70.3567 134.07 70.3564C133.908 70.3587 133.749 70.4004 133.606 70.4779H133.573C133.326 70.6164 133.063 70.7222 132.789 70.7927C132.171 70.9558 131.535 71.0356 130.896 71.0301C130.703 71.0301 130.515 71.0301 130.344 71.0301C129.848 70.9983 129.357 70.9112 128.881 70.7706C128.811 70.7497 128.739 70.7367 128.666 70.7319C128.544 70.722 128.422 70.7373 128.307 70.7769C128.192 70.8165 128.086 70.8795 127.996 70.962C127.907 71.0444 127.835 71.1446 127.786 71.2561C127.737 71.3675 127.711 71.488 127.711 71.6099V72.2062H102.672C102.212 72.2062 101.756 72.2969 101.332 72.4732C100.907 72.6495 100.521 72.9078 100.195 73.2335C99.8704 73.5591 99.6127 73.9457 99.4372 74.371C99.2616 74.7964 99.1717 75.2522 99.1724 75.7124V79.2407C99.1709 79.7013 99.2604 80.1577 99.4356 80.5837C99.6108 81.0097 99.8684 81.397 100.193 81.7232C100.519 82.0495 100.905 82.3083 101.33 82.4849C101.756 82.6615 102.212 82.7524 102.672 82.7524H131.117H131.304C131.608 83.0064 131.928 83.2604 132.27 83.5199C132.613 83.7795 133.098 84.1384 133.545 84.4586C133.698 84.5691 133.881 84.6286 134.07 84.6286C134.258 84.6286 134.442 84.5691 134.594 84.4586C138.171 81.8635 140.467 80.0745 140.467 75.1602V71.6264C140.469 71.4851 140.437 71.3454 140.374 71.2189C140.311 71.0924 140.219 70.9828 140.105 70.8991C139.991 70.8155 139.859 70.7601 139.719 70.7378C139.58 70.7154 139.437 70.7267 139.303 70.7706Z" fill="black"/>
<path d="M130.57 70.2681H102.131C100.195 70.2681 98.626 71.8379 98.626 73.7743V77.3026C98.626 79.239 100.195 80.8088 102.131 80.8088H130.57C132.506 80.8088 134.075 79.239 134.075 77.3026V73.7743C134.075 71.8379 132.506 70.2681 130.57 70.2681Z" fill="#5463FF"/>
<path d="M136.725 69.1032C135.794 69.1431 134.867 68.9535 134.026 68.551C133.876 68.4592 133.704 68.4106 133.529 68.4106C133.354 68.4106 133.182 68.4592 133.032 68.551C132.19 68.9541 131.261 69.1437 130.327 69.1032C129.64 69.1105 128.956 69.0175 128.296 68.8271C128.163 68.7824 128.021 68.77 127.883 68.7909C127.744 68.8119 127.612 68.8656 127.498 68.9477C127.384 69.0297 127.292 69.1377 127.228 69.2627C127.164 69.3877 127.131 69.5261 127.131 69.6664V73.2002C127.131 78.12 129.428 79.909 133.005 82.5041C133.157 82.6146 133.341 82.6741 133.529 82.6741C133.717 82.6741 133.901 82.6146 134.053 82.5041C137.63 79.909 139.927 78.12 139.927 73.2002V69.6664C139.926 69.5258 139.892 69.3874 139.828 69.2625C139.763 69.1376 139.67 69.0298 139.556 68.9478C139.442 68.8659 139.31 68.8123 139.171 68.7913C139.032 68.7703 138.89 68.7826 138.756 68.8271C138.096 69.0179 137.412 69.1109 136.725 69.1032Z" fill="#03045E"/>
<path opacity="0.1" d="M136.725 69.1032C135.794 69.1431 134.867 68.9535 134.026 68.551C133.876 68.4592 133.704 68.4106 133.529 68.4106C133.354 68.4106 133.182 68.4592 133.032 68.551C132.19 68.9541 131.261 69.1437 130.327 69.1032C129.64 69.1105 128.956 69.0175 128.296 68.8271C128.163 68.7824 128.021 68.77 127.883 68.7909C127.744 68.8119 127.612 68.8656 127.498 68.9477C127.384 69.0297 127.292 69.1377 127.228 69.2627C127.164 69.3877 127.131 69.5261 127.131 69.6664V73.2002C127.131 78.12 129.428 79.909 133.005 82.5041C133.157 82.6146 133.341 82.6741 133.529 82.6741C133.717 82.6741 133.901 82.6146 134.053 82.5041C137.63 79.909 139.927 78.12 139.927 73.2002V69.6664C139.926 69.5258 139.892 69.3874 139.828 69.2625C139.763 69.1376 139.67 69.0298 139.556 68.9478C139.442 68.8659 139.31 68.8123 139.171 68.7913C139.032 68.7703 138.89 68.7826 138.756 68.8271C138.096 69.0179 137.412 69.1109 136.725 69.1032Z" fill="white"/>
<path opacity="0.1" d="M133.032 68.5398C132.19 68.9428 131.261 69.1325 130.327 69.0919C129.641 69.0988 128.956 69.0058 128.296 68.8158C128.163 68.7711 128.021 68.7587 127.883 68.7797C127.744 68.8006 127.612 68.8543 127.498 68.9364C127.384 69.0184 127.292 69.1264 127.228 69.2514C127.164 69.3764 127.131 69.5148 127.131 69.6551V73.1889C127.131 78.1087 129.428 79.8977 133.005 82.4928C133.165 82.6091 133.359 82.6692 133.557 82.664V68.3962C133.372 68.3925 133.19 68.4424 133.032 68.5398Z" fill="white"/>
<path d="M138.657 72.2393C136.505 73.0826 134.589 74.4332 133.071 76.1762C132.012 75.3956 130.771 74.8995 129.466 74.7351H129.295V75.5799L129.389 75.613C130.84 76.137 132.091 77.1024 132.966 78.3738L133.104 78.5726L133.22 78.3573C134.489 75.9983 136.421 74.0632 138.778 72.7915L138.861 72.7528V72.2007L138.657 72.2393Z" fill="white"/>
<path d="M151.883 48.4966H149.443C149.129 48.5024 148.817 48.4412 148.529 48.3171C148.241 48.193 147.982 48.0088 147.771 47.7767C147.559 47.5447 147.399 47.2703 147.302 46.9716C147.205 46.673 147.173 46.3571 147.207 46.045L147.423 43.6044C147.489 42.9407 147.796 42.3244 148.287 41.8724C148.777 41.4205 149.416 41.1644 150.083 41.1528H152.523C152.837 41.1462 153.15 41.2068 153.439 41.3306C153.728 41.4543 153.987 41.6385 154.199 41.8706C154.411 42.1027 154.571 42.3774 154.669 42.6764C154.766 42.9754 154.799 43.2918 154.764 43.6044L154.549 46.045C154.475 46.7065 154.164 47.3189 153.674 47.7693C153.184 48.2198 152.548 48.4781 151.883 48.4966Z" fill="black"/>
<path d="M152.899 43.599L152.369 43.0137L151.033 44.2395L149.918 43.0137L149.283 43.599L150.404 44.8248L149.073 46.0506L149.603 46.6303L150.933 45.4045L152.054 46.6303L152.683 46.0506L151.563 44.8248L152.899 43.599Z" fill="white"/>
<path d="M97.356 69.5503C98.7691 71.0908 100.116 72.6866 101.457 74.2933C102.799 75.9001 104.096 77.54 105.388 79.1855C105.443 79.2573 105.421 79.2297 105.432 79.2517C105.443 79.2738 105.432 79.2793 105.432 79.2849C105.441 79.3053 105.454 79.324 105.47 79.3401C105.517 79.407 105.577 79.4639 105.646 79.5075C105.716 79.5511 105.793 79.5805 105.873 79.5941C105.936 79.6025 105.999 79.6025 106.061 79.5941C106.094 79.5967 106.127 79.5967 106.16 79.5941H106.21C106.238 79.5941 106.21 79.5941 106.298 79.5609L107.678 78.81C109.533 77.8272 111.404 76.8664 113.336 76.005L114.954 78.0094C113.397 79.4395 111.774 81.234 110.135 82.5481L108.898 83.5199C108.821 83.5827 108.74 83.6399 108.655 83.6911C108.562 83.7578 108.464 83.8186 108.363 83.8733C108.163 83.9884 107.957 84.0917 107.745 84.1825C107.317 84.3623 106.868 84.4866 106.409 84.5525C105.48 84.6889 104.532 84.594 103.649 84.2764C103.199 84.1168 102.773 83.8997 102.379 83.6304C102.18 83.4979 101.993 83.3432 101.827 83.1942C101.733 83.1169 101.656 83.0285 101.568 82.9457L101.347 82.7248C99.8841 81.223 98.4434 79.71 97.0303 78.1695C95.6172 76.629 94.2206 75.0774 92.8848 73.4651L97.356 69.5503Z" fill="#B55B52"/>
<path d="M112.608 77.2202L113.894 73.0845L117.283 74.7741C117.283 74.7741 116.787 77.7889 114.325 78.3134L112.608 77.2202Z" fill="#B55B52"/>
<path d="M115.247 71.9414L118.305 72.7807L117.278 74.774L113.889 73.0844L115.247 71.9414Z" fill="#B55B52"/>
<path d="M79.5377 70.6769C79.1734 72.4327 78.7208 74.172 78.2516 75.9058C77.7824 77.6396 77.269 79.3568 76.7336 81.074L76.5349 81.7201L76.4355 82.0403C76.4222 82.0864 76.4036 82.1309 76.3803 82.1728C76.3173 82.3504 76.282 82.5367 76.2754 82.725C76.2638 83.1262 76.3755 83.5213 76.5956 83.8569C76.7042 84.0041 76.8241 84.1426 76.9544 84.271L77.4125 84.7735L78.3178 85.784C78.9085 86.4686 79.5046 87.1533 80.0677 87.8711L78.1412 90.0798C77.3463 89.627 76.5845 89.1356 75.8228 88.6497L74.6912 87.8987L74.1392 87.5177C73.9515 87.3852 73.7969 87.2969 73.4933 87.0484C72.4133 86.1277 71.668 84.8755 71.3737 83.487C71.2255 82.7792 71.1901 82.0524 71.2688 81.3335C71.2688 81.1569 71.324 80.9581 71.3516 80.7814L71.4123 80.4501L71.5282 79.7875C71.8373 78.0151 72.1685 76.2482 72.5384 74.4923C72.9082 72.7364 73.3057 70.9861 73.7749 69.2578L79.5377 70.6769Z" fill="#B55B52"/>
<path d="M78.1797 87.6944L80.4539 86.5293L81.4586 90.3944C81.4586 90.3944 79.6314 91.0957 78.2183 90.1956L78.1797 87.6944Z" fill="#B55B52"/>
<path d="M83.6004 85.2871L83.7053 88.843L81.1605 90.505L80.2773 86.6012L83.6004 85.2871Z" fill="#B55B52"/>
<path d="M91.0465 52.4225C91.1017 52.693 91.2949 52.8863 91.4715 52.8532C91.6482 52.82 91.7531 52.566 91.6979 52.301C91.6427 52.036 91.4495 51.8372 91.2728 51.8703C91.0962 51.9034 90.9913 52.163 91.0465 52.4225Z" fill="#263238"/>
<path d="M91.2676 52.8916C91.7645 53.6617 92.3644 54.3602 93.0505 54.9677C92.8908 55.1398 92.6954 55.275 92.478 55.3637C92.2606 55.4524 92.0265 55.4925 91.792 55.4812L91.2676 52.8916Z" fill="#A02724"/>
<path d="M89.7383 51.1085C89.7065 51.1081 89.6755 51.0986 89.649 51.0811C89.6225 51.0635 89.6015 51.0387 89.5887 51.0096C89.5759 50.9805 89.5718 50.9483 89.5768 50.9169C89.5818 50.8855 89.5957 50.8562 89.6169 50.8324C89.7897 50.6368 90.0063 50.4849 90.249 50.3889C90.4917 50.293 90.7536 50.2557 91.0134 50.2803C91.0348 50.2843 91.0552 50.2924 91.0735 50.3043C91.0917 50.3162 91.1074 50.3315 91.1197 50.3495C91.132 50.3674 91.1407 50.3876 91.1452 50.4089C91.1497 50.4302 91.1499 50.4522 91.1459 50.4735C91.1426 50.4947 91.1351 50.515 91.1238 50.5332C91.1124 50.5514 91.0976 50.5671 91.0801 50.5795C91.0626 50.5919 91.0428 50.6006 91.0219 50.6051C91.0009 50.6097 90.9793 50.61 90.9582 50.6061C90.7523 50.5863 90.5447 50.6161 90.3527 50.693C90.1606 50.7698 89.9897 50.8915 89.8542 51.0478C89.8248 51.0821 89.7833 51.1039 89.7383 51.1085Z" fill="#263238"/>
<path d="M83.0868 56.271C83.694 58.8054 84.3067 63.4491 82.1318 65.1332C82.1318 65.1332 82.9819 67.7062 88.7558 67.7062C95.1038 67.7062 91.7918 66.0497 91.7918 66.0497C88.3253 65.3761 88.4136 62.3668 89.0318 60.3956L83.0868 56.271Z" fill="#B55B52"/>
<path d="M81.4528 65.6025C81.0774 64.9012 80.6579 64.0951 81.519 63.8411C82.4685 63.565 88.557 63.0515 90.351 63.5705C89.799 64.5478 90.7319 65.7791 90.7319 65.7791L81.4528 65.6025Z" fill="#263238"/>
<path d="M86.498 184.085H90.478L90.8754 176.067H86.89L86.498 184.085Z" fill="#B55B52"/>
<path d="M61.2222 182.981L65.2573 183.196L67.7082 175.294L63.673 175.079L61.2222 182.981Z" fill="#B55B52"/>
<path d="M65.1358 182.876L61.3326 182.053C61.266 182.038 61.1962 182.046 61.1349 182.076C61.0736 182.106 61.0245 182.156 60.9958 182.218L59.6766 185.084C59.6441 185.154 59.628 185.23 59.6295 185.307C59.631 185.383 59.6501 185.459 59.6853 185.527C59.7204 185.595 59.7708 185.655 59.8324 185.7C59.8941 185.746 59.9654 185.777 60.0409 185.791C61.3712 186.056 62.0336 186.117 63.7062 186.481C64.7329 186.702 67.0568 187.271 68.4754 187.585C69.8941 187.9 70.3854 186.531 69.8334 186.277C67.3494 185.145 66.3116 184.146 65.6382 183.212C65.5173 183.043 65.3387 182.923 65.1358 182.876Z" fill="#263238"/>
<path d="M90.2684 183.682H86.4872C86.4188 183.683 86.3527 183.707 86.2996 183.75C86.2466 183.793 86.2095 183.853 86.1946 183.92L85.5102 186.995C85.4925 187.07 85.4921 187.147 85.5089 187.222C85.5257 187.296 85.5594 187.366 85.6073 187.426C85.6553 187.485 85.7162 187.533 85.7854 187.566C85.8547 187.598 85.9305 187.615 86.007 187.614C87.3704 187.614 89.319 187.509 91.0578 187.509C93.0615 187.509 94.7893 187.619 97.1298 187.619C98.5484 187.619 98.9458 186.183 98.3497 186.051C95.6394 185.46 93.4314 185.394 91.0909 183.953C90.8463 183.79 90.562 183.696 90.2684 183.682Z" fill="#263238"/>
<path d="M74.9175 66.3038C71.9146 67.7339 71.0977 76.4028 71.0977 76.4028L78.5331 79.8372C79.7899 77.7168 80.4747 75.3061 80.5203 72.8414C80.6693 68.3634 77.9921 64.8627 74.9175 66.3038Z" fill="black"/>
<path opacity="0.4" d="M78.936 71.6484C77.5947 73.7356 77.7216 76.9602 78.1853 79.6824L78.5165 79.837C79.7722 77.716 80.4568 75.3057 80.5037 72.8411C80.5037 72.5761 80.5037 72.2889 80.5037 72.0515L78.936 71.6484Z" fill="black"/>
<path d="M95.6671 66.0941C95.6671 66.0941 99.3545 70.2574 95.8713 96.0212H77.3628C77.2358 93.1776 79.0188 79.3128 76.2588 65.9174C78.3044 65.5238 80.3731 65.2619 82.4522 65.1334C85.074 64.9842 87.702 64.9842 90.3238 65.1334C92.1269 65.3161 93.9133 65.6373 95.6671 66.0941Z" fill="#407BFF"/>
<path opacity="0.6" d="M95.6671 66.0941C95.6671 66.0941 99.3545 70.2574 95.8713 96.0212H77.3628C77.2358 93.1776 79.0188 79.3128 76.2588 65.9174C78.3044 65.5238 80.3731 65.2619 82.4522 65.1334C85.074 64.9842 87.702 64.9842 90.3238 65.1334C92.1269 65.3161 93.9133 65.6373 95.6671 66.0941Z" fill="#03045E"/>
<path opacity="0.2" d="M97.2846 73.9678L97.2183 73.9071L93.5365 71.9414C93.1611 77.6121 95.6948 81.168 97.2018 82.7196C97.3907 79.8061 97.4183 76.8844 97.2846 73.9678Z" fill="black"/>
<path opacity="0.2" d="M90.8757 176.067L90.6715 180.203H86.686L86.8903 176.067H90.8757Z" fill="black"/>
<path opacity="0.2" d="M63.6733 175.085L67.7084 175.295L66.4443 179.37L62.4092 179.154L63.6733 175.085Z" fill="black"/>
<path d="M81.8063 53.6979C82.6951 57.0108 83.0483 59.0041 85.1183 60.3845C88.1985 62.4607 92.0294 60.0753 92.1508 56.5581C92.2557 53.3942 90.7874 48.4965 87.227 47.8284C86.4409 47.6728 85.6281 47.7215 84.8662 47.9697C84.1043 48.2179 83.4187 48.6573 82.8749 49.2461C82.3312 49.8348 81.9475 50.5532 81.7604 51.3326C81.5733 52.112 81.5891 52.9263 81.8063 53.6979Z" fill="#B55B52"/>
<path d="M89.3079 96.021C89.3079 96.021 85.3777 122.475 83.2359 132.392C80.8623 143.269 68.1995 179.16 68.1995 179.16L62.0005 177.818C62.0005 177.818 69.9438 148.554 71.9365 133.38C72.7093 127.455 73.6422 117.92 74.8235 109.952C75.9661 102.222 77.3737 96.0265 77.3737 96.0265L89.3079 96.021Z" fill="#161616"/>
<path d="M69.6845 177.089L68.5253 179.331L61.5591 177.818L62.1442 175.725L69.6845 177.089Z" fill="#407BFF"/>
<path opacity="0.6" d="M69.6845 177.089L68.5253 179.331L61.5591 177.818L62.1442 175.725L69.6845 177.089Z" fill="white"/>
<path opacity="0.6" d="M86.8239 105.446C82.2809 106.335 82.7612 123.281 83.3077 131.994C84.6214 125.832 86.5369 113.983 87.8451 105.568C87.5286 105.412 87.1682 105.369 86.8239 105.446Z" fill="black"/>
<path d="M95.8712 96.0211C95.8712 96.0211 97.7204 121.906 97.345 132.464C96.9531 143.446 91.7477 179.397 91.7477 179.397H85.8855C85.8855 179.397 85.6702 144.059 85.4108 133.297C85.1237 121.536 83.7051 96.0156 83.7051 96.0156L95.8712 96.0211Z" fill="black"/>
<path d="M92.874 177.067C92.9016 177.067 92.5428 179.502 92.5428 179.502H85.411L85.2178 177.326L92.874 177.067Z" fill="#407BFF"/>
<path opacity="0.6" d="M92.874 177.067C92.9016 177.067 92.5428 179.502 92.5428 179.502H85.411L85.2178 177.326L92.874 177.067Z" fill="white"/>
<path d="M93.5088 70.9363C93.5088 77.8825 97.2017 80.7427 97.2017 80.7427L103.224 74.8787C101.799 72.4958 100.175 70.2369 98.3719 68.1258C94.8888 64.1337 93.5088 66.4749 93.5088 70.9363Z" fill="black"/>
<path opacity="0.2" d="M91.919 57.8169C91.7962 58.165 91.5901 58.4778 91.3188 58.728C91.0475 58.9782 90.7191 59.1583 90.3623 59.2525C89.9698 59.3326 89.6136 59.5369 89.3461 59.8352C89.0787 60.1335 88.9144 60.51 88.8774 60.909C89.5922 60.6699 90.2403 60.2652 90.7689 59.7278C91.2975 59.1904 91.6916 58.5356 91.919 57.8169Z" fill="black"/>
<path d="M90.3624 47.0996C91.5989 45.537 89.6945 45.4431 89.6945 45.4431C90.1913 43.5824 87.9612 44.5818 87.9612 44.5818C86.6254 42.7375 85.8691 44.9848 85.8691 44.9848C84.4836 43.4222 84.2131 45.9732 84.2131 45.9732C82.8221 43.9909 82.1155 46.8511 82.1155 46.8511C80.8349 44.7916 80.051 47.4696 80.051 47.4696C77.407 46.5254 78.66 49.2751 78.66 49.2751C76.4078 49.3359 78.2184 51.0862 78.2184 51.0862C75.5136 51.0862 77.8982 52.6378 77.8982 52.6378C75.751 54.0458 78.4502 54.4268 78.4502 54.4268C76.7004 57.1876 79.7088 56.1495 79.7088 56.1495C78.4889 58.8661 81.1882 57.668 81.1882 57.668C81.017 60.2852 82.524 59.5729 83.2526 59.087C83.3906 59.6392 83.6556 60.1913 84.1414 60.2355C85.0853 60.3625 85.2454 58.579 85.2454 58.579C85.2454 58.579 86.1175 59.2637 86.8517 58.8937C87.5858 58.5238 87.3098 57.5907 87.3098 57.5907C87.4692 57.7098 87.6628 57.7742 87.8618 57.7742C88.0608 57.7742 88.2545 57.7098 88.4138 57.5907C88.7285 57.3477 88.7285 55.5918 88.331 54.9734L89.7662 54.4212C89.7662 54.4212 90.8316 54.2722 90.3569 52.8642C90.0704 52.0549 90.0453 51.1761 90.2851 50.3518C91.908 49.5899 90.5722 48.6954 90.5722 48.6954C92.4545 47.4861 90.3624 47.0996 90.3624 47.0996Z" fill="#263238"/>
<path d="M87.4533 53.8195C87.678 54.6432 88.1691 55.3694 88.8499 55.8846C89.7497 56.5582 90.4231 55.8845 90.3569 54.8741C90.3017 53.9575 89.7607 52.5053 88.7671 52.2292C87.7735 51.9532 87.216 52.8421 87.4533 53.8195Z" fill="#B55B52"/>
</g>
<defs>
<clipPath id="clip0_89_974">
<rect width="276" height="203" fill="white"/>
</clipPath>
</defs>
</svg>
