<svg width="21" height="31" viewBox="0 0 21 31" fill="none" xmlns="http://www.w3.org/2000/svg">
<path d="M12.75 18.25H8.25C3.65625 18.25 0 21.9531 0 26.5C0 27.3438 0.65625 28 1.5 28H19.5C20.2969 28 21 27.3438 21 26.5C21 21.9531 17.2969 18.25 12.75 18.25ZM2.25 25.75C2.625 22.7969 5.15625 20.5 8.25 20.5H12.75C15.7969 20.5 18.3281 22.7969 18.7031 25.75H2.25ZM10.5 16C13.7812 16 16.5 13.3281 16.5 10C16.5 6.71875 13.7812 4 10.5 4C7.17188 4 4.5 6.71875 4.5 10C4.5 13.3281 7.17188 16 10.5 16ZM10.5 6.25C12.5625 6.25 14.25 7.9375 14.25 10C14.25 12.1094 12.5625 13.75 10.5 13.75C8.39062 13.75 6.75 12.1094 6.75 10C6.75 7.9375 8.39062 6.25 10.5 6.25Z" fill="black"/>
</svg>
