<svg width="133" height="33" viewBox="0 0 133 33" fill="none" xmlns="http://www.w3.org/2000/svg">
<path d="M25.2683 3.17712L21.6724 18.2961L17.461 3.17712L12.7313 3.16074L8.56854 18.2797L5.02126 3.17712H0L6.26848 25.4379H11.1116L15.1286 10.8594L19.1456 25.4379H24.0211L30.2896 3.17712H25.2683Z" fill="#03045E"/>
<path d="M38.9948 26.1422C44.4534 26.1422 48.2598 21.9489 48.2598 17.4279C48.2598 12.9234 44.4534 8.73002 38.9948 8.73002C33.5524 8.73002 29.665 12.9234 29.665 17.4279C29.665 21.9489 33.5524 26.1422 38.9948 26.1422ZM38.9948 11.2853C41.6026 11.2853 43.5625 13.9226 43.5625 17.4279C43.5625 20.9497 41.554 23.4886 38.9948 23.4886C36.4356 23.4886 34.3623 20.9497 34.3623 17.4279C34.3623 13.9226 36.3546 11.2853 38.9948 11.2853Z" fill="#03045E"/>
<path d="M55.4101 10.8431V8.76278H50.729L50.7128 25.4379H55.4101L55.3777 15.1674C55.3777 15.1674 56.5926 9.49989 61.7272 13.4475L62.1483 9.38523C57.4348 7.79634 56.3334 9.58179 55.4263 10.8594L55.4101 10.8431Z" fill="#03045E"/>
<path d="M74.9192 25.4542H79.8271L73.0403 14.1027L78.4827 8.76278H73.1213L69.2986 13.0544V3.1935H64.6013V25.4379H69.2986V17.7719L70.1571 16.9038L74.9192 25.4542Z" fill="#03045E"/>
<path d="M82.5878 25.4051H87.2203V8.76278H82.523L82.5878 25.4051Z" fill="#03045E"/>
<path d="M90.4184 25.4051H95.0509V8.76278H90.3536L90.4184 25.4051Z" fill="#03045E"/>
<path d="M106.17 8.73002C104.566 8.73002 101.278 8.84468 97.7792 11.056V25.4542H102.477L102.444 12.6121C102.477 12.6121 104.566 11.2526 106.234 11.2526C107.838 11.2526 108.745 12.2518 108.745 15.7408V25.4542H113.442V15.7408C113.442 10.5974 110.527 8.73002 106.17 8.73002Z" fill="#03045E"/>
<path d="M132.984 19.7048V10.5974V10.7284L131.737 10.2698C131.656 10.237 128.384 8.76278 124.561 8.76278C120.512 8.76278 115.911 11.2526 115.911 16.7236C115.911 22.7187 120.188 26.1422 124.496 26.1422C126.812 26.1422 128.918 24.8482 128.286 25.4379V25.2085C128.254 29.0251 126.602 29.6967 125.16 29.6967C122.909 29.6967 121.289 28.9432 118.195 25.8801L118.244 30.3519C118.26 30.3683 120.058 32.4977 125.322 32.4977C128.967 32.4977 132.903 30.7451 133 25.5034H132.984V19.7048ZM124.448 23.292C123.071 23.292 120.609 21.6868 120.609 16.7236C120.609 12.4647 123.055 11.5802 124.448 11.5802C126.067 11.5802 127.007 11.8586 128.286 12.6613L128.27 21.0316C128.27 21.0316 126.812 23.292 124.448 23.292Z" fill="#03045E"/>
<path fill-rule="evenodd" clip-rule="evenodd" d="M85.1561 6.0181C86.6518 6.0181 87.8642 4.80562 87.8642 3.30995C87.8642 1.81429 86.6518 0.60181 85.1561 0.60181C83.6604 0.60181 82.4479 1.81429 82.4479 3.30995C82.4479 4.80562 83.6604 6.0181 85.1561 6.0181ZM85.1561 6.61991C86.9841 6.61991 88.466 5.13799 88.466 3.30995C88.466 1.48192 86.9841 0 85.1561 0C83.328 0 81.8461 1.48192 81.8461 3.30995C81.8461 5.13799 83.328 6.61991 85.1561 6.61991Z" fill="#03045E"/>
<path d="M87.2624 3.30995C87.2624 4.47324 86.3194 5.41628 85.1561 5.41628C83.9928 5.41628 83.0497 4.47324 83.0497 3.30995C83.0497 2.14665 83.9928 1.20361 85.1561 1.20361C86.3194 1.20361 87.2624 2.14665 87.2624 3.30995Z" fill="#03045E"/>
<path fill-rule="evenodd" clip-rule="evenodd" d="M92.9796 6.0181C94.4753 6.0181 95.6878 4.80562 95.6878 3.30995C95.6878 1.81429 94.4753 0.60181 92.9796 0.60181C91.484 0.60181 90.2715 1.81429 90.2715 3.30995C90.2715 4.80562 91.484 6.0181 92.9796 6.0181ZM92.9796 6.61991C94.8077 6.61991 96.2896 5.13799 96.2896 3.30995C96.2896 1.48192 94.8077 0 92.9796 0C91.1516 0 89.6697 1.48192 89.6697 3.30995C89.6697 5.13799 91.1516 6.61991 92.9796 6.61991Z" fill="#03045E"/>
<path d="M95.086 3.30995C95.086 4.47324 94.1429 5.41628 92.9796 5.41628C91.8163 5.41628 90.8733 4.47324 90.8733 3.30995C90.8733 2.14665 91.8163 1.20361 92.9796 1.20361C94.1429 1.20361 95.086 2.14665 95.086 3.30995Z" fill="#03045E"/>
</svg>
