<svg width="36" height="33" viewBox="0 0 36 33" fill="none" xmlns="http://www.w3.org/2000/svg">
<path d="M33 10.75L23.875 9.4375L19.75 1.125C19.375 0.375 18.6875 0 17.9375 0C17.25 0 16.5625 0.375 16.1875 1.125L12.0625 9.4375L2.9375 10.75C1.3125 11 0.625 13 1.8125 14.1875L8.4375 20.5625L6.875 29.6875C6.6875 31 7.6875 32 8.875 32C9.1875 32 9.5 31.9375 9.8125 31.8125L18 27.5L26.125 31.8125C26.4375 31.9375 26.75 32.0625 27.0625 32.0625C28.25 32.0625 29.25 31 29.0625 29.6875L27.5 20.625L34.125 14.25C35.3125 13 34.625 11 33 10.75ZM24.375 20.0625L25.75 28.1875L18.4375 24.375C18.125 24.1875 17.8125 24.1875 17.5 24.375L10.1875 28.1875L11.5625 20.0625C11.625 19.75 11.5 19.4375 11.3125 19.1875L5.375 13.4375L13.5625 12.25C13.875 12.1875 14.1875 12 14.3125 11.6875L18 4.25L21.625 11.6875C21.75 12 22.0625 12.1875 22.375 12.25L30.5625 13.4375L24.625 19.1875C24.4375 19.4375 24.3125 19.75 24.375 20.0625Z" fill="#EDEDED"/>
</svg>
