<svg width="25" height="24" viewBox="0 0 25 24" fill="none" xmlns="http://www.w3.org/2000/svg">
<path d="M21.9531 0H3.95312C2.26562 0 0.953125 1.35938 0.953125 3V16.4531C0.953125 18.0938 2.26562 19.4062 3.95312 19.4062H8.45312V23.2969C8.45312 23.7656 8.96875 24 9.34375 23.7656L15.2031 19.3594H21.9531C23.5938 19.3594 24.9531 18 24.9531 16.4062V3C24.9531 1.35938 23.6406 0 21.9531 0ZM13.375 13.5H8.125C7.46875 13.5 7 13.0312 7 12.375C7 11.7656 7.46875 11.25 8.125 11.25H13.375C13.9844 11.25 14.5 11.7656 14.5 12.375C14.5 13.0312 13.9844 13.5 13.375 13.5ZM17.875 9H8.125C7.46875 9 7 8.53125 7 7.875C7 7.26562 7.46875 6.75 8.125 6.75H17.875C18.4844 6.75 19 7.26562 19 7.875C19 8.53125 18.4844 9 17.875 9Z" fill="#03045E"/>
</svg>
