<svg width="25" height="24" viewBox="0 0 25 24" fill="none" xmlns="http://www.w3.org/2000/svg">
<path d="M21.9531 0H3.95312C2.26562 0 0.953125 1.35938 0.953125 3V16.4531C0.953125 18.0938 2.26562 19.4062 3.95312 19.4062H8.45312V23.2969C8.45312 23.7656 8.96875 24 9.34375 23.7656L15.2031 19.3594H21.9531C23.5938 19.3594 24.9531 18 24.9531 16.4062V3C24.9531 1.35938 23.6406 0 21.9531 0ZM23.5 16.5C23.5 17.3438 22.7969 18 22 18H15.2031C14.875 18 14.5938 18.1406 14.3125 18.3281L10 21.5625V18.75C10 18.375 9.625 18 9.25 18H4C3.15625 18 2.5 17.3438 2.5 16.5V3C2.5 2.20312 3.15625 1.5 4 1.5H22C22.7969 1.5 23.5 2.20312 23.5 3V16.5ZM13.75 11.25H7.75C7.32812 11.25 7 11.625 7 12C6.95312 12.4219 7.32812 12.75 7.75 12.75H13.75C14.125 12.75 14.4531 12.4219 14.4531 12C14.4531 11.625 14.125 11.25 13.75 11.25ZM18.25 6.75H7.75C7.32812 6.75 7 7.125 7 7.5C6.95312 7.92188 7.32812 8.25 7.75 8.25H18.25C18.625 8.25 18.9531 7.92188 18.9531 7.5C18.9531 7.125 18.625 6.75 18.25 6.75Z" fill="#A8A8AA"/>
</svg>
