<svg width="24" height="23" viewBox="0 0 24 23" fill="none" xmlns="http://www.w3.org/2000/svg">
<path d="M21 4.5H18V2.25C18 1.03125 16.9688 0 15.75 0H8.25C6.98438 0 6 1.03125 6 2.25V4.5H3C1.3125 4.5 0 5.85938 0 7.5V19.5C0 21.1875 1.3125 22.5 3 22.5H21C22.6406 22.5 24 21.1875 24 19.5V7.5C24 5.85938 22.6406 4.5 21 4.5ZM7.5 2.25C7.5 1.875 7.82812 1.5 8.25 1.5H15.75C16.125 1.5 16.5 1.875 16.5 2.25V4.5H7.5V2.25ZM4.5 21H3C2.15625 21 1.5 20.3438 1.5 19.5V7.5C1.5 6.70312 2.15625 6 3 6H4.5V21ZM18 21H6V6H18V21ZM22.5 19.5C22.5 20.3438 21.7969 21 21 21H19.5V6H21C21.7969 6 22.5 6.70312 22.5 7.5V19.5Z" fill="#A8A8AA"/>
</svg>
