<svg width="36" height="36" viewBox="0 0 36 36" fill="none" xmlns="http://www.w3.org/2000/svg">
<path d="M18 36C27.9411 36 36 27.9411 36 18C36 8.05887 27.9411 0 18 0C8.05887 0 0 8.05887 0 18C0 27.9411 8.05887 36 18 36Z" fill="#6C7BFF"/>
<path d="M23 17H22.5V14.5C22.5 12.0312 20.4688 10 18 10C15.5 10 13.5 12.0312 13.5 14.5V17H13C11.875 17 11 17.875 11 19V24C11 25.0938 11.875 26 13 26H23C24.0938 26 25 25.0938 25 24V19C25 17.9062 24.0938 17 23 17ZM15.5 14.5C15.5 13.125 16.5938 12 18 12C19.375 12 20.5 13.125 20.5 14.5V17H15.5V14.5Z" fill="white"/>
</svg>
