<svg width="36" height="36" viewBox="0 0 36 36" fill="none" xmlns="http://www.w3.org/2000/svg">
<path d="M18 36C27.9411 36 36 27.9411 36 18C36 8.05887 27.9411 0 18 0C8.05887 0 0 8.05887 0 18C0 27.9411 8.05887 36 18 36Z" fill="#2CB9B5"/>
<path d="M18.0938 12.6875L19.6562 13.3438L20.2812 14.9062C20.3438 14.9688 20.4062 15.0312 20.4688 15.0312C20.5625 15.0312 20.625 14.9688 20.6562 14.9062L21.3125 13.3438L22.875 12.6875C22.9375 12.6562 22.9688 12.5938 22.9688 12.5C22.9688 12.4375 22.9375 12.375 22.875 12.3125L21.3125 11.6875L20.6562 10.125C20.625 10.0625 20.5625 10 20.5 10C20.4062 10 20.3438 10.0625 20.3125 10.125L19.6562 11.6875L18.0938 12.3438C18.0312 12.375 18 12.4375 18 12.5312C18 12.5938 18.0312 12.6562 18.0938 12.6875ZM21.375 18.375L18.0938 17.875L16.625 14.9062C16.375 14.375 15.5938 14.375 15.3438 14.9062L13.875 17.875L10.5938 18.375C10 18.4375 9.78125 19.1875 10.2188 19.5938L12.5625 21.9062L12.0312 25.1875C11.9375 25.75 12.5625 26.2188 13.0938 25.9375L16 24.375L18.9375 25.9375C19.1875 26.0625 19.4688 26.0312 19.6875 25.875C19.875 25.7188 20.0312 25.4375 19.9688 25.1875L19.4062 21.9062L21.7812 19.5938C22.1875 19.1875 21.9688 18.4375 21.375 18.375ZM25.9062 16.875L24.6562 16.3438L24.125 15.125C24.0938 15.0625 24.0625 15.0312 24 15.0312C23.9375 15.0312 23.875 15.0625 23.8438 15.125L23.3125 16.3438L22.0938 16.875C22.0312 16.9062 21.9688 16.9688 21.9688 17.0312C21.9688 17.0938 22.0312 17.125 22.0938 17.1562L23.3125 17.6875L23.8438 18.9375C23.875 18.9688 23.9062 19.0312 23.9688 19.0312C24.0312 19.0312 24.0938 18.9688 24.125 18.9375L24.6562 17.6875L25.875 17.1562C25.9375 17.125 26 17.0625 26 17C26 16.9375 25.9375 16.9062 25.9062 16.875Z" fill="white"/>
</svg>
