<svg width="36" height="36" viewBox="0 0 36 36" fill="none" xmlns="http://www.w3.org/2000/svg">
<path d="M18 36C27.9411 36 36 27.9411 36 18C36 8.05887 27.9411 0 18 0C8.05887 0 0 8.05887 0 18C0 27.9411 8.05887 36 18 36Z" fill="#B680FF"/>
<path d="M26.6875 11.3125C25.8125 10.4375 24.6875 10 23.5625 10C22.4375 10 21.3125 10.4375 20.4375 11.3125L19.0938 12.6562C19.5625 12.9062 20 13.2188 20.4062 13.5938C20.5 13.6875 20.5938 13.8125 20.6562 13.9062L21.8438 12.7188C22.3125 12.2812 22.9062 12 23.5625 12C24.2188 12 24.8125 12.2812 25.2812 12.7188C25.7188 13.1875 25.9688 13.7812 25.9688 14.4375C25.9688 15.0938 25.7188 15.6875 25.2812 16.1562L21.125 20.3125C20.6562 20.75 20.0625 21 19.4062 21C18.75 21 18.1562 20.75 17.6875 20.3125C17.25 19.8438 16.9688 19.25 16.9688 18.5938C16.9688 17.9375 17.2188 17.3438 17.6562 16.875L17.8125 16.7812C17.75 16.6562 17.6562 16.5312 17.5625 16.4375C17.3125 16.1562 16.9375 16 16.5625 16C16.1875 16 15.8438 16.1562 15.5625 16.4062C14.625 18.0938 14.8438 20.2812 16.2812 21.7188C17.1562 22.5938 18.2812 23 19.4062 23C20.5312 23 21.6562 22.5938 22.5312 21.7188L26.6875 17.5625C27.5938 16.6562 28 15.5 27.9688 14.3125C27.9688 13.2188 27.5312 12.1562 26.6875 11.3125ZM15.3125 22.125L14.125 23.3125C13.6562 23.75 13.0625 24 12.4062 24C11.75 24 11.1562 23.75 10.6875 23.3125C10.25 22.8438 10 22.25 10 21.5938C10 20.9375 10.25 20.3438 10.6875 19.875L14.8438 15.7188C15.3125 15.25 15.9062 15 16.5625 15C17.25 15 17.8125 15.2812 18.2812 15.7188C18.7188 16.1875 18.9688 16.7812 18.9688 17.4375C18.9688 18.0938 18.7188 18.6875 18.2812 19.1562L18.1562 19.25C18.2188 19.375 18.3125 19.5 18.4062 19.5938C18.6562 19.875 19.0312 20 19.4062 20C19.7812 20 20.125 19.875 20.4062 19.625C21.3438 17.9375 21.125 15.75 19.6875 14.3125C18.8125 13.4375 17.6875 13 16.5625 13C15.4375 13 14.3125 13.4375 13.4375 14.3125L9.28125 18.4688C8.40625 19.3438 8 20.4688 8 21.5938C8 22.7188 8.40625 23.875 9.28125 24.7188C10.1562 25.5938 11.2812 26 12.4062 26C13.5312 26 14.6562 25.5938 15.5312 24.7188L16.875 23.375C16.4062 23.125 15.9688 22.8125 15.5625 22.4375C15.4688 22.3438 15.375 22.2188 15.3125 22.125Z" fill="white"/>
</svg>
