<svg width="36" height="36" viewBox="0 0 36 36" fill="none" xmlns="http://www.w3.org/2000/svg">
<path d="M18 36C27.9411 36 36 27.9411 36 18C36 8.05887 27.9411 0 18 0C8.05887 0 0 8.05887 0 18C0 27.9411 8.05887 36 18 36Z" fill="#FE33BF"/>
<path d="M25.9688 12V20.9688C25.9688 22.0625 25.0625 22.9375 23.9688 22.9375H19.4688L15.5625 25.8438C15.3125 26.0312 14.9688 25.875 14.9688 25.5625V22.9375H11.9688C10.8438 22.9375 9.96875 22.0312 9.96875 20.9688V12C9.96875 10.875 10.8438 10 11.9688 10H23.9688C25.0938 10 25.9688 10.9062 25.9688 12Z" fill="white"/>
</svg>
