<svg width="36" height="36" viewBox="0 0 36 36" fill="none" xmlns="http://www.w3.org/2000/svg">
<path d="M18 36C27.9411 36 36 27.9411 36 18C36 8.05887 27.9411 0 18 0C8.05887 0 0 8.05887 0 18C0 27.9411 8.05887 36 18 36Z" fill="#8737EE"/>
<g clip-path="url(#clip0_739_6615)">
<path d="M27.6663 16.4686L25.289 14.531V11.4323C25.289 11.0834 25.005 10.7995 24.6561 10.7995H23.1602C22.8113 10.7995 22.5274 11.0834 22.5274 11.4323V12.2802L19.3508 9.69125C19.121 9.50404 18.8181 9.40088 18.498 9.40088C18.1791 9.40088 17.8777 9.5034 17.6492 9.68964L9.3337 16.4685C8.95588 16.7764 8.97854 17.0446 9.02566 17.177C9.07267 17.3092 9.22404 17.5309 9.70939 17.5309H10.848V26.4455C10.848 27.0817 11.3642 27.5993 11.9987 27.5993H15.5946C16.2237 27.5993 16.7165 27.0924 16.7165 26.4455V22.7898C16.7165 22.4765 17.0044 22.1912 17.3206 22.1912H19.737C20.0383 22.1912 20.2835 22.4597 20.2835 22.7898V26.4455C20.2835 27.0709 20.8237 27.5993 21.463 27.5993H25.0013C25.6358 27.5993 26.152 27.0817 26.152 26.4455V17.5309H27.2906C27.776 17.5309 27.9273 17.3092 27.9743 17.177C28.0215 17.0446 28.0441 16.7764 27.6663 16.4686Z" fill="white"/>
</g>
<defs>
<clipPath id="clip0_739_6615">
<rect width="19" height="19" fill="white" transform="translate(9 9)"/>
</clipPath>
</defs>
</svg>
