<svg width="36" height="36" viewBox="0 0 36 36" fill="none" xmlns="http://www.w3.org/2000/svg">
<path d="M18 36C27.9411 36 36 27.9411 36 18C36 8.05887 27.9411 0 18 0C8.05887 0 0 8.05887 0 18C0 27.9411 8.05887 36 18 36Z" fill="#B4B4B4"/>
<path d="M19.375 11.0312H16C14.3438 11.0312 13 12.375 13 14.0312C13 14.5625 13.4375 15 14 15C14.5312 15 15 14.5312 15 14.0312C15 13.4688 15.4375 13.0312 16 13.0312H19.375C20.25 13.0312 21 13.75 21 14.625C21 15.25 20.6562 15.8125 20.0312 16.125L16.9688 17.9062C16.6562 18.0938 16.5 18.4062 16.5 18.75V20C16.5 20.5625 16.9375 21 17.5 21C18.0312 21 18.5 20.5625 18.5 20V19.3438L21 17.875C22.2188 17.25 23 16 23 14.625C23 12.625 21.375 11.0312 19.375 11.0312ZM17.5 22.5C16.7812 22.5 16.25 23.0625 16.25 23.75C16.25 24.4688 16.7812 25 17.5 25C18.1875 25 18.75 24.4375 18.75 23.75C18.75 23.0938 18.1875 22.5 17.5 22.5Z" fill="white"/>
</svg>
