<svg width="36" height="36" viewBox="0 0 36 36" fill="none" xmlns="http://www.w3.org/2000/svg">
<path d="M18 36C27.9411 36 36 27.9411 36 18C36 8.05887 27.9411 0 18 0C8.05887 0 0 8.05887 0 18C0 27.9411 8.05887 36 18 36Z" fill="#FFC86B"/>
<path d="M22 10H14C12.875 10 12 10.9062 12 12V24C12 25.125 12.875 26 14 26H22C23.0938 26 24 25.125 24 24V12C24 10.9062 23.0938 10 22 10ZM18.5 21H14.5C14.2188 21 14 20.7812 14 20.5C14 20.25 14.2188 20 14.5 20H18.5C18.75 20 19 20.25 19 20.5C19 20.7812 18.75 21 18.5 21ZM21.5 18H14.5C14.2188 18 14 17.7812 14 17.5C14 17.25 14.2188 17 14.5 17H21.5C21.75 17 22 17.25 22 17.5C22 17.7812 21.75 18 21.5 18ZM21.5 15H14.5C14.2188 15 14 14.7812 14 14.5C14 14.25 14.2188 14 14.5 14H21.5C21.75 14 22 14.25 22 14.5C22 14.7812 21.75 15 21.5 15Z" fill="white"/>
</svg>
