<svg width="36" height="36" viewBox="0 0 36 36" fill="none" xmlns="http://www.w3.org/2000/svg">
<path d="M18 36C27.9411 36 36 27.9411 36 18C36 8.05887 27.9411 0 18 0C8.05887 0 0 8.05887 0 18C0 27.9411 8.05887 36 18 36Z" fill="#37ACEE"/>
<path d="M10 14.5V23.5C10 24.3125 10.6875 25 11.5 25H13V13H11.5C10.6875 13 10 13.7188 10 14.5ZM20.5 10H15.5C14.6875 10 14 10.7188 14 11.5V25H22V11.5C22 10.7188 21.2812 10 20.5 10ZM20.5 13H15.5V11.5H20.5V13ZM24.5 13H23V25H24.5C25.2812 25 26 24.3125 26 23.5V14.5C26 13.7188 25.2812 13 24.5 13Z" fill="white"/>
</svg>
